<?xml version="1.0" encoding="UTF-8"?>
<svg id="_圖層_2" data-name="圖層 2" xmlns="http://www.w3.org/2000/svg" viewBox="0 0 600.64 196.1">
  <defs>
    <style>
      .cls-1 {
        fill: #9d9e9e;
      }

      .cls-2, .cls-3 {
        fill: #fff;
      }

      .cls-4, .cls-3 {
        opacity: .5;
      }
    </style>
  </defs>
  <g id="context">
    <g class="cls-4">
      <path class="cls-2" d="M188.85,156.33h-.55c-.32-2.31-1.38-4.33-3.18-6.07s-4.19-2.6-7.14-2.6c-1.93,0-3.65,.43-5.15,1.29-1.5,.86-2.66,2.04-3.47,3.52-.82,1.49-1.22,3.19-1.22,5.12,0,1.49,.24,2.81,.73,3.96,.49,1.15,1.2,2.17,2.16,3.06,.95,.89,2.08,1.71,3.38,2.48,1.29,.77,3.04,1.73,5.24,2.89,3.68,1.92,6.54,3.83,8.58,5.74,2.05,1.91,3.07,4.53,3.07,7.85,0,2.02-.55,3.98-1.65,5.87s-2.77,3.43-4.99,4.64c-2.23,1.21-4.98,1.81-8.27,1.81-2.07,0-3.9-.21-5.48-.63-1.59-.42-3.21-1.01-4.84-1.77-.68-.21-1.15-.32-1.4-.32-.47,0-.78,.16-.94,.49-.15,.32-.34,1.02-.59,2.1h-.58v-11.94h.58c.82,3.49,2.41,6.14,4.77,7.93,2.36,1.79,5.24,2.69,8.61,2.69,2.54,0,4.58-.46,6.12-1.36,1.53-.91,2.59-2.01,3.18-3.3s.89-2.59,.89-3.88c0-2.68-.86-4.86-2.57-6.56-1.71-1.69-4.32-3.42-7.81-5.19-2.41-1.25-4.2-2.22-5.35-2.91-1.16-.69-2.34-1.59-3.53-2.69-1.19-1.1-2.14-2.4-2.84-3.9-.7-1.5-1.06-3.22-1.06-5.16,0-2.24,.62-4.39,1.87-6.44,1.25-2.05,3.02-3.69,5.31-4.93,2.3-1.24,4.89-1.86,7.8-1.86,2.2,0,4.46,.36,6.78,1.07,.36,.17,.85,.26,1.46,.26,.75,0,1.26-.49,1.53-1.46h.55v10.19Z"/>
      <path class="cls-2" d="M237.57,157.86h-.58c-.43-2.33-1.58-4.3-3.46-5.92-1.87-1.62-4.02-2.8-6.46-3.55s-4.7-1.11-6.82-1.11c-2.88,0-5.59,.58-8.12,1.73-2.53,1.16-4.71,2.79-6.55,4.89-1.84,2.1-3.28,4.63-4.3,7.57s-1.53,6.14-1.53,9.59,.49,6.44,1.48,9.3,2.43,5.34,4.33,7.44c1.89,2.1,4.09,3.69,6.59,4.77,2.5,1.08,5.27,1.62,8.31,1.62,2.54,0,5.34-.49,8.38-1.47,3.04-.98,5.79-2.61,8.24-4.9v1.84c-3.03,2.22-5.79,3.85-8.3,4.88-2.51,1.04-5.64,1.56-9.39,1.56-3.95,0-7.56-.69-10.81-2.05-3.26-1.37-6.01-3.22-8.26-5.55-2.24-2.33-3.95-4.95-5.11-7.86-1.16-2.91-1.74-5.91-1.74-9,0-4.63,1.2-8.95,3.61-12.93,2.41-3.98,5.67-7.13,9.77-9.44,4.11-2.32,8.57-3.48,13.39-3.48,2.97,0,6.15,.42,9.51,1.26l3.54,.94c.68,.13,1.26,.19,1.74,.19,.89,0,1.48-.12,1.77-.37s.52-.7,.68-1.34h.55l-.48,11.39Z"/>
      <path class="cls-2" d="M238.92,147.73v-.55h29.91v7.51h-.47c0-4.01-2.82-6.02-8.45-6.02h-10.45v21.65h9.2c1.81,0,3.44-.28,4.87-.84,1.44-.56,2.25-1.84,2.45-3.85h.52v10.81h-.52c-.2-1.23-.58-2.17-1.15-2.83s-1.13-1.1-1.68-1.31c-.56-.21-1.06-.32-1.49-.32-.82-.13-1.67-.2-2.55-.2h-9.64v16.92c0,1.27,.25,2.37,.77,3.3,.51,.92,1.69,1.39,3.56,1.39h7.46c1.79,0,3.27-.25,4.43-.74,1.16-.49,2.07-1.19,2.74-2.07,.67-.88,1.23-1.95,1.68-3.2h.47l-1.74,7.47h-29.91v-.52h.69c1.07,0,2.11-.41,3.13-1.23,1.02-.82,1.53-2.16,1.53-4.01v-35.91c0-1.47-.34-2.74-1.03-3.82-.7-1.07-1.91-1.62-3.63-1.62h-.69Z"/>
      <path class="cls-2" d="M323.03,147.18v.55c-1.27,.15-2.28,.38-3.02,.7s-1.31,.93-1.72,1.84c-.4,.92-.61,2.24-.61,3.96v41.8h-.34l-38.52-40.83v29.31c0,2.44,.1,4.25,.3,5.43,.21,1.19,.5,2.04,.89,2.56,.84,1.12,2.3,1.73,4.4,1.81v.52h-12.58v-.52c1.41-.06,2.51-.35,3.29-.86,.78-.51,1.34-1.44,1.67-2.78,.33-1.35,.49-3.38,.49-6.1v-31.09l-1.67-1.78c-1.48-1.59-2.66-2.6-3.54-3.03-.89-.42-1.99-.74-3.3-.95v-.55h9.43l37.96,40.38v-30.76c0-2.31-.1-4.04-.29-5.18-.2-1.14-.7-2.06-1.53-2.75-.83-.69-2.13-1.07-3.9-1.13v-.55h12.6Z"/>
      <path class="cls-2" d="M324.23,147.73v-.55h29.91v7.51h-.47c0-4.01-2.82-6.02-8.45-6.02h-10.45v21.65h9.2c1.81,0,3.44-.28,4.87-.84,1.44-.56,2.25-1.84,2.45-3.85h.52v10.81h-.52c-.2-1.23-.58-2.17-1.15-2.83s-1.13-1.1-1.68-1.31c-.56-.21-1.06-.32-1.49-.32-.82-.13-1.67-.2-2.55-.2h-9.64v16.92c0,1.27,.25,2.37,.77,3.3,.51,.92,1.69,1.39,3.56,1.39h7.46c1.79,0,3.27-.25,4.43-.74,1.16-.49,2.07-1.19,2.74-2.07,.67-.88,1.23-1.95,1.68-3.2h.47l-1.74,7.47h-29.91v-.52h.69c1.07,0,2.11-.41,3.13-1.23,1.02-.82,1.53-2.16,1.53-4.01v-35.91c0-1.47-.34-2.74-1.03-3.82-.7-1.07-1.91-1.62-3.63-1.62h-.69Z"/>
      <path class="cls-2" d="M356.92,147.86h-.69v-.68h17.37c2.79,0,5.17,.41,7.1,1.23,1.94,.82,3.46,1.86,4.53,3.12,1.08,1.26,1.86,2.6,2.32,4s.7,2.78,.7,4.14c0,1.73-.38,3.38-1.14,4.97-.76,1.59-1.93,2.95-3.51,4.09-1.57,1.14-3.55,1.92-5.91,2.33v.13c2.99,1.38,5.77,4.12,8.31,8.22l4.53,7.28c2.04,3.26,3.68,5.32,4.92,6.18s2.46,1.35,3.66,1.46v.52h-9.13c-.39-.47-.75-.93-1.09-1.38-.34-.44-.7-.91-1.08-1.41-.23-.33-.57-.82-1.01-1.47-.45-.66-.71-1.03-.8-1.11l-6-9.42c-1.2-1.92-2.43-3.48-3.7-4.67-1.26-1.2-2.43-2.05-3.52-2.57-1.09-.52-2.07-.84-2.95-.97-.87-.13-1.9-.19-3.08-.19v17.44c0,3.39,1.81,5.14,5.45,5.24v.52h-15.98v-.52c1.01-.04,1.89-.22,2.66-.54,.77-.31,1.42-.85,1.93-1.62,.52-.77,.77-1.8,.77-3.09v-36.04c0-1.9-.48-3.23-1.46-4.01s-2.05-1.16-3.2-1.16Zm9.84,22.52h2.86c2.99,0,5.45-.41,7.37-1.23,1.93-.82,3.31-1.99,4.18-3.51,.86-1.52,1.29-3.38,1.29-5.58,0-1.84-.38-3.63-1.15-5.39-.77-1.76-2.09-3.24-3.94-4.44-1.85-1.19-4.34-1.79-7.48-1.79-1.27,0-2.31,.09-3.13,.29v21.65Z"/>
      <path class="cls-2" d="M438.09,147.18v.55c-1.5,.02-2.84,.36-4.01,1-1.17,.65-2.08,1.32-2.74,2.02-.65,.7-1.36,1.55-2.11,2.54l-11.72,16.76v19.08c0,1.71,.53,2.98,1.62,3.83,1.07,.85,2.38,1.3,3.9,1.35v.52h-15.91v-.52c1.62-.04,2.89-.48,3.83-1.31,.94-.83,1.41-2.12,1.41-3.87v-18.28l-12.77-18.18c-1.36-1.96-2.58-3.27-3.66-3.92-1.07-.65-2.54-.99-4.38-1.04v-.55h17.82v.55c-1.82,.06-2.98,.44-3.5,1.12-.51,.68-.77,1.32-.77,1.93,0,.69,.45,1.66,1.33,2.91l10.45,14.72,9.27-13.26c1.41-1.99,2.11-3.51,2.11-4.56,0-.73-.19-1.3-.57-1.71-.37-.41-.75-.68-1.13-.81s-.8-.24-1.23-.32v-.55h12.74Z"/>
    </g>
    <g class="cls-4">
      <path class="cls-2" d="M44.08,13.04h-.58c-.43-2.33-1.58-4.3-3.46-5.92-1.87-1.62-4.02-2.8-6.46-3.55s-4.7-1.11-6.82-1.11c-2.88,0-5.59,.58-8.12,1.73-2.53,1.16-4.71,2.79-6.55,4.89s-3.28,4.63-4.3,7.57c-1.02,2.94-1.53,6.14-1.53,9.59s.49,6.44,1.48,9.3,2.43,5.34,4.33,7.44c1.89,2.1,4.09,3.69,6.59,4.77,2.5,1.08,5.27,1.62,8.31,1.62,2.54,0,5.34-.49,8.38-1.47s5.79-2.61,8.24-4.9v1.84c-3.03,2.22-5.79,3.85-8.3,4.88-2.51,1.04-5.64,1.56-9.39,1.56-3.95,0-7.56-.69-10.81-2.05-3.26-1.37-6.01-3.22-8.26-5.55-2.24-2.33-3.95-4.95-5.11-7.86-1.16-2.91-1.74-5.91-1.74-9,0-4.63,1.2-8.95,3.61-12.93,2.41-3.98,5.67-7.13,9.77-9.44C17.49,2.13,21.96,.97,26.77,.97c2.97,0,6.15,.42,9.51,1.26l3.54,.94c.68,.13,1.26,.19,1.74,.19,.89,0,1.48-.12,1.77-.37s.52-.7,.68-1.34h.55l-.48,11.39Z"/>
      <path class="cls-2" d="M99.63,26.24c0,4.47-1.17,8.62-3.5,12.46-2.32,3.84-5.5,6.89-9.52,9.17-4.02,2.28-8.47,3.42-13.35,3.42s-9.4-1.14-13.5-3.42c-4.08-2.27-7.3-5.34-9.65-9.2-2.35-3.86-3.52-8.07-3.52-12.62,0-3.49,.7-6.78,2.1-9.85,1.39-3.07,3.34-5.76,5.85-8.04,2.51-2.28,5.37-4.05,8.59-5.3,3.22-1.25,6.57-1.88,10.07-1.88s6.72,.6,9.88,1.8c3.16,1.2,5.99,2.93,8.49,5.19,2.51,2.27,4.49,4.95,5.91,8.06,1.43,3.11,2.15,6.52,2.15,10.23Zm-6,.13c0-6.34-1.18-11.3-3.54-14.88s-5.09-5.98-8.18-7.2c-3.09-1.22-5.99-1.83-8.72-1.83-2.11,0-4.31,.33-6.58,.98-2.27,.66-4.48,1.86-6.63,3.61-2.14,1.75-3.91,4.21-5.3,7.38-1.38,3.17-2.08,7.08-2.08,11.74,0,4.1,.58,7.67,1.72,10.72,1.15,3.05,2.73,5.54,4.74,7.47,2.01,1.93,4.23,3.32,6.65,4.17,2.42,.85,4.93,1.28,7.55,1.28,2.34,0,4.7-.4,7.1-1.18,2.39-.79,4.58-2.07,6.58-3.85,1.99-1.78,3.59-4.19,4.83-7.25,1.24-3.05,1.86-6.77,1.86-11.18Z"/>
      <path class="cls-2" d="M102.43,49.5h.68c1.23,0,2.31-.46,3.26-1.38,.94-.92,1.41-2.21,1.41-3.87V8.28c0-1.99-.52-3.37-1.58-4.14s-2.31-1.19-3.77-1.23v-.55h16.04v.55c-1.4,.04-2.66,.44-3.74,1.2-1.09,.75-1.64,2.14-1.64,4.17V43.06c0,2.07,.55,3.5,1.64,4.3,1.08,.8,2.87,1.19,5.35,1.19h4.32c1.88,0,3.39-.21,4.51-.64,1.13-.43,2.01-1.09,2.67-1.97,.66-.89,1.33-2.14,2.01-3.75h.58l-1.91,7.83h-29.84v-.52Z"/>
      <path class="cls-2" d="M133.84,49.5h.68c1.23,0,2.31-.46,3.26-1.38,.94-.92,1.41-2.21,1.41-3.87V8.28c0-1.99-.52-3.37-1.58-4.14s-2.31-1.19-3.77-1.23v-.55h16.04v.55c-1.4,.04-2.66,.44-3.74,1.2-1.09,.75-1.64,2.14-1.64,4.17V43.06c0,2.07,.55,3.5,1.64,4.3,1.08,.8,2.87,1.19,5.35,1.19h4.32c1.88,0,3.39-.21,4.51-.64,1.13-.43,2.01-1.09,2.67-1.97,.66-.89,1.33-2.14,2.01-3.75h.58l-1.91,7.83h-29.84v-.52Z"/>
      <path class="cls-2" d="M165.09,2.91v-.55h29.91v7.51h-.47c0-4.01-2.82-6.02-8.45-6.02h-10.45V25.49h9.2c1.81,0,3.44-.28,4.87-.84,1.44-.56,2.25-1.84,2.45-3.85h.52v10.81h-.52c-.2-1.23-.58-2.17-1.15-2.83s-1.13-1.1-1.68-1.31c-.56-.21-1.06-.32-1.49-.32-.82-.13-1.67-.2-2.55-.2h-9.64v16.92c0,1.27,.25,2.37,.77,3.3,.51,.92,1.69,1.39,3.56,1.39h7.46c1.79,0,3.27-.25,4.43-.74,1.16-.49,2.07-1.19,2.74-2.07,.67-.88,1.23-1.95,1.68-3.2h.47l-1.74,7.47h-29.91v-.52h.69c1.07,0,2.11-.41,3.13-1.23,1.02-.82,1.53-2.16,1.53-4.01V8.35c0-1.47-.34-2.74-1.03-3.82-.7-1.07-1.91-1.62-3.63-1.62h-.69Z"/>
      <path class="cls-2" d="M242.51,13.04h-.58c-.43-2.33-1.58-4.3-3.46-5.92-1.87-1.62-4.02-2.8-6.46-3.55s-4.7-1.11-6.82-1.11c-2.88,0-5.59,.58-8.12,1.73-2.53,1.16-4.71,2.79-6.55,4.89s-3.28,4.63-4.3,7.57c-1.02,2.94-1.53,6.14-1.53,9.59s.49,6.44,1.48,9.3,2.43,5.34,4.33,7.44c1.89,2.1,4.09,3.69,6.59,4.77,2.5,1.08,5.27,1.62,8.31,1.62,2.54,0,5.34-.49,8.38-1.47s5.79-2.61,8.24-4.9v1.84c-3.03,2.22-5.79,3.85-8.3,4.88-2.51,1.04-5.64,1.56-9.39,1.56-3.95,0-7.56-.69-10.81-2.05-3.26-1.37-6.01-3.22-8.26-5.55-2.24-2.33-3.95-4.95-5.11-7.86-1.16-2.91-1.74-5.91-1.74-9,0-4.63,1.2-8.95,3.61-12.93,2.41-3.98,5.67-7.13,9.77-9.44,4.11-2.32,8.57-3.48,13.39-3.48,2.97,0,6.15,.42,9.51,1.26l3.54,.94c.68,.13,1.26,.19,1.74,.19,.89,0,1.48-.12,1.77-.37s.52-.7,.68-1.34h.55l-.48,11.39Z"/>
      <path class="cls-2" d="M286.75,11.64h-.54c-.25-3.1-1.2-5.12-2.86-6.03-1.66-.92-3.71-1.38-6.13-1.38h-9.98V44.26c0,3.39,1.81,5.14,5.45,5.24v.52h-15.98v-.52c1.5-.04,2.77-.46,3.8-1.25,1.03-.79,1.55-2.12,1.55-4V4.24h-9.98c-2.42,0-4.47,.46-6.11,1.38-1.65,.92-2.6,2.93-2.88,6.03h-.54V0h.54c.36,.54,.68,.94,.95,1.19s.63,.48,1.06,.66c.43,.18,.94,.31,1.51,.39,.58,.07,1.27,.11,2.06,.11h32.5c2.16,0,3.84-.79,5.05-2.36h.54V11.64Z"/>
      <path class="cls-2" d="M306.89,2.91v-.55h16.45c2.75,0,5.18,.36,7.27,1.07,2.1,.71,3.85,1.68,5.24,2.91,1.4,1.23,2.44,2.61,3.14,4.16,.69,1.54,1.04,3.17,1.04,4.87s-.33,3.26-.97,4.81c-.65,1.54-1.67,2.91-3.05,4.1-1.38,1.2-3.21,2.15-5.45,2.87-2.25,.71-4.84,1.07-7.76,1.07-.94,0-2.73-.13-5.39-.39v16.43c0,3.39,1.82,5.14,5.45,5.24v.52h-15.97v-.52c1.56-.04,2.85-.47,3.87-1.28,1.01-.81,1.51-2.13,1.51-3.96V8.21c0-1.1-.18-2.02-.54-2.75-.37-.74-.79-1.26-1.28-1.57-.49-.31-1.03-.55-1.63-.7s-1.01-.25-1.25-.29h-.68Zm10.52,1.13V26.5c1.75,.3,3.48,.45,5.18,.45,3.24,0,6-.79,8.26-2.38,2.25-1.59,3.39-4.52,3.39-8.82,0-3.54-1-6.44-2.98-8.72-1.99-2.28-5-3.41-9.04-3.41-1.56,0-3.16,.14-4.81,.42Z"/>
      <path class="cls-2" d="M341.62,3.04h-.69v-.68h17.37c2.79,0,5.17,.41,7.1,1.23,1.94,.82,3.46,1.86,4.53,3.12,1.08,1.26,1.86,2.6,2.32,4s.7,2.78,.7,4.14c0,1.73-.38,3.38-1.14,4.97-.76,1.59-1.93,2.95-3.51,4.09-1.57,1.14-3.55,1.92-5.91,2.33v.13c2.99,1.38,5.77,4.12,8.31,8.22l4.53,7.28c2.04,3.26,3.68,5.32,4.92,6.18,1.24,.86,2.46,1.35,3.66,1.46v.52h-9.13c-.39-.47-.75-.93-1.09-1.38-.34-.44-.7-.91-1.08-1.41-.23-.33-.57-.82-1.01-1.47-.45-.66-.71-1.03-.8-1.11l-6-9.42c-1.2-1.92-2.43-3.48-3.7-4.67-1.26-1.2-2.43-2.05-3.52-2.57-1.09-.52-2.07-.84-2.95-.97-.87-.13-1.9-.19-3.08-.19v17.44c0,3.39,1.81,5.14,5.45,5.24v.52h-15.98v-.52c1.01-.04,1.89-.22,2.66-.54,.77-.31,1.42-.85,1.93-1.62,.52-.77,.77-1.8,.77-3.09V8.21c0-1.9-.48-3.23-1.46-4.01s-2.05-1.16-3.2-1.16Zm9.84,22.52h2.86c2.99,0,5.45-.41,7.37-1.23,1.93-.82,3.31-1.99,4.18-3.51,.86-1.52,1.29-3.38,1.29-5.58,0-1.84-.38-3.63-1.15-5.39s-2.09-3.24-3.94-4.44c-1.85-1.19-4.34-1.79-7.48-1.79-1.27,0-2.31,.09-3.13,.29V25.56Z"/>
      <path class="cls-2" d="M399.31,2.36v.55c-1.5,0-2.78,.4-3.82,1.2-1.05,.8-1.56,2.12-1.56,3.98V44.26c0,1.84,.55,3.17,1.67,4,1.11,.83,2.35,1.25,3.71,1.25v.52h-15.91v-.52c1.45,0,2.71-.41,3.77-1.22s1.58-2.15,1.58-4.03V8.09c0-1.98-.52-3.34-1.58-4.07-1.06-.74-2.31-1.1-3.77-1.1v-.55h15.91Z"/>
      <path class="cls-2" d="M446.18,13.04h-.58c-.43-2.33-1.58-4.3-3.46-5.92-1.87-1.62-4.02-2.8-6.46-3.55s-4.7-1.11-6.82-1.11c-2.88,0-5.59,.58-8.12,1.73-2.53,1.16-4.71,2.79-6.55,4.89s-3.28,4.63-4.3,7.57c-1.02,2.94-1.53,6.14-1.53,9.59s.49,6.44,1.48,9.3,2.43,5.34,4.33,7.44c1.89,2.1,4.09,3.69,6.59,4.77,2.5,1.08,5.27,1.62,8.31,1.62,2.54,0,5.34-.49,8.38-1.47s5.79-2.61,8.24-4.9v1.84c-3.03,2.22-5.79,3.85-8.3,4.88-2.51,1.04-5.64,1.56-9.39,1.56-3.95,0-7.56-.69-10.81-2.05-3.26-1.37-6.01-3.22-8.26-5.55-2.24-2.33-3.95-4.95-5.11-7.86-1.16-2.91-1.74-5.91-1.74-9,0-4.63,1.2-8.95,3.61-12.93,2.41-3.98,5.67-7.13,9.77-9.44,4.11-2.32,8.57-3.48,13.39-3.48,2.97,0,6.15,.42,9.51,1.26l3.54,.94c.68,.13,1.26,.19,1.74,.19,.89,0,1.48-.12,1.77-.37s.52-.7,.68-1.34h.55l-.48,11.39Z"/>
      <path class="cls-2" d="M447.53,2.91v-.55h29.91v7.51h-.47c0-4.01-2.82-6.02-8.45-6.02h-10.45V25.49h9.2c1.81,0,3.44-.28,4.87-.84,1.44-.56,2.25-1.84,2.45-3.85h.52v10.81h-.52c-.2-1.23-.58-2.17-1.15-2.83s-1.13-1.1-1.68-1.31c-.56-.21-1.06-.32-1.49-.32-.82-.13-1.67-.2-2.55-.2h-9.64v16.92c0,1.27,.25,2.37,.77,3.3,.51,.92,1.69,1.39,3.56,1.39h7.46c1.79,0,3.27-.25,4.43-.74,1.16-.49,2.07-1.19,2.74-2.07,.67-.88,1.23-1.95,1.68-3.2h.47l-1.74,7.47h-29.91v-.52h.69c1.07,0,2.11-.41,3.13-1.23,1.02-.82,1.53-2.16,1.53-4.01V8.35c0-1.47-.34-2.74-1.03-3.82-.7-1.07-1.91-1.62-3.63-1.62h-.69Z"/>
      <path class="cls-2" d="M479.74,49.5h.68c1.23,0,2.31-.46,3.26-1.38,.94-.92,1.41-2.21,1.41-3.87V8.28c0-1.99-.52-3.37-1.58-4.14s-2.31-1.19-3.77-1.23v-.55h16.04v.55c-1.4,.04-2.66,.44-3.74,1.2-1.09,.75-1.64,2.14-1.64,4.17V43.06c0,2.07,.55,3.5,1.64,4.3,1.08,.8,2.87,1.19,5.35,1.19h4.32c1.88,0,3.39-.21,4.51-.64,1.13-.43,2.01-1.09,2.67-1.97,.66-.89,1.33-2.14,2.01-3.75h.58l-1.91,7.83h-29.84v-.52Z"/>
      <path class="cls-2" d="M511,2.91v-.55h29.91v7.51h-.47c0-4.01-2.82-6.02-8.45-6.02h-10.45V25.49h9.2c1.81,0,3.44-.28,4.87-.84,1.44-.56,2.25-1.84,2.45-3.85h.52v10.81h-.52c-.2-1.23-.58-2.17-1.15-2.83s-1.13-1.1-1.68-1.31c-.56-.21-1.06-.32-1.49-.32-.82-.13-1.67-.2-2.55-.2h-9.64v16.92c0,1.27,.25,2.37,.77,3.3,.51,.92,1.69,1.39,3.56,1.39h7.46c1.79,0,3.27-.25,4.43-.74,1.16-.49,2.07-1.19,2.74-2.07,.67-.88,1.23-1.95,1.68-3.2h.47l-1.74,7.47h-29.91v-.52h.69c1.07,0,2.11-.41,3.13-1.23,1.02-.82,1.53-2.16,1.53-4.01V8.35c0-1.47-.34-2.74-1.03-3.82-.7-1.07-1.91-1.62-3.63-1.62h-.69Z"/>
      <path class="cls-2" d="M568.94,11.52h-.55c-.32-2.31-1.38-4.33-3.18-6.07s-4.19-2.6-7.14-2.6c-1.93,0-3.65,.43-5.15,1.29-1.5,.86-2.66,2.04-3.47,3.52-.82,1.49-1.22,3.19-1.22,5.12,0,1.49,.24,2.81,.73,3.96,.49,1.15,1.2,2.17,2.16,3.06s2.08,1.71,3.38,2.48c1.29,.77,3.04,1.73,5.24,2.89,3.68,1.92,6.54,3.83,8.58,5.74,2.05,1.91,3.07,4.53,3.07,7.85,0,2.02-.55,3.98-1.65,5.87-1.1,1.89-2.77,3.43-4.99,4.64s-4.98,1.81-8.27,1.81c-2.07,0-3.9-.21-5.48-.63-1.59-.42-3.21-1.01-4.84-1.77-.68-.21-1.15-.32-1.4-.32-.47,0-.78,.16-.94,.49-.15,.32-.34,1.02-.59,2.1h-.58v-11.94h.58c.82,3.49,2.41,6.14,4.77,7.93,2.36,1.79,5.24,2.69,8.61,2.69,2.54,0,4.58-.46,6.12-1.36,1.53-.91,2.59-2.01,3.18-3.3s.89-2.59,.89-3.88c0-2.68-.86-4.86-2.57-6.56-1.71-1.69-4.32-3.42-7.81-5.19-2.41-1.25-4.2-2.22-5.35-2.91-1.16-.69-2.34-1.59-3.53-2.69-1.19-1.1-2.14-2.4-2.84-3.9-.7-1.5-1.06-3.22-1.06-5.16,0-2.24,.62-4.39,1.87-6.44,1.25-2.05,3.02-3.69,5.31-4.93,2.3-1.24,4.89-1.86,7.8-1.86,2.2,0,4.46,.36,6.78,1.07,.36,.17,.85,.26,1.46,.26,.75,0,1.26-.49,1.53-1.46h.55V11.52Z"/>
      <path class="cls-2" d="M598.19,11.52h-.55c-.32-2.31-1.38-4.33-3.18-6.07s-4.19-2.6-7.14-2.6c-1.93,0-3.65,.43-5.15,1.29-1.5,.86-2.66,2.04-3.47,3.52-.82,1.49-1.22,3.19-1.22,5.12,0,1.49,.24,2.81,.73,3.96,.49,1.15,1.2,2.17,2.16,3.06,.95,.89,2.08,1.71,3.38,2.48,1.29,.77,3.04,1.73,5.24,2.89,3.68,1.92,6.54,3.83,8.58,5.74,2.05,1.91,3.07,4.53,3.07,7.85,0,2.02-.55,3.98-1.65,5.87-1.1,1.89-2.77,3.43-4.99,4.64s-4.98,1.81-8.27,1.81c-2.07,0-3.9-.21-5.48-.63-1.59-.42-3.21-1.01-4.84-1.77-.68-.21-1.15-.32-1.4-.32-.47,0-.78,.16-.94,.49-.15,.32-.34,1.02-.59,2.1h-.58v-11.94h.58c.82,3.49,2.41,6.14,4.77,7.93,2.36,1.79,5.24,2.69,8.61,2.69,2.54,0,4.58-.46,6.12-1.36,1.53-.91,2.59-2.01,3.18-3.3s.89-2.59,.89-3.88c0-2.68-.86-4.86-2.57-6.56-1.71-1.69-4.32-3.42-7.81-5.19-2.41-1.25-4.2-2.22-5.35-2.91-1.16-.69-2.34-1.59-3.53-2.69-1.19-1.1-2.14-2.4-2.84-3.9-.7-1.5-1.06-3.22-1.06-5.16,0-2.24,.62-4.39,1.87-6.44,1.25-2.05,3.02-3.69,5.31-4.93,2.3-1.24,4.89-1.86,7.8-1.86,2.2,0,4.46,.36,6.78,1.07,.36,.17,.85,.26,1.46,.26,.75,0,1.26-.49,1.53-1.46h.55V11.52Z"/>
    </g>
    <g>
      <circle class="cls-3" cx="300.32" cy="99.74" r="34.92"/>
      <g>
        <path class="cls-1" d="M288.61,70.78v.35c0,.62,.23,1.18,.7,1.67,.47,.48,1.13,.72,1.98,.72h18.41c1.02,0,1.72-.27,2.12-.81,.39-.54,.61-1.18,.62-1.93h.28v8.21h-.28c-.02-.72-.22-1.36-.62-1.92-.38-.56-1.09-.83-2.13-.83h-17.8c-1.05,0-1.79,.28-2.2,.83s-.62,1.47-.62,2.73v2.22c0,.96,.12,1.73,.33,2.31,.22,.57,.56,1.03,1.02,1.37,.45,.34,1.08,.68,1.91,1.03v.3l-4-.98v-15.27h.26Z"/>
        <path class="cls-1" d="M312.73,94.98h-.28c0-.77-.21-1.42-.62-1.95-.4-.53-1.08-.8-2.03-.8h-18.51c-.94,0-1.62,.29-2.05,.85-.42,.57-.63,1.21-.63,1.9h-.26v-8.14h.26c0,.75,.21,1.39,.62,1.93,.41,.54,1.09,.81,2.06,.81h18.51c1.02,0,1.71-.27,2.08-.81,.38-.54,.57-1.18,.57-1.93h.28v8.14Z"/>
        <path class="cls-1" d="M312.45,95.73h.28v15.41h-3.71v-.28c.76-.07,1.45-.36,2.05-.88,.6-.52,.9-1.4,.9-2.66v-6.17h-11.04v5.75c0,1.09,.21,1.84,.64,2.23,.42,.4,1.01,.65,1.76,.77v.28h-5.53v-.28c.69-.07,1.27-.31,1.71-.72,.45-.42,.67-1.17,.67-2.28v-5.75h-8.89c-.81,0-1.46,.24-1.94,.73-.5,.49-.74,1.07-.74,1.76v.37h-.26v-8.28h.26v.35c0,.7,.25,1.27,.74,1.73,.5,.46,1.14,.69,1.94,.69h18.44c1.04,0,1.77-.25,2.15-.75s.57-1.06,.57-1.67v-.35Z"/>
        <path class="cls-1" d="M312.45,112.17h.28v15.3h-3.84v-.24c2.05,0,3.08-1.44,3.08-4.32v-5.35h-11.07v4.71c0,.93,.15,1.76,.43,2.49s.95,1.15,1.97,1.25v.26h-5.53v-.26c.62-.1,1.1-.3,1.45-.59,.33-.29,.56-.58,.66-.86,.12-.28,.17-.54,.17-.76,.07-.42,.11-.85,.11-1.31v-4.93h-8.66c-.65,0-1.21,.13-1.69,.39-.47,.26-.71,.87-.71,1.82v3.82c0,.92,.13,1.67,.38,2.27s.61,1.06,1.06,1.4c.45,.35,1,.63,1.64,.86v.24l-3.83-.89v-15.3h.26v.35c0,.55,.21,1.08,.63,1.61,.41,.52,1.1,.78,2.05,.78h18.37c.75,0,1.41-.18,1.95-.53,.56-.36,.83-.98,.83-1.86v-.35Z"/>
      </g>
    </g>
  </g>
</svg>