<?xml version="1.0" encoding="UTF-8"?>
<svg id="_圖層_2" data-name="圖層 2" xmlns="http://www.w3.org/2000/svg" viewBox="0 0 664.2 196.72">
  <defs>
    <style>
      .cls-1, .cls-2 {
        fill: #fff;
      }

      .cls-3, .cls-2 {
        opacity: .5;
      }

      .cls-4 {
        fill: #878787;
      }
    </style>
  </defs>
  <g id="context">
    <g>
      <g>
        <circle class="cls-2" cx="332.1" cy="99.13" r="34.92"/>
        <g>
          <path class="cls-4" d="M335.97,100.55c0,2.87-.75,5.53-2.25,7.99-1.49,2.47-3.53,4.43-6.11,5.89-2.58,1.46-5.43,2.19-8.56,2.19s-6.04-.73-8.66-2.19-4.69-3.43-6.2-5.91c-1.5-2.48-2.27-5.18-2.27-8.1,0-2.24,.45-4.35,1.35-6.32s2.15-3.69,3.76-5.16,3.45-2.6,5.52-3.41c2.06-.8,4.21-1.2,6.46-1.2s4.32,.38,6.35,1.15c2.02,.77,3.84,1.88,5.45,3.33,1.61,1.46,2.88,3.18,3.8,5.18,.92,1.99,1.38,4.18,1.38,6.56Zm-3.85,.08c0-4.07-.76-7.26-2.28-9.56s-3.27-3.84-5.25-4.62-3.85-1.18-5.6-1.18c-1.36,0-2.76,.21-4.22,.63-1.46,.42-2.87,1.2-4.25,2.31-1.39,1.12-2.52,2.7-3.41,4.74s-1.33,4.55-1.33,7.54c0,2.63,.36,4.93,1.1,6.88,.73,1.96,1.75,3.56,3.04,4.8s2.71,2.13,4.27,2.68c1.55,.55,3.16,.82,4.84,.82,1.49,0,3.02-.25,4.56-.76,1.53-.5,2.94-1.33,4.22-2.47,1.27-1.14,2.3-2.69,3.11-4.65,.79-1.96,1.19-4.35,1.19-7.17Z"/>
          <path class="cls-4" d="M337.65,85.57v-.35h19.33v4.65h-.35c-.09-.95-.45-1.81-1.1-2.56-.64-.75-1.76-1.13-3.33-1.13h-7.74v13.85h7.22c1.37,0,2.3-.26,2.8-.8,.49-.54,.81-1.27,.96-2.21h.35v6.93h-.35c-.09-.87-.39-1.59-.91-2.15s-1.46-.84-2.85-.84h-7.22v11.15c0,1.01,.31,1.83,.92,2.44,.62,.62,1.35,.92,2.21,.92h.46v.33h-10.38v-.33h.44c.87,0,1.59-.31,2.17-.93,.58-.62,.87-1.44,.87-2.43v-23.14c0-1.31-.31-2.21-.94-2.69-.63-.48-1.33-.72-2.1-.72h-.44Z"/>
        </g>
      </g>
      <g class="cls-3">
        <g>
          <path class="cls-1" d="M.68,3.05H0v-.68H17.41c2.8,0,5.17,.41,7.12,1.23,1.95,.82,3.46,1.87,4.54,3.13,1.08,1.27,1.85,2.6,2.32,4.01,.47,1.4,.7,2.79,.7,4.15,0,1.73-.38,3.39-1.14,4.98s-1.93,2.96-3.52,4.1c-1.58,1.15-3.55,1.93-5.92,2.34v.13c3.01,1.38,5.78,4.13,8.33,8.24l4.54,7.29c2.05,3.27,3.69,5.33,4.93,6.2s2.46,1.35,3.67,1.46v.52h-9.15c-.39-.47-.75-.94-1.09-1.38-.34-.44-.71-.91-1.09-1.41-.23-.33-.56-.82-1.01-1.48s-.71-1.03-.8-1.12l-6.01-9.44c-1.21-1.92-2.44-3.49-3.71-4.68-1.26-1.2-2.44-2.06-3.53-2.58-1.09-.52-2.08-.84-2.95-.97-.88-.13-1.91-.19-3.09-.19v17.48c0,3.4,1.82,5.15,5.46,5.26v.52H0v-.52c1-.04,1.89-.22,2.66-.54,.77-.31,1.42-.85,1.93-1.62s.77-1.8,.77-3.1V8.23c0-1.9-.49-3.24-1.47-4.02S1.84,3.05,.68,3.05ZM10.55,25.62h2.87c3.01,0,5.47-.41,7.39-1.23,1.92-.82,3.32-2,4.18-3.52,.86-1.53,1.3-3.39,1.3-5.59,0-1.84-.39-3.64-1.16-5.4-.77-1.76-2.09-3.24-3.94-4.45-1.86-1.2-4.35-1.8-7.49-1.8-1.28,0-2.32,.09-3.14,.29V25.62Z"/>
          <path class="cls-1" d="M42.43,2.92v-.55h29.98v7.52h-.48c0-4.02-2.82-6.03-8.47-6.03h-10.48V25.56h9.22c1.82,0,3.45-.28,4.88-.84,1.43-.56,2.25-1.85,2.46-3.86h.51v10.83h-.51c-.21-1.23-.59-2.18-1.16-2.84-.57-.66-1.13-1.1-1.69-1.31-.56-.22-1.05-.32-1.48-.32-.82-.13-1.68-.2-2.56-.2h-9.66v16.96c0,1.28,.26,2.38,.77,3.31,.51,.93,1.7,1.39,3.57,1.39h7.48c1.8,0,3.28-.25,4.44-.75,1.16-.5,2.08-1.19,2.75-2.08,.67-.88,1.23-1.96,1.69-3.21h.48l-1.74,7.49h-29.98v-.52h.68c1.07,0,2.12-.41,3.14-1.23,1.03-.82,1.54-2.16,1.54-4.02V8.37c0-1.47-.35-2.75-1.04-3.83-.69-1.08-1.9-1.62-3.64-1.62h-.68Z"/>
          <path class="cls-1" d="M100.5,11.54h-.55c-.32-2.31-1.38-4.34-3.19-6.08-1.81-1.74-4.2-2.61-7.15-2.61-1.94,0-3.65,.43-5.16,1.3s-2.66,2.04-3.48,3.53c-.82,1.5-1.23,3.2-1.23,5.13,0,1.49,.25,2.81,.74,3.97,.49,1.15,1.21,2.18,2.17,3.06,.96,.89,2.08,1.71,3.38,2.48,1.3,.77,3.05,1.74,5.26,2.9,3.69,1.93,6.55,3.84,8.6,5.76,2.05,1.92,3.07,4.54,3.07,7.87,0,2.03-.55,3.99-1.65,5.89s-2.77,3.44-5,4.65-5,1.81-8.3,1.81c-2.07,0-3.9-.21-5.5-.63-1.59-.42-3.21-1.01-4.85-1.77-.69-.22-1.15-.32-1.4-.32-.48,0-.79,.16-.94,.49s-.35,1.03-.6,2.11h-.58v-11.97h.58c.82,3.5,2.41,6.15,4.78,7.95,2.37,1.8,5.24,2.69,8.64,2.69,2.55,0,4.59-.46,6.13-1.36,1.54-.91,2.6-2.01,3.19-3.31,.59-1.3,.89-2.59,.89-3.89,0-2.68-.86-4.87-2.58-6.57-1.72-1.69-4.33-3.43-7.84-5.21-2.41-1.25-4.2-2.22-5.36-2.92s-2.34-1.59-3.53-2.69c-1.2-1.1-2.15-2.4-2.85-3.91-.71-1.5-1.06-3.23-1.06-5.17,0-2.25,.63-4.4,1.88-6.45,1.25-2.06,3.03-3.7,5.33-4.95,2.3-1.24,4.9-1.87,7.82-1.87,2.21,0,4.48,.36,6.8,1.07,.37,.17,.86,.26,1.47,.26,.75,0,1.26-.49,1.54-1.46h.55V11.54Z"/>
          <path class="cls-1" d="M103.9,2.92v-.55h29.98v7.52h-.48c0-4.02-2.82-6.03-8.47-6.03h-10.48V25.56h9.22c1.82,0,3.45-.28,4.88-.84,1.43-.56,2.25-1.85,2.46-3.86h.51v10.83h-.51c-.21-1.23-.59-2.18-1.16-2.84-.57-.66-1.13-1.1-1.69-1.31-.56-.22-1.05-.32-1.48-.32-.82-.13-1.68-.2-2.56-.2h-9.66v16.96c0,1.28,.26,2.38,.77,3.31,.51,.93,1.7,1.39,3.57,1.39h7.48c1.8,0,3.28-.25,4.44-.75,1.16-.5,2.08-1.19,2.75-2.08,.67-.88,1.23-1.96,1.69-3.21h.48l-1.74,7.49h-29.98v-.52h.68c1.07,0,2.12-.41,3.14-1.23,1.03-.82,1.54-2.16,1.54-4.02V8.37c0-1.47-.35-2.75-1.04-3.83-.69-1.08-1.9-1.62-3.64-1.62h-.68Z"/>
          <path class="cls-1" d="M179.05,11.67h-.55c-.25-3.11-1.21-5.13-2.87-6.05-1.66-.92-3.71-1.38-6.15-1.38h-10.01V44.36c0,3.4,1.82,5.15,5.46,5.26v.52h-16.02v-.52c1.5-.04,2.77-.46,3.81-1.25,1.03-.79,1.55-2.12,1.55-4.01V4.25h-10.01c-2.43,0-4.48,.46-6.13,1.38-1.65,.92-2.61,2.93-2.89,6.05h-.54V0h.54c.37,.54,.69,.94,.96,1.2,.28,.26,.62,.48,1.06,.66,.43,.19,.94,.31,1.52,.39,.58,.07,1.27,.11,2.06,.11h32.58c2.16,0,3.85-.79,5.05-2.37h.55V11.67Z"/>
          <path class="cls-1" d="M242.03,11.67h-.55c-.25-3.11-1.21-5.13-2.87-6.05-1.66-.92-3.71-1.38-6.15-1.38h-10.01V44.36c0,3.4,1.82,5.15,5.46,5.26v.52h-16.02v-.52c1.5-.04,2.77-.46,3.81-1.25,1.03-.79,1.55-2.12,1.55-4.01V4.25h-10.01c-2.43,0-4.48,.46-6.13,1.38-1.65,.92-2.61,2.93-2.89,6.05h-.54V0h.54c.37,.54,.69,.94,.96,1.2,.28,.26,.62,.48,1.06,.66,.43,.19,.94,.31,1.52,.39,.58,.07,1.27,.11,2.06,.11h32.58c2.16,0,3.85-.79,5.05-2.37h.55V11.67Z"/>
          <path class="cls-1" d="M281.48,24.22V8.23c0-1.56-.44-2.83-1.33-3.83-.89-.99-2.27-1.49-4.13-1.49v-.55h16.02v.55c-1.87,0-3.23,.49-4.1,1.48-.87,.98-1.3,2.26-1.3,3.84V44.36c0,3.5,1.8,5.26,5.39,5.26v.52h-16.02v-.52c1.71,0,3.05-.44,4.01-1.31,.97-.87,1.45-2.17,1.45-3.88V25.69h-28.82v18.68c0,1.67,.49,2.96,1.48,3.88,.99,.92,2.32,1.38,3.98,1.38v.52h-16.02v-.52c1.73,0,3.06-.46,3.98-1.38,.92-.92,1.38-2.21,1.38-3.88V8.23c0-3.54-1.79-5.32-5.36-5.32v-.55h16.02v.55c-1.89,0-3.27,.49-4.15,1.48-.88,.98-1.31,2.26-1.31,3.84v15.99h28.82Z"/>
          <path class="cls-1" d="M293.29,2.92v-.55h29.98v7.52h-.48c0-4.02-2.82-6.03-8.47-6.03h-10.48V25.56h9.22c1.82,0,3.45-.28,4.88-.84,1.43-.56,2.25-1.85,2.46-3.86h.51v10.83h-.51c-.21-1.23-.59-2.18-1.16-2.84-.57-.66-1.13-1.1-1.69-1.31-.56-.22-1.05-.32-1.48-.32-.82-.13-1.68-.2-2.56-.2h-9.66v16.96c0,1.28,.26,2.38,.77,3.31,.51,.93,1.7,1.39,3.57,1.39h7.48c1.8,0,3.28-.25,4.44-.75,1.16-.5,2.08-1.19,2.75-2.08,.67-.88,1.23-1.96,1.69-3.21h.48l-1.74,7.49h-29.98v-.52h.68c1.07,0,2.12-.41,3.14-1.23,1.03-.82,1.54-2.16,1.54-4.02V8.37c0-1.47-.35-2.75-1.04-3.83-.69-1.08-1.9-1.62-3.64-1.62h-.68Z"/>
          <path class="cls-1" d="M384.57,24.22V8.23c0-1.56-.44-2.83-1.33-3.83-.89-.99-2.27-1.49-4.13-1.49v-.55h16.02v.55c-1.87,0-3.23,.49-4.1,1.48-.87,.98-1.3,2.26-1.3,3.84V44.36c0,3.5,1.8,5.26,5.39,5.26v.52h-16.02v-.52c1.71,0,3.05-.44,4.01-1.31,.97-.87,1.45-2.17,1.45-3.88V25.69h-28.82v18.68c0,1.67,.49,2.96,1.48,3.88,.99,.92,2.32,1.38,3.98,1.38v.52h-16.02v-.52c1.73,0,3.06-.46,3.98-1.38,.92-.92,1.38-2.21,1.38-3.88V8.23c0-3.54-1.79-5.32-5.36-5.32v-.55h16.02v.55c-1.89,0-3.27,.49-4.15,1.48-.88,.98-1.31,2.26-1.31,3.84v15.99h28.82Z"/>
          <path class="cls-1" d="M450.7,26.3c0,4.48-1.16,8.64-3.5,12.49-2.34,3.85-5.52,6.91-9.54,9.19-4.03,2.28-8.49,3.43-13.39,3.43s-9.42-1.14-13.52-3.43c-4.1-2.28-7.33-5.36-9.68-9.23-2.36-3.87-3.53-8.09-3.53-12.65,0-3.5,.7-6.8,2.1-9.88,1.4-3.08,3.36-5.77,5.88-8.06,2.51-2.29,5.38-4.06,8.6-5.32,3.22-1.25,6.58-1.88,10.09-1.88s6.74,.6,9.91,1.8c3.16,1.2,6,2.93,8.52,5.21,2.52,2.27,4.49,4.96,5.93,8.07,1.43,3.12,2.15,6.53,2.15,10.25Zm-6.01,.13c0-6.36-1.18-11.33-3.55-14.92-2.37-3.59-5.1-6-8.2-7.22-3.09-1.22-6.01-1.83-8.74-1.83-2.12,0-4.31,.33-6.59,.99-2.28,.66-4.49,1.87-6.64,3.62-2.15,1.75-3.92,4.22-5.31,7.4-1.39,3.18-2.08,7.1-2.08,11.77,0,4.11,.57,7.69,1.72,10.75,1.15,3.06,2.73,5.56,4.75,7.49,2.01,1.93,4.23,3.33,6.66,4.18,2.43,.85,4.95,1.28,7.56,1.28,2.34,0,4.72-.4,7.12-1.18,2.4-.79,4.6-2.08,6.59-3.86s3.61-4.2,4.85-7.26c1.24-3.06,1.86-6.79,1.86-11.2Z"/>
          <path class="cls-1" d="M454,3.05h-.68v-.68h17.42c2.8,0,5.17,.41,7.12,1.23,1.95,.82,3.46,1.87,4.54,3.13,1.09,1.27,1.85,2.6,2.33,4.01,.47,1.4,.7,2.79,.7,4.15,0,1.73-.38,3.39-1.15,4.98-.76,1.59-1.93,2.96-3.52,4.1-1.59,1.15-3.56,1.93-5.93,2.34v.13c3.01,1.38,5.78,4.13,8.33,8.24l4.54,7.29c2.05,3.27,3.7,5.33,4.94,6.2s2.46,1.35,3.67,1.46v.52h-9.15c-.39-.47-.75-.94-1.09-1.38s-.71-.91-1.09-1.41c-.22-.33-.56-.82-1.01-1.48-.44-.66-.71-1.03-.8-1.12l-6.01-9.44c-1.21-1.92-2.44-3.49-3.71-4.68-1.27-1.2-2.44-2.06-3.53-2.58-1.09-.52-2.08-.84-2.96-.97-.88-.13-1.9-.19-3.09-.19v17.48c0,3.4,1.82,5.15,5.46,5.26v.52h-16.02v-.52c1-.04,1.89-.22,2.66-.54,.78-.31,1.42-.85,1.93-1.62,.52-.77,.77-1.8,.77-3.1V8.23c0-1.9-.49-3.24-1.47-4.02-.98-.78-2.05-1.17-3.21-1.17Zm9.88,22.57h2.86c3.01,0,5.47-.41,7.39-1.23,1.92-.82,3.32-2,4.19-3.52,.86-1.53,1.29-3.39,1.29-5.59,0-1.84-.39-3.64-1.16-5.4-.77-1.76-2.09-3.24-3.94-4.45-1.86-1.2-4.35-1.8-7.5-1.8-1.28,0-2.32,.09-3.14,.29V25.62Z"/>
          <path class="cls-1" d="M511.84,2.37v.55c-1.5,0-2.77,.4-3.83,1.2-1.04,.8-1.57,2.13-1.57,3.99V44.36c0,1.84,.55,3.18,1.67,4.01,1.11,.83,2.35,1.25,3.72,1.25v.52h-15.95v-.52c1.46,0,2.71-.41,3.77-1.22,1.06-.81,1.59-2.15,1.59-4.04V8.11c0-1.99-.53-3.35-1.59-4.08s-2.32-1.1-3.77-1.1v-.55h15.95Z"/>
          <path class="cls-1" d="M546.65,4.18h-24.07c-2.01,0-3.63,.21-4.89,.63-1.25,.42-2.25,1.13-3,2.12-.76,1-1.3,2.38-1.65,4.15h-.54V2.37h41.18v.94l-34.83,45.05h24.14c2.69,0,4.79-.27,6.31-.81,1.51-.54,2.59-1.22,3.26-2.03,.66-.81,1.34-1.93,2.05-3.36h.54l-2.35,7.98h-40.91v-1l34.76-44.95Z"/>
          <path class="cls-1" d="M609.37,26.3c0,4.48-1.17,8.64-3.5,12.49-2.34,3.85-5.52,6.91-9.55,9.19-4.02,2.28-8.49,3.43-13.38,3.43s-9.43-1.14-13.52-3.43c-4.1-2.28-7.33-5.36-9.69-9.23-2.35-3.87-3.53-8.09-3.53-12.65,0-3.5,.71-6.8,2.1-9.88,1.4-3.08,3.36-5.77,5.88-8.06,2.51-2.29,5.38-4.06,8.6-5.32,3.22-1.25,6.58-1.88,10.09-1.88s6.74,.6,9.9,1.8c3.16,1.2,6.01,2.93,8.52,5.21,2.52,2.27,4.49,4.96,5.92,8.07,1.44,3.12,2.15,6.53,2.15,10.25Zm-6.02,.13c0-6.36-1.18-11.33-3.55-14.92-2.36-3.59-5.09-6-8.2-7.22-3.09-1.22-6.01-1.83-8.74-1.83-2.12,0-4.32,.33-6.59,.99-2.28,.66-4.49,1.87-6.64,3.62-2.15,1.75-3.92,4.22-5.31,7.4-1.39,3.18-2.08,7.1-2.08,11.77,0,4.11,.57,7.69,1.72,10.75,1.15,3.06,2.73,5.56,4.75,7.49,2.01,1.93,4.23,3.33,6.65,4.18,2.43,.85,4.95,1.28,7.57,1.28,2.34,0,4.71-.4,7.12-1.18,2.4-.79,4.6-2.08,6.59-3.86s3.6-4.2,4.84-7.26c1.24-3.06,1.86-6.79,1.86-11.2Z"/>
          <path class="cls-1" d="M664.2,2.37v.55c-1.28,.15-2.28,.38-3.02,.7-.74,.31-1.32,.93-1.73,1.85-.41,.92-.61,2.24-.61,3.97V51.34h-.34l-38.62-40.93v29.38c0,2.44,.1,4.26,.31,5.45,.2,1.19,.5,2.05,.89,2.56,.84,1.12,2.31,1.73,4.4,1.82v.52h-12.6v-.52c1.4-.06,2.51-.35,3.29-.86s1.34-1.44,1.67-2.79c.33-1.35,.5-3.39,.5-6.11V8.69l-1.68-1.78c-1.47-1.6-2.66-2.61-3.55-3.03s-1.99-.74-3.31-.96v-.55h9.46l38.04,40.47V12c0-2.31-.09-4.05-.29-5.19-.19-1.15-.71-2.06-1.53-2.75-.84-.69-2.14-1.07-3.91-1.14v-.55h12.63Z"/>
        </g>
        <g>
          <path class="cls-1" d="M275.69,196.21h.68c1.23,0,2.32-.46,3.27-1.38,.94-.92,1.41-2.21,1.41-3.88v-36.06c0-1.99-.53-3.37-1.59-4.15-1.06-.78-2.32-1.19-3.77-1.23v-.55h16.08v.55c-1.41,.04-2.66,.44-3.76,1.2-1.09,.75-1.64,2.15-1.64,4.18v34.86c0,2.07,.55,3.51,1.64,4.31,1.09,.8,2.88,1.2,5.36,1.2h4.34c1.89,0,3.4-.22,4.52-.65,1.12-.44,2.02-1.09,2.68-1.98,.65-.89,1.33-2.14,2.02-3.76h.58l-1.91,7.85h-29.91v-.52Z"/>
          <path class="cls-1" d="M323.11,148.95v.55c-1.5,0-2.77,.4-3.83,1.2-1.04,.8-1.57,2.13-1.57,3.99v36.26c0,1.84,.55,3.18,1.67,4.01,1.11,.83,2.35,1.25,3.72,1.25v.52h-15.95v-.52c1.46,0,2.71-.41,3.77-1.22s1.59-2.15,1.59-4.04v-36.26c0-1.99-.53-3.35-1.59-4.08s-2.32-1.1-3.77-1.1v-.55h15.95Z"/>
          <path class="cls-1" d="M324.56,149.5v-.55h30.19v7.26h-.54c-.14-1.49-.72-2.83-1.73-4-1.01-1.18-2.75-1.77-5.21-1.77h-12.09v21.63h11.27c2.14,0,3.59-.42,4.37-1.25s1.28-1.98,1.51-3.46h.54v10.83h-.54c-.14-1.36-.61-2.48-1.42-3.36s-2.29-1.31-4.46-1.31h-11.27v17.42c0,1.58,.48,2.85,1.44,3.81,.96,.96,2.1,1.44,3.45,1.44h.72v.52h-16.22v-.52h.68c1.37,0,2.5-.49,3.4-1.46,.9-.97,1.34-2.24,1.34-3.8v-36.13c0-2.05-.49-3.45-1.47-4.2-.98-.75-2.08-1.12-3.28-1.12h-.68Z"/>
          <path class="cls-1" d="M356.78,149.5v-.55h29.98v7.52h-.47c0-4.02-2.83-6.03-8.47-6.03h-10.49v21.7h9.22c1.83,0,3.46-.28,4.89-.84,1.43-.56,2.25-1.85,2.46-3.86h.52v10.83h-.52c-.21-1.23-.59-2.18-1.15-2.84-.58-.66-1.14-1.1-1.7-1.31-.55-.22-1.05-.32-1.48-.32-.82-.13-1.67-.2-2.56-.2h-9.67v16.96c0,1.28,.26,2.38,.78,3.31,.51,.93,1.7,1.39,3.57,1.39h7.47c1.8,0,3.28-.25,4.45-.75,1.15-.5,2.08-1.19,2.75-2.08,.66-.88,1.23-1.96,1.69-3.21h.47l-1.74,7.49h-29.98v-.52h.68c1.07,0,2.12-.41,3.15-1.23,1.03-.82,1.53-2.16,1.53-4.02v-36c0-1.47-.34-2.75-1.04-3.83-.69-1.08-1.9-1.62-3.64-1.62h-.68Z"/>
        </g>
      </g>
    </g>
  </g>
</svg>