<?xml version="1.0" encoding="UTF-8"?>
<svg id="_圖層_2" data-name="圖層 2" xmlns="http://www.w3.org/2000/svg" viewBox="0 0 534.54 110.05">
  <defs>
    <style>
      .cls-1 {
        fill: #fff;
      }

      .cls-2 {
        fill: #b2b2b2;
      }
    </style>
  </defs>
  <g id="context">
    <rect class="cls-2" x="0" width="534.54" height="1.82"/>
    <rect class="cls-2" x="0" y="108.23" width="534.54" height="1.82"/>
    <g>
      <g>
        <g>
          <path class="cls-1" d="M81.84,42.89c.41-4.53,1.88-8.12,4.39-10.75,2.52-2.63,5.82-3.95,9.91-3.95s7.36,1.29,9.83,3.86c2.47,2.57,3.7,6.07,3.7,10.5,0,4.93-1.49,8.48-4.47,10.66,4.01,1.9,6.01,6.05,6.01,12.43,0,4.93-1.45,8.86-4.36,11.8-2.9,2.94-6.64,4.41-11.22,4.41-4.27,0-7.92-1.54-10.95-4.62-3.03-3.08-4.55-6.89-4.55-11.42h7.94c0,2.46,.74,4.53,2.24,6.21,1.49,1.68,3.38,2.52,5.67,2.52s4.11-.92,5.47-2.77c1.36-1.85,2.04-4.09,2.04-6.72,0-2.18-.73-4.21-2.2-6.09-1.47-1.88-3.12-2.81-4.97-2.81-.21,0-.41,.03-.62,.08l-1.7,.17v-5.79h1c1.95,0,3.64-.74,5.05-2.23,1.41-1.48,2.12-3.32,2.12-5.5,0-5.21-2.15-7.81-6.44-7.81s-6.44,2.6-6.44,7.81h-7.48Z"/>
          <path class="cls-1" d="M123.09,36.85v-7.3h14.65v50.97h-7.94V36.85h-6.71Z"/>
          <path class="cls-1" d="M165.8,54.98v7.73h-15.11v-7.73h15.11Z"/>
          <path class="cls-1" d="M206.66,64.22v6.63h-5.55v9.66h-7.32v-9.66h-21.28v-3.78l20.89-38.45h7.71v35.6h5.55Zm-12.88-23.51l-12.03,23.51h12.03v-23.51Z"/>
          <path class="cls-1" d="M224.24,36.85l-1.85,9.15,3.62-.17c4.47,0,8.11,1.72,10.91,5.16,2.8,3.44,4.2,7.63,4.2,12.55,0,5.49-1.57,9.91-4.7,13.27-3.14,3.36-7.25,5.04-12.34,5.04-5.65,0-10.28-2.24-13.88-6.72l2.31-7.39c2.98,4.53,6.63,6.8,10.95,6.8,2.67,0,4.95-1.02,6.82-3.06,1.88-2.04,2.81-4.81,2.81-8.31s-.98-6.23-2.93-8.19c-1.95-1.96-4.42-2.94-7.4-2.94s-5.42,1.12-7.32,3.36h-1.47l4.86-25.86h20.35v7.3h-14.96Z"/>
        </g>
        <path class="cls-1" d="M254.21,54.95h-3.55v-2.31h3.55v-8.33h2.05v8.33h3.55v2.31h-3.55v15.58c1.09-.82,2.05-1.54,2.87-2.16l1.23,1.7c-2,1.85-4.96,3.91-8.88,6.17l-1.23-1.85c1.55-.93,2.87-1.75,3.96-2.47v-16.96Zm6.01,13.57v-2.31h10.11v-18.51h-9.29v-2.31h19.94v2.31h-8.6v18.51h9.7v2.31h-9.7v11.26h-2.05v-11.26h-10.11Zm3.28-17.43c1.18,2.88,2.32,6.48,3.41,10.79l-2.05,.77c-1.09-4.63-2.18-8.17-3.28-10.64l1.91-.93Zm17.34,.62c-.64,3.19-1.82,6.94-3.55,11.26l-1.91-.77c1.82-4.63,3-8.38,3.55-11.26l1.91,.77Z"/>
      </g>
      <g>
        <path class="cls-1" d="M334.15,51.96h.76c.29,0,.54,.01,.76,.04,.56,.05,1.01,.17,1.35,.36,.9,.42,1.35,1.34,1.35,2.75v20.94c0,2.1-1.21,3.15-3.62,3.15h-7.92c-2.42,0-3.62-1.03-3.62-3.11v-20.98c0-1.38,.45-2.3,1.35-2.75,.34-.16,.78-.28,1.31-.36,.34-.03,.84-.04,1.47-.04v-5.45h-4.18c-.11,0-.23-.01-.36-.04s-.25-.07-.36-.12c-.27-.13-.4-.37-.4-.72,0-.37,.15-.62,.44-.76,.11-.05,.23-.09,.36-.12,.11-.03,.21-.04,.32-.04h15.49c.11,0,.21,.01,.32,.04,.13,.03,.25,.07,.36,.12,.29,.13,.44,.38,.44,.76,0,.35-.13,.58-.4,.72-.11,.08-.23,.12-.36,.12-.11,.03-.23,.04-.36,.04h-4.5v5.45Zm.24,13.54c-1.17,0-1.95-.21-2.35-.64-.35-.37-.52-1.08-.52-2.11v-8.96h-1.47v4.1c0,2.26-.33,4.29-.99,6.09-.61,1.62-1.19,2.43-1.75,2.43-.16,0-.31-.04-.44-.12-.08-.05-.17-.13-.28-.24v3.98h8.52v-4.54h-.72Zm-6.49-11.71c-.88,.05-1.31,.61-1.31,1.67v9.6c.5-.93,.86-2.1,1.08-3.5,.11-.53,.17-1.09,.2-1.67,.03-.48,.04-.96,.04-1.43v-4.66Zm-1.31,18.04v3.9c0,1.12,.56,1.67,1.67,1.67h5.18c1.12,0,1.67-.56,1.67-1.67v-3.9h-8.52Zm4.94-25.32h-1.47v5.45h1.47v-5.45Zm2.19,15.89c0,.85,.46,1.28,1.39,1.28v-8.2c0-1.09-.46-1.65-1.39-1.67v8.6Zm13.3,7.33v-.48c0-.19,.01-.35,.04-.48,.03-.37,.11-.69,.24-.96,.29-.64,.89-.95,1.79-.95,.13,0,.26,.01,.4,.04l.32,.08,1.04-1.23c.32-.42,.48-.7,.48-.84,0-.16-.07-.28-.2-.36-.05-.03-.12-.04-.2-.04h-9.44c-.13,0-.25-.01-.36-.04-.13-.03-.25-.07-.36-.12-.27-.13-.4-.38-.4-.76,0-.34,.13-.6,.4-.76,.11-.05,.22-.09,.36-.12,.11-.03,.23-.04,.36-.04h13.9c1.33,0,1.99,.45,1.99,1.35,0,.27-.08,.51-.24,.72l-.56,.52c-.48,.35-1.23,.84-2.27,1.47-1.17,.72-2.24,1.33-3.23,1.83,.03,.24,.04,.62,.04,1.16h6.57c.13,0,.25,.01,.36,.04,.13,0,.25,.03,.36,.08,.27,.16,.4,.41,.4,.76s-.13,.6-.4,.76c-.11,.05-.23,.09-.36,.12-.11,.03-.23,.04-.36,.04h-6.57v4.94c0,1.03-.24,1.79-.72,2.27-.56,.58-1.53,.87-2.91,.87h-4.9c-.11,0-.21-.01-.32-.04-.13-.03-.25-.07-.36-.12-.29-.13-.44-.39-.44-.76,0-.35,.13-.6,.4-.76,.19-.11,.42-.16,.72-.16h2.75c1.12,0,1.67-.54,1.67-1.63v-4.62h-6.77c-.11,0-.21-.01-.32-.04-.13-.03-.25-.07-.36-.12-.29-.13-.44-.38-.44-.76,0-.35,.13-.6,.4-.76,.11-.05,.23-.08,.36-.08,.11-.03,.23-.04,.36-.04h6.77Zm.24-22.06v-2.27c0-.88,.28-1.5,.84-1.87,.19-.11,.41-.2,.68-.28,.16-.03,.33-.04,.52-.04,.48,0,.89,.13,1.23,.4,.48,.37,.72,.92,.72,1.63v2.43h6.45c.13,0,.25,.01,.36,.04,.13,.03,.25,.07,.36,.12,.27,.16,.4,.41,.4,.76s-.13,.6-.4,.76c-.11,.05-.23,.09-.36,.12-.11,.03-.23,.04-.36,.04h-17.4c-.11,0-.21-.01-.32-.04-.13-.03-.25-.07-.36-.12-.29-.13-.44-.38-.44-.76,0-.35,.13-.6,.4-.76,.11-.05,.22-.09,.36-.12,.11-.03,.23-.04,.36-.04h6.97Zm9.72,9.87c0,1.09-.32,1.86-.96,2.31-.53,.37-1.34,.56-2.43,.56h-8.76c-2.28,0-3.42-.96-3.42-2.87v-2.71c0-1.91,1.14-2.87,3.42-2.87h8.76c2.26,0,3.38,.96,3.38,2.87v2.71Zm-3.86-2.23c0-1.01-.5-1.51-1.51-1.51h-4.78c-1.01,0-1.51,.51-1.51,1.51v1.75c0,1.01,.5,1.51,1.51,1.51h4.78c1.01,0,1.51-.5,1.51-1.51v-1.75Z"/>
        <path class="cls-1" d="M405.3,72.86c0,2.81-1.53,4.22-4.58,4.22h-25c-1.78,0-3.03-.42-3.74-1.28-.56-.64-.84-1.6-.84-2.91v-22.54c0-2.81,1.53-4.22,4.58-4.22h25c1.75,0,3,.42,3.74,1.27,.56,.66,.84,1.65,.84,2.95v22.5Zm-23.85-24.88h-4.02c-1.38,0-2.07,.69-2.07,2.07v23.13c0,1.41,.69,2.11,2.07,2.11h21.54c1.38,0,2.07-.7,2.07-2.11v-23.13c0-1.38-.69-2.07-2.07-2.07h-5.26v17.88c0,.9,.42,1.35,1.27,1.35,.56,0,.94-.13,1.15-.4,.32-.42,.6-1.37,.84-2.83,.24-1.75,.89-2.63,1.95-2.63,1.33,0,1.99,.57,1.99,1.71,0,1.03-.42,2.48-1.27,4.34-.32,.69-.78,1.14-1.39,1.35-.42,.16-1.13,.24-2.11,.24h-3.03c-2.39,0-3.58-1.05-3.58-3.15v-17.88h-3.82v7.41c0,1.59-.16,3.07-.48,4.42-.27,1.17-.66,2.26-1.19,3.27-.4,.8-.89,1.55-1.47,2.27l-1.12,1.24c-.08,.11-.19,.21-.32,.32-.69,.66-1.39,1.25-2.11,1.75-.77,.56-1.3,.84-1.59,.84-.61,0-.92-.31-.92-.92,0-.24,.17-.53,.52-.87,1.04-.9,1.88-1.95,2.55-3.15,.56-1.01,1-2.11,1.31-3.3,.24-.93,.4-1.91,.48-2.95l.08-1.2v-9.12Z"/>
        <path class="cls-1" d="M422.82,45.59c0-.64,.13-1.16,.4-1.55,.34-.53,.89-.8,1.63-.8,1.35,0,2.03,.78,2.03,2.35v7.25h2.95c.13,0,.25,.01,.36,.04,.13,.03,.25,.07,.36,.12,.26,.16,.4,.41,.4,.76,0,.37-.15,.62-.44,.76-.11,.05-.23,.09-.36,.12-.11,.03-.21,.04-.32,.04h-2.95v7.61c1.09-.56,1.96-1.03,2.63-1.43,.45-.24,.76-.36,.92-.36,.61,0,.92,.31,.92,.91,0,.19-.05,.36-.16,.52-.03,.05-.07,.11-.12,.16l-.12,.12c-.4,.35-1.01,.8-1.83,1.35l-1.67,1.12c-.24,.13-.42,.25-.56,.36v11.35c0,1.09-.23,1.87-.68,2.35-.53,.61-1.49,.91-2.87,.91h-4.46c-.16-.03-.29-.07-.4-.12-.16-.05-.28-.15-.36-.28-.11-.13-.16-.31-.16-.52s.05-.39,.16-.52c.08-.13,.2-.23,.36-.28,.11-.05,.24-.09,.4-.12h2.31c1.09,0,1.63-.54,1.63-1.63v-8.68l-.4,.24c-.16,.11-.32,.2-.48,.28l-1.16,.64c-.42,.24-.78,.41-1.08,.52-.34,.16-.58,.24-.72,.24-1.09,0-1.63-.61-1.63-1.83,0-.45,.12-.81,.36-1.08,.11-.11,.24-.2,.4-.28l4.7-1.99v-9.56h-3.98c-.11,0-.21-.01-.32-.04-.13-.03-.25-.07-.36-.12-.29-.13-.44-.39-.44-.76s.15-.62,.44-.76c.11-.05,.23-.09,.36-.12,.11-.03,.21-.04,.32-.04h3.98v-7.25Zm26.52,16.92h3.94c.11,0,.21,.01,.32,.04,.13,.03,.25,.07,.36,.12,.29,.16,.44,.41,.44,.76,0,.37-.15,.62-.44,.76-.11,.05-.23,.09-.36,.12-.11,.03-.21,.04-.32,.04h-3.94v13.22c0,1.59-.68,2.39-2.03,2.39s-2.07-.8-2.07-2.39v-13.22h-5.53c-.11,2.63-.65,5.03-1.63,7.21-.8,1.75-1.86,3.33-3.19,4.74-.53,.53-1.09,1.03-1.67,1.51-.5,.4-1,.74-1.47,1.03-.21,.13-.42,.25-.64,.36-.16,.11-.32,.19-.48,.24-.27,.13-.42,.2-.48,.2-.61,0-.92-.31-.92-.91,0-.19,.05-.36,.16-.52,.05-.11,.16-.23,.32-.36,2.04-1.86,3.52-3.91,4.42-6.17,.77-1.91,1.23-4.35,1.39-7.33h-4.02c-.13,0-.25-.01-.36-.04-.13-.03-.25-.07-.36-.12-.27-.16-.4-.41-.4-.76,0-.37,.13-.62,.4-.76,.11-.05,.23-.09,.36-.12,.11-.03,.23-.04,.36-.04h4.06v-8.6h-3.07c-.13,0-.25-.01-.36-.04-.13-.03-.25-.07-.36-.12-.27-.16-.4-.41-.4-.76,0-.37,.15-.62,.44-.76,.11-.05,.23-.09,.36-.12,.11-.03,.21-.04,.32-.04h20.07c.11,0,.21,.01,.32,.04,.13,.03,.25,.07,.36,.12,.29,.13,.44,.39,.44,.76s-.15,.62-.44,.76c-.11,.05-.23,.09-.36,.12-.11,.03-.21,.04-.32,.04h-3.23v8.6Zm-12.98-11.75c-.24-.24-.62-.96-1.15-2.15-.05-.13-.19-.39-.4-.76l-1.19-2.23c-.21-.35-.35-.58-.4-.72-.11-.16-.16-.33-.16-.52,0-.61,.3-.91,.92-.91,.13,0,.33,.08,.6,.24,.26,.16,.57,.36,.92,.6,.29,.21,.6,.45,.92,.72l.72,.56c1.11,.88,1.86,1.55,2.23,2.03,.32,.43,.48,.88,.48,1.35,0,1.49-.74,2.23-2.23,2.23-.58,0-.99-.15-1.23-.44Zm8.88,3.15h-5.49v8.6h5.49v-8.6Zm.24-4.1l.88-1.83c.16-.32,.25-.53,.28-.64,.05-.11,.13-.32,.24-.64l.52-1.43c.08-.16,.13-.3,.16-.44,.13-.32,.23-.52,.28-.6,.21-.34,.5-.6,.88-.76,.16-.05,.32-.08,.48-.08,.13-.03,.26-.04,.4-.04,1.54,0,2.31,.64,2.31,1.91,0,.43-.25,.99-.76,1.71-.45,.61-1.03,1.26-1.75,1.95-.66,.64-1.3,1.17-1.91,1.59-.61,.45-1.04,.68-1.27,.68-.32,0-.56-.11-.72-.32-.11-.16-.16-.34-.16-.56,0-.05,.05-.23,.16-.52Z"/>
      </g>
      <rect class="cls-1" x="284.39" y="60.54" width="35.91" height="1.52" transform="translate(107.56 300.53) rotate(-62.31)"/>
    </g>
  </g>
</svg>