<?xml version="1.0" encoding="UTF-8"?>
<svg xmlns="http://www.w3.org/2000/svg" viewBox="0 0 533.08 46.06">
  <defs>
    <style>
      .cls-1 {
        mix-blend-mode: lighten;
        opacity: .4;
      }

      .cls-2 {
        isolation: isolate;
      }

      .cls-3 {
        fill: #192d78;
      }

      .cls-4 {
        fill: #339ace;
      }
    </style>
  </defs>
  <g class="cls-2">
    <g id="_圖層_2" data-name="圖層 2">
      <g id="context">
        <g class="cls-1">
          <g>
            <path class="cls-4" d="M.08,22.5c-.02-.57-.05-1.15-.08-1.72,.16,.02,.32,.03,.51,.05s.39,.02,.62,.02c.32,0,.65-.01,1-.03,.34-.02,.68-.03,1.01-.03,.65,0,1.16,.05,1.52,.14,.37,.09,.65,.23,.87,.41,.29,.23,.51,.49,.65,.77s.21,.63,.21,1.02c0,.51-.09,.94-.26,1.3-.17,.36-.42,.66-.73,.88-.32,.23-.69,.39-1.12,.5s-.9,.16-1.41,.16h-.7c0,.67,0,1.33,.02,1.99,.01,.66,.04,1.32,.09,1.96-.16-.02-.32-.03-.51-.03H.51c-.18,0-.35,0-.51,.03,.04-.55,.06-1.11,.08-1.68,.02-.57,.03-1.23,.03-1.96v-1.81c0-.74,0-1.39-.03-1.96Zm4-.02c-.08-.23-.18-.41-.32-.55-.13-.14-.29-.24-.47-.3-.18-.06-.36-.09-.56-.09h-.45s-.09,0-.12,.01c0,.64-.02,1.27-.02,1.88,0,.62,0,1.23,0,1.86,.23,0,.46-.02,.71-.07,.24-.04,.46-.14,.67-.27s.37-.33,.49-.59c.13-.26,.19-.6,.19-1.02,0-.34-.04-.62-.12-.85Z"/>
            <path class="cls-4" d="M30.8,22.5c-.02-.57-.05-1.15-.08-1.72,.16,.02,.32,.03,.51,.05,.18,.01,.39,.02,.62,.02s.43,0,.62-.02,.35-.03,.51-.05c-.04,.58-.06,1.15-.08,1.72-.02,.57-.03,1.23-.03,1.96v1.81c0,.51,0,.99,0,1.46,0,.47,.01,.88,.02,1.22,.52,0,1.04-.01,1.57-.04,.52-.03,1.05-.07,1.58-.13-.02,.1-.03,.19-.04,.27,0,.08-.01,.19-.01,.33s0,.25,.01,.33c0,.08,.02,.15,.04,.2-.25,0-.55-.02-.91-.02-.36,0-.86,0-1.49,0h-2.18c-.21,0-.36,0-.47,0-.11,0-.19,.01-.27,.02,.04-.55,.06-1.11,.08-1.68,.02-.57,.03-1.23,.03-1.96v-1.81c0-.74,0-1.39-.03-1.96Z"/>
            <path class="cls-4" d="M69.16,29.95c-.22-.02-.43-.03-.63-.03h-1.17c-.2,0-.39,0-.58,.03-.15-.43-.3-.88-.45-1.33s-.32-.9-.49-1.36c-.29,0-.59-.02-.88-.02-.29,0-.59,0-.88,0-.24,0-.48,0-.71,0-.24,0-.48,.01-.71,.02-.18,.45-.35,.9-.51,1.36-.16,.45-.3,.9-.43,1.33-.11-.02-.22-.03-.32-.03h-.65c-.11,0-.23,0-.36,.03,.11-.23,.26-.55,.44-.96,.18-.41,.38-.87,.6-1.38,.22-.51,.46-1.07,.71-1.66,.25-.59,.5-1.19,.76-1.79,.25-.6,.5-1.2,.74-1.78,.24-.59,.46-1.13,.67-1.64,.09,.02,.18,.03,.26,.05s.17,.02,.26,.02,.18,0,.26-.02c.08-.01,.17-.03,.26-.05,.29,.75,.61,1.56,.94,2.42,.33,.86,.67,1.7,1.01,2.53,.34,.83,.67,1.62,.99,2.36,.32,.74,.61,1.37,.88,1.89Zm-4.86-6.64c-.24,.53-.46,1.06-.67,1.58s-.42,1.05-.62,1.59h2.51c-.2-.54-.4-1.07-.6-1.59-.2-.52-.41-1.04-.63-1.58Z"/>
            <path class="cls-4" d="M96.05,22.24c0-.21-.02-.37-.03-.47-.14,0-.31,0-.51,.01-.2,0-.42,.02-.65,.03-.23,.01-.46,.03-.7,.05-.24,.02-.46,.05-.66,.07,.02-.1,.03-.19,.05-.29,.01-.1,.02-.19,.02-.29s0-.19-.02-.29c-.01-.1-.03-.19-.05-.29,.31,0,.59,.02,.84,.03,.25,0,.51,.02,.77,.02,.26,0,.55,0,.85,.01,.31,0,.68,0,1.11,0s.8,0,1.11,0c.31,0,.59,0,.84-.01,.26,0,.51-.01,.75-.02,.24,0,.51-.02,.79-.03-.02,.1-.03,.2-.05,.29-.01,.1-.02,.2-.02,.29s0,.19,.02,.29c.01,.1,.03,.2,.05,.29-.18-.03-.39-.05-.62-.07-.23-.02-.46-.04-.68-.05-.22-.01-.44-.02-.64-.03-.2,0-.37-.01-.51-.01,0,.04-.02,.11-.02,.19,0,.08,0,.17,0,.28v4.03c0,.74,0,1.39,.03,1.96,.02,.57,.05,1.13,.08,1.68-.16-.02-.33-.03-.51-.03h-1.24c-.18,0-.35,0-.51,.03,.04-.55,.06-1.11,.08-1.68,.02-.57,.03-1.23,.03-1.96v-3.33c0-.26,0-.49,0-.7Z"/>
            <path class="cls-4" d="M124.99,22.5c-.02-.57-.05-1.15-.08-1.72,.16,.02,.32,.03,.51,.05,.18,.01,.39,.02,.62,.02s.43,0,.62-.02,.35-.03,.51-.05c-.04,.58-.06,1.15-.08,1.72-.02,.57-.03,1.23-.03,1.96v1.81c0,.74,0,1.39,.03,1.96,.02,.57,.05,1.13,.08,1.68-.16-.02-.32-.03-.51-.03h-1.24c-.18,0-.35,0-.51,.03,.04-.55,.06-1.11,.08-1.68,.02-.57,.03-1.23,.03-1.96v-1.81c0-.74,0-1.39-.03-1.96Z"/>
            <path class="cls-4" d="M151.75,21.88c-.02-.42-.03-.78-.04-1.1,.26,.04,.46,.07,.62,.07s.36-.02,.62-.07c1,1.07,1.98,2.13,2.96,3.17,.97,1.04,1.98,2.09,3,3.17v-2.45c0-.43,0-.86,0-1.28,0-.42,0-.81-.01-1.16,0-.35-.01-.66-.03-.92s-.03-.43-.05-.52c.26,.04,.46,.07,.62,.07s.36-.02,.62-.07c-.05,.81-.08,1.54-.11,2.19-.03,.65-.05,1.27-.07,1.84-.02,.58-.03,1.15-.03,1.71,0,.56,0,1.16,0,1.8v1.6c-.18-.02-.37-.03-.56-.03s-.38,0-.54,.03c-1.89-2.13-3.89-4.27-6-6.42,0,.26-.02,.51-.02,.77,0,.26,0,.52,0,.78v1.54c0,.53,0,.98,0,1.36,0,.37,.01,.69,.02,.94,0,.26,.02,.47,.03,.63,0,.16,.02,.29,.03,.39-.11-.02-.22-.03-.33-.03h-.32c-.21,0-.42,0-.63,.03,.02-.07,.04-.32,.07-.76s.06-.96,.09-1.59c.03-.63,.06-1.3,.08-2.04,.02-.73,.03-1.43,.03-2.11,0-.61,0-1.13-.03-1.54Z"/>
            <path class="cls-4" d="M186.95,29.82c-.51-.12-.95-.32-1.33-.6-.38-.28-.67-.64-.89-1.08-.22-.44-.32-.97-.32-1.6,0-.35,0-.67,0-.95,0-.28,0-.54,0-.78s0-.47,0-.69c0-.22,0-.45,0-.69,0-.72,0-1.3-.01-1.74,0-.44-.02-.78-.04-1,.18,.02,.37,.03,.56,.05,.19,.01,.38,.02,.56,.02s.37,0,.56-.02c.19-.01,.38-.03,.56-.05-.09,.86-.15,1.66-.16,2.4-.02,.74-.03,1.49-.03,2.25,0,.81,.06,1.46,.18,1.96s.3,.88,.53,1.15c.23,.27,.52,.45,.86,.54,.34,.09,.73,.13,1.18,.13,.55,0,.98-.13,1.29-.4,.31-.27,.55-.62,.71-1.06,.16-.44,.26-.95,.3-1.52,.04-.57,.05-1.17,.05-1.79s0-1.22-.03-1.83c-.02-.61-.05-1.22-.08-1.83,.13,.02,.25,.03,.37,.05s.23,.02,.33,.02c.12,0,.23,0,.34-.02s.22-.03,.34-.05c-.02,.2-.04,.46-.05,.78-.02,.33-.04,.71-.06,1.14-.02,.43-.03,.9-.05,1.42s-.02,1.07-.02,1.64c0,1.54-.34,2.65-1.03,3.32-.69,.67-1.69,1-3.02,1-.59,0-1.13-.06-1.64-.18Z"/>
            <path class="cls-4" d="M218.68,26.93c-.07,.99-.15,1.99-.22,2.98-.11-.02-.22-.03-.33-.03h-.64c-.11,0-.21,0-.32,.03,.29-1.52,.55-3.04,.78-4.55,.23-1.51,.44-3.04,.63-4.59,.1,.02,.19,.03,.28,.05,.09,.01,.18,.02,.28,.02,.08,0,.17,0,.26-.02s.19-.03,.29-.05c.25,.53,.51,1.07,.78,1.62,.27,.55,.54,1.1,.81,1.64s.54,1.08,.81,1.6c.27,.52,.53,1.02,.78,1.49,.55-.99,1.1-2.03,1.64-3.12,.55-1.09,1.06-2.17,1.56-3.24,.23,.04,.43,.07,.59,.07,.16,0,.35-.02,.58-.07,.09,.76,.19,1.58,.3,2.46,.1,.88,.21,1.74,.31,2.57,.1,.84,.2,1.62,.3,2.35,.1,.73,.19,1.31,.27,1.76-.18-.02-.37-.03-.56-.03h-1.12c-.19,0-.38,0-.58,.03-.05-.91-.12-1.9-.23-2.97-.11-1.06-.21-2.12-.32-3.17h-.03c-.52,1.05-1.04,2.07-1.54,3.09-.5,1.01-1,2.03-1.5,3.05-.05,0-.09-.02-.13-.02-.04,0-.08,0-.13,0s-.09,0-.13,0c-.04,0-.09,.01-.13,.02-.49-.99-.99-1.99-1.48-2.98-.49-.99-1-2-1.52-3.02h-.03c-.15,1.02-.26,2.03-.33,3.02Z"/>
          </g>
          <g>
            <path class="cls-4" d="M271.68,25.72v.55c0,.74,0,1.39,.03,1.96,.02,.57,.05,1.13,.08,1.68-.16-.02-.32-.03-.51-.03h-1.24c-.18,0-.35,0-.51,.03,.04-.55,.06-1.11,.08-1.68,.02-.57,.03-1.23,.03-1.96v-1.81c0-.74,0-1.39-.03-1.96-.02-.57-.05-1.15-.08-1.72,.16,.02,.32,.03,.51,.05,.18,.01,.39,.02,.62,.02,.25,0,.53-.01,.84-.03,.32-.02,.71-.03,1.17-.03,.35,0,.65,0,.89,.03,.25,.02,.46,.04,.64,.08,.18,.04,.33,.08,.47,.14s.26,.13,.38,.21c.27,.19,.49,.44,.65,.72,.16,.29,.24,.63,.24,1.03,0,.65-.18,1.18-.55,1.58-.37,.41-.89,.7-1.58,.86,.44,.75,.91,1.51,1.41,2.25,.5,.75,1.01,1.49,1.51,2.23-.21-.02-.42-.03-.62-.03h-1.24c-.21,0-.41,0-.62,.03l-2.46-4.19h-.12Zm2.05-3.38c-.08-.23-.21-.41-.38-.53-.17-.12-.39-.2-.66-.23-.27-.04-.59-.05-.97-.05-.03,1.21-.04,2.41-.04,3.62,.05,0,.11,.02,.16,.02,.05,0,.1,0,.14,0,.6,0,1.07-.16,1.39-.47,.32-.31,.48-.79,.48-1.43,0-.39-.04-.7-.12-.93Z"/>
            <path class="cls-4" d="M302.02,22.5c-.02-.57-.05-1.15-.08-1.72,.16,.02,.32,.03,.51,.05,.18,.01,.39,.02,.62,.02s.43,0,.62-.02,.35-.03,.51-.05c-.04,.58-.06,1.15-.08,1.72-.02,.57-.03,1.23-.03,1.96v1.81c0,.74,0,1.39,.03,1.96,.02,.57,.05,1.13,.08,1.68-.16-.02-.32-.03-.51-.03h-1.24c-.18,0-.35,0-.51,.03,.04-.55,.06-1.11,.08-1.68,.02-.57,.03-1.23,.03-1.96v-1.81c0-.74,0-1.39-.03-1.96Z"/>
            <path class="cls-4" d="M335.66,24.05c.45-1.14,.85-2.23,1.21-3.28,.23,.04,.43,.07,.6,.07s.38-.02,.6-.07c-.23,.52-.5,1.15-.82,1.89s-.65,1.52-1,2.34c-.35,.82-.69,1.66-1.03,2.51-.34,.85-.64,1.65-.91,2.39-.18-.02-.38-.03-.6-.03s-.42,0-.6,.03c-.14-.35-.3-.78-.5-1.29-.2-.51-.41-1.04-.63-1.61-.22-.57-.46-1.15-.71-1.74-.25-.59-.49-1.17-.71-1.72s-.44-1.07-.65-1.55c-.2-.48-.38-.89-.52-1.22,.21,.02,.42,.03,.63,.05s.41,.02,.61,.02,.4,0,.6-.02,.4-.03,.6-.05c.16,.5,.33,1.02,.53,1.57,.2,.55,.4,1.11,.61,1.68,.21,.57,.43,1.15,.65,1.72,.22,.58,.44,1.14,.65,1.7,.48-1.13,.94-2.26,1.39-3.4Z"/>
            <path class="cls-4" d="M363.33,22.5c-.02-.57-.04-1.15-.07-1.72,.41,0,.82,.02,1.22,.04,.4,.02,.81,.03,1.22,.03,.68,0,1.28,0,1.81-.02,.53-.01,.88-.03,1.06-.05-.04,.14-.05,.33-.05,.56,0,.14,0,.25,.01,.33,0,.08,.02,.17,.04,.27-.27-.02-.56-.04-.87-.05-.32-.02-.62-.04-.92-.05-.3-.02-.57-.03-.8-.04-.24,0-.41-.01-.51-.01-.04,.49-.06,.97-.06,1.45s0,.96,0,1.45c.6,0,1.13-.02,1.61-.04,.48-.02,.98-.04,1.5-.07-.03,.15-.05,.27-.06,.35,0,.08-.01,.16-.01,.25,0,.07,0,.14,.02,.22,.01,.08,.03,.18,.05,.33-1.04-.08-2.08-.12-3.12-.12,0,.28,0,.57,0,.85,0,.28,0,.57,0,.85,0,.58,.01,1.13,.04,1.66,.52,0,1.04-.01,1.57-.04s1.05-.07,1.58-.13c-.02,.1-.03,.19-.04,.27,0,.08-.01,.19-.01,.33s0,.25,.01,.33c0,.08,.02,.15,.04,.2-.25,0-.55-.02-.91-.02-.36,0-.86,0-1.49,0h-2.18c-.21,0-.36,0-.47,0-.11,0-.19,.01-.27,.02,.03-.55,.06-1.11,.07-1.68,.02-.57,.02-1.23,.02-1.96v-1.81c0-.74,0-1.39-.02-1.96Z"/>
            <path class="cls-4" d="M395.91,25.72v.55c0,.74,0,1.39,.03,1.96,.02,.57,.05,1.13,.08,1.68-.16-.02-.32-.03-.51-.03h-1.24c-.18,0-.35,0-.51,.03,.04-.55,.06-1.11,.08-1.68,.02-.57,.03-1.23,.03-1.96v-1.81c0-.74,0-1.39-.03-1.96-.02-.57-.05-1.15-.08-1.72,.16,.02,.32,.03,.51,.05,.18,.01,.39,.02,.62,.02,.25,0,.53-.01,.84-.03,.32-.02,.71-.03,1.17-.03,.35,0,.65,0,.89,.03,.25,.02,.46,.04,.64,.08,.18,.04,.33,.08,.47,.14s.26,.13,.38,.21c.27,.19,.49,.44,.65,.72,.16,.29,.24,.63,.24,1.03,0,.65-.18,1.18-.55,1.58-.37,.41-.89,.7-1.58,.86,.44,.75,.91,1.51,1.41,2.25,.5,.75,1.01,1.49,1.51,2.23-.21-.02-.42-.03-.62-.03h-1.24c-.21,0-.41,0-.62,.03l-2.46-4.19h-.12Zm2.05-3.38c-.08-.23-.21-.41-.38-.53-.17-.12-.39-.2-.66-.23-.27-.04-.59-.05-.97-.05-.03,1.21-.04,2.41-.04,3.62,.05,0,.11,.02,.16,.02,.05,0,.1,0,.14,0,.6,0,1.07-.16,1.39-.47,.32-.31,.48-.79,.48-1.43,0-.39-.04-.7-.12-.93Z"/>
            <path class="cls-4" d="M426.26,22.5c-.02-.57-.05-1.15-.09-1.72,.16,.02,.32,.03,.51,.05,.18,.01,.39,.02,.62,.02,.39,0,.81-.01,1.24-.03,.43-.02,.84-.03,1.24-.03s.79,.04,1.13,.12,.63,.2,.88,.37c.25,.16,.44,.38,.57,.64,.13,.26,.2,.57,.2,.94s-.08,.68-.23,.94-.35,.48-.57,.65c-.23,.17-.47,.31-.73,.41-.26,.1-.5,.16-.71,.2v.03c.21,0,.46,.06,.74,.14,.28,.08,.55,.22,.81,.39,.26,.18,.47,.41,.65,.69,.18,.28,.27,.62,.27,1.02,0,.48-.09,.89-.27,1.22-.18,.34-.42,.61-.71,.82-.3,.21-.64,.36-1.02,.45s-.78,.13-1.19,.13c-.37,0-.71,0-1.02-.01-.32,0-.65-.01-.99-.01h-.76c-.26,0-.47,0-.62,.03,.04-.55,.07-1.11,.09-1.68,.02-.57,.03-1.23,.03-1.96v-1.81c0-.74-.01-1.39-.03-1.96Zm4.17-.01c-.05-.19-.14-.35-.25-.49-.12-.14-.27-.25-.45-.33s-.41-.13-.69-.13c-.2,0-.34,0-.42,0-.08,0-.16,.02-.25,.03-.02,.33-.03,.66-.04,1,0,.34-.01,.62-.01,.85s0,.47,0,.68c0,.22,0,.44,0,.67h.62c.19,0,.38-.04,.57-.11s.35-.18,.5-.31c.15-.14,.27-.31,.36-.53s.14-.46,.14-.74c0-.21-.03-.41-.08-.61Zm-.26,3.51c-.29-.31-.71-.46-1.26-.46-.13,0-.24,0-.33,0-.09,0-.18,0-.26,0,0,.19,0,.38,0,.58,0,.2,0,.44,0,.71,0,.21,0,.43,0,.65,0,.22,0,.44,0,.65s0,.41,0,.59c0,.18,0,.32,0,.44,.13,0,.25,.02,.36,.02,.11,0,.24,0,.4,0,.2,0,.39-.04,.58-.12,.18-.08,.34-.2,.48-.35,.14-.15,.25-.34,.33-.56s.12-.48,.12-.77c0-.62-.14-1.08-.43-1.39Z"/>
            <path class="cls-4" d="M466.72,29.95c-.22-.02-.43-.03-.63-.03h-1.17c-.2,0-.39,0-.58,.03-.15-.43-.3-.88-.45-1.33s-.32-.9-.49-1.36c-.29,0-.59-.02-.88-.02-.29,0-.59,0-.88,0-.24,0-.48,0-.71,0-.24,0-.48,.01-.71,.02-.18,.45-.35,.9-.51,1.36-.16,.45-.3,.9-.43,1.33-.11-.02-.22-.03-.32-.03h-.65c-.11,0-.23,0-.36,.03,.11-.23,.26-.55,.44-.96,.18-.41,.38-.87,.6-1.38,.22-.51,.46-1.07,.71-1.66,.25-.59,.5-1.19,.76-1.79,.25-.6,.5-1.2,.74-1.78,.24-.59,.46-1.13,.67-1.64,.09,.02,.18,.03,.26,.05s.17,.02,.26,.02,.18,0,.26-.02c.08-.01,.17-.03,.26-.05,.29,.75,.61,1.56,.94,2.42,.33,.86,.67,1.7,1.01,2.53,.34,.83,.67,1.62,.99,2.36s.61,1.37,.88,1.89Zm-4.86-6.64c-.24,.53-.46,1.06-.67,1.58s-.42,1.05-.62,1.59h2.51c-.2-.54-.4-1.07-.6-1.59-.2-.52-.41-1.04-.63-1.58Z"/>
            <path class="cls-4" d="M492.16,21.88c-.02-.42-.03-.78-.04-1.1,.26,.04,.46,.07,.62,.07s.36-.02,.62-.07c1,1.07,1.98,2.13,2.96,3.17,.97,1.04,1.98,2.09,3,3.17v-2.45c0-.43,0-.86,0-1.28,0-.42,0-.81-.01-1.16,0-.35-.01-.66-.03-.92s-.03-.43-.05-.52c.26,.04,.46,.07,.62,.07s.36-.02,.62-.07c-.05,.81-.08,1.54-.11,2.19-.03,.65-.05,1.27-.07,1.84-.02,.58-.03,1.15-.03,1.71,0,.56,0,1.16,0,1.8v1.6c-.18-.02-.37-.03-.56-.03s-.38,0-.54,.03c-1.89-2.13-3.89-4.27-6-6.42,0,.26-.02,.51-.02,.77,0,.26,0,.52,0,.78v1.54c0,.53,0,.98,0,1.36,0,.37,.01,.69,.02,.94,0,.26,.02,.47,.03,.63,0,.16,.02,.29,.03,.39-.11-.02-.22-.03-.33-.03h-.32c-.21,0-.42,0-.63,.03,.02-.07,.04-.32,.07-.76s.06-.96,.09-1.59c.03-.63,.06-1.3,.08-2.04,.02-.73,.03-1.43,.03-2.11,0-.61,0-1.13-.03-1.54Z"/>
            <path class="cls-4" d="M527.8,28.26c0,.69,.04,1.24,.1,1.65-.16-.02-.32-.03-.51-.03h-1.24c-.18,0-.35,0-.51,.03,.04-.55,.06-1.11,.08-1.68,.02-.57,.03-1.23,.03-1.96v-1.81c0-.74,0-1.39-.03-1.96-.02-.57-.05-1.15-.08-1.72,.16,.02,.32,.03,.51,.05s.39,.02,.62,.02,.43,0,.62-.02,.35-.03,.51-.05c-.05,.27-.08,.67-.09,1.2s-.02,1.12-.02,1.77v1.28c.31-.35,.65-.74,1-1.16,.36-.42,.7-.83,1.03-1.23,.33-.4,.63-.77,.89-1.1,.27-.33,.46-.58,.58-.75,.13,.02,.26,.03,.38,.05,.13,.01,.26,.02,.38,.02s.26,0,.39-.02,.28-.03,.43-.05c-.16,.15-.39,.39-.71,.73-.32,.34-.66,.7-1.02,1.09s-.71,.77-1.04,1.14c-.33,.37-.59,.66-.77,.87,.29,.43,.62,.91,.98,1.44,.36,.52,.71,1.04,1.06,1.54,.35,.5,.68,.96,.98,1.38,.3,.42,.54,.74,.73,.95-.27-.02-.5-.03-.71-.03h-1.22c-.2,0-.4,0-.6,.03-.47-.67-.92-1.36-1.37-2.05-.45-.7-.91-1.39-1.37-2.08h-.03c0,.97,0,1.8,.01,2.49Z"/>
          </g>
        </g>
        <g>
          <path class="cls-3" d="M190.18,43.71c-.76,.41-1.67,.78-2.74,1.1-1.07,.32-2.26,.61-3.58,.87-1.32,.26-2.7,.39-4.13,.39-3.07,0-5.9-.48-8.5-1.45-2.6-.97-4.84-2.44-6.72-4.43-1.88-1.98-3.36-4.4-4.42-7.27-1.07-2.86-1.6-6.13-1.6-9.79s.53-6.92,1.6-9.79c1.07-2.86,2.56-5.29,4.48-7.27,1.92-1.98,4.22-3.49,6.9-4.52,2.68-1.03,5.63-1.55,8.85-1.55,2.56,0,4.9,.29,7.02,.87,2.12,.58,3.99,1.28,5.62,2.1-.31,.6-.56,1.42-.76,2.46-.2,1.03-.35,1.9-.47,2.58l-.35,.13c-.39-.52-.93-1.1-1.63-1.74-.7-.65-1.51-1.27-2.45-1.87-.93-.6-1.98-1.11-3.14-1.52-1.16-.41-2.45-.61-3.84-.61-2.29,0-4.42,.41-6.38,1.23-1.96,.82-3.67,2.08-5.12,3.78-1.46,1.7-2.59,3.86-3.41,6.46-.82,2.61-1.22,5.7-1.22,9.27s.41,6.67,1.22,9.27c.82,2.61,1.95,4.76,3.41,6.46,1.46,1.7,3.16,2.96,5.12,3.78,1.96,.82,4.08,1.23,6.38,1.23,1.4,0,2.69-.19,3.87-.58,1.18-.39,2.27-.85,3.26-1.39,.99-.54,1.88-1.12,2.68-1.74,.79-.62,1.46-1.17,2.01-1.65l.23,.26-.52,3.81c-.35,.35-.9,.72-1.66,1.13Z"/>
          <path class="cls-3" d="M199.57,13.34c1.07-2.86,2.56-5.29,4.48-7.27,1.92-1.98,4.22-3.49,6.9-4.52,2.68-1.03,5.61-1.55,8.79-1.55s6.17,.52,8.85,1.55c2.68,1.03,4.98,2.54,6.9,4.52,1.92,1.98,3.42,4.4,4.48,7.27,1.07,2.86,1.6,6.13,1.6,9.79s-.53,6.92-1.6,9.79c-1.07,2.86-2.56,5.29-4.48,7.27-1.92,1.98-4.22,3.46-6.9,4.43-2.68,.97-5.63,1.45-8.85,1.45s-6.11-.48-8.79-1.45c-2.68-.97-4.98-2.44-6.9-4.43-1.92-1.98-3.42-4.4-4.48-7.27-1.07-2.86-1.6-6.13-1.6-9.79s.53-6.92,1.6-9.79Zm35.08,.52c-.82-2.61-1.95-4.76-3.41-6.46-1.46-1.7-3.16-2.96-5.12-3.78-1.96-.82-4.09-1.23-6.38-1.23s-4.36,.41-6.32,1.23c-1.96,.82-3.67,2.08-5.12,3.78-1.46,1.7-2.59,3.86-3.41,6.46-.82,2.61-1.22,5.7-1.22,9.27s.41,6.67,1.22,9.27c.82,2.61,1.95,4.76,3.41,6.46,1.46,1.7,3.16,2.96,5.12,3.78,1.96,.82,4.07,1.23,6.32,1.23s4.41-.41,6.38-1.23c1.96-.82,3.67-2.08,5.12-3.78,1.46-1.7,2.59-3.85,3.41-6.46,.82-2.61,1.22-5.7,1.22-9.27s-.41-6.66-1.22-9.27Z"/>
          <path class="cls-3" d="M258.12,36.05c-1.48-3.57-3.06-7.34-4.74-11.31-1.68-3.96-3.41-8.01-5.18-12.15-1.77-4.13-3.46-8.05-5.08-11.76,.63,.09,1.23,.16,1.82,.23,.58,.06,1.14,.1,1.68,.1s1.1-.03,1.68-.1c.58-.06,1.19-.14,1.82-.23,.99,2.84,2.07,5.83,3.26,8.95,1.19,3.12,2.44,6.3,3.77,9.53,1.32,3.23,2.68,6.5,4.07,9.82,1.39,3.32,2.8,6.61,4.24,9.88,.81-1.77,1.68-3.74,2.62-5.91,.94-2.17,1.89-4.44,2.86-6.78,.96-2.35,1.92-4.74,2.86-7.17,.94-2.43,1.85-4.77,2.72-7.01,.87-2.24,1.67-4.33,2.39-6.27,.72-1.94,1.32-3.62,1.82-5.04,.99,.22,1.82,.32,2.49,.32s1.5-.11,2.49-.32c-3.5,7.49-6.86,14.92-10.09,22.29-3.23,7.37-6.32,14.73-9.28,22.1-.72-.09-1.46-.13-2.22-.13-.9,0-1.64,.04-2.22,.13-1.03-2.54-2.29-5.6-3.77-9.17Z"/>
          <path class="cls-3" d="M297.14,9.11c-.14-2.76-.3-5.51-.47-8.27,2.57,.09,5.13,.16,7.68,.23,2.54,.06,5.1,.1,7.68,.1s5.12-.03,7.64-.1c2.52-.06,5.06-.14,7.63-.23-.17,.65-.26,1.29-.26,1.94s.09,1.29,.26,1.94c-1.83-.09-3.5-.17-5.02-.26-1.52-.09-3.12-.17-4.8-.26-1.69-.09-3.53-.16-5.53-.23-2-.06-4.4-.1-7.21-.1-.06,1.38-.13,2.69-.21,3.94-.09,1.25-.13,2.67-.13,4.26,0,1.68,.01,3.32,.04,4.91,.03,1.59,.04,2.8,.04,3.62,2.52,0,4.77-.02,6.78-.06,2-.04,3.83-.1,5.49-.16,1.66-.06,3.19-.13,4.59-.19,1.4-.06,2.73-.14,3.99-.23-.17,.65-.26,1.31-.26,2,0,.65,.08,1.29,.26,1.94-1.49-.13-3.22-.24-5.19-.32-1.97-.09-3.95-.14-5.92-.16-1.97-.02-3.83-.04-5.58-.06-1.75-.02-3.13-.03-4.16-.03,0,.39-.01,.81-.04,1.26-.03,.45-.04,1.02-.04,1.71v6.4c0,2.46,.01,4.48,.04,6.07,.03,1.59,.07,2.8,.13,3.62h6c2.17,0,4.3-.03,6.39-.1,2.09-.06,4.06-.15,5.92-.26,1.86-.11,3.47-.27,4.85-.48-.12,.3-.19,.64-.21,1-.03,.37-.04,.7-.04,1,0,.69,.09,1.25,.26,1.68-2.57-.09-5.13-.13-7.68-.13h-15.57c-2.57,0-5.18,.04-7.81,.13,.17-2.76,.33-5.5,.47-8.24,.14-2.73,.21-5.52,.21-8.37v-11.11c0-2.84-.07-5.64-.21-8.4Z"/>
          <path class="cls-3" d="M336.4,9.22c-.13-2.73-.27-5.52-.42-8.37,1.48,.09,2.93,.16,4.36,.23,1.43,.06,2.88,.1,4.36,.1s2.93-.05,4.36-.16c1.43-.11,2.88-.16,4.36-.16,2.14,0,4.18,.17,6.12,.52,1.94,.35,3.63,.92,5.09,1.71,1.45,.8,2.6,1.84,3.44,3.13,.84,1.29,1.26,2.91,1.26,4.85,0,2.07-.55,3.84-1.64,5.33-1.1,1.49-2.43,2.71-4.01,3.68-1.58,.97-3.28,1.72-5.09,2.26-1.81,.54-3.45,.89-4.93,1.07,.61,.65,1.45,1.55,2.52,2.71,1.07,1.16,2.27,2.44,3.59,3.84,1.32,1.4,2.7,2.86,4.13,4.39,1.43,1.53,2.8,2.99,4.13,4.39,1.33,1.4,2.57,2.68,3.75,3.84,1.17,1.16,2.12,2.05,2.83,2.65-.77-.09-1.53-.13-2.29-.13h-4.51c-.77,0-1.5,.04-2.22,.13-.77-.9-1.92-2.26-3.48-4.07-1.56-1.81-3.28-3.75-5.16-5.81-1.89-2.07-3.81-4.12-5.77-6.17-1.96-2.04-3.76-3.78-5.39-5.2h-2.91v4.72c0,2.84,.06,5.64,.19,8.4,.13,2.76,.27,5.47,.42,8.14-1.17-.09-2.42-.13-3.75-.13s-2.57,.04-3.75,.13c.15-2.67,.29-5.38,.42-8.14,.13-2.76,.19-5.56,.19-8.4v-11.11c0-2.84-.06-5.63-.19-8.37Zm8.79,12.31c.84,.04,1.77,.06,2.79,.06,1.58,0,3.22-.15,4.93-.45,1.71-.3,3.27-.83,4.7-1.58,1.43-.75,2.61-1.77,3.55-3.04,.94-1.27,1.42-2.88,1.42-4.81,0-1.68-.37-3.07-1.11-4.17-.74-1.1-1.7-1.97-2.87-2.62-1.17-.65-2.45-1.09-3.82-1.32-1.38-.24-2.73-.36-4.05-.36-1.78,0-3.26,.03-4.43,.1-1.17,.06-2.17,.14-2.98,.23-.1,2.37-.2,4.72-.31,7.04-.1,2.33-.15,4.65-.15,6.98v3.68c.71,.13,1.49,.22,2.33,.26Z"/>
        </g>
      </g>
    </g>
  </g>
</svg>