<?xml version="1.0" encoding="UTF-8"?>
<svg id="_圖層_2" data-name="圖層 2" xmlns="http://www.w3.org/2000/svg" viewBox="0 0 591.63 350.7">
  <defs>
    <style>
      .cls-1 {
        fill: #7a6a56;
      }
    </style>
  </defs>
  <g id="context">
    <g>
      <g>
        <g>
          <path d="M148.04,337.07v.93c-.13,4.28-.61,8.18-1.43,11.71l-2.11-1.02c.9-3.41,1.37-6.97,1.44-10.69v-7.25c-.07-.43,.09-.68,.47-.75,2.94-.3,5.55-.77,7.85-1.39l.86,2.04c-2.04,.62-4.3,1.05-6.79,1.3-.25,.06-.34,.18-.28,.37v2.69h6.79v2.05h-2.39v13.39h-2.1v-13.39h-2.3Zm12.82,5.3c-.06,.37-.2,.78-.39,1.21-.57,1.49-1.24,2.73-2.01,3.72-.84,1.05-1.94,2.14-3.35,3.26l-1.62-1.49c.06-.06,.13-.09,.19-.09,4.08-2.79,6.15-7.28,6.22-13.48v-2.6h-1.53c-.45,3.16-1.15,5.77-2.11,7.81l-2.1-.47c1.72-3.78,2.49-7.56,2.3-11.34h2.01v1.95h7.46l1.34,.74c-.38,3.22-.99,6.17-1.82,8.83l-2.01-.37c.31-.93,.61-1.77,.86-2.51,.77-2.85,1.06-4.37,.87-4.55-.06-.06-.14-.1-.2-.1h-2.96v2.6c-.07,.06-.1,.19-.1,.37,0,4.96,1.82,9.51,5.45,13.66l-2.01,1.03c-2.24-2.98-3.73-5.7-4.49-8.18Z"/>
          <path d="M169.8,347.38v-1.85h2.96v-1.77h-2.19c-.2,0-.29-.09-.29-.28v-8.74c0-.19,.09-.28,.29-.28h2.19v-1.86h-2.77v-1.85h2.77v-2.05h1.91v2.05h2.78v1.85h-2.78v1.86h2.3c.19,0,.29,.09,.29,.28v8.74c0,.19-.1,.28-.29,.28h-2.3v1.77h2.78v1.85h-2.78v3.07h-1.91v-3.07h-2.96Zm5.55-9.11v-1.95c0-.06-.04-.09-.1-.09h-3.06c-.06,0-.06,.03,0,.09v1.95h3.17Zm-3.17,1.77v1.95h3.06c.06,0,.1-.03,.1-.1v-1.85h-3.17Zm10.14-2.14c-1.02,1.54-2.2,2.73-3.54,3.53-.31-.74-.67-1.3-1.06-1.67,1.15-.68,2.11-1.67,2.87-2.97l1.72,1.12Zm.09,5.3c-1.02,1.43-2.2,2.54-3.54,3.35-.31-.74-.67-1.3-1.04-1.67,1.14-.74,2.13-1.71,2.96-2.88l1.63,1.21Zm-3.45-9.57l-1.04-1.86c3.25-.93,5.45-2.05,6.59-3.35l1.92,.56c-.14,.12-.2,.22-.2,.28,1.91,1.18,4.02,1.98,6.31,2.42l-.95,1.96c-2.36-.68-4.6-1.67-6.7-2.98-1.6,1.05-3.57,2.05-5.93,2.98Zm4.97,.28c.39,0,.57,.22,.57,.65v13.57c0,.87-.28,1.52-.86,1.96-.83,.68-2.52,.74-5.07,.18l-.09-2.04c1.91,.56,3.06,.71,3.44,.47,.39-.37,.57-.78,.57-1.21v-11.43c0-.19-.09-.28-.28-.28h-3.54v-1.86h5.25Zm5.36,3.9c-1.02,1.67-2.1,2.98-3.25,3.91-.45-.68-.86-1.21-1.24-1.58,1.21-.87,2.13-1.98,2.77-3.35l1.72,1.02Zm.19,5.12c-1.01,1.61-2.19,2.88-3.53,3.81-.32-.68-.7-1.21-1.15-1.58,1.21-.74,2.19-1.86,2.97-3.35l1.71,1.12Zm1.72-9.11c.39,0,.57,.22,.57,.65v13.66c0,.87-.28,1.52-.86,1.96-.76,.56-2.3,.61-4.6,.18v-2.04c1.66,.5,2.62,.65,2.87,.47,.39-.37,.57-.78,.57-1.21v-11.53c0-.18-.09-.28-.29-.28h-3.92v-1.86h5.64Z"/>
          <path d="M205.79,338.93v1.67h-11.58v-1.67h11.58Z"/>
          <path d="M217.89,335.86h-9.95v-2.14h9.95v-4.93h2.3v4.93h9.85v2.14h-9.85v11.71h8.8v2.14h-19.98v-2.14h8.89v-11.71Z"/>
          <path d="M239.35,350.55h-2.1v-11.16c-1.15,2.66-2.02,4.46-2.59,5.39l-2.01-.65c2.11-2.98,3.57-6.26,4.4-9.86h-3.92v-2.04h4.12v-3.72h2.1v3.72h3.35v2.04h-3.35v.37c1.46,1.67,2.9,3.44,4.3,5.3l-1.72,1.21c-.76-1.18-1.62-2.42-2.58-3.72v13.11Zm8.03-11.81c-1.15,3.22-2.52,6.04-4.12,8.46l-2.1-.65c1.54-2.05,2.81-4.21,3.82-6.51,.7-1.43,1.37-3.35,2.01-5.77h-3.25v-2.04h3.64v-3.72h2.11v3.72h5.16v2.04h-4.88c1.91,5.02,3.82,8.96,5.74,11.81l-1.82,.93c-1.59-2.48-3-5.43-4.2-8.83v12.36h-2.11v-11.81Z"/>
          <path d="M267.99,328.51h2.19v1.67h8.61l1.91,.93c-.13,1.43-.56,3.1-1.34,5.02l-1.91-.65c.51-1.54,.76-2.54,.76-2.97,0-.19-.09-.28-.28-.28h-17.5c-.14-.06-.2,0-.2,.19v3.62h-2.1v-5.48c0-.25,.13-.37,.38-.37h9.48v-1.67Zm9.76,21.66h-16.17c-.44,0-.67-.22-.67-.65v-14.78c0-.37,.2-.56,.57-.56h14.73c.45,0,.67,.19,.67,.56v5.76c-.06,.44-.28,.65-.67,.65h-13.19v1.95h14.82c.44,0,.67,.22,.67,.65v5.67c.06,.5-.19,.74-.76,.74Zm-14.73-5.02v2.6c-.06,.19,0,.28,.19,.28h12.82c.19,0,.28-.09,.28-.28v-2.42c-.06-.12-.13-.19-.19-.19h-13.1Zm0-6.04h11.47c.2,0,.29-.1,.29-.28v-2.32c0-.19-.09-.28-.29-.28h-11.19c-.19,0-.28,.09-.28,.28v2.6Z"/>
          <path d="M286.21,337.34v7.07c.13-.06,.28-.12,.47-.19,1.47-.43,2.52-.83,3.17-1.21l.86,1.95c-1.72,.87-4.05,1.67-6.98,2.42l-.87-1.95c.39-.19,.79-.31,1.24-.37v-14.88c-.06-.37,.13-.56,.57-.56,3.64,0,6.92-.37,9.85-1.12l.87,1.95c-1.35,.31-2.72,.56-4.12,.74-.06,1.43,0,2.79,.19,4.09h4.3v2.04h-4.11c.38,2.73,1.04,4.96,2.01,6.69,.19,.37,.38,.56,.57,.56,.06,.06,.09,0,.09-.19,.13-.31,.19-1.21,.19-2.69l2.01,.56c-.25,2.85-.61,4.46-1.04,4.83-.32,.19-.61,.28-.87,.28-.38-.06-.76-.21-1.15-.47-.19-.18-.31-.3-.38-.37-1.72-2.05-2.87-5.12-3.45-9.2h-3.44Zm8.32,10.5v2.05h-10.61v-2.05h10.61Zm-5.25-16.36c-1.02,.06-2.02,.09-2.97,.09-.13,.06-.16,.12-.09,.19v3.53h3.25c-.13-1.24-.19-2.51-.19-3.81Zm10.04-.28c-.19,0-.29,.1-.29,.28v18.87h-2.19v-20.83c.06-.25,.19-.37,.38-.37h6.7l1.44,1.02-2.3,7.07c0,.19,.03,.37,.09,.56,1.15,1.43,1.85,2.69,2.11,3.81,.56,2.05,.47,3.72-.29,5.02-.39,.56-.79,.93-1.24,1.12-.39,.25-.9,.37-1.53,.37s-1.47-.21-2.49-.65l.09-2.33c1.27,.68,2.23,.93,2.86,.74,.77-.25,1.06-1.24,.87-2.97-.14-1.12-.96-2.73-2.49-4.84-.2-.18-.26-.37-.2-.56l1.91-6.04c0-.25,0-.34,0-.28h-3.44Z"/>
        </g>
        <g>
          <path d="M337.56,334.97c1.01,.81,2.1,1.8,3.25,2.98l-1.43,1.49c-1.21-1.3-2.3-2.26-3.26-2.88l1.44-1.58Zm3.15,6.23c-.32,3.59-1.18,6.54-2.59,8.83l-2.01-.56c1.6-2.79,2.42-5.61,2.49-8.46l2.11,.19Zm-2.87-12.18c1.02,.81,2.1,1.8,3.25,2.98l-1.43,1.49c-1.21-1.3-2.3-2.26-3.25-2.88l1.43-1.58Zm11.48,.93v7.25c0,.43-.2,.65-.57,.65h-5.08v12.55h-2.01v-20.54c0-.31,.2-.47,.57-.47h6.51c.38,0,.57,.19,.57,.56Zm-2.02,2.88v-1.39c0-.25-.13-.37-.38-.37h-2.78c-.31,0-.48,.12-.48,.37v1.39h3.64Zm-3.64,1.67v1.68h3.17c.31-.06,.47-.22,.47-.47v-1.21h-3.64Zm5.45,9.76h-3.73v-1.67h3.73v-1.85h-4.2v-1.67h10.42v1.67h-4.2v1.85h3.92v1.67h-3.92v1.67h4.68v1.77h-11.38v-1.77h4.68v-1.67Zm2.02-6.41c-.45-.06-.68-.28-.68-.65v-7.25c0-.37,.23-.56,.68-.56h6.69c.39,0,.57,.19,.57,.56v18.69c0,.37-.09,.74-.28,1.11-.26,.31-.57,.56-.96,.75-.83,.3-2.1,.25-3.82-.19l.29-2.14c1.2,.43,2.01,.62,2.38,.56,.14-.06,.23-.19,.29-.37,.06-.13,.09-.28,.09-.47v-10.04h-5.25Zm5.25-5.12v-1.21c0-.31-.19-.47-.57-.47h-2.86c-.32,0-.48,.12-.48,.37v1.3h3.92Zm-3.92,1.67v1.21c0,.37,.19,.56,.57,.56h3.34v-1.77h-3.92Z"/>
          <path d="M376.43,339.24h-7.75c-.13,.19-.22,.32-.28,.37-.51,.56-.99,1.05-1.43,1.49,1.2,1.24,2.01,2.08,2.38,2.51l-1.53,1.11c-.45-.49-1.24-1.3-2.39-2.42-.95,.87-1.85,1.52-2.67,1.95l-1.54-1.39c2.11-1.3,3.73-2.51,4.88-3.63h-4.59v-1.95h6.4c.45-.62,.86-1.21,1.24-1.76h-5.93v-1.95h6.89c.31-.75,.5-1.34,.57-1.77h-8.33v-1.95h8.61c.13-.5,.22-.96,.29-1.4l2.01,.19c-.06,.43-.14,.83-.2,1.21h9.85v1.95h-10.32c-.14,.74-.29,1.34-.48,1.77h9.85v1.95h-5.74c.38,.74,.76,1.33,1.14,1.76h6.32v1.95h-4.69c1.27,1.18,2.97,2.33,5.07,3.44l-1.62,1.58c-1.15-.74-2.24-1.51-3.26-2.32-.83,.81-1.85,1.61-3.06,2.42l-1.24-1.49c1.15-.87,2.11-1.61,2.87-2.23-.45-.37-.89-.83-1.34-1.4Zm-5.93,7.34c-1.85,1.36-4.3,2.64-7.36,3.81l-.86-1.86c3.06-1.24,5.45-2.42,7.18-3.53l1.04,1.58Zm3.26-5.85v7.53c0,.93-.39,1.61-1.15,2.05-.77,.37-2.14,.34-4.12-.1v-2.04c1.6,.37,2.58,.43,2.97,.19,.13-.19,.19-.41,.19-.65v-6.97h2.11Zm.19-5.21h-2.58c-.39,.62-.77,1.21-1.15,1.76h4.78c-.32-.56-.68-1.14-1.06-1.76Zm2.1,9.76c3.26,1.61,5.48,2.82,6.7,3.62l-1.15,1.67c-1.85-1.18-4.04-2.36-6.59-3.53l1.04-1.76Z"/>
          <path d="M397.41,338.88v1.67h-11.58v-1.67h11.58Z"/>
          <path d="M404.15,328.46h2.11v1.77h5.07v1.85h-12.06v-1.85h4.88v-1.77Zm2.87,20.54c-.32,.56-.76,.96-1.34,1.21-1.21,.37-2.78,.25-4.69-.37l.09-2.14c1.72,.87,2.87,1.18,3.45,.93,.31-.19,.57-.41,.76-.65,.19-.43,.19-1.12,0-2.05l-5.36,.84-.47-1.95,5.16-.74c-.25-.5-.57-.96-.95-1.4h.95l1.72-1.77c.06-.12,.09-.21,.09-.28-.06-.12-.13-.19-.19-.19h-6.22v-1.76h8.89l1.34,1.21-3.92,3.62c.06,.13,.13,.22,.19,.28l4.4-.65,.29,1.95-4.02,.56c.45,1.61,.39,2.73-.19,3.35Zm2.77-11.15h-9.46c-.13,0-.19-.1-.19-.28v-4.37c.06-.19,.13-.28,.19-.28h9.46c.2,0,.29,.09,.29,.28v4.37c0,.19-.09,.28-.29,.28Zm-7.74-3.35c-.06,0-.06,.03,0,.1v1.67h6.03c.06,0,.09-.03,.09-.09v-1.58c0-.06-.03-.1-.09-.1h-6.03Zm9.95,4.74l-1.91-.56c1.79-3.22,2.67-6.54,2.67-9.95l2.02,.1c-.07,.87-.14,1.61-.2,2.23h7.18v1.95h-1.72v.84c0,3.59-.96,7.09-2.87,10.5,1.09,1.55,2.68,3.28,4.78,5.21l-1.82,1.02c-1.72-1.74-3.06-3.29-4.01-4.65-1.34,1.8-3.15,3.35-5.45,4.65l-1.43-1.49c2.35-1.24,4.29-2.88,5.83-4.93-1.09-2.23-1.76-4.59-2.01-7.07-.32,.81-.67,1.52-1.06,2.14Zm3.06-.56c.31,1.3,.7,2.54,1.15,3.72,1.21-2.48,1.85-5.33,1.91-8.55v-.84h-3.45c-.13,2.11,0,4,.39,5.67Z"/>
          <path d="M427.72,328.56h1.91v17.94h.86c.2,0,.29-.1,.29-.28v-14.88h1.82v16.08c0,.61-.32,.93-.96,.93h-5.92c-.65-.06-.96-.37-.96-.93v-16.08h1.82v14.88c0,.18,.09,.28,.28,.28h.87v-17.94Zm6.6,5.3l-.96-1.77c1.91-.68,3.25-1.85,4.01-3.53l1.92,.28c-.14,.12-.2,.28-.2,.47h5.93l1.34,1.11c-1.21,2.05-2.61,3.57-4.21,4.55,1.4,.68,3.06,1.12,4.97,1.3l-.67,1.86c-2.55-.31-4.62-1.03-6.22-2.14-1.85,.87-3.92,1.58-6.22,2.14l-.67-1.86c2.04-.37,3.85-.84,5.45-1.4-.76-.74-1.47-1.58-2.11-2.51-.64,.56-1.43,1.05-2.38,1.49Zm-.96,13.66v-1.86h5.83v-1.49h-4.87v-1.86h4.87v-1.4h-5.16v-1.85h5.16v-1.86h2.02v1.86h5.07v1.85h-5.07v1.4h4.88v1.86h-4.88v1.49h5.74v1.86h-5.74v2.98h-2.02v-2.98h-5.83Zm7.18-13.48c1.59-1.12,2.61-1.98,3.06-2.6,.13-.19,.09-.28-.1-.28h-5.35c.7,1.12,1.46,2.05,2.29,2.79,.06,0,.1,.03,.1,.1Z"/>
        </g>
        <path d="M324.94,329.16l-6.44,21.54h-1.59l6.44-21.54h1.59Z"/>
      </g>
      <g>
        <g>
          <path d="M8.7,282.47v2.42c0,.87-.13,1.8-.38,2.79-.2,.37-.32,.74-.39,1.12-1.21,2.73-3.38,4.83-6.51,6.32l-1.43-1.86c1.15-.43,2.14-.92,2.97-1.49,2.36-1.61,3.54-3.9,3.54-6.88v-2.42H.48v-2.04H22.58v2.04h-6.99v9.11c0,.37,.14,.68,.39,.93,.19,.19,.48,.28,.86,.28h2.87c.19,.06,.42,0,.67-.18,.13-.13,.19-.31,.19-.56v-3.44l2.2,.19c-.13,3.16-.32,4.92-.57,5.3-.57,.56-1.09,.83-1.53,.83h-5.08c-.57-.06-1.08-.31-1.53-.74-.45-.5-.67-.96-.67-1.4v-10.32h-4.69Zm11.96-8.27v2.05H2.49v-2.05H20.66Z"/>
          <path d="M32.95,295.21h-2.11v-10.79c-1.08,2.05-2.32,3.91-3.73,5.58l-1.91-.93c2.24-2.36,3.96-4.93,5.17-7.72h-4.78v-2.04h5.25v-3.26c-1.79,.19-3.34,.31-4.68,.37l-.29-2.05c4.72-.25,8.45-.65,11.19-1.21l.39,1.95c-.95,.25-2.42,.5-4.4,.74h-.09v3.44h4.88v2.04h-4.88v.1c1.72,1.86,3.37,3.75,4.97,5.67l-1.63,1.3c-1.01-1.3-2.13-2.73-3.34-4.28v11.07Zm13.86-21.76v19.15c0,.93-.38,1.61-1.15,2.04-1.08,.68-3.09,.62-6.02-.19v-2.04c2.67,.62,4.3,.71,4.88,.28,.13-.19,.19-.4,.19-.65v-18.59h2.1Zm-5.07,.93v15.62h-2.1v-15.62h2.1Z"/>
          <path d="M61.39,283.59v1.67h-11.58v-1.67h11.58Z"/>
          <path d="M65.06,284.14l-2.01-.83c2.17-3.04,3.54-6.36,4.12-9.95l2.01,.37c-.39,1.92-.79,3.57-1.24,4.93v16.55h-2.1v-12.18c-.32,.37-.57,.75-.77,1.12Zm20.57-7.25v2.04h-16.45v-2.04h16.45Zm-13.2,18.13h-2.1v-7.53c0-.25,.09-.37,.28-.37h13.58c.32,.06,.48,.21,.48,.47v7.44h-2.1v-1.12h-10.14v1.12Zm11.48-14.88v1.96h-13.1v-1.96h13.1Zm0,3.44v1.95h-13.1v-1.95h13.1Zm-.09-9.86v1.96h-12.82v-1.96h12.82Zm-1.24,18.22v-2.6c0-.19-.09-.28-.29-.28h-9.56c-.26,0-.36,.09-.29,.28v2.6h10.14Z"/>
          <path d="M101.82,288.52h-6.03v1.39c1.47-.18,2.59-.37,3.35-.56l.39,1.76c-.77,.25-2.02,.47-3.74,.65v1.4c-.06,.81-.41,1.43-1.04,1.86-.7,.49-2.14,.47-4.3-.1v-1.85c1.72,.37,2.8,.43,3.25,.18,.13-.12,.19-.31,.19-.56v-.65c-1.97,.19-3.56,.31-4.77,.37l-.29-1.86c1.47-.06,3.15-.19,5.07-.37v-1.67h-4.97v-1.86h4.97v-1.03c-1.59,.13-2.89,.19-3.92,.19l-.28-1.76c3.76-.12,6.72-.4,8.89-.84l.28,1.77c-.7,.12-1.71,.28-3.06,.47v1.21h5.36c-.31-1.05-.61-2.23-.86-3.53h-11.67v-1.86h10.04v-1.12h-7.94v-1.67h7.94v-1.21h-9.28v-1.85h5.55c-.39-.43-.7-.78-.95-1.03l1.43-1.21c.57,.5,1.18,1.15,1.82,1.95l-.39,.28h5.36c.83-.87,1.46-1.61,1.91-2.23l1.53,1.21c-.25,.31-.5,.65-.76,1.03h4.97v1.85h-9.08v1.21h7.84v1.67h-7.84v1.12h9.95v1.86h-8.33c.19,1.36,.48,2.54,.87,3.53h7.07v1.86h-6.4c.31,.8,.76,1.52,1.34,2.13,.7-.49,1.56-1.11,2.58-1.85l1.15,1.49c-.9,.74-1.72,1.33-2.49,1.76,.31,.25,.61,.47,.86,.65,.51,.31,.9,.43,1.15,.37,.25-.06,.39-.19,.39-.37,.19-.43,.28-1.05,.28-1.86l1.82,.65c-.38,2.17-.89,3.44-1.53,3.81-.77,.12-1.57-.03-2.39-.47-.96-.56-1.76-1.15-2.39-1.76-2.04,.93-4.4,1.58-7.08,1.95l-.56-1.86c1.97-.12,4.11-.65,6.4-1.58-.7-.93-1.24-1.95-1.63-3.06Zm3.64-5.21c1.46,.68,2.58,1.21,3.35,1.58l-.96,1.58c-.45-.25-1.53-.74-3.25-1.49l.86-1.67Z"/>
          <path d="M114.68,275.97h-1.34v-1.86h8.23v1.86h-.96v19.15h-1.91v-3.44c-2.17,.87-3.73,1.4-4.69,1.58l-.67-1.67c.45-.18,.9-.3,1.34-.37v-15.25Zm4.02,3.35v-3.35h-2.1v3.35h2.1Zm0,5.21v-3.35h-2.1v3.35h2.1Zm0,5.21v-3.35h-2.1v4.18c.83-.31,1.53-.59,2.1-.83Zm2.77-4.93c-.06-.56-.22-1.12-.47-1.67l1.53-.28c.51-.62,1.06-1.33,1.63-2.14-1.09-1.05-2.14-1.89-3.15-2.51,.25-.56,.57-1.05,.95-1.49,.06,.06,.29,.22,.67,.47,.57-1.24,1.09-2.54,1.54-3.9,.57,.31,1.15,.56,1.72,.74-.32,1.11-.96,2.54-1.92,4.28,.39,.25,.77,.59,1.15,1.02,.64-1.18,1.09-2.26,1.34-3.26l1.82,.47c-.44,1.55-1.56,3.53-3.34,5.95l1.53-.28c-.06-.43-.19-.84-.38-1.21l1.72-.37c.44,1.06,.76,2.42,.95,4.09l-1.72,.28c-.06-.31-.13-.65-.19-1.03l-5.36,.84Zm1.44,6.51c-.57-.06-.87-.37-.87-.93v-4.92h1.91v3.53c-.06,.32,.1,.47,.48,.47h1.63v-3.99h1.91v5.48c0,.37-.09,.77-.29,1.21-.56,1.42-2.01,2.51-4.29,3.25l-.87-1.67c.64-.18,1.15-.37,1.54-.56,1.08-.5,1.71-1.12,1.91-1.86h-3.06Zm6.31-6.97c-.06-.56-.22-1.12-.48-1.67l1.15-.28c.45-.5,.86-1.03,1.24-1.58-1.09-1.05-2.13-1.89-3.15-2.51,.31-.56,.61-1.05,.86-1.49,.14,.06,.39,.22,.77,.47,.7-1.23,1.27-2.6,1.71-4.09,.57,.31,1.15,.59,1.72,.84-.38,1.11-1.06,2.54-2.01,4.28,.31,.31,.67,.65,1.06,1.02,.76-1.36,1.24-2.64,1.43-3.81l1.91,.47c-.39,1.61-1.43,3.62-3.15,6.04l1.72-.28c-.14-.56-.23-.96-.29-1.21l1.63-.37c.31,1.12,.57,2.45,.76,4l-1.72,.28c-.06-.37-.09-.68-.09-.93l-5.07,.84Zm4.12,5.11c.19,0,.28-.09,.28-.28v-3.53h1.91v5.12c0,.37-.19,.56-.57,.56h-3.53v3.91h-1.92v-10.14h1.92v4.37h1.91Z"/>
          <path d="M160.07,276.9c.2,.06,.32,.09,.39,.09,.19,.13,.28,.5,.28,1.12,0,5.83-.09,9.79-.28,11.9-.39,2.42-1.06,3.93-2.01,4.55-.84,.56-2.24,.62-4.21,.19l-.19-2.05c1.84,.43,2.99,.47,3.44,.09,.7-.56,1.09-2.69,1.15-6.41,.06-4.9,.06-7.38,0-7.44-.06-.06-.13-.09-.19-.09h-2.49c-.2,7.13-1.54,12.49-4.02,16.08l-1.72-.92,.09,.09-11.66,.74-.1-1.86,5.55-.37v-1.58h-4.97v-1.67h4.97v-1.3h-5.07v-1.77h5.07v-1.21h-4.88c-.19,0-.28-.09-.28-.28v-4.19c0-.18,.09-.28,.28-.28h4.88v-1.02h-2.38c-.51,0-.77-.28-.77-.84v-2.14h-2.39v-1.76h2.39v-1.21h1.91v1.21h4.5v-1.21h1.91v1.21h2.19v1.76h-2.19v2.14c0,.56-.29,.84-.87,.84h-2.19v1.02h4.88c.19,0,.28,.1,.28,.28v4.19c0,.19-.09,.28-.28,.28h-4.88v1.21h4.97v1.77h-4.97v1.3h4.4v1.67h-4.4v1.49l3.82-.28,.19,1.49c2.42-2.85,3.67-7.8,3.73-14.87h-2.49v-1.95h2.49v-3.72h2.02v3.72h4.11Zm-15.97,5.11h-3.15v1.3c0,.06,.03,.09,.09,.09h3.06v-1.4Zm3.26-5.67h-4.5v1.03c0,.18,.1,.28,.29,.28h3.92c.2,0,.29-.1,.29-.28v-1.03Zm-1.15,7.07h3.06l.09-.09v-1.3h-3.15v1.4Z"/>
          <path d="M170.05,289.44v2.79h-2.97v-2.79h2.97Z"/>
          <path d="M183.86,295.21h-2.1v-10.6c-.96,2.11-2.1,3.93-3.45,5.48l-1.91-.83c2.11-2.36,3.73-4.96,4.88-7.81h-4.49v-2.05h4.97v-3.35c-1.54,.13-2.81,.19-3.82,.19l-.29-1.95c4.08-.19,7.3-.5,9.66-.93l.39,1.95c-.84,.19-2.11,.37-3.83,.56v3.53h4.21v2.05h-4.21c1.66,1.92,3.19,3.9,4.6,5.95l-1.72,1.21c-.9-1.36-1.85-2.82-2.87-4.37v10.97Zm7.27-.75h-2.1v-19.98c0-.19,.09-.28,.28-.28h8.42c.31,0,.48,.13,.48,.37v19.89h-2.11v-1.11h-4.97v1.11Zm4.97-3.16v-14.78c0-.19-.09-.28-.28-.28h-4.4c-.26,0-.36,.09-.29,.28v14.78h4.97Z"/>
          <path d="M201.79,287.86v-2.05h10.04v-9.85h-9.18v-2.05h20.56v2.05h-9.17v9.85h9.95v2.05h-9.95v7.25h-2.2v-7.25h-10.04Zm2.97-10.5c1.27,1.67,2.49,3.75,3.63,6.23l-1.91,1.02c-1.21-2.73-2.39-4.77-3.53-6.14l1.82-1.11Zm17.88,.83c-.77,1.92-2.02,4.09-3.74,6.51l-1.81-1.03c1.78-2.54,2.99-4.65,3.63-6.32l1.92,.83Z"/>
          <path d="M237.99,283.78c-.14,.31-.23,.65-.29,1.02-1.79,4.34-5,7.71-9.65,10.13l-1.54-1.67c5.61-2.6,8.99-6.91,10.14-12.92h-9.38v-2.14h9.57c.06-.37,.09-.74,.09-1.11v-3.53h2.3v3.53c-.06,.37-.09,.74-.09,1.11h9.56v2.14h-9.28c.13,.93,.28,1.77,.48,2.51,1.27,3.97,4.49,7.56,9.65,10.78l-1.91,1.49c-.51-.37-.95-.68-1.34-.93-4.34-3.22-7.1-6.69-8.32-10.41Z"/>
          <path d="M253.33,287.4l-1.72-1.21c1.09-.93,1.85-1.89,2.3-2.88,.57-.99,1.06-2.51,1.43-4.55l1.82,.46c-.06,.25-.09,.47-.09,.65h5.45c.51,0,.73,.22,.67,.65-.06,1.49-.42,3.19-1.06,5.11-.38,1.06-.76,2.05-1.15,2.98-1.66,2.91-4.11,5.05-7.36,6.41l-1.82-1.77c2.87-.87,5-2.14,6.41-3.81-1.47-1.3-2.72-2.35-3.73-3.16-.39,.37-.77,.74-1.15,1.12Zm6.5-10.32v1.3h-2.1v-1.3h-5.74v-2.05h5.74v-1.95h2.1v1.95h6.7v-1.95h2.11v1.95h5.55v2.05h-5.55v1.39h-2.11v-1.39h-6.7Zm-.47,10.59c.13-.37,.28-.74,.47-1.12,.51-.99,.9-2.35,1.15-4.09,.06-.37-.03-.56-.28-.56h-4.12c-.25,1.18-.57,2.07-.95,2.69,1.14,.87,2.38,1.89,3.73,3.07Zm6.98,3.81c0,.37,.03,.65,.09,.84,.13,.25,.32,.4,.57,.46,.76,.13,1.72,.19,2.87,.19s1.74-.03,1.82-.09c.19-.06,.31-.22,.38-.47,.13-.5,.2-1.49,.2-2.98l2.1,.1c0,2.29-.22,3.81-.67,4.55-.26,.37-.51,.59-.76,.65-.39,.18-1.24,.28-2.59,.28-1.85-.06-3.37-.13-4.59-.19-.39-.12-.7-.28-.96-.47-.38-.56-.56-1.21-.56-1.95v-12.83h8.7c.31,0,.47,.12,.47,.37v6.41c0,.62-.28,1.14-.86,1.58-.7,.62-2.33,.72-4.88,.28v-2.04c1.85,.31,2.97,.34,3.35,.09,.19-.25,.28-.5,.28-.74v-3.72c0-.12-.09-.18-.28-.18h-4.69v9.85Z"/>
        </g>
        <g>
          <path d="M315.89,284.6c-.14,.31-.23,.65-.29,1.02-1.79,4.34-5,7.71-9.65,10.13l-1.54-1.67c5.61-2.6,8.99-6.91,10.14-12.92h-9.38v-2.14h9.57c.06-.37,.09-.74,.09-1.11v-3.53h2.3v3.53c-.06,.37-.09,.74-.09,1.11h9.56v2.14h-9.28c.13,.93,.28,1.77,.48,2.51,1.27,3.97,4.49,7.56,9.65,10.78l-1.91,1.49c-.51-.37-.95-.68-1.34-.93-4.34-3.22-7.1-6.69-8.32-10.41Z"/>
          <path d="M332.39,296.04h-2.02v-21.1c.06-.12,.1-.21,.1-.28h5.25l1.43,.83-1.91,5.86c-.06,.43-.06,.68,0,.74,.9,1.18,1.47,2.33,1.72,3.44,.51,1.73,.39,3.06-.38,3.99-.45,.56-.99,.87-1.63,.93-.76,.13-1.63,.06-2.58-.19v5.77Zm.19-19.52h-.09l-.09,.09v11.62c.64,.31,1.24,.43,1.82,.37,.31,0,.57-.12,.76-.37,.7-.99,.09-3.07-1.82-6.23v-.19l1.53-4.83c.14-.37,0-.53-.38-.47h-1.72Zm10.91,13.66h-5.27v-1.95h5.27v-2.23h2.1v2.23h5.93v1.95h-5.93v3.16h6.88v1.95h-16.07v-1.95h7.08v-3.16Zm-.67-8.37v.37c0,.44-.1,.93-.29,1.49-.57,1.8-1.91,3.1-4.01,3.9l-1.24-1.58c.64-.25,1.18-.49,1.62-.74,1.27-.74,1.94-1.76,2.02-3.07v-.37h-3.83v-1.86h6.32v-2.23h-4.97v-1.86h4.97v-1.86h2.1v1.86h5.74v1.86h-5.74v2.23h6.6v1.86h-4.5v2.42c0,.31,.1,.56,.29,.74s.41,.28,.67,.28h1.34c.19,.06,.39,0,.57-.18,.06-.06,.09-.13,.09-.19,.06-.31,.13-.84,.2-1.58l1.71,.37c-.25,1.61-.41,2.51-.47,2.69-.45,.43-.9,.65-1.35,.65h-3.15c-.45,0-.86-.22-1.24-.65-.38-.37-.57-.74-.57-1.12v-3.44h-2.86Z"/>
          <path d="M359.77,284.04c0-.12-.03-.19-.09-.19h-3.44l-.77-1.21,3.45-5.95c0-.06-.03-.06-.09,0h-3.35v-2.04h5.36l.96,1.3-3.64,5.86h3.06c.51,.06,.76,.28,.76,.65-.06,3.04-.76,5.89-2.1,8.55,0,.06,.03,.09,.09,.09,1.53,1.61,3.76,2.38,6.7,2.33h10.8l-.57,2.14h-9.46c-1.66-.13-3.15-.31-4.49-.56-1.28-.31-2.62-1.05-4.02-2.23-.7,1.24-1.57,2.35-2.58,3.35l-1.72-1.49c1.27-1.3,2.24-2.51,2.87-3.62-.77-1.05-1.47-2.7-2.11-4.93l1.91-.47c.39,1.3,.8,2.45,1.24,3.44,.84-1.8,1.24-3.47,1.24-5.02Zm2.3,6.51v-1.96h6.03v-1.3h-5.07v-1.95h5.07v-1.4h-4.3v-1.86h4.3v-1.49h-6.31v-1.86h6.31v-1.4h-4.3v-1.86h4.3v-1.58h2.1v1.58h4.97c.45,0,.68,.19,.68,.56v2.69h1.53v1.86h-1.53v2.69c-.07,.43-.29,.65-.68,.65h-4.97v1.4h5.93v1.95h-5.93v1.3h6.79v1.96h-6.79v2.51h-2.1v-2.51h-6.03Zm8.13-11.81h3.54v-1.3c-.06-.06-.13-.1-.19-.1h-3.35v1.4Zm0,3.35h3.35c.13-.06,.19-.12,.19-.19v-1.3h-3.54v1.49Z"/>
          <path d="M389.18,277.91v1.95h-9.17v-1.95h9.17Zm-6.59,17.66h-2.02v-8.09c.06-.37,.29-.56,.68-.56h6.69c.45,0,.68,.19,.68,.56v6.41c0,.43-.23,.65-.68,.65h-5.35v1.03Zm5.45-14.6v1.86h-6.99v-1.86h6.99Zm0,2.98v1.86h-6.99v-1.86h6.99Zm.09-9.11v1.95h-6.99v-1.95h6.99Zm-5.27,13.94c-.19,0-.28,.1-.28,.28v3.63h3.64c.25-.06,.38-.19,.38-.37v-3.26c0-.18-.09-.28-.28-.28h-3.45Zm10.33-11.99v.93c-.06,2.42-1.09,4.21-3.06,5.39l-1.34-1.49c.31-.19,.61-.37,.86-.56,1.09-.93,1.63-2.26,1.63-4v-1.95c0-.12,.03-.22,.09-.28,.13-.06,.22-.1,.28-.1h6.89c.13,0,.22,.03,.28,.1,.06,.12,.13,.21,.19,.28v4.92c0,.37,.03,.59,.1,.65,.13,.19,.38,.28,.76,.28h.19c.13-.06,.32-.12,.57-.18,.13-.06,.19-.28,.19-.65v-1.58l1.82,.19c-.06,1.43-.09,2.33-.09,2.69-.13,.31-.28,.59-.48,.84-.44,.37-.89,.56-1.34,.56h-1.72c-.64,0-1.08-.19-1.34-.56-.38-.43-.57-.87-.57-1.3v-4.09c0-.19-.09-.28-.28-.28h-3.45c-.13,.06-.19,.12-.19,.19Zm-2.87,19.33l-1.24-1.76c1.97-.68,3.57-1.4,4.78-2.14-1.27-1.24-2.49-2.88-3.64-4.93l1.72-.93c.95,1.92,2.1,3.47,3.45,4.65,1.97-1.55,3.19-3.26,3.63-5.12l-.09-.19c-.13-.06-.28-.09-.48-.09h-8.22v-1.95h9.95l1.15,.93c-.51,3.04-1.94,5.61-4.3,7.71,1.4,.87,3.25,1.49,5.55,1.86l-1.06,1.95c-2.55-.74-4.59-1.61-6.11-2.6-1.28,.81-2.97,1.67-5.08,2.6Z"/>
          <path d="M416,284.42v1.67h-11.58v-1.67h11.58Z"/>
          <path d="M420.44,284.14h-2.2v-1.86h2.2v-5.48h-2.3v-1.86h6.6v1.86h-2.3v5.48h2.01v1.86h-2.01v5.67c.95-.43,1.72-.77,2.3-1.02l.86,1.77c-1.79,.99-4.12,1.95-6.98,2.88l-.96-1.86c.89-.31,1.82-.65,2.78-1.02v-6.41Zm12.34-1.21c-1.15,1.11-2.24,1.98-3.26,2.6,.32,.8,.61,1.58,.87,2.32l-1.91,.56c-.2-.62-.42-1.24-.67-1.86-.71,.37-1.38,.65-2.02,.83l-1.04-1.67c.83-.31,1.62-.65,2.38-1.02-.38-.93-.67-1.52-.86-1.76l1.91-.65c.13,.37,.32,.87,.57,1.49,1.09-.74,2.13-1.61,3.15-2.6-.38-.56-.79-1.12-1.24-1.67-2.04,1.24-3.64,2.05-4.78,2.42l-1.04-1.67c2.49-.8,4.62-1.95,6.4-3.44h-5.07v-1.95h13.29v1.95h-5.35c-.64,.62-1.24,1.15-1.82,1.58,1.34,1.67,2.3,3.66,2.86,5.95,.51,2.67,2.33,5.7,5.45,9.11l-1.91,.83c-1.21-1.36-2.24-2.79-3.06-4.28-.06,1.36-.38,2.51-.95,3.44-.51,1.18-1.27,1.95-2.3,2.32-.45,.13-.9,.16-1.34,.1-.57-.06-1.47-.31-2.68-.74l.2-2.05c1.53,.62,2.52,.84,2.97,.65,.64-.25,1.14-.78,1.53-1.58,.51-1.24,.73-2.6,.67-4.09-3.25,2.85-6.34,4.77-9.28,5.76l-1.15-1.76c3.96-1.49,7.36-3.62,10.24-6.41-.13-.31-.19-.5-.19-.56-.32-.81-.51-1.52-.57-2.14Zm7.17-3.07c-.83,1.11-1.91,2.32-3.25,3.62l-1.54-1.4c1.47-1.36,2.52-2.54,3.17-3.53l1.62,1.3Z"/>
          <path d="M446.68,295.85h-2.19v-18.31c.06-.5,.31-.74,.76-.74h6.31c.51-1.18,.9-2.07,1.15-2.69l1.91,.65c-.19,.62-.41,1.3-.67,2.05h9.28c.51-.06,.77,.19,.77,.74v18.31h-2.2v-1.02h-15.12v1.02Zm.29-17.01c-.19,0-.29,.1-.29,.28v5.67h15.12v-5.67c0-.19-.09-.28-.29-.28h-14.53Zm14.82,13.95v-5.95h-15.12v5.95h15.12Z"/>
          <path d="M474.46,290.27v2.79h-2.97v-2.79h2.97Z"/>
          <path d="M483.5,284.14h-2.2v-1.86h2.2v-5.48h-2.3v-1.86h6.6v1.86h-2.3v5.48h2.01v1.86h-2.01v5.67c.95-.43,1.72-.77,2.3-1.02l.86,1.77c-1.79,.99-4.12,1.95-6.98,2.88l-.96-1.86c.89-.31,1.82-.65,2.78-1.02v-6.41Zm12.34-1.21c-1.15,1.11-2.24,1.98-3.26,2.6,.32,.8,.61,1.58,.87,2.32l-1.91,.56c-.2-.62-.42-1.24-.67-1.86-.71,.37-1.38,.65-2.02,.83l-1.04-1.67c.83-.31,1.62-.65,2.38-1.02-.38-.93-.67-1.52-.86-1.76l1.91-.65c.13,.37,.32,.87,.57,1.49,1.09-.74,2.13-1.61,3.15-2.6-.38-.56-.79-1.12-1.24-1.67-2.04,1.24-3.64,2.05-4.78,2.42l-1.04-1.67c2.49-.8,4.62-1.95,6.4-3.44h-5.07v-1.95h13.29v1.95h-5.35c-.64,.62-1.24,1.15-1.82,1.58,1.34,1.67,2.3,3.66,2.86,5.95,.51,2.67,2.33,5.7,5.45,9.11l-1.91,.83c-1.21-1.36-2.24-2.79-3.06-4.28-.06,1.36-.38,2.51-.95,3.44-.51,1.18-1.27,1.95-2.3,2.32-.45,.13-.9,.16-1.34,.1-.57-.06-1.47-.31-2.68-.74l.2-2.05c1.53,.62,2.52,.84,2.97,.65,.64-.25,1.14-.78,1.53-1.58,.51-1.24,.73-2.6,.67-4.09-3.25,2.85-6.34,4.77-9.28,5.76l-1.15-1.76c3.96-1.49,7.36-3.62,10.24-6.41-.13-.31-.19-.5-.19-.56-.32-.81-.51-1.52-.57-2.14Zm7.17-3.07c-.83,1.11-1.91,2.32-3.25,3.62l-1.54-1.4c1.47-1.36,2.52-2.54,3.17-3.53l1.62,1.3Z"/>
          <path d="M511.76,292.41h-3.35c-.13,0-.19-.09-.19-.28v-3.72c.06-.19,.13-.28,.19-.28h17.79c.19,0,.29,.1,.29,.28v3.72c0,.19-.1,.28-.29,.28h-3.15l-.67,1.58h6.12v1.86h-22.38v-1.86h6.31c-.26-.68-.48-1.21-.67-1.58Zm16.44-6.6v1.67h-21.8v-1.67h21.8Zm-9.08-3.72v-1.49h2.19v-1.12h-2.19v-1.49h2.19v-1.21h-2.3v-1.49h2.3v-1.3h1.72v1.3h2.1v1.49h-2.1v1.21h2.01v1.49h-2.01v1.12h2.1v1.49h-2.1v1.12h2.67c.2,0,.29-.1,.29-.28v-8.55h1.91v9.66c0,.56-.29,.84-.86,.84h-19.51c-.51,0-.76-.28-.76-.84v-9.66h1.91v8.55c0,.18,.09,.28,.28,.28h2.58v-1.12h-2.19v-1.49h2.19v-1.21h-2.1v-1.49h2.1v-1.12h-2.19v-1.49h2.19v-1.3h1.72v1.3h1.91v1.49h-1.91v1.12h1.91v1.49h-1.91v1.21h2.01v1.49h-2.01v1.12h2.97v-9.2h1.91v9.2h3.15v-1.12h-2.19Zm-8.99,7.62c-.06,0-.06,.03,0,.09v1.03h14.34c.06,0,.09-.03,.09-.1v-.93c0-.06-.03-.09-.09-.09h-14.34Zm10.24,4.28c.19-.43,.38-.87,.57-1.3,.06-.13,.09-.22,.09-.28h-7.27c.06,.06,.28,.59,.67,1.58h5.93Z"/>
          <path d="M537.52,290.27v2.79h-2.97v-2.79h2.97Z"/>
          <path d="M553.44,287.48v7.9h-2.11v-7.9h-3.82c-.06,0-.09,.03-.09,.09v8.27h-2.1v-9.95c.06-.31,.22-.47,.47-.47h7.75c.31-1.12,.51-1.71,.57-1.76h-9.76v-2.05h21.91v2.05h-10.05c-.06,.31-.19,.68-.38,1.11-.07,.19-.14,.41-.2,.65h9.09c.39,.06,.57,.22,.57,.47v7.81c-.06,.87-.42,1.49-1.06,1.86-.83,.56-2.23,.65-4.21,.28l-.09-2.23c1.54,.37,2.42,.43,2.68,.19,.38-.19,.57-.5,.57-.93v-5.3c-.07-.06-.14-.09-.2-.09h-3.73v7.9h-2.1v-7.9h-3.73Zm8.98-9.39c.26,0,.39-.12,.39-.37v-2.88h2.1v4.28c-.06,.68-.41,1.02-1.04,1.02h-17.12c-.64-.06-.96-.4-.96-1.02v-4.28h2.11v2.88c0,.25,.09,.37,.28,.37h6.12v-4.18h2.11v4.18h6.02Z"/>
          <path d="M579.3,274h2.2v1.67h9.46v2.05h-18.18c-.13,.06-.19,.12-.19,.19v8.46c-.06,3.66-.61,6.72-1.63,9.2l-2.01-.65c.57-1.61,.99-3.07,1.24-4.37,.2-1.3,.29-2.89,.29-4.74v-9.57c0-.37,.19-.56,.57-.56h8.22v-1.67Zm-5.83,14.22v-2.05h7.35c-1.14-.93-2.58-1.86-4.3-2.79l1.25-1.67c1.01,.62,1.91,1.21,2.67,1.76,2.74-.81,4.78-1.61,6.12-2.42h-12.91v-1.86h15.4l.95,1.3c-1.59,1.8-4.11,3.26-7.55,4.37,.19,.19,.39,.31,.57,.37l-.76,.93h7.94l1.43,.84c-.57,3.22-2.3,5.51-5.16,6.88l-1.63-1.77c2.24-.93,3.64-2.23,4.21-3.9h-6.03v5.39c0,.93-.39,1.61-1.15,2.05-1.21,.74-3.48,.62-6.79-.37l.09-2.13c1.34,.43,2.24,.68,2.68,.74,.57,.12,1.15,.21,1.71,.28,.39,.06,.77-.1,1.15-.47,.13-.19,.2-.41,.2-.65v-4.83h-7.46Z"/>
        </g>
        <path d="M294.05,274.58l-6.44,21.54h-1.59l6.44-21.54h1.59Z"/>
      </g>
      <g>
        <path d="M162.91,84.28c9.15,0,15.59,2.12,19.31,6.35l.36,3.18c0,1.88-1.74,10.58-5.2,26.1l.38,4.94-.38,2.12,1.11,.7h1.11l1.11-.7,.38,.35-2.23,11.64v1.41l.36,1.41c-1.24,4.7-2.48,7.17-3.71,7.41h-.38c-2.23,0-3.34-2.47-3.34-7.41-.49,0-.99-3.64-1.48-10.93-.75,0-1.11-2.94-1.11-8.82,0-7.76,1.48-16.58,4.45-26.46v-1.76c0-.47-2.72-1.06-8.17-1.77-2.48-2.82-3.71-4.94-3.71-6.35v-.35l1.11-1.06Zm55.33-6h.74v.35l-2.23,8.11v1.41l1.49,1.41h1.11l10.03-1.77,.74-2.11-1.11-2.47h.74c2.23,1.18,3.34,1.88,3.34,2.12v3.53c-.74,5.17-2.85,7.76-6.31,7.76-6.44,1.65-11.51,4.23-15.23,7.75l-.36,.36v3.88c0,3.53,1.35,5.29,4.08,5.29h2.97c1.23,0,2.84-1.17,4.83-3.53l3.33-1.06c1.74,0,3.97,1.53,6.69,4.59v.7c-1.48,2.59-3.34,3.88-5.57,3.88l-1.85,1.76v3.88l.38,6.35c-.75,8-2.85,11.99-6.31,11.99l-4.09,1.06-3.33-1.41v-.35c0-.47,1.35-1.29,4.08-2.47,1.23-.94,1.85-3.29,1.85-7.05v-5.29c0-3.99-.5-6.35-1.49-7.06l-3.71,.35h-1.11c-3.47,0-5.95-3.76-7.43-11.29l-.38-.35h-1.11c-10.9,3.3-17.57,6.35-20.05,9.17v-.7c0-4.23,3.21-9.17,9.66-14.81l15.59-8.82,5.21-11.29c1.23-2.58,2.84-3.88,4.82-3.88Zm-5.94,54.32v.35c-3.97,3.3-6.82,6-8.55,8.11l-3.71,1.41c-4.7-.93-7.05-2.23-7.05-3.88,0-2.12,2.35-3.53,7.05-4.24h4.82c1.24,0,3.72-.58,7.44-1.76Zm25.25-8.46c4.21,0,8.17,2.94,11.88,8.82-1.24,3.53-2.11,5.29-2.6,5.29l-9.66-3.53h-.36l-1.87,.36v-.36c1.98-1.88,2.98-3.4,2.98-4.58s-.62-2.7-1.87-4.59c.25-.94,.75-1.41,1.49-1.41Z"/>
        <path d="M293.69,73.34c.99,.48,1.48,.94,1.48,1.41l-5.57,14.46c-2.23,6.59-5.33,11.52-9.28,14.81v1.06c1.98,2.59,2.97,7.64,2.97,15.16v2.82l.38,2.12,.38,12.7c0,2.11-1,4.23-2.98,6.35h-1.11c-.99-3.29-1.98-8.58-2.97-15.87v-9.87c.49-1.41,.87-4.46,1.11-9.17l-1.11-.7h-.38c-6.18,5.64-10.02,8.46-11.51,8.46h-.74v-.7h-.38l15.97-27.16c2.48-4.94,6.19-9.76,11.15-14.46l2.6-1.41Zm27.85,2.47c.74,.23,1.23,1.06,1.48,2.47l-.74,4.94v.7l.74,1.06c4.7,.48,7.06,1.54,7.06,3.18,0,1.88-2.23,4.58-6.69,8.11l-1.49,4.23v1.06l.75,.36h3.34l2.22,.35v1.06c0,1.41-1.98,3.65-5.94,6.7v1.41c0,.94,3.72,4.59,11.15,10.93,.99,1.65,1.48,3.17,1.48,4.59,0,4.47-3.71,9.05-11.13,13.76l-.38-.35h-1.11c-1.98,1.18-5.2,2.35-9.66,3.53h-4.08c-2.23-.23-3.34-1.17-3.34-2.82v-.35c0-1.88,1.23-6.11,3.71-12.7,.49,0,1.49-1.17,2.98-3.53l1.85-.35c3.46,.94,5.2,2.47,5.2,4.58v.35c0,2.12-2.1,3.18-6.31,3.18l-.74,1.41v2.12l.74,.7h.74c6.93-2.82,11.64-6.35,14.11-10.58v-1.76c0-2.59-2.85-5.29-8.54-8.11-.25,0-1.98-1.64-5.2-4.94-3.23-.94-4.83-3.29-4.83-7.06,.75-1.41,2.36-3.4,4.83-6v-1.41h-.38c-6.68,2.82-10.52,4.23-11.51,4.23-1.24,.94-2.6,1.41-4.08,1.41h-.38c-.49,0-.87-.35-1.11-1.06,1.24-3.29,4.58-6.93,10.03-10.93,3.46-1.88,6.8-3.4,10.03-4.58l4.08-9.17,1.11-.7Z"/>
        <path d="M382.11,77.58c2.97,0,6.31,2.94,10.03,8.82,0,1.41,.25,2.12,.74,2.12h.74c6.19-1.88,10.9-2.82,14.11-2.82h1.11c6.44,0,10.9,3.65,13.37,10.93-1.74,7.29-3.85,10.93-6.31,10.93-3.72,3.29-9.29,4.93-16.72,4.93,0,.48-1.48,1.3-4.46,2.47-.49,.71-2.48,1.89-5.94,3.53l-1.11,2.11v1.06c.25,.7,1.98,1.65,5.2,2.82,4.21,3.3,6.31,7.05,6.31,11.29,0,2.82-1.61,5.88-4.82,9.17-5.2,3.53-8.92,5.29-11.15,5.29l-8.92-3.53h-3.34c-3.46,0-6.31-2.35-8.54-7.06,0-1.64,1.24-3.17,3.72-4.58h1.85c.75,0,2.48,1.76,5.2,5.29h2.6c1.23,0,2.35-.36,3.34-1.06h1.11v.7h.36c-.99,1.41-1.48,2.47-1.48,3.18v.35c0,1.41,1.23,2.11,3.71,2.11,4.21,0,7.18-3.05,8.92-9.17v-2.12c0-2.82-2.36-5.05-7.05-6.7-1.74-1.17-2.6-3.17-2.6-6,0-.94,1.49-2.47,4.46-4.59v-1.41c0-1.41-1.24-3.64-3.72-6.7v-1.06c.99-2.12,2.6-3.17,4.83-3.17,1.98,1.65,6.43,3.17,13.36,4.58,5.7,0,9.29-1.06,10.77-3.17,1.74-2.59,2.6-4.7,2.6-6.35v-2.12c0-2.59-2.48-4.35-7.43-5.29h-1.49c-1.48,0-6.07,1.3-13.74,3.88-1.49,0-8.54,2.46-21.16,7.4l-2.23,.35h-2.6l-1.48-1.41v-1.06c0-3.29,2.23-5.64,6.68-7.05,2.72-1.64,6.44-3.17,11.15-4.59v-2.12c-3.71-3.29-5.57-5.52-5.57-6.7,0-2.35,1.87-3.53,5.57-3.53Zm24.88,49.38c7.43,1.88,11.15,4,11.15,6.35,0,2.12-2.73,3.53-8.18,4.23-2.23,0-4.08-2.58-5.57-7.75,.25-1.88,1.11-2.82,2.6-2.82Z"/>
      </g>
      <g>
        <g>
          <path class="cls-1" d="M122.4,19.33c0-.94,.45-1.41,1.33-1.41,.19,0,.35,.03,.51,.09l.19,.06,.13,.09c.82-.38,1.44-.71,1.88-1,.39-.24,.58-.41,.58-.53,0-.12-.04-.21-.13-.27-.07-.04-.16-.06-.26-.06h-12.34c-.07,0-.14,0-.2-.03-.1-.02-.17-.05-.25-.09-.19-.1-.29-.28-.29-.56,0-.25,.09-.44,.26-.56,.07-.04,.16-.07,.25-.09,.07-.01,.14-.03,.23-.03h16.49c.85,0,1.28,.35,1.28,1.02,0,.35-.19,.64-.55,.85-.48,.27-1.23,.63-2.25,1.05-.46,.19-1.05,.43-1.79,.7l-2.32,.91v1.2h9.82c.07,0,.14,.01,.22,.03,.09,.02,.16,.05,.23,.09,.2,.09,.29,.28,.29,.56,0,.25-.09,.44-.26,.56-.07,.04-.14,.06-.23,.09-.07,.02-.16,.03-.25,.03h-9.82v3.02c0,1.21-.29,2.02-.84,2.43-.45,.32-1.26,.47-2.44,.47h-3.41c-.12-.01-.2-.05-.26-.09-.1-.04-.16-.11-.22-.2-.07-.1-.1-.22-.1-.38s.03-.28,.1-.38c.06-.09,.12-.17,.22-.2,.06-.04,.14-.07,.26-.09h2.58c.91,0,1.37-.51,1.37-1.52v-3.05h-10.28c-.07,0-.14,0-.2-.03-.09-.02-.17-.05-.25-.09-.19-.12-.29-.3-.29-.56s.09-.44,.27-.56c.06-.04,.14-.07,.23-.09,.07-.01,.14-.03,.23-.03h10.28v-1.37Zm-.19-15.49v-1.26c0-.61,.19-1.03,.58-1.29,.14-.07,.3-.14,.48-.17,.1-.02,.2-.03,.32-.03,.09,0,.19,0,.3,.03,.17,.04,.33,.11,.45,.2,.4,.26,.61,.68,.61,1.26v1.26h10c.07,0,.14,.01,.22,.03,.09,.02,.16,.05,.23,.09,.2,.12,.29,.3,.29,.56s-.09,.45-.29,.56c-.07,.04-.14,.06-.23,.09-.07,.01-.14,.03-.22,.03h-22.77c-.09,0-.17-.01-.25-.03-.09-.02-.16-.05-.23-.09-.17-.1-.26-.29-.26-.56s.09-.44,.26-.56c.13-.07,.27-.12,.48-.12h10.03Zm10.06,6.97c0,.86-.23,1.46-.71,1.81-.36,.3-.92,.44-1.67,.44h-12.63c-1.59,0-2.38-.75-2.38-2.25v-1.44c0-.86,.23-1.47,.68-1.82,.36-.29,.94-.44,1.7-.44h12.63c1.59,0,2.38,.76,2.38,2.26v1.44Zm-2.73-1.23c0-.76-.35-1.14-1.07-1.14h-9.8c-.74,0-1.1,.38-1.1,1.14v1.02c0,.74,.36,1.11,1.1,1.11h9.8c.72,0,1.07-.37,1.07-1.11v-1.02Z"/>
          <path class="cls-1" d="M151.74,11.43v-2.08c0-.94,.35-1.41,1.05-1.41s1.04,.43,1.04,1.28v2.2h1.44v-3.4c0-.45-.2-.67-.61-.67h-1.28c-1.08,0-1.62-.53-1.62-1.58V2.73c0-1.05,.4-1.58,1.23-1.58,.48,0,.81,.19,1,.58,.14,.27,.22,.66,.22,1.14h2.77c.07,0,.14,.01,.22,.03,.09,.02,.16,.05,.23,.09,.17,.09,.26,.27,.26,.53,0,.27-.09,.45-.26,.56-.07,.04-.14,.06-.23,.09-.07,.02-.14,.03-.22,.03h-2.77v1.23c0,.43,.19,.64,.58,.64h1.2c.46,0,.84,.11,1.13,.32,.38,.3,.55,.74,.55,1.35v3.69h3.81l.07-1.93h-2.18c-.22,0-.39-.08-.49-.23-.09-.12-.13-.26-.13-.41,0-.43,.19-.64,.58-.64h2.25l.07-1.76h-2.28c-.22,0-.39-.09-.49-.26-.09-.12-.13-.25-.13-.38,0-.43,.2-.64,.62-.64h2.31l.09-1.58c.01-.38-.13-.56-.45-.56h-2.28c-.09,0-.16-.01-.22-.03-.1,0-.17-.03-.23-.09-.17-.09-.26-.27-.26-.53s.09-.43,.29-.56c.04-.04,.12-.06,.2-.06,.07-.01,.14-.03,.22-.03h3.7c1.11,0,1.65,.54,1.6,1.61l-.38,8.08h1.83c.07,0,.14,0,.22,.03,.09,.01,.16,.05,.23,.09,.19,.12,.29,.29,.29,.53,0,.25-.09,.44-.26,.56-.13,.08-.29,.12-.48,.12h-4.95c.81,1.27,1.72,2.35,2.73,3.25,.38,.35,.82,.71,1.33,1.05l1.31,.88c.06,.02,.1,.05,.13,.09l.13,.12c.09,.1,.13,.24,.13,.41,0,.47-.19,.71-.59,.71-.46,0-1.59-.58-3.38-1.73-.13,.18-.32,.27-.58,.27h-15.16c-.13,0-.25-.02-.32-.06l-.14-.12c-.74,.47-1.46,.9-2.15,1.26-.33,.17-.62,.31-.84,.41-.27,.09-.45,.14-.53,.14-.38,0-.58-.22-.58-.67,0-.18,.04-.32,.13-.44l.25-.21c1.31-.86,2.38-1.68,3.22-2.48,.92-.88,1.72-1.83,2.35-2.87h-5.02c-.49,0-.74-.22-.74-.67,0-.25,.1-.44,.29-.56,.07-.04,.14-.06,.23-.06,.07-.02,.14-.03,.22-.03h1.83l-.29-7.17c-.03-.76,.12-1.28,.48-1.55,.13-.12,.33-.2,.59-.26,.16-.04,.45-.09,.85-.15,.36-.06,.81-.2,1.33-.44l1.05-.58s.03-.03,.04-.03c.38-.21,.65-.32,.84-.32,.82,0,1.24,.43,1.24,1.28,0,.43-.17,.73-.53,.91-.45,.23-1.39,.41-2.8,.53-.35,.02-.52,.22-.52,.61l.03,.91h2.74c.42,0,.64,.22,.64,.64s-.22,.64-.64,.64h-2.7l.09,1.76h2.61c.42,0,.64,.21,.64,.64s-.22,.64-.64,.64h-2.57l.09,1.93h4.09Zm10.7,14.49c0,1.1-.58,1.64-1.7,1.64h-12.59c-1.13,0-1.7-.54-1.7-1.64v-.76c0-.66,.09-1.11,.27-1.35,.23-.31,.72-.47,1.43-.47h12.59c1.13,0,1.7,.55,1.7,1.65v.93Zm-14.68-5.91c-.09-.02-.16-.05-.2-.09-.17-.1-.27-.27-.27-.5,0-.25,.1-.43,.27-.53,.06-.04,.14-.07,.23-.09h13.34c.09,.01,.16,.05,.22,.09,.17,.09,.26,.26,.26,.5,0,.27-.09,.45-.26,.53-.06,.04-.13,.06-.22,.09h-13.37Zm.19,2.22c-.07,0-.13,0-.19-.03-.09,0-.16-.01-.2-.06-.17-.12-.27-.29-.27-.53s.1-.41,.27-.53c.04-.04,.12-.06,.2-.06,.07-.02,.13-.03,.19-.03h13.18c.09,.02,.16,.05,.22,.09,.17,.1,.26,.27,.26,.53s-.09,.43-.26,.53c-.06,.04-.13,.07-.22,.09h-13.18Zm1.93-6.73c-.16,0-.27-.01-.33-.06-.07-.01-.13-.06-.19-.12-.23,.22-.48,.42-.74,.61l-.77,.65h13.4l-1.57-1.29c-.04,.08-.12,.13-.19,.14-.06,.04-.17,.06-.33,.06h-9.28Zm9.86,9.69c0-.41-.29-.61-.84-.61h-8.92c-.53,0-.81,.2-.81,.61v.56c0,.41,.27,.61,.81,.61h8.92c.55,0,.84-.2,.84-.61v-.56Zm-8.03-12.44c-.36,.53-.79,1.05-1.3,1.55h8.23c-.33-.31-.62-.62-.87-.94l-.45-.61h-5.62Z"/>
          <path class="cls-1" d="M196.62,24.19c0,2.07-1,3.1-2.99,3.1h-16.41c-1.17,0-1.98-.32-2.45-.97-.35-.49-.52-1.2-.52-2.14V5.19c0-2.07,1-3.1,2.97-3.1h16.41c1.17,0,1.99,.32,2.47,.97,.35,.48,.52,1.2,.52,2.14V24.19Zm-2.73-19.24c0-1.03-.45-1.55-1.36-1.55h-14.21c-.91,0-1.37,.52-1.37,1.55V24.42c0,1.02,.46,1.52,1.37,1.52h14.21c.91,0,1.36-.51,1.36-1.52V4.95Zm-8.99,13.76c.39,0,.58,.21,.58,.64,0,.23-.06,.41-.2,.53l-.35,.17c-.49,.16-1.13,.35-1.91,.56-.64,.18-1.34,.36-2.12,.56-.64,.16-1.23,.3-1.79,.41l-.75,.17c-.65,0-.98-.39-.98-1.17,0-.45,.14-.76,.42-.94,.12-.06,.23-.1,.38-.14l.32-.03c.87-.04,1.85-.13,2.93-.26l1.54-.21,1.76-.29h.17Zm-6.44-9.64c-.07,0-.14,0-.22-.03-.09-.02-.16-.05-.23-.09-.19-.12-.29-.3-.29-.56s.1-.44,.29-.56c.07-.04,.14-.07,.23-.09,.07-.02,.14-.03,.22-.03h7.42c-.03-.3-.03-.74-.03-1.32v-.73c0-.24,0-.38,.03-.44,.13-.64,.55-.97,1.23-.97,.85,0,1.28,.5,1.28,1.49v1.96h4.06c.07,0,.14,0,.22,.03,.09,.01,.16,.04,.23,.09,.19,.12,.29,.3,.29,.56,0,.27-.1,.45-.29,.56-.07,.04-.14,.06-.23,.09-.07,.02-.14,.03-.22,.03h-4.03v.64c.01,.26,.03,.5,.04,.74,.04,.56,.09,1.12,.13,1.67,.07,.69,.16,1.36,.25,2.05,.12,.76,.26,1.54,.42,2.34,.42-.95,.87-2.2,1.33-3.75,.12-.33,.22-.56,.35-.7,.19-.22,.49-.32,.9-.32,.94,0,1.41,.45,1.41,1.35,0,1.34-1.08,3.49-3.23,6.41l.12,.3c.03,.12,.07,.22,.13,.32,.09,.27,.17,.51,.29,.71,.26,.53,.49,.79,.68,.79,.3,0,.52-.4,.65-1.2,.12-.55,.39-.82,.84-.82,.71,0,1.05,.33,1.05,1,0,.08-.06,.3-.16,.67-.14,.49-.3,.94-.49,1.35-.27,.56-.56,1.02-.9,1.35-.39,.39-.81,.58-1.26,.58-1,0-1.92-.97-2.79-2.93-.91,.9-1.88,1.72-2.9,2.46-.95,.7-1.54,1.05-1.8,1.05-.4,0-.61-.22-.61-.67,0-.24,.12-.44,.36-.62,1.65-1.15,3.07-2.56,4.27-4.24-.27-1-.53-2.05-.77-3.16-.17-.94-.32-1.91-.43-2.92-.12-.82-.2-1.66-.27-2.52l-.1-1.91h-7.46Zm6.63,6.5c0,1.13-.61,1.7-1.8,1.7h-2.8c-1.23,0-1.83-.57-1.83-1.7v-2.76c0-1.13,.61-1.7,1.83-1.7h2.8c1.2,0,1.8,.57,1.8,1.7v2.76Zm-1.99-2.2c0-.62-.27-.93-.84-.93h-.77c-.55,0-.84,.31-.84,.93v1.65c0,.62,.29,.93,.84,.93h.77c.56,0,.84-.31,.84-.93v-1.65Zm7.32-6.88c-.04-.07-.1-.17-.19-.29l-.74-1.11c-.06-.06-.07-.18-.07-.35,0-.45,.2-.67,.59-.67,.09,0,.22,.04,.38,.12l.49,.29,.9,.65c.61,.45,.92,.87,.92,1.28,0,.82-.38,1.23-1.13,1.23-.36,0-.74-.38-1.15-1.14Z"/>
          <path class="cls-1" d="M207.45,26.47c0,.1,0,.19-.01,.3-.03,.23-.07,.44-.13,.61-.2,.51-.58,.77-1.13,.77s-.95-.25-1.15-.74c-.07-.17-.12-.39-.13-.64-.03-.08-.03-.17-.03-.3V4.37c0-1.54,.79-2.31,2.38-2.31h3.93c1.07,0,1.6,.51,1.6,1.52,0,.09-.01,.22-.06,.38-.01,.14-.04,.25-.07,.32l-2.79,6.94c-.04,.14-.07,.24-.07,.3,0,.04,.01,.08,.03,.12,.01,.06,.07,.14,.16,.27,.35,.53,.66,1.01,.94,1.46,.35,.63,.65,1.24,.9,1.85,.29,.7,.52,1.41,.68,2.11,.17,.82,.26,1.63,.26,2.43s-.12,1.53-.33,2.08c-.2,.46-.48,.82-.85,1.08-.27,.19-.59,.32-.97,.38l-.45,.06h-1.72c-.07,0-.14,0-.22-.03-.09,0-.16-.03-.23-.09-.2-.09-.29-.27-.29-.53,0-.27,.09-.45,.29-.56,.07-.04,.14-.06,.23-.09,.07-.02,.14-.03,.22-.03h.65c.78,0,1.18-.86,1.18-2.58,0-1.52-.25-2.94-.71-4.24-.2-.51-.43-1.02-.71-1.55l-.71-1.26c-.2-.33-.29-.62-.29-.85,0-.06,.03-.24,.1-.53l2.02-7.15c0-.31-.17-.47-.51-.47h-.94c-.72,0-1.08,.41-1.08,1.23V26.47Zm3.97-.09c0-.22,.13-.44,.39-.67,.77-.74,1.46-1.63,2.09-2.66,.22-.37,.42-.77,.64-1.2l.42-.91c.26-.57,.64-.85,1.15-.85,1.01,0,1.52,.47,1.52,1.41,0,.35-.26,.85-.77,1.49-.43,.56-1.02,1.18-1.75,1.84-.65,.61-1.28,1.13-1.89,1.55-.62,.45-1.01,.68-1.21,.68-.39,0-.59-.23-.59-.68Zm8.1-23.1c.29,0,.56,.09,.81,.27-.09-.41-.13-.71-.13-.91,0-.92,.46-1.38,1.41-1.38,.74,0,1.18,.36,1.33,1.08,.03,.04,.04,.13,.06,.27l.1,1.05c.13-.25,.35-.38,.66-.38h2.93c1.01,0,1.52,.39,1.52,1.17,0,.41-.42,1.19-1.28,2.35-.33,.43-.71,.9-1.13,1.41l-1.02,1.17c.56,1.08,1.17,1.98,1.82,2.72,.25,.3,.52,.58,.84,.88l1.02,.96c.06,.12,.1,.25,.1,.38,0,.43-.22,.64-.64,.64-.09,0-.22-.06-.42-.17-.19-.12-.42-.27-.71-.47-.55-.39-1.08-.83-1.59-1.31-.71-.69-1.34-1.43-1.92-2.23-.48-.7-.9-1.44-1.28-2.22-.32-.62-.59-1.28-.84-1.99-.1-.27-.2-.56-.29-.84l-.22-.71c-.42,1.37-1.05,2.74-1.93,4.1-.74,1.11-1.59,2.18-2.57,3.19-1.82,1.9-3.02,2.84-3.59,2.84-.38,0-.56-.22-.56-.68,0-.23,.13-.45,.39-.67,.51-.41,.98-.84,1.41-1.31l.78-.88s.03,0,.03-.03l.06-.06c-.25-.08-.55-.46-.9-1.14l-.45-.74c-.1-.17-.19-.32-.23-.44-.07-.15-.1-.26-.1-.32-.45,.47-.75,.7-.92,.7-.4,0-.61-.22-.61-.67,0-.06,.04-.19,.13-.38,.07-.14,.17-.31,.32-.53l.58-.91c.48-.87,.84-1.67,1.1-2.37,.2-.53,.42-1.32,.68-2.37l.12-.38c.07-.16,.13-.29,.2-.38,.22-.27,.53-.41,.97-.41,.98,0,1.47,.45,1.47,1.35,0,.15-.07,.4-.2,.76h2.7Zm2.51,22.25c0,.79-.14,1.37-.45,1.73-.35,.45-.98,.67-1.89,.67h-3.03c-.09-.02-.17-.05-.26-.09-.1-.04-.16-.11-.22-.2-.07-.1-.1-.22-.1-.38s.03-.28,.1-.38c.06-.09,.12-.17,.22-.2,.06-.04,.14-.07,.26-.09h1.46c.72,0,1.08-.41,1.08-1.23v-6.79h-5.2c-.07,0-.13,0-.2-.03-.09,0-.17-.03-.25-.09-.19-.09-.29-.27-.29-.53,0-.27,.1-.45,.29-.56,.07-.04,.16-.06,.25-.09,.07-.02,.13-.03,.2-.03h13.61c.06,0,.13,0,.2,.03,.09,.02,.17,.05,.23,.09,.2,.1,.29,.28,.29,.56,0,.25-.09,.43-.29,.53-.06,.06-.14,.09-.23,.09-.07,.02-.14,.03-.2,.03h-5.59v6.97Zm-5.95-16.1c.13-.24,.29-.52,.45-.85-.12,0-.25-.04-.4-.14-.03-.02-.09-.08-.16-.17l-.88-1.35c-.1-.16-.17-.27-.19-.35-.33,.49-.78,1.07-1.36,1.73,.2,0,.59,.22,1.17,.67,.56,.41,.91,.73,1.05,.97l.32-.5Zm.03-4.8c-.1,.19-.33,.61-.74,1.26,.09-.02,.2,.01,.36,.09,.16,.06,.35,.14,.55,.24,.42,.23,.75,.45,.97,.67,.19-.49,.32-.94,.42-1.35,.1-.31,.14-.49,.14-.56,0-.07-.03-.14-.09-.2-.07-.09-.17-.14-.32-.14h-1.3Zm.42,9.63c-.07,0-.16,0-.25-.03s-.16-.05-.23-.09c-.17-.1-.26-.27-.26-.53,0-.27,.09-.47,.29-.58,.07-.04,.14-.07,.23-.09,.07-.02,.14-.03,.22-.03h7.81c.06,0,.13,0,.2,.03,.09,.01,.17,.04,.23,.09,.2,.12,.29,.3,.29,.56,0,.27-.09,.45-.29,.56-.06,.04-.14,.06-.23,.09-.07,.02-.14,.03-.2,.03h-7.81Zm7.23-9.63c-.17,0-.3-.02-.38-.06-.07-.02-.13-.06-.17-.12,.19,1.08,.48,2.16,.85,3.26,.43-.72,.77-1.37,1.02-1.93,.2-.41,.29-.66,.29-.73,0-.27-.16-.41-.46-.41h-1.15Zm3.09,22.02c-.56,0-.98-.42-1.28-1.26-.27-.78-.58-1.5-.9-2.17l-1.07-1.96c-.1-.15-.16-.31-.16-.46,0-.45,.2-.68,.61-.68,.06,0,.16,.04,.29,.12,.12,.08,.26,.19,.42,.32l.78,.7,.94,.94c.38,.38,.68,.71,.92,1.02,.65,.77,.97,1.36,.97,1.79,0,1.09-.51,1.64-1.52,1.64Z"/>
          <path class="cls-1" d="M258.7,26.12c.07,0,.14,0,.22,.03,.09,.01,.16,.04,.23,.09,.2,.09,.29,.28,.29,.56,0,.25-.09,.43-.29,.53-.07,.06-.14,.09-.23,.09-.07,.02-.14,.03-.22,.03h-12.03c-1.5,0-2.82-.17-3.93-.53-1.33-.39-2.43-1.02-3.31-1.9-.43,.46-.9,.9-1.36,1.31-.4,.33-.79,.64-1.18,.91-.32,.22-.61,.39-.87,.53-.23,.12-.39,.17-.48,.17-.38,0-.58-.22-.58-.67,0-.22,.14-.43,.4-.64l.23-.18c.1-.06,.2-.12,.29-.2l.71-.58c.64-.58,1.2-1.26,1.7-2.02-.48-.7-.89-1.47-1.26-2.28-.3-.71-.55-1.43-.77-2.17-.17-.6-.32-1.18-.42-1.75-.07-.45-.1-.78-.1-1,0-.51,.16-.9,.49-1.17,.25-.17,.53-.27,.85-.27,.51-.01,.87,.16,1.1,.53,.09,.13,.14,.29,.17,.46l.09,.41c.14,1.19,.26,2.02,.36,2.49,.14,.64,.38,1.39,.71,2.25,.2-.61,.36-1.31,.51-2.14,.12-.66,.23-1.41,.32-2.22,.04-.61,.09-1.23,.13-1.88l.03-1.08c0-.33-.07-.54-.22-.64-.06-.04-.12-.06-.22-.09h-2.17c-.56,0-.97-.17-1.21-.5-.09-.12-.14-.25-.17-.41-.04-.12-.06-.22-.06-.32,0-.22,.12-.57,.35-1.05l2.99-6.33c.12-.27,.17-.43,.17-.5,0-.15-.06-.27-.17-.35l-.16-.06h-3.65c-.09,0-.16-.01-.23-.03-.09-.02-.17-.05-.23-.09-.19-.09-.27-.27-.27-.53s.09-.45,.27-.56c.06-.04,.14-.06,.23-.09,.07-.01,.14-.03,.23-.03h5.51c1.01,0,1.52,.4,1.52,1.2,0,.22-.13,.6-.38,1.15l-3,6.61s-.03,.09-.03,.15c0,.15,.06,.26,.19,.32l.14,.06h1.27c1.27,0,1.91,.61,1.91,1.85,0,1.66-.2,3.33-.61,5.03-.43,1.86-1.04,3.41-1.8,4.66,.26,.35,.55,.66,.84,.94,.39,.35,.81,.66,1.28,.91,.58,.31,1.21,.55,1.92,.7,.79,.19,1.69,.3,2.67,.3h11.26Zm-6.6-9.58h4.79c.07,0,.14,.01,.22,.04,.09,.01,.16,.04,.23,.09,.19,.12,.29,.3,.29,.56,0,.27-.1,.45-.29,.56-.07,.04-.14,.06-.23,.09-.07,.02-.14,.03-.22,.03h-4.79v2.75h6.08c.07,0,.14,.01,.22,.03,.09,.02,.16,.05,.23,.09,.19,.09,.29,.28,.29,.56s-.1,.45-.29,.56c-.07,.04-.14,.06-.23,.09-.07,.02-.14,.03-.22,.03h-6.08v1.58c0,.48-.07,.88-.23,1.17-.22,.41-.59,.61-1.13,.61-.9,0-1.34-.59-1.34-1.78v-1.58h-5.56c-.09,0-.16,0-.23-.03-.09-.02-.17-.05-.25-.09-.17-.12-.26-.3-.26-.56,0-.27,.1-.46,.29-.56,.07-.04,.14-.07,.25-.09,.06-.01,.13-.03,.2-.03h5.56v-2.75h-4.4c-.07,0-.14,0-.22-.03-.09-.02-.16-.05-.23-.09-.19-.1-.29-.28-.29-.56,0-.25,.1-.44,.29-.56,.07-.04,.14-.07,.23-.09,.07-.02,.14-.04,.22-.04h4.4v-2.66h-4.53c-.07,0-.14,0-.22-.03-.09-.01-.16-.04-.23-.09-.19-.12-.29-.3-.29-.56,0-.27,.1-.45,.29-.56,.07-.04,.14-.06,.23-.09,.07-.02,.14-.03,.22-.03h4.53v-3.16h-5.98c-.07,0-.14-.01-.2-.03-.1-.02-.17-.05-.25-.09-.19-.12-.29-.3-.29-.56-.01-.27,.07-.45,.26-.56,.07-.04,.16-.06,.27-.09,.06-.01,.13-.03,.2-.03h5.98v-3.02h-4.43c-.07,0-.14,0-.2-.03-.09-.01-.17-.04-.25-.09-.19-.09-.29-.28-.29-.56s.1-.45,.29-.56c.07-.04,.16-.06,.25-.09,.06-.02,.13-.03,.2-.03h4.43v-.74c0-.48,.07-.87,.23-1.17,.22-.41,.58-.61,1.11-.61,.51,0,.87,.19,1.1,.58,.17,.3,.26,.69,.26,1.2v.74h3.15c1.59,0,2.38,.77,2.38,2.31v2.05h1.02c.07,0,.13,.01,.2,.03,.09,.02,.17,.05,.25,.09,.19,.1,.29,.29,.29,.56s-.1,.46-.29,.56c-.07,.04-.16,.06-.25,.09-.07,.01-.13,.03-.2,.03h-1.02v2.19c0,1.54-.79,2.31-2.38,2.31h-3.15v2.66Zm0-8.52h2.89v-1.81c0-.8-.36-1.21-1.08-1.21h-1.8v3.02Zm0,4.51h1.8c.72,0,1.08-.4,1.08-1.2v-1.96h-2.89v3.16Z"/>
          <path class="cls-1" d="M271.11,5.05c-.79,.97-1.7,1.92-2.76,2.84-1.01,.9-1.66,1.34-1.96,1.34-.4,0-.61-.22-.61-.67,0-.09,.04-.2,.12-.32,.03-.08,.09-.18,.17-.3,.9-1.03,1.59-1.99,2.08-2.87,.2-.38,.42-.8,.62-1.29,.14-.31,.35-.8,.61-1.47,.3-.72,.74-1.08,1.31-1.08,1.15,0,1.73,.48,1.73,1.44,0,.17-.04,.36-.13,.56-.03,.1-.06,.19-.12,.27l-.1,.2h4.98c.07,0,.14,0,.22,.03,.09,.02,.16,.05,.23,.09,.19,.12,.29,.3,.29,.56,0,.27-.1,.46-.29,.56-.07,.04-.14,.07-.23,.09-.07,.02-.14,.04-.22,.04h-3.51l.33,.32,.45,.5c.35,.45,.53,.83,.53,1.14,0,.84-.43,1.26-1.28,1.26-.52,0-.87-.25-1.05-.74l-.81-2.48h-.61Zm10.29,14.4c.23,.41,.52,.83,.87,1.26,.45,.55,.95,1.08,1.53,1.58,.66,.63,1.4,1.21,2.22,1.73,.95,.61,1.99,1.15,3.09,1.64,.33,.14,.51,.36,.51,.67,0,.45-.2,.67-.61,.67-.17,0-.59-.12-1.23-.38-.78-.3-1.57-.66-2.41-1.08-1.07-.57-2.06-1.18-2.97-1.85-1.1-.8-2.04-1.65-2.8-2.55v5.12c0,.55-.07,.97-.23,1.26-.23,.43-.62,.65-1.15,.65-.58,0-.97-.27-1.18-.79-.09-.17-.13-.39-.16-.64-.01-.08-.01-.17-.01-.27v-5.27l-.69,.74c-.3,.33-.64,.64-.97,.94-.42,.37-.85,.72-1.31,1.05-.52,.39-1.07,.74-1.65,1.05-1.1,.62-2.18,1.15-3.22,1.58-.88,.35-1.43,.53-1.66,.53-.36,0-.55-.23-.55-.68,0-.29,.17-.51,.51-.64l.68-.32c.29-.13,.58-.28,.87-.43,.71-.38,1.39-.79,2.02-1.23,.79-.56,1.52-1.17,2.17-1.81,.78-.78,1.44-1.62,2.02-2.52h-8.16c-.06,0-.13,0-.2-.03-.09,0-.17-.02-.23-.06-.2-.12-.29-.31-.29-.58s.09-.46,.29-.56c.06-.04,.14-.07,.23-.09,.07-.01,.14-.03,.2-.03h9.95v-.32c0-.14,0-.27,.01-.38,.03-.27,.07-.5,.16-.67,.2-.51,.59-.77,1.21-.77s1,.26,1.2,.77c.07,.19,.12,.43,.13,.7,.03,.1,.03,.22,.03,.35v.32h9.9c.07,0,.14,.01,.22,.03,.09,.02,.16,.05,.23,.09,.2,.12,.29,.3,.29,.56,0,.27-.09,.45-.29,.56-.07,.04-.14,.06-.23,.09-.07,.02-.14,.03-.22,.03h-8.1Zm-8.33-9.37v4.16l2.25-.32c.4,0,.61,.22,.61,.65,0,.33-.16,.56-.48,.67-.51,.17-1.76,.51-3.77,1-1.04,.25-1.91,.45-2.63,.58-.85,.17-1.43,.26-1.73,.26s-.52-.13-.71-.4c-.13-.22-.2-.46-.2-.74,0-.6,.25-.95,.74-1.02,.07-.01,.27-.04,.61-.06l.49-.06c.07-.02,.16-.03,.26-.03l.58-.06c.1,0,.19,0,.26-.03l.51-.06c.33-.02,.53-.04,.61-.06v-4.48h-2.27c-.06,0-.13,0-.17-.03-.12-.02-.2-.05-.26-.09-.2-.1-.29-.28-.29-.56s.09-.46,.29-.56c.06-.04,.14-.07,.23-.09,.07-.02,.14-.03,.2-.03h7.38c.09,.01,.16,.04,.23,.09,.19,.12,.29,.31,.29,.58s-.1,.45-.29,.56c-.07,.04-.14,.06-.23,.09-.07,.02-.14,.03-.22,.03h-2.28Zm13.11,6.29c-1.43,0-2.15-.68-2.15-2.05v-3.05c0-.79-.36-1.2-1.07-1.2h-1.18c-.51,0-.81,.3-.9,.88-.16,1.03-.46,1.94-.91,2.72-.38,.63-.82,1.15-1.37,1.58-.4,.33-.82,.58-1.26,.76-.14,.08-.27,.14-.39,.18l-.19,.03c-.4,0-.61-.22-.61-.67,0-.26,.16-.49,.45-.71,1.04-.76,1.59-2.26,1.66-4.5,.01-.65,.23-1.1,.65-1.35,.16-.09,.35-.17,.58-.2l.32-.06h4.35c1.59,0,2.38,.77,2.38,2.31v3.28c0,.49,.3,.74,.92,.74,.25,0,.42-.12,.52-.35,.1-.24,.22-.77,.35-1.61v-.14c.01-.06,.03-.12,.04-.18,.04-.14,.09-.25,.13-.32,.16-.25,.42-.38,.77-.38,.1,0,.22,.02,.35,.06,.12,.04,.23,.1,.33,.17,.26,.19,.39,.47,.39,.82,0,.74-.19,1.5-.59,2.28-.36,.65-.91,.97-1.66,.97h-1.91Zm3.31-12.67c.06,0,.13,0,.2,.03,.09,.02,.17,.05,.23,.09,.2,.12,.29,.3,.29,.56,0,.27-.09,.46-.29,.56-.06,.04-.14,.07-.23,.09-.07,.02-.14,.04-.2,.04h-4.65c.84,.72,1.26,1.32,1.26,1.81,0,.92-.45,1.38-1.36,1.38-.59,0-.97-.27-1.13-.82-.39-1.21-.66-2-.84-2.37h-1.53c-.79,1.05-1.62,1.96-2.45,2.72-.74,.66-1.21,1-1.44,1-.39,0-.58-.22-.58-.68,0-.15,.1-.37,.29-.64,.69-1,1.23-1.92,1.6-2.78,.16-.35,.3-.74,.45-1.14l.42-1.35c.01-.08,.04-.14,.07-.2,.06-.16,.13-.3,.22-.41,.22-.3,.56-.44,1.01-.44,1.14,0,1.7,.48,1.7,1.44,0,.22-.04,.43-.13,.64-.03,.1-.07,.19-.13,.26l-.13,.24h7.35Zm-7.8,8.46l.38,.12,.61,.3c.72,.37,1.1,.79,1.1,1.26,0,.86-.36,1.29-1.08,1.29-.26,0-.66-.39-1.2-1.18-.29-.4-.46-.68-.52-.82-.1-.14-.14-.25-.14-.35,0-.45,.2-.67,.58-.67,.07,0,.17,.02,.29,.06Z"/>
          <path class="cls-1" d="M307.63,2.67c0-.12,0-.22,.01-.3,.03-.23,.07-.43,.16-.61,.22-.47,.64-.7,1.26-.7s1.08,.23,1.31,.7c.09,.18,.14,.38,.16,.61,.01,.08,.03,.18,.03,.3v6.85h9.86c.06,0,.13,0,.2,.03,.09,.02,.17,.05,.23,.09,.17,.12,.27,.3,.27,.56,0,.27-.1,.46-.27,.56-.06,.04-.14,.07-.23,.09-.07,.01-.14,.03-.2,.03h-9.79c.3,3.45,1.3,6.53,2.99,9.22,1.73,2.77,4.01,4.89,6.84,6.35,.46,.24,.68,.5,.68,.79,0,.45-.19,.67-.58,.67-.04,0-.2-.05-.46-.14-.3-.1-.64-.24-1-.41-.48-.23-.95-.49-1.44-.76-.58-.35-1.14-.74-1.7-1.15-.65-.46-1.26-.96-1.83-1.49-.66-.61-1.28-1.25-1.83-1.93-1.33-1.6-2.38-3.36-3.15-5.27-.91,2.01-1.89,3.69-2.96,5.03-1.24,1.58-2.79,2.98-4.65,4.19-.77,.51-1.56,.97-2.38,1.38-.78,.39-1.27,.58-1.46,.58-.4,0-.61-.22-.61-.67,0-.17,.06-.33,.19-.47l.81-.5c.17-.1,.35-.2,.52-.32,.43-.27,.85-.56,1.26-.84,.53-.38,1.04-.77,1.53-1.2,.55-.51,1.08-1.05,1.56-1.65,.56-.64,1.07-1.32,1.53-2.05,.52-.82,.98-1.67,1.36-2.57,.9-2.05,1.46-4.32,1.67-6.79h-9.64c-.09,0-.16-.01-.23-.03-.09-.02-.17-.05-.23-.09-.19-.12-.27-.3-.27-.56s.1-.43,.29-.56c.07-.04,.16-.06,.25-.09,.07-.02,.13-.03,.2-.03h9.73c.01-.22,.03-.69,.03-1.44V2.67Z"/>
          <path class="cls-1" d="M328.93,6.68c0-.65,.12-1.15,.32-1.49,.33-.51,.92-.77,1.79-.79,.2-.43,.4-.9,.59-1.4,.07-.16,.14-.33,.22-.53l.1-.32c.27-.8,.71-1.2,1.26-1.2,.97,0,1.44,.44,1.44,1.31,0,.45-.45,1.15-1.36,2.11h1.96c1.59,0,2.38,.77,2.38,2.32v4.42c0,1.54-.79,2.31-2.38,2.31h-3.67v3.4h3.9c1.57,0,2.37,.77,2.37,2.31v5.8c0,1.54-.79,2.32-2.37,2.32h-4.16c-1.6,0-2.4-.77-2.4-2.32V6.68Zm2.66,5.41h2.41c.71,0,1.07-.41,1.07-1.23v-3.93c0-.82-.36-1.23-1.07-1.23h-1.31c-.74,0-1.1,.41-1.1,1.23v5.15Zm0,6.06v6.53c0,.8,.36,1.2,1.1,1.2h1.41c.74,0,1.1-.4,1.1-1.2v-5.3c0-.82-.36-1.23-1.1-1.23h-2.51Zm15.17-9.52h2.04c1.73,0,2.6,.86,2.6,2.58v10.95c0,1.74-.87,2.61-2.6,2.61h-1.17c-.45,0-.66-.22-.66-.64,0-.45,.33-.67,.98-.67,.71,0,1.07-.41,1.07-1.23V11.22c0-.84-.38-1.26-1.13-1.26h-1.18V26.35c0,.49-.07,.88-.23,1.17-.23,.39-.59,.59-1.1,.59-.9,0-1.34-.59-1.34-1.76V9.96h-1.15c-.75,0-1.13,.42-1.13,1.26v12.44c0,.45-.07,.8-.2,1.05-.2,.35-.52,.53-.98,.53-.78,0-1.17-.53-1.17-1.58V11.22c0-1.72,.85-2.58,2.57-2.58h2.01V4.02h-4.71c-.09,0-.17-.01-.25-.04-.09-.01-.16-.04-.23-.09-.17-.12-.26-.3-.26-.56,0-.27,.09-.45,.29-.56,.07-.04,.14-.06,.23-.09,.07-.02,.14-.03,.22-.03h12.16c.09,0,.16,0,.23,.03,.09,.02,.17,.05,.25,.09,.17,.12,.26,.3,.26,.56s-.09,.44-.26,.56c-.07,.04-.16,.07-.25,.09-.07,.02-.14,.04-.23,.04h-4.66v4.62Z"/>
        </g>
        <g>
          <path class="cls-1" d="M390.2,25.41c0,.1-.01,.19-.03,.3-.01,.23-.06,.44-.13,.61-.19,.49-.56,.74-1.1,.74s-.91-.25-1.1-.74c-.07-.17-.12-.38-.13-.61-.03-.1-.03-.19-.03-.3V3.25c0-1.54,.79-2.31,2.38-2.31h4.01c1.13,0,1.7,.51,1.7,1.52,0,.23-.06,.51-.19,.82l-2.86,7.17c-.03,.08-.04,.16-.04,.23,0,.06,.06,.19,.2,.41l.97,1.55c.33,.58,.61,1.14,.82,1.67,.53,1.33,.81,2.69,.81,4.07,0,.66-.07,1.27-.22,1.82-.2,.79-.55,1.42-1.04,1.87-.38,.33-.92,.5-1.66,.5h-1.39c-.09,0-.16,0-.23-.03-.09-.02-.17-.05-.25-.09-.17-.12-.26-.3-.26-.56,0-.45,.39-.68,1.15-.68,.91,0,1.37-1.02,1.37-3.07,0-1.23-.17-2.33-.51-3.31-.14-.43-.35-.95-.64-1.55l-.88-1.78s-.03-.04-.03-.06c-.17-.31-.26-.58-.26-.79,0-.07,.01-.17,.04-.29,0-.04,.01-.08,.03-.12l2.15-7.26c.04-.12,.06-.21,.06-.27l-.06-.26c-.09-.14-.23-.21-.42-.21h-1.18c-.72,0-1.1,.41-1.1,1.23V25.41Zm15.46-8.13c.48,1.39,1.27,2.8,2.38,4.24,.98,1.31,1.98,2.32,2.97,3.05l.13,.09,.1,.14c.09,.1,.13,.24,.13,.41,0,.45-.19,.67-.58,.67-.36,0-1.21-.56-2.54-1.67-.72-.58-1.37-1.21-1.96-1.87-.74-.8-1.34-1.6-1.83-2.4v5.47c0,.1-.01,.19-.03,.3-.01,.23-.06,.44-.13,.61-.22,.49-.61,.74-1.18,.74s-.97-.26-1.18-.77c-.06-.17-.1-.38-.13-.61-.01-.08-.01-.17-.01-.27v-5.18c-.66,.93-1.44,1.83-2.34,2.69-.75,.7-1.54,1.36-2.38,1.96-.66,.47-1.3,.87-1.92,1.21-.49,.27-.79,.41-.91,.41-.39,0-.58-.23-.58-.68,0-.25,.16-.48,.46-.7,1.6-1.13,3-2.46,4.23-3.98,1.08-1.34,1.86-2.63,2.35-3.86h-2.02c-1.73,0-2.58-.88-2.58-2.63v-5.12c0-1.74,.85-2.61,2.58-2.61h3.1v-2.66h-5.38c-.06,0-.13,0-.2-.03-.09-.02-.17-.05-.25-.09-.19-.1-.27-.28-.27-.56,0-.25,.09-.44,.26-.56,.07-.04,.14-.07,.23-.09,.07-.02,.14-.04,.23-.04h5.38V1.67c0-.09,0-.19,.01-.29,.03-.24,.07-.45,.13-.65,.22-.48,.61-.73,1.18-.73s.97,.25,1.18,.73c.07,.18,.12,.39,.13,.65,.01,.07,.03,.17,.03,.29v1.23h5.89c.09,0,.17,.01,.25,.04,.09,.01,.16,.04,.23,.09,.17,.12,.26,.3,.26,.56s-.09,.44-.26,.56c-.07,.04-.14,.06-.23,.09-.07,.02-.16,.03-.25,.03h-5.89v2.66h3.09c1.73,0,2.6,.87,2.6,2.61v5.12c0,1.75-.87,2.63-2.6,2.63h-1.89Zm-3.87-9.04h-1.95c-.75,0-1.13,.43-1.13,1.28v1.88h3.07v-3.16Zm0,4.5h-3.07v1.93c0,.84,.38,1.26,1.13,1.26h1.95v-3.19Zm2.67-1.34h3.15v-1.88c0-.86-.38-1.28-1.14-1.28h-2.01v3.16Zm0,4.53h2.01c.77,0,1.14-.42,1.14-1.26v-1.93h-3.15v3.19Z"/>
          <path class="cls-1" d="M423.48,25.38c0,.1,0,.19-.01,.3-.03,.25-.07,.47-.13,.64-.22,.49-.61,.74-1.15,.74-.58,0-.97-.25-1.15-.74-.09-.17-.14-.38-.16-.61-.01-.1-.03-.2-.03-.32V10.68c-.45,.74-.91,1.41-1.39,2.02-.64,.84-1.07,1.26-1.31,1.26-.38,0-.58-.22-.58-.65,0-.06,.06-.22,.19-.5l1.1-2.31c.07-.12,.12-.2,.13-.26,.25-.55,.48-1.09,.68-1.62,.29-.68,.53-1.35,.77-2.01,.27-.82,.53-1.62,.77-2.4,.25-.9,.45-1.78,.59-2.63l.12-.47c.04-.19,.12-.37,.2-.53,.25-.37,.62-.56,1.11-.56,1.13,0,1.7,.52,1.7,1.55,0,.31-.16,.9-.48,1.75-.26,.74-.58,1.52-.95,2.32V25.38Zm11.85-6.29c0-.09,.01-.19,.03-.29,.01-.24,.06-.44,.13-.61,.2-.49,.61-.74,1.18-.74s.97,.25,1.17,.74c.07,.17,.12,.38,.13,.61,.03,.09,.03,.19,.03,.29v.79h3.18c.07,0,.14,0,.2,.03,.09,.02,.17,.05,.25,.09,.19,.12,.29,.3,.29,.56,0,.27-.1,.46-.29,.56-.07,.04-.16,.07-.25,.09-.06,.02-.13,.03-.2,.03h-3.18v3.31c0,1.54-.78,2.31-2.35,2.31h-3.2c-.06,0-.13,0-.2-.03-.09-.02-.17-.05-.23-.09-.2-.1-.29-.28-.29-.56,0-.25,.09-.44,.29-.56,.06-.04,.14-.06,.23-.06,.07-.02,.14-.03,.2-.03h1.82c.71,0,1.07-.41,1.07-1.23v-3.07h-10.35c-.07,0-.14,0-.22-.03-.09-.01-.16-.04-.23-.09-.19-.09-.29-.28-.29-.56s.1-.45,.29-.56c.07-.04,.14-.06,.23-.09,.07-.02,.14-.03,.22-.03h10.35v-.79Zm-3.57-15.28h-6.18c-.09,0-.17,0-.25-.03-.09-.01-.16-.05-.23-.09-.17-.12-.26-.3-.26-.56,0-.27,.1-.46,.29-.56,.07-.04,.14-.07,.23-.09,.07-.02,.14-.03,.22-.03h6.18v-.85c0-.08,.01-.16,.03-.23,.01-.24,.06-.44,.13-.62,.22-.48,.59-.73,1.13-.73,.58,0,.97,.25,1.18,.73,.07,.18,.12,.38,.13,.59,.01,.07,.03,.17,.03,.26v.85h6.76c.09,.01,.17,.04,.23,.09,.2,.12,.29,.31,.29,.58s-.09,.46-.29,.56c-.06,.04-.14,.07-.23,.09-.07,.02-.14,.03-.2,.03h-6.55v1.73h3.25c1.59,0,2.38,.77,2.38,2.31v3.92c0,.72-.14,1.26-.42,1.61-.33,.45-.92,.69-1.78,.71,.87,.55,1.63,1.05,2.27,1.52,.49,.35,.85,.64,1.05,.84,.39,.38,.58,.77,.58,1.21,0,1.03-.48,1.55-1.44,1.55-.4,0-.71-.22-.94-.65-.13-.23-.29-.51-.48-.82l-.39-.64c-.94,.12-3.06,.32-6.34,.61-1.57,.15-2.9,.27-3.98,.35-1.27,.1-2.08,.15-2.44,.15-.39,0-.66-.15-.81-.44-.07-.1-.13-.22-.16-.35-.03-.09-.03-.2-.03-.32,0-.71,.39-1.05,1.18-1.05h2.93l2.93-.06v-1.9h-3.19c-1.59,0-2.4-.77-2.4-2.32v-3.92c0-1.54,.81-2.31,2.4-2.31h3.19v-1.73Zm-2.9,20.64c-.33-.57-.77-1.18-1.28-1.85-.13-.14-.19-.29-.19-.47,0-.45,.22-.67,.64-.67,.09,0,.22,.03,.39,.09l1.44,.73c1.34,.8,2.01,1.49,2.01,2.08,0,1.05-.48,1.58-1.46,1.58-.46,0-.97-.49-1.54-1.49Zm2.9-17.57h-1.99c-.74,0-1.1,.41-1.1,1.23v1.02h3.09v-2.25Zm0,3.6h-3.09v1.02c0,.82,.36,1.23,1.1,1.23h1.99v-2.25Zm2.63-1.35h3.12v-1.02c0-.82-.36-1.23-1.08-1.23h-2.04v2.25Zm0,3.6h2.04c.72,0,1.08-.41,1.08-1.23v-1.02h-3.12v2.25Zm0,3.16h.13l.49-.03c.3-.01,.58-.03,.82-.03l1.67-.06c-.49-.61-.74-1-.74-1.2,0-.12,.03-.22,.07-.32l.13-.17h-2.58v1.81Z"/>
          <path class="cls-1" d="M462.38,24.18c0,1-.27,1.71-.79,2.14-.43,.38-1.11,.56-2.02,.56h-3c-.07,0-.14,0-.22-.03-.1,0-.19-.02-.26-.06-.1-.06-.19-.13-.23-.2-.07-.1-.12-.22-.12-.38s.04-.28,.12-.38c.04-.09,.13-.17,.23-.2,.07-.04,.16-.07,.26-.09h1.96c.82,0,1.24-.46,1.24-1.38V15.72h-9.95c-.09,0-.16,0-.23-.03-.09-.02-.16-.05-.23-.09-.17-.12-.26-.3-.26-.56s.09-.44,.26-.56c.07-.04,.14-.06,.23-.06,.07-.02,.14-.04,.23-.04h22.65c.09,0,.16,.01,.23,.04,.09,0,.17,.01,.25,.06,.17,.12,.26,.3,.26,.56,0,.27-.1,.45-.29,.56-.07,.04-.14,.06-.23,.09-.07,.02-.14,.03-.22,.03h-9.87v8.46Zm-13.27,1.38c0-.22,.13-.45,.39-.71,1.67-1.67,3.09-3.79,4.24-6.35,.33-.72,.78-1.08,1.31-1.08,1.08,0,1.63,.57,1.63,1.7,0,.38-.33,.97-.98,1.79-.55,.7-1.28,1.49-2.17,2.37-.84,.8-1.63,1.49-2.38,2.05-.75,.58-1.26,.88-1.5,.88-.36,0-.55-.22-.55-.64Zm10.41-22.17V1.67c0-1.11,.46-1.67,1.41-1.67s1.41,.56,1.41,1.67v1.73h7.49c1.72,0,2.57,.82,2.57,2.46v2.61c0,.12-.01,.22-.03,.32-.01,.25-.07,.47-.16,.64-.23,.53-.65,.79-1.26,.79s-1.02-.26-1.23-.79c-.09-.19-.14-.42-.16-.67-.01-.1-.03-.19-.03-.3v-2.37c0-.92-.4-1.38-1.21-1.38h-14.8c-.82,0-1.24,.46-1.24,1.38v2.43c0,.1,0,.19-.01,.3-.04,.25-.09,.48-.16,.67-.22,.49-.62,.73-1.24,.73s-1.02-.26-1.26-.79c-.09-.17-.13-.39-.16-.64-.01-.1-.01-.21-.01-.32v-2.61c0-1.64,.85-2.46,2.56-2.46h7.51Zm8.07,5.48c.09,0,.16,0,.23,.03,.09,.02,.17,.05,.25,.09,.17,.12,.26,.3,.26,.56,0,.27-.1,.46-.29,.56-.07,.04-.16,.07-.25,.09-.06,.02-.13,.03-.2,.03h-13.27c-.09,0-.16,0-.23-.03-.09-.01-.17-.04-.23-.09-.19-.12-.27-.3-.27-.56s.09-.44,.27-.56c.06-.04,.14-.06,.23-.09,.07-.02,.14-.03,.23-.03h13.27Zm-2.18,8.73c.1,0,.3,.1,.61,.32,.26,.17,.59,.41,1,.7,.32,.26,.65,.54,1,.85,.16,.12,.29,.24,.42,.35l.32,.26c1.43,1.25,2.37,2.17,2.83,2.76,.35,.43,.52,.84,.52,1.26,0,.45-.16,.85-.48,1.2-.35,.39-.75,.58-1.2,.58-.39,0-.72-.17-1-.5-.1-.12-.22-.27-.32-.46-.04-.08-.1-.17-.13-.27l-.13-.27c-.51-1.09-1.1-2.11-1.78-3.04-.29-.41-.61-.84-.98-1.29l-1.04-1.23c-.09-.12-.14-.21-.16-.27-.06-.09-.09-.2-.09-.32,0-.43,.2-.64,.61-.64Z"/>
        </g>
      </g>
      <g>
        <g>
          <path class="cls-1" d="M190.83,205.76c-1.03,.18-1.76,.31-2.21,.39-.67,.11-1.11,.17-1.31,.17-.71,0-1.06-.42-1.06-1.25,0-.48,.17-.82,.53-1.03,.18-.11,.88-.17,2.07-.17,.4-.45,.78-.93,1.17-1.45,.3-.37,.57-.73,.82-1.06-.31-.08-.6-.32-.84-.75-.43-.76-.9-1.48-1.43-2.17-.43-.56-.93-1.15-1.52-1.78l-.19-.25c-.05-.11-.09-.23-.09-.33,0-.41,.2-.61,.61-.61,.08,0,.2,.05,.37,.14,.15,.08,.34,.18,.56,.33l1.01,.72,.31-.5c.15-.24,.29-.48,.42-.72,.4-.7,.75-1.47,1.1-2.28,.44-1.05,.96-1.59,1.54-1.59,.4,0,.75,.12,1.06,.37,.38,.26,.56,.6,.56,1.03,0,.11-.01,.2-.02,.28-.02,.09-.06,.2-.14,.33-.15,.24-.47,.66-.96,1.25-.48,.57-1.01,1.16-1.57,1.75l-1.03,1.06,.98,.86c.18,.18,.33,.34,.45,.47,.13,.15,.21,.26,.25,.33,.35-.52,.61-.92,.78-1.23l.96-1.78c.16-.33,.32-.56,.47-.69,.23-.23,.51-.33,.84-.33,1.05,0,1.57,.47,1.57,1.42,0,.37-.58,1.23-1.73,2.58-1.48,1.7-2.86,3.21-4.15,4.53,2.01-.11,3.39-.21,4.12-.31l-.59-1.55c-.05-.17-.09-.27-.09-.31,0-.39,.2-.59,.59-.59,.12,0,.34,.16,.7,.47,.34,.32,.7,.69,1.06,1.14,.93,1.15,1.41,1.99,1.41,2.53,0,.93-.46,1.39-1.38,1.39-.51,0-.85-.23-1.03-.67l-.31-1.17-1.97,.45v10.62c0,.09-.01,.18-.02,.25-.02,.23-.06,.42-.14,.59-.2,.46-.6,.7-1.18,.7s-.97-.24-1.17-.7c-.08-.17-.13-.36-.14-.59-.02-.07-.03-.16-.03-.25v-10.06Zm-1.03,1.72c.31,.23,.47,.52,.47,.89,0,.61-.28,1.75-.84,3.42-.58,1.67-1.11,2.87-1.57,3.61-.2,.33-.42,.5-.64,.5-.41,0-.62-.2-.62-.61,0-.06,.02-.17,.06-.34l.37-1.41c.26-1.11,.46-2.83,.61-5.15,.05-.82,.47-1.22,1.26-1.22,.32,0,.62,.1,.9,.3Zm5.96,.14c.54,.78,1.05,1.68,1.54,2.7,.51,1.06,.76,1.77,.76,2.14,0,.89-.49,1.33-1.48,1.33-.85,0-1.29-.47-1.35-1.42-.13-1.56-.38-2.97-.75-4.22-.05-.23-.09-.37-.09-.45,0-.41,.21-.61,.64-.61,.23,0,.47,.18,.73,.53Zm10.25,.33v7.29h5.8c.08,0,.15,.01,.23,.03,.09,.02,.17,.05,.25,.09,.2,.09,.31,.27,.31,.53,0,.24-.1,.42-.28,.53-.08,.03-.16,.06-.26,.08-.08,.02-.16,.03-.25,.03h-14.88c-.08,0-.15-.01-.21-.03-.1-.02-.18-.05-.26-.08-.2-.1-.31-.27-.31-.53s.11-.44,.31-.53c.08-.04,.16-.06,.26-.09,.06-.02,.14-.03,.21-.03h6.12v-7.29h-4.32c-.08,0-.15,0-.23-.03-.09,0-.17-.02-.25-.05-.2-.11-.31-.3-.31-.56,0-.24,.11-.41,.31-.53,.08-.04,.16-.06,.25-.08,.08-.02,.15-.03,.23-.03h11.96c.08,0,.15,.01,.23,.03,.1,.02,.18,.04,.26,.08,.2,.11,.3,.29,.3,.53,0,.26-.1,.44-.3,.53-.08,.04-.16,.06-.26,.08-.08,.02-.15,.03-.23,.03h-4.67Zm5.09-15.29c.1,0,.18,.01,.26,.03,.1,.02,.17,.05,.25,.09,.19,.11,.28,.28,.28,.53s-.1,.41-.3,.5c-.08,.06-.16,.09-.26,.09-.08,.02-.15,.03-.23,.03h-13.17c-.09,0-.17-.01-.25-.03-.1,0-.18-.03-.26-.09-.18-.09-.28-.26-.28-.5,0-.26,.11-.44,.31-.53,.08-.04,.16-.06,.25-.09,.08-.02,.15-.03,.23-.03h13.17Zm-9.1,3.26c0,.3-.26,.83-.78,1.61-.2,.3-.46,.64-.78,1.03-.11,.17-.24,.34-.39,.53l-.34,.44s-.05,.04-.05,.06c0,.02-.01,.04-.05,.05l-.25,.33c-.15,.2-.23,.33-.23,.39,0,.13,.12,.31,.37,.55l.84,.83c.38,.37,.69,.71,.95,1.03,.34,.39,.6,.72,.78,1,.21,.33,.31,.6,.31,.81,0,.95-.51,1.42-1.52,1.42-.39,0-.69-.11-.89-.33-.08-.09-.15-.2-.23-.33l-.14-.31c-.51-1.26-1.16-2.6-1.96-4l-.12-.25c-.03-.11-.05-.22-.05-.33,0-.18,.08-.42,.23-.72,.33-.69,.61-1.34,.84-1.98,.11-.28,.24-.61,.37-1l.39-1.2c.19-.57,.59-.86,1.2-.86,1.01,0,1.52,.41,1.52,1.23Zm4.43-.03c0,.3-.18,.74-.56,1.33-.13,.22-.3,.46-.51,.72l-.92,1.23c-.1,.09-.17,.19-.23,.28l-.39,.53c-.12,.15-.17,.24-.17,.28,0,.08,.04,.17,.11,.28l.62,.67c.28,.3,.52,.56,.73,.81,.33,.37,.62,.7,.86,1,.3,.39,.54,.73,.71,1,.2,.33,.3,.58,.3,.75,0,.89-.49,1.34-1.48,1.34-.38,0-.67-.11-.87-.33-.09-.11-.21-.33-.37-.64-.46-1.11-.82-1.91-1.06-2.39-.18-.34-.54-.93-1.06-1.78-.16-.26-.25-.48-.25-.67,0-.2,.09-.48,.28-.83,.26-.52,.56-1.25,.89-2.2,.13-.33,.25-.67,.34-1l.19-.59c.23-.68,.67-1.03,1.31-1.03,1.01,0,1.52,.41,1.52,1.25Zm4.15-.95c.38,.24,.56,.58,.56,1.03,0,.48-.88,1.79-2.67,3.92l-.16,.22c-.02,.05-.03,.11-.03,.17,0,.11,.12,.28,.33,.5,.3,.28,.59,.57,.87,.89,.35,.37,.68,.72,.96,1.06,.71,.83,1.06,1.42,1.06,1.78,0,.92-.48,1.39-1.46,1.39-.37,0-.66-.13-.86-.39-.19-.26-.62-1.06-1.29-2.39-.04-.09-.09-.18-.14-.28-.02-.05-.05-.11-.09-.17,0-.02-.01-.04-.03-.05l-.33-.67c-.23-.45-.43-.83-.61-1.14-.1-.13-.14-.31-.14-.55,0-.05,.06-.28,.21-.69l1.63-4.2c.21-.46,.62-.69,1.2-.69,.35,0,.68,.09,.98,.28Z"/>
          <path class="cls-1" d="M251.02,208.73v-11.29c0-1.65,.92-2.47,2.77-2.47h3.16v-1.75c0-.1,.01-.18,.03-.25,.02-.24,.08-.45,.17-.61,.21-.48,.64-.72,1.26-.72s1.04,.24,1.29,.72c.08,.17,.12,.37,.14,.61,.02,.08,.02,.16,.02,.25v1.75h3.06v-1.75c0-.1,0-.19,.02-.28,.02-.22,.08-.42,.17-.59,.23-.48,.66-.72,1.29-.72s1.03,.24,1.26,.72c.08,.17,.12,.37,.14,.61,.02,.08,.03,.16,.03,.25v1.75h3.19c1.85,0,2.77,.82,2.77,2.47v11.29h1.74c.08,0,.15,.01,.21,.03,.1,.02,.18,.05,.26,.09,.2,.09,.31,.27,.31,.53,0,.24-.1,.42-.28,.53-.14,.07-.3,.11-.51,.11h-24.21c-.08,0-.15,0-.23-.03-.11-.02-.19-.04-.25-.08-.18-.11-.29-.29-.31-.53,.02-.24,.13-.41,.31-.53,.05-.04,.14-.06,.25-.09,.08-.02,.15-.03,.23-.03h1.69Zm7.31,4.95c-.53,.45-1.5,.98-2.94,1.62-.71,.31-1.44,.61-2.21,.89-.63,.24-1.26,.46-1.87,.64-.51,.15-.97,.27-1.38,.36-.35,.08-.58,.11-.68,.11-.41,0-.61-.21-.61-.64,0-.2,.06-.36,.19-.47,.06-.05,.13-.1,.23-.14l.23-.11c1.12-.45,2.21-1.01,3.28-1.7,1.24-.8,2.3-1.66,3.19-2.58,.56-.57,1.05-.87,1.46-.87,.43,0,.81,.14,1.15,.42,.41,.35,.61,.82,.61,1.39,0,.39-.21,.75-.64,1.08Zm-1.38-12.04v-5.39h-1.73c-.81,0-1.2,.4-1.2,1.19v4.2h2.93Zm0,7.09v-5.81h-2.93v5.81h2.93Zm5.98-7.09v-5.39h-3.06v5.39h3.06Zm0,7.09v-5.81h-3.06v5.81h3.06Zm1.71,2.39c.33-.27,.72-.41,1.15-.41,.28,0,.54,.08,.78,.25,.2,.15,.68,.57,1.42,1.28,1.56,1.5,3.44,2.76,5.66,3.76,.32,.13,.47,.35,.47,.67,0,.41-.2,.61-.61,.61-.51,0-1.47-.26-2.91-.78-1.21-.45-2.27-.88-3.17-1.31-1.44-.67-2.41-1.24-2.91-1.7-.33-.31-.51-.64-.51-.97,0-.57,.2-1.04,.62-1.39Zm4.22-9.48v-4.2c0-.8-.4-1.19-1.2-1.19h-1.82v5.39h3.02Zm-3.02,1.28v5.81h3.02v-5.81h-3.02Z"/>
          <path class="cls-1" d="M317.08,215.71c0,.11-.01,.21-.03,.31-.02,.24-.08,.45-.17,.61-.2,.45-.63,.67-1.28,.67s-1.1-.22-1.32-.67c-.1-.17-.15-.37-.17-.61-.01-.09-.02-.19-.02-.31v-13.79l-.73,.73c-.33,.35-.66,.66-.96,.92-.37,.33-.69,.59-.95,.78-.32,.22-.55,.33-.68,.33-.41,0-.61-.2-.61-.61,0-.19,.16-.46,.51-.81,2.46-2.71,4.37-6.05,5.74-10.04l.17-.47c.09-.19,.18-.33,.28-.45,.28-.33,.68-.5,1.2-.5,1.21,0,1.82,.5,1.82,1.5,0,.48-.32,1.26-.98,2.34-.24,.41-.54,.87-.89,1.39l-.92,1.31v17.38Zm8.01-18.02h-1.03c-.73,1.04-1.62,2.15-2.69,3.34-.55,.61-1,1.09-1.38,1.45-.45,.39-.76,.59-.92,.59-.41,0-.62-.2-.62-.61,0-.17,.14-.43,.43-.78l.56-.75c.35-.5,.7-1.04,1.03-1.61,.45-.8,.85-1.62,1.2-2.48,.45-1.04,.82-2.1,1.1-3.2l.19-.67c.1-.24,.19-.44,.28-.59,.28-.39,.7-.58,1.24-.58,.45,0,.86,.13,1.24,.39,.43,.3,.64,.69,.64,1.17,0,.35-.17,.85-.51,1.5-.25,.46-.56,.98-.96,1.56h10.48c.08,0,.15,.01,.23,.03,.1,.02,.17,.05,.25,.09,.2,.09,.31,.27,.31,.53,0,.24-.11,.41-.31,.53-.08,.04-.15,.06-.25,.09-.08,.02-.15,.03-.23,.03h-7.29v5.42h6.64c.08,0,.15,.01,.23,.03,.1,.02,.17,.05,.25,.09,.2,.09,.31,.27,.31,.53,0,.24-.11,.42-.31,.53-.08,.04-.15,.06-.25,.09-.08,.02-.15,.03-.23,.03h-6.64v5.42h6.64c.08,0,.15,.01,.23,.03,.1,.02,.17,.05,.25,.09,.2,.09,.31,.27,.31,.53,0,.24-.11,.42-.31,.53-.08,.04-.15,.07-.25,.09-.08,.02-.15,.03-.23,.03h-6.64v4.56c0,.13-.01,.24-.02,.33-.02,.24-.08,.45-.17,.61-.23,.45-.67,.67-1.32,.67s-1.07-.22-1.28-.67c-.1-.17-.15-.37-.17-.61-.02-.09-.03-.2-.03-.33v-17.96Z"/>
          <path class="cls-1" d="M384,214.29c0,1.57-.92,2.36-2.75,2.36h-5.49c-1.83,0-2.74-.79-2.74-2.36v-6.75c0-1.57,.91-2.36,2.74-2.36h5.49c1.83,0,2.75,.79,2.75,2.36v6.75Zm-2.84-6.59c0-.83-.42-1.25-1.26-1.25h-2.75c-.84,0-1.26,.42-1.26,1.25v6.42c0,.83,.42,1.25,1.26,1.25h2.75c.84,0,1.26-.42,1.26-1.25v-6.42Zm12.17-8.12c0,1-.27,1.7-.78,2.11-.45,.35-1.17,.53-2.16,.53h-10.53c-1.97,0-2.94-.88-2.94-2.64v-4.51c0-1,.26-1.7,.78-2.11,.45-.35,1.17-.53,2.16-.53h10.53c1.96,0,2.94,.88,2.94,2.64v4.51Zm-3.03-4.59c0-.87-.44-1.31-1.31-1.31h-7.79c-.86,0-1.29,.44-1.29,1.31v4.64c0,.87,.43,1.31,1.29,1.31h7.79c.87,0,1.31-.44,1.31-1.31v-4.64Zm6.89,19.3c0,1.57-.91,2.36-2.74,2.36h-5.58c-1.83,0-2.74-.79-2.74-2.36v-6.75c0-1.57,.91-2.36,2.74-2.36h5.58c1.83,0,2.74,.79,2.74,2.36v6.75Zm-2.93-6.59c0-.83-.42-1.25-1.27-1.25h-2.71c-.85,0-1.27,.42-1.27,1.25v6.42c0,.83,.42,1.25,1.27,1.25h2.71c.85,0,1.27-.42,1.27-1.25v-6.42Z"/>
        </g>
        <rect class="cls-1" x="232.17" y="193.68" width="1.1" height="24.29"/>
        <rect class="cls-1" x="167.88" y="193.68" width="1.1" height="24.29"/>
        <rect class="cls-1" x="292.18" y="193.68" width="1.1" height="24.29"/>
        <rect class="cls-1" x="352.18" y="193.68" width="1.1" height="24.29"/>
        <rect class="cls-1" x="415.05" y="193.68" width="1.1" height="24.29"/>
      </g>
    </g>
  </g>
</svg>