<?xml version="1.0" encoding="UTF-8"?>
<svg id="_圖層_2" data-name="圖層 2" xmlns="http://www.w3.org/2000/svg" viewBox="0 0 642.44 405.47">
  <defs>
    <style>
      .cls-1 {
        fill: #7a6a56;
      }
    </style>
  </defs>
  <g id="context">
    <g>
      <g>
        <g>
          <path class="cls-1" d="M360.5,25.18c0,.1-.01,.19-.03,.26-.01,.23-.06,.44-.13,.64-.23,.5-.63,.76-1.2,.76s-.96-.26-1.16-.76c-.07-.17-.13-.38-.16-.61-.01-.08-.03-.16-.03-.26V13.79c-.67,1.57-1.41,3-2.23,4.29-.84,1.33-1.44,2-1.77,2-.39,0-.59-.22-.59-.67,0-.14,.07-.33,.2-.58,2.06-3.36,3.37-6.98,3.94-10.87h-3.27c-.09,0-.16,0-.23-.03-.09-.01-.16-.05-.23-.09-.17-.11-.26-.3-.26-.55,0-.27,.09-.46,.29-.55,.06-.04,.14-.07,.23-.09,.07-.02,.14-.03,.2-.03h3.72V1.68c0-.09,.01-.19,.03-.26,.01-.24,.07-.45,.16-.64,.2-.5,.6-.75,1.16-.75,.6,0,.99,.24,1.2,.72,.07,.18,.11,.38,.13,.61,.01,.09,.03,.19,.03,.29V6.64h2.83c.09,0,.16,0,.23,.03,.09,.01,.17,.05,.23,.09,.19,.11,.27,.3,.27,.55s-.1,.44-.29,.55c-.07,.04-.16,.07-.24,.09-.07,.02-.13,.03-.2,.03h-2.7c.2,1.24,.57,2.57,1.11,4,.5,1.35,1.09,2.63,1.74,3.82,.16,.29,.23,.49,.23,.61,0,.42-.2,.64-.6,.64-.11,0-.23-.04-.33-.11-.07-.06-.14-.14-.21-.24-.33-.41-.71-.96-1.14-1.65-.29-.49-.6-1.02-.93-1.62v11.76Zm11.05-.86h5.02c.09,0,.16,0,.23,.03,.09,.02,.16,.05,.23,.09,.17,.11,.26,.3,.26,.55,0,.27-.09,.46-.29,.55-.06,.04-.14,.07-.23,.09-.07,.02-.14,.03-.2,.03h-14.06c-.09,0-.17,0-.24-.03-.09-.01-.16-.04-.23-.09-.17-.11-.26-.3-.26-.55s.09-.44,.29-.55c.07-.04,.14-.06,.23-.09,.07-.02,.14-.03,.21-.03h6.2V10.81h-4.16c-.07,0-.14-.01-.23-.03-.09-.02-.17-.05-.24-.09-.17-.1-.26-.27-.26-.52,0-.27,.1-.46,.29-.56,.07-.04,.14-.06,.24-.09,.06-.01,.13-.03,.2-.03h4.16V1.77c0-1.18,.46-1.77,1.4-1.77s1.44,.59,1.44,1.77v7.74h4.44c.07,0,.13,.01,.2,.03,.09,0,.17,.02,.24,.06,.19,.12,.29,.3,.29,.55,0,.27-.1,.46-.29,.56-.07,.04-.16,.06-.24,.09-.07,.01-.13,.03-.2,.03h-4.44v13.51Z"/>
          <path class="cls-1" d="M394.73,2.67V1.62c0-.11,.01-.22,.03-.32,.01-.23,.07-.43,.16-.61,.2-.44,.61-.66,1.21-.66s1.01,.23,1.23,.69c.09,.16,.13,.36,.14,.61,.03,.08,.03,.18,.03,.29v1.04h9.73c.09,.02,.17,.05,.23,.09,.2,.11,.29,.31,.29,.58s-.09,.46-.29,.55c-.06,.04-.14,.07-.23,.09-.07,.01-.14,.03-.2,.03h-17.44c-.87,0-1.3,.48-1.3,1.44V14.99l-.06,1.07c-.07,.91-.19,1.79-.33,2.64-.21,1.08-.5,2.12-.86,3.13-.41,1.18-.94,2.28-1.59,3.3l-.13,.21c-.06,.09-.1,.17-.16,.23l-.31,.44c-.26,.31-.49,.46-.67,.46-.4,0-.6-.21-.6-.64,0-.14,.04-.29,.13-.44,.39-.76,.67-1.47,.86-2.14,.31-1.1,.54-2.27,.67-3.51,.16-1.39,.24-3.04,.24-4.96V5.51c0-1.89,.91-2.84,2.77-2.84h6.43Zm4.1,21.3c0,1.8-.84,2.69-2.52,2.69h-2.89c-.1-.01-.19-.04-.26-.09-.1-.04-.17-.11-.23-.2-.07-.1-.1-.22-.1-.38,0-.29,.1-.49,.3-.58,.07-.04,.16-.07,.27-.09h1.56c.74,0,1.11-.41,1.11-1.25v-2.67c-1.23,.89-2.64,1.81-4.23,2.75-.74,.45-1.39,.81-1.9,1.08-.53,.26-.89,.4-1.03,.4-.73,0-1.1-.47-1.1-1.41,0-.39,.1-.65,.29-.79,.17-.16,.69-.39,1.53-.69,.79-.29,1.57-.6,2.37-.93,1.03-.42,2.02-.86,2.96-1.31l.46-.23c.24-.11,.39-.17,.44-.17l.21,.06v-3.97h-5.66c-.07,0-.14,0-.21-.03-.09,0-.16-.03-.23-.09-.19-.1-.29-.27-.29-.52,0-.27,.1-.46,.29-.55,.07-.04,.14-.07,.23-.09,.07-.02,.14-.03,.21-.03h5.66v-2.82h-6.7c-.09,0-.16,0-.23-.03-.09-.02-.17-.05-.23-.09-.19-.11-.27-.3-.27-.55,0-.27,.1-.46,.29-.55,.07-.04,.16-.07,.24-.09,.07-.02,.13-.03,.2-.03h6.7v-2.76h-5.66c-.07,0-.14,0-.21-.03-.09,0-.16-.03-.23-.09-.19-.09-.29-.27-.29-.52,0-.27,.1-.45,.29-.55,.07-.04,.14-.06,.23-.09,.07-.02,.14-.03,.21-.03h5.66v-.73c0-.09,0-.18,.01-.26,.03-.24,.07-.44,.16-.61,.21-.52,.61-.79,1.2-.79s.97,.24,1.19,.73c.07,.17,.13,.37,.16,.61,.01,.09,.03,.19,.03,.29v.76h3.47c1.72,0,2.57,.86,2.57,2.58v1.48h2.23c.09,0,.17,0,.24,.03,.09,.01,.16,.04,.23,.09,.17,.11,.26,.3,.26,.55,0,.27-.1,.45-.29,.55-.07,.04-.14,.06-.23,.09-.07,.02-.14,.03-.21,.03h-2.23v1.54c0,1.72-.86,2.58-2.57,2.58h-3.13c.2,.6,.51,1.28,.93,2.03,.36,.66,.73,1.23,1.09,1.71,.97-.69,1.82-1.44,2.54-2.23,.51-.58,.91-.87,1.2-.87,.86,0,1.29,.49,1.29,1.48,0,.39-.14,.71-.46,.96-.33,.27-.94,.65-1.84,1.13l-1.69,.84c1.17,1.27,2.8,2.47,4.87,3.59,.06,.01,.1,.04,.16,.09,.07,.04,.13,.08,.16,.11,.11,.14,.19,.3,.19,.49,0,.44-.2,.66-.57,.66-.13,0-.44-.1-.94-.31-.61-.25-1.27-.58-1.97-.99-.9-.49-1.74-1.04-2.56-1.65-1.01-.76-1.92-1.56-2.73-2.41v3.13Zm-7.55-7.1l.41,.21c.23,.14,.49,.31,.8,.52,.97,.69,1.46,1.26,1.46,1.68,0,.39-.16,.71-.44,.99-.27,.25-.56,.38-.86,.38-.43,0-.97-.61-1.62-1.83l-.61-1.04c-.06-.11-.09-.22-.09-.31,0-.45,.2-.67,.6-.67,.09,0,.2,.03,.34,.09Zm7.55-6.11h3.17v-1.48c0-.85-.39-1.28-1.13-1.28h-2.04v2.76Zm0,4.14h2.04c.74,0,1.13-.41,1.13-1.25v-1.56h-3.17v2.82Z"/>
          <path class="cls-1" d="M425.13,5.57V1.77c0-.09,0-.18,.03-.26,.01-.25,.07-.47,.16-.66,.21-.54,.63-.81,1.24-.81s1.01,.26,1.24,.78c.07,.2,.11,.42,.16,.67,.01,.09,.03,.19,.03,.29v3.8h8.19c.09,0,.17,0,.24,.03,.09,.01,.16,.04,.23,.09,.17,.11,.26,.3,.26,.55,0,.27-.1,.45-.29,.55-.07,.04-.14,.06-.23,.09-.07,.02-.14,.03-.21,.03h-8.19v7.62h6.92c.09,0,.17,0,.24,.03,.09,.02,.16,.05,.23,.09,.17,.11,.26,.3,.26,.55,0,.27-.1,.46-.29,.55-.07,.04-.14,.07-.23,.09-.07,.02-.14,.03-.21,.03h-6.92v8.55h9.8c.09,0,.16,0,.23,.03,.09,.02,.17,.05,.23,.09,.19,.1,.27,.28,.27,.55,0,.25-.1,.43-.29,.52-.07,.06-.16,.09-.24,.09-.07,.02-.13,.03-.2,.03h-22.47c-.07,0-.14,0-.21-.03-.09,0-.16-.03-.23-.09-.2-.09-.29-.27-.29-.52,0-.27,.09-.46,.29-.58,.07-.04,.14-.06,.23-.09h10.02V15.85h-7c-.07,0-.14,0-.21-.03-.09-.01-.16-.04-.23-.09-.19-.09-.29-.28-.29-.55s.1-.45,.29-.55c.07-.04,.14-.06,.23-.09,.07-.02,.14-.03,.21-.03h7V6.9h-5.86c-.71,1.28-1.47,2.49-2.29,3.62-.9,1.2-1.49,1.8-1.77,1.8-.39,0-.59-.22-.59-.67,0-.06,.01-.12,.04-.2l.24-.44c.8-1.43,1.49-2.94,2.02-4.52,.47-1.35,.8-2.7,1.01-4.05,.21-1.18,.71-1.77,1.5-1.77,.41,0,.79,.13,1.11,.38,.39,.29,.57,.66,.57,1.13,0,.43-.17,1.06-.51,1.92l-.39,.93-.29,.55h5.19Z"/>
        </g>
        <g>
          <path class="cls-1" d="M220.6,18.11c.03-.11,.03-.21,.03-.29l.06-.29c.03-.21,.09-.39,.19-.55,.17-.39,.49-.63,.96-.72l-.26-.12c-.13-.06-.23-.14-.29-.26-.21-.27-.31-.69-.31-1.24v-1.45c-.79,.81-1.66,1.59-2.63,2.32-.89,.7-1.46,1.04-1.69,1.04-.39,0-.59-.22-.59-.66,0-.16,.04-.29,.13-.41l.2-.23c1.51-1.34,2.56-2.55,3.17-3.65h-2.93c-.07,0-.14-.01-.21-.03-.09-.02-.16-.05-.23-.09-.2-.11-.29-.29-.29-.55s.09-.43,.26-.55c.07-.04,.14-.06,.23-.09,.07-.01,.16-.03,.24-.03h1.6c-.11-.06-.23-.15-.31-.29-.03-.04-.09-.13-.14-.26l-.6-1.13s-.01-.05-.06-.09l-.23-.44c-.07-.14-.1-.24-.1-.32,0-.42,.19-.64,.56-.64,.04,0,.17,.06,.4,.17,.31,.14,.59,.29,.83,.44,.79,.51,1.19,.98,1.19,1.42v.17c-.01,.1-.04,.19-.07,.29-.13,.29-.33,.51-.63,.66h1.9v-3.3c-.56,.04-1.31,.06-2.26,.09-.3,.02-.6,.03-.91,.03h-.41c-.46,0-.7-.22-.7-.66,0-.29,.11-.49,.31-.61,.09-.04,.19-.06,.29-.06,.07-.01,.16-.03,.26-.03,1.56-.04,2.96-.16,4.2-.37,1.49-.24,2.86-.59,4.12-1.07h-9.22c-.81,0-1.23,.45-1.23,1.36V15.74c0,.11,0,.21-.01,.29-.03,.25-.07,.46-.14,.64-.2,.51-.6,.76-1.19,.76s-.97-.25-1.17-.76c-.09-.19-.13-.4-.16-.64-.01-.09-.01-.19-.01-.29V5.67c0-1.84,.91-2.75,2.74-2.75h4.7l.43-1.36c.06-.17,.09-.28,.09-.31,.17-.7,.61-1.04,1.34-1.04,1.04,0,1.57,.45,1.57,1.36,0,.45-.29,.9-.84,1.36h6.25c.89,0,1.54,.17,1.97,.52,.51,.43,.77,1.17,.77,2.23V15.76c0,.09-.03,.19-.03,.29-.03,.24-.06,.44-.14,.61-.2,.51-.6,.76-1.17,.76s-.97-.25-1.14-.76c-.09-.17-.14-.37-.17-.61,0-.09-.03-.19-.03-.29V5.62c0-.91-.4-1.36-1.2-1.36h-1.06c.43,.23,.63,.59,.63,1.07s-.23,.84-.69,1.01c-.46,.17-1.54,.31-3.23,.43v3.48h1.4c-.14-.08-.23-.19-.29-.35l-.06-.23c0-.06,.03-.16,.11-.32,.03-.11,.09-.26,.2-.46,.03-.08,.06-.16,.11-.24l.26-.52c.4-.93,.83-1.39,1.26-1.39,.83,0,1.23,.42,1.23,1.25,0,.29-.11,.55-.31,.78-.09,.1-.2,.19-.31,.29l-.31,.26s-.03,.03-.06,.03c-.57,.43-1.03,.73-1.37,.9h2.49c.09,0,.14,.01,.23,.03,.09,.02,.17,.05,.23,.09,.2,.1,.29,.29,.29,.55s-.09,.44-.26,.55c-.09,.04-.14,.07-.23,.09-.09,.01-.14,.03-.26,.03h-3c.37,.66,.86,1.33,1.46,2.03,.51,.59,1,1.1,1.51,1.51,.26,.25,.37,.48,.37,.69,0,.44-.17,.66-.57,.66-.23,0-.77-.31-1.63-.96-.94-.73-1.77-1.51-2.49-2.32v1.42c0,.59-.11,1.03-.37,1.3-.09,.1-.19,.17-.3,.24-.06,.04-.11,.06-.16,.09l-.13,.03c.73,.25,1.07,.86,1.01,1.82h9.75c.09,0,.14,.01,.2,.03,.09,.02,.17,.05,.26,.09,.17,.1,.29,.29,.29,.56,0,.25-.11,.43-.29,.55-.11,.07-.26,.11-.46,.11h-9.38c.43,1.14,1.11,2.12,1.97,2.96,.74,.71,1.63,1.32,2.66,1.82,.8,.39,1.69,.71,2.66,.96,.34,.09,.71,.19,1.11,.26l1.11,.18,.23,.11c.17,.11,.26,.3,.26,.55,0,.44-.2,.66-.63,.66l-1.54-.17c-.57-.08-1.09-.17-1.63-.29-.66-.15-1.31-.33-1.92-.52-.54-.17-1.06-.36-1.49-.55-.57-.23-1.09-.49-1.57-.78-1.17-.7-2.2-1.61-3.06-2.72l-.31,.4c-.14,.18-.29,.34-.44,.49-.39,.41-.81,.79-1.33,1.16-.61,.44-1.33,.84-2.12,1.21-.96,.44-2.02,.82-3.17,1.13-.51,.14-1.16,.28-1.92,.44-.89,.19-1.5,.29-1.84,.29-.4,0-.6-.22-.6-.66,0-.25,.09-.44,.23-.55l.21-.11c.06,0,.11,0,.19-.03l.96-.17c.41-.1,.81-.21,1.21-.32,1.03-.27,1.96-.62,2.8-1.04,1.06-.52,1.94-1.14,2.64-1.86,.86-.83,1.43-1.77,1.74-2.84h-9.23c-.07,0-.14,0-.21-.03-.09-.02-.16-.05-.23-.09-.17-.12-.26-.3-.26-.55s.09-.44,.26-.56c.07-.04,.14-.06,.23-.09,.07-.01,.16-.03,.24-.03h9.43Z"/>
          <path class="cls-1" d="M244.65,15.13c0-.81-.36-1.22-1.09-1.22h-2c-.09,0-.17,0-.23-.03-.09-.02-.17-.05-.24-.09-.17-.11-.26-.3-.26-.55s.1-.44,.29-.55c.07-.04,.14-.07,.23-.09,.07-.02,.14-.03,.21-.03h3.5c1.57,0,2.36,.76,2.36,2.29v7.3c.21,1.12,.81,1.92,1.82,2.41,.79,.39,1.82,.58,3.09,.58h11.92c.07,0,.13,0,.2,.03,.09,.02,.17,.05,.24,.09,.19,.11,.29,.3,.29,.55,0,.27-.1,.46-.29,.55-.07,.04-.16,.07-.24,.09-.07,.02-.13,.03-.2,.03h-12.43c-1.7,0-2.97-.19-3.84-.58-.96-.42-1.77-1.24-2.43-2.43-.3,.34-.59,.67-.89,.98-.36,.41-.7,.76-1.01,1.08-.4,.36-.73,.65-1.01,.86-.33,.24-.57,.35-.74,.35-.79,0-1.17-.53-1.17-1.59,0-.43,.11-.76,.34-1.01,.13-.16,.34-.29,.61-.41,1.19-.48,2.17-1.05,2.99-1.71v-6.9Zm1.14-6.85c-.39,0-.69-.14-.91-.44-.1-.11-.2-.25-.29-.4l-.17-.44c-.44-1.12-.9-2.11-1.39-2.96-.2-.36-.43-.76-.7-1.19-.19-.31-.46-.71-.8-1.21-.09-.16-.13-.29-.13-.38,0-.43,.19-.64,.57-.64,.19,0,.64,.31,1.37,.92l1.23,1.1c.04,.06,.1,.11,.17,.15l.99,.99c.31,.34,.59,.66,.81,.92,.59,.74,.87,1.31,.87,1.72,0,1.24-.54,1.85-1.63,1.85Zm9.58-6.4c0-.1,0-.19,.03-.29,.01-.23,.06-.43,.13-.61,.2-.46,.59-.69,1.16-.69,.61,0,1.01,.23,1.2,.69,.09,.16,.14,.36,.16,.61,.01,.08,.03,.18,.03,.29v3.59h2.84c1.84,0,2.76,.91,2.76,2.75v11.74c0,1.06-.26,1.79-.76,2.2-.41,.35-1.09,.52-2,.52h-8.4c-1.83,0-2.74-.91-2.74-2.72V8.23c0-1.06,.26-1.81,.77-2.23,.41-.35,1.07-.52,1.97-.52h2.86V1.88Zm0,4.92h-1.64c-.79,0-1.19,.45-1.19,1.34v5.07h2.83V6.8Zm0,7.71h-2.83v5.51c0,.91,.4,1.36,1.19,1.36h1.64v-6.87Zm2.7-1.3h2.87v-5.07c0-.89-.4-1.34-1.19-1.34h-1.69v6.41Zm0,8.18h1.69c.79,0,1.19-.46,1.19-1.36v-5.51h-2.87v6.87Z"/>
          <path class="cls-1" d="M280.73,5.3c.07,0,.14,0,.21,.03,.09,.01,.16,.04,.23,.09,.19,.11,.29,.3,.29,.55,0,.27-.1,.45-.29,.55-.07,.04-.14,.06-.23,.09-.07,.02-.14,.03-.21,.03h-8.56c-.09,0-.16,0-.23-.03-.09-.02-.17-.05-.23-.09-.19-.11-.27-.3-.27-.55,0-.27,.1-.46,.29-.55,.07-.04,.16-.07,.24-.09,.06-.02,.13-.03,.2-.03h8.56Zm-.2,18.89c0,1.53-.79,2.29-2.36,2.29h-3.56c-1.56,0-2.34-.76-2.34-2.29v-4.44c0-1.52,.79-2.29,2.34-2.29h3.56c.89,0,1.53,.21,1.89,.64,.31,.35,.47,.9,.47,1.65v4.44Zm-.73-22.98c.09,0,.16,0,.23,.03,.09,.01,.17,.05,.24,.09,.17,.11,.26,.3,.26,.55s-.09,.44-.26,.55c-.07,.04-.16,.07-.24,.09-.07,.02-.14,.03-.23,.03h-6.75c-.09,0-.17,0-.23-.03-.09-.01-.17-.05-.24-.09-.17-.11-.26-.3-.26-.55s.1-.44,.29-.55c.07-.04,.14-.07,.23-.09,.07-.02,.14-.03,.21-.03h6.75Zm0,8.2c.09,0,.16,0,.23,.03,.09,.01,.17,.04,.24,.09,.17,.09,.26,.27,.26,.52,0,.27-.1,.45-.29,.55-.07,.04-.16,.06-.24,.09-.06,.02-.13,.03-.2,.03h-6.75c-.09,0-.17,0-.23-.03-.09-.02-.17-.05-.24-.09-.17-.11-.26-.3-.26-.55s.09-.43,.26-.52c.07-.04,.16-.07,.24-.09,.09-.02,.16-.03,.23-.03h6.75Zm0,4.05c.09,0,.16,.01,.23,.03,.09,.02,.17,.05,.24,.09,.17,.09,.26,.26,.26,.52s-.1,.45-.29,.55c-.07,.04-.16,.06-.24,.09-.06,.02-.13,.03-.2,.03h-6.75c-.09,0-.17,0-.23-.03-.09-.02-.17-.05-.24-.09-.17-.12-.26-.3-.26-.55s.09-.43,.26-.52c.07-.04,.16-.07,.24-.09,.09-.01,.16-.03,.23-.03h6.75Zm-1.82,6.52c0-.81-.37-1.21-1.09-1.21h-.86c-.71,0-1.07,.4-1.07,1.21v3.94c0,.81,.36,1.22,1.07,1.22h.86c.71,0,1.09-.41,1.09-1.22v-3.94Zm3.99-5.68c-.06,0-.13,0-.2-.03-.09,0-.17-.03-.23-.09-.2-.1-.29-.27-.29-.52,0-.27,.09-.46,.29-.58,.06-.04,.14-.07,.23-.09h10.53c1.06,0,1.59,.49,1.59,1.45l-.03,.32-.13,.58c-.16,.58-.36,1.18-.6,1.79-.34,.81-.74,1.61-1.19,2.38-.56,.91-1.2,1.76-1.93,2.55,.76,.74,1.56,1.38,2.36,1.94,.36,.23,.76,.49,1.23,.78,.29,.19,.77,.49,1.43,.87,.27,.15,.41,.36,.41,.64,0,.43-.21,.64-.63,.64-.07,0-.27-.06-.63-.17-.44-.16-.93-.35-1.44-.58-.67-.31-1.34-.66-2-1.04-.81-.49-1.57-1.01-2.29-1.59-.81,.64-1.67,1.21-2.59,1.74-.73,.41-1.47,.76-2.23,1.07l-.91,.35-.67,.2c-.39,.11-.61,.18-.67,.18-.4,0-.6-.23-.6-.67,0-.19,.06-.36,.19-.49l.3-.17c1.19-.5,2.14-.99,2.92-1.45,.93-.58,1.83-1.29,2.7-2.14-.7-.71-1.3-1.41-1.8-2.09-.43-.6-.79-1.17-1.06-1.71-.23-.44-.4-.85-.51-1.22-.1-.31-.14-.55-.14-.72,0-.49,.19-.87,.56-1.16,.3-.24,.66-.35,1.06-.35,.64,0,1.09,.38,1.34,1.13l.37,1.04c.14,.37,.29,.71,.44,1.01,.33,.71,.77,1.44,1.31,2.17,.54-.79,1.06-1.74,1.53-2.87,.5-1.16,.76-2.03,.76-2.61,0-.33-.16-.49-.49-.49h-8.29Zm1.56-10.95c0-1.49,.76-2.23,2.26-2.23h3.33c.87,0,1.49,.21,1.84,.64,.26,.34,.39,.88,.39,1.59v5.16c0,.71,.37,1.07,1.11,1.07,.37,0,.61-.43,.7-1.28,.11-1.25,.51-1.88,1.17-1.88,.8,0,1.21,.39,1.21,1.16,0,.33-.03,.65-.09,.96-.04,.41-.14,.77-.3,1.1-.4,.85-1.07,1.27-2,1.27h-2.16c-.9,0-1.51-.22-1.87-.66-.26-.33-.39-.85-.39-1.56V3.62c0-.77-.36-1.16-1.06-1.16h-.47c-.43,0-.7,.1-.8,.29-.09,.17-.14,.61-.16,1.3-.01,.74-.06,1.35-.13,1.86-.1,.77-.27,1.46-.5,2.09-.27,.75-.64,1.42-1.11,2-.54,.67-1.23,1.24-2.02,1.71-.37,.19-.6,.29-.7,.29-.39,0-.57-.22-.57-.66,0-.19,.13-.44,.41-.72,.77-.74,1.3-1.64,1.59-2.72,.11-.49,.2-1.04,.26-1.69,.03-.5,.04-1.14,.04-1.91v-.93Z"/>
          <path class="cls-1" d="M313.11,5.3c.09,0,.16,0,.23,.03,.09,.01,.17,.04,.23,.09,.17,.11,.27,.3,.27,.55s-.1,.44-.29,.55c-.07,.04-.16,.06-.24,.09-.07,.02-.13,.03-.2,.03h-10.23c-.19,0-.34-.04-.46-.11-.17-.11-.26-.3-.26-.55,0-.27,.09-.46,.26-.55,.07-.04,.14-.07,.23-.09,.07-.02,.14-.03,.23-.03h10.23Zm-.21,18.87c0,1.53-.79,2.29-2.36,2.29h-5.06c-.9,0-1.53-.21-1.9-.64-.29-.35-.43-.9-.43-1.65v-4.29c0-1.53,.77-2.29,2.33-2.29h5.06c1.57,0,2.36,.76,2.36,2.29v4.29Zm-.8-22.95c.07,0,.14,0,.2,.03,.09,.01,.17,.05,.24,.09,.19,.11,.29,.3,.29,.55,0,.27-.1,.46-.29,.55-.07,.04-.16,.07-.24,.09-.06,.02-.13,.03-.2,.03h-8.12c-.09,0-.17,0-.24-.03-.09-.01-.16-.05-.23-.09-.17-.11-.26-.3-.26-.55s.1-.44,.29-.55c.07-.04,.14-.07,.23-.09,.07-.02,.14-.03,.21-.03h8.12Zm0,8.17c.07,0,.14,.01,.2,.04,.09,.01,.17,.04,.24,.09,.19,.09,.29,.28,.29,.55s-.1,.45-.29,.55c-.07,.04-.16,.06-.24,.09-.06,.02-.13,.03-.2,.03h-8.12c-.09,0-.17,0-.24-.03-.09-.02-.16-.05-.23-.09-.17-.11-.26-.3-.26-.55,0-.27,.1-.46,.29-.55,.07-.04,.14-.07,.23-.09,.07-.02,.14-.04,.21-.04h8.12Zm0,4.09c.09,0,.16,.01,.23,.03,.09,.02,.17,.05,.24,.09,.17,.11,.26,.3,.26,.55,0,.27-.1,.45-.29,.55-.07,.04-.16,.06-.24,.09-.06,.02-.13,.03-.2,.03h-8.12c-.09,0-.17,0-.24-.03-.09-.02-.16-.05-.23-.09-.17-.12-.26-.3-.26-.55s.09-.44,.26-.55c.07-.04,.14-.07,.23-.09,.07-.01,.16-.03,.24-.03h8.12Zm-1.92,6.64c0-.79-.36-1.19-1.07-1.19h-2.17c-.73,0-1.1,.39-1.1,1.19v3.79c0,.81,.37,1.22,1.1,1.22h2.17c.71,0,1.07-.41,1.07-1.22v-3.79Zm11.28,5.19c0,.1,0,.19-.03,.29-.01,.27-.06,.49-.14,.66-.21,.54-.61,.81-1.23,.81s-1.03-.26-1.24-.79c-.09-.19-.14-.41-.16-.66-.01-.1-.03-.21-.03-.32V11.18h-4.4c-.09,0-.17,0-.24-.03-.09-.02-.16-.05-.23-.09-.17-.12-.26-.3-.26-.55s.1-.44,.29-.55c.07-.04,.14-.07,.23-.09,.07-.01,.14-.03,.21-.03h4.4V2.08c0-.11,.01-.22,.03-.31,.01-.25,.07-.47,.16-.67,.21-.54,.61-.81,1.21-.81s1.04,.26,1.26,.78c.09,.19,.13,.43,.14,.7,.03,.09,.03,.2,.03,.31v7.77h3.82c.09,0,.17,.01,.24,.03,.09,.02,.16,.05,.23,.09,.17,.11,.26,.3,.26,.55,0,.27-.09,.45-.26,.55-.07,.04-.14,.06-.23,.09-.07,.02-.16,.03-.24,.03h-3.82v14.11Z"/>
        </g>
      </g>
      <g>
        <path d="M209.75,78.03h2.26c2.51,1.67,3.77,3.46,3.77,5.37l-1.51,15.39h.75l2.26-1.79h2.26l3.02,2.51v.71c0,.96-2.26,1.67-6.78,2.15-.51,2.63-1.26,3.94-2.26,3.94l.75,2.14-.75,6.8h.75l5.27-3.58v1.43c-4.02,3.82-6.02,6.8-6.02,8.95v13.96l-.75,.71,.75,.72v1.43l-.75,.71,.75,.72v6.8l-1.51,1.79c-2.01,0-3.76-3.82-5.27-11.45l1.51-.72h.75l.75,.72,.76-.72v-8.59l-1.51-1.43c-4.52,6.92-7.78,10.97-9.8,12.16h-1.51l-1.5-1.43v-2.51c0-2.15,3.51-10.97,10.55-26.48v-.71h-.75c-12.06,8.59-18.84,12.88-20.35,12.88-2.01-.72-3.01-1.43-3.01-2.15v-1.43c5.02,0,14.57-5.6,28.64-16.82v-3.22l.75-15.03c-2.51-.71-3.76-1.43-3.76-2.15l1.5-1.79Zm-1.5,37.22c-5.03,8.59-7.53,13.72-7.53,15.38h1.5c5.52-7.15,8.3-11.45,8.3-12.88v-.72l-1.51-1.79h-.75Zm31.65-31.85h.75l3.01,3.23v18.25h2.26l9.05-3.22,2.26,2.51c0,1.43-4.52,3.1-13.57,5.01l-2.26,14.67,1.51,1.43c3.01-1.43,8.53-2.14,16.58-2.14h.75c3.51,0,6.27,1.43,8.28,4.29v.71c0,.96-4.01,2.03-12.06,3.23l-.75-.72v-.71l.75-2.51h-3.76c-4.02,0-13.32,2.27-27.89,6.8h-4.51l-1.51-1.43v-1.43h3.77c9.03,0,14.31-3.58,15.82-10.74l.75-7.52h-.75c-4.02,1.43-7.78,2.15-11.31,2.15v-2.15c9.05-1.9,13.57-5.49,13.57-10.74v-8.95c0-2.86-1.01-5.13-3.01-6.8v-.72l2.26-2.51Z"/>
        <path d="M348.94,79.47l1.51,2.15-15.83,6.08,5.65,6.08,7.92-2.51c4.77,2.39,7.4,4.18,7.92,5.37-1.76,5.97-4.14,11.09-7.17,15.39v2.86c4.77,0,7.17,2.03,7.17,6.08l-12.06,10.74c12.81,1.91,19.21,5.96,19.21,12.16l-1.5,1.43h-.76c-6.78-6.45-12.43-10.02-16.95-10.74h-4.9l-.75,3.93,.75,.71c-1.26,7.64-2.76,11.93-4.52,12.88-6.02-4.77-9.03-8.11-9.03-10.02h-.76l-5.64,5.37h-.76l-2.26-2.14v-1.43c3.77-5.73,5.65-9.54,5.65-11.45v-.71c-3.26,0-4.89-.48-4.89-1.43v-1.07l17.7-17.9h-.75l-9.05,2.86-1.5-1.43c4.26-3.81,8.03-5.84,11.3-6.08v-5.37h-1.5l-6.4,2.86-3.39-2.15c8.03-3.09,12.06-5.84,12.06-8.23l-3.39-2.51,1.13-2.15h-1.13c-6.28,3.82-10.55,9.43-12.81,16.82-6.28,15.03-15.83,30.42-28.64,46.17l-3.01,1.43-1.89-1.43c14.32-16.69,26.38-36.62,36.17-59.76h-.75l-14.32,5.01-2.64-2.14c0-.72,3.77-2.03,11.31-3.94,3.51-2.38,13.57-6.31,30.14-11.81h3.39Zm-25.62-6.08h1.5l.76,.71,2.63-.71c5.78,1.2,8.67,3.46,8.67,6.8l-.75,.71h-2.26c-1.5-1.9-4.77-3.45-9.8-4.65l-.75-.71v-2.15Zm.75,55.82l1.51,1.79v1.43l-.76,3.93c6.53-5.48,9.8-8.82,9.8-10.02v-3.94h-1.5l-9.05,6.8Zm2.64,10.74c1,1.91,3.13,3.7,6.4,5.37h1.5l.76-7.52v-4.65l-1.51-1.43-7.15,8.23Zm10.93-16.82l.75,7.15h.75l11.31-10.74v-1.43h-2.26l-.75,.71h-.76l-1.13-2.51c-1.5,1.67-3.89,2.51-7.15,2.51l-.75,4.3Zm.75-23.26v3.58h4.14l1.51,1.79v.71l-5.65,6.8v.71c4.77,0,8.03-3.34,9.8-10.02,1,0,1.51-1.67,1.51-5.01v-1.08l-1.51-2.14c-6.53,1.67-9.8,3.22-9.8,4.65Z"/>
        <path d="M405.23,102.37h3.39l3.76,4.3v1.43c-6.77,10.5-12.06,17.18-15.82,20.04l-1.51-1.43v-1.43c6.78-7.15,11.06-13.36,12.82-18.6l-2.64-2.15v-2.15Zm21.47-22.9c5.02,.48,7.53,2.63,7.53,6.44l-1.88,17.9h.75c3.52-2.86,7.03-4.53,10.56-5.01,1.25,0,2,1.2,2.26,3.58l-13.57,5.73-.75,5.01v5.73l8.67-3.58,1.88,3.58c0,2.86-4.52,9.07-13.56,18.61v.71l10.17-1.43h3.39c5.77,1.43,8.67,3.11,8.67,5.01v1.43l-1.5,1.43c-4.29,0-7.8-.95-10.56-2.86h-.75c-2.01,0-8.67,1.92-19.97,5.73h-3.01l-3.39-2.86v-.71c0-.95,3.01-2.38,9.05-4.3l3.76-4.29v-.71c-2.01-2.39-4.89-3.58-8.67-3.58l-.75-.71v-.71c0-1.43,1.51-2.15,4.52-2.15,4.76-2.38,7.15-4.77,7.15-7.15l1.13-6.45v-.71l-1.88-1.43c-.75,1.92-4.14,3.58-10.18,5.01h-3.39v-2.86c5.78,0,11.18-2.86,16.21-8.59l.75-20.75-2.64-1.43-1.5,1.43-.76-2.15c.76-1.9,1.51-2.86,2.26-2.86Zm-2.26,50.81v.71h2.26v-2.86h-.75l-1.51,2.15Zm6.42-2.86h.75l3.39-3.58v-1.43c-2.01,0-3.39,1.67-4.14,5.01Z"/>
      </g>
      <g>
        <g>
          <path class="cls-1" d="M219.87,205.01c-1.03,.18-1.76,.31-2.21,.39-.67,.11-1.11,.17-1.31,.17-.71,0-1.06-.42-1.06-1.25,0-.48,.17-.82,.53-1.03,.18-.11,.88-.17,2.07-.17,.4-.45,.78-.93,1.17-1.45,.3-.37,.57-.73,.82-1.06-.31-.08-.6-.32-.84-.75-.43-.76-.9-1.48-1.43-2.17-.43-.56-.93-1.15-1.52-1.78l-.19-.25c-.05-.11-.09-.23-.09-.33,0-.41,.2-.61,.61-.61,.08,0,.2,.05,.37,.14,.15,.08,.34,.18,.56,.33l1.01,.72,.31-.5c.15-.24,.29-.48,.42-.72,.4-.7,.75-1.47,1.1-2.28,.44-1.05,.96-1.59,1.54-1.59,.4,0,.75,.12,1.06,.37,.38,.26,.56,.6,.56,1.03,0,.11-.01,.2-.02,.28-.02,.09-.06,.2-.14,.33-.15,.24-.47,.66-.96,1.25-.48,.57-1.01,1.16-1.57,1.75l-1.03,1.06,.98,.86c.18,.18,.33,.34,.45,.47,.13,.15,.21,.26,.25,.33,.35-.52,.61-.92,.78-1.23l.96-1.78c.16-.33,.32-.56,.47-.69,.23-.23,.51-.33,.84-.33,1.05,0,1.57,.47,1.57,1.42,0,.37-.58,1.23-1.73,2.58-1.48,1.7-2.86,3.21-4.15,4.53,2.01-.11,3.39-.21,4.12-.31l-.59-1.55c-.05-.17-.09-.27-.09-.31,0-.39,.2-.59,.59-.59,.12,0,.34,.16,.7,.47,.34,.32,.7,.69,1.06,1.14,.93,1.15,1.41,1.99,1.41,2.53,0,.93-.46,1.39-1.38,1.39-.51,0-.85-.23-1.03-.67l-.31-1.17-1.97,.45v10.62c0,.09-.01,.18-.02,.25-.02,.23-.06,.42-.14,.59-.2,.46-.6,.7-1.18,.7s-.97-.24-1.17-.7c-.08-.17-.13-.36-.14-.59-.02-.07-.03-.16-.03-.25v-10.06Zm-1.03,1.72c.31,.23,.47,.52,.47,.89,0,.61-.28,1.75-.84,3.42-.58,1.67-1.11,2.87-1.57,3.61-.2,.33-.42,.5-.64,.5-.41,0-.62-.2-.62-.61,0-.06,.02-.17,.06-.34l.37-1.41c.26-1.11,.46-2.83,.61-5.15,.05-.82,.47-1.22,1.26-1.22,.32,0,.62,.1,.9,.3Zm5.96,.14c.54,.78,1.05,1.68,1.54,2.7,.51,1.06,.76,1.77,.76,2.14,0,.89-.49,1.33-1.48,1.33-.85,0-1.29-.47-1.35-1.42-.13-1.56-.38-2.97-.75-4.22-.05-.23-.09-.37-.09-.45,0-.41,.21-.61,.64-.61,.23,0,.47,.18,.73,.53Zm10.25,.33v7.29h5.8c.08,0,.15,.01,.23,.03,.09,.02,.17,.05,.25,.09,.2,.09,.31,.27,.31,.53,0,.24-.1,.42-.28,.53-.08,.03-.16,.06-.26,.08-.08,.02-.16,.03-.25,.03h-14.88c-.08,0-.15-.01-.21-.03-.1-.02-.18-.05-.26-.08-.2-.1-.31-.27-.31-.53s.11-.44,.31-.53c.08-.04,.16-.06,.26-.09,.06-.02,.14-.03,.21-.03h6.12v-7.29h-4.32c-.08,0-.15,0-.23-.03-.09,0-.17-.02-.25-.05-.2-.11-.31-.3-.31-.56,0-.24,.11-.41,.31-.53,.08-.04,.16-.06,.25-.08,.08-.02,.15-.03,.23-.03h11.96c.08,0,.15,.01,.23,.03,.1,.02,.18,.04,.26,.08,.2,.11,.3,.29,.3,.53,0,.26-.1,.44-.3,.53-.08,.04-.16,.06-.26,.08-.08,.02-.15,.03-.23,.03h-4.67Zm5.09-15.29c.1,0,.18,.01,.26,.03,.1,.02,.17,.05,.25,.09,.19,.11,.28,.28,.28,.53s-.1,.41-.3,.5c-.08,.06-.16,.09-.26,.09-.08,.02-.15,.03-.23,.03h-13.17c-.09,0-.17-.01-.25-.03-.1,0-.18-.03-.26-.09-.18-.09-.28-.26-.28-.5,0-.26,.11-.44,.31-.53,.08-.04,.16-.06,.25-.09,.08-.02,.15-.03,.23-.03h13.17Zm-9.1,3.26c0,.3-.26,.83-.78,1.61-.2,.3-.46,.64-.78,1.03-.11,.17-.24,.34-.39,.53l-.34,.44s-.05,.04-.05,.06c0,.02-.01,.04-.05,.05l-.25,.33c-.15,.2-.23,.33-.23,.39,0,.13,.12,.31,.37,.55l.84,.83c.38,.37,.69,.71,.95,1.03,.34,.39,.6,.72,.78,1,.21,.33,.31,.6,.31,.81,0,.95-.51,1.42-1.52,1.42-.39,0-.69-.11-.89-.33-.08-.09-.15-.2-.23-.33l-.14-.31c-.51-1.26-1.16-2.6-1.96-4l-.12-.25c-.03-.11-.05-.22-.05-.33,0-.18,.08-.42,.23-.72,.33-.69,.61-1.34,.84-1.98,.11-.28,.24-.61,.37-1l.39-1.2c.19-.57,.59-.86,1.2-.86,1.01,0,1.52,.41,1.52,1.23Zm4.43-.03c0,.3-.18,.74-.56,1.33-.13,.22-.3,.46-.51,.72l-.92,1.23c-.1,.09-.17,.19-.23,.28l-.39,.53c-.12,.15-.17,.24-.17,.28,0,.08,.04,.17,.11,.28l.62,.67c.28,.3,.52,.56,.73,.81,.33,.37,.62,.7,.86,1,.3,.39,.54,.73,.71,1,.2,.33,.3,.58,.3,.75,0,.89-.49,1.34-1.48,1.34-.38,0-.67-.11-.87-.33-.09-.11-.21-.33-.37-.64-.46-1.11-.82-1.91-1.06-2.39-.18-.34-.54-.93-1.06-1.78-.16-.26-.25-.48-.25-.67,0-.2,.09-.48,.28-.83,.26-.52,.56-1.25,.89-2.2,.13-.33,.25-.67,.34-1l.19-.59c.23-.68,.67-1.03,1.31-1.03,1.01,0,1.52,.41,1.52,1.25Zm4.15-.95c.38,.24,.56,.58,.56,1.03,0,.48-.88,1.79-2.67,3.92l-.16,.22c-.02,.05-.03,.11-.03,.17,0,.11,.12,.28,.33,.5,.3,.28,.59,.57,.87,.89,.35,.37,.68,.72,.96,1.06,.71,.83,1.06,1.42,1.06,1.78,0,.92-.48,1.39-1.46,1.39-.37,0-.66-.13-.86-.39-.19-.26-.62-1.06-1.29-2.39-.04-.09-.09-.18-.14-.28-.02-.05-.05-.11-.09-.17,0-.02-.01-.04-.03-.05l-.33-.67c-.23-.45-.43-.83-.61-1.14-.1-.13-.14-.31-.14-.55,0-.05,.06-.28,.21-.69l1.63-4.2c.21-.46,.62-.69,1.2-.69,.35,0,.68,.09,.98,.28Z"/>
          <path class="cls-1" d="M280.06,207.98v-11.29c0-1.65,.92-2.47,2.77-2.47h3.16v-1.75c0-.1,.01-.18,.03-.25,.02-.24,.08-.45,.17-.61,.21-.48,.64-.72,1.26-.72s1.04,.24,1.29,.72c.08,.17,.12,.37,.14,.61,.02,.08,.02,.16,.02,.25v1.75h3.06v-1.75c0-.1,0-.19,.02-.28,.02-.22,.08-.42,.17-.59,.23-.48,.66-.72,1.29-.72s1.03,.24,1.26,.72c.08,.17,.12,.37,.14,.61,.02,.08,.03,.16,.03,.25v1.75h3.19c1.85,0,2.77,.82,2.77,2.47v11.29h1.74c.08,0,.15,.01,.21,.03,.1,.02,.18,.05,.26,.09,.2,.09,.31,.27,.31,.53,0,.24-.1,.42-.28,.53-.14,.07-.3,.11-.51,.11h-24.21c-.08,0-.15,0-.23-.03-.11-.02-.19-.04-.25-.08-.18-.11-.29-.29-.31-.53,.02-.24,.13-.41,.31-.53,.05-.04,.14-.06,.25-.09,.08-.02,.15-.03,.23-.03h1.69Zm7.31,4.95c-.53,.45-1.5,.98-2.94,1.62-.71,.31-1.44,.61-2.21,.89-.63,.24-1.26,.46-1.87,.64-.51,.15-.97,.27-1.38,.36-.35,.08-.58,.11-.68,.11-.41,0-.61-.21-.61-.64,0-.2,.06-.36,.19-.47,.06-.05,.13-.1,.23-.14l.23-.11c1.12-.45,2.21-1.01,3.28-1.7,1.24-.8,2.3-1.66,3.19-2.58,.56-.57,1.05-.87,1.46-.87,.43,0,.81,.14,1.15,.42,.41,.35,.61,.82,.61,1.39,0,.39-.21,.75-.64,1.08Zm-1.38-12.04v-5.39h-1.73c-.81,0-1.2,.4-1.2,1.19v4.2h2.93Zm0,7.09v-5.81h-2.93v5.81h2.93Zm5.98-7.09v-5.39h-3.06v5.39h3.06Zm0,7.09v-5.81h-3.06v5.81h3.06Zm1.71,2.39c.33-.27,.72-.41,1.15-.41,.28,0,.54,.08,.78,.25,.2,.15,.68,.57,1.42,1.28,1.56,1.5,3.44,2.76,5.66,3.76,.32,.13,.47,.35,.47,.67,0,.41-.2,.61-.61,.61-.51,0-1.47-.26-2.91-.78-1.21-.45-2.27-.88-3.17-1.31-1.44-.67-2.41-1.24-2.91-1.7-.33-.31-.51-.64-.51-.97,0-.57,.2-1.04,.62-1.39Zm4.22-9.48v-4.2c0-.8-.4-1.19-1.2-1.19h-1.82v5.39h3.02Zm-3.02,1.28v5.81h3.02v-5.81h-3.02Z"/>
          <path class="cls-1" d="M346.12,214.96c0,.11-.01,.21-.03,.31-.02,.24-.08,.45-.17,.61-.2,.45-.63,.67-1.28,.67s-1.1-.22-1.32-.67c-.1-.17-.15-.37-.17-.61-.01-.09-.02-.19-.02-.31v-13.79l-.73,.73c-.33,.35-.66,.66-.96,.92-.37,.33-.69,.59-.95,.78-.32,.22-.55,.33-.68,.33-.41,0-.61-.2-.61-.61,0-.19,.16-.46,.51-.81,2.46-2.71,4.37-6.05,5.74-10.04l.17-.47c.09-.19,.18-.33,.28-.45,.28-.33,.68-.5,1.2-.5,1.21,0,1.82,.5,1.82,1.5,0,.48-.32,1.26-.98,2.34-.24,.41-.54,.87-.89,1.39l-.92,1.31v17.38Zm8.01-18.02h-1.03c-.73,1.04-1.62,2.15-2.69,3.34-.55,.61-1,1.09-1.38,1.45-.45,.39-.76,.59-.92,.59-.41,0-.62-.2-.62-.61,0-.17,.14-.43,.43-.78l.56-.75c.35-.5,.7-1.04,1.03-1.61,.45-.8,.85-1.62,1.2-2.48,.45-1.04,.82-2.1,1.1-3.2l.19-.67c.1-.24,.19-.44,.28-.59,.28-.39,.7-.58,1.24-.58,.45,0,.86,.13,1.24,.39,.43,.3,.64,.69,.64,1.17,0,.35-.17,.85-.51,1.5-.25,.46-.56,.98-.96,1.56h10.48c.08,0,.15,.01,.23,.03,.1,.02,.17,.05,.25,.09,.2,.09,.31,.27,.31,.53,0,.24-.11,.41-.31,.53-.08,.04-.15,.06-.25,.09-.08,.02-.15,.03-.23,.03h-7.29v5.42h6.64c.08,0,.15,.01,.23,.03,.1,.02,.17,.05,.25,.09,.2,.09,.31,.27,.31,.53,0,.24-.11,.42-.31,.53-.08,.04-.15,.06-.25,.09-.08,.02-.15,.03-.23,.03h-6.64v5.42h6.64c.08,0,.15,.01,.23,.03,.1,.02,.17,.05,.25,.09,.2,.09,.31,.27,.31,.53,0,.24-.11,.42-.31,.53-.08,.04-.15,.07-.25,.09-.08,.02-.15,.03-.23,.03h-6.64v4.56c0,.13-.01,.24-.02,.33-.02,.24-.08,.45-.17,.61-.23,.45-.67,.67-1.32,.67s-1.07-.22-1.28-.67c-.1-.17-.15-.37-.17-.61-.02-.09-.03-.2-.03-.33v-17.96Z"/>
          <path class="cls-1" d="M413.04,213.54c0,1.57-.92,2.36-2.75,2.36h-5.49c-1.83,0-2.74-.79-2.74-2.36v-6.75c0-1.57,.91-2.36,2.74-2.36h5.49c1.83,0,2.75,.79,2.75,2.36v6.75Zm-2.84-6.59c0-.83-.42-1.25-1.26-1.25h-2.75c-.84,0-1.26,.42-1.26,1.25v6.42c0,.83,.42,1.25,1.26,1.25h2.75c.84,0,1.26-.42,1.26-1.25v-6.42Zm12.17-8.12c0,1-.27,1.7-.78,2.11-.45,.35-1.17,.53-2.16,.53h-10.53c-1.97,0-2.94-.88-2.94-2.64v-4.51c0-1,.26-1.7,.78-2.11,.45-.35,1.17-.53,2.16-.53h10.53c1.96,0,2.94,.88,2.94,2.64v4.51Zm-3.03-4.59c0-.87-.44-1.31-1.31-1.31h-7.79c-.86,0-1.29,.44-1.29,1.31v4.64c0,.87,.43,1.31,1.29,1.31h7.79c.87,0,1.31-.44,1.31-1.31v-4.64Zm6.89,19.3c0,1.57-.91,2.36-2.74,2.36h-5.58c-1.83,0-2.74-.79-2.74-2.36v-6.75c0-1.57,.91-2.36,2.74-2.36h5.58c1.83,0,2.74,.79,2.74,2.36v6.75Zm-2.93-6.59c0-.83-.42-1.25-1.27-1.25h-2.71c-.85,0-1.27,.42-1.27,1.25v6.42c0,.83,.42,1.25,1.27,1.25h2.71c.85,0,1.27-.42,1.27-1.25v-6.42Z"/>
        </g>
        <rect class="cls-1" x="261.21" y="192.93" width="1.1" height="24.29"/>
        <rect class="cls-1" x="196.92" y="192.93" width="1.1" height="24.29"/>
        <rect class="cls-1" x="321.22" y="192.93" width="1.1" height="24.29"/>
        <rect class="cls-1" x="381.22" y="192.93" width="1.1" height="24.29"/>
        <rect class="cls-1" x="444.09" y="192.93" width="1.1" height="24.29"/>
      </g>
      <g>
        <g>
          <path d="M139.42,289.05c0-.12-.11-.18-.3-.18h-5.31c-.2-.06-.33-.13-.4-.19-.06-.12-.1-.21-.1-.28v-8.13c0-.13,.03-.21,.1-.28,.13-.06,.23-.1,.3-.1h5.41c.19,0,.3-.1,.3-.28v-3.27h-6.5v-2.06h21.76v2.06h-6.4v3.09c.06,.18,.13,.28,.19,.28h5.31c.33-.06,.49,.09,.49,.46v8.22c-.06,.31-.23,.47-.49,.47h-5.31c-.13,.06-.19,.12-.19,.18v3.92h6.99v2.06h-22.94v-2.06h7.09v-3.92Zm6.69,3.92v-5.7c.06-.31,.23-.46,.49-.46h5.21c.19,0,.3-.1,.3-.29v-4.48c0-.18-.11-.28-.3-.28h-5.21c-.33,0-.49-.18-.49-.56v-4.86h-4.53v5.04c-.06,.19-.13,.31-.19,.38-.2,.06-.33,.13-.4,.18h-5.21c-.19,0-.3,.1-.3,.28v4.3c0,.19,.11,.29,.3,.29h5.21c.19,0,.33,.03,.4,.09,.06,.19,.13,.31,.19,.38v5.7h4.53Z"/>
          <path d="M162.48,286.16c-.32,3.79-1.21,6.82-2.66,9.06l-2.06-.66c1.63-2.74,2.56-5.6,2.75-8.6l1.97,.19Zm-3.44-6.45c1.18,.62,2.49,1.49,3.93,2.61l-1.28,1.69c-1.5-1.25-2.78-2.09-3.84-2.53l1.18-1.77Zm.39-5.99c1.25,.69,2.67,1.69,4.24,2.99l-1.38,1.69c-1.64-1.37-2.99-2.36-4.03-2.99l1.17-1.69Zm9.45,0v10.47c-.26,5.24-1.87,9.01-4.82,11.31l-1.77-1.31c2.96-1.92,4.46-5.32,4.53-10.18v-10.29h2.06Zm-2.66,5.51c-.39,3.68-.82,6.55-1.28,8.6l-1.97-.38c.78-3.17,1.21-6.01,1.28-8.5l1.97,.28Zm5.51,8.04h-1.87l-.1-8.32,1.87-.18,.1,8.5Zm2.85-13.08v21.03h-2.06v-21.03h2.06Zm2.96,13.18h-1.87l-.29-8.32,1.87-.19,.29,8.51Zm2.75-13.74v21.96h-2.06v-21.96h2.06Z"/>
          <path d="M184.08,283.73v-2.15h10.14v-8.14h2.35v8.14h10.23v2.15h-10.23v12.15h-2.35v-12.15h-10.14Z"/>
          <path d="M221.22,284.19c-.13,.31-.24,.66-.3,1.03-1.83,4.36-5.15,7.75-9.93,10.18l-1.58-1.68c5.77-2.62,9.26-6.94,10.44-13h-9.64v-2.15h9.84c.06-.37,.1-.74,.1-1.12v-3.55h2.36v3.55c-.06,.38-.1,.75-.1,1.12h9.84v2.15h-9.55c.13,.94,.3,1.78,.49,2.53,1.31,3.99,4.62,7.6,9.94,10.85l-1.97,1.49c-.53-.38-.99-.69-1.39-.94-4.46-3.24-7.31-6.73-8.56-10.47Z"/>
          <path d="M235.82,282.23c0-.25,.13-.37,.4-.37h20.86l1.77,.84c0,1.18-.3,2.56-.89,4.12l-1.87-.57c.4-1.3,.56-2.05,.49-2.24,0-.19-.1-.28-.29-.28h-18.31c-.14-.06-.2,0-.2,.18v2.43h-1.97v-4.12Zm13.78,11.68c-.33,.87-.82,1.44-1.47,1.69-.46,.18-.92,.28-1.39,.28-.52-.06-1.41-.21-2.66-.47v-1.96c-3.02,1.05-5.44,1.68-7.28,1.87l-.69-1.87c4.4-.56,8.36-1.81,11.9-3.74-.06-.38-.13-.69-.19-.94-4.06,2.18-7.68,3.4-10.82,3.64l-.69-1.87c3.81-.37,7.32-1.43,10.53-3.17-.27-.25-.53-.47-.8-.66-3.34,1.74-6.3,2.64-8.86,2.71l-.58-1.77c2.42-.19,4.85-.75,7.28-1.69h-5.02v-1.49h16.44v1.49h-7.29c.46,.38,.83,.78,1.09,1.21,.72,.94,1.12,1.49,1.18,1.69,1.84,2.24,4.43,3.92,7.77,5.04l-1.28,1.78c-2.62-1.13-4.82-2.53-6.59-4.21,0,1-.19,1.81-.59,2.43Zm-3.55-20.47h2.17v1.21h9.84v1.87h-21.84v-1.87h9.84v-1.21Zm9.06,7.66h-16.24c-.13,0-.19-.1-.19-.28v-3.46c.06-.12,.13-.18,.19-.18h16.24c.19,.06,.29,.13,.29,.18v3.46c0,.18-.1,.28-.29,.28Zm-14.47-2.43q-.06,0,0,0v.94h12.7l.1-.1v-.84h-12.79Zm7.37,12.9c-1.44,.69-2.69,1.31-3.73,1.87,1.44,.31,2.35,.38,2.75,.18,.32-.18,.59-.49,.78-.94,.13-.37,.19-.74,.19-1.12Zm8.47-3.46c-1.05,.82-2.3,1.62-3.74,2.43l-1.09-1.58c1.64-.94,2.89-1.72,3.74-2.34l1.09,1.49Z"/>
          <path d="M261.94,288.4l-.3-2.05,8.27-.56v-2.81c-1.7,.18-3.38,.31-5.02,.38l-.59-2.25c6.63-.12,11.91-.77,15.84-1.96l.7,2.05c-1.77,.43-4.67,.94-8.66,1.49v2.99l11.71-.74,.1,2.05-11.8,.84v4.3c0,.38,.13,.69,.39,.94,.2,.18,.49,.28,.89,.28h7.77c.19,.06,.43,0,.69-.18,.13-.06,.24-1.21,.3-3.46l2.26,.38c-.19,2.81-.43,4.33-.69,4.58-.59,.56-1.12,.84-1.57,.84h-10.04c-.59-.06-1.12-.31-1.58-.74-.45-.51-.69-.97-.69-1.41v-5.42l-7.97,.46Zm9.84-14.86h2.27v1.87h8.65l1.98,.94c-.14,1.37-.59,3.02-1.39,4.96l-1.97-.66c.53-1.56,.8-2.53,.8-2.9,0-.18-.11-.28-.3-.28h-17.52c-.13-.06-.19,0-.19,.18v3.36h-2.16v-5.22c0-.26,.13-.38,.39-.38h9.45v-1.87Z"/>
          <path d="M298.38,284.01v1.68h-11.9v-1.68h11.9Z"/>
          <path d="M312.99,284.57h-2.16v-3.36c-3.61,2.3-6.83,3.74-9.64,4.3l-.99-1.97c3.34-.74,6.4-1.99,9.15-3.74h-8.75v-1.96h10.23v-1.49c-3.15,.06-5.8,.09-7.98,.09l-.19-1.96c7.68,.12,13.78-.21,18.31-1.03l.29,1.97c-1.5,.31-3.93,.56-7.28,.74-.4,0-.73,.03-.99,.1v1.59h10.33v1.96h-8.95c2.49,1.69,5.61,2.9,9.35,3.64l-1.09,1.87c-3.6-.87-6.83-2.24-9.64-4.11v3.36Zm-7.48,11.13h-2.16v-10.1c0-.25,.1-.37,.29-.37h16.83c.32,.06,.49,.21,.49,.46v10.01h-2.17v-1.13h-13.29v1.13Zm13.29-6.73v-1.5c0-.18-.1-.28-.29-.28h-12.7c-.27,0-.37,.1-.3,.28v1.5h13.29Zm-13.29,1.96v1.69h13.29v-1.69h-13.29Z"/>
          <path d="M327.2,279.52c1.12,.69,2.36,1.59,3.74,2.71l-1.38,1.59c-1.39-1.18-2.6-2.05-3.64-2.61l1.28-1.69Zm3.64,6.27c-.46,3.99-1.42,7.14-2.86,9.44l-2.06-.56c1.77-2.99,2.69-6.01,2.75-9.07l2.17,.19Zm-3.26-11.68c1.18,.62,2.49,1.49,3.95,2.61l-1.28,1.69c-1.52-1.25-2.79-2.09-3.84-2.53l1.17-1.77Zm4.92,14.95l-1.67-1.31c2.1-1.61,3.73-3.39,4.91-5.32h-3.74v-1.87h4.04v-2.71h-3.45v-1.87h3.45v-2.33h2.06v2.33h4.53v-2.33h2.06v2.33h4.04v1.87h-4.04v2.71h4.73v1.87h-4.83c1.25,1.93,2.89,3.68,4.92,5.24l-1.87,1.12c-1.05-.94-1.87-1.71-2.46-2.33v3.83c-.06,.38-.23,.56-.49,.56h-7.57v.85c0,.62,.1,1.05,.29,1.3,.19,.31,.49,.47,.88,.47h6.99c.72,0,1.21-.23,1.48-.66,.19-.38,.29-1.15,.29-2.33l2.06,.28c-.13,1.68-.42,2.83-.88,3.45-.66,.75-1.38,1.13-2.16,1.13h-8.17c-.99-.06-1.71-.31-2.17-.75-.45-.38-.69-1.02-.69-1.96v-6.08c-.91,1.06-1.77,1.9-2.56,2.53Zm11.22-4.48v-.1c-.46-.74-.88-1.43-1.28-2.05h-4.43c-.46,.81-.92,1.53-1.38,2.15h7.08Zm-6.59,4.4h5.8c.13,0,.19-.1,.19-.29v-2.05c.06-.12,0-.18-.19-.18h-5.61c-.13-.06-.19,0-.19,.18v2.34Zm5.5-8.42v-2.71h-4.53v2.71h4.53Z"/>
          <path d="M360.8,289.33c-1.71,2.38-4.14,4.4-7.29,6.07l-1.57-1.68c5.84-2.74,9.28-7.29,10.33-13.65h-10.04v-2.15h10.23v-4.2h2.27v4.2h10.23v2.15h-10.04c.06,.44,.13,.85,.19,1.23,1.52,4.86,4.96,9.09,10.34,12.71l-1.97,1.49c-1.25-.94-2.3-1.77-3.15-2.53-3.29-3.05-5.51-6.19-6.7-9.44-.72,2.12-1.68,4.05-2.85,5.79Zm2.35-.09c1.52,1.92,2.76,3.64,3.74,5.14l-1.87,1.02c-1.25-1.99-2.46-3.67-3.63-5.04l1.76-1.12Z"/>
          <path d="M382.88,295.5h-2.27v-10.93c.06-.49,.33-.75,.78-.75h6.89v-4.48h-10.23v-2.05h10.23v-3.64h2.27v3.64h10.23v2.05h-10.23v4.48h7.18c.53-.05,.78,.19,.78,.75v10.93h-2.26v-1.02h-13.38v1.02Zm13.38-3.09v-6.26c0-.19-.1-.28-.3-.28h-12.79c-.19,0-.29,.09-.29,.28v6.26h13.38Z"/>
          <path d="M404.07,289.81v-1.87h10.73v-1.41h-7.28c-.53,0-.78-.21-.78-.64v-6.92c-.66,.62-1.21,1.12-1.68,1.49l-1.68-1.21c2.11-1.56,3.68-3.45,4.73-5.7l1.77,.84c-.27,.56-.53,1.03-.8,1.41h6.01c.53-.94,.88-1.69,1.07-2.25l1.98,.94c-.2,.31-.43,.74-.69,1.31h7.97l-.19,1.77h-8.27v1.3h7.87v1.78h-7.87v1.21h7.97v1.77h-7.97v1.12h8.46v1.77h-8.46v1.41h9.34v1.87h-8.65c2.69,1.56,5.8,2.61,9.35,3.17l-.99,1.87c-.46-.12-.82-.21-1.09-.28-2.56-.69-5.21-1.71-7.97-3.09v4.21h-2.17v-4.49c-3.68,2.05-7.08,3.28-10.23,3.64l-.78-1.96c3.55-.51,6.79-1.53,9.74-3.09h-9.45Zm10.73-12.24h-5.71c-.19,0-.29,.09-.29,.28v1.02h6v-1.3Zm0,3.09h-6v1.21h6v-1.21Zm0,2.99h-6v.84c0,.19,.1,.28,.29,.28h5.71v-1.12Z"/>
          <path d="M432.06,295.78h-2.06v-21.12c.06-.43,.29-.66,.69-.66h20.56c.46,.06,.69,.28,.69,.66v21.12h-2.06v-.94h-17.81v.94Zm5.12-5.79h-4.24v-1.68h11.81v-1.03l-11.22,.38-.19-1.77,6.69-.19v-1.02h-6.09c-.2-.06-.3-.13-.3-.19v-5.32c0-.19,.1-.29,.3-.29h6.09v-.74h-6.88v-1.49h6.88v-.84h-7.68c-.19,0-.29,.09-.29,.28v17.01h6.2c-.8-1-1.48-1.68-2.07-2.05l.99-1.03Zm2.85-9.72h-4.43c-.06,0-.1,.03-.1,.1v.64h4.53v-.74Zm0,2.15h-4.53v.74c0,.06,.03,.1,.1,.1h4.43v-.84Zm-1.67,10.65h5.31c-.53-.06-1.12-.18-1.77-.38v-1.87c.8,.26,1.48,.38,2.07,.38,.19,.06,.39,0,.59-.18,.13-.13,.19-.31,.19-.56v-.47h-6.99c.66,.51,1.31,1.12,1.97,1.87l-1.38,1.21Zm8.36-2.15c0,.44-.1,.78-.3,1.03-.32,.49-.82,.87-1.47,1.12h4.92v-17.01c0-.19-.1-.28-.3-.28h-7.58v.84h6.79v1.49h-6.79v.74h6.11c.13,0,.19,.1,.19,.29v5.32c-.06,.13-.13,.19-.19,.19h-.29c.59,.62,1.18,1.4,1.76,2.33l-1.38,.94c-.19-.31-.39-.56-.59-.75h-.88v1.13h2.66v1.68h-2.66v.94Zm-4.73-9.91h4.43v-.74h-4.43v.74Zm0,2.25h4.43v-.84h-4.43v.84Zm4.43,1.41h-4.43v1.02l4.24-.18c-.19-.06-.32-.19-.39-.38l.58-.46Z"/>
          <path d="M456.5,292.14c-.99-1.56-1.48-4.3-1.48-8.22,.06-3.36,.62-5.79,1.68-7.29,1.05-1.25,2.4-1.87,4.03-1.87s2.99,.66,3.84,1.96c1.05,1.56,1.58,3.97,1.58,7.2-.06,4.05-.62,6.86-1.68,8.42-.72,1.24-1.97,1.86-3.74,1.86-1.97,0-3.38-.68-4.22-2.05Zm6.49-14.02c-.66-.94-1.41-1.41-2.27-1.41-1.04-.05-1.87,.29-2.46,1.03-.78,1.12-1.17,3.18-1.17,6.17,.06,3.24,.42,5.55,1.07,6.91,.53,.94,1.38,1.41,2.56,1.41,.92-.06,1.71-.59,2.36-1.59,.66-1.12,.99-3.36,.99-6.73-.08-2.92-.43-4.86-1.09-5.79Z"/>
          <path d="M470.92,293.91h-2.07v-18.97h5.02c1.52,0,2.76,.56,3.74,1.69,.78,1.05,1.18,2.56,1.18,4.48,.06,1.69-.4,2.99-1.38,3.92-.92,.82-2.11,1.21-3.55,1.21h-2.95v7.66Zm4.91-10.37c.59-.49,.89-1.31,.89-2.43,.06-1.43-.2-2.46-.8-3.09-.59-.74-1.6-1.12-3.04-1.12h-1.97v7.38h1.97c1.38,.06,2.35-.19,2.95-.75Z"/>
          <path d="M487,292.24c1.04-.06,1.8-.41,2.27-1.03,.45-.81,.69-2.24,.69-4.3v-11.96h2.06v11.96c-.06,2.49-.43,4.33-1.09,5.51-.85,1.18-2.16,1.77-3.93,1.77s-3.05-.56-3.84-1.68c-.8-1.25-1.18-3.12-1.18-5.61v-11.96h2.06v11.96c0,2,.24,3.4,.69,4.2,.46,.75,1.21,1.13,2.27,1.13Z"/>
          <path d="M500.42,292.14c.85,0,1.61-.28,2.27-.84,.59-.62,.88-1.34,.88-2.15-.06-1.25-1.31-2.64-3.74-4.2-2.82-1.87-4.24-3.64-4.24-5.33-.06-1.18,.3-2.25,1.09-3.18,.85-1.12,2.06-1.68,3.64-1.68,2.16,0,3.97,1.25,5.41,3.74l-1.38,1.49c-.59-1.13-1.12-1.9-1.57-2.34-.59-.61-1.42-.94-2.46-.94-.78,0-1.41,.29-1.87,.85-.53,.56-.78,1.25-.78,2.05,0,1.12,1.38,2.56,4.13,4.3,2.56,1.62,3.84,3.36,3.84,5.24,0,1.37-.48,2.56-1.47,3.55-1.05,.94-2.3,1.41-3.74,1.41-2.23,0-4.03-1.31-5.41-3.92l1.28-1.5c1.31,2.31,2.69,3.46,4.13,3.46Z"/>
        </g>
        <g>
          <g>
            <path d="M.59,337.21c-.13-.62-.32-1.31-.59-2.05l2.46-.19c1.71-2.12,3.34-4.42,4.92-6.91l1.77,1.12c-.92,1.49-2.2,3.36-3.84,5.61l12.79-.84c-.27-.38-1.31-1.41-3.15-3.09l1.67-1.41c2.96,2.81,5.22,5.17,6.79,7.11l-1.77,1.21c-.53-.69-1.12-1.33-1.76-1.96l-19.3,1.4Zm4.24,12.8H2.56v-10c.06-.51,.33-.75,.8-.75H20.08c.53-.05,.78,.19,.78,.75v10h-2.26v-1.02H4.83v1.02Zm13.78-3.09v-5.32c0-.19-.11-.28-.3-.28H5.12c-.19,0-.29,.09-.29,.28v5.32h13.78Z"/>
            <path d="M27.1,328.61c.92,.69,1.97,1.53,3.15,2.53l-1.28,1.4c-1.25-1.05-2.3-1.87-3.15-2.43l1.28-1.49Zm-.1,5.7c.92,.57,1.9,1.34,2.96,2.34l-1.28,1.4c-1.12-1.05-2.07-1.81-2.86-2.24l1.18-1.5Zm3.25,6.55c-.26,3.55-1.07,6.45-2.46,8.7l-1.97-.56c1.58-2.62,2.4-5.36,2.46-8.23l1.97,.1Zm.2-4.4c-.08-.49-.2-1.02-.4-1.58l1.28-.1c.32-.44,.72-.87,1.18-1.31-.86-.74-1.68-1.31-2.46-1.68l.78-1.41c.13,0,.33,.13,.59,.38,.46-.87,.91-1.81,1.38-2.81l1.48,.75c-.33,.74-.89,1.71-1.68,2.89,.26,.19,.53,.38,.78,.56,.46-.68,.78-1.4,.99-2.15l1.57,.57c-.26,.99-1.07,2.27-2.46,3.83l1.48-.18c-.14-.31-.24-.59-.3-.85l1.38-.37c.4,.87,.69,1.9,.89,3.09l-1.38,.37c-.08-.25-.14-.49-.2-.74l-1.07,.18v4.12h-1.68v-3.84l-2.16,.28Zm1.67,.94c-.13,.62-.32,1.59-.59,2.9l-1.47-.47c.19-.87,.4-1.81,.59-2.79l1.47,.37Zm.49,10.47l-1.68-.56,.59-3.74c.06-.38,.3-.56,.69-.56h13.59v-.75c-.06-.12-.14-.18-.2-.18h-14.17v-1.59h15.65c.32,.06,.49,.23,.49,.47v4.3h-1.77v-.66h-12.31c-.26,.06-.39,.21-.39,.46l-.1,.38h14.95c.4,0,.56,.18,.49,.56-.06,1.49-.3,2.53-.69,3.09-.06,.19-.19,.31-.4,.38-1.31,1.05-5.55,1.18-12.7,.38l-.1-1.69c2.69,.38,5.61,.56,8.76,.56,1.63-.05,2.69-.28,3.15-.64,.06-.26,.1-.6,.1-1.03h-13.78l-.19,.84Zm3.74-10.75c.32,1.13,.49,1.97,.49,2.53l-1.48,.1c-.13-.87-.29-1.69-.48-2.43l1.47-.19Zm6.4-.84c-.06-.49-.19-1.03-.4-1.59l1.38-.18c.27-.31,.59-.66,.99-1.03-.78-.81-1.61-1.43-2.46-1.87l.1-.18h-5.71v-1.21h5.91v.94l.59-.94c.06,.06,.23,.18,.48,.38,.46-.75,.89-1.59,1.28-2.53l1.48,.74c-.4,.69-.92,1.59-1.58,2.72,.26,.18,.53,.4,.78,.64,.53-.74,.89-1.49,1.09-2.24l1.58,.56c-.2,.81-.99,2.05-2.36,3.74l1.38-.19c-.19-.43-.29-.74-.29-.94l1.47-.37c.4,1.18,.72,2.27,.98,3.27l-1.57,.28c-.06-.25-.1-.46-.1-.66l-1.18,.19v4.29h-1.68v-4.11l-2.16,.28Zm-.49-7.85v1.21h-5.21v-1.21h5.21Zm-.1,3.55v1.21h-4.92v-1.21h4.92Zm-.1,1.69v1.21h-4.73v-1.21h4.73Zm-.19,6.26h-4.24c-.13-.06-.19-.12-.19-.18v-4.12c-.08-.12,0-.18,.19-.18h4.24c.13,.06,.19,.12,.19,.18v4.12c-.06,.12-.13,.18-.19,.18Zm-3.05-3.27c-.06,0-.06,.03,0,.09v1.97h1.87v-1.97c0-.05-.03-.09-.11-.09h-1.76Zm5.61,.38c-.14,1.18-.3,2.18-.49,2.99l-1.48-.28c.2-.69,.33-1.69,.4-3l1.58,.29Zm4.13-.19c.46,1.31,.72,2.28,.78,2.9l-1.57,.18c-.19-1.12-.43-2.05-.69-2.81l1.47-.28Z"/>
            <path d="M55.69,331.13c-.8,1.25-1.58,2.27-2.36,3.09l-1.77-1.13c1.58-1.49,2.69-3.17,3.34-5.04l1.87,.66c-.13,.18-.19,.37-.19,.56h6.2v1.87h-3.45c.2,.62,.4,1.3,.59,2.05l-1.97,.28c-.13-.62-.32-1.4-.59-2.33h-1.67Zm-.89,12.52v.66c-.78-.19-1.5-.31-2.16-.38l.59-5.42c0-.31,.19-.51,.59-.57h8.65v-1.96h-8.76v-1.97h19.1c.26,.06,.42,.13,.48,.19,.14,.12,.24,.28,.3,.46v5.61h-2.17v-.38h-6.78v1.77h9.24c.33,0,.49,.23,.49,.66,0,2.56-.1,4.2-.29,4.96-.2,.69-.49,1.15-.89,1.4-.53,.38-1.18,.57-1.97,.57s-2.06-.13-3.84-.38v-2.15c2.16,.49,3.58,.66,4.24,.46,.26-.12,.42-.31,.48-.56,.14-.38,.2-1.31,.2-2.81,0-.12-.14-.18-.4-.18h-7.28v6.63h-2.17v-5.42c-3.47,2.36-6.72,3.92-9.74,4.68l-.99-1.87c3.55-.82,6.63-2.15,9.26-4.02h-6.2Zm7.68-3.74h-6.99c-.13,0-.23,.03-.29,.1l-.19,1.68h7.47v-1.77Zm3.35-8.78c-.67,1.12-1.32,1.99-1.98,2.61l-1.76-1.02c1.44-1.44,2.39-3.03,2.85-4.77l1.97,.66c-.13,.18-.23,.41-.29,.66h8.07v1.87h-4.83c.26,.12,.53,.74,.78,1.87l-1.87,.46c-.19-.56-.53-1.33-.98-2.33h-1.97Zm-1.18,6.82h6.78v-1.68c0-.18-.1-.28-.29-.28h-6.49v1.96Z"/>
            <path d="M100.8,337.21v2.33h-23.12v-2.33h23.12Z"/>
            <path d="M103.8,336.73c0-.25,.13-.37,.4-.37h20.86l1.76,.84c0,1.18-.29,2.56-.88,4.12l-1.87-.57c.4-1.3,.56-2.05,.49-2.24,0-.19-.1-.28-.3-.28h-18.31c-.13-.06-.19,0-.19,.18v2.43h-1.97v-4.12Zm13.78,11.68c-.33,.87-.83,1.44-1.48,1.69-.45,.18-.91,.28-1.38,.28-.53-.06-1.41-.21-2.66-.47v-1.96c-3.02,1.05-5.45,1.68-7.28,1.87l-.7-1.87c4.4-.56,8.37-1.81,11.91-3.74-.06-.38-.13-.69-.19-.94-4.07,2.18-7.68,3.4-10.82,3.64l-.69-1.87c3.81-.37,7.31-1.43,10.52-3.17-.26-.25-.53-.47-.78-.66-3.34,1.74-6.3,2.64-8.86,2.71l-.59-1.77c2.43-.19,4.86-.75,7.29-1.69h-5.02v-1.49h16.44v1.49h-7.29c.46,.38,.82,.78,1.09,1.21,.72,.94,1.12,1.49,1.18,1.69,1.84,2.24,4.43,3.92,7.77,5.04l-1.28,1.78c-2.62-1.13-4.83-2.53-6.59-4.21,0,1-.2,1.81-.59,2.43Zm-3.55-20.47h2.17v1.21h9.84v1.87h-21.84v-1.87h9.84v-1.21Zm9.05,7.66h-16.23c-.13,0-.19-.1-.19-.28v-3.46c.06-.12,.13-.18,.19-.18h16.23c.2,.06,.3,.13,.3,.18v3.46c0,.18-.1,.28-.3,.28Zm-14.46-2.43q-.08,0,0,0v.94h12.7l.1-.1v-.84h-12.79Zm7.37,12.9c-1.44,.69-2.69,1.31-3.74,1.87,1.45,.31,2.36,.38,2.76,.18,.32-.18,.59-.49,.78-.94,.13-.37,.19-.74,.19-1.12Zm8.47-3.46c-1.05,.82-2.3,1.62-3.74,2.43l-1.09-1.58c1.63-.94,2.88-1.72,3.74-2.34l1.09,1.49Z"/>
            <path d="M129.92,342.91l-.29-2.05,8.27-.56v-2.81c-1.71,.18-3.38,.31-5.02,.38l-.59-2.25c6.63-.12,11.91-.77,15.84-1.96l.69,2.05c-1.77,.43-4.65,.94-8.65,1.49v2.99l11.71-.74,.1,2.05-11.8,.84v4.3c0,.38,.13,.69,.39,.94,.2,.18,.49,.28,.89,.28h7.77c.19,.06,.42,0,.69-.18,.13-.06,.23-1.21,.29-3.46l2.27,.38c-.19,2.81-.43,4.33-.69,4.58-.59,.56-1.12,.84-1.58,.84h-10.03c-.59-.06-1.12-.31-1.58-.74-.46-.51-.69-.97-.69-1.41v-5.42l-7.98,.46Zm9.85-14.86h2.27v1.87h8.65l1.97,.94c-.13,1.37-.59,3.02-1.38,4.96l-1.97-.66c.53-1.56,.78-2.53,.78-2.9,0-.18-.1-.28-.29-.28h-17.52c-.13-.06-.19,0-.19,.18v3.36h-2.17v-5.22c0-.26,.14-.38,.4-.38h9.45v-1.87Z"/>
            <path d="M166.37,338.52v1.68h-11.91v-1.68h11.91Z"/>
            <path d="M170.95,350.2h-2.07v-21.13c.06-.12,.1-.21,.1-.28h5.42l1.47,.85-.98,3.27c.72-.62,1.31-1.25,1.77-1.87,.45-.69,.88-1.68,1.28-2.99l1.97,.46c-.14,.38-.24,.75-.3,1.13h10.82c.2,.05,.33,.09,.4,.09,.19,.13,.29,.51,.29,1.13,0,3.68-.03,7.01-.1,10-.19,4.79-1.07,7.76-2.66,8.88-1.31,.75-3.58,.72-6.79-.1v-2.15c3.02,.82,4.96,.94,5.8,.38,.86-.69,1.39-3.17,1.58-7.47,.06-5.74,.06-8.63,0-8.7s-.13-.1-.19-.1h-10.14c-.73,1.25-1.58,2.25-2.56,2.99l-1.28-1.21-.69,2.44c-.08,.37-.08,.64,0,.84,.91,1.3,1.57,2.56,1.97,3.74,.45,1.92,.26,3.36-.59,4.3-.53,.49-1.12,.77-1.77,.84-.78,.12-1.71,0-2.75-.38v5.05Zm.19-19.54h-.1l-.1,.1v12.24c.72,.49,1.41,.72,2.06,.66,.39,0,.69-.1,.88-.28,.2-.31,.3-.59,.3-.84,.13-1.25-.62-3.28-2.27-6.08v-.09l1.47-5.24c.14-.38-.03-.53-.48-.47h-1.77Zm10.14,9.35h-4.92v-1.87h4.92v-2.33h-1.87c-.46,.68-1.09,1.3-1.87,1.86-.4-.68-.78-1.15-1.18-1.4,1.31-1.12,2.3-2.46,2.96-4.02l1.87,.94c-.14,.25-.3,.51-.49,.75h6.89v1.87h-4.24v2.33h4.83v1.87h-4.83v4.68h1.87c.19,0,.3-.1,.3-.29v-2.89h1.97v4.11c-.08,.63-.4,.94-.99,.94h-8.36c-.59-.05-.88-.37-.88-.94v-4.11h1.97v2.89c0,.19,.1,.29,.29,.29h1.77v-4.68Z"/>
            <path d="M207,350.29h-2.27v-8.69c-3.09,3.24-6.14,5.6-9.15,7.09l-1.58-1.77c4.2-1.99,7.61-4.58,10.23-7.75h-9.74v-2.06h10.23v-4.02h-6.49c-.72,1.19-1.58,2.15-2.56,2.9l-1.68-1.41c.99-.81,1.81-1.68,2.46-2.61,.53-.81,1.02-1.99,1.47-3.55l2.07,.46c-.27,.81-.49,1.53-.69,2.15h5.41v-2.89h2.27v2.89h9.15v2.05h-9.15v4.02h10.04v2.06h-9.45c.06,.05,.13,.09,.19,.09,2.3,2.99,5.55,5.61,9.74,7.86l-1.76,1.58c-3.68-2.24-6.6-4.6-8.76-7.09v8.69Z"/>
            <path d="M222.2,350.2h-1.97v-21.6c0-.13,.03-.18,.1-.18,.06-.06,.13-.1,.19-.1h4.33l1.28,.74-.98,5.71c-.2,.87-.17,1.43,.1,1.68,.72,1.25,1.18,2.43,1.38,3.56,.32,1.74,.1,2.99-.69,3.74-.33,.43-.78,.68-1.38,.74s-1.38-.03-2.36-.28v5.99Zm1.87-20.1h-1.77c-.06,0-.1,.03-.1,.1v11.96c.53,.43,1.09,.62,1.68,.56,.32,0,.52-.1,.59-.28,.13-.19,.23-.41,.29-.66v-.1c.13-1.12-.4-2.89-1.57-5.32-.08-.13-.11-.41-.11-.85l.99-5.42Zm4.72,15.71c-.85,1.81-1.9,3.3-3.15,4.48-.53-.62-.98-1.12-1.38-1.49,1.18-1,2.06-2.28,2.66-3.83l1.87,.84Zm1.68-15.43c-.99,1.62-2.16,2.84-3.55,3.64-.32-.62-.69-1.12-1.07-1.49,1.25-.81,2.19-1.87,2.85-3.17l1.77,1.02Zm3.25,4.02h-4.72v-1.49h11.21v1.49h-4.53v1.12h6.99v1.5h-15.64v-1.5h6.69v-1.12Zm7.68,9.44c0,.38-.19,.56-.59,.56h-12.39v-1.49h11.02c.13-.05,.19-.12,.19-.18v-.94h-12.3v-1.4h12.3v-.85c-.06-.05-.13-.09-.19-.09h-10.92v-1.5h12.3c.4,.06,.59,.23,.59,.47v1.97h1.97v1.4h-1.97v2.05Zm-9.84,1.13v2.33c0,.49,.03,.77,.1,.84,.19,.25,.53,.41,.98,.47h3.55c.26-.06,.49-.13,.69-.19,.4-.12,.62-.74,.69-1.87l1.97,.29c-.13,1.55-.32,2.45-.59,2.71-.32,.37-.62,.59-.88,.66-.27,.05-.69,.09-1.28,.09h-4.92c-.59,0-1.02-.09-1.28-.28-.66-.43-.98-1.25-.98-2.43v-2.61h1.97Zm0-14.77l-.2-1.77c4.07,.05,7.09-.1,9.06-.47l.19,1.77c-.92,.26-2.79,.41-5.61,.47,.19,.62,.33,1.25,.4,1.87l-1.97,.37c-.14-.92-.3-1.68-.49-2.24h-1.38Zm3.44,14.58c.46,.62,.99,1.44,1.58,2.43l-1.58,.85c-.59-1.13-1.09-1.9-1.47-2.34l1.47-.94Zm5.61-.09c.85,.99,1.77,2.33,2.75,4.01l-1.76,.94c-.92-1.68-1.77-2.89-2.57-3.64l1.58-1.3Zm.19-14.59c.8,.75,1.68,1.81,2.66,3.18l-1.67,1.02c-.99-1.3-1.81-2.33-2.46-3.09l1.47-1.12Z"/>
            <path d="M248.82,350.2h-2.06v-20.84c.06-.44,.29-.66,.69-.66h19.88c.46,0,.69,.21,.69,.66v20.84h-2.06v-.94h-17.12v.94Zm7.68-15.9v-1.12h-5.9v-1.59h5.9v-1.02h-7.37c-.2,0-.3,.09-.3,.28v16.54h17.12v-16.64c0-.13-.1-.18-.29-.18h-7.19v1.02h5.91v1.59h-5.91v1.12h6.6v1.69h-15.16v-1.69h6.59Zm-.19,7.38v5.15h-1.97v-3.56c-1.31,1.12-2.49,1.97-3.55,2.53l-1.38-1.41c1.58-.81,2.96-1.71,4.14-2.71h-2.36c-.19,0-.3-.09-.3-.28v-4.3c0-.18,.11-.28,.3-.28h12.39c.2,0,.3,.1,.3,.28v4.3c0,.19-.1,.28-.3,.28h-4.43c.99,2.06,2.96,3.31,5.91,3.74l-.99,1.69c-3.6-.82-5.9-2.62-6.89-5.43h-.88Zm-3.44-3.27c-.08,0-.11,.03-.11,.1v1.49c0,.06,.03,.09,.11,.09h9.05c.06,0,.1-.02,.1-.09v-1.49c0-.06-.03-.1-.1-.1h-9.05Zm12.59,4.58c-.66,.49-1.5,1.03-2.56,1.59l-.88-1.49c1.05-.56,1.87-1.06,2.46-1.49l.98,1.4Z"/>
          </g>
          <g>
            <path d="M310.89,337.78v2.43c0,.87-.13,1.81-.4,2.81-.19,.37-.32,.74-.39,1.12-1.25,2.74-3.48,4.86-6.7,6.35l-1.47-1.87c1.18-.43,2.19-.94,3.05-1.49,2.42-1.62,3.63-3.92,3.63-6.91v-2.43h-6.19v-2.06h22.72v2.06h-7.18v9.16c0,.37,.13,.68,.4,.94,.19,.18,.49,.28,.88,.28h2.96c.19,.05,.42,0,.69-.19,.13-.12,.19-.31,.19-.56v-3.46l2.27,.19c-.14,3.17-.33,4.96-.59,5.32-.59,.57-1.12,.85-1.58,.85h-5.21c-.59-.06-1.12-.31-1.57-.75-.46-.49-.69-.97-.69-1.4v-10.37h-4.83Zm12.3-8.33v2.06h-18.69v-2.06h18.69Z"/>
            <path d="M335.83,350.59h-2.17v-10.85c-1.12,2.05-2.4,3.92-3.84,5.61l-1.97-.94c2.3-2.36,4.06-4.96,5.31-7.76h-4.91v-2.05h5.41v-3.28c-1.84,.19-3.44,.31-4.82,.38l-.3-2.05c4.86-.25,8.7-.66,11.51-1.21l.4,1.96c-.99,.26-2.49,.51-4.53,.75h-.1v3.46h5.01v2.05h-5.01v.1c1.76,1.87,3.47,3.77,5.12,5.7l-1.68,1.31c-1.05-1.31-2.2-2.74-3.44-4.3v11.13Zm14.26-21.88v19.25c0,.94-.4,1.62-1.18,2.06-1.12,.68-3.18,.62-6.2-.19v-2.05c2.76,.62,4.43,.72,5.02,.28,.13-.18,.2-.41,.2-.66v-18.69h2.16Zm-5.21,.94v15.71h-2.17v-15.71h2.17Z"/>
            <path d="M355.64,339.46l-2.06-.84c2.23-3.05,3.64-6.39,4.24-10.01l2.06,.38c-.4,1.93-.83,3.59-1.28,4.96v16.64h-2.17v-12.24c-.32,.38-.59,.74-.78,1.12Zm21.16-7.29v2.05h-16.92v-2.05h16.92Zm-13.58,18.22h-2.16v-7.57c0-.25,.1-.38,.29-.38h13.97c.33,.06,.49,.23,.49,.47v7.47h-2.17v-1.12h-10.43v1.12Zm11.81-14.95v1.97h-13.49v-1.97h13.49Zm0,3.46v1.97h-13.49v-1.97h13.49Zm-.11-9.91v1.97h-13.18v-1.97h13.18Zm-1.28,18.32v-2.61c0-.18-.1-.28-.29-.28h-9.85c-.26,0-.35,.1-.29,.28v2.61h10.43Z"/>
            <path d="M393.48,343.86h-6.2v1.4c1.5-.18,2.66-.38,3.44-.56l.4,1.77c-.78,.25-2.06,.47-3.84,.66v1.41c-.06,.81-.43,1.43-1.09,1.86-.72,.51-2.2,.47-4.43-.09v-1.87c1.77,.38,2.89,.43,3.34,.18,.13-.12,.2-.31,.2-.56v-.66c-2.04,.19-3.68,.31-4.92,.38l-.3-1.87c1.52-.06,3.26-.18,5.22-.38v-1.68h-5.12v-1.87h5.12v-1.03c-1.64,.13-2.99,.19-4.04,.19l-.29-1.78c3.87-.12,6.92-.4,9.15-.84l.3,1.77c-.73,.13-1.77,.28-3.15,.47v1.21h5.5c-.32-1.06-.62-2.25-.88-3.56h-12.01v-1.86h10.33v-1.13h-8.16v-1.68h8.16v-1.23h-9.55v-1.86h5.71c-.39-.44-.72-.78-.98-1.03l1.47-1.21c.59,.49,1.21,1.15,1.87,1.96l-.4,.29h5.51c.85-.88,1.5-1.62,1.97-2.25l1.58,1.21c-.27,.31-.53,.66-.8,1.03h5.13v1.86h-9.35v1.23h8.07v1.68h-8.07v1.13h10.23v1.86h-8.57c.2,1.38,.49,2.56,.89,3.56h7.28v1.87h-6.59c.32,.81,.78,1.53,1.38,2.15,.72-.51,1.61-1.13,2.66-1.87l1.18,1.49c-.91,.75-1.77,1.34-2.56,1.77,.33,.25,.62,.47,.89,.66,.52,.31,.91,.44,1.17,.38,.27-.06,.4-.19,.4-.38,.19-.44,.29-1.06,.29-1.87l1.87,.66c-.39,2.18-.91,3.46-1.57,3.83-.78,.13-1.61-.02-2.46-.46-.99-.56-1.81-1.15-2.46-1.77-2.1,.94-4.53,1.59-7.28,1.96l-.59-1.86c2.03-.13,4.22-.66,6.59-1.59-.72-.94-1.28-1.97-1.67-3.09Zm3.73-5.24c1.52,.69,2.67,1.21,3.45,1.59l-.99,1.58c-.45-.25-1.57-.74-3.34-1.49l.88-1.68Z"/>
            <path d="M406.7,331.24h-1.39v-1.87h8.47v1.87h-.99v19.25h-1.97v-3.46c-2.23,.87-3.84,1.41-4.82,1.59l-.7-1.68c.46-.19,.92-.31,1.39-.38v-15.33Zm4.13,3.36v-3.36h-2.16v3.36h2.16Zm0,5.24v-3.36h-2.16v3.36h2.16Zm0,5.24v-3.36h-2.16v4.2c.85-.31,1.57-.59,2.16-.84Zm2.86-4.96c-.06-.56-.24-1.12-.49-1.69l1.57-.28c.53-.62,1.09-1.33,1.68-2.15-1.12-1.05-2.2-1.89-3.25-2.52,.26-.56,.59-1.06,.98-1.5,.06,.06,.3,.23,.7,.47,.58-1.25,1.11-2.56,1.57-3.92,.59,.31,1.18,.56,1.77,.74-.33,1.12-.99,2.56-1.97,4.3,.39,.26,.78,.6,1.18,1.03,.64-1.18,1.11-2.28,1.38-3.28l1.87,.47c-.46,1.56-1.61,3.56-3.45,5.99l1.58-.29c-.06-.43-.2-.84-.4-1.21l1.77-.37c.46,1.05,.78,2.43,.98,4.11l-1.76,.28c-.06-.31-.14-.66-.2-1.02l-5.5,.84Zm1.47,6.55c-.59-.06-.88-.38-.88-.94v-4.96h1.97v3.55c-.06,.31,.1,.47,.48,.47h1.68v-4.02h1.97v5.51c0,.38-.1,.77-.29,1.21-.59,1.43-2.07,2.53-4.43,3.27l-.89-1.68c.66-.19,1.18-.38,1.58-.56,1.12-.51,1.77-1.13,1.97-1.87h-3.15Zm6.49-7.02c-.06-.56-.23-1.12-.49-1.68l1.18-.28c.46-.49,.89-1.03,1.28-1.59-1.12-1.06-2.19-1.9-3.25-2.53,.33-.56,.62-1.05,.89-1.49,.13,.06,.39,.23,.78,.46,.72-1.24,1.31-2.61,1.77-4.11,.59,.31,1.18,.59,1.76,.84-.39,1.12-1.07,2.56-2.06,4.3,.33,.32,.69,.66,1.09,1.03,.78-1.38,1.28-2.64,1.47-3.84l1.97,.47c-.39,1.62-1.47,3.64-3.25,6.07l1.77-.28c-.13-.56-.23-.97-.29-1.21l1.67-.38c.33,1.13,.59,2.46,.78,4.02l-1.76,.28c-.08-.38-.11-.69-.11-.94l-5.21,.84Zm4.24,5.15c.19,0,.29-.1,.29-.28v-3.56h1.97v5.14c0,.38-.19,.57-.58,.57h-3.64v3.92h-1.97v-10.19h1.97v4.4h1.97Z"/>
            <path d="M453.38,332.17c.19,.06,.32,.09,.39,.09,.19,.13,.3,.51,.3,1.13,0,5.86-.11,9.85-.3,11.96-.39,2.43-1.09,3.96-2.06,4.58-.85,.56-2.3,.62-4.33,.18l-.19-2.05c1.9,.44,3.09,.47,3.54,.1,.72-.56,1.12-2.71,1.18-6.45,.06-4.92,.06-7.42,0-7.48-.06-.05-.13-.1-.19-.1h-2.56c-.19,7.17-1.58,12.57-4.14,16.18l-1.76-.94,.1,.09-12.01,.75-.1-1.87,5.71-.38v-1.58h-5.12v-1.69h5.12v-1.31h-5.22v-1.77h5.22v-1.21h-5.02c-.2,0-.3-.1-.3-.28v-4.2c0-.19,.1-.28,.3-.28h5.02v-1.03h-2.46c-.53,0-.78-.28-.78-.84v-2.15h-2.46v-1.78h2.46v-1.21h1.97v1.21h4.62v-1.21h1.97v1.21h2.27v1.78h-2.27v2.15c0,.56-.29,.84-.88,.84h-2.27v1.03h5.02c.19,0,.29,.09,.29,.28v4.2c0,.18-.1,.28-.29,.28h-5.02v1.21h5.12v1.77h-5.12v1.31h4.53v1.69h-4.53v1.49l3.93-.28,.2,1.49c2.48-2.87,3.76-7.86,3.84-14.96h-2.56v-1.96h2.56v-3.74h2.06v3.74h4.24Zm-16.44,5.14h-3.25v1.31c0,.06,.03,.1,.1,.1h3.15v-1.41Zm3.34-5.7h-4.62v1.03c0,.17,.1,.28,.29,.28h4.03c.2,0,.3-.11,.3-.28v-1.03Zm-1.18,7.11h3.15l.1-.1v-1.31h-3.25v1.41Z"/>
            <path d="M476.46,327.87l-7.18,23.46h-1.77l7.18-23.46h1.77Z"/>
            <path d="M291.07,327.87l-7.18,23.46h-1.77l7.18-23.46h1.77Z"/>
            <path d="M492.36,339.28h-2.36v-1.97h2.36v-5.51h-2.36v-1.97h6.89v1.97h-2.46v5.51h2.36v1.97h-2.36v6.54c.92-.31,1.71-.66,2.36-1.02l.99,1.87c-2.04,.94-4.43,1.68-7.19,2.24l-.88-1.87c.98-.18,1.87-.37,2.66-.56v-7.19Zm5.12,11.49l-.98-1.96c3.6-.88,5.9-2.18,6.88-3.93h-6.3v-1.86h6.79v-1.5h-5.51v-1.87h5.51v-1.21h-6.09v-1.86h3.04c-.06-.44-.13-.85-.19-1.21-.13-.39-.19-.67-.19-.85h-3.15v-1.86h1.77c-.53-1.01-.99-1.78-1.39-2.34l1.68-1.03c.59,.75,1.18,1.72,1.77,2.9l-.89,.47h1.87v-4.21h1.97v4.21h1.77v-4.21h1.97v4.21h.89c.78-1.44,1.38-2.62,1.77-3.56l1.76,.74c-.26,.87-.69,1.81-1.28,2.82h2.07v1.86h-3.95c-.13,.38-.32,1.06-.59,2.06h4.04v1.86h-6.49v1.21h6v1.87h-6v1.5h7.08v1.86h-6.49c1.31,2.06,3.54,3.4,6.69,4.02l-.99,1.87c-3.28-.94-5.7-2.56-7.28-4.86-1.31,2.12-3.84,3.74-7.58,4.86Zm8.86-14.2c.46-1.13,.69-1.82,.69-2.06h-4.53c0,.18,.03,.38,.1,.57,.13,.56,.23,1.05,.3,1.49h3.44Z"/>
            <path d="M518.77,350.59h-2.06v-20.84c.06-.44,.29-.66,.69-.66h19.88c.46,0,.69,.21,.69,.66v20.84h-2.06v-.94h-17.12v.94Zm7.68-15.9v-1.12h-5.9v-1.59h5.9v-1.02h-7.38c-.19,0-.29,.09-.29,.28v16.54h17.12v-16.64c0-.13-.1-.18-.3-.18h-7.18v1.02h5.9v1.59h-5.9v1.12h6.6v1.69h-15.16v-1.69h6.59Zm-.19,7.4v5.14h-1.97v-3.56c-1.32,1.13-2.49,1.97-3.55,2.53l-1.38-1.4c1.57-.82,2.96-1.72,4.13-2.71h-2.35c-.2,0-.3-.1-.3-.29v-4.3c0-.18,.1-.28,.3-.28h12.39c.2,0,.3,.1,.3,.28v4.3c0,.19-.1,.29-.3,.29h-4.43c.99,2.05,2.96,3.3,5.91,3.73l-.99,1.69c-3.61-.81-5.9-2.62-6.89-5.42h-.88Zm-3.45-3.28c-.06,0-.1,.03-.1,.1v1.49c0,.06,.03,.1,.1,.1h9.06c.06,0,.1-.03,.1-.1v-1.49c0-.06-.03-.1-.1-.1h-9.06Zm12.6,4.58c-.66,.51-1.5,1.03-2.56,1.59l-.88-1.49c1.04-.56,1.87-1.06,2.46-1.49l.98,1.4Z"/>
            <path d="M542.83,331.24h-1.39v-1.87h8.47v1.87h-.99v19.25h-1.97v-3.46c-2.23,.87-3.84,1.41-4.82,1.59l-.7-1.68c.46-.19,.92-.31,1.39-.38v-15.33Zm4.13,3.36v-3.36h-2.16v3.36h2.16Zm0,5.24v-3.36h-2.16v3.36h2.16Zm0,5.24v-3.36h-2.16v4.2c.85-.31,1.57-.59,2.16-.84Zm2.86-4.96c-.06-.56-.24-1.12-.49-1.69l1.57-.28c.53-.62,1.09-1.33,1.68-2.15-1.12-1.05-2.2-1.89-3.25-2.52,.26-.56,.59-1.06,.98-1.5,.06,.06,.3,.23,.7,.47,.58-1.25,1.11-2.56,1.57-3.92,.59,.31,1.18,.56,1.77,.74-.33,1.12-.99,2.56-1.97,4.3,.39,.26,.78,.6,1.18,1.03,.64-1.18,1.11-2.28,1.38-3.28l1.87,.47c-.46,1.56-1.61,3.56-3.45,5.99l1.58-.29c-.06-.43-.2-.84-.4-1.21l1.77-.37c.46,1.05,.78,2.43,.98,4.11l-1.76,.28c-.06-.31-.14-.66-.2-1.02l-5.5,.84Zm1.47,6.55c-.59-.06-.88-.38-.88-.94v-4.96h1.97v3.55c-.06,.31,.1,.47,.48,.47h1.68v-4.02h1.97v5.51c0,.38-.1,.77-.29,1.21-.59,1.43-2.07,2.53-4.43,3.27l-.89-1.68c.66-.19,1.18-.38,1.58-.56,1.12-.51,1.77-1.13,1.97-1.87h-3.15Zm6.49-7.02c-.06-.56-.23-1.12-.49-1.68l1.18-.28c.46-.49,.89-1.03,1.28-1.59-1.12-1.06-2.19-1.9-3.25-2.53,.33-.56,.62-1.05,.89-1.49,.13,.06,.39,.23,.78,.46,.72-1.24,1.31-2.61,1.77-4.11,.59,.31,1.18,.59,1.76,.84-.39,1.12-1.07,2.56-2.06,4.3,.33,.32,.69,.66,1.09,1.03,.78-1.38,1.28-2.64,1.47-3.84l1.97,.47c-.39,1.62-1.47,3.64-3.25,6.07l1.77-.28c-.13-.56-.23-.97-.29-1.21l1.67-.38c.33,1.13,.59,2.46,.78,4.02l-1.76,.28c-.08-.38-.11-.69-.11-.94l-5.21,.84Zm4.24,5.15c.19,0,.29-.1,.29-.28v-3.56h1.97v5.14c0,.38-.19,.57-.58,.57h-3.64v3.92h-1.97v-10.19h1.97v4.4h1.97Z"/>
            <path d="M568.65,337.03l-1.28-1.87c5.84-2.17,9.58-4.43,11.21-6.73l2.07,.38c-.14,.12-.24,.28-.3,.46,2.82,2.43,6.3,4.4,10.44,5.89l-1.39,1.87c-3.87-1.74-7.28-3.87-10.23-6.35-2.1,2.12-5.61,4.24-10.52,6.35Zm4.13,13.36h-2.26v-9.52c.06-.51,.32-.75,.78-.75h15.84c.53-.06,.78,.18,.78,.75v9.52h-2.27v-1.02h-12.89v1.02Zm13.68-14.58v2.15h-14.57v-2.15h14.57Zm-.8,11.49v-4.86c0-.18-.1-.28-.29-.28h-12.3c-.2,0-.3,.1-.3,.28v4.86h12.89Z"/>
            <path d="M604.8,339.08c-.13,.31-.24,.66-.3,1.03-1.83,4.36-5.15,7.76-9.93,10.19l-1.58-1.69c5.77-2.61,9.26-6.94,10.44-12.99h-9.64v-2.15h9.84c.06-.38,.1-.75,.1-1.12v-3.56h2.36v3.56c-.06,.37-.1,.74-.1,1.12h9.84v2.15h-9.55c.13,.94,.3,1.77,.49,2.52,1.31,3.99,4.62,7.61,9.94,10.85l-1.97,1.49c-.53-.38-.99-.69-1.39-.94-4.46-3.24-7.31-6.73-8.56-10.47Z"/>
            <path d="M621.08,350.03l-2.17-.38c1.71-3.81,2.57-7.98,2.57-12.52v-3.74h-2.36v-2.06h4.22v-2.71h2.17v2.71h4.03v2.06h-5.9v2.61h4.62c.13,0,.3,.03,.49,.1,.19,.13,.29,.47,.29,1.03,0,2.61-.03,4.89-.1,6.82-.06,3.31-.69,5.33-1.87,6.08-.72,.43-2.06,.43-4.03,0l-.19-2.43c.85,.3,1.5,.49,1.97,.56,.59,.05,.91,0,.98-.19,.27-.18,.53-.56,.8-1.12,.13-.43,.19-.97,.19-1.59,.26-4.48,.29-6.85,.1-7.11-.13-.05-.23-.09-.29-.09h-3.05c-.27,5.55-1.09,9.53-2.46,11.96Zm9.74-13.09l-1.87-1.3c1.64-1.25,2.89-2.36,3.74-3.38,.85-.99,1.68-2.27,2.46-3.83l1.87,.46c-.13,.13-.23,.28-.29,.47,1.63,2.38,3.54,4.42,5.71,6.17l-1.68,1.4c-2.16-1.74-3.84-3.64-5.02-5.7-1.31,2.25-2.96,4.14-4.92,5.7Zm0,6.83c3.28,1,6.99,2.71,11.13,5.14l-.99,1.87c-4.46-2.43-8.17-4.11-11.12-5.04l.98-1.97Zm1.48-6.45c2.62,.75,5.54,1.9,8.75,3.46l-.88,1.96c-3.55-1.68-6.43-2.79-8.66-3.36l.8-2.05Z"/>
          </g>
        </g>
        <g>
          <path d="M133.04,389.49h-6.7v-2.15h6.7v-4.68h2.26v21.86h-2.26v-5.88c-1.77,1.12-3.74,2.24-5.9,3.36l-1.29-1.78c2.57-1.24,4.96-2.61,7.19-4.11v-6.63Zm7.48,.56c2.82-1.87,4.94-3.49,6.4-4.87l1.47,1.69c-2.03,1.87-4.65,3.77-7.87,5.7v8.32c.06,.51,.13,.85,.19,1.03,.19,.25,.59,.38,1.18,.38h3.15c.78,0,1.28-.19,1.47-.56,.26-.44,.4-1.78,.4-4.02l2.26,.37c0,3.05-.23,4.87-.69,5.43-.46,.49-.82,.77-1.09,.84-.39,.06-.91,.1-1.57,.1h-4.83c-.66,0-1.17-.13-1.57-.38-.78-.56-1.18-1.49-1.18-2.81v-18.79h2.27v7.58Z"/>
          <path d="M159.46,398.56c-1.44,1.81-3.64,3.77-6.6,5.89l-1.18-1.69c2.63-1.92,4.63-3.74,6.01-5.42l1.77,1.21Zm2.86-16.08h2.26v1.97h10.15v2.06h-22.55v-2.06h10.15v-1.97Zm-7.59,13.65c-.39,0-.59-.19-.59-.56v-6.83c0-.38,.2-.56,.59-.56h17.33c.39,0,.58,.18,.58,.56v6.83c0,.37-.19,.56-.58,.56h-7.29v6.35c0,.94-.39,1.62-1.18,2.05-.92,.44-2.58,.34-5.01-.28l.09-2.15c.92,.31,1.52,.51,1.78,.57,1.04,.18,1.7,.15,1.96-.1,.13-.19,.19-.41,.19-.66v-5.79h-7.87Zm1.68-5.89c-.06,0-.1,.03-.1,.1v3.64c0,.06,.03,.1,.1,.1h13.97l.11-.1v-3.64l-.11-.1h-13.97Zm12.49,7.11c1.91,1.49,3.96,3.49,6.11,5.98l-1.68,1.41c-2.28-2.62-4.26-4.58-5.89-5.89l1.46-1.49Z"/>
          <path d="M188.91,393.04v1.68h-11.91v-1.68h11.91Z"/>
          <path d="M203.52,393.6h-2.16v-3.36c-3.61,2.31-6.83,3.74-9.64,4.3l-.99-1.97c3.35-.74,6.4-1.99,9.16-3.74h-8.76v-1.96h10.23v-1.49c-3.15,.06-5.8,.09-7.98,.09l-.19-1.96c7.68,.12,13.78-.21,18.31-1.03l.29,1.97c-1.5,.31-3.93,.56-7.28,.74-.4,0-.72,.03-.99,.1v1.59h10.34v1.96h-8.95c2.48,1.69,5.6,2.9,9.34,3.65l-1.07,1.87c-3.61-.87-6.83-2.25-9.65-4.12v3.36Zm-7.47,11.13h-2.17v-10.09c0-.25,.1-.38,.3-.38h16.82c.33,.06,.49,.21,.49,.46v10.01h-2.16v-1.13h-13.29v1.13Zm13.29-6.73v-1.49c0-.19-.11-.28-.3-.28h-12.7c-.26,0-.37,.09-.29,.28v1.49h13.29Zm-13.29,1.96v1.69h13.29v-1.69h-13.29Z"/>
          <path d="M236.24,401.74c.2,0,.3-.1,.3-.29v-16.35h2.26v17.76c-.06,.69-.42,1.03-1.07,1.03h-18.9c-.72-.06-1.09-.41-1.09-1.03v-17.76h2.27v16.35c0,.19,.13,.29,.39,.29h6.79v-18.98h2.36v18.98h6.69Z"/>
          <path d="M247.11,397.52c-.66,3.05-1.52,5.27-2.56,6.64l-2.17-.57c2.17-3.36,3.25-7.09,3.25-11.21v-.84h-2.26c-.2,0-.3-.1-.3-.28v-7.86c0-.18,.1-.28,.3-.28h11.91c.26,0,.39,.1,.39,.28v7.86c0,.18-.13,.28-.39,.28h-7.48v.84c-.06,.31-.1,.75-.1,1.31h7.37c.13,0,.3,.03,.49,.09,.13,0,.19,.1,.19,.29,.06,.05,.1,.12,.1,.18,0,4.99-.19,7.85-.58,8.6-.33,.62-.73,1.05-1.18,1.31-1.31,.62-3.39,.53-6.2-.28l-.1-2.34c2.56,.81,4.22,1,5.02,.56,.32-.18,.52-.4,.59-.66,.13-.25,.19-.56,.19-.92,.26-2.87,.29-4.43,.1-4.68-.13-.06-.23-.1-.29-.1h-6.01c-.13,.75-.23,1.34-.29,1.77Zm-1.87-12.43c-.06,0-.06,.03,0,.09v4.4h8.17c.06,0,.1-.02,.1-.09v-4.31c0-.05-.03-.09-.1-.09h-8.17Zm14.95-1.13v15.52h-2.16v-15.52h2.16Zm4.73-1.12v19.35c0,.94-.4,1.62-1.18,2.05-1.05,.56-2.89,.54-5.51-.09v-2.06c1.18,.31,2.1,.51,2.76,.57,.64,0,1.17-.13,1.57-.38,.13-.19,.19-.41,.19-.66v-18.79h2.17Z"/>
          <path d="M278.84,400.71h-7.87v-1.87h7.87v-1.87h2.16v1.87h8.17v1.87h-8.17v1.68h10.14v1.87h-22.34v-1.87h10.04v-1.68Zm-5.42-6.83h-3.93v-1.68h3.93v-1.41h-3.93c-.13,0-.19-.09-.19-.28v-6.92c.06-.18,.13-.28,.19-.28h9.75c.19,0,.29,.1,.29,.28v6.92c0,.19-.1,.28-.29,.28h-3.84v1.41h4.03v1.68h-4.03v1.21l3.93-.38,.19,1.87-10.23,1.03-.4-1.87,4.53-.38v-1.49Zm0-8.98h-2.16c-.06,0-.06,.03,0,.1v1.21h2.16v-1.31Zm0,2.9h-2.16v1.41h2.16v-1.41Zm1.98-1.59h2.16v-1.21c0-.06-.03-.1-.1-.1h-2.06v1.31Zm0,3h2.06c.06,0,.1-.04,.1-.11v-1.3h-2.16v1.41Zm4.91,1.49v-1.88h4.24c-.78-.61-1.5-1.12-2.16-1.48l1.17-1.5c.33,.26,.89,.67,1.68,1.23,1.18-.69,2-1.31,2.46-1.88,.13-.12,.06-.18-.19-.18h-6.89v-1.77h8.56l1.28,1.02c-.78,1.44-2,2.75-3.63,3.93,.13,.18,.29,.31,.48,.37l-.29,.28h3.44l1.28,.95c-.39,1.74-1.12,3.36-2.16,4.86l-1.87-.66c1.12-1.31,1.71-2.28,1.77-2.9,.06-.18,.06-.31,0-.37h-2.76v4.86c-.06,.81-.42,1.43-1.07,1.87-.66,.37-2.01,.28-4.04-.28l.1-1.97c1.12,.44,1.87,.66,2.27,.66,.19,.06,.4,0,.59-.19,.13-.12,.19-.31,.19-.56v-4.39h-4.43Z"/>
          <path d="M313.21,382.01l-7.18,23.46h-1.77l7.18-23.46h1.77Z"/>
          <path d="M328.76,382.75h2.36v5.71h11.42v2.15h-11.42v11.13h12.79v2.15h-23.03v-2.15h7.87v-18.98Z"/>
          <path d="M351.54,395.57c-.59,3.68-1.6,6.63-3.05,8.88l-2.06-.75c1.77-2.68,2.75-5.45,2.96-8.32l2.16,.19Zm-3.64-6.63c1.18,.68,2.4,1.68,3.64,2.99l-1.47,1.49c-1.38-1.31-2.56-2.28-3.55-2.9l1.38-1.58Zm.49-5.99c1.12,.68,2.36,1.68,3.74,2.99l-1.38,1.49c-1.44-1.31-2.69-2.25-3.74-2.81l1.38-1.68Zm4.62,7.01l-1.67-1.31c.85-.81,1.57-1.69,2.16-2.61,.4-.75,.78-1.87,1.18-3.36l2.17,.37c-.14,.44-.24,.78-.3,1.03h13.19v1.97h-13.88c-.85,1.68-1.81,2.99-2.86,3.92Zm14.77,9.53h1.97v1.96h-2.36c-.4,1.69-.98,2.72-1.77,3.09-.98,.44-2.75,.44-5.31,0l.19-2.33c1.25,.38,2.17,.59,2.76,.66,.59-.06,.88-.13,.88-.18,.46-.06,.78-.47,.99-1.23h-10.73c-.14,.26-.24,.51-.3,.75l-1.97-.56c.85-2.49,1.5-4.51,1.97-6.07h-2.26v-1.97h2.85v-.1c.46-1.68,.72-3.36,.78-5.04,.06-.19,.14-.38,.2-.56,.13-.13,.29-.19,.48-.19h11.81c.33,0,.53,.1,.59,.28,.13,.19,.19,.41,.19,.66-.06,1.75-.13,3.4-.19,4.96h1.47v1.97h-1.67c-.33,2.18-.53,3.48-.59,3.92Zm-11.51-3.92c-.2,.87-.59,2.18-1.18,3.92h10.52c.13-.75,.24-1.53,.3-2.33,.13-.62,.23-1.16,.29-1.59h-9.93Zm10.14-1.97c.26-2.3,.29-3.58,.1-3.83-.06-.06-.24-.1-.49-.1h-7.98c-.26-.06-.42,0-.48,.18-.14,.13-.2,.28-.2,.47-.13,.81-.32,1.9-.59,3.27h9.65Zm-5.61,2.25c.98,1.05,1.67,1.9,2.06,2.53l-1.58,.92c-.78-.99-1.47-1.77-2.06-2.33l1.58-1.12Zm.39-5.89c.86,1,1.52,1.87,1.97,2.61l-1.67,.94c-.46-.87-1.09-1.71-1.87-2.52l1.57-1.03Z"/>
          <path d="M383.76,393.04v1.68h-11.91v-1.68h11.91Z"/>
          <path d="M390.59,395.57c-.59,3.68-1.6,6.63-3.05,8.88l-2.06-.75c1.77-2.68,2.75-5.45,2.96-8.32l2.16,.19Zm-3.64-6.63c1.18,.68,2.4,1.68,3.64,2.99l-1.47,1.49c-1.38-1.31-2.56-2.28-3.55-2.9l1.38-1.58Zm.49-5.99c1.12,.68,2.36,1.68,3.74,2.99l-1.38,1.49c-1.44-1.31-2.69-2.25-3.74-2.81l1.38-1.68Zm4.62,7.01l-1.67-1.31c.85-.81,1.57-1.69,2.16-2.61,.4-.75,.78-1.87,1.18-3.36l2.17,.37c-.14,.44-.24,.78-.3,1.03h13.19v1.97h-13.88c-.85,1.68-1.81,2.99-2.86,3.92Zm14.77,9.53h1.97v1.96h-2.36c-.4,1.69-.98,2.72-1.77,3.09-.98,.44-2.75,.44-5.31,0l.19-2.33c1.25,.38,2.17,.59,2.76,.66,.59-.06,.88-.13,.88-.18,.46-.06,.78-.47,.99-1.23h-10.73c-.14,.26-.24,.51-.3,.75l-1.97-.56c.85-2.49,1.5-4.51,1.97-6.07h-2.26v-1.97h2.85v-.1c.46-1.68,.72-3.36,.78-5.04,.06-.19,.14-.38,.2-.56,.13-.13,.29-.19,.48-.19h11.81c.33,0,.53,.1,.59,.28,.13,.19,.19,.41,.19,.66-.06,1.75-.13,3.4-.19,4.96h1.47v1.97h-1.67c-.33,2.18-.53,3.48-.59,3.92Zm-11.51-3.92c-.2,.87-.59,2.18-1.18,3.92h10.52c.13-.75,.24-1.53,.3-2.33,.13-.62,.23-1.16,.29-1.59h-9.93Zm10.14-1.97c.26-2.3,.29-3.58,.1-3.83-.06-.06-.24-.1-.49-.1h-7.98c-.26-.06-.42,0-.48,.18-.14,.13-.2,.28-.2,.47-.13,.81-.32,1.9-.59,3.27h9.65Zm-5.61,2.25c.98,1.05,1.67,1.9,2.06,2.53l-1.58,.92c-.78-.99-1.47-1.77-2.06-2.33l1.58-1.12Zm.39-5.89c.86,1,1.52,1.87,1.97,2.61l-1.67,.94c-.46-.87-1.09-1.71-1.87-2.52l1.57-1.03Z"/>
          <path d="M427.04,393.42h-7.98c-.13,.18-.23,.31-.29,.37-.53,.57-1.02,1.06-1.47,1.5,1.24,1.25,2.06,2.09,2.45,2.52l-1.57,1.13c-.46-.51-1.28-1.31-2.46-2.43-.98,.87-1.9,1.53-2.75,1.96l-1.58-1.4c2.17-1.31,3.84-2.53,5.02-3.64h-4.72v-1.97h6.59c.46-.62,.88-1.21,1.28-1.77h-6.11v-1.97h7.09c.32-.75,.52-1.33,.59-1.77h-8.57v-1.97h8.86c.13-.49,.23-.97,.3-1.4l2.06,.18c-.06,.44-.14,.84-.2,1.21h10.14v1.97h-10.62c-.14,.74-.3,1.34-.49,1.77h10.14v1.97h-5.9c.39,.74,.78,1.34,1.17,1.77h6.5v1.97h-4.83c1.31,1.18,3.05,2.33,5.21,3.45l-1.67,1.59c-1.18-.74-2.3-1.53-3.35-2.33-.85,.81-1.9,1.62-3.15,2.43l-1.28-1.49c1.18-.87,2.17-1.62,2.96-2.25-.46-.38-.91-.84-1.38-1.4Zm-6.11,7.38c-1.9,1.37-4.43,2.64-7.58,3.83l-.88-1.87c3.15-1.25,5.61-2.43,7.38-3.55l1.07,1.59Zm3.35-5.89v7.57c0,.94-.4,1.62-1.18,2.05-.8,.38-2.2,.34-4.24-.09v-2.06c1.64,.38,2.66,.44,3.05,.19,.13-.19,.19-.41,.19-.66v-7.01h2.17Zm.19-5.24h-2.66c-.4,.62-.8,1.21-1.18,1.77h4.92c-.33-.56-.7-1.15-1.09-1.77Zm2.16,9.81c3.35,1.62,5.64,2.84,6.89,3.64l-1.18,1.68c-1.9-1.18-4.16-2.36-6.78-3.55l1.07-1.77Z"/>
          <path d="M444.42,389.49h-6.7v-2.15h6.7v-4.68h2.26v21.86h-2.26v-5.88c-1.77,1.12-3.74,2.24-5.91,3.36l-1.28-1.78c2.56-1.24,4.96-2.61,7.19-4.11v-6.63Zm7.47,.56c2.83-1.87,4.96-3.49,6.4-4.87l1.48,1.69c-2.04,1.87-4.67,3.77-7.88,5.7v8.32c.06,.51,.14,.85,.2,1.03,.19,.25,.59,.38,1.18,.38h3.14c.8,0,1.28-.19,1.48-.56,.26-.44,.39-1.78,.39-4.02l2.27,.37c0,3.05-.23,4.87-.69,5.43-.46,.49-.82,.77-1.09,.84-.39,.06-.91,.1-1.57,.1h-4.83c-.66,0-1.18-.13-1.57-.38-.8-.56-1.18-1.49-1.18-2.81v-18.79h2.26v7.58Z"/>
          <path d="M475.75,389.4c-.91,3.49-1.81,6.11-2.66,7.85-1.64,3.05-4.13,5.36-7.48,6.92l-1.97-1.49c.99-.44,1.87-.85,2.66-1.23,2.3-1.37,4.07-3.17,5.32-5.42-1.45-1.25-3.15-2.53-5.12-3.83-.4,.62-.92,1.25-1.58,1.87l-1.97-1.13c1.18-1.18,2.06-2.46,2.66-3.84,.53-1.35,.92-3.35,1.18-5.98l2.06,.28c-.06,.31-.1,.59-.1,.84h6.89c.33,.06,.53,.13,.59,.19v0c.13,.06,.19,.18,.19,.38l-.1,.09c.66,2.62,1.68,4.87,3.05,6.73v-8.97h2.16v11.31c1.31,1.06,2.99,2.05,5.02,2.99l-1.57,1.69c-1.45-.69-2.59-1.41-3.45-2.15v8.13h-2.16v-9.91c-1.38-1.3-2.59-3.09-3.64-5.32Zm-5.9,2.53c.98,.74,1.87,1.43,2.66,2.05,.85-2.05,1.47-4.4,1.87-7.02,0-.37-.13-.56-.4-.56h-5.5c-.2,1.69-.49,3-.89,3.93,.53,.43,1.28,.97,2.27,1.59Z"/>
          <path d="M490.36,383.03c.98,.75,2,1.72,3.04,2.9l-1.47,1.31c-1.18-1.25-2.2-2.18-3.05-2.81l1.48-1.41Zm-.11,6.18c.99,.69,2.01,1.61,3.05,2.79l-1.47,1.41c-1.18-1.25-2.17-2.18-2.96-2.81l1.38-1.4Zm3.05,6.16c-.26,3.68-1.07,6.58-2.46,8.7l-1.97-.56c1.44-2.56,2.27-5.33,2.46-8.32l1.97,.18Zm.4,9.53l-1.09-1.59c2.03-.68,3.48-1.61,4.33-2.79h-3.44v-1.69h4.13c.06-.31,.1-.66,.1-1.03h-3.54v-1.58h3.54v-.94h-3.44c-.14-.06-.2-.13-.2-.19v-4.68c.06-.18,.14-.28,.2-.28h3.44v-.92h-1.67c-.53-.06-.8-.32-.8-.75v-2.15h-1.47v-1.69h1.47v-1.59h1.77v1.59h3.25v-1.59h1.77v1.59h1.38v1.69h-1.38v2.15c0,.49-.29,.75-.88,.75h-1.58v.92h3.55c.19,0,.29,.1,.29,.28v4.68c0,.13-.1,.19-.29,.19h-3.55v.94h3.55v1.58h-3.55c0,.31-.03,.66-.1,1.03h4.13v1.69h-3.63c1.25,.81,2.39,1.68,3.44,2.61l-1.28,1.4c-.98-.94-2.19-1.99-3.64-3.17-1.04,1.43-2.66,2.61-4.82,3.55Zm4.03-13.18h-1.87c-.06,0-.06,.03,0,.1v1.87h1.87v-1.97Zm2.56-5.42h-3.25v1.03c.06,.18,.13,.28,.19,.28h2.76c.19,0,.29-.1,.29-.28v-1.03Zm-.69,7.38h1.97c.06,0,.1-.03,.1-.1v-1.77c0-.06-.03-.1-.1-.1h-1.97v1.97Zm12.6,8.98v1.77h-7.18c-.46,0-.69-.23-.69-.66v-14.77c-.14,.26-.3,.47-.49,.66-.53-.51-1.02-.85-1.48-1.03,1.32-1.69,2.17-3.64,2.57-5.89l1.86,.47c-.32,.94-.62,1.87-.88,2.81h2.06c.66-1.19,1.02-2.25,1.09-3.18l1.77,.56c-.13,.81-.4,1.69-.78,2.62h2.06l-.19,1.77h-2.07v3.74h1.87v1.77h-1.87v3.74h1.87v1.77h-1.87v3.84h2.36Zm-4.24-14.87h-1.47c-.19,0-.29,.1-.29,.28v3.46h1.76v-3.74Zm0,5.51h-1.76v3.74h1.76v-3.74Zm0,5.51h-1.76v3.55c0,.19,.1,.29,.29,.29h1.47v-3.84Z"/>
        </g>
      </g>
    </g>
  </g>
</svg>