<?xml version="1.0" encoding="UTF-8"?>
<svg id="_圖層_2" data-name="圖層 2" xmlns="http://www.w3.org/2000/svg" viewBox="0 0 667.26 351.41">
  <defs>
    <style>
      .cls-1 {
        fill: #7a6a56;
      }
    </style>
  </defs>
  <g id="context">
    <g>
      <g>
        <g>
          <path class="cls-1" d="M234.59,206.06c-1.03,.18-1.76,.31-2.21,.39-.67,.11-1.11,.17-1.31,.17-.71,0-1.06-.42-1.06-1.25,0-.48,.17-.82,.53-1.03,.18-.11,.88-.17,2.07-.17,.4-.45,.78-.93,1.17-1.45,.3-.37,.57-.73,.82-1.06-.31-.08-.6-.32-.84-.75-.43-.76-.9-1.48-1.43-2.17-.43-.56-.93-1.15-1.52-1.78l-.19-.25c-.05-.11-.09-.23-.09-.33,0-.41,.2-.61,.61-.61,.08,0,.2,.05,.37,.14,.15,.08,.34,.18,.56,.33l1.01,.72,.31-.5c.15-.24,.29-.48,.42-.72,.4-.7,.75-1.47,1.1-2.28,.44-1.05,.96-1.59,1.54-1.59,.4,0,.75,.12,1.06,.37,.38,.26,.56,.6,.56,1.03,0,.11-.01,.2-.02,.28-.02,.09-.06,.2-.14,.33-.15,.24-.47,.66-.96,1.25-.48,.57-1.01,1.16-1.57,1.75l-1.03,1.06,.98,.86c.18,.18,.33,.34,.45,.47,.13,.15,.21,.26,.25,.33,.35-.52,.61-.92,.78-1.23l.96-1.78c.16-.33,.32-.56,.47-.69,.23-.23,.51-.33,.84-.33,1.05,0,1.57,.47,1.57,1.42,0,.37-.58,1.23-1.73,2.58-1.48,1.7-2.86,3.21-4.15,4.53,2.01-.11,3.39-.21,4.12-.31l-.59-1.55c-.05-.17-.09-.27-.09-.31,0-.39,.2-.59,.59-.59,.12,0,.34,.16,.7,.47,.34,.32,.7,.69,1.06,1.14,.93,1.15,1.41,1.99,1.41,2.53,0,.93-.46,1.39-1.38,1.39-.51,0-.85-.23-1.03-.67l-.31-1.17-1.97,.45v10.62c0,.09-.01,.18-.02,.25-.02,.23-.06,.42-.14,.59-.2,.46-.6,.7-1.18,.7s-.97-.24-1.17-.7c-.08-.17-.13-.36-.14-.59-.02-.07-.03-.16-.03-.25v-10.06Zm-1.03,1.72c.31,.23,.47,.52,.47,.89,0,.61-.28,1.75-.84,3.42-.58,1.67-1.11,2.87-1.57,3.61-.2,.33-.42,.5-.64,.5-.41,0-.62-.2-.62-.61,0-.06,.02-.17,.06-.34l.37-1.41c.26-1.11,.46-2.83,.61-5.15,.05-.82,.47-1.22,1.26-1.22,.32,0,.62,.1,.9,.3Zm5.96,.14c.54,.78,1.05,1.68,1.54,2.7,.51,1.06,.76,1.77,.76,2.14,0,.89-.49,1.33-1.48,1.33-.85,0-1.29-.47-1.35-1.42-.13-1.56-.38-2.97-.75-4.22-.05-.23-.09-.37-.09-.45,0-.41,.21-.61,.64-.61,.23,0,.47,.18,.73,.53Zm10.25,.33v7.29h5.8c.08,0,.15,.01,.23,.03,.09,.02,.17,.05,.25,.09,.2,.09,.31,.27,.31,.53,0,.24-.1,.42-.28,.53-.08,.03-.16,.06-.26,.08-.08,.02-.16,.03-.25,.03h-14.88c-.08,0-.15-.01-.21-.03-.1-.02-.18-.05-.26-.08-.2-.1-.31-.27-.31-.53s.11-.44,.31-.53c.08-.04,.16-.06,.26-.09,.06-.02,.14-.03,.21-.03h6.12v-7.29h-4.32c-.08,0-.15,0-.23-.03-.09,0-.17-.02-.25-.05-.2-.11-.31-.3-.31-.56,0-.24,.11-.41,.31-.53,.08-.04,.16-.06,.25-.08,.08-.02,.15-.03,.23-.03h11.96c.08,0,.15,.01,.23,.03,.1,.02,.18,.04,.26,.08,.2,.11,.3,.29,.3,.53,0,.26-.1,.44-.3,.53-.08,.04-.16,.06-.26,.08-.08,.02-.15,.03-.23,.03h-4.67Zm5.09-15.29c.1,0,.18,.01,.26,.03,.1,.02,.17,.05,.25,.09,.19,.11,.28,.28,.28,.53s-.1,.41-.3,.5c-.08,.06-.16,.09-.26,.09-.08,.02-.15,.03-.23,.03h-13.17c-.09,0-.17-.01-.25-.03-.1,0-.18-.03-.26-.09-.18-.09-.28-.26-.28-.5,0-.26,.11-.44,.31-.53,.08-.04,.16-.06,.25-.09,.08-.02,.15-.03,.23-.03h13.17Zm-9.1,3.26c0,.3-.26,.83-.78,1.61-.2,.3-.46,.64-.78,1.03-.11,.17-.24,.34-.39,.53l-.34,.44s-.05,.04-.05,.06c0,.02-.01,.04-.05,.05l-.25,.33c-.15,.2-.23,.33-.23,.39,0,.13,.12,.31,.37,.55l.84,.83c.38,.37,.69,.71,.95,1.03,.34,.39,.6,.72,.78,1,.21,.33,.31,.6,.31,.81,0,.95-.51,1.42-1.52,1.42-.39,0-.69-.11-.89-.33-.08-.09-.15-.2-.23-.33l-.14-.31c-.51-1.26-1.16-2.6-1.96-4l-.12-.25c-.03-.11-.05-.22-.05-.33,0-.18,.08-.42,.23-.72,.33-.69,.61-1.34,.84-1.98,.11-.28,.24-.61,.37-1l.39-1.2c.19-.57,.59-.86,1.2-.86,1.01,0,1.52,.41,1.52,1.23Zm4.43-.03c0,.3-.18,.74-.56,1.33-.13,.22-.3,.46-.51,.72l-.92,1.23c-.1,.09-.17,.19-.23,.28l-.39,.53c-.12,.15-.17,.24-.17,.28,0,.08,.04,.17,.11,.28l.62,.67c.28,.3,.52,.56,.73,.81,.33,.37,.62,.7,.86,1,.3,.39,.54,.73,.71,1,.2,.33,.3,.58,.3,.75,0,.89-.49,1.34-1.48,1.34-.38,0-.67-.11-.87-.33-.09-.11-.21-.33-.37-.64-.46-1.11-.82-1.91-1.06-2.39-.18-.34-.54-.93-1.06-1.78-.16-.26-.25-.48-.25-.67,0-.2,.09-.48,.28-.83,.26-.52,.56-1.25,.89-2.2,.13-.33,.25-.67,.34-1l.19-.59c.23-.68,.67-1.03,1.31-1.03,1.01,0,1.52,.41,1.52,1.25Zm4.15-.95c.38,.24,.56,.58,.56,1.03,0,.48-.88,1.79-2.67,3.92l-.16,.22c-.02,.05-.03,.11-.03,.17,0,.11,.12,.28,.33,.5,.3,.28,.59,.57,.87,.89,.35,.37,.68,.72,.96,1.06,.71,.83,1.06,1.42,1.06,1.78,0,.92-.48,1.39-1.46,1.39-.37,0-.66-.13-.86-.39-.19-.26-.62-1.06-1.29-2.39-.04-.09-.09-.18-.14-.28-.02-.05-.05-.11-.09-.17,0-.02-.01-.04-.03-.05l-.33-.67c-.23-.45-.43-.83-.61-1.14-.1-.13-.14-.31-.14-.55,0-.05,.06-.28,.21-.69l1.63-4.2c.21-.46,.62-.69,1.2-.69,.35,0,.68,.09,.98,.28Z"/>
          <path class="cls-1" d="M294.77,209.03v-11.29c0-1.65,.92-2.47,2.77-2.47h3.16v-1.75c0-.1,.01-.18,.03-.25,.02-.24,.08-.45,.17-.61,.21-.48,.64-.72,1.26-.72s1.04,.24,1.29,.72c.08,.17,.12,.37,.14,.61,.02,.08,.02,.16,.02,.25v1.75h3.06v-1.75c0-.1,0-.19,.02-.28,.02-.22,.08-.42,.17-.59,.23-.48,.66-.72,1.29-.72s1.03,.24,1.26,.72c.08,.17,.12,.37,.14,.61,.02,.08,.03,.16,.03,.25v1.75h3.19c1.85,0,2.77,.82,2.77,2.47v11.29h1.74c.08,0,.15,.01,.21,.03,.1,.02,.18,.05,.26,.09,.2,.09,.31,.27,.31,.53,0,.24-.1,.42-.28,.53-.14,.07-.3,.11-.51,.11h-24.21c-.08,0-.15,0-.23-.03-.11-.02-.19-.04-.25-.08-.18-.11-.29-.29-.31-.53,.02-.24,.13-.41,.31-.53,.05-.04,.14-.06,.25-.09,.08-.02,.15-.03,.23-.03h1.69Zm7.31,4.95c-.53,.45-1.5,.98-2.94,1.62-.71,.31-1.44,.61-2.21,.89-.63,.24-1.26,.46-1.87,.64-.51,.15-.97,.27-1.38,.36-.35,.08-.58,.11-.68,.11-.41,0-.61-.21-.61-.64,0-.2,.06-.36,.19-.47,.06-.05,.13-.1,.23-.14l.23-.11c1.12-.45,2.21-1.01,3.28-1.7,1.24-.8,2.3-1.66,3.19-2.58,.56-.57,1.05-.87,1.46-.87,.43,0,.81,.14,1.15,.42,.41,.35,.61,.82,.61,1.39,0,.39-.21,.75-.64,1.08Zm-1.38-12.04v-5.39h-1.73c-.81,0-1.2,.4-1.2,1.19v4.2h2.93Zm0,7.09v-5.81h-2.93v5.81h2.93Zm5.98-7.09v-5.39h-3.06v5.39h3.06Zm0,7.09v-5.81h-3.06v5.81h3.06Zm1.71,2.39c.33-.27,.72-.41,1.15-.41,.28,0,.54,.08,.78,.25,.2,.15,.68,.57,1.42,1.28,1.56,1.5,3.44,2.76,5.66,3.76,.32,.13,.47,.35,.47,.67,0,.41-.2,.61-.61,.61-.51,0-1.47-.26-2.91-.78-1.21-.45-2.27-.88-3.17-1.31-1.44-.67-2.41-1.24-2.91-1.7-.33-.31-.51-.64-.51-.97,0-.57,.2-1.04,.62-1.39Zm4.22-9.48v-4.2c0-.8-.4-1.19-1.2-1.19h-1.82v5.39h3.02Zm-3.02,1.28v5.81h3.02v-5.81h-3.02Z"/>
          <path class="cls-1" d="M360.84,216.01c0,.11-.01,.21-.03,.31-.02,.24-.08,.45-.17,.61-.2,.45-.63,.67-1.28,.67s-1.1-.22-1.32-.67c-.1-.17-.15-.37-.17-.61-.01-.09-.02-.19-.02-.31v-13.79l-.73,.73c-.33,.35-.66,.66-.96,.92-.37,.33-.69,.59-.95,.78-.32,.22-.55,.33-.68,.33-.41,0-.61-.2-.61-.61,0-.19,.16-.46,.51-.81,2.46-2.71,4.37-6.05,5.74-10.04l.17-.47c.09-.19,.18-.33,.28-.45,.28-.33,.68-.5,1.2-.5,1.21,0,1.82,.5,1.82,1.5,0,.48-.32,1.26-.98,2.34-.24,.41-.54,.87-.89,1.39l-.92,1.31v17.38Zm8.01-18.02h-1.03c-.73,1.04-1.62,2.15-2.69,3.34-.55,.61-1,1.09-1.38,1.45-.45,.39-.76,.59-.92,.59-.41,0-.62-.2-.62-.61,0-.17,.14-.43,.43-.78l.56-.75c.35-.5,.7-1.04,1.03-1.61,.45-.8,.85-1.62,1.2-2.48,.45-1.04,.82-2.1,1.1-3.2l.19-.67c.1-.24,.19-.44,.28-.59,.28-.39,.7-.58,1.24-.58,.45,0,.86,.13,1.24,.39,.43,.3,.64,.69,.64,1.17,0,.35-.17,.85-.51,1.5-.25,.46-.56,.98-.96,1.56h10.48c.08,0,.15,.01,.23,.03,.1,.02,.17,.05,.25,.09,.2,.09,.31,.27,.31,.53,0,.24-.11,.41-.31,.53-.08,.04-.15,.06-.25,.09-.08,.02-.15,.03-.23,.03h-7.29v5.42h6.64c.08,0,.15,.01,.23,.03,.1,.02,.17,.05,.25,.09,.2,.09,.31,.27,.31,.53,0,.24-.11,.42-.31,.53-.08,.04-.15,.06-.25,.09-.08,.02-.15,.03-.23,.03h-6.64v5.42h6.64c.08,0,.15,.01,.23,.03,.1,.02,.17,.05,.25,.09,.2,.09,.31,.27,.31,.53,0,.24-.11,.42-.31,.53-.08,.04-.15,.07-.25,.09-.08,.02-.15,.03-.23,.03h-6.64v4.56c0,.13-.01,.24-.02,.33-.02,.24-.08,.45-.17,.61-.23,.45-.67,.67-1.32,.67s-1.07-.22-1.28-.67c-.1-.17-.15-.37-.17-.61-.02-.09-.03-.2-.03-.33v-17.96Z"/>
          <path class="cls-1" d="M427.76,214.59c0,1.57-.92,2.36-2.75,2.36h-5.49c-1.83,0-2.74-.79-2.74-2.36v-6.75c0-1.57,.91-2.36,2.74-2.36h5.49c1.83,0,2.75,.79,2.75,2.36v6.75Zm-2.84-6.59c0-.83-.42-1.25-1.26-1.25h-2.75c-.84,0-1.26,.42-1.26,1.25v6.42c0,.83,.42,1.25,1.26,1.25h2.75c.84,0,1.26-.42,1.26-1.25v-6.42Zm12.17-8.12c0,1-.27,1.7-.78,2.11-.45,.35-1.17,.53-2.16,.53h-10.53c-1.97,0-2.94-.88-2.94-2.64v-4.51c0-1,.26-1.7,.78-2.11,.45-.35,1.17-.53,2.16-.53h10.53c1.96,0,2.94,.88,2.94,2.64v4.51Zm-3.03-4.59c0-.87-.44-1.31-1.31-1.31h-7.79c-.86,0-1.29,.44-1.29,1.31v4.64c0,.87,.43,1.31,1.29,1.31h7.79c.87,0,1.31-.44,1.31-1.31v-4.64Zm6.89,19.3c0,1.57-.91,2.36-2.74,2.36h-5.58c-1.83,0-2.74-.79-2.74-2.36v-6.75c0-1.57,.91-2.36,2.74-2.36h5.58c1.83,0,2.74,.79,2.74,2.36v6.75Zm-2.93-6.59c0-.83-.42-1.25-1.27-1.25h-2.71c-.85,0-1.27,.42-1.27,1.25v6.42c0,.83,.42,1.25,1.27,1.25h2.71c.85,0,1.27-.42,1.27-1.25v-6.42Z"/>
        </g>
        <rect class="cls-1" x="275.92" y="193.98" width="1.1" height="24.29"/>
        <rect class="cls-1" x="211.64" y="193.98" width="1.1" height="24.29"/>
        <rect class="cls-1" x="335.93" y="193.98" width="1.1" height="24.29"/>
        <rect class="cls-1" x="395.94" y="193.98" width="1.1" height="24.29"/>
        <rect class="cls-1" x="458.81" y="193.98" width="1.1" height="24.29"/>
      </g>
      <g>
        <g>
          <path d="M119.02,335.55c1.01,.78,2.1,1.75,3.24,2.9l-1.43,1.45c-1.21-1.27-2.29-2.2-3.25-2.8l1.44-1.54Zm3.15,6.07c-.32,3.51-1.18,6.38-2.57,8.61l-2.01-.54c1.59-2.72,2.42-5.46,2.49-8.24l2.1,.18Zm-2.87-11.87c1.02,.79,2.11,1.75,3.25,2.9l-1.44,1.46c-1.21-1.27-2.28-2.21-3.24-2.81l1.43-1.54Zm11.46,.91v7.07c0,.43-.19,.64-.57,.64h-5.06v12.24h-2.01v-20.03c0-.29,.2-.45,.57-.45h6.49c.39,0,.57,.18,.57,.54Zm-2,2.81v-1.37c0-.24-.14-.35-.39-.35h-2.76c-.32,0-.48,.11-.48,.35v1.37h3.63Zm-3.63,1.63v1.64h3.15c.31-.06,.48-.21,.48-.46v-1.18h-3.63Zm5.44,9.52h-3.72v-1.63h3.72v-1.81h-4.2v-1.64h10.4v1.64h-4.2v1.81h3.91v1.63h-3.91v1.64h4.67v1.72h-11.35v-1.72h4.68v-1.64Zm2-6.25c-.45-.05-.67-.27-.67-.64v-7.07c0-.36,.22-.54,.67-.54h6.68c.38,0,.57,.18,.57,.54v18.22c0,.36-.1,.72-.29,1.08-.25,.3-.57,.54-.95,.73-.83,.3-2.11,.24-3.83-.19l.29-2.08c1.21,.43,2,.6,2.39,.55,.13-.06,.22-.19,.28-.36,.06-.13,.09-.27,.09-.46v-9.79h-5.24Zm5.24-4.98v-1.18c0-.3-.19-.45-.57-.45h-2.86c-.32,0-.48,.11-.48,.35v1.27h3.91Zm-3.91,1.64v1.18c0,.35,.19,.54,.57,.54h3.34v-1.72h-3.91Z"/>
          <path d="M157.8,339.72h-7.72c-.14,.18-.23,.3-.29,.35-.51,.55-.99,1.03-1.43,1.46,1.21,1.21,2,2.02,2.39,2.44l-1.53,1.09c-.45-.49-1.24-1.27-2.39-2.36-.95,.84-1.84,1.48-2.67,1.9l-1.53-1.36c2.11-1.27,3.73-2.45,4.87-3.53h-4.58v-1.91h6.39c.45-.6,.87-1.18,1.24-1.72h-5.91v-1.91h6.87c.31-.72,.51-1.29,.57-1.72h-8.31v-1.91h8.59c.13-.48,.23-.93,.29-1.36l2,.18c-.06,.43-.13,.82-.19,1.18h9.83v1.91h-10.31c-.13,.73-.29,1.3-.48,1.72h9.83v1.91h-5.72c.38,.72,.76,1.3,1.15,1.72h6.3v1.91h-4.68c1.27,1.15,2.96,2.26,5.07,3.35l-1.63,1.54c-1.15-.72-2.23-1.48-3.24-2.26-.83,.78-1.84,1.57-3.05,2.36l-1.24-1.45c1.15-.84,2.1-1.57,2.86-2.18-.44-.36-.89-.81-1.33-1.36Zm-5.91,7.16c-1.86,1.32-4.29,2.56-7.35,3.71l-.87-1.81c3.05-1.21,5.44-2.36,7.16-3.44l1.05,1.54Zm3.24-5.71v7.34c0,.91-.39,1.57-1.15,1.99-.76,.36-2.14,.33-4.11-.08v-2c1.59,.36,2.57,.43,2.96,.19,.13-.19,.19-.4,.19-.64v-6.8h2.11Zm.19-5.08h-2.57c-.39,.6-.76,1.18-1.15,1.72h4.77c-.32-.54-.67-1.12-1.05-1.72Zm2.11,9.52c3.24,1.57,5.46,2.75,6.67,3.53l-1.14,1.63c-1.86-1.15-4.04-2.29-6.59-3.44l1.05-1.72Z"/>
          <path d="M178.73,339.36v1.63h-11.54v-1.63h11.54Z"/>
          <path d="M180.78,333.92v-2.08h10.02v-2.53h2.2v2.53h9.92v2.08h-3.72c-1.15,4.17-3.09,7.62-5.83,10.33,2.87,2.18,6.14,3.75,9.83,4.72l-1.43,1.8c-3.94-1.26-7.29-3.01-10.02-5.25-.76,.54-1.56,1.13-2.39,1.72-1.66,1.09-4.11,2.27-7.35,3.53l-1.33-1.8c3.63-1.21,6.81-2.81,9.54-4.81-2.54-2.42-4.33-5.84-5.34-10.25h-4.11Zm7.92,4.81c.89,1.69,1.94,3.09,3.15,4.17,.13-.24,.28-.4,.48-.45,2.28-2.24,3.85-5.08,4.67-8.53h-9.92c.45,1.94,.99,3.53,1.63,4.81Z"/>
          <path d="M210.21,350.6h-2v-9.42c-.19,.97-.48,1.75-.87,2.36l-1.91-.27c1.21-2.48,1.94-4.98,2.2-7.53h-1.91v-1.99h2.48v-4.53h2v4.53h2.1v1.99h-2c.9,1.21,1.66,2.48,2.29,3.8l-1.72,.91c-.19-.48-.42-.94-.67-1.36v11.51Zm2.2-2.63v-1.81h6.96v-1.63h-6.49v-1.81h2.29v-2.54h-2.29v-1.81h2.29v-2.53h-1.81v-1.81h14.31v1.81h-2v2.53h2.39v1.81h-2.39v2.54h2.2v1.81h-6.49v1.63h6.78v1.81h-6.78v2.63h-2v-2.63h-6.96Zm5.72-15.86v1.27h-2.1v-1.27h-3.53v-1.9h3.53v-1h2.1v1h4.2v-1h2.1v1h3.53v1.9h-3.53v1.27h-2.1v-1.27h-4.2Zm1.24,3.72h-2.2v2.53h2.2v-2.53Zm0,4.35h-2.2v2.54h2.2v-2.54Zm2-1.81h2.29v-2.53h-2.29v2.53Zm0,4.36h2.29v-2.54h-2.29v2.54Z"/>
          <path d="M237.06,345.07v2.72h-2.96v-2.72h2.96Z"/>
          <path d="M246.84,329.3h1.91v17.49h.85c.19,0,.29-.09,.29-.27v-14.5h1.8v15.68c0,.6-.31,.91-.95,.91h-5.92c-.64-.06-.95-.36-.95-.91v-15.68h1.81v14.5c0,.18,.09,.27,.28,.27h.87v-17.49Zm6.58,5.16l-.95-1.72c1.91-.67,3.24-1.81,4-3.44l1.91,.27c-.13,.13-.19,.27-.19,.45h5.92l1.33,1.09c-1.21,1.99-2.62,3.47-4.2,4.44,1.4,.67,3.05,1.08,4.96,1.26l-.67,1.81c-2.54-.3-4.62-.99-6.2-2.08-1.84,.85-3.91,1.54-6.2,2.08l-.67-1.81c2.03-.35,3.85-.81,5.44-1.36-.77-.73-1.47-1.54-2.11-2.45-.64,.54-1.43,1.03-2.39,1.45Zm-.95,13.33v-1.81h5.82v-1.45h-4.87v-1.81h4.87v-1.37h-5.15v-1.81h5.15v-1.81h2v1.81h5.07v1.81h-5.07v1.37h4.87v1.81h-4.87v1.45h5.73v1.81h-5.73v2.9h-2v-2.9h-5.82Zm7.15-13.14c1.59-1.09,2.62-1.94,3.05-2.54,.13-.18,.09-.27-.09-.27h-5.35c.71,1.09,1.47,2,2.29,2.72,.06,0,.09,.03,.09,.09Z"/>
          <path d="M280.36,339.9h-5.53c-1.71,2.18-3.27,3.93-4.67,5.25l-1.81-1.36c.31-.3,.6-.54,.85-.73,3.05-2.77,5.35-5.8,6.87-9.06h-6.96v-1.99h7.63c.39-.84,.71-1.81,.96-2.91l2.1,.55c-.31,.84-.56,1.63-.76,2.36h11.55v1.99h-12.31c-.57,1.32-1.27,2.63-2.1,3.9h13.64v1.99h-7.25v8.07h8.4v1.99h-20.14v-1.99h9.54v-8.07Z"/>
          <path d="M315.61,337.72h-18.51c-.13,0-.19,.09-.19,.27v4.81c-.07,3.02-.51,5.62-1.34,7.8l-2-.64c.76-2.05,1.18-4.62,1.24-7.7v-5.89c0-.36,.19-.54,.57-.54h20.23v1.9Zm-11.35-8.52h2.1v3.26h6.48c.26,0,.39-.09,.39-.27v-2.26h2.1v3.53c-.06,.6-.41,.91-1.04,.91h-18.14c-.64,0-.95-.3-.95-.91v-3.53h2.1v2.26c0,.18,.09,.27,.29,.27h6.68v-3.26Zm-6.31,16.5v-1.91h7.55v-2.63h-6.88v-1.91h16.32v1.91h-7.35v2.63h8.02v1.91h-8.02v4.98h-2.1v-4.98h-7.55Z"/>
          <path d="M335.02,328.67l-6.96,22.74h-1.72l6.96-22.74h1.72Z"/>
          <path d="M348.07,339.72h-2.29v-1.91h2.29v-5.35h-2.29v-1.91h6.68v1.91h-2.39v5.35h2.29v1.91h-2.29v6.34c.9-.3,1.66-.64,2.29-.99l.96,1.81c-1.97,.91-4.29,1.63-6.97,2.17l-.85-1.81c.95-.18,1.81-.35,2.57-.54v-6.97Zm4.97,11.14l-.96-1.9c3.49-.85,5.72-2.12,6.68-3.81h-6.12v-1.8h6.59v-1.46h-5.34v-1.81h5.34v-1.18h-5.91v-1.8h2.96c-.07-.43-.14-.82-.2-1.18-.13-.36-.19-.64-.19-.82h-3.05v-1.81h1.72c-.51-.96-.96-1.72-1.33-2.26l1.63-1c.56,.73,1.14,1.67,1.71,2.81l-.85,.45h1.81v-4.08h1.91v4.08h1.72v-4.08h1.91v4.08h.85c.76-1.39,1.33-2.53,1.72-3.44l1.72,.72c-.26,.85-.67,1.76-1.24,2.72h2v1.81h-3.81c-.14,.36-.32,1.03-.57,2h3.91v1.8h-6.3v1.18h5.82v1.81h-5.82v1.46h6.87v1.8h-6.3c1.27,2,3.43,3.29,6.48,3.9l-.95,1.81c-3.19-.91-5.53-2.48-7.07-4.71-1.27,2.05-3.72,3.63-7.34,4.71Zm8.58-13.77c.45-1.09,.67-1.76,.67-2h-4.39c0,.19,.03,.36,.09,.54,.14,.55,.23,1.03,.29,1.46h3.34Z"/>
          <path d="M379.32,349.05c-2.1,.73-4.76,1.3-8.02,1.72l-.67-1.9c3.44-.36,6.05-.91,7.83-1.64l.85,1.81Zm-5.43-14.95c0-.43,.22-.64,.67-.64h6.48v-1.27h-9.74v-1.81h9.74v-1.08h2.11v1.08h9.63v1.81h-9.63v1.27h6.58c.51,0,.76,.21,.76,.64v11.14h2.59v1.81h-22.14v-1.81h2.96v-11.14Zm14.5,2.53v-1.08c0-.19-.09-.27-.28-.27h-11.84c-.19,0-.28,.08-.28,.27v1.08h12.4Zm0,2.9v-1.26h-12.4v1.26h12.4Zm-12.4,1.64v1.27h12.4v-1.27h-12.4Zm12.4,4.08v-1.18h-12.4v1.18h12.4Zm-2.76,1.99c3.05,.6,5.53,1.18,7.44,1.73l-.67,1.9c-2.62-.91-5.07-1.48-7.35-1.72l.57-1.91Z"/>
          <path d="M406.74,339.36v1.63h-11.55v-1.63h11.55Z"/>
          <path d="M409.84,337.55l-1.24-1.81c5.67-2.12,9.29-4.28,10.88-6.53l2,.36c-.13,.13-.22,.27-.28,.45,2.73,2.36,6.11,4.26,10.11,5.71l-1.33,1.81c-3.75-1.69-7.06-3.74-9.92-6.16-2.03,2.05-5.44,4.11-10.21,6.16Zm4.01,12.96h-2.2v-9.24c.06-.49,.32-.73,.77-.73h15.36c.5-.06,.76,.18,.76,.73v9.24h-2.2v-.99h-12.5v.99Zm13.26-14.13v2.08h-14.11v-2.08h14.11Zm-.76,11.14v-4.71c0-.18-.09-.27-.28-.27h-11.93c-.19,0-.28,.09-.28,.27v4.71h12.5Z"/>
          <path d="M440.98,350.69h-2.1v-10.33c-.96,2.05-2.1,3.84-3.44,5.35l-1.91-.82c2.11-2.29,3.72-4.83,4.87-7.61h-4.48v-1.99h4.96v-3.26c-1.53,.11-2.8,.18-3.81,.18l-.29-1.91c4.08-.18,7.29-.48,9.64-.91l.39,1.91c-.83,.18-2.11,.36-3.83,.54v3.45h4.2v1.99h-4.2c1.66,1.88,3.18,3.8,4.59,5.8l-1.72,1.18c-.9-1.32-1.84-2.74-2.87-4.25v10.69Zm7.25-.73h-2.1v-19.48c0-.19,.09-.27,.28-.27h8.4c.31,0,.48,.11,.48,.35v19.4h-2.11v-1.08h-4.96v1.08Zm4.96-3.07v-14.42c0-.18-.09-.27-.28-.27h-4.39c-.26,0-.35,.09-.29,.27v14.42h4.96Z"/>
          <path d="M465.08,345.07v2.72h-2.96v-2.72h2.96Z"/>
          <path d="M491.55,344.25c.25,0,.39,.13,.39,.36v6.25h-2.01v-.99h-12.11v.99h-2.01v-4.81c-1.33,.55-2.51,.94-3.52,1.18l-.87-1.9c2.8-.6,5.19-1.48,7.16-2.63h-6.78v-1.81h21.85v1.81h-11.83c-.76,.6-1.52,1.12-2.29,1.53h12.03Zm-14.88-8.33h-3.92v-1.81h3.92v-2.18h-4.11v-1.81h9.64v1.81h-3.63v2.18h3.34v1.81h-3.34v1.9l3.53-.27,.19,1.81-9.64,.81-.28-1.81,4.29-.36v-2.07Zm13.26,12.14v-1.81c0-.13-.09-.19-.28-.19h-11.55c-.19,0-.28,.09-.28,.27v1.73h12.11Zm3.15-8.26h-9.63c-.2,0-.29-.08-.29-.27v-8.52c0-.18,.09-.27,.29-.27h2.96c.44-1.03,.67-1.57,.67-1.64l1.91,.91c-.06,.13-.2,.36-.39,.73h4.48c.2,0,.29,.09,.29,.27v8.52c0,.19-.09,.27-.29,.27Zm-1.62-5.52v-1.72h-6.4v1.72h6.4Zm-6.4,1.81v1.9h6.31c.06,0,.09-.02,.09-.08v-1.81h-6.4Z"/>
          <path d="M497.51,335.37c1.15,.55,2.39,1.37,3.72,2.45l-1.24,1.64c-1.46-1.15-2.67-1.94-3.63-2.36l1.15-1.73Zm3.72,6.08c-.32,3.63-1.24,6.56-2.77,8.79l-2-.72c1.66-2.54,2.61-5.28,2.87-8.24l1.91,.18Zm-3.15-11.7c1.15,.67,2.32,1.64,3.53,2.9l-1.44,1.46c-1.33-1.27-2.48-2.21-3.43-2.81l1.33-1.54Zm13.26,20.94l-2-.46c.13-.3,.22-.54,.29-.72h-1.91v-1h-3.44v1h-2v-11.7c0-.24,.13-.36,.38-.36h2.29v-3.35h-2.87v-1.91h2.87v-2.81h2v2.81h2.87v1.91h-2.87v3.35h2.39c.25,.06,.39,.22,.39,.46v11.24c.89-2.84,1.37-5.38,1.43-7.61v-11.15c0-.36,.19-.54,.57-.54h6.01c.44,0,.67,.18,.67,.54v17.95c-.06,.78-.29,1.36-.67,1.72-.51,.42-1.72,.51-3.63,.27l-.09-2.08c.76,.3,1.33,.46,1.72,.46,.25,0,.41-.03,.47-.09,.2-.13,.29-.4,.29-.81v-4.72h-3.53c-.13,2.48-.67,5.01-1.63,7.62Zm-3.62-4.08v-6.98c0-.18-.1-.27-.29-.27h-2.87c-.19,0-.28,.09-.28,.27v6.98h3.44Zm8.78-11.06v-3.72c0-.11-.09-.18-.29-.18h-2.95c-.14-.06-.2,0-.2,.18v3.72h3.44Zm0,5.71v-3.9h-3.44v3.9h3.44Z"/>
          <path d="M524.08,349.78h-1.91v-19.3c0-.43,.2-.64,.57-.64h7.35c.45,.06,.67,.27,.67,.64v17.4c-.06,.43-.28,.64-.67,.64h-6.01v1.27Zm.29-18.03c-.19,0-.29,.08-.29,.27v6.43h1.44v-6.7h-1.15Zm1.15,14.86v-6.25h-1.44v6.25h1.44Zm1.81-14.86v6.7h1.52v-6.43c0-.19-.13-.27-.38-.27h-1.15Zm1.52,8.61h-1.52v6.25h1.15c.25,0,.38-.13,.38-.36v-5.89Zm2.29,4.44v-2h5.44v-3.44h-4.96v-1.99h4.96v-8.07h2.1v8.07h5.25v1.99h-5.25v3.44h5.53v2h-5.53v5.97h-2.1v-5.97h-5.44Zm1.91-14.51c.96,1.51,1.75,3.39,2.39,5.63l-1.91,.63c-.76-2.36-1.53-4.17-2.29-5.43l1.81-.82Zm10.79,1.09c-.51,1.51-1.34,3.26-2.49,5.25l-1.8-.81c1.2-2.12,2-3.84,2.38-5.17l1.92,.73Z"/>
        </g>
        <g>
          <g>
            <path d="M144.23,290.7v2.72h-2.96v-2.72h2.96Z"/>
            <path d="M207.14,290.7v2.72h-2.96v-2.72h2.96Z"/>
            <path d="M270.03,290.7v2.72h-2.96v-2.72h2.96Z"/>
            <g>
              <path d="M7.92,277.82v1.27h-2.1v-1.27H0v-1.81H5.83v-1.26h2.1v1.26h6.68v-1.26h2.11v1.26h5.43v1.81h-5.43v1.37h-2.11v-1.37H7.92Zm-7.63,15.5v-1.81H10.12v-1.81H.96v-1.81h3.44v-2.26H0v-1.81H4.4v-2.26H.96v-1.81H21.28v1.81h-3.24v2.26h4.1v1.81h-4.1v2.26h3.15v1.81H12.22v1.81h9.64v1.81H12.22v3.09h-2.1v-3.09H.29Zm9.83-11.78h-3.63v2.26h3.63v-2.26Zm0,4.08h-3.63v2.26h3.63v-2.26Zm2.1-1.81h3.72v-2.26h-3.72v2.26Zm0,4.08h3.72v-2.26h-3.72v2.26Z"/>
              <path d="M27.81,296.04h-2.1v-19.94c0-.42,.22-.64,.67-.64h19.46c.51,0,.76,.22,.76,.64v19.94h-2.1v-.91H27.81v.91Zm16.7-2.9v-15.41c0-.19-.09-.28-.28-.28H28.09c-.25,0-.34,.09-.28,.28v15.41h16.7Zm-2-1.37h-12.4c-.2,0-.29-.08-.29-.27v-6.62c0-.18,.09-.27,.29-.27h4.96v-2.53h-6.11v-1.91h6.11v-1.9h2v1.9h6.39v1.91h-6.39v2.53h5.44c.19,0,.28,.09,.28,.27v6.62c0,.19-.09,.27-.28,.27Zm-10.59-5.25c-.07,0-.1,.03-.1,.09v3.17c0,.06,.03,.09,.1,.09h8.78c.06,0,.09-.03,.09-.09v-3.17c0-.06-.03-.09-.09-.09h-8.78Z"/>
              <path d="M60.86,284.98v1.64h-11.55v-1.64h11.55Z"/>
              <path d="M71.12,285.26h2.96v1.64h-8.79c-.44-.06-.67-.27-.67-.64v-6.16c-.25,.3-.51,.57-.76,.81-.45-.6-.9-1-1.33-1.18,1.27-1.33,2.19-2.99,2.76-4.98l1.91,.63c-.13,.36-.28,.73-.47,1.09h2.67c.31-.73,.57-1.3,.76-1.72l1.72,.72c-.06,.3-.19,.64-.39,1h2.48v1.63h-2.86v1.27h2.48v1.54h-2.48v1.36h2.39v1.54h-2.39v1.45Zm-5.06,4.53v-1.81h15.74l1.53,1.18c-1.47,1.64-3.35,3.02-5.64,4.17,2.04,.6,4.52,1,7.45,1.18l-.68,1.99c-3.49-.35-6.51-1.08-9.06-2.17h-.2c-1.46,.66-3.05,1.18-4.76,1.54-1.78,.42-4.11,.63-6.97,.63l-.47-1.99c3.12-.06,5.53-.3,7.24-.72,.9-.25,1.75-.49,2.59-.73-1.21-.73-2.48-1.54-3.83-2.45l.67-.81h-3.62Zm3.15-10.42v-1.27h-2.48c-.14,.06-.2,.13-.2,.19v1.08h2.68Zm0,2.9v-1.36h-2.68v1.36h2.68Zm-2.68,1.54v1.18c.06,.19,.14,.27,.2,.27h2.48v-1.45h-2.68Zm4.77,5.98c1.4,1.03,2.67,1.84,3.81,2.45,2.04-.84,3.56-1.67,4.59-2.45h-8.4Zm10.5-4.53h3.05v1.64h-8.87c-.45-.06-.67-.27-.67-.64v-6.89c-.2,.18-.39,.36-.57,.54-.45-.6-.9-1.02-1.33-1.26,1.14-.91,2-2.18,2.57-3.81l1.81,.82c-.2,.3-.32,.57-.39,.81h2.57c.32-.67,.57-1.21,.76-1.64l1.72,.73c-.06,.24-.19,.54-.38,.91h2.76v1.63h-3.05v1.27h2.87v1.54h-2.87v1.36h2.87v1.54h-2.87v1.45Zm-1.91-5.89v-1.27h-2.48c-.13,.06-.19,.13-.19,.19v1.08h2.67Zm0,2.9v-1.36h-2.67v1.36h2.67Zm-2.67,1.54v1.18c.06,.19,.13,.27,.19,.27h2.48v-1.45h-2.67Z"/>
              <path d="M92.72,296.32h-2v-9.69c-.39,1.08-.76,1.99-1.15,2.72l-2-.46c1.4-2.36,2.32-4.81,2.76-7.34h-2.19v-2h2.57v-4.62h2v4.62h2.2v2h-2.2v.54c1.08,1.03,2.14,2.12,3.15,3.26l-1.62,1.27c-.45-.67-.96-1.3-1.53-1.91v11.6Zm11.74-1.81c-.31,.91-.85,1.48-1.62,1.72-.71,.19-1.84,.16-3.44-.08l-.09-2c1.27,.24,2.1,.33,2.48,.27,.39-.18,.67-.54,.85-1.08,.26-.6,.39-1.21,.39-1.81-2.67,2-5.25,3.29-7.73,3.9l-.95-1.81c3.18-.84,6.05-2.26,8.59-4.25-.14-.43-.29-.82-.48-1.19-2.48,1.94-4.81,3.18-6.96,3.72l-1.05-1.72c2.73-.73,5.09-1.91,7.06-3.53-.19-.19-.38-.4-.56-.64-1.78,1.21-3.35,1.99-4.68,2.36l-1.05-1.64c1.78-.66,3.53-1.53,5.25-2.63h-4.01c-.19,0-.28-.08-.28-.27v-4.44c-.2,.13-.39,.21-.57,.27l-.87-1.72c1.98-.78,3.44-1.84,4.4-3.17l1.62,.72c-.13,.19-.22,.36-.28,.54h5.24l1.24,.82c-.44,.84-.95,1.56-1.52,2.17h3.91c.19,0,.29,.09,.29,.27v4.53c0,.19-.1,.27-.29,.27h-5.91c-.32,.3-.68,.57-1.05,.81,.44,.43,1.05,1.21,1.81,2.37,.95,2.36,3.05,4.56,6.3,6.61l-1.72,1.27c-1.46-1.08-2.7-2.21-3.72-3.36-.13,1.09-.31,2-.57,2.72Zm-1.62-15.5c.7-.54,1.18-.94,1.43-1.18h-5.35c-.64,.43-1.27,.82-1.91,1.18h5.83Zm-.96,1.64h-3.72v1.72c0,.06,.03,.09,.09,.09h3.63v-1.81Zm2,1.81h3.63l.09-.09v-1.72h-3.72v1.81Zm5.53,3.8c-.82,.78-1.84,1.57-3.05,2.36l-1.24-1.54c1.34-.91,2.32-1.66,2.96-2.26l1.33,1.45Z"/>
              <path d="M115.75,296.32h-2v-20.21c.06-.42,.28-.64,.67-.64h19.27c.45,0,.67,.22,.67,.64v20.21h-2v-.91h-16.6v.91Zm7.44-15.41v-1.08h-5.72v-1.54h5.72v-1h-7.16c-.19,0-.28,.09-.28,.27v16.04h16.6v-16.14c0-.11-.09-.18-.29-.18h-6.96v1h5.72v1.54h-5.72v1.08h6.4v1.63h-14.7v-1.63h6.39Zm-.19,7.16v4.98h-1.91v-3.44c-1.28,1.08-2.42,1.9-3.44,2.44l-1.33-1.36c1.52-.78,2.87-1.66,4-2.63h-2.28c-.2,0-.29-.09-.29-.27v-4.17c0-.19,.09-.27,.29-.27h12.02c.2,0,.29,.08,.29,.27v4.17c0,.18-.09,.27-.29,.27h-4.29c.96,1.99,2.87,3.2,5.73,3.63l-.96,1.63c-3.5-.78-5.72-2.53-6.68-5.25h-.85Zm-3.35-3.18c-.06,0-.09,.03-.09,.09v1.45c0,.06,.03,.09,.09,.09h8.79c.06,0,.09-.03,.09-.09v-1.45c0-.06-.03-.09-.09-.09h-8.79Zm12.22,4.45c-.64,.48-1.46,.99-2.48,1.53l-.85-1.45c1.01-.54,1.81-1.02,2.39-1.45l.95,1.37Z"/>
              <path d="M151.13,286.98c-.13-.59-.31-1.2-.57-1.8l1.63-.28c.64-.72,1.27-1.56,1.91-2.53-1.21-.97-2.42-1.75-3.63-2.36,.32-.48,.57-1,.77-1.54,.19-.06,.5,.09,.95,.46,.7-1.27,1.27-2.64,1.72-4.09,.57,.3,1.15,.54,1.72,.73-.39,1.15-1.05,2.56-2.01,4.26,.45,.3,.9,.63,1.34,.99,.64-1.21,1.04-2.36,1.24-3.44l1.91,.45c-.32,1.7-1.53,3.93-3.63,6.71l1.72-.27c-.14-.55-.23-.91-.29-1.09l1.91-.36c.45,1.51,.7,2.91,.77,4.17l-1.81,.19c-.07-.3-.1-.64-.1-1l-5.53,.81Zm11.74,9.25h-2v-4.62c-3.3,2.18-6.33,3.53-9.06,4.08l-.96-1.9c3.37-.73,6.39-1.94,9.07-3.63h-9.16v-1.81h10.11v-1.81h-1.81c-.19,0-.28-.09-.28-.27v-9.34c0-.18,.09-.27,.28-.27h1.53c.38-.78,.6-1.39,.67-1.81l1.72,.64c-.07,.24-.2,.64-.39,1.18h1.81c.19,0,.28,.09,.28,.27v9.34c0,.18-.09,.27-.28,.27h-1.53v1.81h10.31v1.81h-9.16c1.15,.91,2.2,1.57,3.15,1.99,1.53,.84,3.53,1.39,6.01,1.64l-.95,1.9c-3.5-.72-6.62-2.12-9.36-4.17v4.71Zm0-15.5v-2.26c0-.06-.03-.09-.09-.09h-2.1c-.06,0-.09,.03-.09,.09v2.26h2.28Zm-2.28,1.73v2.26c0,.06,.03,.09,.09,.09h2.1c.06,0,.09-.03,.09-.09v-2.26h-2.28Zm4.77,4.35c-.07-.54-.23-1.18-.48-1.91l1.52-.08c.57-.67,1.18-1.48,1.81-2.45-1.15-.97-2.29-1.66-3.43-2.08,.25-.54,.5-1.08,.76-1.63,.13,0,.38,.08,.76,.27,.64-1.21,1.18-2.54,1.63-3.99,.57,.24,1.15,.48,1.72,.73-.39,1.08-.99,2.47-1.81,4.17,.38,.3,.79,.63,1.24,.99,.57-1.08,.98-2.12,1.24-3.07l1.81,.45c-.39,1.64-1.56,3.72-3.53,6.25l2.1-.18c-.25-.67-.42-1.13-.48-1.37l1.81-.45c.9,2.6,1.38,3.98,1.44,4.17l-1.81,.35c-.14-.35-.23-.66-.29-.9l-6,.72Z"/>
              <path d="M184.86,288.25c-1.92,1.7-4.62,2.99-8.12,3.9l-1.04-1.72c2.42-.67,4.39-1.39,5.91-2.18h-5.72v-1.81h8.02c.31-.3,.6-.64,.85-.99h-6.3c-.19,0-.28-.09-.28-.27v-6.17c0-.18,.09-.27,.28-.27h17.08c.19,0,.28,.09,.28,.27v6.17c0,.18-.09,.27-.28,.27h-8.31c-.25,.3-.51,.64-.76,.99h11.64v1.81h-5.35c1.41,.91,3.25,1.57,5.53,1.99l-1.14,1.81c-2.93-.91-5.44-2.17-7.55-3.8h-4.76Zm-1.05-10.79v.73h-2.11v-.73h-5.91v-1.8h5.91v-.82h2.11v.82h6.68v-.82h2.1v.82h5.53v1.8h-5.53v.73h-2.1v-.73h-6.68Zm-1.33,15.23c-1.66,1.57-3.35,2.72-5.07,3.45-.25-.79-.5-1.37-.76-1.73,1.66-.66,3.09-1.72,4.29-3.17l1.53,1.45Zm11.35-11.41v-.91h-13.64v.91h13.64Zm-13.64,1.53v.91c0,.06,.03,.09,.09,.09h13.46l.09-.09v-.91h-13.64Zm6.01,6.54v4.89c-.06,.91-.42,1.54-1.05,1.91-.57,.35-1.81,.35-3.72,0v-2c.57,.19,.99,.3,1.24,.36,.7,.13,1.15,.09,1.33-.09,.13-.18,.19-.39,.19-.63v-4.44h2.01Zm3.24,1.72c1.08,2.17,1.72,3.63,1.91,4.35l-1.91,.54c-.7-1.69-1.33-3.07-1.91-4.17l1.91-.72Zm4.29,0c1.66,2.17,2.67,3.53,3.05,4.08l-1.81,1c-.76-1.16-1.75-2.48-2.96-3.99l1.72-1.08Z"/>
              <path d="M214.61,281.55l-.67-2.08c3.31-.54,5.86-2.08,7.64-4.63l2.1,.64c-.06,.13-.13,.22-.19,.27h10.11l1.63,1.27c-.64,.84-1.18,1.64-1.63,2.36-2.23,2.78-5.53,5.11-9.92,6.98h9.83c.51-.06,.76,.18,.76,.72v9.07h-2.19v-1h-11.07v1h-2.2v-8.16c-1.46,.43-2.99,.81-4.58,1.18l-.77-2.08c3.31-.54,6.05-1.21,8.21-1.99,.76-.24,1.52-.54,2.29-.91-1.86-1.45-3.73-2.75-5.64-3.9-1.07,.48-2.31,.91-3.72,1.27Zm11.36,1.63c2.61-1.45,4.61-3.17,6.01-5.16,0-.19-.04-.27-.1-.27h-10.11c-.57,.48-1.08,.94-1.53,1.36,.64,.43,1.38,.91,2.2,1.45,1.33,.97,2.51,1.84,3.53,2.63Zm6.11,9.98v-4.53c0-.18-.09-.27-.29-.27h-10.5c-.19,0-.28,.09-.28,.27v4.53h11.07Z"/>
              <path d="M243.18,277.46c-.76,.79-1.75,1.64-2.96,2.54l-1.81-1.18c2.17-1.33,3.53-2.54,4.11-3.63h1.91c-.06,.18-.09,.3-.09,.36,.95,.72,2,1.36,3.15,1.9l-1.43,1.54c-.96-.6-1.81-1.26-2.57-1.99-.14,.13-.23,.27-.29,.45Zm-1.52,8.8h-2.77v-1.81h2.77v-2.26h-2.11v-1.81h6.3v1.81h-2.28v2.26h2.57v1.81h-2.57v6.62c.95-.24,1.71-.46,2.28-.64l.68,1.72c-1.72,.67-4.2,1.27-7.45,1.81l-.57-1.81c.96-.18,2.01-.4,3.16-.64v-7.07Zm-1.15,1.54c.38,1.63,.57,3.07,.57,4.35l-1.63,.09c-.13-1.64-.32-3.09-.57-4.36l1.63-.08Zm5.63,.08c-.13,1.16-.32,2.3-.57,3.45l-1.53-.36c.2-.78,.39-1.91,.57-3.36l1.53,.27Zm7.16,2.99v-1.53h4.19v-1.19h-10.59v-1.63h14.22v1.63h-1.72v1.19h1.72v1.53h-1.72v3.45c-.06,.78-.41,1.39-1.04,1.81-.64,.35-1.81,.35-3.53,0l-.09-1.81c1.46,.3,2.32,.33,2.57,.08,.13-.11,.19-.3,.19-.54v-2.99h-4.19Zm5.24-7.52h-3.81v.91h5.35v1.45h-12.79v-1.45h5.53v-.91h-4.96v-1.27h10.68v.81l.48-.99c.06-.19,.06-.3,0-.36,0-.06-.03-.09-.09-.09h-11.93v-1.63h13.36l.96,.72c-.39,1.03-.8,2.02-1.24,2.99-.57-.18-1.08-.36-1.53-.54v.36Zm-9.64,12.51h-1.81v-6.62c0-.19,.1-.27,.29-.27h5.06c.25,.06,.39,.18,.39,.36v6.53h-1.81v-.91h-2.11v.91Zm4.01-18.86h-5.63v-1.45h5.63v-.81h1.91v.81h5.82v1.45h-5.82v.91h5.06v1.27h-11.83v-1.27h4.87v-.91Zm-1.91,16.41v-2.63c-.06-.19-.14-.27-.2-.27h-1.62c-.19,0-.29,.08-.29,.27v2.63h2.11Zm3.53-2.18c.7,.36,1.37,.91,2,1.64l-1.15,1.18c-.82-.73-1.47-1.27-1.91-1.64l1.05-1.18Z"/>
              <path d="M284.2,275.02h2.28v5.52h11.07v2.08h-11.07v10.79h12.41v2.08h-22.34v-2.08h7.64v-18.4Z"/>
              <path d="M301.7,279.54v-2.08h10.02v-2.53h2.2v2.53h9.92v2.08h-3.72c-1.15,4.17-3.09,7.62-5.83,10.34,2.87,2.17,6.14,3.74,9.83,4.71l-1.43,1.81c-3.94-1.27-7.29-3.02-10.02-5.26-.76,.55-1.56,1.13-2.39,1.73-1.66,1.08-4.11,2.26-7.35,3.53l-1.33-1.81c3.63-1.21,6.81-2.81,9.54-4.81-2.54-2.42-4.33-5.83-5.34-10.25h-4.11Zm7.92,4.81c.89,1.7,1.94,3.09,3.15,4.17,.13-.24,.28-.39,.48-.45,2.28-2.24,3.85-5.08,4.67-8.53h-9.92c.45,1.94,.99,3.54,1.63,4.81Z"/>
              <path d="M333.12,296.32h-2.1v-10.87c-1.15,2.6-2,4.35-2.57,5.25l-2.01-.64c2.11-2.9,3.56-6.1,4.4-9.61h-3.92v-1.99h4.11v-3.63h2.1v3.63h3.35v1.99h-3.35v.36c1.47,1.64,2.9,3.36,4.29,5.17l-1.71,1.18c-.77-1.15-1.63-2.36-2.59-3.63v12.78Zm8.03-11.51c-1.15,3.14-2.52,5.89-4.11,8.24l-2.11-.64c1.53-1.99,2.8-4.11,3.81-6.34,.71-1.4,1.38-3.27,2.01-5.63h-3.25v-1.99h3.64v-3.63h2.1v3.63h5.16v1.99h-4.88c1.92,4.9,3.81,8.73,5.73,11.52l-1.81,.91c-1.59-2.42-2.99-5.3-4.2-8.61v12.05h-2.1v-11.51Z"/>
            </g>
          </g>
          <g>
            <path d="M380.06,287.57c0-.19-.09-.28-.28-.28h-2.29v-1.99h4.11c.38,.06,.57,.22,.57,.46v5.52c.06,.54,.31,1.03,.76,1.45,.64,.78,1.46,1.3,2.48,1.54,1.33,.3,6.01,.24,14.03-.18l-.48,2.17c-4.14,.06-8.02,.09-11.64,.09-2.99-.24-4.99-1.21-6.01-2.9-.19,.54-.57,1.12-1.14,1.72-.71,.72-1.38,1.21-2.01,1.45l-1.15-1.72c1.27-.6,2.11-1.18,2.48-1.72,.32-.36,.51-.82,.57-1.37v-4.25Zm-1.81-7.8c1.21,.6,2.51,1.48,3.92,2.63l-1.24,1.63c-1.53-1.26-2.8-2.11-3.81-2.53l1.14-1.72Zm.57-4.26c1.21,.54,2.51,1.37,3.92,2.45l-1.24,1.63c-1.47-1.15-2.71-1.93-3.72-2.36l1.04-1.72Zm8.88,14.59c-1.47,.73-2.71,1.27-3.72,1.64l-1.05-1.81c2.1-.6,4.04-1.48,5.82-2.64h-4.39c-.13,0-.19-.08-.19-.27v-4.35c.06-.13,.13-.18,.19-.18h13.36c.19,.05,.29,.11,.29,.18v4.35c0,.19-.1,.27-.29,.27h-6.01c-.76,.6-1.43,1.13-2,1.54v5.17h-1.91v-3.99l-.09,.09Zm2.19-11.78h-6v-1.73h6v-1.53h2.01v1.53h6.11v1.73h-6.11v1.26h7.06v1.81h-15.84v-1.81h6.78v-1.26Zm-3.81,5.8q-.06,0,0,0v1.54h9.92l.09-.09v-1.45h-10.02Zm10.59,3.36l1.24,1.36c-.64,.67-1.37,1.3-2.19,1.91,.76,.54,1.52,1.12,2.29,1.72l-1.15,1.54c-2.48-1.88-4.59-3.26-6.31-4.17l1.15-1.54c.77,.43,1.53,.84,2.29,1.27,1.21-.78,2.1-1.48,2.67-2.08Z"/>
            <path d="M402.25,279.59v-1.9h3.52c.06-.73,.14-1.48,.2-2.27l1.91,.19c-.06,.78-.13,1.48-.19,2.08h4.19v1.9h-4.48c-.76,4.12-1.94,7.53-3.53,10.25l-1.91-.54c1.72-2.96,2.9-6.19,3.53-9.7h-3.24Zm.47,15.77c-.25-.6-.5-1.21-.76-1.81l2.2-.35c1.52-3.15,2.76-6.53,3.72-10.15l1.81,.54c-.57,2.42-1.66,5.47-3.24,9.15l3.24-.72c-.51-1.81-.8-2.99-.87-3.54l1.92-.35c.76,2.42,1.27,4.84,1.52,7.24l-1.91,.19c-.13-.6-.23-1.18-.29-1.72l-7.35,1.53Zm21.58-1.08v1.81h-10.6c-.51-.06-.76-.3-.76-.73v-13.05c-.45,.54-.89,1.09-1.33,1.64l-1.72-1c2.17-2.23,3.63-4.81,4.39-7.7l1.91,.54c-.38,1.21-.79,2.27-1.24,3.18h3.25c.82-1.46,1.37-2.64,1.62-3.54l1.91,.73c-.25,.91-.67,1.84-1.24,2.81h3.63l-.19,1.8h-3.63v3.26h3.72v1.81h-3.72v3.36h3.72v1.81h-3.72v3.26h4.01Zm-6.01-13.51h-3.05c-.2,0-.29,.09-.29,.27v2.99h3.35v-3.26Zm0,5.08h-3.35v3.36h3.35v-3.36Zm0,5.17h-3.35v2.99c0,.18,.09,.27,.29,.27h3.05v-3.26Z"/>
            <path d="M438.07,285.3v1.64h-11.55v-1.64h11.55Z"/>
            <path d="M442.31,294.91h-2v-18.4h4.87c1.46,0,2.67,.54,3.63,1.63,.76,1.03,1.15,2.48,1.15,4.36,.06,1.63-.39,2.9-1.33,3.8-.9,.78-2.04,1.18-3.44,1.18h-2.87v7.43Zm4.77-10.06c.57-.49,.85-1.27,.85-2.36,.06-1.4-.19-2.39-.76-2.99-.57-.73-1.55-1.09-2.96-1.09h-1.91v7.16h1.91c1.34,.06,2.29-.18,2.87-.72Z"/>
            <path d="M453.89,294.91h-2l5.06-18.4h2l5.16,18.4h-2l-1.63-5.53h-5.06l-1.53,5.53Zm6.11-7.43l-2-7.34-2.1,7.34h4.1Z"/>
            <path d="M467.96,287.48v7.43h-2v-18.4h4.87c1.52,0,2.79,.54,3.81,1.63,.9,1.03,1.33,2.48,1.33,4.36,0,1.63-.51,2.9-1.52,3.8-.64,.67-1.47,1.02-2.48,1.08l4.77,7.53h-2.39l-4.68-7.43h-1.72Zm5.06-2.72c.64-.54,.96-1.3,.96-2.26,0-1.4-.32-2.39-.96-2.99-.56-.73-1.52-1.09-2.86-1.09h-2.2v7.16h2.2c1.33,0,2.29-.27,2.86-.81Z"/>
            <path d="M480.03,294.91h-2v-18.4h2v8.07l5.63-8.07h2.29l-6.11,8.79,7.35,9.61h-2.39l-6.78-9.07v9.07Z"/>
            <path d="M505.3,293.19c-.95-1.51-1.43-4.17-1.43-7.98,.06-3.26,.6-5.62,1.63-7.07,1.01-1.21,2.31-1.81,3.91-1.81s2.9,.64,3.72,1.91c1.02,1.51,1.53,3.84,1.53,6.97-.07,3.93-.6,6.65-1.63,8.16-.7,1.21-1.91,1.81-3.63,1.81-1.91,0-3.27-.67-4.11-1.99Zm6.31-13.6c-.64-.91-1.38-1.36-2.2-1.36-1.02-.06-1.81,.27-2.39,1-.76,1.08-1.15,3.07-1.15,5.97,.06,3.15,.42,5.38,1.05,6.71,.51,.91,1.33,1.36,2.48,1.36,.89-.06,1.66-.57,2.29-1.53,.64-1.09,.95-3.27,.95-6.54-.06-2.84-.41-4.71-1.04-5.62Z"/>
            <path d="M525,276.51h2v18.4h-2.11l-5.72-14.05v14.05h-2v-18.4h2.19l5.64,14.04v-14.04Z"/>
            <path d="M532.3,293h7.35v1.91h-9.36v-18.4h9.36v1.9h-7.35v6.17h5.15v1.9h-5.15v6.53Z"/>
            <path d="M548.94,291.01v2.72h-2.96v-2.72h2.96Z"/>
            <path d="M561.1,295.18c-1.98,0-3.47-.84-4.49-2.54-.82-1.39-1.24-3.65-1.24-6.8,.06-3.44,.67-5.98,1.81-7.61,1.02-1.27,2.32-1.91,3.92-1.91,1.4-.05,2.51,.36,3.34,1.27,.82,.97,1.24,2.18,1.24,3.63h-2c-.06-.84-.32-1.57-.76-2.18-.57-.54-1.18-.81-1.81-.81-1.02,0-1.84,.45-2.48,1.36-.71,1.09-1.05,3.18-1.05,6.25,.06,2.85,.31,4.74,.76,5.71,.7,1.15,1.63,1.72,2.77,1.72,.82,0,1.46-.3,1.91-.91,.44-.66,.67-1.45,.67-2.36h2c0,1.45-.42,2.66-1.24,3.63-.82,1.03-1.94,1.54-3.34,1.54Z"/>
            <path d="M569.34,294.91h-2l5.06-18.4h2l5.16,18.4h-2l-1.63-5.53h-5.06l-1.53,5.53Zm6.11-7.43l-2-7.34-2.1,7.34h4.1Z"/>
            <path d="M586.36,293.19c.82,0,1.56-.27,2.2-.82,.57-.59,.85-1.29,.85-2.08-.06-1.2-1.27-2.56-3.63-4.08-2.73-1.81-4.11-3.53-4.11-5.17-.06-1.15,.29-2.17,1.05-3.07,.82-1.08,2-1.64,3.53-1.64,2.1,0,3.85,1.21,5.24,3.63l-1.33,1.45c-.57-1.08-1.08-1.83-1.52-2.26-.57-.6-1.38-.91-2.39-.91-.76,0-1.37,.27-1.81,.81-.51,.54-.76,1.21-.76,1.99,0,1.09,1.33,2.48,4,4.17,2.48,1.57,3.72,3.26,3.72,5.08,0,1.33-.47,2.48-1.43,3.45-1.02,.91-2.23,1.36-3.63,1.36-2.16,0-3.91-1.26-5.24-3.8l1.24-1.45c1.27,2.23,2.61,3.36,4,3.36Z"/>
            <path d="M594.99,294.91h-2l5.06-18.4h2l5.16,18.4h-2l-1.63-5.53h-5.06l-1.53,5.53Zm6.11-7.43l-2-7.34-2.1,7.34h4.1Z"/>
            <path d="M613.08,291.01v2.72h-2.96v-2.72h2.96Z"/>
            <path d="M622.84,275.24h1.91v17.49h.85c.2,0,.29-.09,.29-.27v-14.5h1.81v15.68c0,.6-.32,.91-.96,.91h-5.91c-.65-.06-.96-.36-.96-.91v-15.68h1.81v14.5c0,.18,.09,.27,.28,.27h.87v-17.49Zm6.59,5.17l-.96-1.73c1.91-.66,3.24-1.8,4-3.44l1.92,.27c-.14,.13-.2,.27-.2,.46h5.92l1.33,1.08c-1.21,1.99-2.61,3.47-4.2,4.44,1.4,.67,3.05,1.08,4.96,1.27l-.67,1.81c-2.54-.3-4.61-1-6.2-2.08-1.84,.84-3.91,1.53-6.2,2.08l-.67-1.81c2.03-.36,3.85-.82,5.44-1.37-.76-.72-1.47-1.54-2.11-2.44-.64,.54-1.43,1.02-2.38,1.45Zm-.96,13.32v-1.81h5.82v-1.45h-4.86v-1.81h4.86v-1.37h-5.15v-1.8h5.15v-1.81h2.01v1.81h5.06v1.8h-5.06v1.37h4.87v1.81h-4.87v1.45h5.72v1.81h-5.72v2.9h-2.01v-2.9h-5.82Zm7.16-13.14c1.58-1.08,2.61-1.93,3.05-2.53,.13-.19,.09-.28-.1-.28h-5.34c.7,1.09,1.46,2,2.28,2.72,.06,0,.1,.03,.1,.09Z"/>
            <path d="M645.02,289.1c-.13-.54-.31-1.12-.57-1.72l1.63-.18c.51-.49,1.05-1.03,1.63-1.64-1.08-1.02-2.2-1.84-3.35-2.45,.39-.54,.7-1.08,.96-1.63,.13,.06,.47,.27,1.04,.64,.7-1.03,1.38-2.12,2.01-3.26,.57,.42,1.07,.75,1.52,.99-.45,.91-1.18,2.03-2.19,3.36,.38,.3,.76,.64,1.14,1,.77-1.09,1.38-2.12,1.81-3.09l1.72,.73c-.45,1.21-1.63,2.84-3.53,4.89l1.91-.27c-.19-.67-.28-1.08-.28-1.27l1.63-.27c.44,1.51,.7,2.85,.76,3.99l-1.63,.18c-.06-.3-.09-.57-.09-.81l-1.33,.18v8.26h-1.91v-7.97l-2.87,.35Zm7.25-11.14v1h-2.1v-1h-5.44v-1.81h5.44v-1h2.1v1h7.16v-1h2.1v1h5.35v1.81h-5.35v.91h-2.1v-.91h-7.16Zm-4.87,12.14c-.13,1.64-.42,3.53-.85,5.71l-1.81-.27c.57-2.3,.85-4.17,.85-5.62l1.81,.18Zm4.48-.09c.26,1.81,.42,3.2,.48,4.17h-1.63c-.06-1.39-.19-2.74-.38-4.08l1.52-.09Zm1.44-1.18c0-.36,.19-.54,.57-.54h11.74c.44,0,.67,.18,.67,.54v5.89h.95v1.81h-14.98v-1.81h1.05v-5.89Zm12.4-1.63h-11.46c-.19,0-.28-.09-.28-.27v-7.25c0-.18,.09-.27,.28-.27h11.46c.19,0,.28,.09,.28,.27v7.25c0,.18-.09,.27-.28,.27Zm-8.5,7.52v-4.79h-1.81c-.13,.05-.19,.11-.19,.18v4.62h2Zm2.48-11.6c-.06,.06-.09,.13-.09,.19-.64,.78-1.24,1.39-1.81,1.81l-1.33-1c.95-.72,1.81-1.72,2.57-2.99h-3.15c-.06,0-.09,.03-.09,.09v4.17c0,.06,.03,.09,.09,.09h8.2c.06,0,.09-.03,.09-.09v-4.17c0-.06-.03-.09-.09-.09h-3.15c-.13,.36-.28,.67-.48,.91,1.02,.54,2.01,1.18,2.96,1.91l-1.05,1.26c-.76-.59-1.65-1.29-2.67-2.08Zm1.15,11.6v-4.79h-1.91v4.79h1.91Zm3.53,0v-4.62c0-.13-.1-.18-.29-.18h-1.52v4.79h1.81Z"/>
          </g>
          <path d="M367.74,273.61l-6.96,22.74h-1.72l6.96-22.74h1.72Z"/>
        </g>
      </g>
      <g>
        <path d="M199.96,115.2c-.13,.07-.27,0-.4-.19,.4-.32,.83-.56,1.3-.76,1.12-.43,2.11-.97,2.98-1.6l5.98-6.05c.53-.76,.99-1.52,1.39-2.28,.6-.12,1.06-.5,1.39-1.13-.06-.32-.16-.56-.29-.76v-.09c.2-.37,.43-.69,.7-.95l.29,.39c.67-1.13,1.19-1.95,1.6-2.46,.72-.63,1.16-1.41,1.28-2.36-.13-.63-.43-1.17-.89-1.61,.4-.25,.89-.37,1.48-.37,.61,.32,1.26,.57,2,.76,.27-.13,.53-.26,.79-.39,.07,0,.16-.06,.3-.19,.13,.13,.26,.19,.4,.19,.06,1.26,.63,1.8,1.69,1.61,.72,.82,1.23,1.73,1.49,2.74-.54,2.02-1.76,3.56-3.69,4.62-.47,.63-.9,1.33-1.3,2.08-.53,.39-1.39,1.11-2.58,2.18-1.06,1.07-1.86,1.8-2.39,2.17-.99,1.7-2.49,2.99-4.47,3.88-.4,0-.9,.06-1.49,.19l-.79,.76c-.93,.5-1.96,.72-3.09,.65-.72,.07-1.42,.04-2.09-.09-.06,0-.13-.09-.2-.28,.07-.32,.11-.67,.11-1.04-.47,.13-.97,.26-1.49,.37Zm1.19,.2c-.13,0-.13-.04,0-.11,.14,.07,.14,.11,0,.11Zm31.06,37.52c-.27-.06-.4,.07-.4,.39l-.41-.39c-1.52-.06-2.62-.53-3.28-1.41-.79,.19-1.55,.06-2.29-.37,.67-.57,1.37-.85,2.09-.85,.54-.13,1.13-.43,1.8-.9,.65-.48,1.16-.99,1.48-1.56,.2-.19,.47-.37,.81-.56,1.86-1.96,2.72-4.32,2.58-7.09,0-2.91-.23-5.84-.69-8.79-.14-.82-.23-1.39-.3-1.7h-.7l-4.47,.95h-.11c-1.12,.19-2.56,.5-4.27,.95-1.53,.56-3.02,1.13-4.48,1.7h-.09c-.27,.12-.5,.25-.7,.37-.67,.26-1.3,.41-1.89,.47-1.39,.89-2.92,1.37-4.58,1.42-.93-.06-2-.63-3.19-1.7-1.06-.95-1.66-1.92-1.79-2.93-.07-.5,.06-.91,.4-1.23h.9c1.05,0,2.02,.26,2.88,.76,2.85-.39,5.61-.91,8.26-1.61,.74,.07,1.53,0,2.39-.19,1.26-.26,2.52-.5,3.78-.76h.49c2-.25,3.91-.69,5.78-1.32,.33-.06,.53-.26,.6-.57-.74-3.08-2.69-5.25-5.87-6.52-.2-.44-.5-.7-.9-.76-.86,.63-1.73,1.23-2.58,1.8-.27-.07-.41-.16-.41-.29-.26,.07-.37,.18-.34,.34,.02,.15,.11,.27,.25,.33v.28c-.27,.07-.5,.09-.7,.09-.26,.2-.49,.33-.69,.39-.07-.19-.18-.28-.3-.28-.54,.25-.93,.47-1.19,.65h-2.29c-.27-.25-.5-.63-.7-1.13-.4-1.26-.63-2.52-.7-3.78,.07-.56,.23-1.13,.5-1.69,.07-.57,.2-1.14,.4-1.7,.33-.44,.76-.85,1.3-1.23,.6-.89,.9-1.83,.9-2.84h.09c.6,.13,.99,.65,1.19,1.6,.2,1.07,.34,1.83,.41,2.28h.29c2.25-.26,4.34-.85,6.27-1.8,.07-.13,.13-.28,.2-.48v-.09c-.27-.56-.53-1.06-.79-1.51,.13-.89,.23-1.8,.3-2.74-.07-1.58-.18-3.21-.3-4.92v-2.27c.13-.07,.23-.19,.3-.39-.07-.25-.18-.56-.3-.95,.27-.12,.47-.28,.6-.47-.2-.44-.47-.95-.79-1.52v-.09c.06-1,.13-2.01,.2-3.02v-.19c0-.63-.2-1.1-.6-1.41-1.53,.19-2.86,.6-3.98,1.23l-6.67,1.32h-.7c-.72,.07-1.46,.04-2.18-.09-1.06-.37-2-.95-2.79-1.7-.4-.56-.74-.95-.99-1.13v-.28c1.26,0,2.45,.04,3.59,.09,.4,.13,.76,.19,1.09,.19,4.45-.32,8.72-1.32,12.85-3.02,.13-.25,.2-.56,.2-.95-.2-.43-.3-.91-.3-1.41,.07,0,.16-.07,.3-.19,0-.2,.06-.44,.2-.76,.13,0,.23-.06,.3-.19v-.09c0-.13-.18-.29-.5-.48v-1.04c.13-.82,.29-1.7,.5-2.65-.07-.37-.18-.72-.3-1.04v-.19c.13,0,.23-.11,.3-.33,.06-.22,.09-.55,.09-.99v.37c.27-.06,.4-.25,.4-.56,.07-.13,0-.22-.2-.29v-4.53c-.13-1.2-.36-1.79-.7-1.75-.33,.04-.69-.18-1.09-.62,.33-.95,.99-1.47,1.99-1.6,.6,0,1.13,.06,1.6,.19,.85-.13,1.79-.19,2.78-.19,.86,0,2,.44,3.39,1.32,1.59,.89,2.49,1.7,2.69,2.46-.2,1.45-.4,2.9-.6,4.34,.13,.44,.27,.85,.4,1.23-.07,.7-.27,1.23-.6,1.61h-.79l-.2,.28h-.11c-.6-.19-1.06-.35-1.39-.47l-.3-.29-.09,.95c.6,.07,1.19,.22,1.79,.48-.33,1.19-.63,2.36-.9,3.49,0,.44,.3,.67,.9,.67,1.73-.26,3.46-.54,5.17-.85,1.93,0,3.78,.26,5.58,.76v.28c-.27,.7-.77,1.17-1.49,1.42-1.26,.32-2.52,.53-3.78,.65-.74,.19-2.01,.49-3.83,.9-1.83,.41-2.98,.9-3.43,1.47-.27,.63-.4,1.35-.4,2.17-.34,1.45-.5,2.93-.5,4.44,0,.76,.04,1.55,.11,2.37h.2c.79-.2,1.58-.36,2.34-.53,.76-.15,1.61-.23,2.53-.23,1.93-.26,3.85-.41,5.78-.48,1.99,.07,3.98,.16,5.97,.29,.86-.13,1.79-.26,2.79-.39,1.32,.07,2.58,.13,3.78,.2,.46,.06,1.23,.28,2.29,.65,1.05,.39,1.72,.61,1.99,.67,.47-.13,.86-.28,1.19-.48h2c1.86,.63,3.75,1.48,5.68,2.56l.4,.28v.19c-1.13,1.52-2.69,2.37-4.68,2.56-1.53-.32-3.12-.63-4.78-.95-1.19,.37-2.45,.79-3.78,1.23-.99-.32-2.16-.72-3.48-1.23-1.06-.13-2.23-.28-3.48-.47h-4.88c-2.13-.51-4.32-.82-6.57-.95-1.79-.76-3.48-1.3-5.07-1.61,.06,.5,.13,1.04,.2,1.61v.75c-.2,.7-.37,1.37-.5,1.99v.76c-.6,1.52-1.06,3.06-1.39,4.64,1.12,.32,2.18,.19,3.18-.39,.67-.5,1.33-1,2-1.51h.79l.2-.19h.2l.6,.56c1.53,.07,3.49,.2,5.87,.39,2.25,.19,3.51,1.19,3.78,3.02-.4,2.21-1.66,3.84-3.78,4.92-1.19,.95-2.32,1.92-3.39,2.93h-.2c-.2-.13-.36-.29-.49-.48-.74,.7-1.53,1.65-2.39,2.84v-.57c-.67,.95-1.39,1.87-2.18,2.74,.13,.51,.33,.84,.6,.99,.26,.16,.6,.23,.99,.23,.86,0,1.69-.21,2.49-.65,.79-.06,2-.19,3.59-.39,1.59-.19,2.72-.28,3.39-.28,1.32-.25,2.65-.41,3.98-.47,1.32,.13,2.78,.19,4.38,.19,1.39,.44,2.52,.89,3.39,1.32-.07,.19-.2,.35-.4,.48,.4,.75,.69,1.51,.89,2.27l-.09,.19c-.2,.39-.47,.63-.79,.76h-5.48c-.79-.13-1.63-.19-2.49-.19-1.13,.13-2.27,.25-3.39,.37h-.2c-.2-.06-.43-.13-.7-.19-.86,0-2.34,.06-4.43,.19s-3.27,.37-3.54,.76v7.75c.27,1.32,.4,2.45,.4,3.4,0,3.28-.47,6.46-1.39,9.55-.4,.5-.79,1.04-1.19,1.6-.27,.76-.43,1.48-.5,2.18-.07,.19-.23,.25-.5,.19-1.19-.13-2.29-.57-3.28-1.33h-.09Zm-8.96-33.36c.53-.07,.92-.35,1.19-.85-.14-.13-.27-.19-.4-.19-.54,.19-.79,.54-.79,1.04Zm.79-2.56c.13-.13,.13-.22,0-.28-.07,.06-.07,.15,0,.28Zm3.39,1.33c.65,.19,1.32,.34,1.99,.47,.72,.44,1.46,.76,2.2,.95,.72,.57,1.48,1.07,2.29,1.51,.2,.07,.33,.11,.4,.11,.26,0,.4-.07,.4-.2,.33-1.06,.53-2.14,.6-3.21l1.49-5.77v-.19c-.14-.56-.54-.88-1.2-.95v.95l-.99,.48c-.27,.12-.43,.25-.49,.37h-.11c-.2-.13-.4-.28-.6-.47,.13,.69-.23,1.04-1.1,1.04-.07,.19-.16,.34-.29,.47-1,.82-2.09,1.41-3.29,1.8v.19h-.4c-.2,.5-.53,.76-.99,.76h-.2l-.2-.09c-.54,.32-.97,.65-1.3,1.04,.33,.5,.93,.76,1.8,.76Zm-1.69-1.8c.13,0,.16-.07,.09-.19l-.09,.19Zm.4-.29c.33,.07,.53,0,.6-.19-.07-.19-.2-.28-.4-.28h-.2v.47Zm.49-1.79c.07-.07,.07-.13,0-.2-.06,.07-.06,.13,0,.2Zm.3-.57h.2v-.19l-.2,.19Zm.5-27.22v-.2h-.3l.3,.2Zm.09,1.41h.6v-.76c-.4,.07-.6,.32-.6,.76Zm.79,27.03c.67-.19,1.3-.54,1.89-1.04h-.49c-.86,0-1.33,.35-1.4,1.04Zm.4-35.35c.14-.07,.14-.13,0-.2-.13,.07-.13,.13,0,.2Zm2.49,33.55v.11c.27-.07,.47-.22,.61-.48h-.11c-.27,0-.43,.13-.5,.37Zm4.09,8.99l.49-.48v-.09c0-.06-.06-.19-.2-.37-.2,.25-.36,.47-.49,.65,0,.13,.06,.22,.2,.29Zm0-1.33c.2-.06,.2-.13,0-.19-.07,.06-.07,.13,0,.19Zm.29-39.33c.14,0,.14-.09,0-.28v.28Zm.2,41.5c.21-.06,.21-.09,0-.09-.06,0-.06,.04,0,.09Zm.5-.95c.13-.06,.2-.19,.2-.37-.2,0-.33,.06-.4,.19l.2,.19Zm.2-2.55c.07-.06,.07-.13,0-.19-.07,.06-.07,.13,0,.19Z"/>
        <path d="M297.21,107.83c-.07-.06-.07-.13,0-.19,.06,.06,.06,.13,0,.19Zm1.69,27.79c.06-.37,.23-.89,.49-1.52,.07-.25,.14-.41,.2-.47,.07-.89,.11-1.73,.11-2.56,0-1.06-.04-1.92-.11-2.55-.06-.82-.23-2.44-.49-4.87-.27-2.43-.43-4.02-.5-4.78-.07-2.52-.23-5.1-.49-7.75-.41-.88-.67-1.76-.81-2.64v-.57l.2-.19h2.29c1.46,.5,2.79,1.04,3.98,1.6,.07,.26,.23,.51,.5,.76,.4,.44,.75,.84,1.05,1.18,.29,.35,.48,.65,.54,.9,1,1.39,1.63,2.91,1.89,4.54-.06,.89-.29,1.82-.69,2.84-.47,2.9-1.03,5.79-1.69,8.7,0,.32-.07,.56-.2,.75-.27,.76-.5,1.65-.7,2.65-.07,.06-.07,.13,0,.19-.13,.5-.2,.95-.2,1.33-.4,.19-.63,.39-.7,.61-.06,.22-.13,.36-.2,.43-.06,.5,.11,.75,.5,.75,1.26,0,2.25-.43,2.99-1.32,.2,0,.22,.09,.09,.28,0,.13-.07,.51-.2,1.13,.27,0,.47-.02,.6-.09,.27,.07,.4,.13,.4,.2l.4-.2c.54,.26,1.1,.48,1.69,.67,.6-.44,1.03-.82,1.3-1.13,.27,.13,.4,.27,.4,.42,0,.16-.04,.25-.09,.25-.34,.56-.74,1.06-1.2,1.51-.26,.26-.56,.5-.89,.76-.79,1.19-1.69,2.36-2.69,3.49-1.53,1.13-3.13,1.93-4.79,2.37-.06,.06-.26-.09-.6-.48-1.19-.37-1.95-1.13-2.29-2.27,.07-.32,.04-.63-.09-.95v-3.97Zm10.25-46.42h4.47c.47,.19,1.13,.39,2,.57,2.13,.19,3.51,1.04,4.18,2.55-.4,1.58-1.46,2.5-3.19,2.74-.54-.06-1.06-.04-1.59,.09-.27,.32-.49,.53-.65,.62s-.44,.14-.84,.14c-.67-.06-1.26-.19-1.8-.37-.67,.5-1.49,.97-2.49,1.41-1.39-.76-2.09-2.04-2.09-3.88-.33-.82-.83-1.51-1.49-2.08,.93-1,2.09-1.61,3.49-1.8Zm.4,46.79c.13-.06,.13-.12,0-.19-.07,.07-.07,.13,0,.19Zm16.42,2.74v-.37c-.27-.57-.49-1.17-.69-1.8v-.48c.13-.12,.2-.28,.2-.47,0-.06-.07-.22-.2-.47h.2c.4,.12,.83,.21,1.28,.28h.7c.2-.07,.33-.22,.4-.48-.07,0-.13-.09-.2-.28,.07-.19,.16-.37,.3-.57,0-2.32,.06-4.59,.2-6.8v-1.61c-.07-.19-.14-.41-.2-.67v-.09c.13-1.51,.29-3.02,.49-4.53-.06-2.21-.4-4.32-.99-6.34-.6-1.13-1.49-1.92-2.69-2.36-1.06,.19-2.09,.6-3.08,1.23-.74,.26-1.49,.41-2.29,.48-1.6,.56-3.29,.97-5.08,1.23-.79-.07-1.76-.46-2.88-1.18-1.13-.72-1.76-1.51-1.89-2.32,2.18-.06,4.34-.32,6.47-.75,.47-.13,.96-.22,1.49-.29l7.77-2.55c.65-.26,1.25-.48,1.79-.67,.2-.19,.33-.32,.4-.37l-.4,.09v-.09c.07-.32,.27-.63,.6-.95,0-.32-.04-.63-.09-.95h-.5c.27-.5,.56-.91,.9-1.24-.07-.43-.34-.65-.81-.65,.21-.07,.3-.22,.3-.48-.27-.88-.4-1.76-.4-2.64l-.2-.29c.13-.63,.33-1.38,.6-2.27-.07-.82-.2-1.67-.4-2.56-.34-2.58-.54-5.16-.6-7.74,.06-.5,.13-1.02,.2-1.52,.06-1.13,0-2.27-.2-3.4-.67-.63-1.26-1.3-1.8-1.99,.2-.82,.91-1.34,2.15-1.56,1.23-.22,2.14-.33,2.73-.33h.6c.79,.25,1.53,.56,2.2,.95,.92,.88,2.06,1.63,3.39,2.27,.85,1.58,1.35,3.19,1.48,4.82,0,1.45-.33,2.71-.99,3.78-.4,.44-.56,.95-.49,1.51-.07,.19-.04,.35,.09,.48h.9c1.19-.19,2.42-.35,3.68-.48,2.32,0,4.34,.67,6.07,1.99,.2,.07,.4,.22,.6,.48v.28c-.2,.06-.4,.16-.6,.28-3.66,.26-7.33,.48-11.05,.67-.47-.13-.79,.04-.99,.47-.14,.83-.3,1.58-.5,2.28-.13,2.71-.96,5.07-2.49,7.09h.5c1.46-.69,3.01-1.13,4.67-1.32,1.73,0,3.55,.22,5.48,.65,.4,.13,.7,.32,.9,.57-.07,.37-.39,.65-.95,.85-.57,.19-1.18,.34-1.85,.47-.33,.26-.7,.54-1.1,.85-.6,.13-1.23,.22-1.89,.28-2.85,.76-5.61,1.74-8.26,2.93l-.2,.19c.53,.57,1.19,.74,1.99,.48,.27,.19,.5,.35,.7,.47,2.25,1.2,3.48,2.97,3.68,5.3-.2,.69-.36,1.41-.49,2.17,1.32,0,2.62-.04,3.88-.09,1.39,0,2.94,.29,4.64,.9,1.68,.6,2.63,1.62,2.83,3.07-.13,.44-.46,.72-.99,.85-1.06,.19-2.16,.34-3.28,.47h-.11c-1.66-.32-3.28-.6-4.87-.85-.34-.5-.83-.91-1.49-1.23-.2-.44-.5-.95-.9-1.51-.07-.2-.15-.29-.25-.29-.11,0-.22,.09-.35,.29-.07,1.26-.27,2.55-.6,3.87,0,2.09-.07,4.19-.2,6.34-.07,.37-.2,.76-.4,1.13v.19c.13,.5,.2,1.02,.2,1.52-.14,3.21-.74,6.27-1.8,9.17-.33,.76-.53,1.54-.6,2.36,0,.13-.07,.22-.2,.29h-.6c-.79,0-1.37-.41-1.69-1.24-.07-.37-.13-.82-.2-1.32-.74-1.26-1.39-2.52-1.99-3.78l.29-.09Zm-11.55-9.83c.27-1.38,.47-2.77,.61-4.16,1.32-1.89,2.15-3.94,2.49-6.14-.07-.57-.18-1.17-.3-1.8,.07-.32,.3-.47,.7-.47,1.26,.19,2.1,1.16,2.53,2.92,.43,1.77,.58,3.15,.44,4.17v1.13c-.06,.76-.16,1.39-.29,1.89l-.2,.09-2.2,3.97c0,.32-.26,.95-.79,1.89-.4,.95-.76,1.51-1.1,1.69-.53-.25-.98-1.02-1.34-2.31-.36-1.28-.55-2.22-.55-2.79v-.09Zm12.74-23.06c-.06-.06-.06-.13,0-.19,.21,.06,.21,.13,0,.19Zm.7-5.77c.07-.06,.07-.15,0-.28-.07,.13-.07,.22,0,.28Zm0-.47c0,.06,.04,.06,.11,0-.07-.07-.11-.07-.11,0Zm35.34,34.22c-.4-.63-.86-1.17-1.39-1.6-.6-.32-1.2-.63-1.8-.95-.67-.63-1.26-1.39-1.79-2.28-.86-.63-1.62-1.13-2.29-1.51-.47-.89-1.1-1.54-1.89-1.99h-.11c-.79,1.07-2.06,2.45-3.78,4.16-1.59,1.83-2.98,2.84-4.18,3.02h-.6l-.4-.09c-1.66,1-3.32,1.83-4.97,2.45-.4,0-.67-.19-.79-.56,.2-.26,.4-.39,.6-.39-.07-.25-.13-.41-.2-.47v-.28c.33-.39,.72-.61,1.19-.67v-.47c.74-.32,1.17-.76,1.3-1.33l3.19-2.74c.13-.25,.26-.53,.4-.84,2.06-2.02,3.25-4.32,3.59-6.9-.2-1.52-.97-2.86-2.29-4.02-1.33-1.17-2.49-2.25-3.49-3.27-.72-.95-1.49-1.89-2.29-2.84-.53-.37-.92-.75-1.19-1.13,.13-.19,.23-.28,.3-.28h.09c.54,.32,.96,.5,1.3,.57,.92,.32,1.93,.6,2.99,.84,.6,.32,1.16,.74,1.69,1.24,.13,.06,.22,.13,.29,.19,.4,0,.74,.09,.99,.28,.2,0,.34,.16,.4,.48,.81,.32,1.69,.65,2.7,1.04,.2,.5,.56,.88,1.09,1.13,.27-.13,.62-.75,1.05-1.85s.68-1.85,.75-2.22c.06-1.07,.16-2.15,.29-3.22,.07-.43,.11-.95,.11-1.51,0-.44-.04-.78-.11-1.04l-.2-.48h-.49c-1.33,.26-2.69,.51-4.09,.76-1.86,.07-3.42-.19-4.67-.76,2.45-.56,4.81-1.35,7.06-2.36,.72-.69,1.32-1.45,1.79-2.27,.27,0,1.19-.16,2.79-.48,1.53-.19,2.45-.32,2.79-.37,.4,.06,.76,.13,1.09,.19,.2-.06,.34-.13,.4-.19h.2c1.73,.13,2.92,.67,3.59,1.6,0,2.84-.79,5.52-2.38,8.05-.27,.25-.57,.54-.9,.84-.74,1.46-1.26,2.97-1.59,4.54-.74,1.52-1.26,3.02-1.6,4.54,.07,.32,.11,.54,.11,.65,.26,.39,.6,.79,.99,1.24,1.33,1.56,2.69,3.12,4.08,4.62,1.8,1.96,3.73,3.63,5.78,5.01,.33,.44,.76,.82,1.3,1.13,.46,.07,.96,.2,1.48,.39l.21,.37c1.19,1.52,2.55,2.93,4.08,4.25,.79,.95,1.3,1.65,1.49,2.09v.37c-1.46-.13-2.92-.37-4.38-.76-1.06-.19-2.13-.32-3.19-.37-1.26-.63-2.52-1.23-3.78-1.8-.86-.57-1.75-1.17-2.69-1.8Z"/>
        <path d="M402.02,107.35v-.75l.09-.57c0-.13-.04-.28-.09-.47v-1.89c0-.5,.2-.76,.6-.76v-1.23c.79-.5,1.49-1.02,2.09-1.52,.53-.32,.96-.69,1.28-1.13,.47-.44,.81-.72,1-.85,0-.25,.28-.56,.84-.95,.56-.37,.75-.65,.55-.85,.33-.37,.78-.92,1.34-1.65,.56-.72,.85-1.34,.85-1.85,0-.32-.06-.55-.15-.71-.11-.15-.15-.36-.15-.61,.6,0,1.21,.28,1.85,.84,.63,.57,1.14,.98,1.54,1.24l1.59,1.41c.13,.32,.23,.57,.3,.76,.33,.13,.49,.35,.49,.65,0,.33-.13,.89-.4,1.7-.13,.89-.29,1.39-.49,1.52-.14,.25-.34,.44-.61,.56-.06,.19-.16,.44-.29,.76-.07,.06-.11,.19-.11,.37l-.09,.2v.09c0,.06-.11,.09-.3,.09l-.2,.09c-.4,.06-.67,.32-.79,.76,0,.37-.04,.65-.09,.85-.41,.43-.61,.6-.61,.47-.13-.13-.41,0-.84,.37-.43,.39-.75,.7-.95,.95-.13,.39-.2,.63-.2,.76-.2,.26-.5,.37-.9,.37-.27,.07-.79,.11-1.59,.11l-.3,.84h-.29c-.27,0-.5-.06-.7-.19-.2-.12-.4-.19-.6-.19-.6,0-1.02,.13-1.25,.37-.23,.26-.51,.57-.84,.95h-.2c-.27,0-.4-.19-.4-.56l-.99-.39Zm11.44-5.76c-.14,0-.2,.02-.2,.09,0,.06,.06,.09,.2,.09v-.19Zm18.02,6.52c0-.13,.02-.19,.09-.19v-.57c0-.19-.04-.48-.09-.89-.07-.41-.11-.71-.11-.9,0-.2,.04-.35,.11-.48,.06-.5,.09-.83,.09-.99,0-.15-.01-.5-.05-1.04s-.19-.9-.46-1.09c-.13-.13-.2-.57-.2-1.32-.13-.7-.2-1.17-.2-1.42v-1.23c0-.25-.04-.37-.09-.37h-1.69c-.2,.37-.43,.63-.7,.75-.4,.2-.72,.29-.99,.29-.07,0-.19-.05-.35-.14-.16-.11-.35-.15-.55-.15-.06,0-.16,.08-.29,.25-.14,.15-.3,.23-.5,.23-.47,0-.99-.16-1.59-.48l-1.4-.37c-1.12-.37-2.29-.76-3.48-1.13-1.06-.26-2.06-.69-2.99-1.32,.74,.06,1.33,0,1.8-.2,.46-.19,1.1-.28,1.89-.28,.13,0,.29,.05,.49,.14s.43,.14,.7,.14c1.13,0,2.25-.19,3.39-.56,1.26-.39,2.49-.7,3.68-.95,.14-.07,.56-.26,1.3-.57,.86-.32,1.3-.6,1.3-.85v-.09c0-.06-.04-.15-.11-.28l-.09-.28c0-.07,.04-.16,.09-.29l.11-.19v-.28c0-.19-.02-.49-.05-.9-.04-.41-.09-.71-.15-.9v-2.55c0-.44-.18-.7-.5-.76h-.79c-.54,0-.9,.04-1.1,.09-.27-.06-.69-.18-1.3-.33-.6-.16-.99-.27-1.19-.34h-.2l-3.88-1.69c-.2,0-.37-.07-.5-.2-.07-.25-.11-.41-.11-.47,0-.32,.11-.48,.3-.48,.47,0,.88,.05,1.25,.15,.36,.09,.81,.14,1.34,.14,.26,0,.48-.05,.64-.14,.16-.11,.32-.15,.44-.15h.11c0,.07,.07,.09,.2,.09l.2,.11c.33,0,.6-.13,.79-.39,.27-.06,.6-.09,.99-.09,.67-.19,1.18-.33,1.55-.42,.36-.09,.95-.3,1.74-.62l.4-.19c.4-.19,.78-.34,1.14-.43s.71-.16,1.04-.23c.27-.25,.42-.37,.46-.37s.12-.09,.25-.29c.2-.06,.32-.11,.35-.14,.04-.02,.28-.01,.75,.05h.49c0-.12,.07-.19,.2-.19,.21-.19,.34-.28,.41-.28,.53-.19,1.05-.35,1.59-.48,.67-.12,1.3-.19,1.89-.19,.27,0,.51,.07,.75,.19,.23,.13,.55,.2,.95,.2h.4l.29-.2c.61,0,1.1,.16,1.49,.48,.6,.44,1.2,.67,1.8,.67v.19c.06,0,.2,.04,.4,.09,.33,.19,.53,.35,.6,.47-.54,1.07-1.03,1.74-1.49,1.99-.4,.39-1.19,.63-2.38,.76-1.13,.26-2.23,.46-3.29,.62-1.06,.15-2.06,.36-2.98,.61-.61,.07-1.04,.16-1.3,.29-.2,.25-.57,.37-1.1,.37-.13,.06-.47,.09-.99,.09-.34,0-.63,.04-.9,.09v.19c0,.2,.13,.32,.4,.39,.27,.25,.47,.28,.6,.09,.2,.13,.43,.35,.7,.67l.7,.65c0,.07,.13,.19,.4,.39,.4,.25,.63,.41,.69,.47l.81,.85h.09l.11,.19c.2,.26,.32,.43,.34,.53,.03,.09,.18,.14,.41,.14s.37,.19,.44,.56h.7c.46,0,.83-.12,1.09-.37,.4-.13,.77-.19,1.1-.19,.07,0,.19,.01,.35,.05s.28,.05,.35,.05c.2,0,.6-.06,1.19-.19l.79-.29c.07,0,.16-.12,.3-.37,.2-.06,.33-.09,.4-.09h.6c0-.13,.04-.19,.11-.19l.29-.29h.5l.09-.09,.2-.19,.6-.09c.27-.06,.54-.09,.81-.09,.26-.19,.55-.3,.84-.33,.3-.04,.48-.05,.55-.05,.47-.2,1.06-.44,1.79-.76,.74-.19,1.4-.28,2-.28,.06,0,.09,.02,.09,.09,0,.06,.07,.09,.2,.09,0,.19,.04,.32,.11,.37,.33-.25,.5-.44,.5-.56,.2,.06,.36,.09,.49,.09,.47,0,.93-.13,1.4-.39,.46-.25,.83-.41,1.09-.47,.54-.13,1-.19,1.4-.19s.83-.13,1.28-.39c.61-.13,1.2-.19,1.8-.19h1.79c.27,0,.5,.09,.7,.28,.2,.2,.5,.29,.9,.29s.77-.07,1.14-.2c.36-.12,.71-.19,1.04-.19,.99,0,1.88,.09,2.64,.29,.76,.19,1.61,.41,2.53,.65l.2-.09c.2-.13,.34-.19,.41-.19h.09c.13,0,.5,.11,1.1,.33s1.14,.44,1.63,.67c.5,.22,.95,.51,1.35,.9,.4,.37,.6,.69,.6,.95,0,.37-.15,.64-.46,.81-.29,.15-.57,.42-.84,.79-.54,0-1.06,.04-1.6,.09-.6,.2-1.16,.35-1.68,.48-.07,0-.11,.05-.11,.14s-.04,.14-.09,.14c-.07,0-.26,.05-.55,.14-.3,.09-.65,.2-1.05,.29s-.76,.18-1.1,.23l-.6,.19h-.09c-.2,0-.37-.04-.5-.09-.33,0-.6-.04-.79-.09l-.7-.19h-.6c-.13,0-.27,.02-.4,.09-.13,.06-.3,.09-.5,.09v-1.13h-.69l-.2-.19-.3-.11c0-.43,.08-.77,.25-.99,.18-.21,.26-.43,.26-.65s-.07-.34-.2-.34h-.3c-.47,0-.91,.08-1.34,.25-.43,.15-.84,.23-1.24,.23h-.61c-.26,0-.6,.04-.99,.09-.27,.19-.56,.28-.9,.28-.2,.07-.46,.09-.79,.09-.2,.07-.53,.16-.99,.29-.34,.19-.7,.32-1.1,.37-.13,0-.33-.04-.6-.09-.07-.06-.13-.09-.2-.09l-.2,.19c-.34,0-.54,.09-.6,.28-.6,0-1.13,.16-1.6,.48-.6,.32-1.16,.47-1.68,.47-.2,0-.32-.01-.35-.05-.04-.02-.15-.05-.35-.05s-.4,.04-.6,.09c-.2,.2-.3,.39-.3,.57-.2,0-.53,.04-.99,.09-.34,.13-.76,.26-1.3,.37-.53,.26-.99,.39-1.39,.39l-.9,.37c-.33,.07-.79,.18-1.39,.33-.6,.16-1.23,.34-1.89,.53l-1.6,.47c-.6,.33-.99,.51-1.19,.57-.07,0-.19,.13-.35,.37-.16,.26-.25,.48-.25,.67-.13,.32-.36,.76-.7,1.32-.13,.51-.2,.92-.2,1.24v.65c.14,.44,.2,.7,.2,.76v.67c0,.5-.09,.91-.29,1.23-.27,.5-.4,1-.4,1.52l.29,.28v.76c0,.06-.04,.19-.09,.37l-.2,.28,.2,.29,.09,.19-.09,.37c-.14,.37-.2,1.58-.2,3.6-.07,1-.37,1.96-.9,2.88-.54,.91-1.03,1.81-1.49,2.69h-1.99c0-.25-.09-.55-.26-.9-.16-.34-.25-.61-.25-.79v-4.82l-.09-.19-.11-.2,.11-.19Zm-5.58,36.03c-.47-.32-.84-.76-1.14-1.33-.29-.56-.68-.95-1.14-1.13-.07,0-.2-.06-.4-.19s-.33-.19-.4-.19c-.34-.19-.67-.61-.99-1.24-.2-.69-.3-1.16-.3-1.41,.4,0,.78,.01,1.14,.05s.76,.05,1.19,.05,1.03-.04,1.8-.09c.76-.06,1.38-.15,1.85-.28,.33-.26,.54-.57,.64-.95,.09-.39,.35-.7,.75-.95,.13-.26,.5-.63,1.1-1.13,.46-.57,.97-1.13,1.54-1.7,.56-.57,1.03-1.12,1.39-1.66,.36-.53,.55-.99,.55-1.37h-.11c-1.06,.26-2.07,.56-3.04,.95-.96,.37-2,.56-3.13,.56-1.53,0-2.88-.25-4.08-.75-1.4-.57-2.66-1.17-3.78-1.8-.2-.13-.39-.19-.55-.19-.18,0-.26-.13-.26-.39l.11-.09c.2,0,.63-.02,1.3-.09,.67-.06,1.07-.09,1.24-.09s.26-.04,.26-.09,.08-.09,.25-.09,.48,.04,.95,.09c.2,.06,.5,.09,.9,.09,.2,0,.69-.13,1.48-.37,.81-.13,1.68-.34,2.64-.62,.97-.28,2.11-.62,3.43-.99l3.19-1.23,1.1-.29c.72-.19,1.58-.42,2.53-.7,.97-.29,1.85-.49,2.64-.62l2.88-.85c.67-.25,1.1-.37,1.3-.37l.79-.37c.54-.07,1.13-.2,1.8-.39s1.26-.32,1.79-.37c.6-.19,.97-.29,1.1-.29,.53-.19,1.02-.34,1.45-.47,.42-.13,.95-.26,1.54-.37,.26-.13,.56-.2,.89-.2,.74,0,1.52,.05,2.35,.15,.83,.09,1.54,.36,2.14,.79l.4,.2c.07,0,.3,.12,.7,.37,.26,.13,.49,.22,.69,.28l.2-.37,.3,.56c.2,.51,.3,.81,.3,.9s-.04,.14-.11,.14-.09,.07-.09,.2c-.27,.06-.65,.19-1.16,.37-.49,.19-.84,.35-1.04,.48h-1.3c-.53,0-.83,.06-.9,.19l.11,.19c-.07,0-.11,.09-.11,.28v.39c-1.12,.19-2.22,.32-3.28,.37l-3.08,.09c-.13,0-.34,.04-.6,.09-.14,.07-.23,.09-.3,.09-.4,0-.71,.08-.95,.23-.23,.16-.44,.25-.64,.25h-.11c-.06,0-.09-.04-.09-.09l-.11-.09c-.6,0-1.09,.22-1.49,.65-.4,.57-.53,1.11-.4,1.61l-1.09,1.04v.76c-1,.43-1.63,.95-1.89,1.51-.34,.39-.7,1.04-1.1,1.99-.14,.13-.2,.22-.2,.28v.48h-.6c-.34,0-.63,.28-.9,.85-.07,.56-.2,.91-.4,1.04,.2,.13,.4,.19,.6,.19,.33,0,.7-.09,1.1-.28,.2-.26,.53-.41,.99-.48,.47-.06,.86-.09,1.19-.09,.47,0,.97-.02,1.49-.09,.2-.19,.35-.29,.46-.33,.09-.04,.26-.05,.49-.05s.44,.06,.65,.19h.09c.27,0,.47-.09,.6-.28,.27-.13,.51-.2,.75-.2s.51,.11,.85,.29c.46,.25,.89,.41,1.28,.47-.26,.63-.48,1.13-.64,1.52-.16,.37-.62,.65-1.34,.85-.07,0-.19-.02-.35-.05-.16-.04-.32-.02-.44,.05l-.11,.19h-.69c-.21,.13-.39,.2-.55,.23-.18,.04-.32,.05-.46,.05v.19c0,.26,.06,.4,.15,.43,.11,.02,.15,.14,.15,.33-.4,0-.79,.06-1.19,.19l-.81,.39c-.26,.19-.56,.32-.89,.37-.34,.06-.74,.09-1.2,.09-.13,.19-.46,.32-.99,.37-.72,0-1.19,.11-1.39,.29-.2,0-.47,.08-.79,.23-.34,.15-.54,.23-.6,.23-.27-.06-.44-.09-.5-.09l-2.99,1.04h-.2l-1.19,.28c-.6,.2-.93,.32-.99,.39-.81,.13-1.48,.37-2.04,.76-.56,.37-1.28,.56-2.14,.56-.4,0-.74-.14-1-.42-.26-.29-.53-.34-.79-.14Zm-6.87-30.54c0-.5,.16-.9,.5-1.18,.33-.29,.49-.68,.49-1.19,0-.06-.01-.11-.05-.14-.04-.02-.05-.18-.05-.42,0-.89,.04-1.74,.09-2.56,.14-.69,.2-1.41,.2-2.17,0-1.07-.08-1.85-.25-2.31-.16-.48-.62-1.06-1.34-1.75l.2-.09c.07,0,.11-.04,.11-.09h.09c.86,.19,1.59,.47,2.2,.85l2.29,1.13,.2,.19,.4,.37,.4,.85c.2,.39,.26,.63,.2,.76l-.11,.19,.2,.09c.07,.19,.11,.32,.11,.39,.13,.63,.05,1.23-.25,1.79-.3,.57-.46,1.2-.46,1.89v.39c.07,.32,.16,.47,.3,.47,.26,0,.49-.2,.7-.61,.2-.41,.69-.68,1.48-.81h.11c.13-.13,.2-.21,.2-.23,0-.04,.04-.06,.09-.06l1.2-1.23c.13,.26,.36,.39,.69,.39,.47,0,.77,.15,.9,.47v.37c0,.2,.04,.35,.11,.48l-.81,1.41c-.06,.13-.2,.29-.4,.48l-.49,.37c-.2,.26-.3,.46-.3,.62,0,.15-.13,.36-.4,.61-.07,.13-.23,.27-.5,.43-.26,.15-.53,.27-.79,.33-.13,.13-.29,.36-.49,.71s-.43,.62-.7,.81l-1.19,.95c-.34,.37-.5,.85-.5,1.41-.99,0-1.86-.09-2.59-.28-.2,0-.4-.19-.6-.57-.2-.37-.36-.82-.49-1.32l-.4-1.32c-.2-.44-.3-.72-.3-.85Zm2.79,5.77c.6,0,1.16-.04,1.69-.11,.53-.25,1.04-.39,1.54-.42,.49-.04,1.03-.05,1.59-.05h1.65c.06-.06,.37-.2,.95-.42,.56-.22,.88-.34,.95-.34,.2,0,.37-.01,.55-.05,.16-.02,.28-.05,.34-.05,.34-.25,.97-.5,1.89-.76,.86-.37,1.37-.56,1.49-.56,0-.07,.15-.18,.46-.34,.29-.15,.54-.33,.75-.51,.26-.06,.6-.11,.99-.14s.79-.12,1.19-.23c.4-.13,.7-.29,.9-.48,.33-.19,.49-.5,.49-.95,.27,0,.55-.04,.85-.09,.29-.06,.64-.09,1.04-.09h1.4l1.39,.19c.13,0,.4,.09,.79,.28l.79,.39h.2c.27,.06,.81,.19,1.6,.37s1.19,.48,1.19,.85c0,.5-.2,.85-.6,1.04-.27,.19-.63,.37-1.1,.57-.33,.06-.71,.18-1.14,.33-.43,.16-.75,.36-.95,.62-.99,.19-1.89,.29-2.69,.33s-1.59,.14-2.39,.33c-.33,0-.61,.08-.84,.25-.23,.15-.55,.23-.95,.23s-.7,.04-.9,.09c-.06,0-.09,.05-.09,.14s-.04,.14-.11,.14l-.29,.09c-.14,0-.3-.02-.5-.09-.2-.06-.4-.09-.6-.09v.67c-.4,.19-1.1,.37-2.09,.56-.99,.19-1.73,.26-2.2,.19-.2,.39-.36,.57-.49,.57h-.2l-2.09-.47c-.79-.13-1.63-.29-2.49-.48-.86-.19-1.68-.41-2.44-.67-.77-.25-1.28-.53-1.54-.84Zm15.43-.11c-.07,0-.11,.04-.11,.11,0,.06,.04,.09,.11,.09,.06,0,.09-.04,.09-.09,0-.07-.04-.11-.09-.11Zm2.88,15.23c-.07,0-.09,.04-.09,.09s.02,.09,.09,.09,.11-.04,.11-.09-.04-.09-.11-.09Zm5.57-25.15c-.53-.56-.99-1.1-1.39-1.6-.27-.44-.53-.89-.79-1.33v-.19c0-.12,.04-.19,.09-.19-.33-.13-.53-.44-.6-.95-.2-.56-.29-1-.29-1.32,0-.13-.11-.48-.3-1.04-.07-.5-.09-.85-.09-1.04v-1.33c.13-.37,.2-.75,.2-1.13,0-.69-.09-1.13-.26-1.32s-.51-.37-1.04-.57c0-.06,.06-.28,.2-.65,.13-.39,.33-.48,.6-.29,.07,0,.23,.07,.5,.2l.99,.28c.33,.13,.56,.22,.7,.28,.26,.13,.53,.19,.79,.19l.6,.57c.27,.32,.49,.47,.7,.47l.29,.39c.13,.13,.27,.22,.4,.28l-.09,.19c0,.26,.02,.39,.09,.39,0,.13,.22,.46,.65,.99,.42,.54,.68,.83,.75,.9,.06,.32-.07,.53-.41,.65-.26,.26-.4,.44-.4,.57l.11,.19c-.07,0-.11,.09-.11,.28v.48l-.2,.56c-.2,.07-.29,.22-.29,.48-.2-.26-.37-.29-.5-.09-.13,.19-.33,.37-.6,.56-.07,.26-.11,.54-.11,.85-.13,.13-.2,.3-.2,.53s.12,.49,.35,.79c.23,.33,.46,.57,.65,.76,.26-.13,.61-.11,1.04,.05,.43,.16,.75,.34,.95,.53h1.3c.92,0,1.85-.07,2.73-.19,.9-.13,1.88-.2,2.94-.2,.2,0,.49-.01,.89-.05,.41-.02,.67,.12,.81,.43,.13,0,.4,.01,.79,.05s.79,.11,1.19,.23v.67c0,.69-.12,1.07-.35,1.13s-.41,.37-.55,.95c-.72-.19-1.42-.22-2.09-.09-.53,.25-1.19,.37-1.99,.37-1.13,0-2.22-.14-3.28-.42-1.06-.29-2.13-.62-3.19-.99-.34-.19-.68-.4-1.05-.62-.36-.22-.75-.42-1.14-.62Zm-4.18,21.65c-.06,0-.09,.04-.09,.09,0,.07,.04,.09,.09,.09,.2,0,.2-.06,0-.19Zm3.59-2.36c-.06,0-.09,.04-.09,.09s.04,.09,.09,.09c.07,0,.11-.04,.11-.09s-.04-.09-.11-.09Zm1.69,6.33c.07,0,.11,.04,.11,.09,0,.07-.02,.11-.06,.11s-.05-.04-.05-.11v-.09Zm.6-3.97c.34,.07,.68-.01,1.05-.23,.36-.22,.71-.33,1.04-.33h.2c0,.06,.07,.09,.2,.09l.3,.09c.2,0,.3-.06,.3-.19,.85,.13,1.79,.22,2.78,.28,.86,0,1.76,.09,2.69,.28,.27,0,.57,.19,.9,.57,.47,.37,.86,.56,1.19,.56,.07,0,.2-.12,.4-.37,0,.26,.08,.4,.26,.42,.16,.04,.28,.06,.35,.06h.29c.07,0,.2,.06,.4,.19,.27,.32,.4,.63,.4,.95,.07,.5,.2,.91,.4,1.23,0,.06,.04,.09,.11,.09,.27,0,.43,.09,.5,.28v3.41c0,.13,.02,.25,.09,.37,.07,.26,.11,.41,.11,.48v.28c.06,0,.09,.09,.09,.28,0,.32-.08,.75-.25,1.27-.16,.54-.39,.93-.65,1.19h-.79c-.2,.13-.36,.28-.49,.47-.07,.39-.18,.67-.3,.85,0,.37-.09,.63-.3,.76-.06,.25-.2,.37-.4,.37-1.66,0-2.88-.6-3.68-1.8-.4-.32-.63-.72-.7-1.23-.2-.44-.43-.85-.69-1.23-.54-.63-.98-1.32-1.34-2.08-.37-.76-.82-1.52-1.34-2.28-.34-.62-.64-1.28-.9-1.99-.14-.62-.36-1.23-.7-1.79-.2-.39-.48-.57-.84-.57s-.58-.25-.65-.76Z"/>
      </g>
      <g>
        <path class="cls-1" d="M229.29,23.91h2.08c.08,.01,.16,.04,.23,.08,.18,.11,.28,.3,.28,.57,0,.25-.1,.42-.28,.52-.07,.06-.14,.08-.23,.08-.07,.01-.14,.03-.21,.03h-7.56c-1.56,0-2.34-.76-2.34-2.27V3.43c0-1.52,.78-2.27,2.34-2.27h7.39c.06,0,.13,0,.2,.03,.08,.01,.17,.04,.23,.08,.2,.11,.28,.3,.28,.54,0,.25-.08,.44-.25,.55-.07,.03-.14,.06-.23,.08-.07,.01-.14,.03-.23,.03h-1.7V7.73c0,.28,.13,.42,.38,.42h.44c.81,0,1.2,.42,1.2,1.27v6.63c0,.85-.4,1.26-1.2,1.26h-.54l-.13,.06c-.11,.06-.16,.18-.16,.38v6.15Zm-2.21-6.61c0-.84,.38-1.26,1.18-1.26h.41c.25,0,.38-.14,.38-.42v-5.72c0-.17-.04-.28-.13-.34-.04-.04-.13-.06-.25-.06h-.41c-.79,0-1.18-.42-1.18-1.27V2.48h-2.32c-.69,0-1.05,.4-1.05,1.2V22.69c0,.81,.35,1.22,1.05,1.22h2.32v-6.61Zm-.72-.54c0,.84-.3,1.26-.91,1.26s-.89-.42-.89-1.26V8.71c0-.85,.28-1.26,.86-1.26,.62,0,.93,.41,.93,1.26v8.05Zm10.07,6.97c-.37,.37-.95,.82-1.71,1.36-.5,.33-1.01,.62-1.52,.92-.55,.28-.89,.42-1.01,.42-.4,0-.59-.21-.59-.62,0-.25,.13-.5,.38-.72,.95-.92,1.84-2.07,2.68-3.43,.37-.55,.75-.82,1.19-.82,.3,0,.61,.11,.89,.37,.34,.31,.51,.69,.51,1.18,0,.38-.27,.84-.82,1.35Zm4.45-18.26c1.57,0,2.35,.75,2.35,2.27v10.4c0,1.52-.78,2.27-2.35,2.27h-5.58c-1.56,0-2.34-.75-2.34-2.27V7.73c0-1.52,.78-2.27,2.34-2.27h.68l.41-1.39c.13-.57,.24-1.1,.33-1.6h-3.67c-.07,0-.14-.01-.21-.03-.08-.03-.16-.06-.23-.08-.18-.1-.28-.28-.28-.55s.1-.45,.28-.54c.07-.04,.14-.07,.23-.08,.07-.03,.14-.03,.21-.03h10.26c.07,0,.14,0,.21,.03,.08,.01,.16,.04,.23,.08,.18,.08,.28,.27,.28,.54s-.1,.45-.28,.55c-.07,.03-.14,.06-.23,.08-.07,.01-.14,.03-.21,.03h-3.7c-.52,1.1-1.08,2.11-1.67,2.99h2.95Zm-.25,4.48v-1.95c0-.81-.35-1.2-1.08-1.2h-2.88c-.71,0-1.06,.4-1.06,1.2v1.95h5.01Zm-5.01,1.32v3.23h5.01v-3.23h-5.01Zm0,4.52v2.12c0,.81,.35,1.2,1.06,1.2h2.88c.72,0,1.08-.4,1.08-1.2v-2.12h-5.01Zm6.15,6.29c.61,1.1,1.36,2.2,2.29,3.27,.07,.07,.11,.16,.16,.23,.04,.1,.07,.2,.07,.33,0,.44-.2,.65-.59,.65-.17,0-.55-.18-1.15-.54-.71-.44-1.44-1.01-2.21-1.67-.62-.54-1.03-.96-1.25-1.29-.06-.11-.11-.23-.16-.35-.01-.07-.01-.17-.01-.31,0-1.01,.52-1.52,1.56-1.52,.45,0,.88,.4,1.29,1.2Z"/>
        <path class="cls-1" d="M258.71,25.09c0,.1,0,.18-.01,.28-.03,.23-.07,.44-.14,.61-.2,.44-.58,.65-1.15,.65s-.95-.21-1.16-.65c-.07-.16-.11-.35-.13-.58-.01-.1-.03-.2-.03-.31V15.26c-.64,1.23-1.39,2.38-2.27,3.46-.33,.41-.68,.84-1.08,1.26l-.95,.98c-.25,.24-.47,.37-.62,.37-.38,0-.58-.23-.58-.69,0-.13,.11-.35,.35-.68,.72-.91,1.37-1.88,1.95-2.93,.54-.91,1.01-1.86,1.42-2.88,.34-.84,.65-1.7,.92-2.58,.23-.71,.41-1.42,.57-2.12h-4.19c-.08,0-.16-.01-.23-.03-.08-.03-.17-.06-.23-.1-.18-.08-.27-.27-.27-.54,0-.25,.1-.42,.28-.55,.07-.03,.16-.06,.24-.08,.07-.01,.13-.03,.2-.03h4.48V3.68l-1.74,.17c-.96,.1-1.66,.14-2.08,.14-.48,0-.72-.21-.72-.65,0-.38,.3-.62,.89-.69,1.02-.11,1.97-.27,2.86-.45,.75-.18,1.46-.38,2.11-.61,.5-.17,.96-.35,1.42-.55l.82-.42c.37-.21,.69-.31,.98-.31,.82,0,1.23,.44,1.23,1.35,0,.37-.18,.65-.54,.86-.47,.28-1.33,.54-2.61,.78v4.82h3.68c.07,0,.14,.01,.2,.03,.1,.03,.17,.06,.24,.08,.18,.1,.28,.28,.28,.55s-.1,.45-.28,.58c-.07,.03-.14,.06-.24,.06-.06,.01-.13,.03-.2,.03h-3.57c.24,1.15,.61,2.34,1.12,3.58,.68,1.57,1.49,2.97,2.45,4.22,.17,.2,.25,.38,.25,.58,0,.44-.18,.65-.57,.65-.23,0-.62-.3-1.2-.88-.71-.74-1.43-1.69-2.17-2.85v10.34Zm15.04-3.1c0,1.1-.24,1.87-.71,2.29-.44,.38-1.15,.58-2.14,.58h-4.04c-1.91,0-2.86-.95-2.86-2.85V5.41c0-1.09,.24-1.86,.72-2.31,.42-.35,1.15-.54,2.14-.54h4.04c1.9,0,2.85,.95,2.85,2.85V21.98Zm-2.66-16.74c0-.91-.41-1.36-1.22-1.36h-1.98c-.79,0-1.2,.45-1.2,1.36V22.18c0,.91,.41,1.35,1.2,1.35h1.98c.81,0,1.22-.44,1.22-1.35V5.24Z"/>
        <path class="cls-1" d="M294.45,10.61h9.69c.07,0,.14,0,.21,.03,.08,.01,.16,.04,.23,.08,.18,.11,.28,.3,.28,.54,0,.27-.1,.45-.28,.55-.07,.04-.14,.07-.23,.08-.07,.01-.14,.03-.21,.03h-22.24c-.08,0-.17-.01-.24-.03-.08-.01-.16-.04-.23-.08-.17-.11-.25-.3-.25-.55,0-.27,.1-.44,.28-.54,.07-.04,.14-.07,.23-.08,.07-.03,.14-.03,.21-.03h9.8v-1.9h-5.38c-1.56,0-2.34-.76-2.34-2.27V3.2c0-1.52,.78-2.28,2.34-2.28h13.43c1.56,0,2.34,.76,2.34,2.28v3.24c0,1.5-.78,2.27-2.34,2.27h-5.3v1.9Zm-5.33,11.02c0,.14-.01,.25-.06,.35-.03,.13-.1,.27-.2,.4-.28,.35-.79,.76-1.54,1.26-.45,.3-.96,.58-1.54,.86-.5,.27-1.01,.52-1.54,.75-1.06,.44-1.7,.67-1.93,.67-.4,0-.59-.23-.59-.67,0-.28,.18-.52,.57-.72,1.05-.54,1.88-1.12,2.52-1.74,.27-.27,.55-.59,.85-.98,.18-.21,.48-.61,.89-1.19,.28-.35,.61-.54,1.01-.54,1.05,0,1.57,.51,1.57,1.54Zm5.43,2.54c0,1.52-.78,2.27-2.34,2.27h-3.27c-.07,0-.13-.01-.2-.03-.08-.01-.17-.04-.24-.08-.18-.1-.28-.28-.28-.55,0-.24,.1-.42,.28-.54,.07-.04,.16-.07,.24-.08,.07-.01,.13-.03,.2-.03h1.8c.72,0,1.09-.4,1.09-1.18v-4.38h-5.07c-1.56,0-2.34-.75-2.34-2.27v-1.32c0-1.52,.78-2.27,2.34-2.27h12.47c.89,0,1.53,.21,1.88,.62,.31,.35,.47,.89,.47,1.64v1.32c0,1.52-.78,2.27-2.35,2.27h-4.67v4.6Zm4.82-20.14v-.82c0-.64-.28-.95-.84-.95h-10.98c-.55,0-.82,.31-.82,.95v.82h12.64Zm-12.64,1.3v1.15c0,.61,.27,.92,.82,.92h10.98c.55,0,.84-.31,.84-.92v-1.15h-12.64Zm12.07,10.6c0-.59-.28-.89-.85-.89h-9.87c-.57,0-.85,.3-.85,.89v1.43c0,.59,.28,.89,.85,.89h9.87c.57,0,.85-.3,.85-.89v-1.43Zm-.88,4.36c.28,.1,.62,.23,1.01,.41,.45,.18,.92,.41,1.39,.65,.57,.31,1.12,.64,1.67,1.01,1.08,.71,1.61,1.35,1.61,1.9,0,1.08-.48,1.61-1.46,1.61-.24,0-.47-.07-.65-.21-.08-.03-.16-.08-.23-.17l-.18-.2c-1.08-1.29-2.38-2.58-3.91-3.88-.1-.1-.18-.18-.23-.28-.04-.07-.06-.17-.06-.25,0-.42,.2-.65,.57-.69,.07,0,.23,.04,.47,.11Z"/>
        <path class="cls-1" d="M322.95,17.35c.07,0,.14,.01,.21,.03,.08,.03,.14,.06,.2,.08,.17,.1,.25,.27,.25,.52,0,.24-.08,.42-.25,.51-.06,.06-.11,.08-.2,.08-.07,.03-.14,.04-.21,.04h-2.42v2.29h2.42c.07,0,.14,0,.21,.03,.08,0,.14,.01,.2,.06,.17,.11,.25,.3,.25,.54,0,.25-.08,.42-.25,.52-.07,.06-.14,.08-.23,.08-.06,.01-.11,.03-.18,.03h-2.42v2.52h2.71c.44,0,.67,.23,.67,.67s-.23,.67-.67,.67h-7.69c-.85,0-1.46-.21-1.8-.64-.28-.34-.44-.89-.44-1.63v-6.61l-.76,.72-.41,.31c-.14,.1-.24,.14-.31,.14-.38,0-.57-.21-.57-.65,0-.18,.11-.41,.34-.72,.65-.91,1.18-1.74,1.56-2.54,.16-.33,.31-.68,.44-1.06,.07-.13,.14-.3,.21-.51,.03-.06,.07-.14,.1-.25,.01-.03,.03-.04,.03-.06l.07-.21c.24-.68,.62-1.03,1.13-1.03,1.03,0,1.54,.45,1.54,1.36,0,.34-.18,.76-.57,1.26h1.83c.23-.42,.47-1.02,.72-1.78,.01-.06,.03-.1,.04-.11,.03-.06,.06-.1,.08-.14,.06-.1,.11-.18,.18-.25,.2-.21,.45-.33,.76-.33s.57,.1,.82,.3c.31,.23,.47,.51,.47,.82,0,.1-.01,.18-.03,.27-.03,.1-.08,.2-.16,.31-.14,.23-.42,.54-.88,.92h3.27c.44,0,.67,.23,.67,.67s-.23,.65-.67,.65h-2.71v2.12h2.42Zm-3.57-15.18v-.35c0-.13,0-.24,.03-.34,.01-.27,.06-.5,.13-.69,.17-.48,.52-.72,1.08-.72s.93,.24,1.13,.72c.07,.17,.11,.41,.13,.69,.01,.1,.03,.21,.03,.34v.35h1.93c.45,0,.69,.21,.69,.65,0,.25-.08,.44-.24,.55-.06,.03-.14,.06-.23,.08-.07,.01-.14,.03-.23,.03h-1.93v.34c0,.14-.01,.25-.03,.34-.01,.27-.06,.51-.13,.69-.2,.48-.57,.72-1.1,.72s-.92-.24-1.1-.72c-.07-.17-.11-.4-.13-.69-.03-.08-.03-.2-.03-.34v-.34h-2.55v.31c0,.14-.01,.25-.03,.37-.01,.27-.06,.5-.13,.67-.18,.5-.57,.75-1.13,.75s-.92-.24-1.1-.72c-.07-.18-.11-.42-.13-.69-.01-.08-.03-.2-.03-.34v-.34h-2c-.45,0-.68-.23-.68-.67,0-.24,.08-.42,.24-.54,.07-.04,.14-.07,.23-.08,.07-.03,.14-.03,.21-.03h2v-.35c0-.13,.01-.25,.03-.37,.01-.27,.06-.5,.13-.69,.18-.48,.55-.72,1.1-.72s.95,.24,1.13,.72c.07,.2,.11,.42,.13,.69,.01,.11,.03,.24,.03,.37v.35h2.55Zm-1.76,7c0,1.35-.67,2.01-2,2.01h-1.66c-1.33,0-2-.67-2-2.01v-1.06c0-1.36,.67-2.04,2-2.04h1.66c1.33,0,2,.68,2,2.04v1.06Zm-1.83-1.18c0-.45-.2-.68-.61-.68h-.69c-.24,0-.41,.08-.52,.25-.03,.06-.06,.13-.07,.23-.01,.06-.03,.13-.03,.2v1.23c0,.47,.21,.69,.62,.69h.69c.24,0,.41-.08,.51-.25,.03-.06,.06-.14,.08-.23,.01-.06,.01-.13,.01-.21v-1.23Zm2.37,9.36v-2.12h-1.33c-.68,0-1.03,.4-1.03,1.18v.95h2.37Zm-2.37,1.27v2.29h2.37v-2.29h-2.37Zm2.37,3.56h-2.37v1.35c0,.79,.35,1.18,1.03,1.18h1.33v-2.52Zm5.95-13.02c0,1.35-.67,2.01-2.01,2.01h-1.46c-1.35,0-2.01-.67-2.01-2.01v-1.06c0-1.36,.67-2.04,2.01-2.04h1.46c1.35,0,2.01,.68,2.01,2.04v1.06Zm-1.78-1.18c0-.45-.21-.68-.64-.68h-.59c-.24,0-.41,.08-.51,.25-.08,.11-.13,.25-.13,.42v1.23c0,.47,.21,.69,.64,.69h.59c.24,0,.41-.08,.51-.25,.08-.11,.13-.25,.13-.44v-1.23Zm2.99-4.48c0-1.52,.74-2.27,2.21-2.27h4.53c1.49,0,2.24,.75,2.24,2.27V15.34c0,.71-.13,1.25-.4,1.59-.35,.45-.98,.69-1.87,.69v6.49c0,.27,.07,.48,.23,.62,.1,.13,.21,.18,.34,.18,.41,0,.67-.08,.76-.27,.14-.23,.23-.84,.25-1.83l.03-.69c.04-.23,.08-.42,.13-.58,.14-.34,.41-.51,.82-.51s.69,.16,.88,.45c.06,.11,.1,.24,.13,.38,.01,.08,.03,.18,.03,.25,0,.31-.06,.78-.18,1.43-.13,.71-.28,1.25-.44,1.59-.3,.72-.91,1.09-1.8,1.09h-1.26c-1.49,0-2.22-.75-2.22-2.27v-6.35h-.71c-.04,.78-.13,1.47-.23,2.1-.14,.74-.31,1.43-.51,2.07-.5,1.47-1.27,2.73-2.32,3.78-.24,.25-.5,.5-.76,.72-.18,.13-.35,.24-.5,.31-.14,.1-.27,.14-.35,.14-.35,0-.54-.21-.54-.65,0-.2,.14-.44,.41-.75,.5-.57,.92-1.27,1.26-2.12,.3-.71,.52-1.49,.72-2.35,.16-.68,.27-1.36,.33-2.07l.06-.78c.01-.2,.03-.37,.03-.52-.54-.13-.91-.44-1.1-.93-.07-.18-.13-.4-.16-.64,0-.1-.01-.2-.03-.28V3.51Zm6.49,2.63V3.77c0-.81-.35-1.2-1.03-1.2h-1.98c-.68,0-1.02,.4-1.02,1.2v2.38h4.04Zm-4.04,1.33v3.67h4.04v-3.67h-4.04Zm0,4.97v2.63c0,.81,.34,1.2,1.02,1.2h1.98c.68,0,1.03-.4,1.03-1.2v-2.63h-4.04Z"/>
        <path class="cls-1" d="M381.57,9.8c0,.1-.01,.18-.03,.28-.01,.25-.07,.47-.16,.64-.23,.54-.64,.81-1.23,.81s-1.01-.27-1.2-.78c-.08-.2-.14-.41-.16-.67-.01-.1-.03-.18-.03-.28v-3.6c-.85,.96-1.87,1.9-3.06,2.79-.96,.75-2,1.44-3.12,2.1-2.01,1.18-3.26,1.76-3.73,1.76-.4,0-.59-.23-.59-.69,0-.24,.18-.47,.54-.65,1.66-.91,3.13-1.93,4.43-3.05,1.43-1.23,2.65-2.59,3.65-4.08h-7.66c-.07,0-.14-.01-.21-.03-.08-.03-.17-.06-.23-.08-.2-.13-.28-.3-.28-.55,0-.27,.08-.45,.28-.55,.06-.03,.14-.06,.23-.08,.07-.01,.14-.03,.21-.03h9.53V1.73c0-.1,.01-.18,.03-.25,.01-.25,.07-.47,.16-.67,.2-.54,.61-.81,1.2-.81s1.01,.27,1.23,.81c.08,.17,.14,.38,.16,.64,.01,.1,.03,.18,.03,.28v1.32h9.65c.07,0,.13,.01,.2,.03,.08,.03,.17,.06,.24,.08,.18,.13,.28,.3,.28,.55,0,.27-.1,.45-.28,.55-.07,.03-.16,.06-.24,.08-.07,.01-.13,.03-.2,.03h-7.69c.24,.38,.57,.82,.98,1.35,.51,.61,1.08,1.23,1.7,1.84,.75,.71,1.54,1.37,2.37,2.01,.96,.72,1.95,1.36,2.97,1.93,.03,0,.06,.01,.11,.06l.25,.17c.1,.1,.16,.24,.16,.42,0,.44-.2,.67-.57,.67-.13,0-.5-.14-1.1-.41-.79-.34-1.61-.75-2.45-1.23-1.09-.62-2.14-1.33-3.13-2.12-1.22-.93-2.31-1.95-3.24-3.05v3.8Zm-2.78,7.41c0-.11,0-.21,.03-.28,.01-.25,.07-.47,.16-.67,.21-.51,.62-.78,1.23-.78,.17,0,.33,.04,.45,.1l.31,.14c.91-1.08,1.36-1.69,1.36-1.84,0-.14-.04-.23-.14-.28-.06-.03-.11-.03-.16-.03h-8.23c-.07,0-.14-.01-.21-.03-.08-.03-.16-.06-.23-.1-.2-.08-.28-.27-.28-.54,0-.25,.08-.42,.25-.55,.07-.03,.14-.06,.23-.08,.07-.01,.16-.03,.24-.03h11.2c.08,0,.17,.01,.24,.03,.2,.03,.37,.06,.51,.11,.37,.16,.57,.47,.57,.92,0,.31-.18,.62-.54,.92-1.26,1.06-2.65,2.05-4.16,2.99v1.67h9.46c.06,0,.13,0,.2,.03,.08,.01,.17,.04,.24,.08,.18,.11,.27,.3,.27,.54,0,.27-.08,.45-.25,.55-.07,.04-.14,.07-.23,.08-.07,.01-.14,.03-.23,.03h-9.46v3.57c0,1.8-.92,2.69-2.73,2.69h-3.37c-.07,0-.13-.01-.2-.03-.08-.01-.17-.04-.24-.08-.18-.1-.28-.28-.28-.54s.1-.44,.28-.55c.07-.04,.16-.06,.24-.06,.07-.01,.13-.03,.2-.03h2.07c.79,0,1.2-.45,1.2-1.35v-3.63h-9.43c-.07,0-.14-.01-.21-.03-.08-.01-.16-.04-.23-.08-.2-.1-.28-.28-.28-.55,0-.24,.08-.42,.25-.54,.07-.04,.14-.07,.23-.08,.07-.03,.16-.03,.24-.03h9.43v-1.67Z"/>
        <path class="cls-1" d="M399.75,7.9l1.08,.47c1.03,.47,1.86,.92,2.48,1.35,.41,.27,.61,.65,.61,1.15,0,1.09-.45,1.64-1.39,1.64-.35,0-.69-.23-.99-.67-.67-.92-1.56-1.93-2.71-3.02-.06-.06-.1-.13-.13-.2-.06-.1-.08-.2-.08-.28,0-.41,.2-.61,.57-.61,.07,0,.25,.06,.57,.17Zm3.71,6.64c0,.24-.11,1.01-.31,2.27-.1,.68-.23,1.39-.37,2.1l-.51,2.46c-.48,2.1-.85,3.4-1.1,3.94-.23,.45-.55,.69-1.01,.69-.99,0-1.49-.54-1.49-1.61,0-.27,.27-.95,.79-2.04,.58-1.22,1.16-2.65,1.73-4.28,.47-1.29,.84-2.48,1.13-3.58,.08-.37,.27-.55,.57-.55,.37,0,.57,.2,.57,.61Zm-2.37-14.25l.86,.4c.79,.4,1.49,.79,2.08,1.18l.5,.33,.38,.34c.23,.27,.34,.59,.34,.98,0,1.09-.45,1.63-1.36,1.63-.38,0-.72-.2-1.01-.62-.93-1.3-1.84-2.41-2.73-3.3-.04-.06-.08-.13-.1-.18-.03-.06-.06-.13-.06-.23,0-.44,.2-.65,.59-.65,.07,0,.23,.04,.5,.14Zm6.09,15.43c0,.35-.24,1.12-.72,2.29-.42,1.08-.89,2.07-1.39,2.99-.17,.33-.3,.55-.38,.69l-.34,.54c-.24,.33-.44,.5-.61,.5-.4,0-.59-.21-.59-.64,0-.04,.03-.14,.07-.31l.47-1.53c.21-.71,.38-1.4,.51-2.1l.37-2.46c.11-.86,.54-1.3,1.26-1.3,.91,0,1.36,.45,1.36,1.33Zm3.12-10.98h2.15c.07,0,.14,.01,.21,.03,.08,.01,.16,.04,.23,.08,.18,.11,.28,.3,.28,.55,0,.06-.01,.11-.03,.17-.01,.07-.06,.16-.1,.23-.1,.17-.28,.25-.51,.25h-2.24v4.58h2.41c.07,0,.14,0,.21,.03,.08,.01,.16,.04,.23,.08,.18,.1,.28,.27,.28,.54,0,.25-.1,.42-.28,.52-.07,.06-.14,.08-.23,.08-.07,.01-.14,.03-.21,.03h-2.41v11.93c0,1.7-.85,2.55-2.55,2.55h-2.71c-.07,0-.13-.01-.2-.03-.08-.01-.17-.04-.24-.08-.18-.1-.28-.28-.28-.55,0-.25,.1-.44,.28-.54,.07-.04,.16-.07,.24-.08,.07-.03,.13-.03,.2-.03h1.5c.74,0,1.1-.41,1.1-1.23V11.93h-2.76c-.07,0-.13-.01-.2-.03-.08,0-.16-.01-.21-.06-.18-.11-.28-.31-.28-.58s.1-.44,.28-.54c.06-.04,.13-.07,.21-.08h2.96V1.84c0-.5,.08-.89,.25-1.18,.2-.38,.57-.57,1.08-.57,.57,0,.95,.24,1.16,.74,.06,.16,.11,.35,.13,.58,.01,.07,.03,.16,.03,.25v3.07Zm1.87,9.7c.14,.16,.37,.54,.69,1.13,1.03,1.83,1.54,3.09,1.54,3.75,0,.92-.44,1.39-1.33,1.39-.44,0-.74-.18-.93-.52-.07-.11-.13-.25-.17-.42,0-.06-.01-.13-.03-.21,0-.06-.01-.11-.03-.2-.17-1.39-.42-2.78-.75-4.16-.03-.11-.04-.23-.04-.34,0-.42,.2-.64,.58-.64,.2,0,.35,.08,.47,.23Zm1.57-11.77c-.07,0-.14-.01-.21-.03-.08,0-.16-.01-.23-.06-.18-.11-.28-.31-.28-.58s.1-.44,.28-.54c.07-.04,.14-.07,.23-.08h5.92c.88,0,1.5,.25,1.87,.78,.28,.38,.41,.91,.41,1.57,0,2.86-.25,5.67-.79,8.41-.57,2.95-1.35,5.4-2.34,7.32l.51,1.06c.23,.45,.45,.86,.69,1.27,.64,1.01,1.44,2.07,2.42,3.16,.1,.11,.18,.23,.23,.34,.04,.07,.06,.17,.06,.25,0,.44-.21,.67-.62,.67-.24,0-.82-.5-1.77-1.5-.48-.47-.93-.99-1.36-1.54-.48-.64-.91-1.25-1.26-1.84-.58,.85-1.2,1.61-1.88,2.29-.52,.58-1.08,1.09-1.64,1.53-.44,.37-.85,.65-1.23,.86-.31,.17-.51,.25-.59,.25-.4,0-.58-.23-.58-.67,0-.14,.04-.28,.13-.4,.04-.07,.13-.16,.23-.23,.62-.48,1.19-1.01,1.73-1.56,.45-.48,.88-.98,1.27-1.49,.33-.44,.64-.91,.91-1.39,.2-.35,.41-.75,.61-1.18-.59-1.27-1.12-2.68-1.56-4.19-.37-1.25-.67-2.55-.91-3.91-.17-.99-.31-1.97-.41-2.92-.03-.33-.06-.64-.07-.92l-.03-.44c0-.68,.23-1.16,.69-1.43l.25-.11,.25-.06c.06-.03,.11-.03,.18-.03h.25c.07,0,.14,0,.21,.03,.17,.03,.33,.1,.45,.2,.38,.27,.58,.74,.62,1.4,.03,.86,.07,1.66,.13,2.37,.06,.84,.11,1.61,.2,2.35,.21,1.7,.5,3.26,.85,4.65l.4-1.6c.14-.76,.28-1.57,.41-2.42,.13-1.03,.24-2.15,.33-3.36,.08-1.42,.13-2.93,.13-4.56,0-1.18-.3-1.76-.89-1.76h-4.19Z"/>
        <path class="cls-1" d="M429.8,19.53c-.08,0-.16,0-.23-.03-.08-.01-.16-.04-.23-.08-.17-.11-.25-.3-.25-.54,0-.27,.08-.45,.25-.55,.07-.03,.14-.06,.23-.08,.07-.01,.14-.03,.23-.03h22.25c.08,0,.16,.01,.23,.03,.08,.03,.17,.06,.23,.08,.18,.11,.27,.3,.27,.55,0,.24-.08,.42-.27,.54-.06,.04-.14,.07-.23,.08-.07,.03-.14,.03-.23,.03h-12.73c-.88,1.4-1.87,2.76-2.97,4.08,4.29-.18,7.82-.37,10.57-.54-.28-.33-.61-.69-1.01-1.12-.16-.14-.34-.31-.54-.52l-.54-.54c-.08-.08-.16-.16-.18-.23-.07-.13-.1-.24-.1-.35,0-.44,.18-.65,.57-.65,.08,0,.28,.07,.61,.23,.34,.16,.74,.35,1.16,.59,1.06,.62,1.98,1.22,2.75,1.81,.78,.61,1.3,1.09,1.57,1.43,.23,.31,.33,.62,.33,.92,0,1.12-.51,1.67-1.56,1.67-.41,0-.76-.2-1.03-.58l-1.02-1.46-4.76,.58c-.47,.06-.85,.08-1.16,.11-1.52,.18-2.88,.34-4.12,.45l-4.65,.44c-1.37,.11-2.17,.17-2.39,.17-.72,0-1.08-.38-1.08-1.15,0-.65,.24-1.01,.72-1.03l1.33-.08,1.88-.07c.41-.62,.79-1.29,1.18-1.97,.41-.81,.75-1.54,1.01-2.2h-6.08Zm12.51-14.87h7.55c1.57,0,2.35,.75,2.35,2.27v3.36c0,.1-.01,.18-.03,.27-.01,.23-.06,.42-.13,.59-.21,.5-.59,.75-1.16,.75-.5,0-.85-.2-1.05-.58-.17-.28-.25-.68-.25-1.2v-2.9c0-.84-.38-1.26-1.12-1.26h-6.16v5.92c0,.11-.01,.21-.03,.28-.01,.25-.07,.47-.16,.67-.2,.54-.61,.81-1.2,.81s-1.02-.27-1.23-.78c-.08-.2-.14-.41-.16-.67-.03-.08-.03-.2-.03-.31V5.95h-6.18c-.74,0-1.1,.42-1.1,1.26v2.9c0,.48-.07,.86-.23,1.15-.21,.42-.57,.64-1.06,.64s-.85-.2-1.08-.58c-.17-.3-.25-.71-.25-1.2v-3.19c0-1.52,.78-2.27,2.34-2.27h7.56V2.34h-7.66c-.07,0-.14-.01-.23-.03-.1-.03-.17-.06-.24-.08-.17-.1-.25-.27-.25-.52,0-.27,.1-.45,.28-.54,.07-.04,.14-.07,.23-.1,.07-.01,.14-.03,.21-.03h18.07c.08,0,.17,.01,.23,.03,.1,0,.17,.03,.24,.07,.17,.11,.25,.28,.25,.54,0,.27-.1,.45-.28,.55-.07,.03-.14,.06-.23,.08-.07,.01-.14,.03-.21,.03h-7.61v2.32Zm7.35,9.92c.08,0,.16,0,.23,.03,.08,.01,.17,.04,.24,.08,.17,.11,.25,.3,.25,.54,0,.25-.1,.44-.28,.55-.07,.03-.14,.07-.24,.08-.06,.01-.13,.03-.2,.03h-17.47c-.07,0-.13-.01-.2-.03-.08-.01-.17-.06-.24-.08-.18-.1-.28-.28-.28-.55s.1-.45,.28-.54c.07-.04,.16-.07,.24-.08,.07-.03,.13-.03,.2-.03h17.47Zm-11.76-6.7c.08,0,.17,.01,.24,.03,.08,.01,.16,.04,.23,.08,.17,.11,.25,.3,.25,.55,0,.24-.08,.42-.25,.54-.07,.04-.14,.07-.23,.08-.07,.03-.16,.03-.24,.03h-4.14c-.08,0-.16,0-.23-.03-.08-.01-.17-.04-.24-.08-.17-.11-.25-.3-.25-.54,0-.25,.1-.44,.28-.55,.07-.04,.14-.07,.24-.08,.06-.01,.13-.03,.2-.03h4.14Zm0,3.19c.07,0,.16,.01,.24,.03,.08,.03,.16,.06,.23,.08,.17,.11,.25,.3,.25,.55,0,.27-.08,.45-.25,.54-.07,.04-.14,.07-.23,.08-.07,.03-.16,.03-.24,.03h-4.14c-.08,0-.16,0-.23-.03-.08-.01-.17-.04-.24-.08-.17-.11-.25-.3-.25-.54,0-.25,.08-.44,.25-.55,.07-.03,.16-.06,.24-.08,.07-.01,.14-.03,.23-.03h4.14Zm10.14-3.19c.08,0,.16,.01,.23,.03,.08,.01,.16,.04,.23,.08,.17,.11,.25,.3,.25,.55,0,.27-.08,.45-.25,.54-.07,.04-.14,.07-.23,.08-.07,.03-.14,.03-.23,.03h-4.12c-.08,0-.16,0-.23-.03-.08-.01-.17-.04-.24-.08-.17-.11-.25-.3-.25-.54,0-.27,.1-.45,.28-.55,.07-.04,.16-.07,.24-.08,.06-.01,.13-.03,.2-.03h4.12Zm0,3.19c.08,0,.16,.01,.23,.03,.08,.03,.16,.06,.23,.08,.17,.11,.25,.3,.25,.55,0,.27-.08,.45-.28,.54-.06,.04-.14,.07-.23,.08-.07,.03-.14,.03-.2,.03h-4.12c-.07,0-.14,0-.2-.03-.08-.01-.17-.04-.24-.08-.18-.11-.28-.3-.28-.54,0-.25,.1-.44,.28-.55,.07-.03,.16-.06,.24-.08,.06-.01,.13-.03,.2-.03h4.12Z"/>
      </g>
    </g>
  </g>
</svg>