<?xml version="1.0" encoding="UTF-8"?>
<svg id="_圖層_2" data-name="圖層 2" xmlns="http://www.w3.org/2000/svg" viewBox="0 0 646.34 350.68">
  <defs>
    <style>
      .cls-1 {
        fill: #7a6a56;
      }
    </style>
  </defs>
  <g id="context">
    <g>
      <g>
        <g>
          <path class="cls-1" d="M221.83,203.12c-1.03,.18-1.76,.31-2.21,.39-.67,.11-1.11,.17-1.31,.17-.71,0-1.06-.42-1.06-1.25,0-.48,.17-.82,.53-1.03,.18-.11,.88-.17,2.07-.17,.4-.45,.78-.93,1.17-1.45,.3-.37,.57-.73,.82-1.06-.31-.08-.6-.32-.84-.75-.43-.76-.9-1.48-1.43-2.17-.43-.56-.93-1.15-1.52-1.78l-.19-.25c-.05-.11-.09-.23-.09-.33,0-.41,.2-.61,.61-.61,.08,0,.2,.05,.37,.14,.15,.08,.34,.18,.56,.33l1.01,.72,.31-.5c.15-.24,.29-.48,.42-.72,.4-.7,.75-1.47,1.1-2.28,.44-1.05,.96-1.59,1.54-1.59,.4,0,.75,.12,1.06,.37,.38,.26,.56,.6,.56,1.03,0,.11-.01,.2-.02,.28-.02,.09-.06,.2-.14,.33-.15,.24-.47,.66-.96,1.25-.48,.57-1.01,1.16-1.57,1.75l-1.03,1.06,.98,.86c.18,.18,.33,.34,.45,.47,.13,.15,.21,.26,.25,.33,.35-.52,.61-.92,.78-1.23l.96-1.78c.16-.33,.32-.56,.47-.69,.23-.23,.51-.33,.84-.33,1.05,0,1.57,.47,1.57,1.42,0,.37-.58,1.23-1.73,2.58-1.48,1.7-2.86,3.21-4.15,4.53,2.01-.11,3.39-.21,4.12-.31l-.59-1.55c-.05-.17-.09-.27-.09-.31,0-.39,.2-.59,.59-.59,.12,0,.34,.16,.7,.47,.34,.32,.7,.69,1.06,1.14,.93,1.15,1.41,1.99,1.41,2.53,0,.93-.46,1.39-1.38,1.39-.51,0-.85-.23-1.03-.67l-.31-1.17-1.97,.45v10.62c0,.09-.01,.18-.02,.25-.02,.23-.06,.42-.14,.59-.2,.46-.6,.7-1.18,.7s-.97-.24-1.17-.7c-.08-.17-.13-.36-.14-.59-.02-.07-.03-.16-.03-.25v-10.06Zm-1.03,1.72c.31,.23,.47,.52,.47,.89,0,.61-.28,1.75-.84,3.42-.58,1.67-1.11,2.87-1.57,3.61-.2,.33-.42,.5-.64,.5-.41,0-.62-.2-.62-.61,0-.06,.02-.17,.06-.34l.37-1.41c.26-1.11,.46-2.83,.61-5.15,.05-.82,.47-1.22,1.26-1.22,.32,0,.62,.1,.9,.3Zm5.96,.14c.54,.78,1.05,1.68,1.54,2.7,.51,1.06,.76,1.77,.76,2.14,0,.89-.49,1.33-1.48,1.33-.85,0-1.29-.47-1.35-1.42-.13-1.56-.38-2.97-.75-4.22-.05-.23-.09-.37-.09-.45,0-.41,.21-.61,.64-.61,.23,0,.47,.18,.73,.53Zm10.25,.33v7.29h5.8c.08,0,.15,.01,.23,.03,.09,.02,.17,.05,.25,.09,.2,.09,.31,.27,.31,.53,0,.24-.1,.42-.28,.53-.08,.03-.16,.06-.26,.08-.08,.02-.16,.03-.25,.03h-14.88c-.08,0-.15-.01-.21-.03-.1-.02-.18-.05-.26-.08-.2-.1-.31-.27-.31-.53s.11-.44,.31-.53c.08-.04,.16-.06,.26-.09,.06-.02,.14-.03,.21-.03h6.12v-7.29h-4.32c-.08,0-.15,0-.23-.03-.09,0-.17-.02-.25-.05-.2-.11-.31-.3-.31-.56,0-.24,.11-.41,.31-.53,.08-.04,.16-.06,.25-.08,.08-.02,.15-.03,.23-.03h11.96c.08,0,.15,.01,.23,.03,.1,.02,.18,.04,.26,.08,.2,.11,.3,.29,.3,.53,0,.26-.1,.44-.3,.53-.08,.04-.16,.06-.26,.08-.08,.02-.15,.03-.23,.03h-4.67Zm5.09-15.29c.1,0,.18,.01,.26,.03,.1,.02,.17,.05,.25,.09,.19,.11,.28,.28,.28,.53s-.1,.41-.3,.5c-.08,.06-.16,.09-.26,.09-.08,.02-.15,.03-.23,.03h-13.17c-.09,0-.17-.01-.25-.03-.1,0-.18-.03-.26-.09-.18-.09-.28-.26-.28-.5,0-.26,.11-.44,.31-.53,.08-.04,.16-.06,.25-.09,.08-.02,.15-.03,.23-.03h13.17Zm-9.1,3.26c0,.3-.26,.83-.78,1.61-.2,.3-.46,.64-.78,1.03-.11,.17-.24,.34-.39,.53l-.34,.44s-.05,.04-.05,.06c0,.02-.01,.04-.05,.05l-.25,.33c-.15,.2-.23,.33-.23,.39,0,.13,.12,.31,.37,.55l.84,.83c.38,.37,.69,.71,.95,1.03,.34,.39,.6,.72,.78,1,.21,.33,.31,.6,.31,.81,0,.95-.51,1.42-1.52,1.42-.39,0-.69-.11-.89-.33-.08-.09-.15-.2-.23-.33l-.14-.31c-.51-1.26-1.16-2.6-1.96-4l-.12-.25c-.03-.11-.05-.22-.05-.33,0-.18,.08-.42,.23-.72,.33-.69,.61-1.34,.84-1.98,.11-.28,.24-.61,.37-1l.39-1.2c.19-.57,.59-.86,1.2-.86,1.01,0,1.52,.41,1.52,1.23Zm4.43-.03c0,.3-.18,.74-.56,1.33-.13,.22-.3,.46-.51,.72l-.92,1.23c-.1,.09-.17,.19-.23,.28l-.39,.53c-.12,.15-.17,.24-.17,.28,0,.08,.04,.17,.11,.28l.62,.67c.28,.3,.52,.56,.73,.81,.33,.37,.62,.7,.86,1,.3,.39,.54,.73,.71,1,.2,.33,.3,.58,.3,.75,0,.89-.49,1.34-1.48,1.34-.38,0-.67-.11-.87-.33-.09-.11-.21-.33-.37-.64-.46-1.11-.82-1.91-1.06-2.39-.18-.34-.54-.93-1.06-1.78-.16-.26-.25-.48-.25-.67,0-.2,.09-.48,.28-.83,.26-.52,.56-1.25,.89-2.2,.13-.33,.25-.67,.34-1l.19-.59c.23-.68,.67-1.03,1.31-1.03,1.01,0,1.52,.41,1.52,1.25Zm4.15-.95c.38,.24,.56,.58,.56,1.03,0,.48-.88,1.79-2.67,3.92l-.16,.22c-.02,.05-.03,.11-.03,.17,0,.11,.12,.28,.33,.5,.3,.28,.59,.57,.87,.89,.35,.37,.68,.72,.96,1.06,.71,.83,1.06,1.42,1.06,1.78,0,.92-.48,1.39-1.46,1.39-.37,0-.66-.13-.86-.39-.19-.26-.62-1.06-1.29-2.39-.04-.09-.09-.18-.14-.28-.02-.05-.05-.11-.09-.17,0-.02-.01-.04-.03-.05l-.33-.67c-.23-.45-.43-.83-.61-1.14-.1-.13-.14-.31-.14-.55,0-.05,.06-.28,.21-.69l1.63-4.2c.21-.46,.62-.69,1.2-.69,.35,0,.68,.09,.98,.28Z"/>
          <path class="cls-1" d="M282.01,206.09v-11.29c0-1.65,.92-2.47,2.77-2.47h3.16v-1.75c0-.1,.01-.18,.03-.25,.02-.24,.08-.45,.17-.61,.21-.48,.64-.72,1.26-.72s1.04,.24,1.29,.72c.08,.17,.12,.37,.14,.61,.02,.08,.02,.16,.02,.25v1.75h3.06v-1.75c0-.1,0-.19,.02-.28,.02-.22,.08-.42,.17-.59,.23-.48,.66-.72,1.29-.72s1.03,.24,1.26,.72c.08,.17,.12,.37,.14,.61,.02,.08,.03,.16,.03,.25v1.75h3.19c1.85,0,2.77,.82,2.77,2.47v11.29h1.74c.08,0,.15,.01,.21,.03,.1,.02,.18,.05,.26,.09,.2,.09,.31,.27,.31,.53,0,.24-.1,.42-.28,.53-.14,.07-.3,.11-.51,.11h-24.21c-.08,0-.15,0-.23-.03-.11-.02-.19-.04-.25-.08-.18-.11-.29-.29-.31-.53,.02-.24,.13-.41,.31-.53,.05-.04,.14-.06,.25-.09,.08-.02,.15-.03,.23-.03h1.69Zm7.31,4.95c-.53,.45-1.5,.98-2.94,1.62-.71,.31-1.44,.61-2.21,.89-.63,.24-1.26,.46-1.87,.64-.51,.15-.97,.27-1.38,.36-.35,.08-.58,.11-.68,.11-.41,0-.61-.21-.61-.64,0-.2,.06-.36,.19-.47,.06-.05,.13-.1,.23-.14l.23-.11c1.12-.45,2.21-1.01,3.28-1.7,1.24-.8,2.3-1.66,3.19-2.58,.56-.57,1.05-.87,1.46-.87,.43,0,.81,.14,1.15,.42,.41,.35,.61,.82,.61,1.39,0,.39-.21,.75-.64,1.08Zm-1.38-12.04v-5.39h-1.73c-.81,0-1.2,.4-1.2,1.19v4.2h2.93Zm0,7.09v-5.81h-2.93v5.81h2.93Zm5.98-7.09v-5.39h-3.06v5.39h3.06Zm0,7.09v-5.81h-3.06v5.81h3.06Zm1.71,2.39c.33-.27,.72-.41,1.15-.41,.28,0,.54,.08,.78,.25,.2,.15,.68,.57,1.42,1.28,1.56,1.5,3.44,2.76,5.66,3.76,.32,.13,.47,.35,.47,.67,0,.41-.2,.61-.61,.61-.51,0-1.47-.26-2.91-.78-1.21-.45-2.27-.88-3.17-1.31-1.44-.67-2.41-1.24-2.91-1.7-.33-.31-.51-.64-.51-.97,0-.57,.2-1.04,.62-1.39Zm4.22-9.48v-4.2c0-.8-.4-1.19-1.2-1.19h-1.82v5.39h3.02Zm-3.02,1.28v5.81h3.02v-5.81h-3.02Z"/>
          <path class="cls-1" d="M348.07,213.07c0,.11-.01,.21-.03,.31-.02,.24-.08,.45-.17,.61-.2,.45-.63,.67-1.28,.67s-1.1-.22-1.32-.67c-.1-.17-.15-.37-.17-.61-.01-.09-.02-.19-.02-.31v-13.79l-.73,.73c-.33,.35-.66,.66-.96,.92-.37,.33-.69,.59-.95,.78-.32,.22-.55,.33-.68,.33-.41,0-.61-.2-.61-.61,0-.19,.16-.46,.51-.81,2.46-2.71,4.37-6.05,5.74-10.04l.17-.47c.09-.19,.18-.33,.28-.45,.28-.33,.68-.5,1.2-.5,1.21,0,1.82,.5,1.82,1.5,0,.48-.32,1.26-.98,2.34-.24,.41-.54,.87-.89,1.39l-.92,1.31v17.38Zm8.01-18.02h-1.03c-.73,1.04-1.62,2.15-2.69,3.34-.55,.61-1,1.09-1.38,1.45-.45,.39-.76,.59-.92,.59-.41,0-.62-.2-.62-.61,0-.17,.14-.43,.43-.78l.56-.75c.35-.5,.7-1.04,1.03-1.61,.45-.8,.85-1.62,1.2-2.48,.45-1.04,.82-2.1,1.1-3.2l.19-.67c.1-.24,.19-.44,.28-.59,.28-.39,.7-.58,1.24-.58,.45,0,.86,.13,1.24,.39,.43,.3,.64,.69,.64,1.17,0,.35-.17,.85-.51,1.5-.25,.46-.56,.98-.96,1.56h10.48c.08,0,.15,.01,.23,.03,.1,.02,.17,.05,.25,.09,.2,.09,.31,.27,.31,.53,0,.24-.11,.41-.31,.53-.08,.04-.15,.06-.25,.09-.08,.02-.15,.03-.23,.03h-7.29v5.42h6.64c.08,0,.15,.01,.23,.03,.1,.02,.17,.05,.25,.09,.2,.09,.31,.27,.31,.53,0,.24-.11,.42-.31,.53-.08,.04-.15,.06-.25,.09-.08,.02-.15,.03-.23,.03h-6.64v5.42h6.64c.08,0,.15,.01,.23,.03,.1,.02,.17,.05,.25,.09,.2,.09,.31,.27,.31,.53,0,.24-.11,.42-.31,.53-.08,.04-.15,.07-.25,.09-.08,.02-.15,.03-.23,.03h-6.64v4.56c0,.13-.01,.24-.02,.33-.02,.24-.08,.45-.17,.61-.23,.45-.67,.67-1.32,.67s-1.07-.22-1.28-.67c-.1-.17-.15-.37-.17-.61-.02-.09-.03-.2-.03-.33v-17.96Z"/>
          <path class="cls-1" d="M414.99,211.65c0,1.57-.92,2.36-2.75,2.36h-5.49c-1.83,0-2.74-.79-2.74-2.36v-6.75c0-1.57,.91-2.36,2.74-2.36h5.49c1.83,0,2.75,.79,2.75,2.36v6.75Zm-2.84-6.59c0-.83-.42-1.25-1.26-1.25h-2.75c-.84,0-1.26,.42-1.26,1.25v6.42c0,.83,.42,1.25,1.26,1.25h2.75c.84,0,1.26-.42,1.26-1.25v-6.42Zm12.17-8.12c0,1-.27,1.7-.78,2.11-.45,.35-1.17,.53-2.16,.53h-10.53c-1.97,0-2.94-.88-2.94-2.64v-4.51c0-1,.26-1.7,.78-2.11,.45-.35,1.17-.53,2.16-.53h10.53c1.96,0,2.94,.88,2.94,2.64v4.51Zm-3.03-4.59c0-.87-.44-1.31-1.31-1.31h-7.79c-.86,0-1.29,.44-1.29,1.31v4.64c0,.87,.43,1.31,1.29,1.31h7.79c.87,0,1.31-.44,1.31-1.31v-4.64Zm6.89,19.3c0,1.57-.91,2.36-2.74,2.36h-5.58c-1.83,0-2.74-.79-2.74-2.36v-6.75c0-1.57,.91-2.36,2.74-2.36h5.58c1.83,0,2.74,.79,2.74,2.36v6.75Zm-2.93-6.59c0-.83-.42-1.25-1.27-1.25h-2.71c-.85,0-1.27,.42-1.27,1.25v6.42c0,.83,.42,1.25,1.27,1.25h2.71c.85,0,1.27-.42,1.27-1.25v-6.42Z"/>
        </g>
        <rect class="cls-1" x="263.16" y="191.04" width="1.1" height="24.29"/>
        <rect class="cls-1" x="198.87" y="191.04" width="1.1" height="24.29"/>
        <rect class="cls-1" x="323.17" y="191.04" width="1.1" height="24.29"/>
        <rect class="cls-1" x="383.17" y="191.04" width="1.1" height="24.29"/>
        <rect class="cls-1" x="446.04" y="191.04" width="1.1" height="24.29"/>
      </g>
      <g>
        <path d="M192.98,80.49c8.75,0,14.9,2.02,18.45,6.07l.35,3.03c0,1.79-1.65,10.11-4.97,24.94l.35,4.71-.35,2.03,1.06,.67h1.07l1.06-.67,.35,.33-2.12,11.12v1.36l.35,1.35c-1.19,4.5-2.37,6.86-3.55,7.07h-.35c-2.12,0-3.2-2.35-3.2-7.07-.47,0-.94-3.48-1.42-10.45-.71,0-1.06-2.81-1.06-8.43,0-7.41,1.42-15.84,4.26-25.29v-1.68c0-.45-2.61-1.02-7.81-1.69-2.36-2.7-3.54-4.72-3.54-6.07v-.34l1.06-1Zm52.87-5.74h.71v.34l-2.12,7.76v1.35l1.42,1.35h1.06l9.59-1.69,.71-2.02-1.06-2.36h.71c2.14,1.13,3.2,1.81,3.2,2.02v3.38c-.71,4.95-2.73,7.41-6.03,7.41-6.16,1.57-11,4.05-14.56,7.41l-.35,.34v3.71c0,3.36,1.3,5.05,3.91,5.05h2.83c1.18,0,2.72-1.12,4.62-3.36l3.2-1.02c1.65,0,3.78,1.46,6.39,4.38v.67c-1.42,2.48-3.2,3.71-5.32,3.71l-1.77,1.69v3.71l.35,6.07c-.72,7.65-2.73,11.46-6.03,11.46l-3.91,1.02-3.2-1.36v-.33c0-.45,1.3-1.24,3.91-2.36,1.18-.9,1.77-3.14,1.77-6.74v-5.05c0-3.82-.47-6.07-1.42-6.74l-3.55,.33h-1.06c-3.32,0-5.68-3.59-7.09-10.79l-.35-.33h-1.06c-10.42,3.15-16.81,6.07-19.17,8.76v-.67c0-4.04,3.07-8.76,9.23-14.15l14.91-8.43,4.96-10.79c1.18-2.47,2.73-3.71,4.62-3.71Zm-5.68,51.91v.34c-3.79,3.15-6.5,5.73-8.16,7.76l-3.55,1.35c-4.5-.9-6.74-2.14-6.74-3.71,0-2.02,2.24-3.38,6.74-4.05h4.62c1.18,0,3.55-.55,7.09-1.69Zm24.14-8.09c4.01,0,7.8,2.81,11.36,8.43-1.19,3.38-2.02,5.05-2.49,5.05l-9.23-3.36h-.35l-1.77,.33v-.33c1.89-1.79,2.85-3.26,2.85-4.38s-.6-2.59-1.78-4.39c.24-.89,.71-1.35,1.43-1.35Z"/>
        <path d="M333.64,81.16c.71,0,1.43,.67,2.14,2.02,0,2.25-3.32,7.31-9.94,15.17l-4.97,7.08,1.06,.33c5.44-2.69,8.64-4.04,9.59-4.04h2.12l1.43,1-2.49,14.5c4.03,1.12,6.03,2.59,6.03,4.38l-.35,2.36c7.09,.45,10.65,1.91,10.65,4.38,1.18,4.5,1.77,7.98,1.77,10.45-1.65,4.5-4.73,7.86-9.22,10.12-4.97,1.57-9.35,2.36-13.14,2.36h-.71l-1.77-.34v-.67c.47-.45,3.55-1.46,9.23-3.03,5.9-2.69,8.87-5.73,8.87-9.1l.35-1v-4.72c-.47-2.02-1.3-3.03-2.48-3.03-7.09,0-10.65-.9-10.65-2.7v-.67l.35-2.69c0-.67-1.06-1.46-3.2-2.36l-1.06-3.36,3.2-9.77-.71-.68c-9,2.48-13.49,5.29-13.49,8.43-1.65,3.6-4.5,5.39-8.51,5.39l-.35-.33v-2.7c1.65-4.72,6.26-12.02,13.84-21.91v-.33h-1.06c-2.61,2.02-7.09,3.93-13.49,5.73-1.18,0-2.24-.78-3.19-2.36,0-3.14,1.06-4.72,3.19-4.72,4.73-1.12,10.41-3.59,17.05-7.41,5.9-3.81,9.22-5.73,9.93-5.73Zm-5.32-14.83c1.43,0,2.14,.78,2.14,2.35,0,.67-.48,1.69-1.43,3.03v.67l6.4-1,1.06,.33v1.02c-1.42,2.25-2.85,3.38-4.26,3.38-2.37,1.79-4.38,2.69-6.03,2.69h-.35c-3.08,0-4.62-1.35-4.62-4.05v-1.35c.94-4.72,3.32-7.07,7.09-7.07Z"/>
        <path d="M448.07,117.23h1.06l.35,2.36c-4.03,7.86-8.63,12.47-13.84,13.82l-15.26,3.36-1.77-.33-4.62,.67h-2.83l-.37,.33c-5.21,0-11.47-2.92-18.81-8.76l-1.42-4.72c.94-2.02,1.77-3.03,2.48-3.03,1.18,0,4.26,2.14,9.23,6.41,2.6,1.79,6.03,3.03,10.29,3.71l3.9-.67,1.78,.33c12.06-2.02,19.28-3.81,21.65-5.39l7.09-7.07,1.06-1.02Zm-26.27-37.08l.35,.34h2.49c2.12,0,3.2,.79,3.2,2.36,0,1.12-1.55,3.59-4.62,7.41-1.19,2.02-1.78,3.71-1.78,5.05v2.69c1.18,1.36,1.78,5.74,1.78,13.15l-.71,2.02c1.65,1.13,3.42,1.69,5.32,1.69l2.12,3.03c0,2.25-2.49,3.71-7.45,4.38-7.11,0-10.65-2.12-10.65-6.4,.47-1.35,2.6-3.59,6.39-6.74v-1.02h-2.85c-1.42,0-2.83-1.23-4.25-3.71v-.67c0-1.79,2.12-4.38,6.39-7.76,0-2.24,1.89-5.73,5.68-10.45v-.34h-1.78c-2.6,0-8.75,2.7-18.45,8.1l-3.91,1.35v-.67c2.36-4.72,8.64-8.98,18.82-12.81l3.9-1.02Z"/>
      </g>
      <g>
        <g>
          <path d="M11.68,283.23c-.13,.31-.22,.66-.29,1.04-1.82,4.38-5.1,7.79-9.84,10.23l-1.55-1.68c5.71-2.64,9.15-6.98,10.32-13.06H.78v-2.16H10.52c.06-.37,.1-.75,.1-1.12v-3.56h2.33v3.56c-.06,.38-.1,.76-.1,1.12h9.75v2.16H13.15c.13,.94,.29,1.79,.49,2.54,1.3,4.01,4.57,7.64,9.83,10.9l-1.95,1.5c-.52-.38-.97-.69-1.36-.94-4.42-3.25-7.25-6.76-8.48-10.52Z"/>
          <path d="M28.47,294.79h-2.04v-21.32c.06-.13,.1-.22,.1-.28h5.36l1.46,.84-1.95,5.92c-.06,.43-.06,.69,0,.75,.91,1.19,1.49,2.35,1.76,3.48,.52,1.75,.39,3.1-.39,4.04-.45,.56-1,.87-1.65,.94-.79,.13-1.66,.06-2.64-.19v5.83Zm.2-19.72h-.1l-.11,.09v11.74c.65,.31,1.28,.44,1.85,.38,.33,0,.59-.13,.79-.38,.71-.99,.1-3.1-1.85-6.29v-.19l1.55-4.88c.13-.38,0-.53-.38-.46h-1.76Zm11.1,13.8h-5.35v-1.98h5.35v-2.26h2.15v2.26h6.03v1.98h-6.03v3.19h7.01v1.98h-16.36v-1.98h7.2v-3.19Zm-.68-8.46v.38c0,.44-.1,.94-.29,1.5-.59,1.81-1.95,3.13-4.1,3.94l-1.27-1.6c.65-.25,1.2-.5,1.66-.75,1.3-.76,1.98-1.78,2.04-3.1v-.38h-3.89v-1.88h6.43v-2.25h-5.06v-1.88h5.06v-1.88h2.15v1.88h5.84v1.88h-5.84v2.25h6.71v1.88h-4.57v2.44c0,.31,.1,.56,.3,.76,.19,.18,.41,.28,.68,.28h1.36c.19,.06,.38,0,.59-.18,.06-.06,.1-.13,.1-.19,.06-.31,.13-.84,.19-1.6l1.76,.38c-.26,1.63-.43,2.54-.49,2.72-.45,.44-.9,.66-1.36,.66h-3.21c-.46,0-.87-.22-1.27-.66-.39-.38-.59-.75-.59-1.12v-3.48h-2.93Z"/>
          <path d="M56.36,282.67c0-.13-.03-.19-.1-.19h-3.51l-.78-1.22,3.51-6c0-.06-.03-.06-.1,0h-3.42v-2.06h5.46l.97,1.31-3.69,5.92h3.12c.51,.06,.78,.28,.78,.66-.06,3.07-.78,5.95-2.15,8.64,0,.06,.03,.1,.11,.1,1.55,1.62,3.83,2.41,6.81,2.34h11.01l-.59,2.16h-9.64c-1.69-.13-3.22-.31-4.59-.56-1.3-.31-2.66-1.07-4.09-2.26-.71,1.25-1.6,2.38-2.63,3.38l-1.76-1.5c1.3-1.32,2.27-2.54,2.92-3.66-.78-1.06-1.49-2.72-2.14-4.98l1.95-.46c.39,1.31,.81,2.47,1.27,3.47,.84-1.81,1.27-3.5,1.27-5.07Zm2.34,6.58v-1.98h6.14v-1.32h-5.17v-1.97h5.17v-1.41h-4.38v-1.88h4.38v-1.5h-6.44v-1.88h6.44v-1.4h-4.38v-1.88h4.38v-1.6h2.14v1.6h5.06c.46,0,.68,.18,.68,.56v2.72h1.56v1.88h-1.56v2.72c-.06,.44-.29,.66-.68,.66h-5.06v1.41h6.04v1.97h-6.04v1.32h6.92v1.98h-6.92v2.53h-2.14v-2.53h-6.14Zm8.28-11.93h3.61v-1.31c-.06-.06-.13-.1-.19-.1h-3.42v1.4Zm0,3.38h3.42c.13-.05,.19-.12,.19-.18v-1.32h-3.61v1.5Z"/>
          <path d="M86.31,276.47v1.98h-9.35v-1.98h9.35Zm-6.72,17.84h-2.04v-8.16c.06-.38,.29-.57,.68-.57h6.82c.45,0,.68,.19,.68,.57v6.48c0,.43-.23,.65-.68,.65h-5.46v1.04Zm5.55-14.74v1.88h-7.11v-1.88h7.11Zm0,3v1.88h-7.11v-1.88h7.11Zm.1-9.2v1.98h-7.11v-1.98h7.11Zm-5.36,14.08c-.19,0-.29,.1-.29,.28v3.67h3.7c.26-.06,.38-.19,.38-.38v-3.29c0-.18-.1-.28-.29-.28h-3.51Zm10.52-12.11v.94c-.06,2.44-1.11,4.26-3.12,5.44l-1.36-1.5c.33-.19,.62-.38,.87-.56,1.11-.94,1.66-2.29,1.66-4.04v-1.98c0-.12,.03-.22,.1-.28,.13-.06,.23-.1,.3-.1h7.01c.13,0,.22,.03,.29,.1,.06,.13,.14,.22,.2,.28v4.98c0,.38,.03,.59,.1,.66,.13,.18,.38,.28,.78,.28h.19c.14-.06,.33-.13,.59-.18,.13-.06,.2-.29,.2-.66v-1.6l1.85,.18c-.07,1.45-.11,2.35-.11,2.72-.13,.31-.29,.6-.48,.85-.46,.37-.91,.56-1.37,.56h-1.74c-.65,0-1.11-.19-1.37-.56-.38-.44-.57-.87-.57-1.32v-4.14c0-.18-.11-.28-.3-.28h-3.5c-.14,.06-.2,.13-.2,.19Zm-2.92,19.53l-1.27-1.78c2.01-.69,3.63-1.4,4.86-2.16-1.3-1.25-2.53-2.91-3.7-4.98l1.76-.94c.98,1.94,2.15,3.51,3.51,4.7,2.01-1.57,3.24-3.28,3.7-5.16l-.1-.19c-.14-.05-.3-.09-.49-.09h-8.38v-1.98h10.14l1.16,.94c-.52,3.07-1.98,5.67-4.38,7.8,1.44,.87,3.32,1.5,5.65,1.88l-1.06,1.97c-2.6-.75-4.68-1.63-6.23-2.62-1.3,.81-3.02,1.68-5.16,2.62Z"/>
          <path d="M113.61,283.05v1.68h-11.78v-1.68h11.78Z"/>
          <path d="M118.72,284.36h-2.92v-1.88h2.92v-1.87h-2.44v-1.88h6.82v1.88h-2.44v1.87h3.02v1.88h-3.02v6.76c1.3-.25,2.28-.46,2.93-.65l.59,1.97c-1.88,.56-4.67,1.04-8.37,1.41l-.49-2.07c1.03-.06,2.17-.18,3.4-.37v-7.05Zm-1.55-6.57l-1.76-1.32c2.28-1.37,3.7-2.57,4.29-3.56h1.85c-.06,.18-.1,.31-.1,.37,.9,.76,1.85,1.41,2.82,1.98l-1.46,1.5c-.85-.56-1.6-1.22-2.24-1.97-.84,.99-1.98,2-3.4,3Zm.38,7.98c.33,1.75,.49,3.51,.49,5.26h-1.95c0-2.07-.13-3.76-.39-5.08l1.85-.18Zm5.95,.1c-.13,1.68-.3,3-.49,3.94l-1.76-.28c.13-.63,.3-1.91,.49-3.86l1.76,.19Zm14.32-2.92v1.78h-11.98c-.46,0-.69-.22-.69-.66v-6.2c-.32,.32-.57,.6-.78,.85l-1.76-.94c1.56-1.63,2.64-3.38,3.22-5.26l1.85,.56c-.2,.5-.39,.97-.59,1.4h3.89c.45-.81,.78-1.5,.97-2.06l1.76,.76c-.13,.43-.29,.87-.49,1.31h4.78l-.19,1.79h-4.78v1.03h4.57v1.7h-4.57v1.22h4.57v1.68h-4.57v1.04h4.78Zm-3.32,4.7c-.26,0-.38,.12-.38,.38v3.75c-.06,.44-.3,.66-.68,.66h-4.29c-.39-.06-.59-.28-.59-.66v-3.75c-.06-.26-.23-.38-.49-.38h-1.55c-.2-.06-.27,0-.2,.18v6.86h-1.95v-8.46c0-.31,.13-.46,.39-.46h5.06c.46,0,.68,.22,.68,.66v3.84c-.06,.19,0,.28,.19,.28h1.17c.2,0,.3-.09,.3-.28v-3.94c0-.38,.19-.56,.59-.56h4.96c.46,0,.69,.22,.69,.66v6.1c0,.81-.3,1.44-.88,1.88-.65,.5-1.88,.63-3.7,.38l.1-1.98c1.11,.25,1.76,.35,1.96,.28,.38-.25,.57-.66,.57-1.22v-3.94c0-.19-.13-.28-.38-.28h-1.56Zm-3.4-11.36h-3.8c-.13,0-.19,.09-.19,.28v.75h3.99v-1.03Zm0,2.72h-3.99v1.22h3.99v-1.22Zm0,2.91h-3.99v.76c.06,.18,.13,.28,.19,.28h3.8v-1.04Z"/>
          <path d="M143.59,294.5l-2.34-.75c1.82-3.63,2.77-7.04,2.83-10.24v-9.76c.06-.44,.29-.66,.68-.66h17.04c.46,.06,.68,.28,.68,.66v18.31c0,.89-.22,1.53-.68,1.98-.59,.5-1.36,.76-2.34,.76-1.16,0-2.63-.19-4.38-.57v-2.44c2.8,.82,4.42,1,4.87,.56,.2-.18,.3-.5,.3-.93v-4.14h-14.22c-.59,2.69-1.39,5.1-2.44,7.23Zm16.66-15.4v-3.56c0-.18-.1-.28-.3-.28h-13.34c-.19,0-.29,.1-.29,.28v3.56h13.93Zm0,6.02v-3.86h-13.93v3.86h13.93Z"/>
          <path d="M173.15,288.96v2.82h-3.02v-2.82h3.02Z"/>
          <path d="M182.92,284.36h-2.93v-1.88h2.93v-1.87h-2.44v-1.88h6.82v1.88h-2.44v1.87h3.02v1.88h-3.02v6.76c1.3-.25,2.27-.46,2.93-.65l.57,1.97c-1.88,.56-4.67,1.04-8.37,1.41l-.49-2.07c1.04-.06,2.18-.18,3.42-.37v-7.05Zm-1.56-6.57l-1.76-1.32c2.28-1.37,3.7-2.57,4.29-3.56h1.85c-.06,.18-.1,.31-.1,.37,.91,.76,1.85,1.41,2.83,1.98l-1.47,1.5c-.84-.56-1.59-1.22-2.23-1.97-.85,.99-1.99,2-3.42,3Zm.39,7.98c.32,1.75,.49,3.51,.49,5.26h-1.95c0-2.07-.14-3.76-.39-5.08l1.85-.18Zm5.94,.1c-.13,1.68-.29,3-.48,3.94l-1.76-.28c.13-.63,.29-1.91,.49-3.86l1.74,.19Zm14.32-2.92v1.78h-11.98c-.46,0-.68-.22-.68-.66v-6.2c-.33,.32-.59,.6-.78,.85l-1.76-.94c1.55-1.63,2.63-3.38,3.21-5.26l1.85,.56c-.19,.5-.39,.97-.59,1.4h3.89c.46-.81,.79-1.5,.98-2.06l1.76,.76c-.14,.43-.3,.87-.49,1.31h4.77l-.19,1.79h-4.77v1.03h4.57v1.7h-4.57v1.22h4.57v1.68h-4.57v1.04h4.77Zm-3.31,4.7c-.27,0-.39,.12-.39,.38v3.75c-.06,.44-.29,.66-.68,.66h-4.29c-.38-.06-.59-.28-.59-.66v-3.75c-.06-.26-.22-.38-.48-.38h-1.56c-.19-.06-.26,0-.19,.18v6.86h-1.95v-8.46c0-.31,.13-.46,.38-.46h5.06c.46,0,.69,.22,.69,.66v3.84c-.07,.19,0,.28,.19,.28h1.17c.19,0,.29-.09,.29-.28v-3.94c0-.38,.19-.56,.59-.56h4.97c.46,0,.68,.22,.68,.66v6.1c0,.81-.29,1.44-.87,1.88-.65,.5-1.88,.63-3.7,.38l.1-1.98c1.11,.25,1.76,.35,1.95,.28,.39-.25,.59-.66,.59-1.22v-3.94c0-.19-.13-.28-.39-.28h-1.55Zm-3.42-11.36h-3.8c-.13,0-.19,.09-.19,.28v.75h3.99v-1.03Zm0,2.72h-3.99v1.22h3.99v-1.22Zm0,2.91h-3.99v.76c.06,.18,.13,.28,.19,.28h3.8v-1.04Z"/>
          <path d="M210.72,290.93h-2.63c-.2,0-.3-.1-.3-.28v-4.6c0-.18,.1-.28,.3-.28h17.43c.2,0,.3,.1,.3,.28v4.6c0,.18-.1,.28-.3,.28h-2.63c-.26,.56-.52,1.16-.78,1.78h6.04v1.88h-22.7v-1.88h6.04c-.26-.75-.52-1.34-.78-1.78Zm16.55-8.26v1.88h-21.03v-1.88h21.03Zm-1.07-8.82c.2,0,.3,.09,.3,.28v7.23c0,.19-.1,.28-.3,.28h-18.89c-.19,0-.29-.09-.29-.28v-7.23c0-.19,.1-.28,.29-.28h5.55v-1.22h2.04v1.22h3.81v-1.22h2.04v1.22h5.45Zm-13.34,1.68h-3.8v1.4h3.8v-1.4Zm0,3.1h-3.8v1.22c0,.06,.03,.1,.1,.1h3.7v-1.32Zm-2.92,8.82h-.11v1.7c0,.06,.03,.1,.11,.1h13.72l.11-.1v-1.7h-13.83Zm10.03,5.26c.32-.75,.61-1.34,.87-1.78h-7.89c.27,.56,.52,1.16,.79,1.78h6.23Zm-1.27-17.18h-3.81v1.4h3.81v-1.4Zm0,3.1h-3.81v1.32h3.81v-1.32Zm2.04-1.7h3.7v-1.4h-3.7v1.4Zm0,3.01h3.61l.1-.1v-1.22h-3.7v1.32Z"/>
          <path d="M237.35,288.96v2.82h-3.02v-2.82h3.02Z"/>
          <path d="M253.55,286.15v7.98h-2.14v-7.98h-3.9c-.06,0-.1,.03-.1,.09v8.36h-2.14v-10.04c.06-.31,.22-.48,.49-.48h7.88c.33-1.12,.52-1.72,.59-1.78h-9.94v-2.06h22.31v2.06h-10.23c-.06,.31-.19,.69-.38,1.12-.06,.19-.13,.41-.19,.66h9.25c.39,.06,.59,.23,.59,.48v7.88c-.06,.87-.43,1.5-1.06,1.88-.85,.56-2.28,.66-4.29,.28l-.1-2.26c1.55,.38,2.46,.44,2.72,.19,.39-.19,.59-.51,.59-.94v-5.36c-.06-.05-.13-.09-.19-.09h-3.81v7.98h-2.14v-7.98h-3.8Zm9.16-9.49c.26,0,.38-.12,.38-.37v-2.92h2.15v4.32c-.07,.69-.43,1.04-1.07,1.04h-17.44c-.65-.06-.97-.41-.97-1.04v-4.32h2.14v2.92c0,.25,.1,.37,.29,.37h6.23v-4.22h2.15v4.22h6.14Z"/>
          <path d="M279.88,272.53h2.24v1.68h9.64v2.07h-18.5c-.14,.05-.2,.12-.2,.18v8.54c-.06,3.69-.62,6.79-1.65,9.3l-2.05-.66c.59-1.63,1.01-3.1,1.28-4.41,.19-1.32,.29-2.92,.29-4.8v-9.67c0-.38,.19-.57,.59-.57h8.37v-1.68Zm-5.94,14.36v-2.06h7.5c-1.17-.94-2.63-1.88-4.38-2.82l1.27-1.68c1.03,.63,1.95,1.22,2.72,1.78,2.79-.82,4.87-1.63,6.23-2.44h-13.15v-1.88h15.68l.98,1.31c-1.63,1.83-4.19,3.29-7.7,4.42,.2,.19,.39,.31,.59,.38l-.78,.94h8.09l1.46,.84c-.59,3.26-2.33,5.57-5.26,6.96l-1.66-1.79c2.28-.94,3.7-2.25,4.29-3.94h-6.14v5.44c0,.94-.38,1.63-1.17,2.07-1.23,.75-3.53,.63-6.92-.38l.11-2.16c1.36,.43,2.27,.69,2.72,.76,.59,.12,1.17,.22,1.76,.28,.38,.05,.78-.1,1.17-.48,.13-.18,.19-.41,.19-.66v-4.88h-7.6Z"/>
          <path d="M301.55,288.96v2.82h-3.02v-2.82h3.02Z"/>
          <path d="M310.75,282.77h-2.24v-1.88h2.24v-5.54h-2.34v-1.88h6.72v1.88h-2.34v5.54h2.04v1.88h-2.04v5.72c.98-.44,1.76-.78,2.34-1.04l.87,1.79c-1.82,.99-4.18,1.97-7.11,2.91l-.98-1.88c.91-.31,1.85-.66,2.83-1.03v-6.48Zm12.56-1.22c-1.17,1.12-2.28,2-3.31,2.62,.32,.81,.61,1.6,.87,2.34l-1.95,.57c-.19-.63-.43-1.25-.68-1.88-.71,.37-1.4,.66-2.04,.84l-1.07-1.7c.84-.31,1.65-.65,2.44-1.03-.39-.94-.68-1.53-.88-1.78l1.95-.66c.14,.37,.33,.87,.59,1.5,1.11-.76,2.18-1.63,3.21-2.64-.38-.56-.81-1.12-1.27-1.68-2.07,1.25-3.69,2.06-4.86,2.44l-1.07-1.7c2.53-.81,4.7-1.97,6.52-3.47h-5.16v-1.98h13.54v1.98h-5.46c-.65,.63-1.27,1.16-1.85,1.59,1.36,1.7,2.34,3.7,2.93,6.02,.51,2.69,2.36,5.76,5.55,9.2l-1.96,.84c-1.23-1.37-2.27-2.82-3.12-4.32-.06,1.38-.38,2.54-.97,3.48-.52,1.19-1.3,1.98-2.34,2.34-.46,.13-.9,.16-1.36,.1-.59-.06-1.49-.31-2.72-.75l.19-2.07c1.55,.63,2.56,.85,3.02,.66,.65-.25,1.17-.78,1.55-1.6,.52-1.25,.74-2.62,.68-4.13-3.31,2.87-6.46,4.82-9.45,5.82l-1.17-1.78c4.03-1.5,7.5-3.66,10.43-6.48-.13-.31-.19-.51-.19-.56-.33-.82-.52-1.53-.59-2.16Zm7.3-3.1c-.84,1.12-1.95,2.34-3.31,3.66l-1.55-1.41c1.49-1.37,2.56-2.56,3.21-3.56l1.65,1.32Z"/>
          <path d="M356.47,279.67v1.88h-22.61v-1.88h10.33v-1.13h-8.28v-1.6h8.28v-1.03h-9.45v-1.88h9.45v-1.5h2.15v1.5h9.23v1.88h-9.23v1.03h8.36v1.6h-8.36v1.13h10.13Zm-18.22,14.93h-2.14v-11.46c.06-.31,.22-.46,.49-.46h17.13c.4,.06,.6,.22,.6,.46v9.3c-.06,.87-.43,1.5-1.06,1.88-.98,.69-2.83,.72-5.55,.1v-2.26c2.13,.63,3.43,.76,3.89,.38,.38-.19,.57-.51,.57-.94v-.38h-13.93v3.38Zm13.93-8.45v-1.51c-.06-.05-.13-.09-.19-.09h-13.64c-.06,0-.1,.03-.1,.09v1.51h13.93Zm0,3.38v-1.7h-13.93v1.7h13.93Z"/>
          <path d="M365.75,288.96v2.82h-3.02v-2.82h3.02Z"/>
          <path d="M395.11,279.67v1.88h-22.6v-1.88h10.32v-1.13h-8.28v-1.6h8.28v-1.03h-9.45v-1.88h9.45v-1.5h2.15v1.5h9.25v1.88h-9.25v1.03h8.37v1.6h-8.37v1.13h10.13Zm-18.21,14.93h-2.15v-11.46c.06-.31,.23-.46,.49-.46h17.14c.39,.06,.59,.22,.59,.46v9.3c-.06,.87-.43,1.5-1.06,1.88-.98,.69-2.83,.72-5.55,.1v-2.26c2.14,.63,3.44,.76,3.89,.38,.39-.19,.59-.51,.59-.94v-.38h-13.93v3.38Zm13.93-8.45v-1.51c-.06-.05-.13-.09-.19-.09h-13.64c-.06,0-.1,.03-.1,.09v1.51h13.93Zm0,3.38v-1.7h-13.93v1.7h13.93Z"/>
          <path d="M417.26,291.78c.2,0,.3-.09,.3-.28v-16.43h2.23v17.84c-.06,.68-.41,1.03-1.06,1.03h-18.7c-.71-.06-1.07-.4-1.07-1.03v-17.84h2.24v16.43c0,.19,.13,.28,.38,.28h6.72v-19.06h2.34v19.06h6.62Z"/>
          <path d="M428.99,274.97c-1.03,1.19-2.33,2.29-3.89,3.28l-1.76-1.32c2.53-1.44,4.13-2.72,4.78-3.84l1.95,.1c-.06,.12-.13,.22-.19,.28,1.1,.87,2.17,1.63,3.21,2.25l-1.47,1.51c-.97-.76-1.85-1.51-2.63-2.26Zm-1.85,9.02h-2.92v-1.88h2.92v-1.78h-2.14v-1.88h6.23v1.88h-2.15v1.78h2.53v1.88h-2.53v7.13c1.17-.3,2.05-.59,2.64-.84l.68,1.98c-2.02,.75-4.78,1.4-8.29,1.97l-.57-1.97c1.03-.19,2.23-.41,3.6-.66v-7.6Zm-1.46,1.22c.32,2.06,.52,3.84,.59,5.35l-1.85,.1c-.13-2-.33-3.76-.59-5.26l1.85-.18Zm6.33,0c-.26,1.75-.49,3.1-.68,4.04l-1.76-.48c.26-1.12,.49-2.44,.68-3.94l1.76,.38Zm5.65,7.88c-2.01,1.12-3.8,1.72-5.35,1.78l-.69-1.88c1.76-.25,3.42-.78,4.97-1.59l1.07,1.68Zm-3.02-13.8v9.86c-.06,.31,.1,.46,.49,.46h11.2v1.7h-12.76c-.59,0-.88-.31-.88-.94v-11.08h1.95Zm8.38-6.76l.48,1.6c-2.14,.56-4.9,.94-8.28,1.12,0,.18,.1,.38,.3,.56,.19,.19,.41,.28,.68,.28h7.5c.19-.05,.38-.12,.59-.18,.13-.06,.22-.59,.29-1.6l1.66,.48c-.27,1.5-.43,2.28-.49,2.34-.59,.44-1.01,.66-1.27,.66h-9.26c-.46-.06-.87-.28-1.27-.66-.32-.31-.49-.66-.49-1.04v-3.47h1.76v1.03c3.37-.18,5.98-.56,7.8-1.12Zm2.33,16.15h-9.54c-.13-.05-.19-.12-.19-.18v-9.2c.06-.19,.13-.28,.19-.28h9.54c.2,0,.3,.09,.3,.28v9.2c0,.13-.1,.18-.3,.18Zm-1.46-7.04v-.94c0-.05-.03-.09-.1-.09h-6.43c-.07,0-.07,.03,0,.09v.94h6.52Zm0,2.72v-1.12h-6.52v1.12h6.52Zm-6.52,1.6v1.13h6.43c.06,0,.1-.03,.1-.1v-1.04h-6.52Zm4.38,5.54c1.43,.31,3.01,.87,4.77,1.7l-.87,1.78c-1.76-.81-3.21-1.35-4.38-1.6l.49-1.88Z"/>
        </g>
        <g>
          <path d="M472.9,294.53h-2.14v-20.76c0-.43,.22-.66,.68-.66h20.06c.51,0,.78,.23,.78,.66v20.76h-2.15v-.94h-17.23v.94Zm14.7-19.54c.2,.51,.39,1.04,.59,1.6h1.17v1.88h-4.67c.38,2.62,.71,4.54,.97,5.72,.65-1.44,1.2-3,1.66-4.69l1.85,.56c-.78,2.69-1.66,4.82-2.63,6.38-.06,.06-.1,.13-.1,.18,.19,.69,.38,1.25,.59,1.7,.26,.56,.41,.84,.48,.84,.13-.05,.23-.22,.3-.46v-2.54l1.85,.46c-.06,1.94-.3,3.33-.68,4.14-.27,.38-.49,.59-.68,.66-.27,.06-.49,.1-.69,.1-.51-.13-.97-.41-1.36-.85-.45-.63-.81-1.34-1.06-2.16-.98,1.2-1.89,2.19-2.73,3.01l-1.55-1.13c.45-.5,.9-.94,1.36-1.31-2.47,.63-5.16,.96-8.09,1.03l-.39-1.88c3.7-.37,6.53-.78,8.48-1.22l.39,1.6c.71-.75,1.3-1.5,1.74-2.26-.65-2.06-1.2-4.69-1.65-7.88h-8.77v-1.88h8.56c-.06-.63-.1-1.16-.1-1.6h-9.25c-.27,0-.36,.1-.3,.28v16.44h17.23v-16.44c0-.18-.1-.28-.29-.28h-2.24Zm-5.84,11.36h-7.5c-.13,0-.19-.09-.19-.28v-5.91c.06-.13,.13-.19,.19-.19h7.5c.19,.06,.3,.13,.3,.19v5.91c0,.19-.11,.28-.3,.28Zm-5.74-4.69q-.06,0,0,0v3h3.99l.11-.1v-2.91h-4.1Zm9.54-6.67h-1.27c.06,.51,.13,1.04,.19,1.6h1.66c-.19-.69-.38-1.22-.59-1.6Z"/>
          <path d="M510.93,283.25h-7.89c-.13,.19-.22,.32-.29,.38-.52,.56-1.01,1.07-1.46,1.5,1.22,1.25,2.04,2.11,2.43,2.54l-1.55,1.12c-.46-.5-1.27-1.31-2.44-2.44-.97,.89-1.88,1.53-2.72,1.98l-1.56-1.4c2.15-1.32,3.8-2.54,4.97-3.67h-4.67v-1.97h6.52c.46-.63,.87-1.22,1.27-1.78h-6.04v-1.98h7.02c.32-.76,.51-1.35,.59-1.78h-8.48v-1.98h8.77c.13-.5,.22-.97,.3-1.4l2.04,.18c-.06,.44-.14,.84-.2,1.22h10.03v1.98h-10.51c-.14,.75-.3,1.35-.49,1.78h10.03v1.98h-5.84c.38,.75,.78,1.34,1.16,1.78h6.44v1.97h-4.78c1.3,1.2,3.02,2.35,5.16,3.48l-1.65,1.6c-1.17-.76-2.28-1.53-3.32-2.34-.84,.81-1.88,1.62-3.12,2.44l-1.27-1.5c1.17-.89,2.15-1.63,2.93-2.26-.46-.38-.9-.84-1.36-1.41Zm-6.04,7.42c-1.88,1.38-4.38,2.67-7.5,3.86l-.87-1.88c3.12-1.25,5.55-2.44,7.31-3.56l1.06,1.59Zm3.32-5.91v7.6c0,.94-.39,1.63-1.17,2.06-.79,.38-2.18,.35-4.19-.1v-2.06c1.63,.38,2.63,.44,3.02,.19,.13-.19,.19-.41,.19-.66v-7.04h2.15Zm.19-5.26h-2.63c-.39,.63-.79,1.22-1.17,1.78h4.87c-.33-.56-.69-1.16-1.07-1.78Zm2.14,9.86c3.32,1.62,5.59,2.84,6.82,3.66l-1.17,1.68c-1.88-1.19-4.12-2.38-6.71-3.56l1.06-1.78Z"/>
          <path d="M534.23,282.88v1.68h-11.79v-1.68h11.79Z"/>
          <path d="M534.95,275.74v-1.98h11.68v1.98h-4.77v17.09h-2.05v-17.09h-4.86Z"/>
          <path d="M556.32,292.83l-2.53-9.1-2.63,9.1h-1.66l-1.46-19.06h1.85l.97,14.46,2.15-7.42h1.65l2.04,7.52,1.17-14.56h1.85l-1.76,19.06h-1.65Z"/>
          <path d="M570.28,290.86v1.97h-6.82v-1.97h2.34v-15.12h-2.34v-1.98h6.82v1.98h-2.44v15.12h2.44Z"/>
          <path d="M583,273.77h2.04v19.06h-2.15l-5.84-14.55v14.55h-2.04v-19.06h2.23l5.76,14.56v-14.56Z"/>
          <path d="M598.49,292.83h-2.04v-19.06h4.97c1.49,0,2.72,.56,3.7,1.7,.78,1.06,1.17,2.57,1.17,4.5,.06,1.7-.39,3-1.36,3.94-.91,.82-2.09,1.22-3.51,1.22h-2.93v7.7Zm4.87-10.42c.59-.5,.87-1.32,.87-2.44,.06-1.44-.19-2.47-.78-3.1-.59-.75-1.59-1.12-3.02-1.12h-1.95v7.42h1.95c1.37,.06,2.34-.19,2.93-.76Z"/>
          <path d="M610.32,292.83h-2.04l5.16-19.06h2.04l5.27,19.06h-2.04l-1.66-5.72h-5.16l-1.56,5.72Zm6.23-7.7l-2.04-7.6-2.14,7.6h4.18Z"/>
          <path d="M624.67,285.13v7.7h-2.04v-19.06h4.97c1.55,0,2.85,.56,3.89,1.7,.91,1.06,1.36,2.57,1.36,4.5,0,1.7-.52,3-1.55,3.94-.65,.69-1.5,1.07-2.53,1.13l4.87,7.79h-2.44l-4.78-7.7h-1.76Zm5.16-2.82c.65-.56,.98-1.34,.98-2.34,0-1.44-.33-2.47-.98-3.1-.57-.75-1.55-1.12-2.92-1.12h-2.24v7.42h2.24c1.36,0,2.34-.28,2.92-.85Z"/>
          <path d="M636.99,292.83h-2.04v-19.06h2.04v8.36l5.74-8.36h2.34l-6.23,9.12,7.5,9.95h-2.44l-6.92-9.39v9.39Z"/>
        </g>
        <path d="M463.6,272.01l-7.12,23.57h-1.74l7.11-23.57h1.76Z"/>
      </g>
      <g>
        <g>
          <path d="M13.18,338.43v.66c0,4.44-1.27,7.92-3.8,10.42l-1.76-1.22c2.2-1.76,3.34-4.83,3.4-9.2v-.66h-2.43v-2.07h10.22v2.07h-1.66v7.42c0,.37,.1,.65,.3,.84,.32,.25,.62,.38,.87,.38h9.64c.2,0,.39-.1,.59-.28,.13-.06,.2-.85,.2-2.35l2.04,.28c-.06,2.19-.19,3.38-.39,3.57-.59,.56-1.11,.84-1.55,.84h-11.69c-.59-.06-1.11-.31-1.55-.76-.39-.43-.59-.87-.59-1.31v-8.64h-1.85Zm-4.87-9.77c0-.25,.13-.37,.39-.37H28.96l1.95,.94c-.13,1.12-.49,2.53-1.07,4.22l-2.04-.66c.39-1.37,.59-2.1,.59-2.16,0-.18-.1-.28-.29-.28H10.65c-.14-.06-.2,0-.2,.18v2.92h-2.14v-4.8Zm10.03,3.48v2.06h-7.2v-2.06h7.2Zm1.17,4.22v-2.06h5.65v-2.44h2.14v2.44h3.02v2.06h-3.02v7.7c0,.94-.38,1.63-1.17,2.07-.97,.5-2.66,.43-5.06-.19v-2.16c2.01,.63,3.32,.76,3.9,.38,.13-.18,.19-.41,.19-.66v-7.14h-5.65Zm2.34,1.13c.97,1.63,1.74,3.13,2.33,4.5l-1.95,.76c-.52-1.25-1.27-2.72-2.23-4.42l1.85-.84Z"/>
          <path d="M38.93,328.29c-1.17,2.56-2.53,4.5-4.09,5.82l-1.76-1.32c1.76-1.44,3.05-3.2,3.89-5.26l1.95,.76Zm-4.09,11.83l-1.76-1.32c2.2-1.75,3.83-3.84,4.87-6.29l1.95,.84c-.79,1.45-1.5,2.64-2.15,3.57v12.77h-2.04v-10.42c-.33,.31-.62,.59-.87,.84Zm7.3,2.82c-.32,2.38-.97,4.42-1.95,6.1-.71-.5-1.3-.84-1.76-1.03,.98-1.51,1.5-3.29,1.56-5.36l2.14,.28Zm12.96-4.6h-14.51c-.2,0-.3-.1-.3-.28v-5.36c0-.18,.1-.28,.3-.28h5.84v-1.4h-6.72v-1.88h6.72v-1.5h2.04v1.5h7.31v1.88h-7.31v1.4h6.63c.19,0,.29,.1,.29,.28v5.36c0,.18-.1,.28-.29,.28Zm.87,1.22v1.88h-16.16v-1.88h16.16Zm-11.39-5.36h-2.34c-.06,0-.06,.03,0,.1v2.26h2.34v-2.35Zm.49,8.36v3.66c.06,.57,.13,.87,.19,.94,.27,.25,.62,.38,1.07,.38h3.12c.39-.06,.68-.1,.87-.1,.13-.05,.3-.22,.49-.46,.06-.18,.1-.76,.1-1.7l2.15,.29c-.14,1.68-.33,2.72-.59,3.09-.33,.38-.62,.59-.88,.66-.38,.13-.87,.19-1.46,.19h-4.67c-.66-.06-1.11-.19-1.37-.38-.71-.56-1.06-1.4-1.06-2.54v-4.04h2.04Zm3.31-.37c.19,.31,.43,.78,.68,1.4,.39,.69,.68,1.25,.88,1.68l-1.85,.66c-.59-1.19-1.11-2.16-1.56-2.91l1.85-.84Zm.49-7.99h-2.24v2.35h2.24v-2.35Zm2.04,2.35h2.44c.06,0,.1-.03,.1-.1v-2.16c0-.06-.03-.1-.1-.1h-2.44v2.35Zm3.12,5.54c.91,1.5,1.69,3.41,2.34,5.72l-1.95,.66c-.71-2.38-1.47-4.22-2.24-5.54l1.85-.84Z"/>
          <path d="M70.03,338.06v1.68h-11.79v-1.68h11.79Z"/>
          <path d="M73.78,338.62l-2.04-.84c2.2-3.07,3.61-6.42,4.19-10.05l2.04,.38c-.39,1.94-.82,3.61-1.27,4.98v16.72h-2.15v-12.3c-.32,.38-.59,.75-.78,1.12Zm20.94-7.32v2.06h-16.75v-2.06h16.75Zm-13.44,18.31h-2.14v-7.6c0-.25,.1-.38,.29-.38h13.83c.33,.06,.49,.23,.49,.48v7.51h-2.15v-1.12h-10.32v1.12Zm11.69-15.02v1.98h-13.35v-1.98h13.35Zm0,3.48v1.98h-13.35v-1.98h13.35Zm-.11-9.96v1.98h-13.04v-1.98h13.04Zm-1.27,18.4v-2.62c0-.18-.1-.28-.29-.28h-9.75c-.26,0-.35,.1-.29,.28v2.62h10.32Z"/>
          <path d="M111.22,343.03h-6.14v1.4c1.5-.18,2.63-.38,3.42-.56l.38,1.78c-.78,.25-2.04,.48-3.8,.66v1.41c-.06,.81-.43,1.44-1.06,1.87-.72,.51-2.18,.48-4.38-.09v-1.88c1.74,.38,2.85,.43,3.31,.18,.13-.12,.19-.31,.19-.56v-.66c-2.01,.19-3.64,.31-4.87,.38l-.29-1.88c1.49-.06,3.21-.18,5.16-.38v-1.68h-5.06v-1.88h5.06v-1.04c-1.62,.13-2.96,.19-3.99,.19l-.3-1.79c3.83-.12,6.85-.4,9.06-.84l.29,1.78c-.71,.13-1.76,.28-3.12,.48v1.22h5.46c-.33-1.07-.62-2.26-.87-3.57h-11.88v-1.87h10.22v-1.13h-8.09v-1.68h8.09v-1.22h-9.45v-1.88h5.65c-.39-.44-.71-.79-.98-1.04l1.47-1.22c.59,.51,1.19,1.16,1.85,1.98l-.39,.28h5.46c.84-.87,1.49-1.63,1.95-2.26l1.55,1.22c-.26,.31-.52,.66-.78,1.04h5.06v1.88h-9.26v1.22h7.99v1.68h-7.99v1.13h10.13v1.87h-8.47c.19,1.38,.49,2.57,.87,3.57h7.21v1.88h-6.53c.33,.81,.79,1.53,1.37,2.16,.71-.51,1.59-1.13,2.63-1.88l1.17,1.5c-.91,.76-1.76,1.35-2.53,1.78,.32,.25,.62,.48,.87,.66,.52,.31,.9,.44,1.17,.38,.26-.06,.38-.19,.38-.38,.2-.44,.3-1.07,.3-1.88l1.85,.66c-.39,2.19-.91,3.48-1.56,3.84-.78,.13-1.59-.02-2.43-.46-.98-.56-1.79-1.16-2.44-1.78-2.09,.94-4.48,1.6-7.21,1.97l-.59-1.87c2.01-.13,4.19-.66,6.53-1.6-.72-.94-1.27-1.98-1.66-3.1Zm3.7-5.26c1.49,.69,2.63,1.22,3.4,1.6l-.97,1.59c-.46-.25-1.56-.75-3.31-1.5l.87-1.68Z"/>
          <path d="M132.1,346.6c-.91,.94-2.05,1.41-3.42,1.41h-5.35v-19.07h5.35c.98,0,1.88,.51,2.72,1.51,.85,.94,1.27,2.28,1.27,4.04,0,1.25-.41,2.28-1.27,3.09-.13,.13-.19,.23-.19,.29,.26,.12,.52,.31,.78,.56,.98,.81,1.47,2.06,1.47,3.76-.06,1.93-.52,3.41-1.36,4.41Zm-2.05-10.24c.39-.5,.59-1.12,.59-1.87,0-1.13-.22-2.01-.68-2.64-.52-.63-1.17-.94-1.95-.94h-2.63v6.2h2.63c.9-.06,1.6-.31,2.04-.76Zm-2.04,2.73h-2.63v6.94h3.31c.84,0,1.49-.31,1.95-.94,.52-.76,.78-1.72,.78-2.91,0-1-.32-1.79-.97-2.35-.59-.5-1.39-.75-2.44-.75Z"/>
          <path d="M142.65,343.97v2.82h-3.02v-2.82h3.02Z"/>
          <path d="M155.06,348.29c-2.01,0-3.53-.89-4.57-2.64-.84-1.44-1.27-3.78-1.27-7.04,.06-3.56,.68-6.2,1.85-7.88,1.04-1.32,2.37-1.98,3.99-1.98,1.44-.06,2.56,.38,3.42,1.32,.84,1,1.27,2.26,1.27,3.76h-2.04c-.07-.87-.33-1.63-.79-2.26-.59-.56-1.2-.84-1.85-.84-1.03,0-1.88,.46-2.53,1.4-.71,1.12-1.06,3.28-1.06,6.48,.06,2.95,.32,4.91,.78,5.92,.71,1.19,1.66,1.78,2.82,1.78,.85,0,1.5-.31,1.96-.94,.45-.69,.68-1.5,.68-2.44h2.04c0,1.5-.43,2.75-1.27,3.76-.85,1.06-1.98,1.6-3.42,1.6Z"/>
          <path d="M168.84,343.97v2.82h-3.02v-2.82h3.02Z"/>
          <path d="M177.94,348.01h-2.05v-19.07h9.65v1.98h-7.6v6.2h5.74v1.98h-5.74v8.92Z"/>
        </g>
        <path d="M198.62,326.41l-7.12,23.57h-1.74l7.11-23.57h1.76Z"/>
        <path d="M216.97,343.55c-1.69,2.38-4.1,4.41-7.21,6.1l-1.55-1.7c5.78-2.75,9.18-7.32,10.22-13.7h-9.94v-2.16h10.13v-4.23h2.24v4.23h10.13v2.16h-9.94c.06,.43,.13,.84,.19,1.22,1.5,4.88,4.9,9.14,10.23,12.77l-1.95,1.5c-1.23-.94-2.28-1.78-3.12-2.53-3.26-3.07-5.46-6.23-6.63-9.49-.71,2.14-1.66,4.07-2.82,5.83Zm2.33-.1c1.5,1.94,2.73,3.66,3.7,5.16l-1.85,1.04c-1.23-2.01-2.44-3.69-3.6-5.08l1.74-1.12Z"/>
        <path d="M247.59,340.08c0,.06,.03,.13,.1,.18,.52,1.57,.81,2.95,.87,4.14,.13,2.13-.38,3.6-1.55,4.41-1.04,.69-2.28,1.04-3.7,1.04-1.5-.06-3.15-.56-4.97-1.5l.49-2.16c1.95,1.06,3.63,1.57,5.06,1.5,1.03-.18,1.76-.66,2.14-1.4,.46-1.07,.16-3.13-.87-6.2h-11.3v-2.16h10.42c-.52-1.13-1.06-2.19-1.65-3.2h1.55l5.95-4.13c.06-.06,.06-.13,0-.19-.06-.05-.14-.09-.2-.09h-13.72v-2.16h16.36l1.95,2.16-8.48,5.63c.33,.69,.62,1.35,.88,1.98h9.73v2.16h-9.05Z"/>
        <path d="M264.38,337.82c0-.12-.03-.18-.1-.18h-3.51l-.78-1.22,3.5-6.02c0-.05-.03-.05-.1,0h-3.4v-2.06h5.45l.98,1.32-3.7,5.91h3.12c.52,.06,.78,.29,.78,.66-.06,3.07-.78,5.95-2.14,8.64,0,.06,.03,.1,.1,.1,1.55,1.63,3.83,2.41,6.82,2.34h11l-.59,2.16h-9.64c-1.69-.12-3.21-.31-4.57-.56-1.3-.31-2.67-1.06-4.1-2.26-.71,1.25-1.59,2.39-2.63,3.38l-1.76-1.5c1.3-1.31,2.28-2.53,2.93-3.66-.78-1.06-1.49-2.72-2.14-4.98l1.95-.46c.38,1.32,.81,2.47,1.27,3.48,.84-1.81,1.27-3.51,1.27-5.08Zm2.33,6.58v-1.98h6.14v-1.32h-5.16v-1.97h5.16v-1.41h-4.38v-1.87h4.38v-1.51h-6.43v-1.87h6.43v-1.41h-4.38v-1.88h4.38v-1.6h2.15v1.6h5.06c.45,0,.68,.19,.68,.56v2.73h1.55v1.87h-1.55v2.73c-.06,.43-.3,.65-.68,.65h-5.06v1.41h6.03v1.97h-6.03v1.32h6.92v1.98h-6.92v2.54h-2.15v-2.54h-6.14Zm8.29-11.92h3.6v-1.32c-.06-.06-.13-.1-.19-.1h-3.4v1.41Zm0,3.38h3.4c.13-.06,.19-.13,.19-.19v-1.32h-3.6v1.51Z"/>
        <path d="M294.31,331.62v1.98h-9.35v-1.98h9.35Zm-6.72,17.84h-2.04v-8.16c.06-.38,.3-.56,.68-.56h6.82c.46,0,.68,.18,.68,.56v6.48c0,.43-.22,.66-.68,.66h-5.46v1.03Zm5.55-14.74v1.88h-7.11v-1.88h7.11Zm0,3v1.88h-7.11v-1.88h7.11Zm.1-9.2v1.98h-7.11v-1.98h7.11Zm-5.35,14.09c-.19,0-.3,.09-.3,.28v3.66h3.7c.27-.06,.39-.19,.39-.38v-3.28c0-.19-.1-.28-.29-.28h-3.51Zm10.52-12.12v.94c-.06,2.44-1.11,4.26-3.12,5.44l-1.36-1.5c.32-.18,.61-.38,.87-.56,1.11-.94,1.66-2.29,1.66-4.04v-1.98c0-.12,.03-.22,.1-.28,.13-.05,.22-.09,.29-.09h7.01c.14,0,.23,.03,.3,.09,.06,.13,.13,.23,.19,.28v4.98c0,.38,.03,.59,.1,.66,.13,.19,.39,.28,.79,.28h.19c.13-.06,.32-.12,.59-.18,.13-.06,.19-.28,.19-.66v-1.6l1.85,.19c-.06,1.44-.1,2.34-.1,2.72-.13,.31-.3,.59-.49,.84-.46,.38-.9,.56-1.36,.56h-1.76c-.65,0-1.11-.18-1.36-.56-.39-.44-.59-.87-.59-1.32v-4.13c0-.19-.1-.28-.29-.28h-3.51c-.13,.05-.19,.12-.19,.18Zm-2.93,19.53l-1.27-1.78c2.01-.69,3.64-1.4,4.87-2.16-1.3-1.25-2.53-2.91-3.7-4.98l1.76-.93c.97,1.93,2.14,3.5,3.5,4.69,2.01-1.57,3.24-3.28,3.7-5.16l-.1-.18c-.13-.06-.29-.1-.49-.1h-8.37v-1.98h10.13l1.17,.94c-.52,3.07-1.98,5.67-4.38,7.8,1.43,.87,3.31,1.5,5.65,1.88l-1.07,1.97c-2.6-.75-4.67-1.62-6.23-2.62-1.3,.81-3.02,1.7-5.16,2.62Z"/>
        <path d="M321.62,338.2v1.68h-11.79v-1.68h11.79Z"/>
        <path d="M324,336.88c-.13-.63-.32-1.32-.59-2.06l2.44-.18c1.69-2.13,3.32-4.45,4.87-6.96l1.76,1.12c-.91,1.51-2.18,3.38-3.8,5.64l12.67-.84c-.27-.38-1.31-1.41-3.13-3.1l1.66-1.41c2.92,2.82,5.17,5.21,6.72,7.14l-1.77,1.22c-.51-.68-1.1-1.34-1.74-1.97l-19.1,1.4Zm4.19,12.86h-2.23v-10.04c.06-.5,.32-.76,.78-.76h16.55c.52-.05,.79,.19,.79,.76v10.04h-2.24v-1.03h-13.64v1.03Zm13.64-3.1v-5.35c0-.19-.1-.28-.29-.28h-13.05c-.2,0-.3,.09-.3,.28v5.35h13.64Z"/>
        <path d="M356.09,334.63h-6.63v-2.16h6.63v-4.7h2.23v21.97h-2.23v-5.91c-1.76,1.12-3.7,2.25-5.85,3.38l-1.27-1.79c2.53-1.24,4.9-2.62,7.12-4.13v-6.66Zm7.39,.56c2.8-1.88,4.9-3.51,6.33-4.88l1.47,1.68c-2.02,1.88-4.62,3.79-7.8,5.72v8.36c.06,.51,.14,.85,.2,1.04,.19,.25,.59,.38,1.17,.38h3.11c.79,0,1.27-.19,1.47-.56,.26-.44,.38-1.79,.38-4.04l2.24,.37c0,3.07-.22,4.89-.68,5.45-.46,.5-.81,.78-1.07,.84-.38,.06-.9,.1-1.55,.1h-4.78c-.65,0-1.17-.13-1.55-.38-.79-.56-1.17-1.5-1.17-2.82v-18.88h2.23v7.61Z"/>
        <path d="M376.49,338.76l-2.04-.84c2.21-3.07,3.61-6.42,4.19-10.05l2.04,.38c-.39,1.94-.81,3.61-1.27,4.98v16.72h-2.14v-12.3c-.33,.38-.59,.75-.79,1.12Zm20.95-7.32v2.06h-16.76v-2.06h16.76Zm-13.45,18.31h-2.14v-7.6c0-.25,.1-.38,.29-.38h13.83c.33,.06,.49,.23,.49,.48v7.51h-2.14v-1.12h-10.33v1.12Zm11.69-15.02v1.98h-13.34v-1.98h13.34Zm0,3.48v1.98h-13.34v-1.98h13.34Zm-.1-9.96v1.98h-13.05v-1.98h13.05Zm-1.27,18.4v-2.62c0-.18-.1-.28-.3-.28h-9.73c-.27,0-.36,.1-.3,.28v2.62h10.33Z"/>
        <path d="M413.93,343.18h-6.14v1.4c1.5-.18,2.64-.38,3.42-.56l.39,1.78c-.79,.25-2.05,.48-3.81,.66v1.41c-.06,.81-.41,1.44-1.06,1.87-.71,.51-2.18,.48-4.38-.09v-1.88c1.76,.38,2.85,.43,3.31,.18,.13-.12,.19-.31,.19-.56v-.66c-2.01,.19-3.63,.31-4.86,.38l-.3-1.88c1.5-.06,3.21-.18,5.16-.38v-1.68h-5.06v-1.88h5.06v-1.04c-1.62,.13-2.95,.19-3.99,.19l-.29-1.79c3.83-.12,6.84-.4,9.05-.84l.29,1.78c-.71,.13-1.74,.28-3.12,.48v1.22h5.46c-.32-1.07-.62-2.26-.87-3.57h-11.88v-1.87h10.22v-1.13h-8.09v-1.68h8.09v-1.22h-9.45v-1.88h5.65c-.39-.44-.71-.79-.97-1.04l1.46-1.22c.59,.51,1.2,1.16,1.85,1.98l-.39,.28h5.46c.84-.87,1.49-1.63,1.95-2.26l1.55,1.22c-.26,.31-.51,.66-.78,1.04h5.06v1.88h-9.25v1.22h7.98v1.68h-7.98v1.13h10.13v1.87h-8.48c.19,1.38,.49,2.57,.88,3.57h7.2v1.88h-6.52c.32,.81,.78,1.53,1.36,2.16,.71-.51,1.59-1.13,2.63-1.88l1.17,1.5c-.91,.76-1.76,1.35-2.53,1.78,.32,.25,.62,.48,.87,.66,.52,.31,.91,.44,1.17,.38s.39-.19,.39-.38c.19-.44,.29-1.07,.29-1.88l1.85,.66c-.38,2.19-.9,3.48-1.55,3.84-.79,.13-1.6-.02-2.44-.46-.98-.56-1.79-1.16-2.44-1.78-2.07,.94-4.48,1.6-7.21,1.97l-.57-1.87c2.01-.13,4.18-.66,6.52-1.6-.71-.94-1.27-1.98-1.66-3.1Zm3.7-5.26c1.49,.69,2.63,1.22,3.42,1.6l-.98,1.59c-.46-.25-1.55-.75-3.31-1.5l.87-1.68Z"/>
        <path d="M441.63,327.12l-7.11,23.57h-1.76l7.11-23.57h1.76Z"/>
        <path d="M453.75,349.84h-2.04v-9.76c-.2,1-.49,1.81-.88,2.44l-1.95-.28c1.23-2.57,1.98-5.16,2.24-7.8h-1.95v-2.06h2.53v-4.7h2.04v4.7h2.14v2.06h-2.04c.9,1.25,1.69,2.57,2.34,3.94l-1.76,.94c-.19-.5-.43-.97-.68-1.4v11.92Zm2.23-2.72v-1.88h7.12v-1.68h-6.63v-1.88h2.34v-2.64h-2.34v-1.88h2.34v-2.62h-1.85v-1.88h14.61v1.88h-2.04v2.62h2.44v1.88h-2.44v2.64h2.24v1.88h-6.63v1.68h6.92v1.88h-6.92v2.72h-2.04v-2.72h-7.12Zm5.85-16.44v1.32h-2.15v-1.32h-3.6v-1.97h3.6v-1.04h2.15v1.04h4.29v-1.04h2.14v1.04h3.61v1.97h-3.61v1.32h-2.14v-1.32h-4.29Zm1.27,3.86h-2.24v2.62h2.24v-2.62Zm0,4.5h-2.24v2.64h2.24v-2.64Zm2.04-1.88h2.34v-2.62h-2.34v2.62Zm0,4.51h2.34v-2.64h-2.34v2.64Z"/>
        <path d="M478.53,339.04v2.35c0,.68-.11,1.62-.3,2.81-.19,1-.43,1.98-.68,2.92-.46,1.12-.81,1.98-1.07,2.54l-2.04-.56c1.43-2.45,2.14-5.01,2.14-7.7v-2.35h-1.84v-1.97h2.92v-9.3h2.04v9.3h3.42v1.97h-1.66v7.24c0,.25,.03,.4,.1,.46,.06,0,.59-.28,1.56-.84l.87,1.68c-1.76,1.07-3.02,1.57-3.8,1.51-.13,0-.29-.1-.49-.29-.13-.25-.19-.56-.19-.93v-8.83h-.97Zm-2.15-9.39c.52,2.62,.78,4.78,.78,6.48h-1.85c-.13-2.26-.38-4.35-.78-6.3l1.85-.18Zm6.43,.09c-.06,2.13-.29,4.23-.68,6.3l-1.85-.38c.39-1.63,.62-3.69,.68-6.2l1.85,.28Zm1.07,17.19v-1.88h5.55v-1.32h-4.78c-.19,0-.29-.1-.29-.28v-8.36c0-.18,.1-.28,.29-.28h4.78v-1.5h-3.61v-1.88h3.61v-1.22h-3.99c-.14-.06-.2,0-.2,.18v2.72h-1.95v-4.41c0-.25,.13-.38,.39-.38h12.27l1.76,.84c0,1.13-.29,2.47-.87,4.04l-1.85-.56c.32-1.25,.49-1.98,.49-2.16s-.11-.28-.3-.28h-3.7v1.22h3.42v1.88h-3.42v1.5h4.97c.19,0,.3,.1,.3,.28v8.36c0,.18-.11,.28-.3,.28h-4.97v1.32h5.95v1.88h-5.95v2.91h-2.04v-2.91h-5.55Zm5.55-10.24h-3.02v1.6h3.02v-1.6Zm0,3.48h-3.02v1.59c0,.06,.03,.1,.1,.1h2.93v-1.68Zm2.04-1.88h3.21v-1.6h-3.21v1.6Zm0,3.56h3.12l.1-.1v-1.59h-3.21v1.68Z"/>
        <path d="M505.26,337.82c0-.12-.03-.18-.1-.18h-3.5l-.79-1.22,3.51-6.02c0-.05-.03-.05-.1,0h-3.42v-2.06h5.46l.98,1.32-3.7,5.91h3.12c.52,.06,.78,.29,.78,.66-.06,3.07-.78,5.95-2.14,8.64,0,.06,.03,.1,.1,.1,1.55,1.63,3.83,2.41,6.82,2.34h11l-.59,2.16h-9.64c-1.69-.12-3.21-.31-4.57-.56-1.31-.31-2.67-1.06-4.1-2.26-.71,1.25-1.6,2.39-2.63,3.38l-1.76-1.5c1.3-1.31,2.28-2.53,2.93-3.66-.79-1.06-1.5-2.72-2.15-4.98l1.95-.46c.39,1.32,.82,2.47,1.27,3.48,.85-1.81,1.27-3.51,1.27-5.08Zm2.34,6.58v-1.98h6.14v-1.32h-5.16v-1.97h5.16v-1.41h-4.38v-1.87h4.38v-1.51h-6.43v-1.87h6.43v-1.41h-4.38v-1.88h4.38v-1.6h2.14v1.6h5.06c.46,0,.69,.19,.69,.56v2.73h1.55v1.87h-1.55v2.73c-.07,.43-.3,.65-.69,.65h-5.06v1.41h6.04v1.97h-6.04v1.32h6.92v1.98h-6.92v2.54h-2.14v-2.54h-6.14Zm8.28-11.92h3.61v-1.32c-.06-.06-.13-.1-.19-.1h-3.42v1.41Zm0,3.38h3.42c.13-.06,.19-.13,.19-.19v-1.32h-3.61v1.51Z"/>
        <path d="M535.2,331.62v1.98h-9.34v-1.98h9.34Zm-6.71,17.84h-2.05v-8.16c.06-.38,.3-.56,.69-.56h6.81c.46,0,.69,.18,.69,.56v6.48c0,.43-.23,.66-.69,.66h-5.45v1.03Zm5.55-14.74v1.88h-7.12v-1.88h7.12Zm0,3v1.88h-7.12v-1.88h7.12Zm.1-9.2v1.98h-7.12v-1.98h7.12Zm-5.36,14.09c-.19,0-.29,.09-.29,.28v3.66h3.7c.26-.06,.38-.19,.38-.38v-3.28c0-.19-.1-.28-.29-.28h-3.51Zm10.52-12.12v.94c-.06,2.44-1.11,4.26-3.12,5.44l-1.36-1.5c.32-.18,.62-.38,.87-.56,1.11-.94,1.66-2.29,1.66-4.04v-1.98c0-.12,.03-.22,.1-.28,.13-.05,.22-.09,.29-.09h7.02c.13,0,.22,.03,.29,.09,.06,.13,.13,.23,.19,.28v4.98c0,.38,.03,.59,.11,.66,.13,.19,.38,.28,.78,.28h.19c.13-.06,.33-.12,.59-.18,.13-.06,.19-.28,.19-.66v-1.6l1.85,.19c-.06,1.44-.1,2.34-.1,2.72-.13,.31-.29,.59-.49,.84-.45,.38-.9,.56-1.36,.56h-1.76c-.65,0-1.1-.18-1.36-.56-.38-.44-.59-.87-.59-1.32v-4.13c0-.19-.1-.28-.29-.28h-3.51c-.13,.05-.19,.12-.19,.18Zm-2.93,19.53l-1.27-1.78c2.01-.69,3.64-1.4,4.87-2.16-1.3-1.25-2.53-2.91-3.7-4.98l1.76-.93c.97,1.93,2.14,3.5,3.51,4.69,2.01-1.57,3.24-3.28,3.69-5.16l-.1-.18c-.13-.06-.29-.1-.49-.1h-8.37v-1.98h10.13l1.17,.94c-.52,3.07-1.98,5.67-4.38,7.8,1.43,.87,3.31,1.5,5.65,1.88l-1.07,1.97c-2.6-.75-4.67-1.62-6.22-2.62-1.31,.81-3.02,1.7-5.17,2.62Z"/>
        <path d="M562.52,338.2v1.68h-11.79v-1.68h11.79Z"/>
        <path d="M569.08,349.94h-1.95v-10.42c-.39,.94-.71,1.78-.98,2.53l-1.95-.37c1.3-2.39,2.14-4.98,2.53-7.8h-2.23v-1.88h2.63v-4.22h1.95v4.22h2.04v1.88h-2.04v.66c.9,1.32,1.76,2.62,2.53,3.94l-1.56,.94c-.38-.56-.71-1.12-.97-1.7v12.21Zm17.92-1.98v1.7h-13.53c-.46-.06-.68-.28-.68-.66v-7.04c-.33,.38-.68,.69-1.07,.94-.39-.56-.81-1.04-1.27-1.41,1.49-1.25,2.63-2.84,3.4-4.78l1.85,.84c-.19,.44-.41,.84-.68,1.22h3.89c.52-.81,.91-1.5,1.17-2.06l1.66,.84c-.13,.38-.33,.79-.59,1.22h5.74l-.19,1.7h-5.65v1.31h5.46v1.7h-5.46v1.4h5.35v1.7h-5.35v1.4h5.94Zm-9.54-17.46v.75h-1.95v-.75h-3.7v-1.7h3.7v-1.12h1.95v1.12h4.29v-1.12h1.95v1.12h3.51v1.7h-3.51v.84h-1.95v-.84h-4.29Zm1.17,6h-6.33c-.13,0-.19-.09-.19-.28v-4.5c.06-.13,.13-.18,.19-.18h6.33c.19,.05,.29,.12,.29,.18v4.5c0,.19-.1,.28-.29,.28Zm-4.57-3.28q-.06,0,0,0v1.6h2.82l.1-.1v-1.5h-2.92Zm5.06,7.24h-4.19c-.13,.05-.19,.12-.19,.18v1.12h4.38v-1.31Zm0,3h-4.38v1.4h4.38v-1.4Zm0,3.1h-4.38v1.12c.06,.19,.13,.28,.19,.28h4.19v-1.4Zm7.5-10.05h-6.43c-.14,0-.2-.09-.2-.28v-4.41c.06-.13,.13-.19,.2-.19h6.43c.19,.06,.29,.13,.29,.19v4.41c0,.19-.1,.28-.29,.28Zm-4.68-3.19q-.06,0,0,0v1.5h2.93l.1-.1v-1.4h-3.02Z"/>
        <path d="M589.87,335.56v-2.16h2.83v-5.54h2.23v5.54h4.87v-5.25h2.24v5.25h5.74v-5.25h2.23v5.25h3.02v2.16h-3.02v7.52c-.06,.69-.41,1.04-1.06,1.04h-8.09c-.71-.06-1.07-.41-1.07-1.04v-7.52h-4.87v11.08c0,.38,.2,.57,.59,.57h16.85v2.16h-18.61c-.71-.06-1.06-.41-1.06-1.04v-12.78h-2.83Zm17.93,0h-5.74v6.11c0,.18,.13,.28,.38,.28h5.06c.2,0,.3-.1,.3-.28v-6.11Z"/>
        <path d="M628.68,338.29h-2.92c-.72,.75-1.3,1.4-1.76,1.97v1.88c0,.63-.1,1.32-.3,2.06-.06,.13-.1,.23-.1,.28-.84,2.45-2.47,4.27-4.86,5.45l-1.47-1.7c.78-.31,1.47-.69,2.04-1.12,1.63-1.19,2.47-2.85,2.53-4.98v-.18l-.1,.09c-1.88,1.25-3.64,2.19-5.26,2.82l-1.17-1.88c.46-.12,.87-.28,1.27-.46,2.28-.94,4.42-2.34,6.43-4.22h-5.84c-.19,0-.29-.1-.29-.28v-9.21c0-.18,.1-.28,.29-.28h19.67c.27,0,.39,.1,.39,.28v9.21c0,.18-.13,.28-.39,.28h-5.54c2.14,2.06,4.61,3.66,7.39,4.78l-1.55,1.7c-2.09-1.07-3.61-2.01-4.57-2.82v7.98h-2.15v-9.86c-.59-.63-1.17-1.22-1.76-1.78Zm-2.63-7.8h-7.01c-.06,0-.06,.03,0,.1v1.88h7.01v-1.98Zm0,3.94h-7.01v1.88h7.01v-1.88Zm2.15-1.97h6.92v-1.88c0-.06-.04-.1-.11-.1h-6.81v1.98Zm0,3.84h6.81c.06,0,.11-.03,.11-.1v-1.78h-6.92v1.88Z"/>
      </g>
      <g>
        <path class="cls-1" d="M218.07,23.96c0,1.02-.38,1.54-1.13,1.54s-1.17-.52-1.17-1.54v-4.26s-.07,.05-.15,.08l-2,.88c-.49,.23-.9,.39-1.24,.5-.37,.15-.63,.22-.76,.22-.63,0-.94-.41-.94-1.24,0-.42,.14-.73,.39-.91,.11-.07,.23-.14,.37-.16l.38-.08V2.35h-.3c-.12-.03-.22-.05-.3-.08-.19-.1-.3-.27-.3-.53s.1-.44,.27-.52c.07-.04,.15-.07,.23-.08,.05-.03,.12-.03,.19-.03h7.24c.07,0,.14,0,.2,.03,.08,0,.15,.01,.22,.05,.18,.11,.27,.29,.27,.52,0,.26-.1,.44-.27,.53-.07,.03-.14,.05-.22,.08-.07,.01-.14,.03-.2,.03h-.79V23.96Zm-2.3-21.6h-1.82V6.71h1.82V2.35Zm0,5.62h-1.82v4.42h1.82V7.97Zm0,5.69h-1.82v4.94s.16-.01,.34-.05c.14-.03,.31-.07,.54-.11l.94-.19v-4.58Zm4.94-6.29c-.57-.99-1.16-1.81-1.75-2.46-.19-.19-.29-.39-.29-.57,0-.39,.18-.58,.54-.58,.1,0,.23,.05,.41,.14l.57,.31c.16-.34,.35-.79,.57-1.39l.64-1.8c.2-.53,.49-.79,.88-.79,.83,0,1.24,.39,1.24,1.18,0,.31-.15,.67-.44,1.07l-.78,.99c-.42,.53-.8,.98-1.13,1.35,.41,.3,.73,.56,.97,.78,.08,.08,.14,.15,.19,.22l.12,.14c.15-.24,.48-.84,.97-1.75,.34-.68,.73-1.02,1.16-1.02,.83,0,1.24,.41,1.24,1.24,0,.31-.11,.61-.34,.91-.76,.95-1.43,1.77-2,2.45-.73,.87-1.43,1.65-2.11,2.35l2.48-.2-.39-1.27c0-.41,.19-.6,.57-.6,.12,0,.31,.12,.56,.38,.2,.22,.44,.53,.72,.91,.53,.75,.86,1.31,1.01,1.66,.11-.41,.44-.63,.99-.67,.63-.87,1.2-1.69,1.7-2.46-.24-.08-.45-.29-.61-.57l-.12-.22c-.07-.1-.12-.18-.15-.26-.12-.2-.23-.38-.35-.54-.29-.41-.63-.8-.98-1.18-.22-.24-.33-.46-.33-.64,0-.41,.19-.61,.54-.61,.08,0,.2,.04,.37,.11,.12,.07,.23,.12,.33,.2,.39-.79,.84-1.85,1.33-3.16,.03-.11,.08-.19,.12-.27,.05-.11,.11-.19,.18-.24,.16-.19,.38-.27,.67-.27,.79,0,1.18,.38,1.18,1.16,0,.18-.04,.35-.12,.52-.03,.08-.08,.15-.12,.23-.01,.03-.05,.08-.1,.14l-.2,.27c-.1,.15-.22,.31-.37,.49-.39,.5-.9,1.12-1.48,1.82,.46,.34,.78,.6,.97,.78l.22,.24s.08,.11,.12,.2l1.14-2.14c.12-.27,.24-.45,.37-.54,.18-.19,.42-.27,.73-.27,.78,0,1.17,.39,1.17,1.18,0,.33-.15,.68-.45,1.05-.52,.68-1.2,1.52-2.05,2.53l-2,2.35c1.31-.1,2.18-.16,2.63-.22l-.38-1.14c-.03-.12-.04-.22-.04-.27,0-.42,.19-.64,.57-.64,.12,0,.24,.05,.34,.15,.14,.11,.34,.37,.61,.76l.27,.39c.19,.23,.34,.48,.48,.72,.19,.31,.35,.58,.46,.82,.14,.29,.2,.5,.2,.67,0,.78-.39,1.16-1.18,1.16-.48,0-.82-.45-1.02-1.35l-4.03,.78c-.48,.07-.76,.11-.86,.11-.31,0-.56-.18-.72-.53-.1,.41-.31,.69-.64,.86-.1,.04-.2,.07-.33,.08-.04,.03-.1,.03-.15,.03-.34,0-.6-.14-.76-.41-.07-.11-.12-.24-.19-.42l-.12-.52-4.27,.72c-.38,.05-.63,.08-.75,.08-.5,0-.76-.33-.76-.97,0-.56,.42-.86,1.28-.88,.2-.26,.49-.67,.87-1.21,.33-.46,.57-.83,.73-1.09-.18-.08-.35-.27-.54-.54Zm4.78,10.31c0,.93-.11,1.75-.3,2.52-.15,.67-.37,1.25-.67,1.8-.23,.39-.49,.78-.79,1.13-.11,.12-.22,.26-.35,.38l-.27,.24c-.5,.46-1.12,.88-1.82,1.25-.61,.33-1.01,.49-1.18,.49-.37,0-.54-.2-.54-.6,0-.26,.18-.5,.54-.72,.93-.58,1.61-1.24,2.07-1.96,.38-.58,.65-1.32,.82-2.2h-1.25c-.83,0-1.4-.2-1.73-.58-.29-.31-.42-.83-.42-1.54v-3.35c0-.86,.33-1.29,.98-1.29s.99,.44,.99,1.29v3.06c0,.76,.33,1.13,.99,1.13h.58l.05-1.24v-2.56c0-.12,0-.22,.03-.31,.01-.26,.05-.48,.12-.65,.16-.46,.5-.69,1.01-.69s.83,.22,.99,.67c.07,.16,.11,.37,.12,.6,.01,.1,.03,.19,.03,.3v2.84Zm4.69,1.05c.65,0,.98-.37,.98-1.13v-2.58c0-.93,.35-1.39,1.03-1.39s1.05,.45,1.05,1.36v2.9c0,.69-.15,1.21-.42,1.54-.33,.38-.91,.58-1.73,.58h-1.73v3.86c0,.44-.08,.79-.23,1.07-.19,.37-.5,.54-.94,.54-.8,0-1.21-.54-1.21-1.62V14.68c0-1.06,.39-1.59,1.2-1.59s1.18,.53,1.18,1.59v4.05h.82Z"/>
        <path class="cls-1" d="M245.08,1.63c0-.1,.01-.18,.03-.27,.01-.22,.07-.42,.15-.61,.19-.48,.57-.72,1.13-.72s.94,.24,1.14,.72c.08,.16,.12,.37,.15,.61,.01,.07,.03,.15,.03,.24v1.9h3.7c.08,0,.15,.01,.22,.03,.08,.01,.16,.04,.23,.08,.16,.11,.24,.29,.24,.53,0,.23-.1,.41-.27,.52-.07,.04-.15,.07-.23,.08-.05,.03-.12,.03-.19,.03h-3.7v4.61h3.03c.07,0,.12,.01,.19,.03,.08,.01,.16,.04,.23,.08,.18,.1,.27,.27,.27,.53s-.1,.42-.27,.52c-.07,.04-.15,.07-.23,.08-.07,.03-.12,.03-.19,.03h-3.03v2.54c0,.84-.05,1.59-.14,2.23h3.81c.08,0,.16,.01,.22,.03,.08,.01,.16,.04,.23,.08,.16,.11,.24,.29,.24,.53,0,.23-.1,.41-.27,.52-.07,.04-.14,.07-.22,.08-.07,.03-.14,.03-.2,.03h-4.03c-.31,1.39-.82,2.68-1.52,3.89-.6,.99-1.31,1.9-2.14,2.71-.63,.63-1.27,1.16-1.92,1.61-.53,.34-.86,.52-.99,.52-.38,0-.57-.2-.57-.63,0-.23,.14-.44,.38-.64,1.22-1.05,2.23-2.31,2.98-3.78,.3-.61,.56-1.25,.78-1.93,.18-.57,.33-1.14,.44-1.74h-3.97c-.08,0-.16,0-.22-.03-.08-.01-.16-.04-.23-.08-.16-.11-.24-.29-.24-.52,0-.26,.1-.44,.27-.53,.07-.04,.14-.07,.22-.08,.07-.01,.14-.03,.2-.03h4.18c.07-.64,.1-1.35,.1-2.12v-2.65h-3.66c-.08,0-.15,0-.22-.03-.08-.01-.15-.04-.22-.08-.16-.11-.24-.29-.24-.52,0-.26,.08-.44,.27-.53,.05-.04,.14-.07,.22-.08,.07-.01,.14-.03,.19-.03h3.66V4.78h-4.07c-.1,0-.16,0-.23-.03-.08-.01-.15-.04-.22-.08-.16-.11-.24-.29-.24-.52,0-.26,.08-.44,.24-.53,.07-.04,.14-.07,.22-.08,.07-.01,.14-.03,.23-.03h4.07V1.63Zm10.67,22.41c0,.1,0,.18-.01,.24-.04,.22-.1,.41-.15,.58-.2,.48-.57,.71-1.12,.71s-.93-.22-1.14-.65c-.08-.18-.14-.37-.16-.58,0-.1-.01-.18-.03-.27V3.37c0-1.46,.75-2.18,2.24-2.18h5.44c1.12,0,1.67,.45,1.67,1.35,0,.26-.14,.72-.42,1.4l-2.73,6.6c-.03,.05-.04,.1-.05,.11-.03,.1-.05,.16-.05,.22s.11,.22,.3,.48c.46,.57,.84,1.09,1.16,1.54,.45,.61,.82,1.22,1.12,1.82,.37,.71,.64,1.41,.82,2.12,.22,.82,.33,1.62,.33,2.44s-.12,1.54-.38,2.1c-.2,.48-.5,.84-.88,1.07-.31,.2-.68,.34-1.12,.42l-.52,.05h-2.76c-.08,0-.16-.01-.22-.03-.1,0-.16-.03-.23-.1-.16-.08-.24-.24-.24-.49,0-.26,.1-.44,.27-.53,.07-.03,.14-.05,.22-.08,.07-.01,.14-.03,.2-.03h1.55c.44,0,.75-.14,.97-.44,.3-.41,.45-1.13,.45-2.18,0-.79-.08-1.58-.24-2.35-.15-.64-.37-1.28-.65-1.9-.2-.49-.46-.99-.76-1.51l-.73-1.13c-.45-.65-.67-1.07-.67-1.31,0-.11,.03-.26,.1-.46l2.22-7.01c.08-.19,.12-.34,.12-.48,0-.29-.18-.44-.54-.44h-2.29c-.69,0-1.05,.38-1.05,1.16V24.04Z"/>
        <path class="cls-1" d="M282.08,22.79h9.29c.08,0,.15,.01,.22,.04,.08,.01,.16,.04,.23,.08,.16,.11,.24,.29,.24,.52,0,.24-.1,.42-.27,.53-.07,.03-.14,.05-.22,.08-.07,.01-.14,.03-.2,.03h-21.39c-.19,0-.33-.04-.45-.11-.16-.11-.24-.29-.24-.53,0-.26,.08-.44,.24-.52,.07-.04,.14-.07,.22-.08,.07-.03,.15-.04,.23-.04h9.28V3.46h-7.65c-.08,0-.16-.01-.23-.03-.08-.01-.15-.04-.22-.08-.16-.11-.24-.29-.24-.53,0-.23,.08-.41,.27-.52,.07-.04,.14-.07,.22-.08,.07-.03,.14-.03,.2-.03h18.2c.08,0,.15,0,.22,.03,.08,.01,.15,.04,.22,.08,.16,.11,.24,.29,.24,.52,0,.26-.08,.44-.24,.53-.07,.04-.14,.07-.22,.08-.07,.01-.14,.03-.22,.03h-7.74V22.79Z"/>
        <path class="cls-1" d="M304.75,23.93c0,1.07-.44,1.62-1.28,1.62s-1.29-.54-1.29-1.62V14.54c-.61,1.4-1.28,2.61-2.03,3.65-.69,.95-1.17,1.43-1.46,1.43-.38,0-.57-.2-.57-.63,0-.15,.1-.37,.27-.67,.38-.58,.69-1.1,.94-1.55,.38-.68,.73-1.36,1.05-2.04,.35-.86,.67-1.75,.94-2.69,.29-1.09,.53-2.24,.71-3.46h-2.84c-.05,0-.12-.01-.19-.03-.08-.01-.16-.04-.22-.08-.19-.1-.27-.27-.27-.53,0-.24,.08-.42,.27-.52,.05-.04,.14-.07,.22-.08,.07-.01,.14-.03,.19-.03h2.99V3.01l-1.8,.12-1.21,.03c-.11-.03-.19-.05-.26-.08-.08-.04-.14-.11-.19-.2-.07-.08-.1-.2-.1-.35,0-.26,.1-.44,.29-.56l.23-.11,1.25-.16,1.2-.22c.91-.16,1.77-.38,2.56-.67l1.14-.44c.11-.05,.22-.1,.31-.11,.12-.05,.22-.1,.27-.11,.2-.08,.33-.12,.38-.12,.75,0,1.13,.46,1.13,1.39,0,.73-.88,1.2-2.64,1.37V7.32h1.93c.05,0,.12,.01,.19,.03,.08,.01,.16,.04,.22,.08,.19,.11,.27,.29,.27,.52,0,.26-.08,.44-.27,.53-.05,.04-.14,.07-.22,.08-.07,.01-.14,.03-.19,.03h-1.93c.41,2.38,1.35,4.73,2.82,7.09,.14,.2,.19,.38,.19,.53,0,.42-.19,.63-.56,.63-.26,0-.65-.41-1.21-1.24-.44-.6-.84-1.28-1.24-2.01v10.35Zm10.76-6.79h3.99c.08,0,.15,0,.22,.03,.08,.01,.16,.04,.22,.08,.18,.11,.26,.29,.26,.52,0,.24-.08,.42-.26,.53-.05,.04-.14,.07-.22,.08-.07,.01-.14,.03-.22,.03h-3.99v4.94h5.02c.08,0,.15,.01,.22,.03,.08,.01,.16,.04,.23,.08,.16,.11,.24,.29,.24,.53,0,.26-.1,.42-.27,.52-.07,.04-.14,.07-.22,.08-.07,.03-.14,.03-.2,.03h-13.39c-.08,0-.15,0-.22-.03-.08-.01-.16-.04-.23-.08-.16-.11-.24-.29-.24-.52,0-.26,.1-.44,.27-.53,.07-.04,.14-.07,.22-.08,.07-.01,.14-.03,.2-.03h5.73v-4.94h-3.82c-.08,0-.16-.01-.23-.03-.08-.01-.15-.04-.22-.08-.16-.11-.24-.29-.24-.53,0-.26,.1-.42,.27-.52,.07-.04,.14-.07,.22-.08,.07-.03,.14-.03,.2-.03h3.82v-4.45h-4.39c-.08,0-.15,0-.22-.03-.08-.01-.16-.04-.23-.08-.16-.11-.24-.29-.24-.52,0-.26,.1-.44,.27-.53,.07-.04,.14-.07,.23-.08,.05-.01,.12-.03,.19-.03h11.51c.07,0,.14,.01,.2,.03,.08,.01,.15,.04,.22,.08,.16,.11,.24,.29,.24,.53,0,.23-.08,.41-.24,.52-.07,.04-.14,.07-.22,.08-.07,.03-.14,.03-.2,.03h-4.48v4.45Zm4.63-9.99c0,1.44-.75,2.18-2.24,2.18h-7.2c-.87,0-1.47-.2-1.82-.61-.27-.33-.42-.86-.42-1.56V3.24c0-1.46,.75-2.19,2.24-2.19h7.2c1.5,0,2.24,.73,2.24,2.19v3.92Zm-2.57-3.7c0-.76-.34-1.13-1.03-1.13h-4.52c-.69,0-1.05,.37-1.05,1.13v3.44c0,.78,.35,1.17,1.05,1.17h4.52c.69,0,1.03-.39,1.03-1.17V3.46Z"/>
        <path class="cls-1" d="M356.06,24.01c0,.08-.01,.18-.03,.27-.01,.22-.05,.41-.12,.58-.18,.45-.53,.68-1.03,.68s-.86-.23-1.03-.68c-.07-.18-.11-.37-.12-.58-.03-.1-.03-.19-.03-.27V3.13c0-1.46,.75-2.19,2.24-2.19h3.78c1.06,0,1.61,.49,1.61,1.44,0,.22-.05,.48-.18,.78l-2.69,6.75c-.03,.08-.04,.15-.04,.23,0,.05,.05,.18,.19,.38l.91,1.47c.31,.54,.57,1.07,.78,1.56,.5,1.25,.76,2.53,.76,3.84,0,.63-.07,1.2-.2,1.71-.19,.75-.52,1.33-.98,1.77-.35,.31-.87,.46-1.56,.46h-1.31c-.08,0-.15-.01-.22-.03-.08-.01-.16-.04-.23-.08-.16-.11-.24-.29-.24-.53,0-.42,.37-.63,1.09-.63,.86,0,1.29-.97,1.29-2.9,0-1.16-.16-2.2-.48-3.12-.14-.41-.33-.9-.6-1.47l-.83-1.69s-.03-.03-.03-.05c-.16-.29-.24-.53-.24-.73,0-.08,.01-.18,.04-.29,0-.03,.01-.07,.03-.11l2.03-6.84c.04-.11,.05-.19,.05-.24l-.05-.24c-.08-.14-.22-.19-.39-.19h-1.12c-.68,0-1.03,.38-1.03,1.16V24.01Zm14.57-7.67c.45,1.31,1.2,2.64,2.24,4,.93,1.24,1.86,2.19,2.8,2.87l.12,.08,.1,.14c.08,.1,.12,.22,.12,.39,0,.42-.18,.63-.54,.63-.34,0-1.14-.52-2.39-1.56-.68-.56-1.29-1.14-1.85-1.77-.69-.76-1.27-1.51-1.73-2.26v5.16c0,.08-.01,.18-.03,.27-.01,.22-.05,.41-.12,.58-.2,.45-.57,.68-1.12,.68s-.91-.23-1.12-.71c-.05-.18-.1-.37-.12-.58-.01-.07-.01-.16-.01-.24v-4.88c-.63,.88-1.36,1.73-2.2,2.53-.71,.67-1.46,1.28-2.24,1.85-.63,.45-1.22,.82-1.81,1.13-.46,.26-.75,.39-.86,.39-.37,0-.54-.22-.54-.64,0-.23,.15-.46,.44-.67,1.51-1.06,2.83-2.31,3.99-3.74,1.02-1.28,1.75-2.49,2.22-3.65h-1.9c-1.63,0-2.44-.83-2.44-2.49v-4.82c0-1.65,.8-2.46,2.44-2.46h2.92v-2.5h-5.07c-.05,0-.12-.01-.19-.03-.08-.03-.16-.05-.23-.1-.18-.08-.26-.26-.26-.52,0-.24,.08-.42,.24-.53,.07-.03,.14-.05,.22-.08,.07-.01,.14-.03,.22-.03h5.07V1.63c0-.1,0-.18,.01-.27,.03-.22,.07-.42,.12-.61,.2-.46,.57-.69,1.12-.69s.91,.23,1.12,.69c.07,.16,.11,.37,.12,.61,.01,.07,.03,.16,.03,.27v1.16h5.55c.08,0,.16,.01,.23,.03,.08,.03,.15,.05,.22,.08,.16,.11,.24,.29,.24,.53,0,.23-.08,.41-.24,.52-.07,.04-.14,.07-.22,.1-.07,.01-.15,.03-.23,.03h-5.55v2.5h2.91c1.63,0,2.45,.82,2.45,2.46v4.82c0,1.66-.82,2.49-2.45,2.49h-1.78Zm-3.65-8.53h-1.84c-.71,0-1.06,.41-1.06,1.22v1.75h2.9v-2.98Zm0,4.26h-2.9v1.81c0,.8,.35,1.2,1.06,1.2h1.84v-3.01Zm2.52-1.28h2.97v-1.75c0-.82-.35-1.22-1.07-1.22h-1.89v2.98Zm0,4.29h1.89c.72,0,1.07-.39,1.07-1.2v-1.81h-2.97v3.01Z"/>
        <path class="cls-1" d="M397.34,9.66c-.53-.34-1.02-.65-1.46-.91-.52-.31-1.09-.63-1.67-.94-.84,.29-1.7,.53-2.6,.75-.75,.19-1.5,.35-2.24,.5-.61,.11-1.17,.19-1.67,.27-.44,.05-.72,.08-.87,.08-.41,0-.61-.22-.61-.64,0-.22,.07-.38,.22-.49,.05-.05,.12-.1,.2-.11l1.25-.29c.41-.08,.82-.19,1.21-.3,.95-.26,1.86-.56,2.75-.91-.97-.34-2.01-.75-3.17-1.21-.15-.05-.24-.16-.3-.3-.04-.1-.07-.2-.07-.31,0-.42,.18-.63,.54-.63l.42,.05,1.06,.24c.5,.11,1.05,.24,1.63,.41,.69,.2,1.4,.44,2.15,.67,.57-.31,.99-.56,1.25-.75,.41-.26,.87-.58,1.39-.99h-12.35c-.07,0-.14,0-.19-.03-.08-.01-.16-.04-.23-.08-.18-.1-.27-.26-.27-.52s.1-.44,.27-.53c.07-.04,.15-.07,.23-.08,.05-.01,.12-.03,.19-.03h7.71v-.72c0-.53,.08-.94,.24-1.24,.23-.38,.61-.58,1.13-.58,.56,0,.95,.26,1.17,.75,.08,.16,.14,.37,.16,.61,.03,.07,.03,.15,.03,.24v.94h8.05c.1,.01,.18,.04,.24,.08,.08,.05,.15,.12,.2,.19,.04,.1,.07,.22,.07,.37,0,.23-.1,.41-.27,.52-.07,.04-.14,.07-.22,.08-.07,.03-.14,.03-.2,.03h-4.09l.12,.14c.05,.08,.1,.15,.12,.23,.05,.08,.1,.19,.12,.3,.04,.12,.05,.26,.05,.38,0,.6-.64,1.2-1.93,1.8,1.55,.61,2.33,1.21,2.33,1.82,0,.46-.18,.84-.52,1.13h5.25c.08,0,.16,.01,.23,.03,.08,.03,.15,.05,.22,.08,.16,.11,.24,.29,.24,.53,0,.23-.08,.41-.24,.52-.07,.04-.14,.07-.22,.08-.07,.03-.14,.03-.2,.03h-17.18v2.54c0,3.66-.76,6.83-2.27,9.52-.34,.58-.69,1.12-1.06,1.59-.5,.63-.86,.94-1.09,.94-.37,0-.54-.2-.54-.63,0-.18,.05-.35,.16-.56l.65-1.24c.26-.58,.49-1.21,.68-1.85,.26-.83,.45-1.7,.57-2.63,.15-1.1,.23-2.27,.23-3.52v-4.18h-1.48c-.07,0-.14,0-.2-.03-.08-.01-.15-.04-.22-.08-.19-.08-.27-.26-.27-.52,0-.24,.08-.42,.27-.53,.07-.03,.14-.05,.22-.08,.07-.01,.14-.03,.2-.03h14.46Zm-10.12,14.71c.05-.04,.12-.07,.2-.08l.19-.03c1.55-.2,3.03-.52,4.48-.94,1.32-.38,2.57-.87,3.75-1.43,1.09-.5,2.08-1.06,3.01-1.69,.86-.58,1.62-1.2,2.3-1.82,.54-.49,.98-.75,1.31-.75,1.02,0,1.54,.57,1.54,1.69,0,.38-.14,.72-.39,.99-.3,.33-.93,.78-1.88,1.32-1.8,1.02-3.77,1.84-5.9,2.49-.95,.27-1.97,.52-3.03,.75-.97,.18-1.99,.34-3.06,.49-.5,.05-.99,.11-1.48,.14-.37,.04-.6,.05-.69,.05-.22,0-.37-.08-.48-.24-.08-.11-.12-.24-.12-.38,0-.26,.1-.45,.27-.56Zm1.02-4.58l.54-.19,1.62-.38c.87-.24,1.71-.52,2.5-.83,1.02-.41,1.97-.87,2.86-1.37,1.07-.63,2.04-1.33,2.9-2.1,.49-.45,.87-.67,1.16-.67,.94,0,1.41,.52,1.41,1.54v.23l-.05,.19c-.05,.16-.16,.33-.33,.49-.42,.42-1.32,.94-2.67,1.55-.48,.22-.94,.41-1.37,.57-.6,.24-1.2,.46-1.78,.67-.71,.24-1.43,.46-2.18,.67-.84,.2-1.7,.38-2.57,.54-.8,.18-1.37,.26-1.73,.26-.38,0-.57-.22-.57-.64,0-.22,.08-.39,.26-.53Zm.19-4.54l.2-.11,.19-.05c1.58-.42,2.92-.88,4.03-1.39,1.22-.54,2.39-1.25,3.51-2.12,.46-.37,.83-.54,1.12-.54,.9,0,1.35,.49,1.35,1.48v.22c-.01,.1-.04,.18-.07,.26-.07,.16-.2,.33-.42,.49-.53,.41-1.66,.88-3.39,1.44-.79,.24-1.85,.54-3.21,.87l-1.77,.42c-.56,.11-.95,.16-1.17,.16-.39,0-.58-.22-.58-.64,0-.22,.07-.38,.22-.49Z"/>
        <path class="cls-1" d="M433.44,23.67c.08,0,.15,.01,.22,.03,.08,.03,.15,.05,.22,.1,.16,.08,.24,.26,.24,.52s-.08,.44-.27,.53c-.05,.03-.14,.05-.22,.08-.07,.01-.14,.03-.19,.03h-10.16c-1.2,0-2.29-.1-3.25-.29-.83-.16-1.56-.39-2.23-.68-.52-.24-.99-.52-1.4-.83l-.82-.72c-.41,.5-.84,.95-1.31,1.39-.39,.37-.79,.68-1.18,.97-.31,.22-.6,.39-.87,.54-.23,.11-.38,.16-.46,.16-.35,0-.52-.2-.52-.63,0-.24,.16-.49,.52-.72,.48-.35,.91-.73,1.33-1.16,.52-.54,1.01-1.16,1.43-1.85-.41-.57-.79-1.22-1.14-1.96-.29-.63-.54-1.29-.76-1.99-.39-1.2-.58-2.1-.58-2.68,0-.52,.19-.88,.58-1.13,.14-.07,.29-.12,.48-.16,.11-.03,.23-.03,.34-.03,.76,0,1.2,.52,1.33,1.54,.1,.72,.2,1.31,.3,1.77,.15,.68,.37,1.39,.67,2.12,.24-.68,.46-1.43,.64-2.26,.15-.68,.27-1.39,.37-2.12,.07-.56,.12-1.1,.18-1.63l.03-.75c0-.27-.07-.45-.2-.54-.04-.04-.11-.07-.19-.08h-2.57c-.46,0-.82-.08-1.09-.22-.34-.19-.52-.52-.52-.97,0-.19,.12-.52,.37-.97l3.09-6.11c.05-.08,.08-.16,.1-.22,.03-.03,.03-.08,.03-.14,0-.15-.05-.24-.16-.3l-.15-.05h-3.56c-.08,0-.15-.01-.22-.03-.08-.03-.16-.05-.22-.08-.18-.1-.26-.27-.26-.53,0-.23,.08-.41,.26-.52,.05-.04,.14-.07,.22-.1,.07-.01,.14-.03,.22-.03h5.66c.07,0,.14,.01,.22,.03,.19,.03,.35,.07,.5,.12,.42,.18,.64,.5,.64,.99,0,.14-.04,.31-.1,.52l-.2,.45-3.12,6.09c-.07,.12-.11,.22-.12,.27-.01,.04-.03,.08-.03,.14,0,.16,.07,.27,.2,.33l.15,.07h1.73c1.21,0,1.82,.53,1.82,1.62l-.1,1.13c-.1,.73-.23,1.48-.39,2.24-.22,1.01-.48,1.96-.79,2.83-.38,1.09-.83,2.05-1.33,2.87,.3,.46,.58,.83,.88,1.1,.39,.39,.86,.72,1.36,.97,.6,.3,1.31,.52,2.15,.67,.93,.16,2.01,.24,3.27,.24h8.97Zm-5.14-13.65h5.09c.08,0,.15,0,.22,.03,.08,.01,.16,.04,.23,.08,.16,.11,.24,.29,.24,.52,0,.24-.1,.42-.27,.53-.07,.03-.14,.05-.22,.08-.07,.01-.14,.03-.2,.03h-5.09v8.38h4.57c.08,0,.15,.01,.22,.03,.08,.03,.16,.05,.23,.08,.16,.12,.24,.29,.24,.53,0,.26-.08,.44-.24,.53-.07,.03-.15,.05-.23,.08-.07,.01-.14,.03-.22,.03h-11.78c-.07,0-.14-.01-.2-.03-.08-.03-.15-.05-.22-.08-.18-.1-.27-.27-.27-.53s.1-.44,.27-.53c.07-.03,.14-.05,.22-.08,.07-.01,.14-.03,.2-.03h4.64V11.29h-4.97c-.07,0-.12-.01-.19-.03-.08-.03-.16-.05-.23-.08-.18-.11-.27-.29-.27-.53,0-.23,.1-.41,.27-.52,.07-.04,.15-.07,.23-.08,.07-.03,.12-.03,.19-.03h4.97V2.95l-1.8,.08c-.69,.03-1.32,.04-1.88,.04h-.33c-.16,0-.31-.01-.45-.04-.18,0-.33,0-.44-.03-.15-.01-.24-.03-.27-.05-.2-.11-.3-.29-.3-.52,0-.26,.11-.45,.33-.56,.05-.03,.15-.05,.27-.08h.24c1.12-.03,2.35-.15,3.7-.33,1.43-.2,2.71-.45,3.82-.72l2.14-.63c.26-.08,.44-.12,.52-.12,.8,0,1.21,.46,1.21,1.36,0,.52-.24,.84-.72,.99-.38,.12-1.54,.27-3.48,.44v7.24Z"/>
      </g>
    </g>
  </g>
</svg>