<?xml version="1.0" encoding="UTF-8"?>
<svg id="_圖層_2" data-name="圖層 2" xmlns="http://www.w3.org/2000/svg" viewBox="0 0 54.83 26.01">
  <defs>
    <style>
      .cls-1 {
        fill: #7a6a56;
      }
    </style>
  </defs>
  <g id="_圖層_1-2" data-name="圖層 1">
    <g>
      <g>
        <path d="M.81,19.46v.22c0,.08-.01,.16-.04,.25-.02,.03-.03,.07-.04,.1-.11,.25-.32,.44-.61,.58l-.13-.17c.11-.04,.2-.08,.28-.14,.22-.15,.33-.36,.33-.63v-.22H.04v-.19H2.11v.19h-.65v.83s.01,.06,.04,.08c.02,.02,.04,.03,.08,.03h.27s.04,0,.06-.02c.01-.01,.02-.03,.02-.05v-.31l.21,.02c-.01,.29-.03,.45-.05,.48-.05,.05-.1,.08-.14,.08h-.47c-.05,0-.1-.03-.14-.07-.04-.04-.06-.09-.06-.13v-.94h-.44Zm1.12-.76v.19H.23v-.19H1.93Z"/>
        <path d="M3.08,20.63h-.2v-.99c-.1,.19-.22,.36-.35,.51l-.18-.08c.21-.21,.37-.45,.48-.71h-.45v-.19h.49v-.3c-.17,.02-.31,.03-.44,.03l-.03-.19c.44-.02,.79-.06,1.05-.11l.04,.18c-.09,.02-.23,.04-.41,.07h0v.31h.46v.19h-.46c.16,.18,.32,.35,.46,.53l-.15,.12c-.09-.12-.2-.25-.31-.39v1.01Zm1.3-1.99v1.75c0,.08-.04,.15-.11,.19-.1,.06-.29,.06-.56-.02v-.19c.25,.06,.4,.07,.46,.03,.01-.02,.02-.04,.02-.06v-1.7h.2Zm-.47,.08v1.43h-.2v-1.43h.2Z"/>
        <path d="M5.74,19.56v.15h-1.08v-.15h1.08Z"/>
        <path d="M6.08,19.62l-.19-.08c.2-.28,.33-.58,.38-.91l.19,.03c-.04,.18-.07,.33-.12,.45v1.51h-.2v-1.11s-.05,.07-.07,.1Zm1.92-.66v.19h-1.54v-.19h1.54Zm-1.23,1.66h-.2v-.69s0-.03,.03-.03h1.27s.04,.02,.04,.04v.68h-.2v-.1h-.95v.1Zm1.07-1.36v.18h-1.22v-.18h1.22Zm0,.31v.18h-1.22v-.18h1.22Zm0-.9v.18h-1.2v-.18h1.2Zm-.12,1.67v-.24s0-.03-.03-.03h-.89s-.03,0-.03,.03v.24h.95Z"/>
        <path d="M9.52,20.01h-.56v.13c.14-.02,.24-.03,.31-.05l.04,.16c-.07,.02-.19,.04-.35,.06v.13c0,.07-.04,.13-.1,.17-.07,.04-.2,.04-.4,0v-.17c.16,.03,.26,.04,.3,.02,.01-.01,.02-.03,.02-.05v-.06c-.18,.02-.33,.03-.45,.03l-.03-.17c.14,0,.29-.02,.47-.03v-.15h-.46v-.17h.46v-.09c-.15,.01-.27,.02-.37,.02l-.03-.16c.35-.01,.63-.04,.83-.08l.03,.16c-.07,.01-.16,.03-.29,.04v.11h.5c-.03-.1-.06-.2-.08-.32h-1.09v-.17h.94v-.1h-.74v-.15h.74v-.11h-.87v-.17h.52s-.07-.07-.09-.09l.13-.11c.05,.05,.11,.11,.17,.18l-.04,.03h.5c.08-.08,.14-.15,.18-.2l.14,.11s-.05,.06-.07,.09h.46v.17h-.85v.11h.73v.15h-.73v.1h.93v.17h-.78c.02,.12,.04,.23,.08,.32h.66v.17h-.6c.03,.07,.07,.14,.12,.2,.07-.04,.15-.1,.24-.17l.11,.14c-.08,.07-.16,.12-.23,.16,.03,.02,.06,.04,.08,.06,.05,.03,.08,.04,.11,.03s.04-.02,.04-.03c.02-.04,.03-.1,.03-.17l.17,.06c-.04,.2-.08,.31-.14,.35-.07,.01-.15,0-.22-.04-.09-.05-.16-.1-.22-.16-.19,.08-.41,.14-.66,.18l-.05-.17c.18-.01,.38-.06,.6-.14-.07-.08-.12-.18-.15-.28Zm.34-.48c.14,.06,.24,.11,.31,.14l-.09,.14s-.14-.07-.3-.14l.08-.15Z"/>
        <path d="M10.72,18.87h-.12v-.17h.77v.17h-.09v1.75h-.18v-.31c-.2,.08-.35,.13-.44,.14l-.06-.15s.08-.03,.12-.03v-1.39Zm.38,.31v-.31h-.2v.31h.2Zm0,.48v-.31h-.2v.31h.2Zm0,.48v-.31h-.2v.38c.08-.03,.14-.05,.2-.08Zm.26-.45c0-.05-.02-.1-.04-.15l.14-.03c.05-.06,.1-.12,.15-.2-.1-.1-.2-.17-.29-.23,.02-.05,.05-.1,.09-.14,0,0,.03,.02,.06,.04,.05-.11,.1-.23,.14-.36,.05,.03,.11,.05,.16,.07-.03,.1-.09,.23-.18,.39,.04,.02,.07,.05,.11,.09,.06-.11,.1-.21,.12-.3l.17,.04c-.04,.14-.15,.32-.31,.54l.14-.03s-.02-.08-.04-.11l.16-.03c.04,.1,.07,.22,.09,.37l-.16,.03s-.01-.06-.02-.09l-.5,.08Zm.13,.59c-.05,0-.08-.03-.08-.08v-.45h.18v.32s0,.04,.04,.04h.15v-.37h.18v.5s0,.07-.03,.11c-.05,.13-.19,.23-.4,.3l-.08-.15c.06-.02,.11-.03,.14-.05,.1-.05,.16-.1,.18-.17h-.29Zm.59-.64c0-.05-.02-.1-.04-.15l.11-.03s.08-.09,.12-.14c-.1-.1-.2-.17-.29-.23,.03-.05,.06-.1,.08-.14,.01,0,.04,.02,.07,.04,.07-.11,.12-.24,.16-.37,.05,.03,.11,.05,.16,.08-.04,.1-.1,.23-.19,.39,.03,.03,.06,.06,.1,.09,.07-.12,.12-.24,.13-.35l.18,.04c-.04,.15-.13,.33-.29,.55l.16-.03c-.01-.05-.02-.09-.03-.11l.15-.03c.03,.1,.05,.22,.07,.37l-.16,.03s0-.06,0-.08l-.47,.08Zm.38,.47s.03,0,.03-.03v-.32h.18v.47s-.02,.05-.05,.05h-.33v.36h-.18v-.93h.18v.4h.18Z"/>
        <path d="M14.96,18.95s.03,0,.04,0c.02,.01,.03,.04,.03,.1,0,.53,0,.89-.03,1.09-.04,.22-.1,.36-.19,.42-.08,.05-.21,.06-.39,.02l-.02-.19c.17,.04,.28,.04,.32,0,.07-.05,.1-.25,.11-.59,0-.45,0-.67,0-.68,0,0-.01,0-.02,0h-.23c-.02,.65-.14,1.14-.38,1.47l-.16-.08h0s-1.09,.08-1.09,.08v-.17s.51-.03,.51-.03v-.14h-.46v-.15h.46v-.12h-.47v-.16h.47v-.11h-.46s-.03,0-.03-.03v-.38s0-.03,.03-.03h.46v-.09h-.22s-.07-.03-.07-.08v-.2h-.22v-.16h.22v-.11h.18v.11h.42v-.11h.18v.11h.21v.16h-.21v.2c0,.05-.03,.08-.08,.08h-.21v.09h.46s.03,0,.03,.03v.38s0,.03-.03,.03h-.46v.11h.46v.16h-.46v.12h.41v.15h-.41v.14l.36-.03,.02,.14c.23-.26,.34-.71,.35-1.36h-.23v-.18h.23v-.34h.19v.34h.38Zm-1.49,.47h-.29v.12s0,0,0,0h.29v-.13Zm.3-.52h-.42v.09s0,.03,.03,.03h.37s.03,0,.03-.03v-.09Zm-.11,.65h.29v-.13h-.29v.13Z"/>
        <path d="M15.9,20.1v.25h-.28v-.25h.28Z"/>
        <path d="M17.19,20.63h-.2v-.97c-.09,.19-.2,.36-.32,.5l-.18-.08c.2-.22,.35-.45,.46-.71h-.42v-.19h.46v-.31c-.14,.01-.26,.02-.36,.02l-.03-.18c.38-.02,.68-.05,.9-.08l.04,.18c-.08,.02-.2,.03-.36,.05v.32h.39v.19h-.39c.16,.18,.3,.36,.43,.54l-.16,.11c-.08-.12-.17-.26-.27-.4v1Zm.68-.07h-.2v-1.83s0-.03,.03-.03h.79s.04,.01,.04,.03v1.82h-.2v-.1h-.46v.1Zm.46-.29v-1.35s0-.03-.03-.03h-.41s-.03,0-.03,.03v1.35h.46Z"/>
        <path d="M18.86,19.96v-.19h.94v-.9h-.86v-.19h1.92v.19h-.86v.9h.93v.19h-.93v.66h-.21v-.66h-.94Zm.28-.96c.12,.15,.23,.34,.34,.57l-.18,.09c-.11-.25-.22-.44-.33-.56l.17-.1Zm1.67,.08c-.07,.18-.19,.37-.35,.59l-.17-.09c.17-.23,.28-.42,.34-.58l.18,.08Z"/>
        <path d="M22.25,19.58s-.02,.06-.03,.09c-.17,.4-.47,.71-.9,.93l-.14-.15c.52-.24,.84-.63,.95-1.18h-.88v-.2h.89s0-.07,0-.1v-.32h.21v.32s0,.07,0,.1h.89v.2h-.87c.01,.08,.03,.16,.04,.23,.12,.36,.42,.69,.9,.98l-.18,.14s-.09-.06-.12-.08c-.41-.29-.66-.61-.78-.95Z"/>
        <path d="M23.68,19.91l-.16-.11c.1-.08,.17-.17,.21-.26,.05-.09,.1-.23,.13-.42l.17,.04s0,.04,0,.06h.51s.07,.02,.06,.06c0,.14-.04,.29-.1,.47-.04,.1-.07,.19-.11,.27-.16,.27-.38,.46-.69,.59l-.17-.16c.27-.08,.47-.2,.6-.35-.14-.12-.25-.21-.35-.29-.04,.03-.07,.07-.11,.1Zm.61-.94v.12h-.2v-.12h-.54v-.19h.54v-.18h.2v.18h.63v-.18h.2v.18h.52v.19h-.52v.13h-.2v-.13h-.63Zm-.04,.97s.03-.07,.04-.1c.05-.09,.08-.21,.11-.37,0-.03,0-.05-.03-.05h-.38c-.02,.11-.05,.19-.09,.25,.11,.08,.22,.17,.35,.28Zm.65,.35s0,.06,0,.08c.01,.02,.03,.04,.05,.04,.07,.01,.16,.02,.27,.02s.16,0,.17,0c.02,0,.03-.02,.04-.04,.01-.04,.02-.14,.02-.27h.2c0,.22-.02,.36-.06,.42-.02,.03-.05,.05-.07,.06-.04,.02-.12,.03-.24,.03-.17,0-.32-.01-.43-.02-.04-.01-.07-.03-.09-.04-.04-.05-.05-.11-.05-.18v-1.17h.81s.04,.01,.04,.03v.59c0,.06-.03,.1-.08,.14-.07,.06-.22,.07-.46,.03v-.19c.17,.03,.28,.03,.31,0,.02-.02,.03-.04,.03-.07v-.34s0-.02-.03-.02h-.44v.9Z"/>
        <path d="M27.24,18.56l-.65,2.13h-.16l.65-2.13h.16Z"/>
        <path d="M29.06,19.58s-.02,.06-.03,.09c-.17,.4-.47,.71-.9,.93l-.14-.15c.52-.24,.84-.63,.95-1.18h-.88v-.2h.89s0-.07,0-.1v-.32h.21v.32s0,.07,0,.1h.89v.2h-.87c.01,.08,.03,.16,.04,.23,.12,.36,.42,.69,.9,.98l-.18,.14s-.09-.06-.12-.08c-.41-.29-.66-.61-.78-.95Z"/>
        <path d="M30.6,20.63h-.19v-1.93s0-.02,0-.03h.49l.13,.08-.18,.54s0,.06,0,.07c.08,.11,.14,.21,.16,.31,.05,.16,.04,.28-.04,.36-.04,.05-.09,.08-.15,.08-.07,.01-.15,0-.24-.02v.53Zm.02-1.78h-.02v1.07c.06,.03,.12,.04,.17,.03,.03,0,.05-.01,.07-.03,.07-.09,0-.28-.17-.57h0v-.02l.14-.44s0-.05-.04-.04h-.16Zm1.02,1.25h-.49v-.18h.49v-.2h.2v.2h.55v.18h-.55v.29h.64v.18h-1.5v-.18h.66v-.29Zm-.06-.76v.03s0,.08-.03,.14c-.05,.16-.18,.28-.38,.36l-.12-.14c.06-.02,.11-.04,.15-.07,.12-.07,.18-.16,.19-.28v-.03h-.36v-.17h.59v-.2h-.46v-.17h.46v-.17h.2v.17h.54v.17h-.54v.2h.62v.17h-.42v.22s0,.05,.03,.07c.02,.02,.04,.03,.06,.03h.12s.04,0,.05-.02c0,0,0-.01,0-.02,0-.03,.01-.08,.02-.14l.16,.03c-.02,.15-.04,.23-.04,.25-.04,.04-.08,.06-.13,.06h-.29s-.08-.02-.12-.06c-.04-.03-.05-.07-.05-.1v-.31h-.27Z"/>
        <path d="M33.16,19.53s0-.02,0-.02h-.32l-.07-.11,.32-.54s0,0,0,0h-.31v-.19h.5l.09,.12-.34,.54h.29s.07,.03,.07,.06c0,.28-.07,.54-.2,.78,0,0,0,0,0,0,.14,.15,.35,.22,.63,.21h1.01l-.05,.2h-.88c-.16-.01-.29-.03-.42-.05-.12-.03-.25-.1-.38-.2-.07,.11-.15,.21-.24,.31l-.16-.14c.12-.12,.21-.23,.27-.33-.07-.1-.14-.25-.2-.45l.18-.04c.04,.12,.08,.22,.12,.31,.08-.16,.12-.32,.12-.46Zm.21,.59v-.18h.56v-.12h-.47v-.18h.47v-.13h-.4v-.17h.4v-.14h-.59v-.17h.59v-.13h-.4v-.17h.4v-.14h.2v.14h.46s.06,.02,.06,.05v.25h.14v.17h-.14v.25s-.03,.06-.06,.06h-.46v.13h.55v.18h-.55v.12h.63v.18h-.63v.23h-.2v-.23h-.56Zm.76-1.08h.33v-.12s-.01,0-.02,0h-.31v.13Zm0,.31h.31s.02-.01,.02-.02v-.12h-.33v.14Z"/>
        <path d="M35.91,18.97v.18h-.86v-.18h.86Zm-.62,1.61h-.19v-.74s.03-.05,.06-.05h.62s.06,.02,.06,.05v.59s-.02,.06-.06,.06h-.5v.09Zm.51-1.33v.17h-.65v-.17h.65Zm0,.27v.17h-.65v-.17h.65Zm0-.83v.18h-.65v-.18h.65Zm-.49,1.27s-.03,0-.03,.03v.33h.34s.04-.02,.04-.03v-.3s0-.03-.03-.03h-.32Zm.97-1.1v.08c0,.22-.1,.38-.29,.49l-.12-.14s.06-.03,.08-.05c.1-.08,.15-.21,.15-.37v-.18s0-.02,0-.03c.01,0,.02,0,.03,0h.64s.02,0,.03,0c0,.01,.01,.02,.02,.03v.45s0,.05,0,.06c.01,.02,.04,.03,.07,.03h.02s.03-.01,.05-.02c.01,0,.02-.03,.02-.06v-.14l.17,.02c0,.13,0,.21,0,.25-.01,.03-.03,.05-.04,.08-.04,.03-.08,.05-.12,.05h-.16c-.06,0-.1-.02-.12-.05-.04-.04-.05-.08-.05-.12v-.37s0-.03-.03-.03h-.32s-.02,.01-.02,.02Zm-.27,1.77l-.12-.16c.18-.06,.33-.13,.45-.2-.12-.11-.23-.26-.34-.45l.16-.08c.09,.18,.2,.32,.32,.42,.18-.14,.3-.3,.34-.47v-.02s-.04,0-.05,0h-.77v-.18h.93l.11,.08c-.05,.28-.18,.51-.4,.7,.13,.08,.3,.14,.52,.17l-.1,.18c-.24-.07-.43-.15-.57-.24-.12,.07-.28,.15-.47,.24Z"/>
        <path d="M38.42,19.56v.15h-1.08v-.15h1.08Z"/>
        <path d="M38.83,19.54h-.21v-.17h.21v-.5h-.21v-.17h.62v.17h-.21v.5h.19v.17h-.19v.52c.09-.04,.16-.07,.21-.09l.08,.16c-.17,.09-.38,.18-.65,.26l-.09-.17c.08-.03,.17-.06,.26-.09v-.59Zm1.15-.11c-.11,.1-.21,.18-.3,.24,.03,.07,.06,.14,.08,.21l-.18,.05c-.02-.06-.04-.11-.06-.17-.07,.03-.13,.06-.19,.08l-.1-.15c.08-.03,.15-.06,.22-.09-.04-.08-.06-.14-.08-.16l.18-.06s.03,.08,.05,.14c.1-.07,.2-.15,.29-.24-.04-.05-.07-.1-.12-.15-.19,.11-.34,.19-.45,.22l-.1-.15c.23-.07,.43-.18,.6-.31h-.47v-.18h1.24v.18h-.5c-.06,.06-.12,.11-.17,.14,.12,.15,.21,.33,.27,.54,.05,.24,.22,.52,.51,.83l-.18,.08c-.11-.12-.21-.25-.29-.39,0,.12-.04,.23-.09,.31-.05,.11-.12,.18-.21,.21-.04,.01-.08,.01-.12,0-.05,0-.14-.03-.25-.07l.02-.19c.14,.06,.24,.08,.28,.06,.06-.02,.11-.07,.14-.14,.05-.11,.07-.24,.06-.37-.3,.26-.59,.44-.87,.53l-.11-.16c.37-.14,.69-.33,.96-.59-.01-.03-.02-.04-.02-.05-.03-.07-.05-.14-.05-.2Zm.67-.28c-.08,.1-.18,.21-.3,.33l-.14-.13c.14-.12,.24-.23,.3-.32l.15,.12Z"/>
        <path d="M41.28,20.61h-.21v-1.67s.03-.07,.07-.07h.59c.05-.11,.08-.19,.11-.25l.18,.06c-.02,.06-.04,.12-.06,.19h.87s.07,.02,.07,.07v1.67h-.21v-.09h-1.41v.09Zm.03-1.55s-.03,0-.03,.03v.52h1.41v-.52s0-.03-.03-.03h-1.36Zm1.39,1.27v-.54h-1.41v.54h1.41Z"/>
        <path d="M43.88,20.1v.25h-.28v-.25h.28Z"/>
        <path d="M44.72,19.54h-.21v-.17h.21v-.5h-.21v-.17h.62v.17h-.21v.5h.19v.17h-.19v.52c.09-.04,.16-.07,.21-.09l.08,.16c-.17,.09-.38,.18-.65,.26l-.09-.17c.08-.03,.17-.06,.26-.09v-.59Zm1.15-.11c-.11,.1-.21,.18-.3,.24,.03,.07,.06,.14,.08,.21l-.18,.05c-.02-.06-.04-.11-.06-.17-.07,.03-.13,.06-.19,.08l-.1-.15c.08-.03,.15-.06,.22-.09-.04-.08-.06-.14-.08-.16l.18-.06s.03,.08,.05,.14c.1-.07,.2-.15,.29-.24-.04-.05-.07-.1-.12-.15-.19,.11-.34,.19-.45,.22l-.1-.15c.23-.07,.43-.18,.6-.31h-.47v-.18h1.24v.18h-.5c-.06,.06-.12,.11-.17,.14,.12,.15,.21,.33,.27,.54,.05,.24,.22,.52,.51,.83l-.18,.08c-.11-.12-.21-.25-.29-.39,0,.12-.04,.23-.09,.31-.05,.11-.12,.18-.21,.21-.04,.01-.08,.01-.12,0-.05,0-.14-.03-.25-.07l.02-.19c.14,.06,.24,.08,.28,.06,.06-.02,.11-.07,.14-.14,.05-.11,.07-.24,.06-.37-.3,.26-.59,.44-.87,.53l-.11-.16c.37-.14,.69-.33,.96-.59-.01-.03-.02-.04-.02-.05-.03-.07-.05-.14-.05-.2Zm.67-.28c-.08,.1-.18,.21-.3,.33l-.14-.13c.14-.12,.24-.23,.3-.32l.15,.12Z"/>
        <path d="M47.37,20.29h-.31s-.02,0-.02-.03v-.34s.01-.03,.02-.03h1.66s.03,0,.03,.03v.34s0,.03-.03,.03h-.29l-.06,.14h.57v.17h-2.09v-.17h.59c-.02-.06-.04-.11-.06-.14Zm1.54-.6v.15h-2.04v-.15h2.04Zm-.85-.34v-.14h.21v-.1h-.21v-.14h.21v-.11h-.21v-.14h.21v-.12h.16v.12h.2v.14h-.2v.11h.19v.14h-.19v.1h.2v.14h-.2v.1h.25s.03,0,.03-.03v-.78h.18v.88c0,.05-.03,.08-.08,.08h-1.82s-.07-.03-.07-.08v-.88h.18v.78s0,.03,.03,.03h.24v-.1h-.21v-.14h.21v-.11h-.2v-.14h.2v-.1h-.21v-.14h.21v-.12h.16v.12h.18v.14h-.18v.1h.18v.14h-.18v.11h.19v.14h-.19v.1h.28v-.84h.18v.84h.29v-.1h-.21Zm-.84,.7s0,0,0,0v.08h0s1.34,0,1.34,0c0,0,0,0,0,0v-.08s0,0,0,0h-1.34Zm.96,.39s.04-.08,.05-.12c0-.01,0-.02,0-.03h-.68s.03,.05,.06,.14h.55Z"/>
        <path d="M49.77,20.1v.25h-.28v-.25h.28Z"/>
        <path d="M51.26,19.84v.72h-.2v-.72h-.36s0,0,0,0v.76h-.2v-.91s.02-.04,.04-.04h.72c.03-.1,.05-.16,.05-.16h-.91v-.19h2.05v.19h-.94s-.02,.06-.04,.1c0,.02-.01,.04-.02,.06h.85s.05,.02,.05,.04v.71c0,.08-.04,.14-.1,.17-.08,.05-.21,.06-.39,.03v-.2c.13,.03,.22,.04,.24,.02,.04-.02,.05-.04,.05-.08v-.48s-.01,0-.02,0h-.35v.72h-.2v-.72h-.35Zm.84-.86s.04-.01,.04-.03v-.26h.2v.39c0,.06-.04,.09-.1,.09h-1.6c-.06,0-.09-.04-.09-.09v-.39h.2v.26s0,.03,.03,.03h.57v-.38h.2v.38h.56Z"/>
        <path d="M53.68,18.61h.21v.15h.88v.19h-1.7s-.02,.01-.02,.02v.77c0,.33-.06,.61-.15,.84l-.19-.06c.05-.15,.09-.28,.12-.4,.02-.12,.03-.26,.03-.43v-.88s.02-.05,.05-.05h.77v-.15Zm-.54,1.3v-.19h.69c-.11-.08-.24-.17-.4-.25l.12-.15c.09,.06,.18,.11,.25,.16,.26-.07,.45-.15,.57-.22h-1.21v-.17h1.44l.09,.12c-.15,.16-.38,.3-.71,.4,.02,.02,.04,.03,.05,.03l-.07,.08h.74l.13,.08c-.05,.29-.21,.5-.48,.63l-.15-.16c.21-.08,.34-.2,.39-.36h-.56v.49c0,.08-.04,.15-.11,.19-.11,.07-.33,.06-.63-.03v-.19c.13,.04,.22,.06,.26,.07,.05,.01,.11,.02,.16,.03,.04,0,.07,0,.11-.04,.01-.02,.02-.04,.02-.06v-.44h-.7Z"/>
        <path d="M13.87,24.71v.08c-.01,.39-.06,.75-.13,1.07l-.2-.09c.08-.31,.13-.64,.13-.98v-.66s0-.06,.04-.07c.27-.03,.52-.07,.73-.13l.08,.19c-.19,.06-.4,.1-.63,.12-.02,0-.03,.02-.03,.03v.25h.63v.19h-.22v1.22h-.2v-1.22h-.21Zm1.2,.48s-.02,.07-.04,.11c-.05,.14-.12,.25-.19,.34-.08,.1-.18,.2-.31,.3l-.15-.14s.01,0,.02,0c.38-.25,.58-.67,.58-1.23v-.24h-.14c-.04,.29-.11,.53-.2,.71l-.2-.04c.16-.35,.23-.69,.21-1.04h.19v.18h.7l.12,.07c-.04,.29-.09,.56-.17,.81l-.19-.03c.03-.08,.06-.16,.08-.23,.07-.26,.1-.4,.08-.42,0,0-.01,0-.02,0h-.28v.24s0,.02,0,.03c0,.45,.17,.87,.51,1.25l-.19,.09c-.21-.27-.35-.52-.42-.75Z"/>
        <path d="M15.91,25.65v-.17h.28v-.16h-.21s-.03,0-.03-.03v-.8s0-.03,.03-.03h.21v-.17h-.26v-.17h.26v-.19h.18v.19h.26v.17h-.26v.17h.21s.03,0,.03,.03v.8s0,.03-.03,.03h-.21v.16h.26v.17h-.26v.28h-.18v-.28h-.28Zm.52-.83v-.18s0,0,0,0h-.29s0,0,0,0v.18h.3Zm-.3,.16v.17h0s.29,0,.29,0c0,0,0,0,0,0v-.17h-.3Zm.95-.2c-.1,.14-.21,.25-.33,.32-.03-.07-.06-.12-.1-.15,.11-.06,.2-.15,.27-.27l.16,.1Zm0,.48c-.1,.13-.21,.23-.33,.31-.03-.07-.06-.12-.1-.15,.11-.07,.2-.16,.28-.26l.15,.11Zm-.32-.87l-.1-.17c.3-.08,.51-.19,.62-.31l.18,.05s-.02,.02-.02,.03c.18,.11,.38,.18,.59,.22l-.09,.18c-.22-.06-.43-.15-.63-.27-.15,.1-.33,.19-.55,.27Zm.46,.03s.05,.02,.05,.06v1.24c0,.08-.03,.14-.08,.18-.08,.06-.24,.07-.47,.02v-.19c.17,.05,.28,.06,.31,.04,.04-.03,.05-.07,.05-.11v-1.04s0-.03-.03-.03h-.33v-.17h.49Zm.5,.36c-.1,.15-.2,.27-.3,.36-.04-.06-.08-.11-.12-.14,.11-.08,.2-.18,.26-.31l.16,.09Zm.02,.47c-.09,.15-.21,.26-.33,.35-.03-.06-.07-.11-.11-.14,.11-.07,.21-.17,.28-.31l.16,.1Zm.16-.83s.05,.02,.05,.06v1.25c0,.08-.03,.14-.08,.18-.07,.05-.21,.06-.43,.02v-.19c.16,.04,.25,.06,.27,.04,.04-.03,.05-.07,.05-.11v-1.05s0-.03-.03-.03h-.37v-.17h.53Z"/>
        <path d="M19.27,24.88v.15h-1.08v-.15h1.08Z"/>
        <path d="M20.4,24.6h-.93v-.2h.93v-.45h.21v.45h.92v.2h-.92v1.07h.82v.2h-1.87v-.2h.83v-1.07Z"/>
        <path d="M22.41,25.94h-.2v-1.02c-.11,.24-.19,.41-.24,.49l-.19-.06c.2-.27,.33-.57,.41-.9h-.37v-.19h.38v-.34h.2v.34h.31v.19h-.31v.03c.14,.15,.27,.31,.4,.48l-.16,.11c-.07-.11-.15-.22-.24-.34v1.2Zm.75-1.08c-.11,.29-.24,.55-.38,.77l-.2-.06c.14-.19,.26-.38,.36-.59,.07-.13,.13-.31,.19-.53h-.3v-.19h.34v-.34h.2v.34h.48v.19h-.46c.18,.46,.36,.82,.54,1.08l-.17,.08c-.15-.23-.28-.5-.39-.81v1.13h-.2v-1.08Z"/>
        <path d="M25.09,23.93h.21v.15h.8l.18,.08c-.01,.13-.05,.28-.12,.46l-.18-.06c.05-.14,.07-.23,.07-.27,0-.02,0-.03-.03-.03h-1.64s-.02,0-.02,.02v.33h-.2v-.5s.01-.03,.04-.03h.89v-.15Zm.91,1.98h-1.51s-.06-.02-.06-.06v-1.35s.02-.05,.05-.05h1.38s.06,.02,.06,.05v.53s-.03,.06-.06,.06h-1.23v.18h1.39s.06,.02,.06,.06v.52s-.02,.07-.07,.07Zm-1.38-.46v.24s0,.03,.02,.03h1.2s.03,0,.03-.03v-.22s-.01-.02-.02-.02h-1.22Zm0-.55h1.07s.03,0,.03-.03v-.21s0-.03-.03-.03h-1.05s-.03,0-.03,.03v.24Z"/>
        <path d="M26.79,24.73v.65s.03-.01,.04-.02c.14-.04,.24-.08,.3-.11l.08,.18c-.16,.08-.38,.15-.65,.22l-.08-.18s.07-.03,.12-.03v-1.36s.01-.05,.05-.05c.34,0,.65-.03,.92-.1l.08,.18c-.13,.03-.25,.05-.38,.07,0,.13,0,.25,.02,.37h.4v.19h-.38c.04,.25,.1,.45,.19,.61,.02,.03,.04,.05,.05,.05,0,0,0,0,0-.02,.01-.03,.02-.11,.02-.25l.19,.05c-.02,.26-.06,.41-.1,.44-.03,.02-.06,.03-.08,.03-.04,0-.07-.02-.11-.04-.02-.02-.03-.03-.04-.03-.16-.19-.27-.47-.32-.84h-.32Zm.78,.96v.19h-.99v-.19h.99Zm-.49-1.49c-.1,0-.19,0-.28,0-.01,0-.01,.01,0,.02v.32h.3c-.01-.11-.02-.23-.02-.35Zm.94-.03s-.03,0-.03,.03v1.72h-.21v-1.9s.02-.03,.04-.03h.63l.13,.09-.21,.65s0,.03,0,.05c.11,.13,.17,.25,.2,.35,.05,.19,.04,.34-.03,.46-.04,.05-.07,.08-.12,.1-.04,.02-.08,.03-.14,.03s-.14-.02-.23-.06v-.21c.13,.06,.22,.08,.28,.07,.07-.02,.1-.11,.08-.27-.01-.1-.09-.25-.23-.44-.02-.02-.02-.03-.02-.05l.18-.55s0-.03,0-.03h-.32Z"/>
        <path d="M30.18,23.88l-.65,2.13h-.16l.65-2.13h.16Z"/>
        <path d="M31.07,24.52c.09,.07,.2,.16,.3,.27l-.13,.14c-.11-.12-.21-.21-.3-.26l.13-.14Zm.29,.57c-.03,.33-.11,.6-.24,.81l-.19-.05c.15-.25,.23-.51,.23-.77l.2,.02Zm-.27-1.11c.1,.07,.2,.17,.3,.27l-.13,.14c-.11-.12-.21-.21-.3-.26l.13-.14Zm1.07,.08v.66s-.02,.06-.05,.06h-.47v1.15h-.19v-1.88s.02-.04,.05-.04h.61s.05,.02,.05,.05Zm-.19,.26v-.13s-.01-.03-.04-.03h-.26s-.04,.01-.04,.03v.13h.34Zm-.34,.15v.15h.3s.04-.02,.04-.04v-.11h-.34Zm.51,.89h-.35v-.15h.35v-.17h-.39v-.15h.97v.15h-.39v.17h.37v.15h-.37v.15h.44v.16h-1.06v-.16h.44v-.15Zm.19-.58s-.06-.03-.06-.06v-.66s.02-.05,.06-.05h.62s.05,.02,.05,.05v1.71s0,.07-.03,.1c-.02,.03-.05,.05-.09,.07-.08,.03-.2,.02-.36-.02l.03-.2c.11,.04,.19,.06,.22,.05,.01,0,.02-.02,.03-.03,0-.01,0-.03,0-.04v-.92h-.49Zm.49-.47v-.11s-.02-.04-.05-.04h-.27s-.04,.01-.04,.03v.12h.37Zm-.37,.15v.11s.02,.05,.05,.05h.31v-.16h-.37Z"/>
        <path d="M34.71,24.91h-.72s-.02,.03-.03,.03c-.05,.05-.09,.1-.13,.14,.11,.11,.19,.19,.22,.23l-.14,.1s-.12-.12-.22-.22c-.09,.08-.17,.14-.25,.18l-.14-.13c.2-.12,.35-.23,.46-.33h-.43v-.18h.6c.04-.06,.08-.11,.12-.16h-.55v-.18h.64c.03-.07,.05-.12,.05-.16h-.78v-.18h.8s.02-.09,.03-.13l.19,.02s-.01,.08-.02,.11h.92v.18h-.96c-.01,.07-.03,.12-.04,.16h.92v.18h-.54c.04,.07,.07,.12,.11,.16h.59v.18h-.44c.12,.11,.28,.21,.47,.31l-.15,.14c-.11-.07-.21-.14-.3-.21-.08,.07-.17,.15-.29,.22l-.12-.14c.11-.08,.2-.15,.27-.2-.04-.03-.08-.08-.12-.13Zm-.55,.67c-.17,.12-.4,.24-.69,.35l-.08-.17c.29-.11,.51-.22,.67-.32l.1,.14Zm.3-.54v.69c0,.08-.04,.15-.11,.19-.07,.03-.2,.03-.38,0v-.19c.15,.03,.24,.04,.28,.02,.01-.02,.02-.04,.02-.06v-.64h.2Zm.02-.48h-.24c-.04,.06-.07,.11-.11,.16h.45c-.03-.05-.06-.1-.1-.16Zm.2,.89c.3,.15,.51,.26,.63,.33l-.11,.15c-.17-.11-.38-.22-.62-.32l.1-.16Z"/>
        <path d="M36.67,24.88v.15h-1.08v-.15h1.08Z"/>
        <path d="M37.3,23.93h.2v.16h.47v.17h-1.13v-.17h.46v-.16Zm.27,1.88c-.03,.05-.07,.09-.12,.11-.11,.03-.26,.02-.44-.03v-.2c.17,.08,.28,.11,.33,.08,.03-.02,.05-.04,.07-.06,.02-.04,.02-.1,0-.19l-.5,.08-.04-.18,.48-.07s-.05-.09-.09-.13h.09l.16-.16s0-.02,0-.03c0-.01-.01-.02-.02-.02h-.58v-.16h.83l.12,.11-.37,.33s.01,.02,.02,.03l.41-.06,.03,.18-.38,.05c.04,.15,.04,.25-.02,.31Zm.26-1.02h-.88s-.02,0-.02-.03v-.4s.01-.03,.02-.03h.88s.03,0,.03,.03v.4s0,.03-.03,.03Zm-.72-.31s0,0,0,0v.14h0s.56,0,.56,0c0,0,0,0,0,0v-.14s0,0,0,0h-.56Zm.93,.43l-.18-.05c.17-.29,.25-.6,.25-.91h.19c0,.09-.01,.16-.02,.21h.67v.18h-.16v.08c0,.33-.09,.65-.27,.96,.1,.14,.25,.3,.45,.48l-.17,.09c-.16-.16-.29-.3-.38-.42-.12,.16-.29,.31-.51,.42l-.13-.14c.22-.11,.4-.26,.54-.45-.1-.2-.16-.42-.19-.65-.03,.07-.06,.14-.1,.2Zm.29-.05c.03,.12,.07,.23,.11,.34,.11-.23,.17-.49,.18-.78v-.08h-.32c-.01,.19,0,.37,.04,.52Z"/>
        <path d="M39.5,23.94h.18v1.64h.08s.03,0,.03-.03v-1.36h.17v1.47c0,.06-.03,.08-.09,.08h-.55c-.06,0-.09-.03-.09-.08v-1.47h.17v1.36s0,.03,.03,.03h.08v-1.64Zm.62,.48l-.09-.16c.18-.06,.3-.17,.38-.32l.18,.03s-.02,.03-.02,.04h.55l.12,.1c-.11,.19-.24,.33-.39,.42,.13,.06,.29,.1,.46,.12l-.06,.17c-.24-.03-.43-.09-.58-.2-.17,.08-.37,.14-.58,.2l-.06-.17c.19-.03,.36-.08,.51-.13-.07-.07-.14-.14-.2-.23-.06,.05-.13,.1-.22,.14Zm-.09,1.25v-.17h.54v-.14h-.46v-.17h.46v-.13h-.48v-.17h.48v-.17h.19v.17h.47v.17h-.47v.13h.46v.17h-.46v.14h.54v.17h-.54v.27h-.19v-.27h-.54Zm.67-1.23c.15-.1,.24-.18,.29-.24,.01-.02,0-.03,0-.03h-.5c.07,.1,.14,.19,.21,.25,0,0,0,0,0,0Z"/>
      </g>
      <g>
        <path d="M15.08,5.77c.76,0,1.3,.18,1.61,.53l.03,.26c0,.16-.14,.88-.43,2.17l.03,.41-.03,.18,.09,.06h.09l.09-.06,.03,.03-.19,.97v.12l.03,.12c-.1,.39-.21,.6-.31,.62h-.03c-.19,0-.28-.21-.28-.62-.04,0-.08-.3-.12-.91-.06,0-.09-.24-.09-.73,0-.65,.12-1.38,.37-2.2v-.15s-.23-.09-.68-.15c-.21-.23-.31-.41-.31-.53v-.03l.09-.09Zm4.61-.5h.06v.03l-.19,.68v.12l.12,.12h.09l.83-.15,.06-.18-.09-.21h.06c.19,.1,.28,.16,.28,.18v.29c-.06,.43-.24,.65-.53,.65-.54,.14-.96,.35-1.27,.65l-.03,.03v.32c0,.29,.11,.44,.34,.44h.25c.1,0,.24-.1,.4-.29l.28-.09c.14,0,.33,.13,.56,.38v.06c-.12,.22-.28,.32-.46,.32l-.15,.15v.32l.03,.53c-.06,.67-.24,1-.53,1l-.34,.09-.28-.12v-.03s.11-.11,.34-.21c.1-.08,.15-.27,.15-.59v-.44c0-.33-.04-.53-.12-.59l-.31,.03h-.09c-.29,0-.5-.31-.62-.94l-.03-.03h-.09c-.91,.27-1.46,.53-1.67,.76v-.06c0-.35,.27-.76,.8-1.23l1.3-.73,.43-.94c.1-.21,.24-.32,.4-.32Zm-.49,4.52v.03c-.33,.27-.57,.5-.71,.68l-.31,.12c-.39-.08-.59-.19-.59-.32,0-.18,.2-.29,.59-.35h.4c.1,0,.31-.05,.62-.15Zm2.1-.7c.35,0,.68,.24,.99,.73-.1,.29-.18,.44-.22,.44l-.8-.29h-.03l-.16,.03v-.03c.17-.16,.25-.28,.25-.38s-.05-.23-.16-.38c.02-.08,.06-.12,.12-.12Z"/>
        <path d="M26.32,4.86c.08,.04,.12,.08,.12,.12l-.46,1.2c-.19,.55-.44,.96-.77,1.23v.09c.17,.22,.25,.64,.25,1.26v.23l.03,.18,.03,1.06c0,.18-.08,.35-.25,.53h-.09c-.08-.27-.17-.71-.25-1.32v-.82c.04-.12,.07-.37,.09-.76l-.09-.06h-.03c-.51,.47-.83,.7-.96,.7h-.06v-.06h-.03l1.33-2.26c.21-.41,.52-.81,.93-1.2l.22-.12Zm2.32,.21c.06,.02,.1,.09,.12,.21l-.06,.41v.06l.06,.09c.39,.04,.59,.13,.59,.26,0,.16-.19,.38-.56,.68l-.12,.35v.09l.06,.03h.28l.18,.03v.09c0,.12-.17,.3-.49,.56v.12c0,.08,.31,.38,.93,.91,.08,.14,.12,.26,.12,.38,0,.37-.31,.75-.93,1.15l-.03-.03h-.09c-.17,.1-.43,.2-.8,.29h-.34c-.19-.02-.28-.1-.28-.23v-.03c0-.16,.1-.51,.31-1.06,.04,0,.12-.1,.25-.29l.15-.03c.29,.08,.43,.21,.43,.38v.03c0,.18-.17,.26-.53,.26l-.06,.12v.18l.06,.06h.06c.58-.23,.97-.53,1.17-.88v-.15c0-.22-.24-.44-.71-.68-.02,0-.17-.14-.43-.41-.27-.08-.4-.27-.4-.59,.06-.12,.2-.28,.4-.5v-.12h-.03c-.56,.23-.88,.35-.96,.35-.1,.08-.22,.12-.34,.12h-.03s-.07-.03-.09-.09c.1-.27,.38-.58,.83-.91,.29-.16,.57-.28,.83-.38l.34-.76,.09-.06Z"/>
        <path d="M34.03,5.21c.25,0,.53,.24,.83,.73,0,.12,.02,.18,.06,.18h.06c.52-.16,.91-.23,1.17-.23h.09c.54,0,.91,.3,1.11,.91-.14,.61-.32,.91-.53,.91-.31,.27-.77,.41-1.39,.41,0,.04-.12,.11-.37,.21-.04,.06-.21,.16-.49,.29l-.09,.18v.09c.02,.06,.17,.14,.43,.23,.35,.27,.53,.59,.53,.94,0,.23-.13,.49-.4,.76-.43,.29-.74,.44-.93,.44l-.74-.29h-.28c-.29,0-.53-.2-.71-.59,0-.14,.1-.26,.31-.38h.15c.06,0,.21,.15,.43,.44h.22c.1,0,.2-.03,.28-.09h.09v.06h.03c-.08,.12-.12,.21-.12,.26v.03c0,.12,.1,.18,.31,.18,.35,0,.6-.25,.74-.76v-.18c0-.23-.2-.42-.59-.56-.14-.1-.22-.26-.22-.5,0-.08,.12-.21,.37-.38v-.12c0-.12-.1-.3-.31-.56v-.09c.08-.18,.22-.26,.4-.26,.17,.14,.54,.26,1.11,.38,.47,0,.77-.09,.9-.26,.14-.22,.22-.39,.22-.53v-.18c0-.22-.21-.36-.62-.44h-.12c-.12,0-.5,.11-1.14,.32-.12,0-.71,.21-1.76,.62l-.19,.03h-.22l-.12-.12v-.09c0-.27,.19-.47,.56-.59,.23-.14,.54-.26,.93-.38v-.18c-.31-.27-.46-.46-.46-.56,0-.2,.16-.29,.46-.29Zm2.07,4.11c.62,.16,.93,.33,.93,.53,0,.18-.23,.29-.68,.35-.19,0-.34-.21-.46-.65,.02-.16,.09-.23,.22-.23Z"/>
      </g>
      <g>
        <path class="cls-1" d="M14.64,1.31c0-.06,.03-.1,.09-.1,.01,0,.02,0,.03,0h.01s0,.01,0,.01c.06-.03,.1-.05,.13-.07,.03-.02,.04-.03,.04-.04,0,0,0-.01,0-.02,0,0-.01,0-.02,0h-.83s0,0-.01,0c0,0-.01,0-.02,0-.01,0-.02-.02-.02-.04,0-.02,0-.03,.02-.04,0,0,.01,0,.02,0,0,0,0,0,.02,0h1.12c.06,0,.09,.02,.09,.07,0,.02-.01,.04-.04,.06-.03,.02-.08,.04-.15,.07-.03,.01-.07,.03-.12,.05l-.16,.06v.08h.66s0,0,.01,0c0,0,.01,0,.02,0,.01,0,.02,.02,.02,.04,0,.02,0,.03-.02,.04,0,0,0,0-.02,0,0,0-.01,0-.02,0h-.66v.2c0,.08-.02,.14-.06,.16-.03,.02-.08,.03-.17,.03h-.23s-.01,0-.02,0c0,0-.01,0-.01-.01,0,0,0-.02,0-.03s0-.02,0-.03c0,0,0-.01,.01-.01,0,0,0,0,.02,0h.17c.06,0,.09-.03,.09-.1v-.21h-.7s0,0-.01,0c0,0-.01,0-.02,0-.01,0-.02-.02-.02-.04s0-.03,.02-.04c0,0,0,0,.02,0,0,0,0,0,.02,0h.7v-.09Zm-.01-1.05v-.08s.01-.07,.04-.09c0,0,.02,0,.03-.01,0,0,.01,0,.02,0,0,0,.01,0,.02,0,.01,0,.02,0,.03,.01,.03,.02,.04,.05,.04,.09v.08h.68s0,0,.01,0c0,0,.01,0,.02,0,.01,0,.02,.02,.02,.04s0,.03-.02,.04c0,0,0,0-.02,0,0,0,0,0-.01,0h-1.54s-.01,0-.02,0c0,0-.01,0-.02,0-.01,0-.02-.02-.02-.04s0-.03,.02-.04c0,0,.02,0,.03,0h.68Zm.68,.47c0,.06-.02,.1-.05,.12-.02,.02-.06,.03-.11,.03h-.85c-.11,0-.16-.05-.16-.15v-.1c0-.06,.02-.1,.05-.12,.02-.02,.06-.03,.12-.03h.85c.11,0,.16,.05,.16,.15v.1Zm-.18-.08c0-.05-.02-.08-.07-.08h-.66s-.07,.03-.07,.08v.07c0,.05,.02,.08,.07,.08h.66s.07-.02,.07-.08v-.07Z"/>
        <path class="cls-1" d="M16.62,.77v-.14c0-.06,.02-.1,.07-.1s.07,.03,.07,.09v.15h.1v-.23s-.01-.05-.04-.05h-.09c-.07,0-.11-.04-.11-.11V.18c0-.07,.03-.11,.08-.11,.03,0,.05,.01,.07,.04,0,.02,.01,.04,.01,.08h.19s0,0,.01,0c0,0,.01,0,.02,0,.01,0,.02,.02,.02,.04,0,.02,0,.03-.02,.04,0,0,0,0-.02,0,0,0,0,0-.01,0h-.19v.08s.01,.04,.04,.04h.08s.06,0,.08,.02c.03,.02,.04,.05,.04,.09v.25h.26v-.13s-.14,0-.14,0c-.01,0-.03,0-.03-.02,0,0,0-.02,0-.03,0-.03,.01-.04,.04-.04h.15v-.12s-.15,0-.15,0c-.01,0-.03,0-.03-.02,0,0,0-.02,0-.03,0-.03,.01-.04,.04-.04h.16v-.11s0-.04-.02-.04h-.15s-.01,0-.01,0c0,0-.01,0-.02,0-.01,0-.02-.02-.02-.04s0-.03,.02-.04c0,0,0,0,.01,0,0,0,0,0,.01,0h.25c.08,0,.11,.04,.11,.11l-.03,.55h.12s0,0,.01,0c0,0,.01,0,.02,0,.01,0,.02,.02,.02,.04,0,.02,0,.03-.02,.04,0,0-.02,0-.03,0h-.33c.05,.09,.12,.16,.18,.22,.03,.02,.06,.05,.09,.07l.09,.06s0,0,0,0h0s0,.02,0,.04c0,.03-.01,.05-.04,.05-.03,0-.11-.04-.23-.12,0,.01-.02,.02-.04,.02h-1.03s-.02,0-.02,0h0s-.1,.05-.15,.08c-.02,.01-.04,.02-.06,.03-.02,0-.03,0-.04,0-.03,0-.04-.02-.04-.05,0-.01,0-.02,0-.03h.02c.09-.07,.16-.13,.22-.18,.06-.06,.12-.12,.16-.19h-.34s-.05-.02-.05-.05c0-.02,0-.03,.02-.04,0,0,0,0,.02,0,0,0,0,0,.01,0h.12l-.02-.49c0-.05,0-.09,.03-.1,0,0,.02-.01,.04-.02,.01,0,.03,0,.06-.01,.02,0,.05-.01,.09-.03l.07-.04s0,0,0,0c.03-.01,.04-.02,.06-.02,.06,0,.08,.03,.08,.09,0,.03-.01,.05-.04,.06-.03,.02-.09,.03-.19,.04-.02,0-.04,.02-.04,.04v.06h.19s.04,.01,.04,.04-.01,.04-.04,.04h-.18v.12h.18s.04,.01,.04,.04-.01,.04-.04,.04h-.17v.13h.28Zm.72,.98c0,.07-.04,.11-.12,.11h-.85c-.08,0-.12-.04-.12-.11v-.05s0-.08,.02-.09c.02-.02,.05-.03,.1-.03h.85c.08,0,.12,.04,.12,.11v.06Zm-.99-.4s-.01,0-.01,0c-.01,0-.02-.02-.02-.03,0-.02,0-.03,.02-.04,0,0,0,0,.02,0h.9s.01,0,.01,0c.01,0,.02,.02,.02,.03,0,.02,0,.03-.02,.04,0,0,0,0-.01,0h-.9Zm.01,.15s0,0-.01,0c0,0-.01,0-.01,0-.01,0-.02-.02-.02-.04s0-.03,.02-.04c0,0,0,0,.01,0,0,0,0,0,.01,0h.89s.01,0,.01,0c.01,0,.02,.02,.02,.04s0,.03-.02,.04c0,0,0,0-.01,0h-.89Zm.13-.46s-.02,0-.02,0c0,0,0,0-.01,0-.02,.01-.03,.03-.05,.04l-.05,.04h.91l-.11-.09s0,0-.01,0c0,0-.01,0-.02,0h-.63Zm.67,.66s-.02-.04-.06-.04h-.6s-.05,.01-.05,.04v.04s.02,.04,.05,.04h.6s.06-.01,.06-.04v-.04Zm-.54-.84s-.05,.07-.09,.1h.56s-.04-.04-.06-.06l-.03-.04h-.38Z"/>
        <path class="cls-1" d="M19.66,1.64c0,.14-.07,.21-.2,.21h-1.11c-.08,0-.13-.02-.17-.07-.02-.03-.04-.08-.04-.14V.35c0-.14,.07-.21,.2-.21h1.11c.08,0,.13,.02,.17,.07,.02,.03,.04,.08,.04,.14V1.64Zm-.18-1.3c0-.07-.03-.1-.09-.1h-.96c-.06,0-.09,.04-.09,.1V1.65c0,.07,.03,.1,.09,.1h.96c.06,0,.09-.03,.09-.1V.33Zm-.61,.93s.04,.01,.04,.04c0,.02,0,.03-.01,.04h-.02s-.08,.04-.13,.05c-.04,.01-.09,.02-.14,.04-.04,.01-.08,.02-.12,.03h-.05s-.07-.01-.07-.07c0-.03,0-.05,.03-.06,0,0,.02,0,.03,0h.02c.06,0,.12-.01,.2-.02h.1s.12-.03,.12-.03h.01Zm-.44-.65s0,0-.01,0c0,0-.01,0-.02,0-.01,0-.02-.02-.02-.04s0-.03,.02-.04c0,0,0,0,.02,0,0,0,0,0,.01,0h.5s0-.05,0-.09v-.05s0-.03,0-.03c0-.04,.04-.07,.08-.07,.06,0,.09,.03,.09,.1v.13h.27s0,0,.01,0c0,0,.01,0,.02,0,.01,0,.02,.02,.02,.04,0,.02,0,.03-.02,.04,0,0,0,0-.02,0,0,0,0,0-.01,0h-.27v.04s0,.03,0,.05c0,.04,0,.08,0,.11,0,.05,.01,.09,.02,.14,0,.05,.02,.1,.03,.16,.03-.06,.06-.15,.09-.25,0-.02,.01-.04,.02-.05,.01-.01,.03-.02,.06-.02,.06,0,.1,.03,.1,.09,0,.09-.07,.24-.22,.43v.02s.01,.02,.02,.02c0,.02,.01,.03,.02,.05,.02,.04,.03,.05,.05,.05,.02,0,.04-.03,.04-.08,0-.04,.03-.06,.06-.06,.05,0,.07,.02,.07,.07,0,0,0,.02-.01,.05,0,.03-.02,.06-.03,.09-.02,.04-.04,.07-.06,.09-.03,.03-.05,.04-.08,.04-.07,0-.13-.07-.19-.2-.06,.06-.13,.12-.2,.17-.06,.05-.1,.07-.12,.07-.03,0-.04-.02-.04-.05,0-.02,0-.03,.02-.04,.11-.08,.21-.17,.29-.29-.02-.07-.04-.14-.05-.21-.01-.06-.02-.13-.03-.2,0-.06-.01-.11-.02-.17v-.13h-.51Zm.45,.44c0,.08-.04,.11-.12,.11h-.19c-.08,0-.12-.04-.12-.11v-.19c0-.08,.04-.11,.12-.11h.19c.08,0,.12,.04,.12,.11v.19Zm-.13-.15s-.02-.06-.06-.06h-.05s-.06,.02-.06,.06v.11s.02,.06,.06,.06h.05s.06-.02,.06-.06v-.11Zm.5-.47s0-.01-.01-.02l-.05-.08s0-.01,0-.02c0-.03,.01-.05,.04-.05,0,0,.01,0,.03,0l.03,.02,.06,.04s.06,.06,.06,.09c0,.06-.03,.08-.08,.08-.02,0-.05-.03-.08-.08Z"/>
        <path class="cls-1" d="M20.39,1.79s0,.01,0,.02c0,.02,0,.03,0,.04-.01,.03-.04,.05-.08,.05s-.06-.02-.08-.05c0-.01,0-.03,0-.04,0,0,0-.01,0-.02V.3c0-.1,.05-.16,.16-.16h.27c.07,0,.11,.03,.11,.1,0,0,0,.02,0,.03,0,0,0,.02,0,.02l-.19,.47s0,.02,0,.02c0,0,0,0,0,0,0,0,0,0,.01,.02,.02,.04,.04,.07,.06,.1,.02,.04,.04,.08,.06,.12,.02,.05,.04,.1,.05,.14,.01,.06,.02,.11,.02,.16s0,.1-.02,.14c-.01,.03-.03,.06-.06,.07-.02,.01-.04,.02-.07,.03h-.03s-.12,0-.12,0c0,0,0,0-.01,0,0,0-.01,0-.02,0-.01,0-.02-.02-.02-.04,0-.02,0-.03,.02-.04,0,0,0,0,.02,0,0,0,0,0,.01,0h.04c.05,0,.08-.06,.08-.17,0-.1-.02-.2-.05-.29-.01-.03-.03-.07-.05-.1l-.05-.08s-.02-.04-.02-.06c0,0,0-.02,0-.04l.14-.48s-.01-.03-.03-.03h-.06s-.07,.03-.07,.08V1.79Zm.27,0s0-.03,.03-.05c.05-.05,.1-.11,.14-.18,.01-.02,.03-.05,.04-.08l.03-.06s.04-.06,.08-.06c.07,0,.1,.03,.1,.1,0,.02-.02,.06-.05,.1-.03,.04-.07,.08-.12,.12-.04,.04-.09,.08-.13,.1-.04,.03-.07,.05-.08,.05-.03,0-.04-.02-.04-.05Zm.55-1.56s.04,0,.05,.02c0-.03,0-.05,0-.06,0-.06,.03-.09,.1-.09,.05,0,.08,.02,.09,.07,0,0,0,0,0,.02v.07s.03-.03,.05-.03h.2c.07,0,.1,.03,.1,.08,0,.03-.03,.08-.09,.16-.02,.03-.05,.06-.08,.1l-.07,.08c.04,.07,.08,.13,.12,.18,.02,.02,.04,.04,.06,.06l.07,.06s0,.02,0,.03c0,.03-.01,.04-.04,.04,0,0-.01,0-.03-.01-.01,0-.03-.02-.05-.03-.04-.03-.07-.06-.11-.09-.05-.05-.09-.1-.13-.15-.03-.05-.06-.1-.09-.15-.02-.04-.04-.09-.06-.13,0-.02-.01-.04-.02-.06v-.05c-.04,.09-.09,.19-.15,.28-.05,.08-.11,.15-.17,.22-.12,.13-.2,.19-.24,.19-.03,0-.04-.02-.04-.05,0-.02,0-.03,.03-.05,.03-.03,.07-.06,.1-.09l.05-.06s0,0,0,0h0s-.04-.04-.06-.08l-.03-.05s-.01-.02-.02-.03c0-.01,0-.02,0-.02-.03,.03-.05,.05-.06,.05-.03,0-.04-.02-.04-.05,0,0,0-.01,0-.03,0,0,.01-.02,.02-.04l.04-.06c.03-.06,.06-.11,.07-.16,.01-.04,.03-.09,.05-.16v-.03s.02-.02,.02-.03c.01-.02,.04-.03,.07-.03,.07,0,.1,.03,.1,.09,0,.01,0,.03-.01,.05h.18Zm.17,1.51c0,.05,0,.09-.03,.12-.02,.03-.07,.05-.13,.05h-.21s-.01,0-.02,0c0,0-.01,0-.01-.01,0,0,0-.02,0-.03s0-.02,0-.03c0,0,0-.01,.01-.01,0,0,0,0,.02,0h.1s.07-.03,.07-.08v-.46h-.35s0,0-.01,0c0,0-.01,0-.02,0-.01,0-.02-.02-.02-.04,0-.02,0-.03,.02-.04,0,0,.01,0,.02,0,0,0,0,0,.01,0h.92s0,0,.01,0c0,0,.01,0,.02,0,.01,0,.02,.02,.02,.04,0,.02,0,.03-.02,.04,0,0,0,0-.02,0,0,0,0,0-.01,0h-.38v.47Zm-.4-1.09s.02-.04,.03-.06c0,0-.02,0-.03,0,0,0,0,0-.01-.01l-.06-.09s-.01-.02-.01-.02c-.02,.03-.05,.07-.09,.12,.01,0,.04,.02,.08,.05,.04,.03,.06,.05,.07,.07l.02-.03Zm0-.32s-.02,.04-.05,.08c0,0,.01,0,.02,0,.01,0,.02,0,.04,.02,.03,.02,.05,.03,.07,.05,.01-.03,.02-.06,.03-.09,0-.02,0-.03,0-.04,0,0,0,0,0-.01,0,0-.01,0-.02,0h-.09Zm.03,.65s-.01,0-.02,0-.01,0-.02,0c-.01,0-.02-.02-.02-.04,0-.02,0-.03,.02-.04,0,0,0,0,.02,0,0,0,0,0,.01,0h.53s0,0,.01,0c0,0,.01,0,.02,0,.01,0,.02,.02,.02,.04,0,.02,0,.03-.02,.04,0,0,0,0-.02,0,0,0,0,0-.01,0h-.53Zm.49-.65s-.02,0-.03,0c0,0,0,0-.01,0,.01,.07,.03,.15,.06,.22,.03-.05,.05-.09,.07-.13,.01-.03,.02-.04,.02-.05,0-.02-.01-.03-.03-.03h-.08Zm.21,1.49s-.07-.03-.09-.09c-.02-.05-.04-.1-.06-.15l-.07-.13s-.01-.02-.01-.03c0-.03,.01-.05,.04-.05,0,0,.01,0,.02,0,0,0,.02,.01,.03,.02l.05,.05,.06,.06s.05,.05,.06,.07c.04,.05,.07,.09,.07,.12,0,.07-.03,.11-.1,.11Z"/>
        <path class="cls-1" d="M23.86,1.77s0,0,.01,0c0,0,.01,0,.02,0,.01,0,.02,.02,.02,.04,0,.02,0,.03-.02,.04,0,0,0,0-.02,0,0,0,0,0-.01,0h-.81c-.1,0-.19-.01-.27-.04-.09-.03-.16-.07-.22-.13-.03,.03-.06,.06-.09,.09-.03,.02-.05,.04-.08,.06-.02,.01-.04,.03-.06,.04-.02,0-.03,.01-.03,.01-.03,0-.04-.02-.04-.05,0-.01,0-.03,.03-.04h.02s.01-.02,.02-.03l.05-.04s.08-.09,.12-.14c-.03-.05-.06-.1-.08-.15-.02-.05-.04-.1-.05-.15-.01-.04-.02-.08-.03-.12,0-.03,0-.05,0-.07,0-.03,.01-.06,.03-.08,.02-.01,.04-.02,.06-.02,.03,0,.06,.01,.07,.04,0,0,0,.02,.01,.03v.03c.02,.08,.02,.14,.03,.17,0,.04,.03,.09,.05,.15,.01-.04,.02-.09,.03-.14,0-.04,.02-.1,.02-.15,0-.04,0-.08,0-.13v-.07s0-.04-.01-.04c0,0,0,0-.01,0h-.15s-.07-.01-.08-.03c0,0,0-.02-.01-.03,0,0,0-.02,0-.02,0-.01,0-.04,.02-.07l.2-.43s.01-.03,.01-.03c0-.01,0-.02-.01-.02h-.01s-.25,0-.25,0c0,0-.01,0-.02,0,0,0-.01,0-.02,0-.01,0-.02-.02-.02-.04s0-.03,.02-.04c0,0,0,0,.02,0,0,0,0,0,.02,0h.37c.07,0,.1,.03,.1,.08,0,.01,0,.04-.03,.08l-.2,.45s0,0,0,.01c0,.01,0,.02,.01,.02h0s.09,0,.09,0c.09,0,.13,.04,.13,.12,0,.11-.01,.23-.04,.34-.03,.13-.07,.23-.12,.31,.02,.02,.04,.04,.06,.06,.03,.02,.05,.04,.09,.06,.04,.02,.08,.04,.13,.05,.05,.01,.11,.02,.18,.02h.76Zm-.45-.65h.32s0,0,.01,0c0,0,.01,0,.02,0,.01,0,.02,.02,.02,.04,0,.02,0,.03-.02,.04,0,0,0,0-.02,0,0,0,0,0-.01,0h-.32v.19h.41s0,0,.01,0c0,0,.01,0,.02,0,.01,0,.02,.02,.02,.04s0,.03-.02,.04c0,0,0,0-.02,0,0,0,0,0-.01,0h-.41v.11s0,.06-.02,.08c-.01,.03-.04,.04-.08,.04-.06,0-.09-.04-.09-.12v-.11h-.38s-.01,0-.02,0c0,0-.01,0-.02,0-.01,0-.02-.02-.02-.04,0-.02,0-.03,.02-.04,0,0,0,0,.02,0,0,0,0,0,.01,0h.38v-.19h-.3s0,0-.01,0c0,0-.01,0-.02,0-.01,0-.02-.02-.02-.04,0-.02,0-.03,.02-.04,0,0,0,0,.02,0,0,0,0,0,.01,0h.3v-.18h-.31s0,0-.01,0c0,0-.01,0-.02,0-.01,0-.02-.02-.02-.04,0-.02,0-.03,.02-.04,0,0,0,0,.02,0,0,0,0,0,.01,0h.31v-.21h-.4s0,0-.01,0c0,0-.01,0-.02,0-.01,0-.02-.02-.02-.04,0-.02,0-.03,.02-.04,0,0,.01,0,.02,0,0,0,0,0,.01,0h.4v-.2h-.3s0,0-.01,0c0,0-.01,0-.02,0-.01,0-.02-.02-.02-.04s0-.03,.02-.04c0,0,.01,0,.02,0,0,0,0,0,.01,0h.3v-.05s0-.06,.02-.08c.01-.03,.04-.04,.08-.04,.03,0,.06,.01,.07,.04,.01,.02,.02,.05,.02,.08v.05h.21c.11,0,.16,.05,.16,.16v.14h.07s0,0,.01,0c0,0,.01,0,.02,0,.01,0,.02,.02,.02,.04s0,.03-.02,.04c0,0-.01,0-.02,0,0,0,0,0-.01,0h-.07v.15c0,.1-.05,.16-.16,.16h-.21v.18Zm0-.58h.2v-.12c0-.05-.02-.08-.07-.08h-.12v.2Zm0,.31h.12s.07-.03,.07-.08v-.13h-.2v.21Z"/>
        <path class="cls-1" d="M24.7,.34c-.05,.07-.12,.13-.19,.19-.07,.06-.11,.09-.13,.09-.03,0-.04-.02-.04-.05,0,0,0-.01,0-.02,0,0,0-.01,.01-.02,.06-.07,.11-.13,.14-.19,.01-.03,.03-.05,.04-.09,0-.02,.02-.05,.04-.1,.02-.05,.05-.07,.09-.07,.08,0,.12,.03,.12,.1,0,.01,0,.02,0,.04,0,0,0,.01,0,.02h0s.34,.01,.34,.01c0,0,0,0,.01,0,0,0,.01,0,.02,0,.01,0,.02,.02,.02,.04,0,.02,0,.03-.02,.04,0,0,0,0-.02,0,0,0,0,0-.01,0h-.24l.02,.02,.03,.03s.04,.06,.04,.08c0,.06-.03,.09-.09,.09-.04,0-.06-.02-.07-.05l-.05-.17h-.04Zm.7,.97s.04,.06,.06,.08c.03,.04,.06,.07,.1,.11,.04,.04,.09,.08,.15,.12,.06,.04,.13,.08,.21,.11,.02,0,.03,.02,.03,.05,0,.03-.01,.05-.04,.05-.01,0-.04,0-.08-.03-.05-.02-.11-.04-.16-.07-.07-.04-.14-.08-.2-.12-.07-.05-.14-.11-.19-.17v.35s0,.07-.02,.08c-.02,.03-.04,.04-.08,.04-.04,0-.07-.02-.08-.05,0-.01,0-.03-.01-.04,0,0,0-.01,0-.02v-.36l-.05,.05s-.04,.04-.07,.06c-.03,.02-.06,.05-.09,.07-.04,.03-.07,.05-.11,.07-.07,.04-.15,.08-.22,.11-.06,.02-.1,.04-.11,.04-.02,0-.04-.02-.04-.05,0-.02,.01-.03,.03-.04l.05-.02s.04-.02,.06-.03c.05-.03,.09-.05,.14-.08,.05-.04,.1-.08,.15-.12,.05-.05,.1-.11,.14-.17h-.55s0,0-.01,0c0,0-.01,0-.02,0-.01,0-.02-.02-.02-.04s0-.03,.02-.04c0,0,0,0,.02,0,0,0,0,0,.01,0h.67v-.02s0-.02,0-.03c0-.02,0-.03,.01-.05,.01-.03,.04-.05,.08-.05s.07,.02,.08,.05c0,.01,0,.03,0,.05,0,0,0,.01,0,.02v.02h.67s0,0,.01,0c0,0,.01,0,.02,0,.01,0,.02,.02,.02,.04,0,.02,0,.03-.02,.04,0,0,0,0-.02,0,0,0,0,0-.01,0h-.55Zm-.56-.63v.28l.15-.02s.04,.01,.04,.04c0,.02-.01,.04-.03,.05-.03,.01-.12,.03-.25,.07-.07,.02-.13,.03-.18,.04-.06,.01-.1,.02-.12,.02s-.04,0-.05-.03c0-.01-.01-.03-.01-.05,0-.04,.02-.06,.05-.07,0,0,.02,0,.04,0h.03s.01,0,.02,0h.04s.01,0,.02,0h.03s.04,0,.04,0v-.3h-.15s0,0-.01,0c0,0-.01,0-.02,0-.01,0-.02-.02-.02-.04s0-.03,.02-.04c0,0,0,0,.02,0,0,0,0,0,.01,0h.5s.01,0,.02,0c.01,0,.02,.02,.02,.04s0,.03-.02,.04c0,0,0,0-.02,0,0,0,0,0-.01,0h-.15Zm.89,.43c-.1,0-.15-.05-.15-.14v-.21c0-.05-.02-.08-.07-.08h-.08s-.05,.02-.06,.06c-.01,.07-.03,.13-.06,.18-.03,.04-.06,.08-.09,.11-.03,.02-.06,.04-.08,.05,0,0-.02,0-.03,.01h-.01s-.04-.01-.04-.04c0-.02,.01-.03,.03-.05,.07-.05,.11-.15,.11-.3,0-.04,.02-.07,.04-.09,.01,0,.02-.01,.04-.01h.02s.29,0,.29,0c.11,0,.16,.05,.16,.16v.22s.02,.05,.06,.05c.02,0,.03,0,.04-.02,0-.02,.01-.05,.02-.11h0s0-.02,0-.02c0,0,0-.02,0-.02,.01-.02,.03-.03,.05-.03,0,0,.01,0,.02,0,0,0,.02,0,.02,.01,.02,.01,.03,.03,.03,.06,0,.05-.01,.1-.04,.15-.02,.04-.06,.07-.11,.07h-.13Zm.22-.86s0,0,.01,0c0,0,.01,0,.02,0,.01,0,.02,.02,.02,.04,0,.02,0,.03-.02,.04,0,0,0,0-.02,0,0,0,0,0-.01,0h-.31c.06,.05,.08,.09,.08,.12,0,.06-.03,.09-.09,.09-.04,0-.07-.02-.08-.06-.03-.08-.04-.14-.06-.16h-.1c-.05,.07-.11,.13-.17,.18-.05,.04-.08,.07-.1,.07-.03,0-.04-.02-.04-.05,0-.01,0-.02,.02-.04,.05-.07,.08-.13,.11-.19,.01-.02,.02-.05,.03-.08l.03-.09s0,0,0-.01c0-.01,0-.02,.01-.03,.01-.02,.04-.03,.07-.03,.08,0,.12,.03,.12,.1,0,.01,0,.03,0,.04,0,0,0,.01,0,.02v.02s.49,0,.49,0Zm-.53,.57h.03s.04,.03,.04,.03c.05,.02,.07,.05,.07,.08,0,.06-.02,.09-.07,.09-.02,0-.04-.03-.08-.08-.02-.03-.03-.05-.04-.06,0,0,0-.02,0-.02,0-.03,.01-.05,.04-.05,0,0,.01,0,.02,0Z"/>
        <path class="cls-1" d="M27.17,.18s0-.01,0-.02c0-.02,0-.03,.01-.04,.01-.03,.04-.05,.08-.05s.07,.02,.09,.05c0,.01,0,.03,.01,.04,0,0,0,.01,0,.02v.46h.67s0,0,.01,0c0,0,.01,0,.02,0,.01,0,.02,.02,.02,.04,0,.02,0,.03-.02,.04,0,0,0,0-.02,0,0,0,0,0-.01,0h-.66c.02,.23,.09,.44,.2,.62,.12,.19,.27,.33,.46,.43,.03,.02,.05,.03,.05,.05,0,.03-.01,.05-.04,.05,0,0-.01,0-.03,0-.02,0-.04-.02-.07-.03-.03-.02-.06-.03-.1-.05-.04-.02-.08-.05-.12-.08-.04-.03-.08-.06-.12-.1-.04-.04-.09-.08-.12-.13-.09-.11-.16-.23-.21-.36-.06,.14-.13,.25-.2,.34-.08,.11-.19,.2-.31,.28-.05,.03-.11,.07-.16,.09-.05,.03-.09,.04-.1,.04-.03,0-.04-.02-.04-.05,0-.01,0-.02,.01-.03l.05-.03s.02-.01,.04-.02c.03-.02,.06-.04,.08-.06,.04-.03,.07-.05,.1-.08,.04-.03,.07-.07,.11-.11,.04-.04,.07-.09,.1-.14,.04-.06,.07-.11,.09-.17,.06-.14,.1-.29,.11-.46h-.65s-.01,0-.02,0c0,0-.01,0-.02,0-.01,0-.02-.02-.02-.04s0-.03,.02-.04c0,0,.01,0,.02,0,0,0,0,0,.01,0h.66s0-.05,0-.1V.18Z"/>
        <path class="cls-1" d="M28.61,.45s0-.08,.02-.1c.02-.03,.06-.05,.12-.05,.01-.03,.03-.06,.04-.09,0-.01,0-.02,.01-.04v-.02c.03-.05,.05-.08,.09-.08,.07,0,.1,.03,.1,.09,0,.03-.03,.08-.09,.14h.13c.11,0,.16,.05,.16,.16v.3c0,.1-.05,.16-.16,.16h-.25v.23h.26c.11,0,.16,.05,.16,.16v.39c0,.1-.05,.16-.16,.16h-.28c-.11,0-.16-.05-.16-.16V.45Zm.18,.37h.16s.07-.03,.07-.08V.47c0-.06-.02-.08-.07-.08h-.09s-.07,.03-.07,.08v.35Zm0,.41v.44c0,.05,.02,.08,.07,.08h.1s.07-.03,.07-.08v-.36c0-.06-.02-.08-.07-.08h-.17Zm1.03-.64h.14c.12,0,.18,.06,.18,.17v.74c0,.12-.06,.18-.18,.18h-.08s-.04-.01-.04-.04c0-.03,.02-.05,.07-.05,.05,0,.07-.03,.07-.08V.76c0-.06-.03-.08-.08-.08h-.08V1.78s0,.06-.02,.08c-.02,.03-.04,.04-.07,.04-.06,0-.09-.04-.09-.12V.67h-.08c-.05,0-.08,.03-.08,.08v.84s0,.05-.01,.07c-.01,.02-.04,.04-.07,.04-.05,0-.08-.04-.08-.11V.76c0-.12,.06-.17,.17-.17h.14V.27h-.32s-.01,0-.02,0c0,0-.01,0-.02,0-.01,0-.02-.02-.02-.04,0-.02,0-.03,.02-.04,0,0,0,0,.02,0,0,0,0,0,.01,0h.82s.01,0,.02,0c0,0,.01,0,.02,0,.01,0,.02,.02,.02,.04s0,.03-.02,.04c0,0-.01,0-.02,0,0,0,0,0-.02,0h-.32v.31Z"/>
      </g>
      <g>
        <path class="cls-1" d="M32.75,1.72s0,.01,0,.02c0,.02,0,.03,0,.04-.01,.03-.04,.05-.07,.05s-.06-.02-.07-.05c0-.01,0-.03,0-.04,0,0,0-.01,0-.02V.22c0-.1,.05-.16,.16-.16h.27c.08,0,.12,.03,.12,.1,0,.02,0,.03-.01,.06l-.19,.49s0,.01,0,.02c0,0,0,.01,.01,.03l.07,.1s.04,.08,.06,.11c.04,.09,.05,.18,.05,.28,0,.04,0,.09-.01,.12-.01,.05-.04,.1-.07,.13-.03,.02-.06,.03-.11,.03h-.09s-.01,0-.02,0c0,0-.01,0-.02,0-.01,0-.02-.02-.02-.04,0-.03,.03-.05,.08-.05,.06,0,.09-.07,.09-.21,0-.08-.01-.16-.03-.22,0-.03-.02-.06-.04-.1l-.06-.12s0,0,0,0c-.01-.02-.02-.04-.02-.05,0,0,0-.01,0-.02,0,0,0,0,0,0l.15-.49s0-.01,0-.02v-.02s-.02-.01-.03-.01h-.08s-.07,.03-.07,.08V1.72Zm1.05-.55c.03,.09,.09,.19,.16,.29,.07,.09,.13,.16,.2,.21h0s0,.02,0,.02c0,0,0,.02,0,.03,0,.03-.01,.05-.04,.05-.02,0-.08-.04-.17-.11-.05-.04-.09-.08-.13-.13-.05-.05-.09-.11-.12-.16v.37s0,.01,0,.02c0,.02,0,.03,0,.04-.01,.03-.04,.05-.08,.05s-.07-.02-.08-.05c0-.01,0-.03,0-.04,0,0,0-.01,0-.02v-.35c-.04,.06-.1,.12-.16,.18-.05,.05-.1,.09-.16,.13-.04,.03-.09,.06-.13,.08-.03,.02-.05,.03-.06,.03-.03,0-.04-.02-.04-.05,0-.02,.01-.03,.03-.05,.11-.08,.2-.17,.29-.27,.07-.09,.13-.18,.16-.26h-.14c-.12,0-.17-.06-.17-.18v-.35c0-.12,.06-.18,.17-.18h.21v-.18h-.36s0,0-.01,0c0,0-.01,0-.02,0-.01,0-.02-.02-.02-.04,0-.02,0-.03,.02-.04,0,0,0,0,.02,0,0,0,0,0,.02,0h.36V.11s0-.01,0-.02c0-.02,0-.03,0-.04,.01-.03,.04-.05,.08-.05s.07,.02,.08,.05c0,.01,0,.03,0,.04,0,0,0,.01,0,.02v.08h.4s.01,0,.02,0c0,0,.01,0,.02,0,.01,0,.02,.02,.02,.04s0,.03-.02,.04c0,0,0,0-.02,0,0,0-.01,0-.02,0h-.4v.18h.21c.12,0,.18,.06,.18,.18v.35c0,.12-.06,.18-.18,.18h-.13Zm-.26-.61h-.13c-.05,0-.08,.03-.08,.09v.13h.21v-.21Zm0,.3h-.21v.13c0,.06,.03,.08,.08,.08h.13v-.22Zm.18-.09h.21v-.13c0-.06-.03-.09-.08-.09h-.14v.21Zm0,.31h.14c.05,0,.08-.03,.08-.08v-.13h-.21v.22Z"/>
        <path class="cls-1" d="M35,1.72s0,.01,0,.02c0,.02,0,.03,0,.04-.01,.03-.04,.05-.08,.05-.04,0-.07-.02-.08-.05,0-.01,0-.03-.01-.04,0,0,0-.01,0-.02V.72c-.03,.05-.06,.1-.09,.14-.04,.06-.07,.09-.09,.09-.03,0-.04-.01-.04-.04,0,0,0-.02,.01-.03l.07-.16s0-.01,0-.02c.02-.04,.03-.07,.05-.11,.02-.05,.04-.09,.05-.14,.02-.06,.04-.11,.05-.16,.02-.06,.03-.12,.04-.18v-.03s.02-.02,.02-.04c.02-.02,.04-.04,.08-.04,.08,0,.12,.04,.12,.1,0,.02-.01,.06-.03,.12-.02,.05-.04,.1-.06,.16V1.72Zm.8-.43s0-.01,0-.02c0-.02,0-.03,0-.04,.01-.03,.04-.05,.08-.05s.07,.02,.08,.05c0,.01,0,.03,0,.04,0,0,0,.01,0,.02v.05h.21s0,0,.01,0c0,0,.01,0,.02,0,.01,0,.02,.02,.02,.04,0,.02,0,.03-.02,.04,0,0-.01,0-.02,0,0,0,0,0-.01,0h-.21v.22c0,.1-.05,.16-.16,.16h-.22s0,0-.01,0c0,0-.01,0-.02,0-.01,0-.02-.02-.02-.04,0-.02,0-.03,.02-.04,0,0,0,0,.02,0,0,0,0,0,.01,0h.12s.07-.03,.07-.08v-.21h-.7s0,0-.01,0c0,0-.01,0-.02,0-.01,0-.02-.02-.02-.04s0-.03,.02-.04c0,0,0,0,.02,0,0,0,0,0,.01,0h.7v-.05Zm-.24-1.03h-.42s-.01,0-.02,0c0,0-.01,0-.02,0-.01,0-.02-.02-.02-.04,0-.02,0-.03,.02-.04,0,0,0,0,.02,0,0,0,0,0,.01,0h.42v-.06s0-.01,0-.02c0-.02,0-.03,0-.04,.01-.03,.04-.05,.08-.05,.04,0,.07,.02,.08,.05,0,.01,0,.03,0,.04,0,0,0,.01,0,.02v.06h.46s.01,0,.02,0c.01,0,.02,.02,.02,.04s0,.03-.02,.04c0,0,0,0-.02,0,0,0,0,0-.01,0h-.44v.12h.22c.11,0,.16,.05,.16,.16v.27s0,.09-.03,.11c-.02,.03-.06,.05-.12,.05,.06,.04,.11,.07,.15,.1,.03,.02,.06,.04,.07,.06,.03,.03,.04,.05,.04,.08,0,.07-.03,.1-.1,.1-.03,0-.05-.01-.06-.04,0-.02-.02-.03-.03-.06l-.03-.04c-.06,0-.21,.02-.43,.04-.11,.01-.2,.02-.27,.02-.09,0-.14,.01-.17,.01-.03,0-.04-.01-.05-.03,0,0,0-.01-.01-.02,0,0,0-.01,0-.02,0-.05,.03-.07,.08-.07h.4v-.13h-.22c-.11,0-.16-.05-.16-.16v-.27c0-.1,.05-.16,.16-.16h.22v-.12Zm-.2,1.4s-.05-.08-.09-.12c0,0-.01-.02-.01-.03,0-.03,.01-.05,.04-.05,0,0,.01,0,.03,0l.1,.05c.09,.05,.14,.1,.14,.14,0,.07-.03,.11-.1,.11-.03,0-.07-.03-.1-.1Zm.2-1.19h-.13s-.07,.03-.07,.08v.07h.21v-.15Zm0,.24h-.21v.07c0,.06,.02,.08,.07,.08h.13v-.15Zm.18-.09h.21v-.07c0-.06-.02-.08-.07-.08h-.14v.15Zm0,.24h.14s.07-.03,.07-.08v-.07h-.21v.15Zm0,.21h.04s.04,0,.06,0h.11s-.05-.07-.05-.08c0,0,0-.02,0-.02h0s-.17-.01-.17-.01v.12Z"/>
        <path class="cls-1" d="M37.64,1.64c0,.07-.02,.12-.05,.14-.03,.03-.08,.04-.14,.04h-.2s0,0-.01,0c0,0-.01,0-.02,0,0,0-.01,0-.02-.01,0,0,0-.02,0-.03s0-.02,0-.03c0,0,0-.01,.02-.01,0,0,.01,0,.02,0h.13c.06,0,.08-.03,.08-.09v-.57h-.67s-.01,0-.02,0c0,0-.01,0-.02,0-.01,0-.02-.02-.02-.04s0-.03,.02-.04c0,0,0,0,.02,0,0,0,0,0,.02,0h1.53s.01,0,.02,0c0,0,.01,0,.02,0,.01,0,.02,.02,.02,.04,0,.02,0,.03-.02,.04,0,0,0,0-.02,0,0,0,0,0-.01,0h-.67v.57Zm-.9,.09s0-.03,.03-.05c.11-.11,.21-.26,.29-.43,.02-.05,.05-.07,.09-.07,.07,0,.11,.04,.11,.11,0,.03-.02,.07-.07,.12-.04,.05-.09,.1-.15,.16-.06,.05-.11,.1-.16,.14-.05,.04-.08,.06-.1,.06-.02,0-.04-.01-.04-.04Zm.7-1.5V.11c0-.08,.03-.11,.1-.11s.1,.04,.1,.11v.12h.51c.12,0,.17,.06,.17,.17v.18s0,.02,0,.02c0,.02,0,.03-.01,.04-.02,.04-.04,.05-.08,.05s-.07-.02-.08-.05c0-.01,0-.03-.01-.05,0,0,0-.01,0-.02v-.16c0-.06-.03-.09-.08-.09h-1c-.06,0-.08,.03-.08,.09v.16s0,.01,0,.02c0,.02,0,.03-.01,.05-.01,.03-.04,.05-.08,.05s-.07-.02-.08-.05c0-.01,0-.03-.01-.04,0,0,0-.01,0-.02v-.18c0-.11,.06-.17,.17-.17h.51Zm.55,.37s.01,0,.02,0c0,0,.01,0,.02,0,.01,0,.02,.02,.02,.04,0,.02,0,.03-.02,.04,0,0-.01,0-.02,0,0,0,0,0-.01,0h-.9s-.01,0-.02,0c0,0-.01,0-.02,0-.01,0-.02-.02-.02-.04s0-.03,.02-.04c0,0,0,0,.02,0,0,0,0,0,.02,0h.9Zm-.15,.59s.02,0,.04,.02c.02,.01,.04,.03,.07,.05,.02,.02,.04,.04,.07,.06,.01,0,.02,.02,.03,.02l.02,.02c.1,.08,.16,.15,.19,.19,.02,.03,.04,.06,.04,.08,0,.03-.01,.06-.03,.08-.02,.03-.05,.04-.08,.04-.03,0-.05-.01-.07-.03,0,0-.01-.02-.02-.03,0,0,0-.01,0-.02v-.02c-.04-.07-.08-.14-.13-.21-.02-.03-.04-.06-.07-.09l-.07-.08s0-.01-.01-.02c0,0,0-.01,0-.02,0-.03,.01-.04,.04-.04Z"/>
      </g>
      <g>
        <path class="cls-1" d="M16.9,14.68c-.09,.02-.16,.03-.2,.04-.06,.01-.1,.02-.12,.02-.06,0-.1-.04-.1-.11,0-.04,.02-.07,.05-.09,.02-.01,.08-.02,.19-.02,.04-.04,.07-.08,.11-.13,.03-.03,.05-.07,.07-.1-.03,0-.05-.03-.08-.07-.04-.07-.08-.13-.13-.2-.04-.05-.08-.1-.14-.16l-.02-.02s0-.02,0-.03c0-.04,.02-.06,.06-.06,0,0,.02,0,.03,.01,.01,0,.03,.02,.05,.03l.09,.07,.03-.05s.03-.04,.04-.07c.04-.06,.07-.13,.1-.21,.04-.1,.09-.14,.14-.14,.04,0,.07,.01,.1,.03,.03,.02,.05,.05,.05,.09,0,.01,0,.02,0,.03,0,0,0,.02-.01,.03-.01,.02-.04,.06-.09,.11-.04,.05-.09,.11-.14,.16l-.09,.1,.09,.08s.03,.03,.04,.04c.01,.01,.02,.02,.02,.03,.03-.05,.06-.08,.07-.11l.09-.16s.03-.05,.04-.06c.02-.02,.05-.03,.08-.03,.1,0,.14,.04,.14,.13,0,.03-.05,.11-.16,.23-.13,.15-.26,.29-.38,.41,.18,0,.31-.02,.37-.03l-.05-.14s0-.02,0-.03c0-.04,.02-.05,.05-.05,.01,0,.03,.01,.06,.04,.03,.03,.06,.06,.1,.1,.08,.1,.13,.18,.13,.23,0,.08-.04,.13-.12,.13-.05,0-.08-.02-.09-.06l-.03-.11-.18,.04v.97s0,.02,0,.02c0,.02,0,.04-.01,.05-.02,.04-.05,.06-.11,.06s-.09-.02-.11-.06c0-.02-.01-.03-.01-.05,0,0,0-.01,0-.02v-.91Zm-.09,.16s.04,.05,.04,.08c0,.06-.03,.16-.08,.31-.05,.15-.1,.26-.14,.33-.02,.03-.04,.05-.06,.05-.04,0-.06-.02-.06-.06,0,0,0-.02,0-.03l.03-.13c.02-.1,.04-.26,.06-.47,0-.07,.04-.11,.11-.11,.03,0,.06,0,.08,.03Zm.54,.01c.05,.07,.1,.15,.14,.25,.05,.1,.07,.16,.07,.19,0,.08-.04,.12-.13,.12-.08,0-.12-.04-.12-.13-.01-.14-.03-.27-.07-.38,0-.02,0-.03,0-.04,0-.04,.02-.06,.06-.06,.02,0,.04,.02,.07,.05Zm.93,.03v.66h.53s.01,0,.02,0c0,0,.02,0,.02,0,.02,0,.03,.02,.03,.05,0,.02,0,.04-.03,.05,0,0-.01,0-.02,0,0,0-.01,0-.02,0h-1.35s-.01,0-.02,0c0,0-.02,0-.02,0-.02,0-.03-.02-.03-.05s0-.04,.03-.05c0,0,.01,0,.02,0,0,0,.01,0,.02,0h.56v-.66h-.39s-.01,0-.02,0c0,0-.02,0-.02,0-.02-.01-.03-.03-.03-.05,0-.02,0-.04,.03-.05,0,0,.01,0,.02,0,0,0,.01,0,.02,0h1.09s.01,0,.02,0c0,0,.02,0,.02,0,.02,.01,.03,.03,.03,.05,0,.02,0,.04-.03,.05,0,0-.01,0-.02,0,0,0-.01,0-.02,0h-.42Zm.46-1.39s.02,0,.02,0c0,0,.02,0,.02,0,.02,.01,.03,.03,.03,.05s0,.04-.03,.05c0,0-.01,0-.02,0,0,0-.01,0-.02,0h-1.2s-.02,0-.02,0c0,0-.02,0-.02,0-.02,0-.03-.02-.03-.05,0-.02,0-.04,.03-.05,0,0,.01,0,.02,0,0,0,.01,0,.02,0h1.2Zm-.83,.3s-.02,.08-.07,.15c-.02,.03-.04,.06-.07,.09,0,.02-.02,.03-.04,.05l-.03,.04s0,0,0,0c0,0,0,0,0,0l-.02,.03s-.02,.03-.02,.04c0,.01,.01,.03,.03,.05l.08,.08s.06,.06,.09,.09c.03,.04,.05,.07,.07,.09,.02,.03,.03,.05,.03,.07,0,.09-.05,.13-.14,.13-.04,0-.06-.01-.08-.03,0,0-.01-.02-.02-.03v-.03c-.06-.11-.12-.24-.19-.36v-.02s-.02-.02-.02-.03c0-.02,0-.04,.02-.07,.03-.06,.06-.12,.08-.18,0-.03,.02-.06,.03-.09l.04-.11c.02-.05,.05-.08,.11-.08,.09,0,.14,.04,.14,.11Zm.4,0s-.02,.07-.05,.12c-.01,.02-.03,.04-.05,.07l-.08,.11s-.02,.02-.02,.03l-.04,.05s-.02,.02-.02,.03c0,0,0,.02,0,.03l.06,.06s.05,.05,.07,.07c.03,.03,.06,.06,.08,.09,.03,.04,.05,.07,.06,.09,.02,.03,.03,.05,.03,.07,0,.08-.04,.12-.13,.12-.03,0-.06-.01-.08-.03,0-.01-.02-.03-.03-.06-.04-.1-.07-.17-.1-.22-.02-.03-.05-.08-.1-.16-.01-.02-.02-.04-.02-.06,0-.02,0-.04,.03-.08,.02-.05,.05-.11,.08-.2,.01-.03,.02-.06,.03-.09l.02-.05c.02-.06,.06-.09,.12-.09,.09,0,.14,.04,.14,.11Zm.38-.09s.05,.05,.05,.09c0,.04-.08,.16-.24,.36v.02s-.02,.01-.02,.02c0,.01,.01,.03,.03,.05,.03,.03,.05,.05,.08,.08,.03,.03,.06,.07,.09,.1,.06,.08,.1,.13,.1,.16,0,.08-.04,.13-.13,.13-.03,0-.06-.01-.08-.04-.02-.02-.06-.1-.12-.22,0,0,0-.02-.01-.03,0,0,0,0,0-.02,0,0,0,0,0,0l-.03-.06s-.04-.08-.06-.1c0-.01-.01-.03-.01-.05,0,0,0-.03,.02-.06l.15-.38s.06-.06,.11-.06c.03,0,.06,0,.09,.03Z"/>
        <path class="cls-1" d="M22.37,14.95v-1.03c0-.15,.08-.22,.25-.22h.29v-.16s0-.02,0-.02c0-.02,0-.04,.02-.06,.02-.04,.06-.07,.11-.07s.09,.02,.12,.07c0,.02,.01,.03,.01,.06,0,0,0,.01,0,.02v.16h.28v-.16s0-.02,0-.03c0-.02,0-.04,.02-.05,.02-.04,.06-.07,.12-.07s.09,.02,.11,.07c0,.02,.01,.03,.01,.06,0,0,0,.01,0,.02v.16h.29c.17,0,.25,.07,.25,.22v1.03h.16s.01,0,.02,0c0,0,.02,0,.02,0,.02,0,.03,.02,.03,.05,0,.02,0,.04-.03,.05-.01,0-.03,0-.05,0h-2.2s-.01,0-.02,0c0,0-.02,0-.02,0-.02-.01-.03-.03-.03-.05,0-.02,.01-.04,.03-.05,0,0,.01,0,.02,0,0,0,.01,0,.02,0h.15Zm.66,.45s-.14,.09-.27,.15c-.06,.03-.13,.06-.2,.08-.06,.02-.11,.04-.17,.06-.05,.01-.09,.02-.12,.03-.03,0-.05,.01-.06,.01-.04,0-.06-.02-.06-.06,0-.02,0-.03,.02-.04,0,0,.01,0,.02-.01h.02c.1-.05,.2-.1,.3-.16,.11-.07,.21-.15,.29-.23,.05-.05,.1-.08,.13-.08,.04,0,.07,.01,.1,.04,.04,.03,.06,.07,.06,.13,0,.04-.02,.07-.06,.1Zm-.12-1.09v-.49h-.16c-.07,0-.11,.04-.11,.11v.38h.27Zm0,.64v-.53h-.27v.53h.27Zm.54-.64v-.49h-.28v.49h.28Zm0,.64v-.53h-.28v.53h.28Zm.16,.22s.07-.04,.1-.04c.03,0,.05,0,.07,.02,.02,.01,.06,.05,.13,.12,.14,.14,.31,.25,.51,.34,.03,.01,.04,.03,.04,.06,0,.04-.02,.06-.06,.06-.05,0-.13-.02-.26-.07-.11-.04-.21-.08-.29-.12-.13-.06-.22-.11-.26-.15-.03-.03-.05-.06-.05-.09,0-.05,.02-.09,.06-.13Zm.38-.86v-.38c0-.07-.04-.11-.11-.11h-.17v.49h.27Zm-.27,.12v.53h.27v-.53h-.27Z"/>
        <path class="cls-1" d="M28.38,15.58s0,.02,0,.03c0,.02,0,.04-.02,.06-.02,.04-.06,.06-.12,.06s-.1-.02-.12-.06c0-.02-.01-.03-.02-.06,0,0,0-.02,0-.03v-1.25l-.07,.07s-.06,.06-.09,.08c-.03,.03-.06,.05-.09,.07-.03,.02-.05,.03-.06,.03-.04,0-.06-.02-.06-.06,0-.02,.01-.04,.05-.07,.22-.25,.4-.55,.52-.91l.02-.04s.02-.03,.03-.04c.03-.03,.06-.05,.11-.05,.11,0,.17,.05,.17,.14,0,.04-.03,.11-.09,.21-.02,.04-.05,.08-.08,.13l-.08,.12v1.58Zm.73-1.64h-.09c-.07,.09-.15,.2-.24,.3-.05,.06-.09,.1-.12,.13-.04,.04-.07,.05-.08,.05-.04,0-.06-.02-.06-.06,0-.02,.01-.04,.04-.07l.05-.07s.06-.09,.09-.15c.04-.07,.08-.15,.11-.23,.04-.09,.07-.19,.1-.29l.02-.06s.02-.04,.03-.05c.03-.04,.06-.05,.11-.05,.04,0,.08,.01,.11,.04,.04,.03,.06,.06,.06,.11,0,.03-.02,.08-.05,.14-.02,.04-.05,.09-.09,.14h.95s.01,0,.02,0c0,0,.02,0,.02,0,.02,0,.03,.02,.03,.05,0,.02,0,.04-.03,.05,0,0-.01,0-.02,0,0,0-.01,0-.02,0h-.66v.49h.6s.01,0,.02,0c0,0,.02,0,.02,0,.02,0,.03,.02,.03,.05,0,.02,0,.04-.03,.05,0,0-.01,0-.02,0,0,0-.01,0-.02,0h-.6v.49h.6s.01,0,.02,0c0,0,.02,0,.02,0,.02,0,.03,.02,.03,.05,0,.02,0,.04-.03,.05,0,0-.01,0-.02,0,0,0-.01,0-.02,0h-.6v.41s0,.02,0,.03c0,.02,0,.04-.02,.06-.02,.04-.06,.06-.12,.06s-.1-.02-.12-.06c0-.02-.01-.03-.02-.06,0,0,0-.02,0-.03v-1.63Z"/>
        <path class="cls-1" d="M34.46,15.45c0,.14-.08,.21-.25,.21h-.5c-.17,0-.25-.07-.25-.21v-.61c0-.14,.08-.21,.25-.21h.5c.17,0,.25,.07,.25,.21v.61Zm-.26-.6c0-.08-.04-.11-.11-.11h-.25c-.08,0-.11,.04-.11,.11v.58c0,.08,.04,.11,.11,.11h.25c.08,0,.11-.04,.11-.11v-.58Zm1.11-.74c0,.09-.02,.15-.07,.19-.04,.03-.11,.05-.2,.05h-.96c-.18,0-.27-.08-.27-.24v-.41c0-.09,.02-.15,.07-.19,.04-.03,.11-.05,.2-.05h.96c.18,0,.27,.08,.27,.24v.41Zm-.28-.42c0-.08-.04-.12-.12-.12h-.71c-.08,0-.12,.04-.12,.12v.42c0,.08,.04,.12,.12,.12h.71c.08,0,.12-.04,.12-.12v-.42Zm.63,1.75c0,.14-.08,.21-.25,.21h-.51c-.17,0-.25-.07-.25-.21v-.61c0-.14,.08-.21,.25-.21h.51c.17,0,.25,.07,.25,.21v.61Zm-.27-.6c0-.08-.04-.11-.12-.11h-.25c-.08,0-.12,.04-.12,.11v.58c0,.08,.04,.11,.12,.11h.25c.08,0,.12-.04,.12-.11v-.58Z"/>
      </g>
      <rect class="cls-1" x="20.66" y="13.31" width=".1" height="2.21"/>
      <rect class="cls-1" x="14.82" y="13.31" width=".1" height="2.21"/>
      <rect class="cls-1" x="26.11" y="13.31" width=".1" height="2.21"/>
      <rect class="cls-1" x="31.56" y="13.31" width=".1" height="2.21"/>
      <rect class="cls-1" x="37.28" y="13.31" width=".1" height="2.21"/>
    </g>
  </g>
</svg>