<?xml version="1.0" encoding="UTF-8"?>
<svg id="_圖層_2" data-name="圖層 2" xmlns="http://www.w3.org/2000/svg" viewBox="0 0 64.44 26.41">
  <defs>
    <style>
      .cls-1 {
        fill: #7a6a56;
      }
    </style>
  </defs>
  <g id="_圖層_1-2" data-name="圖層 1">
    <g>
      <rect class="cls-1" x="25.62" y="13.31" width=".1" height="2.21"/>
      <rect class="cls-1" x="19.77" y="13.31" width=".1" height="2.21"/>
      <rect class="cls-1" x="31.07" y="13.31" width=".1" height="2.21"/>
      <rect class="cls-1" x="36.52" y="13.31" width=".1" height="2.21"/>
      <rect class="cls-1" x="42.23" y="13.31" width=".1" height="2.21"/>
      <g>
        <g>
          <path class="cls-1" d="M33.99,1.72s0,.01,0,.02c0,.02,0,.03,0,.04-.02,.03-.04,.05-.08,.05s-.07-.02-.08-.05c0-.01,0-.03-.01-.04,0,0,0-.01,0-.02V.94c-.05,.11-.1,.21-.15,.29-.06,.09-.1,.14-.12,.14-.03,0-.04-.02-.04-.05,0,0,0-.02,.01-.04,.14-.23,.23-.48,.27-.74h-.22s-.01,0-.02,0c0,0-.01,0-.02,0-.01,0-.02-.02-.02-.04,0-.02,0-.03,.02-.04,0,0,0,0,.02,0,0,0,0,0,.01,0h.25V.12s0-.01,0-.02c0-.02,0-.03,.01-.04,.01-.03,.04-.05,.08-.05,.04,0,.07,.02,.08,.05,0,.01,0,.03,0,.04,0,0,0,.01,0,.02V.45h.19s.01,0,.02,0c0,0,.01,0,.02,0,.01,0,.02,.02,.02,.04,0,.02,0,.03-.02,.04,0,0-.01,0-.02,0,0,0,0,0-.01,0h-.18c.01,.08,.04,.18,.08,.27,.03,.09,.07,.18,.12,.26,.01,.02,.02,.03,.02,.04,0,.03-.01,.04-.04,.04,0,0-.02,0-.02,0,0,0,0,0-.01-.02-.02-.03-.05-.07-.08-.11-.02-.03-.04-.07-.06-.11v.8Zm.75-.06h.34s.01,0,.02,0c0,0,.01,0,.02,0,.01,0,.02,.02,.02,.04,0,.02,0,.03-.02,.04,0,0,0,0-.02,0,0,0,0,0-.01,0h-.96s-.01,0-.02,0c0,0-.01,0-.02,0-.01,0-.02-.02-.02-.04,0-.02,0-.03,.02-.04,0,0,0,0,.02,0,0,0,0,0,.01,0h.42V.74h-.28s0,0-.02,0c0,0-.01,0-.02,0-.01,0-.02-.02-.02-.04,0-.02,0-.03,.02-.04,0,0,0,0,.02,0,0,0,0,0,.01,0h.28V.12c0-.08,.03-.12,.1-.12s.1,.04,.1,.12V.65h.3s0,0,.01,0c0,0,.01,0,.02,0,.01,0,.02,.02,.02,.04,0,.02,0,.03-.02,.04,0,0-.01,0-.02,0,0,0,0,0-.01,0h-.3v.92Z"/>
          <path class="cls-1" d="M36.33,.18V.11s0-.02,0-.02c0-.02,0-.03,.01-.04,.01-.03,.04-.05,.08-.05s.07,.02,.08,.05c0,.01,0,.02,0,.04,0,0,0,.01,0,.02v.07h.67s.01,0,.02,0c.01,0,.02,.02,.02,.04,0,.02,0,.03-.02,.04,0,0,0,0-.02,0,0,0,0,0-.01,0h-1.19c-.06,0-.09,.03-.09,.1v.73c0,.06-.02,.12-.03,.18-.01,.07-.03,.15-.06,.21-.03,.08-.06,.16-.11,.23h0s0,.03-.01,.03l-.02,.03s-.03,.03-.05,.03c-.03,0-.04-.01-.04-.04,0,0,0-.02,0-.03,.03-.05,.05-.1,.06-.15,.02-.08,.04-.16,.05-.24,.01-.09,.02-.21,.02-.34V.38c0-.13,.06-.19,.19-.19h.44Zm.28,1.46c0,.12-.06,.18-.17,.18h-.2s-.01,0-.02,0c0,0-.01,0-.02-.01,0,0,0-.02,0-.03,0-.02,0-.03,.02-.04,0,0,.01,0,.02,0h.11c.05,0,.08-.03,.08-.09v-.18c-.08,.06-.18,.12-.29,.19-.05,.03-.09,.06-.13,.07-.04,.02-.06,.03-.07,.03-.05,0-.08-.03-.08-.1,0-.03,0-.04,.02-.05,.01-.01,.05-.03,.1-.05,.05-.02,.11-.04,.16-.06,.07-.03,.14-.06,.2-.09l.03-.02s.03-.01,.03-.01h.01s0-.27,0-.27h-.39s0,0-.01,0c0,0-.01,0-.02,0-.01,0-.02-.02-.02-.04,0-.02,0-.03,.02-.04,0,0,0,0,.02,0,0,0,0,0,.01,0h.39v-.19h-.46s-.01,0-.02,0c0,0-.01,0-.02,0-.01,0-.02-.02-.02-.04,0-.02,0-.03,.02-.04,0,0,.01,0,.02,0,0,0,0,0,.01,0h.46v-.19h-.39s0,0-.01,0c0,0-.01,0-.02,0-.01,0-.02-.02-.02-.04,0-.02,0-.03,.02-.04,0,0,0,0,.02,0,0,0,0,0,.01,0h.39v-.05s0-.01,0-.02c0-.02,0-.03,.01-.04,.01-.04,.04-.05,.08-.05s.07,.02,.08,.05c0,.01,0,.03,.01,.04,0,0,0,.01,0,.02v.05h.24c.12,0,.18,.06,.18,.18v.1h.15s.01,0,.02,0c0,0,.01,0,.02,0,.01,0,.02,.02,.02,.04,0,.02,0,.03-.02,.04,0,0,0,0-.02,0,0,0,0,0-.01,0h-.15v.1c0,.12-.06,.18-.18,.18h-.21s.04,.09,.06,.14c.02,.04,.05,.08,.07,.12,.07-.05,.12-.1,.17-.15,.04-.04,.06-.06,.08-.06,.06,0,.09,.03,.09,.1,0,.03,0,.05-.03,.07-.02,.02-.06,.04-.13,.08l-.12,.06c.08,.09,.19,.17,.33,.25,0,0,0,0,.01,0,0,0,0,0,.01,0,0,0,.01,.02,.01,.03,0,.03-.01,.04-.04,.04,0,0-.03,0-.06-.02-.04-.02-.09-.04-.13-.07-.06-.03-.12-.07-.17-.11-.07-.05-.13-.11-.19-.17v.21Zm-.52-.49h.03s.03,.04,.05,.05c.07,.05,.1,.09,.1,.12,0,.03-.01,.05-.03,.07-.02,.02-.04,.03-.06,.03-.03,0-.07-.04-.11-.12l-.04-.07s0-.01,0-.02c0-.03,.01-.05,.04-.05,0,0,.01,0,.02,0Zm.52-.42h.22v-.1c0-.06-.03-.09-.08-.09h-.14v.19Zm0,.28h.14c.05,0,.08-.03,.08-.09v-.11h-.22v.19Z"/>
          <path class="cls-1" d="M38.41,.38V.12s0-.01,0-.02c0-.02,0-.03,.01-.05,.01-.04,.04-.06,.08-.06s.07,.02,.08,.05c0,.01,0,.03,.01,.05,0,0,0,.01,0,.02V.38h.56s.01,0,.02,0c0,0,.01,0,.02,0,.01,0,.02,.02,.02,.04,0,.02,0,.03-.02,.04,0,0,0,0-.02,0,0,0,0,0-.01,0h-.56V.99h.47s.01,0,.02,0c0,0,.01,0,.02,0,.01,0,.02,.02,.02,.04,0,.02,0,.03-.02,.04,0,0,0,0-.02,0,0,0,0,0-.01,0h-.47v.58h.67s.01,0,.02,0c0,0,.01,0,.02,0,.01,0,.02,.02,.02,.04,0,.02,0,.03-.02,.04,0,0-.01,0-.02,0,0,0,0,0-.01,0h-1.54s0,0-.01,0c0,0-.01,0-.02,0-.01,0-.02-.02-.02-.04,0-.02,0-.03,.02-.04,0,0,0,0,.02,0h.68v-.58h-.48s0,0-.01,0c0,0-.01,0-.02,0-.01,0-.02-.02-.02-.04s0-.03,.02-.04c0,0,0,0,.02,0,0,0,0,0,.01,0h.48V.47h-.4c-.05,.09-.1,.17-.16,.25-.06,.08-.1,.12-.12,.12-.03,0-.04-.01-.04-.05,0,0,0,0,0-.01l.02-.03c.05-.1,.1-.2,.14-.31,.03-.09,.05-.18,.07-.28,.01-.08,.05-.12,.1-.12,.03,0,.05,0,.08,.03,.03,.02,.04,.05,.04,.08,0,.03-.01,.07-.04,.13l-.03,.06-.02,.04h.35Z"/>
        </g>
        <g>
          <path class="cls-1" d="M21.86,14.68c-.09,.02-.16,.03-.2,.04-.06,.01-.1,.02-.12,.02-.06,0-.1-.04-.1-.11,0-.04,.02-.07,.05-.09,.02-.01,.08-.02,.19-.02,.04-.04,.07-.08,.11-.13,.03-.03,.05-.07,.07-.1-.03,0-.05-.03-.08-.07-.04-.07-.08-.13-.13-.2-.04-.05-.08-.1-.14-.16l-.02-.02s0-.02,0-.03c0-.04,.02-.06,.06-.06,0,0,.02,0,.03,.01,.01,0,.03,.02,.05,.03l.09,.07,.03-.05s.03-.04,.04-.07c.04-.06,.07-.13,.1-.21,.04-.1,.09-.14,.14-.14,.04,0,.07,.01,.1,.03,.03,.02,.05,.05,.05,.09,0,0,0,.02,0,.03,0,0,0,.02-.01,.03-.01,.02-.04,.06-.09,.11-.04,.05-.09,.11-.14,.16l-.09,.1,.09,.08s.03,.03,.04,.04c.01,.01,.02,.02,.02,.03,.03-.05,.06-.08,.07-.11l.09-.16s.03-.05,.04-.06c.02-.02,.05-.03,.08-.03,.1,0,.14,.04,.14,.13,0,.03-.05,.11-.16,.23-.13,.16-.26,.29-.38,.41,.18,0,.31-.02,.37-.03l-.05-.14s0-.02,0-.03c0-.04,.02-.05,.05-.05,.01,0,.03,.01,.06,.04,.03,.03,.06,.06,.1,.1,.08,.1,.13,.18,.13,.23,0,.08-.04,.13-.12,.13-.05,0-.08-.02-.09-.06l-.03-.11-.18,.04v.97s0,.02,0,.02c0,.02,0,.04-.01,.05-.02,.04-.05,.06-.11,.06s-.09-.02-.11-.06c0-.01-.01-.03-.01-.05,0,0,0-.01,0-.02v-.92Zm-.09,.16s.04,.05,.04,.08c0,.06-.03,.16-.08,.31-.05,.15-.1,.26-.14,.33-.02,.03-.04,.04-.06,.04-.04,0-.06-.02-.06-.05,0,0,0-.02,0-.03l.03-.13c.02-.1,.04-.26,.06-.47,0-.07,.04-.11,.11-.11,.03,0,.06,0,.08,.03Zm.54,.01c.05,.07,.1,.15,.14,.25,.05,.1,.07,.16,.07,.2,0,.08-.04,.12-.13,.12-.08,0-.12-.04-.12-.13-.01-.14-.03-.27-.07-.38,0-.02,0-.03,0-.04,0-.04,.02-.06,.06-.06,.02,0,.04,.02,.07,.05Zm.93,.03v.66h.53s.01,0,.02,0c0,0,.02,0,.02,0,.02,0,.03,.02,.03,.05,0,.02,0,.04-.03,.05,0,0-.01,0-.02,0,0,0-.01,0-.02,0h-1.35s-.01,0-.02,0c0,0-.02,0-.02,0-.02,0-.03-.02-.03-.05s0-.04,.03-.05c0,0,.01,0,.02,0,0,0,.01,0,.02,0h.56v-.66h-.39s-.01,0-.02,0c0,0-.02,0-.02,0-.02-.01-.03-.03-.03-.05,0-.02,0-.04,.03-.05,0,0,.01,0,.02,0,0,0,.01,0,.02,0h1.09s.01,0,.02,0c0,0,.02,0,.02,0,.02,0,.03,.03,.03,.05,0,.02,0,.04-.03,.05,0,0-.01,0-.02,0,0,0-.01,0-.02,0h-.42Zm.46-1.39s.02,0,.02,0c0,0,.02,0,.02,0,.02,0,.03,.03,.03,.05s0,.04-.03,.04c0,0-.01,0-.02,0,0,0-.01,0-.02,0h-1.2s-.02,0-.02,0c0,0-.02,0-.02,0-.02,0-.03-.02-.03-.04,0-.02,0-.04,.03-.05,0,0,.01,0,.02,0,0,0,.01,0,.02,0h1.2Zm-.83,.3s-.02,.08-.07,.15c-.02,.03-.04,.06-.07,.09,0,.01-.02,.03-.04,.05l-.03,.04s0,0,0,0c0,0,0,0,0,0l-.02,.03s-.02,.03-.02,.04c0,.01,.01,.03,.03,.05l.08,.08s.06,.07,.09,.09c.03,.04,.05,.07,.07,.09,.02,.03,.03,.05,.03,.07,0,.09-.05,.13-.14,.13-.04,0-.06,0-.08-.03,0,0-.01-.02-.02-.03v-.03c-.06-.12-.12-.24-.19-.36v-.02s-.02-.02-.02-.03c0-.02,0-.04,.02-.07,.03-.06,.06-.12,.08-.18,0-.03,.02-.06,.03-.09l.04-.11c.02-.05,.05-.08,.11-.08,.09,0,.14,.04,.14,.11Zm.4,0s-.02,.07-.05,.12c-.01,.02-.03,.04-.05,.07l-.08,.11s-.02,.02-.02,.03l-.04,.05s-.02,.02-.02,.03c0,0,0,.01,0,.03l.06,.06s.05,.05,.07,.07c.03,.03,.06,.06,.08,.09,.03,.04,.05,.07,.06,.09,.02,.03,.03,.05,.03,.07,0,.08-.04,.12-.13,.12-.03,0-.06,0-.08-.03,0,0-.02-.03-.03-.06-.04-.1-.07-.17-.1-.22-.02-.03-.05-.08-.1-.16-.01-.02-.02-.04-.02-.06,0-.02,0-.04,.03-.08,.02-.05,.05-.11,.08-.2,.01-.03,.02-.06,.03-.09l.02-.05c.02-.06,.06-.09,.12-.09,.09,0,.14,.04,.14,.11Zm.38-.09s.05,.05,.05,.09c0,.04-.08,.16-.24,.36v.02s-.02,0-.02,.01c0,.01,.01,.03,.03,.05,.03,.03,.05,.05,.08,.08,.03,.03,.06,.07,.09,.1,.06,.08,.1,.13,.1,.16,0,.08-.04,.13-.13,.13-.03,0-.06-.01-.08-.04-.02-.02-.06-.1-.12-.22,0,0,0-.02-.01-.03,0,0,0,0,0-.01,0,0,0,0,0,0l-.03-.06s-.04-.08-.06-.1c0-.01-.01-.03-.01-.05,0,0,0-.03,.02-.06l.15-.38s.06-.06,.11-.06c.03,0,.06,0,.09,.03Z"/>
          <path class="cls-1" d="M27.33,14.95v-1.03c0-.15,.08-.22,.25-.22h.29v-.16s0-.02,0-.02c0-.02,0-.04,.02-.06,.02-.04,.06-.07,.11-.07s.09,.02,.12,.07c0,.01,.01,.03,.01,.06,0,0,0,.01,0,.02v.16h.28v-.16s0-.02,0-.03c0-.02,0-.04,.02-.05,.02-.04,.06-.07,.12-.07s.09,.02,.11,.07c0,.01,.01,.03,.01,.06,0,0,0,.01,0,.02v.16h.29c.17,0,.25,.08,.25,.22v1.03h.16s.01,0,.02,0c0,0,.02,0,.02,0,.02,0,.03,.02,.03,.05s0,.04-.03,.05c-.01,0-.03,0-.05,0h-2.2s-.01,0-.02,0c0,0-.02,0-.02,0-.02-.01-.03-.03-.03-.05,0-.02,.01-.04,.03-.05,0,0,.01,0,.02,0,0,0,.01,0,.02,0h.15Zm.66,.45s-.14,.09-.27,.15c-.06,.03-.13,.05-.2,.08-.06,.02-.11,.04-.17,.06-.05,.01-.09,.02-.12,.03-.03,0-.05,.01-.06,.01-.04,0-.06-.02-.06-.06,0-.02,0-.03,.02-.04,0,0,.01,0,.02-.01h.02c.1-.05,.2-.1,.3-.16,.11-.07,.21-.15,.29-.23,.05-.05,.1-.08,.13-.08,.04,0,.07,.01,.1,.04,.04,.03,.06,.07,.06,.13,0,.04-.02,.07-.06,.1Zm-.12-1.09v-.49h-.16c-.07,0-.11,.04-.11,.11v.38h.27Zm0,.64v-.53h-.27v.53h.27Zm.54-.64v-.49h-.28v.49h.28Zm0,.64v-.53h-.28v.53h.28Zm.16,.22s.07-.04,.1-.04c.03,0,.05,0,.07,.02,.02,.01,.06,.05,.13,.12,.14,.14,.31,.25,.51,.34,.03,.01,.04,.03,.04,.06,0,.04-.02,.06-.06,.06-.05,0-.13-.02-.26-.07-.11-.04-.21-.08-.29-.12-.13-.06-.22-.11-.26-.15-.03-.03-.05-.06-.05-.09,0-.05,.02-.09,.06-.13Zm.38-.86v-.38c0-.07-.04-.11-.11-.11h-.17v.49h.27Zm-.27,.12v.53h.27v-.53h-.27Z"/>
          <path class="cls-1" d="M33.33,15.58s0,.02,0,.03c0,.02,0,.04-.02,.06-.02,.04-.06,.06-.12,.06s-.1-.02-.12-.06c0-.02-.01-.03-.02-.06,0,0,0-.02,0-.03v-1.25l-.07,.07s-.06,.06-.09,.08c-.03,.03-.06,.05-.09,.07-.03,.02-.05,.03-.06,.03-.04,0-.06-.02-.06-.06,0-.02,.01-.04,.05-.07,.22-.25,.4-.55,.52-.91l.02-.04s.02-.03,.03-.04c.03-.03,.06-.05,.11-.05,.11,0,.17,.05,.17,.14,0,.04-.03,.11-.09,.21-.02,.04-.05,.08-.08,.13l-.08,.12v1.58Zm.73-1.64h-.09c-.07,.09-.15,.2-.24,.3-.05,.06-.09,.1-.12,.13-.04,.04-.07,.05-.08,.05-.04,0-.06-.02-.06-.06,0-.01,.01-.04,.04-.07l.05-.07s.06-.09,.09-.15c.04-.07,.08-.15,.11-.23,.04-.09,.07-.19,.1-.29l.02-.06s.02-.04,.03-.05c.03-.04,.06-.05,.11-.05,.04,0,.08,.01,.11,.04,.04,.03,.06,.06,.06,.11,0,.03-.02,.08-.05,.14-.02,.04-.05,.09-.09,.14h.95s.01,0,.02,0c0,0,.02,0,.02,0,.02,0,.03,.02,.03,.05s0,.04-.03,.05c0,0-.01,0-.02,0,0,0-.01,0-.02,0h-.66v.49h.6s.01,0,.02,0c0,0,.02,0,.02,0,.02,0,.03,.02,.03,.05,0,.02,0,.04-.03,.05,0,0-.01,0-.02,0,0,0-.01,0-.02,0h-.6v.49h.6s.01,0,.02,0c0,0,.02,0,.02,0,.02,0,.03,.02,.03,.05s0,.04-.03,.05c0,0-.01,0-.02,0,0,0-.01,0-.02,0h-.6v.41s0,.02,0,.03c0,.02,0,.04-.02,.06-.02,.04-.06,.06-.12,.06s-.1-.02-.12-.06c0-.01-.01-.03-.02-.06,0,0,0-.02,0-.03v-1.63Z"/>
          <path class="cls-1" d="M39.41,15.45c0,.14-.08,.21-.25,.21h-.5c-.17,0-.25-.07-.25-.21v-.61c0-.14,.08-.21,.25-.21h.5c.17,0,.25,.07,.25,.21v.61Zm-.26-.6c0-.08-.04-.11-.11-.11h-.25c-.08,0-.11,.04-.11,.11v.58c0,.08,.04,.11,.11,.11h.25c.08,0,.11-.04,.11-.11v-.58Zm1.11-.74c0,.09-.02,.15-.07,.19-.04,.03-.11,.05-.2,.05h-.96c-.18,0-.27-.08-.27-.24v-.41c0-.09,.02-.15,.07-.19,.04-.03,.11-.05,.2-.05h.96c.18,0,.27,.08,.27,.24v.41Zm-.28-.42c0-.08-.04-.12-.12-.12h-.71c-.08,0-.12,.04-.12,.12v.42c0,.08,.04,.12,.12,.12h.71c.08,0,.12-.04,.12-.12v-.42Zm.63,1.75c0,.14-.08,.21-.25,.21h-.51c-.17,0-.25-.07-.25-.21v-.61c0-.14,.08-.21,.25-.21h.51c.17,0,.25,.07,.25,.21v.61Zm-.27-.6c0-.08-.04-.11-.12-.11h-.25c-.08,0-.12,.04-.12,.11v.58c0,.08,.04,.11,.12,.11h.25c.08,0,.12-.04,.12-.11v-.58Z"/>
        </g>
        <g>
          <path class="cls-1" d="M24.43,1.24s0-.01,0-.02v-.02s0-.03,.02-.04c.01-.03,.03-.04,.07-.05h-.02s-.02-.02-.02-.03c-.01-.02-.02-.05-.02-.08v-.1c-.05,.06-.11,.11-.18,.16-.06,.05-.1,.07-.12,.07-.03,0-.04-.01-.04-.04,0-.01,0-.02,0-.03v-.02c.12-.09,.19-.17,.23-.25h-.2s0,0-.01,0c0,0-.01,0-.02,0-.01,0-.02-.02-.02-.04s0-.03,.02-.04c0,0,0,0,.02,0,0,0,.01,0,.02,0h.11s-.02,0-.02-.02c0,0,0,0,0-.02l-.04-.08s0,0,0,0l-.02-.03s0-.02,0-.02c0-.03,.01-.04,.04-.04,0,0,.01,0,.03,.01,.02,0,.04,.02,.06,.03,.05,.03,.08,.07,.08,.1h0s0,.03,0,.03c0,.02-.02,.04-.04,.04h.13v-.23s-.09,0-.15,0c-.02,0-.04,0-.06,0h-.03s-.05-.01-.05-.04c0-.02,0-.03,.02-.04,0,0,.01,0,.02,0,0,0,.01,0,.02,0,.11,0,.2-.01,.29-.03,.1-.02,.2-.04,.28-.07h-.63c-.06,0-.08,.03-.08,.09v.69s0,.01,0,.02c0,.02,0,.03,0,.04-.01,.04-.04,.05-.08,.05s-.07-.02-.08-.05c0-.01,0-.03-.01-.04,0,0,0-.01,0-.02V.39c0-.13,.06-.19,.19-.19h.32l.03-.09s0-.02,0-.02c.01-.05,.04-.07,.09-.07,.07,0,.11,.03,.11,.09,0,.03-.02,.06-.06,.09h.43c.06,0,.11,.01,.13,.04,.04,.03,.05,.08,.05,.15v.69s0,.01,0,.02c0,.02,0,.03,0,.04-.01,.04-.04,.05-.08,.05s-.07-.02-.08-.05c0-.01,0-.03-.01-.04,0,0,0-.01,0-.02V.38c0-.06-.03-.09-.08-.09h-.07s.04,.04,.04,.07-.02,.06-.05,.07c-.03,.01-.11,.02-.22,.03v.24h.1s-.02-.01-.02-.02v-.02s0-.01,0-.02c0,0,0-.02,.01-.03,0,0,0-.01,0-.02l.02-.04c.03-.06,.06-.09,.09-.09,.06,0,.08,.03,.08,.08,0,.02,0,.04-.02,.05,0,0-.01,.01-.02,.02l-.02,.02s0,0,0,0c-.04,.03-.07,.05-.09,.06h.17s0,0,.02,0c0,0,.01,0,.02,0,.01,0,.02,.02,.02,.04,0,.02,0,.03-.02,.04,0,0,0,0-.02,0,0,0,0,0-.02,0h-.21s.06,.09,.1,.14c.04,.04,.07,.08,.1,.1,.02,.02,.03,.03,.03,.05,0,.03-.01,.04-.04,.04-.02,0-.05-.02-.11-.07-.06-.05-.12-.1-.17-.16v.1s0,.07-.03,.09c0,0-.01,.01-.02,.02,0,0,0,0-.01,0h0s.07,.06,.07,.13h.67s0,0,.01,0c0,0,.01,0,.02,0,.01,0,.02,.02,.02,.04,0,.02,0,.03-.02,.04,0,0-.02,0-.03,0h-.64c.03,.08,.08,.15,.13,.2,.05,.05,.11,.09,.18,.12,.05,.03,.12,.05,.18,.07,.02,0,.05,.01,.08,.02h.08s.02,.02,.02,.02c.01,0,.02,.02,.02,.04,0,.03-.01,.04-.04,.04h-.11s-.07-.02-.11-.03c-.04-.01-.09-.02-.13-.04-.04-.01-.07-.02-.1-.04-.04-.02-.07-.03-.11-.05-.08-.05-.15-.11-.21-.19l-.02,.03s-.02,.02-.03,.03c-.03,.03-.06,.05-.09,.08-.04,.03-.09,.06-.14,.08-.07,.03-.14,.06-.22,.08-.04,0-.08,.02-.13,.03-.06,.01-.1,.02-.13,.02-.03,0-.04-.01-.04-.04,0-.02,0-.03,.02-.04h.01s0,0,.01,0h.07s.06-.03,.08-.03c.07-.02,.13-.04,.19-.07,.07-.04,.13-.08,.18-.13,.06-.06,.1-.12,.12-.19h-.63s0,0-.01,0c0,0-.01,0-.02,0-.01,0-.02-.02-.02-.04,0-.02,0-.03,.02-.04,0,0,0,0,.02,0,0,0,.01,0,.02,0h.64Z"/>
          <path class="cls-1" d="M26.08,1.03c0-.06-.02-.08-.07-.08h-.14s-.01,0-.02,0c0,0-.01,0-.02,0-.01,0-.02-.02-.02-.04,0-.02,0-.03,.02-.04,0,0,0,0,.02,0,0,0,0,0,.01,0h.24c.11,0,.16,.05,.16,.16v.5c.01,.08,.06,.13,.12,.16,.05,.03,.12,.04,.21,.04h.81s0,0,.01,0c0,0,.01,0,.02,0,.01,0,.02,.02,.02,.04,0,.02,0,.03-.02,.04,0,0-.01,0-.02,0,0,0,0,0-.01,0h-.85c-.12,0-.2-.01-.26-.04-.07-.03-.12-.08-.17-.17-.02,.02-.04,.05-.06,.07-.02,.03-.05,.05-.07,.07-.03,.03-.05,.04-.07,.06-.02,.02-.04,.02-.05,.02-.05,0-.08-.04-.08-.11,0-.03,0-.05,.02-.07,0-.01,.02-.02,.04-.03,.08-.03,.15-.07,.2-.12v-.47Zm.08-.47s-.05,0-.06-.03c0,0-.01-.02-.02-.03v-.03c-.04-.08-.07-.14-.11-.2-.01-.02-.03-.05-.05-.08-.01-.02-.03-.05-.05-.08,0-.01,0-.02,0-.03,0-.03,.01-.04,.04-.04,.01,0,.04,.02,.09,.06l.08,.08s0,0,.01,0l.07,.07s.04,.04,.06,.06c.04,.05,.06,.09,.06,.12,0,.08-.04,.13-.11,.13Zm.65-.44s0-.01,0-.02c0-.02,0-.03,0-.04,.01-.03,.04-.05,.08-.05,.04,0,.07,.02,.08,.05,0,.01,0,.02,.01,.04,0,0,0,.01,0,.02v.25h.19c.13,0,.19,.06,.19,.19v.8c0,.07-.02,.12-.05,.15-.03,.02-.07,.04-.14,.04h-.57c-.12,0-.19-.06-.19-.19V.56c0-.07,.02-.12,.05-.15,.03-.02,.07-.04,.13-.04h.2V.13Zm0,.34h-.11c-.05,0-.08,.03-.08,.09v.35h.19V.46Zm0,.53h-.19v.38c0,.06,.03,.09,.08,.09h.11v-.47Zm.18-.09h.2v-.35c0-.06-.03-.09-.08-.09h-.12v.44Zm0,.56h.12c.05,0,.08-.03,.08-.09v-.38h-.2v.47Z"/>
          <path class="cls-1" d="M28.54,.36s0,0,.01,0c0,0,.01,0,.02,0,.01,0,.02,.02,.02,.04,0,.02,0,.03-.02,.04,0,0,0,0-.02,0,0,0,0,0-.01,0h-.58s-.01,0-.02,0c0,0-.01,0-.02,0-.01,0-.02-.02-.02-.04,0-.02,0-.03,.02-.04,0,0,.01,0,.02,0,0,0,0,0,.01,0h.58Zm-.01,1.29c0,.1-.05,.16-.16,.16h-.24c-.11,0-.16-.05-.16-.16v-.3c0-.1,.05-.16,.16-.16h.24c.06,0,.1,.01,.13,.04,.02,.02,.03,.06,.03,.11v.3Zm-.05-1.57s.01,0,.02,0c0,0,.01,0,.02,0,.01,0,.02,.02,.02,.04,0,.02,0,.03-.02,.04,0,0-.01,0-.02,0,0,0,0,0-.02,0h-.46s-.01,0-.02,0c0,0-.01,0-.02,0-.01,0-.02-.02-.02-.04,0-.02,0-.03,.02-.04,0,0,0,0,.02,0,0,0,0,0,.01,0h.46Zm0,.56s.01,0,.02,0c0,0,.01,0,.02,0,.01,0,.02,.02,.02,.04,0,.02,0,.03-.02,.04,0,0-.01,0-.02,0,0,0,0,0-.01,0h-.46s-.01,0-.02,0c0,0-.01,0-.02,0-.01,0-.02-.02-.02-.04,0-.02,0-.03,.02-.04,0,0,.01,0,.02,0,0,0,.01,0,.02,0h.46Zm0,.28s.01,0,.02,0c0,0,.01,0,.02,0,.01,0,.02,.02,.02,.04,0,.02,0,.03-.02,.04,0,0-.01,0-.02,0,0,0,0,0-.01,0h-.46s-.01,0-.02,0c0,0-.01,0-.02,0-.01,0-.02-.02-.02-.04s0-.03,.02-.04c0,0,.01,0,.02,0,0,0,.01,0,.02,0h.46Zm-.12,.45c0-.06-.03-.08-.07-.08h-.06s-.07,.03-.07,.08v.27c0,.06,.02,.08,.07,.08h.06s.07-.03,.07-.08v-.27Zm.27-.39s0,0-.01,0c0,0-.01,0-.02,0-.01,0-.02-.02-.02-.04,0-.02,0-.03,.02-.04,0,0,0,0,.02,0h.72c.07,0,.11,.03,.11,.1v.02s-.01,.04-.01,.04c-.01,.04-.02,.08-.04,.12-.02,.06-.05,.11-.08,.16-.04,.06-.08,.12-.13,.17,.05,.05,.11,.09,.16,.13,.02,.02,.05,.03,.08,.05,.02,.01,.05,.03,.1,.06,.02,.01,.03,.03,.03,.04,0,.03-.01,.04-.04,.04,0,0-.02,0-.04-.01-.03-.01-.06-.02-.1-.04-.05-.02-.09-.04-.14-.07-.06-.03-.11-.07-.16-.11-.06,.04-.11,.08-.18,.12-.05,.03-.1,.05-.15,.07l-.06,.02h-.05s-.04,.03-.05,.03c-.03,0-.04-.02-.04-.05,0-.01,0-.02,.01-.03h.02c.08-.05,.15-.08,.2-.11,.06-.04,.12-.09,.18-.15-.05-.05-.09-.1-.12-.14-.03-.04-.05-.08-.07-.12-.02-.03-.03-.06-.04-.08,0-.02,0-.04,0-.05,0-.03,.01-.06,.04-.08,.02-.02,.04-.02,.07-.02,.04,0,.07,.03,.09,.08l.03,.07s.02,.05,.03,.07c.02,.05,.05,.1,.09,.15,.04-.05,.07-.12,.1-.2,.03-.08,.05-.14,.05-.18,0-.02-.01-.03-.03-.03h-.57Zm.11-.75c0-.1,.05-.15,.15-.15h.23c.06,0,.1,.01,.13,.04,.02,.02,.03,.06,.03,.11v.35s.03,.07,.08,.07c.03,0,.04-.03,.05-.09,0-.08,.04-.13,.08-.13,.05,0,.08,.03,.08,.08,0,.02,0,.04,0,.07,0,.03,0,.05-.02,.08-.03,.06-.07,.09-.14,.09h-.15c-.06,0-.1-.02-.13-.05-.02-.02-.03-.06-.03-.11V.25c0-.05-.02-.08-.07-.08h-.03s-.05,0-.05,.02c0,.01,0,.04-.01,.09,0,.05,0,.09,0,.13,0,.05-.02,.1-.03,.14-.02,.05-.04,.1-.08,.14-.04,.05-.08,.08-.14,.12-.03,.01-.04,.02-.05,.02-.03,0-.04-.02-.04-.05,0-.01,0-.03,.03-.05,.05-.05,.09-.11,.11-.19,0-.03,.01-.07,.02-.12,0-.03,0-.08,0-.13v-.06Z"/>
          <path class="cls-1" d="M30.75,.36s.01,0,.02,0c0,0,.01,0,.02,0,.01,0,.02,.02,.02,.04,0,.02,0,.03-.02,.04,0,0-.01,0-.02,0,0,0,0,0-.01,0h-.7s-.02,0-.03,0c-.01,0-.02-.02-.02-.04,0-.02,0-.03,.02-.04,0,0,0,0,.02,0,0,0,0,0,.02,0h.7Zm-.01,1.29c0,.1-.05,.16-.16,.16h-.35c-.06,0-.1-.01-.13-.04-.02-.02-.03-.06-.03-.11v-.29c0-.1,.05-.16,.16-.16h.35c.11,0,.16,.05,.16,.16v.29Zm-.05-1.57s0,0,.01,0c0,0,.01,0,.02,0,.01,0,.02,.02,.02,.04,0,.02,0,.03-.02,.04,0,0-.01,0-.02,0,0,0,0,0-.01,0h-.55s-.01,0-.02,0c0,0-.01,0-.02,0-.01,0-.02-.02-.02-.04,0-.02,0-.03,.02-.04,0,0,0,0,.02,0,0,0,0,0,.01,0h.55Zm0,.56s0,0,.01,0c0,0,.01,0,.02,0,.01,0,.02,.02,.02,.04s0,.03-.02,.04c0,0-.01,0-.02,0,0,0,0,0-.01,0h-.55s-.01,0-.02,0c0,0-.01,0-.02,0-.01,0-.02-.02-.02-.04,0-.02,0-.03,.02-.04,0,0,0,0,.02,0,0,0,0,0,.01,0h.55Zm0,.28s.01,0,.02,0c0,0,.01,0,.02,0,.01,0,.02,.02,.02,.04,0,.02,0,.03-.02,.04,0,0-.01,0-.02,0,0,0,0,0-.01,0h-.55s-.01,0-.02,0c0,0-.01,0-.02,0-.01,0-.02-.02-.02-.04,0-.02,0-.03,.02-.04,0,0,0,0,.02,0,0,0,.01,0,.02,0h.55Zm-.13,.45c0-.05-.02-.08-.07-.08h-.15s-.08,.03-.08,.08v.26c0,.06,.03,.08,.08,.08h.15s.07-.03,.07-.08v-.26Zm.77,.35s0,.01,0,.02c0,.02,0,.03,0,.05-.01,.04-.04,.06-.08,.06s-.07-.02-.08-.05c0-.01,0-.03-.01-.05,0,0,0-.01,0-.02V.76h-.3s-.01,0-.02,0c0,0-.01,0-.02,0-.01,0-.02-.02-.02-.04,0-.02,0-.03,.02-.04,0,0,0,0,.02,0,0,0,0,0,.01,0h.3V.14s0-.01,0-.02c0-.02,0-.03,.01-.05,.01-.04,.04-.05,.08-.05s.07,.02,.09,.05c0,.01,0,.03,0,.05,0,0,0,.01,0,.02V.67h.26s.01,0,.02,0c0,0,.01,0,.02,0,.01,0,.02,.02,.02,.04,0,.02,0,.03-.02,.04,0,0,0,0-.02,0,0,0-.01,0-.02,0h-.26v.96Z"/>
        </g>
        <g>
          <path d="M21.84,4.45h.19c.21,.14,.31,.28,.31,.44l-.12,1.26h.06l.19-.15h.19l.25,.21v.06c0,.08-.19,.14-.56,.18-.04,.22-.1,.32-.19,.32l.06,.18-.06,.56h.06l.43-.29v.12c-.33,.31-.49,.56-.49,.73v1.14l-.06,.06,.06,.06v.12l-.06,.06,.06,.06v.56l-.12,.15c-.17,0-.31-.31-.43-.94l.12-.06h.06l.06,.06,.06-.06v-.71l-.12-.12c-.37,.57-.64,.9-.8,1h-.12l-.12-.12v-.21c0-.18,.29-.9,.87-2.17v-.06h-.06c-.99,.7-1.55,1.06-1.67,1.06-.17-.06-.25-.12-.25-.18v-.12c.41,0,1.2-.46,2.35-1.38v-.26l.06-1.23c-.21-.06-.31-.12-.31-.18l.12-.15Zm-.12,3.05c-.41,.71-.62,1.13-.62,1.26h.12c.45-.59,.68-.94,.68-1.06v-.06l-.12-.15h-.06Zm2.6-2.61h.06l.25,.27v1.5h.19l.74-.26,.19,.21c0,.12-.37,.25-1.11,.41l-.19,1.2,.12,.12c.25-.12,.7-.18,1.36-.18h.06c.29,0,.51,.12,.68,.35v.06c0,.08-.33,.17-.99,.27l-.06-.06v-.06l.06-.21h-.31c-.33,0-1.09,.19-2.29,.56h-.37l-.12-.12v-.12h.31c.74,0,1.17-.29,1.3-.88l.06-.62h-.06c-.33,.12-.64,.18-.93,.18v-.18c.74-.16,1.11-.45,1.11-.88v-.73c0-.23-.08-.42-.25-.56v-.06l.19-.21Z"/>
          <path d="M33.26,4.57l.12,.18-1.3,.5,.46,.5,.65-.21c.39,.2,.61,.34,.65,.44-.14,.49-.34,.91-.59,1.26v.23c.39,0,.59,.17,.59,.5l-.99,.88c1.05,.16,1.58,.49,1.58,1l-.12,.12h-.06c-.56-.53-1.02-.82-1.39-.88h-.4l-.06,.32,.06,.06c-.1,.63-.23,.98-.37,1.06-.49-.39-.74-.67-.74-.82h-.06l-.46,.44h-.06l-.19-.18v-.12c.31-.47,.46-.78,.46-.94v-.06c-.27,0-.4-.04-.4-.12v-.09l1.45-1.47h-.06l-.74,.23-.12-.12c.35-.31,.66-.48,.93-.5v-.44h-.12l-.53,.23-.28-.18c.66-.25,.99-.48,.99-.68l-.28-.21,.09-.18h-.09c-.52,.31-.87,.77-1.05,1.38-.52,1.23-1.3,2.5-2.35,3.79l-.25,.12-.16-.12c1.17-1.37,2.16-3,2.97-4.9h-.06l-1.17,.41-.22-.18c0-.06,.31-.17,.93-.32,.29-.2,1.11-.52,2.47-.97h.28Zm-2.1-.5h.12l.06,.06,.22-.06c.47,.1,.71,.28,.71,.56l-.06,.06h-.19c-.12-.16-.39-.28-.8-.38l-.06-.06v-.18Zm.06,4.58l.12,.15v.12l-.06,.32c.54-.45,.8-.72,.8-.82v-.32h-.12l-.74,.56Zm.22,.88c.08,.16,.26,.3,.53,.44h.12l.06-.62v-.38l-.12-.12-.59,.67Zm.9-1.38l.06,.59h.06l.93-.88v-.12h-.19l-.06,.06h-.06l-.09-.21c-.12,.14-.32,.21-.59,.21l-.06,.35Zm.06-1.91v.29h.34l.12,.15v.06l-.46,.56v.06c.39,0,.66-.27,.8-.82,.08,0,.12-.14,.12-.41v-.09l-.12-.18c-.54,.14-.8,.26-.8,.38Z"/>
          <path d="M37.88,6.44h.28l.31,.35v.12c-.56,.86-.99,1.41-1.3,1.64l-.12-.12v-.12c.56-.59,.91-1.1,1.05-1.53l-.22-.18v-.18Zm1.76-1.88c.41,.04,.62,.22,.62,.53l-.15,1.47h.06c.29-.23,.58-.37,.87-.41,.1,0,.16,.1,.19,.29l-1.11,.47-.06,.41v.47l.71-.29,.15,.29c0,.24-.37,.74-1.11,1.53v.06l.83-.12h.28c.47,.12,.71,.25,.71,.41v.12l-.12,.12c-.35,0-.64-.08-.87-.24h-.06c-.17,0-.71,.16-1.64,.47h-.25l-.28-.23v-.06c0-.08,.25-.2,.74-.35l.31-.35v-.06c-.17-.2-.4-.29-.71-.29l-.06-.06v-.06c0-.12,.12-.18,.37-.18,.39-.2,.59-.39,.59-.59l.09-.53v-.06l-.15-.12c-.06,.16-.34,.29-.83,.41h-.28v-.23c.47,0,.92-.23,1.33-.71l.06-1.7-.22-.12-.12,.12-.06-.18c.06-.16,.12-.23,.19-.23Zm-.19,4.17v.06h.19v-.24h-.06l-.12,.18Zm.53-.24h.06l.28-.29v-.12c-.17,0-.28,.14-.34,.41Z"/>
        </g>
        <g>
          <path d="M2.4,20.42s0-.02-.03-.02h-.48s-.03-.01-.04-.02c0-.01,0-.02,0-.03v-.74s0-.02,0-.03c.01,0,.02,0,.03,0h.49s.03,0,.03-.03v-.3h-.59v-.19h1.98v.19h-.58v.28s.01,.03,.02,.03h.48s.04,0,.04,.04v.75s-.02,.04-.04,.04h-.48s-.02,.01-.02,.02v.36h.63v.19H1.75v-.19h.64v-.36Zm.61,.36v-.52s.02-.04,.04-.04h.47s.03,0,.03-.03v-.41s0-.03-.03-.03h-.47s-.04-.02-.04-.05v-.44h-.41v.46s-.01,.03-.02,.03c-.02,0-.03,.01-.04,.02h-.47s-.03,0-.03,.03v.39s0,.03,.03,.03h.47s.03,0,.04,0c0,.02,.01,.03,.02,.03v.52h.41Z"/>
          <path d="M4.49,20.16c-.03,.34-.11,.62-.24,.82l-.19-.06c.15-.25,.23-.51,.25-.78l.18,.02Zm-.31-.59c.11,.06,.23,.14,.36,.24l-.12,.15c-.14-.11-.25-.19-.35-.23l.11-.16Zm.04-.54c.11,.06,.24,.15,.38,.27l-.12,.15c-.15-.12-.27-.21-.37-.27l.11-.15Zm.86,0v.95c-.02,.48-.17,.82-.44,1.03l-.16-.12c.27-.17,.41-.48,.41-.92v-.93h.19Zm-.24,.5c-.04,.33-.07,.59-.12,.78l-.18-.03c.07-.29,.11-.55,.12-.77l.18,.03Zm.5,.73h-.17v-.76s.16-.02,.16-.02v.77Zm.27-1.19v1.91h-.19v-1.91h.19Zm.27,1.2h-.17l-.03-.76,.17-.02,.03,.77Zm.25-1.25v2h-.19v-2h.19Z"/>
          <path d="M6.45,19.94v-.2h.92v-.74h.21v.74h.93v.2h-.93v1.1h-.21v-1.1h-.92Z"/>
          <path d="M9.83,19.98s-.02,.06-.03,.09c-.17,.4-.47,.7-.9,.92l-.14-.15c.52-.24,.84-.63,.95-1.18h-.88v-.2h.89s0-.07,0-.1v-.32h.21v.32s0,.07,0,.1h.89v.2h-.87c.01,.08,.03,.16,.04,.23,.12,.36,.42,.69,.9,.99l-.18,.14s-.09-.06-.13-.08c-.41-.29-.66-.61-.78-.95Z"/>
          <path d="M11.15,19.8s.01-.03,.04-.03h1.9l.16,.08c0,.11-.03,.23-.08,.37l-.17-.05c.04-.12,.05-.19,.04-.2,0-.02,0-.03-.03-.03h-1.66s-.02,0-.02,.02v.22h-.18v-.37Zm1.25,1.06c-.03,.08-.07,.13-.13,.15-.04,.02-.08,.03-.13,.03-.05,0-.13-.02-.24-.04v-.18c-.27,.1-.49,.15-.66,.17l-.06-.17c.4-.05,.76-.16,1.08-.34,0-.03-.01-.06-.02-.08-.37,.2-.7,.31-.98,.33l-.06-.17c.35-.03,.67-.13,.96-.29-.02-.02-.05-.04-.07-.06-.3,.16-.57,.24-.8,.25l-.05-.16c.22-.02,.44-.07,.66-.15h-.46v-.14h1.49v.14h-.66s.08,.07,.1,.11c.07,.08,.1,.14,.11,.15,.17,.2,.4,.36,.71,.46l-.12,.16c-.24-.1-.44-.23-.6-.38,0,.09-.02,.16-.05,.22Zm-.32-1.86h.2v.11h.89v.17h-1.98v-.17h.89v-.11Zm.82,.7h-1.48s-.02,0-.02-.03v-.31s.01-.02,.02-.02h1.48s.03,.01,.03,.02v.31s0,.03-.03,.03Zm-1.31-.22s0,0,0,0v.08h0s1.15,0,1.15,0h0v-.08h-1.16Zm.67,1.17c-.13,.06-.24,.12-.34,.17,.13,.03,.21,.03,.25,.02,.03-.02,.05-.04,.07-.08,.01-.03,.02-.07,.02-.1Zm.77-.31c-.1,.07-.21,.15-.34,.22l-.1-.14c.15-.08,.26-.16,.34-.21l.1,.14Z"/>
          <path d="M13.53,20.36l-.03-.19,.75-.05v-.25c-.15,.02-.31,.03-.46,.03l-.05-.2c.6-.01,1.08-.07,1.44-.18l.06,.19c-.16,.04-.42,.08-.79,.14v.27l1.06-.07v.19s-1.06,.08-1.06,.08v.39s.01,.06,.04,.08c.02,.02,.04,.03,.08,.03h.71s.04,0,.06-.02c.01,0,.02-.11,.03-.31l.21,.03c-.02,.25-.04,.39-.06,.42-.05,.05-.1,.08-.14,.08h-.91c-.05,0-.1-.03-.14-.07-.04-.05-.06-.09-.06-.13v-.49l-.72,.04Zm.89-1.35h.21v.17h.79l.18,.08c-.01,.12-.05,.27-.13,.45l-.18-.06c.05-.14,.07-.23,.07-.26,0-.02,0-.03-.03-.03h-1.59s-.02,0-.02,.02v.31h-.2v-.47s.01-.03,.04-.03h.86v-.17Z"/>
          <path d="M16.84,19.96v.15h-1.08v-.15h1.08Z"/>
          <path d="M18.16,20.01h-.2v-.31c-.33,.21-.62,.34-.88,.39l-.09-.18c.3-.07,.58-.18,.83-.34h-.79v-.18h.93v-.14c-.29,0-.53,0-.72,0l-.02-.18c.7,.01,1.25-.02,1.66-.09l.03,.18c-.14,.03-.36,.05-.66,.07-.04,0-.07,0-.09,0v.14h.94v.18h-.81c.23,.15,.51,.26,.85,.33l-.1,.17c-.33-.08-.62-.2-.88-.37v.31Zm-.68,1.01h-.2v-.92s0-.03,.03-.03h1.53s.04,.02,.04,.04v.91h-.2v-.1h-1.21v.1Zm1.21-.61v-.14s0-.03-.03-.03h-1.15s-.03,0-.03,.03v.14h1.21Zm-1.21,.18v.15h1.21v-.15h-1.21Z"/>
          <path d="M19.46,19.55c.1,.06,.21,.14,.34,.25l-.12,.14c-.13-.11-.24-.19-.33-.24l.12-.15Zm.33,.57c-.04,.36-.13,.65-.26,.86l-.19-.05c.16-.27,.24-.55,.25-.82l.2,.02Zm-.3-1.06c.11,.06,.23,.14,.36,.24l-.12,.15c-.14-.11-.25-.19-.35-.23l.11-.16Zm.45,1.36l-.15-.12c.19-.15,.34-.31,.45-.48h-.34v-.17h.37v-.25h-.31v-.17h.31v-.21h.19v.21h.41v-.21h.19v.21h.37v.17h-.37v.25h.43v.17h-.44c.11,.18,.26,.33,.45,.48l-.17,.1c-.1-.08-.17-.16-.22-.21v.35s-.02,.05-.04,.05h-.69v.08c0,.06,0,.1,.03,.12,.02,.03,.04,.04,.08,.04h.63c.07,0,.11-.02,.13-.06,.02-.03,.03-.1,.03-.21l.19,.03c-.01,.15-.04,.26-.08,.31-.06,.07-.12,.1-.2,.1h-.74c-.09,0-.16-.03-.2-.07-.04-.03-.06-.09-.06-.18v-.55c-.08,.1-.16,.17-.23,.23Zm1.02-.41h0c-.04-.08-.08-.14-.12-.2h-.4c-.04,.07-.08,.14-.12,.2h.64Zm-.6,.4h.53s.02,0,.02-.03v-.19s0-.02-.02-.02h-.51s-.02,0-.02,.02v.21Zm.5-.76v-.25h-.41v.25h.41Z"/>
          <path d="M22.51,20.45c-.16,.22-.38,.4-.66,.55l-.14-.15c.53-.25,.84-.66,.94-1.24h-.91v-.2h.93v-.38h.21v.38h.93v.2h-.91s.01,.08,.02,.11c.14,.44,.45,.83,.94,1.15l-.18,.14c-.11-.08-.21-.16-.29-.23-.3-.28-.5-.56-.61-.86-.07,.19-.15,.37-.26,.53Zm.21,0c.14,.17,.25,.33,.34,.47l-.17,.09c-.11-.18-.22-.33-.33-.46l.16-.1Z"/>
          <path d="M24.51,21.01h-.21v-.99s.03-.07,.07-.07h.63v-.41h-.93v-.19h.93v-.33h.21v.33h.93v.19h-.93v.41h.65s.07,.02,.07,.07v.99h-.21v-.09h-1.22v.09Zm1.22-.28v-.57s0-.03-.03-.03h-1.16s-.03,0-.03,.03v.57h1.22Z"/>
          <path d="M26.44,20.49v-.17h.97v-.13h-.66s-.07-.02-.07-.06v-.63c-.06,.06-.11,.1-.15,.14l-.15-.11c.19-.14,.33-.31,.43-.52l.16,.08c-.02,.05-.05,.09-.07,.13h.55c.05-.08,.08-.15,.1-.2l.18,.08s-.04,.07-.06,.12h.72l-.02,.16h-.75v.12h.71v.16h-.71v.11h.72v.16h-.72v.1h.77v.16h-.77v.13h.85v.17h-.79c.24,.14,.53,.24,.85,.29l-.09,.17s-.07-.02-.1-.03c-.23-.06-.47-.16-.72-.28v.38h-.2v-.41c-.33,.19-.64,.3-.93,.33l-.07-.18c.32-.05,.62-.14,.88-.28h-.86Zm.97-1.11h-.52s-.03,0-.03,.03v.09h.54v-.12Zm0,.28h-.54v.11h.54v-.11Zm0,.27h-.54v.08s0,.03,.03,.03h.52v-.1Z"/>
          <path d="M28.98,21.03h-.19v-1.92s.03-.06,.06-.06h1.87s.06,.03,.06,.06v1.92h-.19v-.08h-1.62v.08Zm.46-.53h-.38v-.15h1.07v-.09l-1.02,.03-.02-.16,.61-.02v-.09h-.55s-.03-.01-.03-.02v-.48s0-.03,.03-.03h.55v-.07h-.62v-.14h.62v-.08h-.7s-.03,0-.03,.03v1.54h.56c-.07-.09-.13-.15-.19-.19l.09-.09Zm.26-.88h-.4s0,0,0,0v.06h.41v-.07Zm0,.2h-.41v.07s0,0,0,0h.4v-.08Zm-.15,.97h.48s-.1-.02-.16-.03v-.17c.07,.02,.13,.03,.19,.03,.02,0,.04,0,.05-.02,.01-.01,.02-.03,.02-.05v-.04h-.63c.06,.05,.12,.1,.18,.17l-.12,.11Zm.76-.2s0,.07-.03,.09c-.03,.04-.07,.08-.13,.1h.45v-1.54s0-.03-.03-.03h-.69v.08h.62v.14h-.62v.07h.55s.02,0,.02,.03v.48s-.01,.02-.02,.02h-.03c.05,.06,.11,.13,.16,.21l-.12,.08s-.04-.05-.05-.07h-.08v.1h.24v.15h-.24v.08Zm-.43-.9h.4v-.06h0s-.4,0-.4,0v.07Zm0,.2h.4v-.08h-.4v.08Zm.4,.13h-.4v.09l.38-.02s-.03-.02-.04-.03l.05-.04Z"/>
          <path d="M31.2,20.7c-.09-.14-.13-.39-.13-.75,0-.31,.06-.53,.15-.66,.1-.11,.22-.17,.37-.17s.27,.06,.35,.18c.1,.14,.14,.36,.14,.65,0,.37-.06,.62-.15,.76-.07,.11-.18,.17-.34,.17-.18,0-.31-.06-.38-.19Zm.59-1.27c-.06-.08-.13-.13-.21-.13-.09,0-.17,.03-.22,.09-.07,.1-.11,.29-.11,.56,0,.29,.04,.5,.1,.63,.05,.08,.12,.13,.23,.13,.08,0,.16-.05,.21-.14,.06-.1,.09-.31,.09-.61,0-.27-.04-.44-.1-.53Z"/>
          <path d="M32.51,20.86h-.19v-1.72h.46c.14,0,.25,.05,.34,.15,.07,.1,.11,.23,.11,.41,0,.15-.04,.27-.12,.36-.08,.07-.19,.11-.32,.11h-.27v.7Zm.45-.94c.05-.04,.08-.12,.08-.22,0-.13-.02-.22-.07-.28-.05-.07-.15-.1-.28-.1h-.18v.67h.18c.12,0,.21-.02,.27-.07Z"/>
          <path d="M33.97,20.71c.09,0,.16-.04,.21-.09,.04-.07,.06-.2,.06-.39v-1.09h.19v1.09c0,.23-.04,.39-.1,.5-.08,.11-.2,.16-.36,.16s-.28-.05-.35-.15c-.07-.11-.11-.28-.11-.51v-1.09h.19v1.09c0,.18,.02,.31,.06,.38,.04,.07,.11,.1,.21,.1Z"/>
          <path d="M35.19,20.7c.08,0,.15-.03,.21-.08,.05-.06,.08-.12,.08-.2,0-.11-.12-.24-.34-.38-.26-.17-.38-.33-.38-.48,0-.11,.03-.2,.1-.29,.08-.1,.19-.15,.33-.15,.2,0,.36,.11,.49,.34l-.12,.14c-.05-.1-.1-.17-.14-.21-.05-.06-.13-.08-.22-.08-.07,0-.13,.03-.17,.08-.05,.05-.07,.11-.07,.19,0,.1,.12,.23,.38,.39,.23,.15,.35,.31,.35,.48,0,.12-.04,.23-.13,.32-.1,.08-.21,.13-.34,.13-.2,0-.37-.12-.49-.36l.12-.14c.12,.21,.24,.31,.38,.31Z"/>
          <path d="M36.79,18.96l-.65,2.13h-.16l.65-2.13h.16Z"/>
          <path d="M37.14,19.84c-.01-.06-.03-.12-.05-.19l.22-.02c.16-.19,.3-.4,.45-.63l.16,.1c-.08,.14-.2,.31-.35,.51l1.16-.08s-.12-.13-.29-.28l.15-.13c.27,.25,.47,.47,.62,.65l-.16,.11c-.05-.06-.1-.12-.16-.18l-1.75,.13Zm.38,1.16h-.21v-.91s.03-.07,.07-.07h1.52s.07,.02,.07,.07v.91h-.21v-.09h-1.25v.09Zm1.25-.28v-.48s0-.03-.03-.03h-1.2s-.03,0-.03,.03v.48h1.25Z"/>
          <path d="M39.55,19.06c.08,.06,.18,.14,.29,.23l-.12,.13c-.11-.1-.21-.17-.29-.22l.12-.14Zm0,.52c.08,.05,.17,.12,.27,.21l-.12,.13c-.1-.1-.19-.16-.26-.2l.11-.14Zm.29,.59c-.02,.32-.1,.59-.22,.79l-.18-.05c.14-.24,.22-.49,.22-.75h.18Zm.02-.39s-.02-.09-.04-.14h.12s.07-.09,.11-.13c-.08-.07-.15-.12-.22-.15l.07-.13s.03,.01,.05,.03c.04-.08,.08-.16,.12-.25l.13,.07c-.03,.07-.08,.16-.15,.26,.02,.02,.05,.03,.07,.05,.04-.06,.07-.13,.09-.2l.14,.05c-.02,.09-.1,.21-.22,.35l.13-.02s-.02-.05-.03-.08l.12-.03c.04,.08,.06,.17,.08,.28l-.12,.03s-.01-.04-.02-.07l-.1,.02v.37h-.15v-.35l-.2,.03Zm.15,.08c-.01,.06-.03,.14-.05,.26l-.13-.04c.02-.08,.04-.16,.05-.25l.13,.03Zm.04,.95l-.15-.05,.05-.34s.03-.05,.06-.05h1.23v-.07s-.01-.02-.02-.02h-1.29v-.14h1.42s.04,.02,.04,.04v.39h-.16v-.06h-1.12s-.04,.02-.04,.04v.03s1.35,0,1.35,0c.04,0,.05,.02,.04,.05,0,.14-.03,.23-.06,.28,0,.02-.02,.03-.04,.03-.12,.1-.5,.11-1.15,.03v-.15c.24,.03,.5,.05,.79,.05,.15,0,.24-.03,.29-.06,0-.02,0-.05,0-.09h-1.25l-.02,.08Zm.34-.98c.03,.1,.04,.18,.04,.23h-.13c-.01-.07-.03-.14-.04-.21l.13-.02Zm.58-.08s-.02-.09-.04-.14l.12-.02s.05-.06,.09-.09c-.07-.07-.15-.13-.22-.17v-.02s-.51,0-.51,0v-.11h.54v.08l.05-.08s.02,.02,.04,.03c.04-.07,.08-.14,.12-.23l.13,.07c-.04,.06-.08,.14-.14,.25,.02,.02,.05,.04,.07,.06,.05-.07,.08-.14,.1-.2l.14,.05c-.02,.07-.09,.19-.21,.34l.12-.02s-.03-.07-.03-.08l.13-.03c.04,.11,.07,.21,.09,.3l-.14,.03s0-.04,0-.06l-.11,.02v.39h-.15v-.37l-.2,.03Zm-.04-.71v.11h-.47v-.11h.47Zm0,.32v.11h-.45v-.11h.45Zm0,.15v.11h-.43v-.11h.43Zm-.02,.57h-.38s-.02-.01-.02-.02v-.37s0-.02,.02-.02h.38s.02,.01,.02,.02v.37s-.01,.02-.02,.02Zm-.28-.3s0,0,0,0v.18h.17v-.18s0,0,0,0h-.16Zm.51,.03c-.01,.11-.03,.2-.04,.27l-.13-.03c.02-.06,.03-.15,.04-.27l.14,.03Zm.38-.02c.04,.12,.07,.21,.07,.26l-.14,.02c-.02-.1-.04-.19-.06-.25l.13-.03Z"/>
          <path d="M42.15,19.29c-.07,.11-.14,.21-.21,.28l-.16-.1c.14-.14,.24-.29,.3-.46l.17,.06s-.02,.03-.02,.05h.56v.17h-.31c.02,.06,.04,.12,.05,.19l-.18,.03c-.01-.06-.03-.13-.05-.21h-.15Zm-.08,1.14v.06c-.07-.02-.14-.03-.2-.03l.05-.49s.02-.05,.05-.05h.79v-.18h-.8v-.18h1.74s.04,.01,.04,.02c.01,.01,.02,.03,.03,.04v.51h-.2v-.03h-.62v.16h.84s.04,.02,.04,.06c0,.23,0,.38-.03,.45-.02,.06-.04,.1-.08,.13-.05,.03-.11,.05-.18,.05s-.19-.01-.35-.03v-.2c.2,.04,.33,.06,.38,.04,.02-.01,.04-.03,.04-.05,.01-.03,.02-.12,.02-.25,0-.01-.01-.02-.04-.02h-.66v.6h-.2v-.49c-.32,.21-.61,.36-.88,.42l-.09-.17c.32-.07,.6-.2,.84-.37h-.56Zm.7-.34h-.63s-.02,0-.03,0l-.02,.15h.68v-.16Zm.3-.8c-.06,.1-.12,.18-.18,.24l-.16-.09c.13-.13,.22-.28,.26-.43l.18,.06s-.02,.04-.03,.06h.73v.17h-.44s.05,.07,.07,.17l-.17,.04c-.02-.05-.05-.12-.09-.21h-.18Zm-.11,.62h.62v-.15s0-.03-.03-.03h-.59v.18Z"/>
          <path d="M46.24,19.84v.21h-2.1v-.21h2.1Z"/>
          <path d="M46.52,19.8s.01-.03,.04-.03h1.9l.16,.08c0,.11-.03,.23-.08,.37l-.17-.05c.04-.12,.05-.19,.04-.2,0-.02,0-.03-.03-.03h-1.66s-.02,0-.02,.02v.22h-.18v-.37Zm1.25,1.06c-.03,.08-.08,.13-.13,.15-.04,.02-.08,.03-.12,.03-.05,0-.13-.02-.24-.04v-.18c-.27,.1-.5,.15-.66,.17l-.06-.17c.4-.05,.76-.16,1.08-.34,0-.03-.01-.06-.02-.08-.37,.2-.7,.31-.98,.33l-.06-.17c.35-.03,.66-.13,.96-.29-.02-.02-.05-.04-.07-.06-.3,.16-.57,.24-.8,.25l-.05-.16c.22-.02,.44-.07,.66-.15h-.46v-.14h1.49v.14h-.66s.07,.07,.1,.11c.07,.08,.1,.14,.11,.15,.17,.2,.4,.36,.71,.46l-.12,.16c-.24-.1-.44-.23-.6-.38,0,.09-.02,.16-.05,.22Zm-.32-1.86h.2v.11h.89v.17h-1.98v-.17h.89v-.11Zm.82,.7h-1.47s-.02,0-.02-.03v-.31s.01-.02,.02-.02h1.47s.03,.01,.03,.02v.31s0,.03-.03,.03Zm-1.31-.22s0,0,0,0v.08h0s1.15,0,1.15,0h0v-.08h-1.16Zm.67,1.17c-.13,.06-.24,.12-.34,.17,.13,.03,.21,.03,.25,.02,.03-.02,.05-.04,.07-.08,.01-.03,.02-.07,.02-.1Zm.77-.31c-.1,.07-.21,.15-.34,.22l-.1-.14c.15-.08,.26-.16,.34-.21l.1,.14Z"/>
          <path d="M48.89,20.36l-.03-.19,.75-.05v-.25c-.16,.02-.31,.03-.46,.03l-.05-.2c.6-.01,1.08-.07,1.44-.18l.06,.19c-.16,.04-.42,.08-.79,.14v.27l1.06-.07v.19s-1.06,.08-1.06,.08v.39s.01,.06,.04,.08c.02,.02,.04,.03,.08,.03h.71s.04,0,.06-.02c.01,0,.02-.11,.03-.31l.21,.03c-.02,.25-.04,.39-.06,.42-.05,.05-.1,.08-.14,.08h-.91c-.05,0-.1-.03-.14-.07-.04-.05-.06-.09-.06-.13v-.49l-.72,.04Zm.89-1.35h.21v.17h.79l.18,.08c-.01,.12-.05,.27-.12,.45l-.18-.06c.05-.14,.07-.23,.07-.26,0-.02,0-.03-.03-.03h-1.59s-.02,0-.02,.02v.31h-.2v-.47s.01-.03,.04-.03h.86v-.17Z"/>
          <path d="M52.2,19.96v.15h-1.08v-.15h1.08Z"/>
          <path d="M52.62,21.02h-.19v-1.92s0-.02,0-.03h.49l.13,.08-.09,.3c.07-.06,.12-.11,.16-.17,.04-.06,.08-.15,.12-.27l.18,.04s-.02,.07-.03,.1h.98s.03,0,.04,0c.02,.01,.03,.05,.03,.1,0,.33,0,.64,0,.91-.02,.44-.1,.71-.24,.81-.12,.07-.33,.07-.62,0v-.2c.27,.07,.45,.08,.53,.03,.08-.06,.13-.29,.14-.68,0-.52,0-.78,0-.79s-.01,0-.02,0h-.92c-.07,.11-.14,.2-.23,.27l-.12-.11-.06,.22s0,.06,0,.08c.08,.12,.14,.23,.18,.34,.04,.17,.02,.31-.05,.39-.05,.04-.1,.07-.16,.08-.07,.01-.16,0-.25-.03v.46Zm.02-1.78h-.02v1.12c.07,.04,.13,.07,.19,.06,.04,0,.06,0,.08-.03,.02-.03,.03-.05,.03-.08,.01-.11-.06-.3-.21-.55h0s.13-.48,.13-.48c.01-.03,0-.05-.04-.04h-.16Zm.92,.85h-.45v-.17h.45v-.21h-.17c-.04,.06-.1,.12-.17,.17-.04-.06-.07-.1-.11-.13,.12-.1,.21-.22,.27-.37l.17,.08s-.03,.05-.04,.07h.63v.17h-.38v.21h.44v.17h-.44v.42h.17s.03,0,.03-.03v-.26h.18v.37c0,.06-.04,.08-.09,.08h-.76c-.05,0-.08-.03-.08-.08v-.37h.18v.26s0,.03,.03,.03h.16v-.42Z"/>
          <path d="M55.89,21.03h-.21v-.79c-.28,.29-.56,.51-.83,.64l-.14-.16c.38-.18,.69-.42,.93-.7h-.88v-.19h.93v-.37h-.59c-.07,.11-.14,.2-.23,.26l-.15-.13c.09-.07,.16-.15,.22-.24,.05-.07,.09-.18,.13-.32l.19,.04c-.02,.07-.04,.14-.06,.2h.49v-.26h.21v.26h.83v.19h-.83v.37h.91v.19h-.86s.01,0,.02,0c.21,.27,.5,.51,.88,.71l-.16,.14c-.33-.2-.6-.42-.8-.64v.79Z"/>
          <path d="M57.27,21.02h-.18v-1.96s0-.02,0-.02c0,0,.01,0,.02,0h.39l.12,.07-.09,.52c-.02,.08-.02,.13,0,.15,.07,.11,.11,.22,.12,.32,.03,.16,0,.27-.06,.34-.03,.04-.07,.06-.12,.07s-.12,0-.21-.03v.54Zm.17-1.83h-.16s0,0,0,0h0v1.09s.1,.06,.15,.05c.03,0,.05,0,.05-.03,.01-.02,.02-.04,.03-.06h0c.01-.11-.04-.27-.14-.49,0-.01,0-.04,0-.08l.09-.49Zm.43,1.43c-.08,.16-.17,.3-.29,.41-.05-.06-.09-.1-.12-.14,.11-.09,.19-.21,.24-.35l.17,.08Zm.15-1.4c-.09,.15-.2,.26-.32,.33-.03-.06-.06-.1-.1-.14,.11-.07,.2-.17,.26-.29l.16,.09Zm.29,.37h-.43v-.14h1.02v.14h-.41v.1h.63v.14h-1.42v-.14h.61v-.1Zm.7,.86s-.02,.05-.05,.05h-1.13v-.14h1s.02-.01,.02-.02v-.08h-1.12v-.13h1.12v-.08s-.01,0-.02,0h-.99v-.14h1.12s.05,.02,.05,.04v.18h.18v.13h-.18v.19Zm-.89,.1v.21s0,.07,0,.08c.02,.02,.05,.04,.09,.04h.32s.04-.01,.06-.02c.04-.01,.06-.07,.06-.17l.18,.03c-.01,.14-.03,.22-.05,.25-.03,.03-.06,.05-.08,.06-.02,0-.06,0-.12,0h-.45c-.05,0-.09,0-.12-.03-.06-.04-.09-.11-.09-.22v-.24h.18Zm0-1.34l-.02-.16c.37,0,.64,0,.82-.04l.02,.16c-.08,.02-.25,.04-.51,.04,.02,.06,.03,.11,.04,.17l-.18,.03c-.01-.08-.03-.15-.04-.2h-.12Zm.31,1.32c.04,.06,.09,.13,.14,.22l-.14,.08c-.05-.1-.1-.17-.13-.21l.13-.08Zm.51,0c.08,.09,.16,.21,.25,.36l-.16,.08c-.08-.15-.16-.26-.23-.33l.14-.12Zm.02-1.33c.07,.07,.15,.16,.24,.29l-.15,.09c-.09-.12-.16-.21-.22-.28l.13-.1Z"/>
          <path d="M59.69,21.02h-.19v-1.89s.03-.06,.06-.06h1.81s.06,.02,.06,.06v1.89h-.19v-.08h-1.56v.08Zm.7-1.44v-.1h-.54v-.14h.54v-.09h-.67s-.03,0-.03,.03v1.5h1.56v-1.51s0-.02-.03-.02h-.65v.09h.54v.14h-.54v.1h.6v.15h-1.38v-.15h.6Zm-.02,.67v.47h-.18v-.32c-.12,.1-.23,.18-.32,.23l-.12-.13c.14-.07,.27-.16,.38-.25h-.21s-.03,0-.03-.03v-.39s0-.03,.03-.03h1.13s.03,0,.03,.03v.39s0,.03-.03,.03h-.4c.09,.19,.27,.3,.54,.34l-.09,.15c-.33-.07-.54-.24-.63-.49h-.08Zm-.31-.3s0,0,0,0v.14s0,0,0,0h.82s0,0,0,0v-.14s0,0,0,0h-.82Zm1.14,.42c-.06,.04-.14,.09-.23,.14l-.08-.14c.1-.05,.17-.1,.22-.14l.09,.13Z"/>
          <path d="M62.65,18.96l-.65,2.13h-.16l.65-2.13h.16Z"/>
          <path d="M.81,25.17v.22c0,.08-.01,.16-.04,.25-.02,.03-.03,.07-.04,.1-.11,.25-.32,.44-.61,.58l-.13-.17c.11-.04,.2-.08,.28-.14,.22-.15,.33-.36,.33-.63v-.22H.04v-.19H2.11v.19h-.65v.83s.01,.06,.04,.08c.02,.02,.04,.03,.08,.03h.27s.04,0,.06-.02c.01-.01,.02-.03,.02-.05v-.31l.21,.02c-.01,.29-.03,.45-.05,.48-.05,.05-.1,.08-.14,.08h-.47c-.05,0-.1-.03-.14-.07-.04-.04-.06-.09-.06-.13v-.94h-.44Zm1.12-.76v.19H.23v-.19H1.93Z"/>
          <path d="M3.08,26.34h-.2v-.99c-.1,.19-.22,.36-.35,.51l-.18-.08c.21-.21,.37-.45,.48-.71h-.45v-.19h.49v-.3c-.17,.02-.31,.03-.44,.03l-.03-.19c.44-.02,.79-.06,1.05-.11l.04,.18c-.09,.02-.23,.05-.41,.07h0v.31h.46v.19h-.46c.16,.18,.32,.35,.46,.53l-.15,.12c-.1-.12-.2-.25-.31-.39v1.01Zm1.3-1.99v1.75c0,.08-.04,.15-.11,.19-.1,.06-.29,.06-.56-.02v-.19c.25,.06,.4,.07,.46,.03,.01-.02,.02-.04,.02-.06v-1.7h.2Zm-.47,.08v1.43h-.2v-1.43h.2Z"/>
          <path d="M4.88,25.33l-.19-.08c.2-.28,.33-.58,.38-.91l.19,.03c-.04,.18-.08,.33-.12,.45v1.51h-.2v-1.11s-.05,.07-.07,.1Zm1.92-.66v.19h-1.54v-.19h1.54Zm-1.23,1.66h-.2v-.69s0-.03,.03-.03h1.27s.04,.02,.04,.04v.68h-.2v-.1h-.95v.1Zm1.07-1.36v.18h-1.23v-.18h1.23Zm0,.31v.18h-1.23v-.18h1.23Zm0-.9v.18h-1.2v-.18h1.2Zm-.12,1.66v-.24s0-.03-.03-.03h-.89s-.03,0-.03,.03v.24h.95Z"/>
          <path d="M8.32,25.73h-.56v.13c.14-.02,.24-.03,.31-.05l.04,.16c-.07,.02-.19,.04-.35,.06v.13c0,.07-.04,.13-.1,.17-.07,.05-.2,.04-.4,0v-.17c.16,.03,.26,.04,.3,.02,.01-.01,.02-.03,.02-.05v-.06c-.19,.02-.33,.03-.45,.03l-.03-.17c.14,0,.3-.02,.47-.03v-.15h-.46v-.17h.46v-.09c-.15,.01-.27,.02-.37,.02l-.03-.16c.35-.01,.63-.04,.83-.08l.03,.16c-.07,.01-.16,.03-.29,.04v.11h.5c-.03-.1-.06-.2-.08-.32h-1.09v-.17h.94v-.1h-.74v-.15h.74v-.11h-.87v-.17h.52s-.07-.07-.09-.09l.13-.11c.05,.04,.11,.1,.17,.18l-.04,.03h.5c.08-.08,.14-.15,.18-.2l.14,.11s-.05,.06-.07,.09h.47v.17h-.85v.11h.73v.15h-.73v.1h.93v.17h-.78c.02,.12,.04,.23,.08,.32h.66v.17h-.6c.03,.07,.07,.14,.12,.2,.07-.05,.15-.1,.24-.17l.11,.14c-.08,.07-.16,.12-.23,.16,.03,.02,.06,.04,.08,.06,.05,.03,.08,.04,.11,.03,.02,0,.04-.02,.04-.03,.02-.04,.03-.1,.03-.17l.17,.06c-.04,.2-.08,.31-.14,.35-.07,.01-.15,0-.22-.04-.09-.05-.16-.1-.22-.16-.19,.08-.41,.14-.66,.18l-.05-.17c.18-.01,.38-.06,.6-.14-.07-.08-.12-.18-.15-.28Zm.34-.48c.14,.06,.24,.11,.31,.14l-.09,.14s-.14-.07-.3-.14l.08-.15Z"/>
          <path d="M9.52,24.58h-.13v-.17h.77v.17h-.09v1.75h-.18v-.31c-.2,.08-.35,.13-.44,.14l-.06-.15s.08-.03,.13-.03v-1.39Zm.38,.31v-.31h-.2v.31h.2Zm0,.48v-.31h-.2v.31h.2Zm0,.48v-.31h-.2v.38c.08-.03,.14-.05,.2-.08Zm.26-.45c0-.05-.02-.1-.04-.15l.14-.03c.05-.06,.1-.12,.15-.2-.1-.1-.2-.17-.29-.23,.02-.05,.05-.1,.09-.14,0,0,.03,.02,.06,.04,.05-.11,.1-.23,.14-.36,.05,.03,.11,.05,.16,.07-.03,.1-.09,.23-.18,.39,.04,.02,.07,.05,.11,.09,.06-.11,.1-.21,.12-.3l.17,.04c-.04,.14-.15,.32-.31,.54l.14-.03s-.02-.08-.04-.11l.16-.03c.04,.1,.07,.22,.09,.37l-.16,.03s-.01-.06-.02-.09l-.5,.08Zm.13,.59c-.05,0-.08-.03-.08-.08v-.45h.18v.32s0,.04,.04,.04h.15v-.37h.18v.5s0,.07-.03,.11c-.05,.13-.19,.23-.4,.3l-.08-.15c.06-.02,.11-.03,.14-.05,.1-.05,.16-.1,.18-.17h-.29Zm.59-.64c0-.05-.02-.1-.04-.15l.11-.03s.08-.09,.12-.14c-.1-.1-.2-.17-.29-.23,.03-.05,.06-.1,.08-.14,.01,0,.04,.02,.07,.04,.07-.11,.12-.24,.16-.37,.05,.03,.11,.05,.16,.08-.04,.1-.1,.23-.19,.39,.03,.03,.06,.06,.1,.09,.07-.12,.12-.24,.13-.35l.18,.04c-.04,.15-.13,.33-.29,.55l.16-.03c-.01-.05-.02-.09-.03-.11l.15-.03c.03,.1,.05,.22,.07,.37l-.16,.03s0-.06,0-.08l-.47,.08Zm.38,.47s.03,0,.03-.03v-.32h.18v.47s-.02,.05-.05,.05h-.33v.36h-.18v-.93h.18v.4h.18Z"/>
          <path d="M13.76,24.67s.03,0,.04,0c.02,.01,.03,.05,.03,.1,0,.53,0,.89-.03,1.09-.04,.22-.1,.36-.19,.42-.08,.05-.21,.06-.39,.02l-.02-.19c.17,.04,.28,.04,.32,0,.07-.05,.1-.25,.11-.59,0-.45,0-.67,0-.68,0,0-.01,0-.02,0h-.23c-.02,.65-.14,1.14-.38,1.47l-.16-.08h0s-1.09,.08-1.09,.08v-.17s.51-.03,.51-.03v-.14h-.46v-.15h.46v-.12h-.47v-.16h.47v-.11h-.46s-.03,0-.03-.03v-.38s0-.03,.03-.03h.46v-.09h-.22s-.07-.03-.07-.08v-.2h-.22v-.16h.22v-.11h.18v.11h.42v-.11h.18v.11h.21v.16h-.21v.2c0,.05-.03,.08-.08,.08h-.21v.09h.46s.03,0,.03,.03v.38s0,.03-.03,.03h-.46v.11h.46v.16h-.46v.12h.41v.15h-.41v.14l.36-.03,.02,.14c.23-.26,.34-.71,.35-1.36h-.23v-.18h.23v-.34h.19v.34h.38Zm-1.49,.47h-.29v.12s0,0,0,0h.29v-.13Zm.3-.52h-.42v.09s0,.03,.03,.03h.37s.03,0,.03-.03v-.09Zm-.11,.65h.29v-.13h-.29v.13Z"/>
          <path d="M14.99,24.27l-.65,2.13h-.16l.65-2.13h.16Z"/>
          <path d="M15.52,25.31h-.21v-.18h.21v-.5h-.21v-.18h.63v.18h-.22v.5h.21v.18h-.21v.59c.08-.03,.16-.06,.21-.09l.09,.17c-.19,.08-.4,.15-.65,.2l-.08-.17c.09-.02,.17-.03,.24-.05v-.65Zm.46,1.04l-.09-.18c.33-.08,.54-.2,.62-.36h-.57v-.17h.62v-.14h-.5v-.17h.5v-.11h-.55v-.17h.28s-.01-.08-.02-.11c-.01-.04-.02-.06-.02-.08h-.29v-.17h.16c-.05-.09-.09-.16-.13-.21l.15-.09c.05,.07,.11,.16,.16,.26l-.08,.04h.17v-.38h.18v.38h.16v-.38h.18v.38h.08c.07-.13,.12-.24,.16-.32l.16,.07c-.02,.08-.06,.16-.12,.26h.19v.17h-.36s-.03,.1-.05,.19h.37v.17h-.59v.11h.54v.17h-.54v.14h.64v.17h-.59c.12,.19,.32,.31,.61,.37l-.09,.17c-.3-.08-.52-.23-.66-.44-.12,.19-.35,.34-.69,.44Zm.8-1.29c.04-.1,.06-.17,.06-.19h-.41s0,.03,0,.05c.01,.05,.02,.1,.03,.14h.31Z"/>
          <path d="M17.92,26.34h-.19v-1.89s.03-.06,.06-.06h1.81s.06,.02,.06,.06v1.89h-.19v-.08h-1.56v.08Zm.7-1.44v-.1h-.54v-.14h.54v-.09h-.67s-.03,0-.03,.03v1.5h1.56v-1.51s0-.02-.03-.02h-.65v.09h.54v.14h-.54v.1h.6v.15h-1.38v-.15h.6Zm-.02,.67v.47h-.18v-.32c-.12,.1-.23,.18-.32,.23l-.12-.13c.14-.07,.27-.16,.38-.25h-.21s-.03,0-.03-.03v-.39s0-.03,.03-.03h1.13s.03,0,.03,.03v.39s0,.03-.03,.03h-.4c.09,.19,.27,.3,.54,.34l-.09,.15c-.33-.07-.54-.24-.63-.49h-.08Zm-.31-.3s0,0,0,0v.14s0,0,0,0h.82s0,0,0,0v-.14s0,0,0,0h-.82Zm1.14,.42c-.06,.05-.14,.09-.23,.14l-.08-.14c.09-.05,.17-.1,.22-.14l.09,.13Z"/>
          <path d="M20.1,24.58h-.13v-.17h.77v.17h-.09v1.75h-.18v-.31c-.2,.08-.35,.13-.44,.14l-.06-.15s.08-.03,.13-.03v-1.39Zm.38,.31v-.31h-.2v.31h.2Zm0,.48v-.31h-.2v.31h.2Zm0,.48v-.31h-.2v.38c.08-.03,.14-.05,.2-.08Zm.26-.45c0-.05-.02-.1-.04-.15l.14-.03c.05-.06,.1-.12,.15-.2-.1-.1-.2-.17-.29-.23,.02-.05,.05-.1,.09-.14,0,0,.03,.02,.06,.04,.05-.11,.1-.23,.14-.36,.05,.03,.11,.05,.16,.07-.03,.1-.09,.23-.18,.39,.04,.02,.07,.05,.11,.09,.06-.11,.1-.21,.12-.3l.17,.04c-.04,.14-.15,.32-.31,.54l.14-.03s-.02-.08-.04-.11l.16-.03c.04,.1,.07,.22,.09,.37l-.16,.03s-.01-.06-.02-.09l-.5,.08Zm.13,.59c-.05,0-.08-.03-.08-.08v-.45h.18v.32s0,.04,.04,.04h.15v-.37h.18v.5s0,.07-.03,.11c-.05,.13-.19,.23-.4,.3l-.08-.15c.06-.02,.11-.03,.14-.05,.1-.05,.16-.1,.18-.17h-.29Zm.59-.64c0-.05-.02-.1-.04-.15l.11-.03s.08-.09,.12-.14c-.1-.1-.2-.17-.29-.23,.03-.05,.06-.1,.08-.14,.01,0,.04,.02,.07,.04,.07-.11,.12-.24,.16-.37,.05,.03,.11,.05,.16,.08-.04,.1-.1,.23-.19,.39,.03,.03,.06,.06,.1,.09,.07-.12,.12-.24,.13-.35l.18,.04c-.04,.15-.13,.33-.29,.55l.16-.03c-.01-.05-.02-.09-.03-.11l.15-.03c.03,.1,.05,.22,.07,.37l-.16,.03s0-.06,0-.08l-.47,.08Zm.38,.47s.03,0,.03-.03v-.32h.18v.47s-.02,.05-.05,.05h-.33v.36h-.18v-.93h.18v.4h.18Z"/>
          <path d="M22.45,25.11l-.12-.17c.53-.2,.87-.4,1.02-.61l.19,.03s-.02,.03-.03,.04c.26,.22,.57,.4,.95,.54l-.13,.17c-.35-.16-.66-.35-.93-.58-.19,.19-.51,.38-.96,.58Zm.37,1.21h-.21v-.87s.03-.07,.07-.07h1.44s.07,.02,.07,.07v.87h-.21v-.09h-1.17v.09Zm1.24-1.32v.2h-1.32v-.2h1.32Zm-.07,1.04v-.44s0-.03-.03-.03h-1.12s-.03,0-.03,.03v.44h1.17Z"/>
          <path d="M25.73,25.29s-.02,.06-.03,.09c-.17,.4-.47,.71-.9,.93l-.14-.15c.52-.24,.84-.63,.95-1.18h-.88v-.2h.89s0-.07,0-.1v-.32h.21v.32s0,.07,0,.1h.89v.2h-.87c.01,.08,.03,.16,.04,.23,.12,.36,.42,.69,.9,.99l-.18,.14s-.09-.06-.13-.08c-.41-.29-.66-.61-.78-.95Z"/>
          <path d="M27.21,26.29l-.2-.03c.16-.35,.23-.72,.23-1.14v-.34h-.21v-.19h.38v-.25h.2v.25h.37v.19h-.54v.24h.42s.03,0,.04,0c.02,.01,.03,.04,.03,.09,0,.24,0,.44,0,.62,0,.3-.06,.48-.17,.55-.07,.04-.19,.04-.37,0l-.02-.22c.08,.03,.14,.04,.18,.05,.05,0,.08,0,.09-.02,.02-.02,.05-.05,.07-.1,.01-.04,.02-.09,.02-.14,.02-.41,.03-.62,0-.65-.01,0-.02,0-.03,0h-.28c-.02,.5-.1,.87-.22,1.09Zm.88-1.19l-.17-.12c.15-.11,.26-.21,.34-.31,.08-.09,.15-.21,.22-.35l.17,.04s-.02,.03-.03,.04c.15,.22,.32,.4,.52,.56l-.15,.13c-.2-.16-.35-.33-.46-.52-.12,.2-.27,.38-.45,.52Zm0,.62c.3,.09,.63,.25,1.01,.47l-.09,.17c-.41-.22-.74-.37-1.01-.46l.09-.18Zm.13-.59c.24,.07,.5,.17,.79,.31l-.08,.18c-.32-.15-.58-.25-.79-.31l.07-.19Z"/>
          <path d="M30.26,24.27l-.65,2.13h-.16l.65-2.13h.16Z"/>
          <path d="M31.21,24.95h-.61v-.2h.61v-.42h.21v1.99h-.21v-.53c-.16,.1-.34,.2-.54,.31l-.12-.16c.23-.11,.45-.24,.65-.37v-.6Zm.68,.05c.26-.17,.45-.32,.58-.44l.13,.15c-.18,.17-.42,.34-.71,.52v.76s.01,.08,.02,.09c.02,.02,.05,.03,.11,.03h.29c.07,0,.12-.02,.13-.05,.02-.04,.04-.16,.04-.37l.21,.03c0,.28-.02,.44-.06,.49-.04,.04-.07,.07-.1,.08-.04,0-.08,0-.14,0h-.44c-.06,0-.11-.01-.14-.03-.07-.05-.11-.14-.11-.25v-1.71h.21v.69Z"/>
          <path d="M33.61,25.78c-.13,.16-.33,.34-.6,.54l-.11-.15c.24-.17,.42-.34,.55-.49l.16,.11Zm.26-1.46h.21v.18h.92v.19h-2.05v-.19h.92v-.18Zm-.69,1.24s-.05-.02-.05-.05v-.62s.02-.05,.05-.05h1.57s.05,.02,.05,.05v.62s-.02,.05-.05,.05h-.66v.58c0,.08-.04,.15-.11,.19-.08,.04-.23,.03-.46-.03v-.2c.09,.03,.15,.05,.17,.05,.09,.02,.15,.01,.18,0,.01-.02,.02-.04,.02-.06v-.53h-.71Zm.15-.54s0,0,0,0v.33s0,0,0,0h1.28v-.34h0s-1.27,0-1.27,0Zm1.13,.65c.17,.14,.36,.32,.55,.54l-.15,.13c-.21-.24-.39-.42-.54-.54l.13-.14Z"/>
          <path d="M36.29,25.28v.15h-1.08v-.15h1.08Z"/>
          <path d="M37.62,25.33h-.2v-.31c-.33,.21-.62,.34-.88,.39l-.09-.18c.3-.07,.58-.18,.83-.34h-.8v-.18h.93v-.14c-.29,0-.53,0-.72,0l-.02-.18c.7,.01,1.25-.02,1.66-.09l.03,.18c-.14,.03-.36,.05-.66,.07-.04,0-.07,0-.09,0v.14h.94v.18h-.81c.23,.15,.51,.26,.85,.33l-.1,.17c-.33-.08-.62-.2-.88-.37v.31Zm-.68,1.01h-.2v-.92s0-.03,.03-.03h1.53s.04,.02,.04,.04v.91h-.2v-.1h-1.21v.1Zm1.21-.61v-.14s0-.03-.03-.03h-1.15s-.03,0-.03,.03v.14h1.21Zm-1.21,.18v.15h1.21v-.15h-1.21Z"/>
          <path d="M40.59,26.07s.03,0,.03-.03v-1.49h.21v1.61c0,.06-.04,.09-.1,.09h-1.72c-.07,0-.1-.04-.1-.09v-1.61h.21v1.49s.01,.03,.04,.03h.62v-1.72h.21v1.72h.61Z"/>
          <path d="M41.58,25.68c-.06,.28-.14,.48-.23,.6l-.2-.05c.2-.31,.29-.64,.29-1.02v-.08h-.21s-.03,0-.03-.03v-.71s0-.03,.03-.03h1.08s.04,0,.04,.03v.71s-.01,.03-.04,.03h-.68v.08s0,.07,0,.12h.67s.03,0,.04,0c.01,0,.02,0,.02,.03,0,0,0,.01,0,.02,0,.45-.02,.71-.05,.78-.03,.06-.07,.1-.11,.12-.12,.06-.31,.05-.56-.03v-.21c.22,.07,.38,.09,.45,.05,.03-.02,.05-.04,.05-.06,.01-.02,.02-.05,.02-.08,.02-.26,.03-.4,0-.42-.01,0-.02,0-.03,0h-.55c-.01,.07-.02,.12-.03,.16Zm-.17-1.13s0,0,0,0v.39h0s.74,0,.74,0c0,0,0,0,0,0v-.39s0,0,0,0h-.74Zm1.36-.1v1.41h-.2v-1.41h.2Zm.43-.1v1.76c0,.08-.04,.15-.11,.19-.1,.05-.26,.05-.5,0v-.19c.11,.03,.19,.05,.25,.05,.06,0,.11-.01,.14-.03,.01-.02,.02-.04,.02-.06v-1.71h.2Z"/>
          <path d="M44.46,25.97h-.71v-.17h.71v-.17h.2v.17h.74v.17h-.74v.15h.92v.17h-2.03v-.17h.91v-.15Zm-.49-.62h-.36v-.15h.36v-.13h-.36s-.02,0-.02-.03v-.63s.01-.03,.02-.03h.89s.03,0,.03,.03v.63s0,.03-.03,.03h-.35v.13h.37v.15h-.37v.11l.36-.03,.02,.17-.93,.09-.04-.17,.41-.03v-.14Zm0-.82h-.2s0,0,0,0v.11h.2v-.12Zm0,.26h-.2v.12h0s.2,0,.2,0v-.13Zm.18-.14h.2v-.11s0,0,0,0h-.19v.12Zm0,.27h.19s0,0,0,0v-.12h-.2v.13Zm.45,.14v-.17h.38c-.07-.06-.14-.1-.2-.13l.11-.14s.08,.06,.15,.11c.11-.06,.18-.12,.22-.17,.01-.01,0-.02-.02-.02h-.63v-.16h.78l.12,.09c-.07,.13-.18,.25-.33,.36,.01,.02,.03,.03,.04,.03l-.03,.03h.31l.12,.09c-.04,.16-.1,.31-.2,.44l-.17-.06c.1-.12,.16-.21,.16-.26,0-.02,0-.03,0-.03h-.25v.44c0,.07-.04,.13-.1,.17-.06,.03-.18,.03-.37-.03v-.18c.11,.04,.18,.06,.21,.06,.02,0,.04,0,.05-.02,.01-.01,.02-.03,.02-.05v-.4h-.4Z"/>
          <path d="M46.74,24.27l-.65,2.13h-.16l.65-2.13h.16Z"/>
          <path d="M47.78,24.34h.21v.52h1.04v.2h-1.04v1.01h1.16v.2h-2.09v-.2h.71v-1.72Z"/>
          <path d="M49.84,25.51c-.05,.33-.15,.6-.28,.81l-.19-.07c.16-.24,.25-.5,.27-.76l.2,.02Zm-.33-.6c.11,.06,.22,.15,.33,.27l-.13,.14c-.12-.12-.23-.21-.32-.26l.12-.14Zm.04-.54c.1,.06,.21,.15,.34,.27l-.12,.14c-.13-.12-.24-.2-.34-.25l.12-.15Zm.42,.64l-.15-.12c.08-.07,.14-.15,.2-.24,.04-.07,.07-.17,.11-.31l.2,.03s-.02,.07-.03,.09h1.2v.18h-1.26c-.08,.15-.16,.27-.26,.36Zm1.34,.87h.18v.18h-.21c-.04,.15-.09,.25-.16,.28-.09,.04-.25,.04-.48,0l.02-.21c.11,.03,.2,.05,.25,.06,.05,0,.08-.01,.08-.02,.04,0,.07-.04,.09-.11h-.97s-.02,.05-.03,.07l-.18-.05c.08-.23,.14-.41,.18-.55h-.21v-.18h.26c.04-.16,.07-.31,.07-.47,0-.02,.01-.03,.02-.05,.01-.01,.03-.02,.04-.02h1.07s.05,0,.05,.03c.01,.02,.02,.04,.02,.06,0,.16-.01,.31-.02,.45h.13v.18h-.15c-.03,.2-.05,.32-.05,.36Zm-1.05-.36c-.02,.08-.05,.2-.11,.36h.96c.01-.07,.02-.14,.03-.21,.01-.06,.02-.11,.03-.14h-.9Zm.92-.18c.02-.21,.03-.33,0-.35,0,0-.02,0-.04,0h-.72s-.04,0-.04,.02c-.01,.01-.02,.03-.02,.04-.01,.07-.03,.17-.05,.3h.88Zm-.51,.2c.09,.1,.15,.17,.19,.23l-.14,.08c-.07-.09-.13-.16-.19-.21l.14-.1Zm.04-.54c.08,.09,.14,.17,.18,.24l-.15,.08c-.04-.08-.1-.16-.17-.23l.14-.09Z"/>
          <path d="M52.77,25.28v.15h-1.08v-.15h1.08Z"/>
          <path d="M53.39,25.51c-.05,.33-.15,.6-.28,.81l-.19-.07c.16-.24,.25-.5,.27-.76l.2,.02Zm-.33-.6c.11,.06,.22,.15,.33,.27l-.13,.14c-.12-.12-.23-.21-.32-.26l.12-.14Zm.04-.54c.1,.06,.21,.15,.34,.27l-.12,.14c-.13-.12-.24-.2-.34-.25l.12-.15Zm.42,.64l-.15-.12c.08-.07,.14-.15,.2-.24,.04-.07,.07-.17,.11-.31l.2,.03s-.02,.07-.03,.09h1.2v.18h-1.26c-.08,.15-.16,.27-.26,.36Zm1.34,.87h.18v.18h-.21c-.04,.15-.09,.25-.16,.28-.09,.04-.25,.04-.48,0l.02-.21c.11,.03,.2,.05,.25,.06,.05,0,.08-.01,.08-.02,.04,0,.07-.04,.09-.11h-.97s-.02,.05-.03,.07l-.18-.05c.08-.23,.14-.41,.18-.55h-.21v-.18h.26c.04-.16,.07-.31,.07-.47,0-.02,.01-.03,.02-.05,.01-.01,.03-.02,.04-.02h1.07s.05,0,.05,.03c.01,.02,.02,.04,.02,.06,0,.16-.01,.31-.02,.45h.13v.18h-.15c-.03,.2-.05,.32-.05,.36Zm-1.05-.36c-.02,.08-.05,.2-.11,.36h.96c.01-.07,.02-.14,.03-.21,.01-.06,.02-.11,.03-.14h-.9Zm.92-.18c.02-.21,.03-.33,0-.35,0,0-.02,0-.04,0h-.72s-.04,0-.04,.02c-.01,.01-.02,.03-.02,.04-.01,.07-.03,.17-.05,.3h.88Zm-.51,.2c.09,.1,.15,.17,.19,.23l-.14,.08c-.07-.09-.13-.16-.19-.21l.14-.1Zm.04-.54c.08,.09,.14,.17,.18,.24l-.15,.08c-.04-.08-.1-.16-.17-.23l.14-.09Z"/>
          <path d="M56.7,25.31h-.72s-.02,.03-.03,.03c-.05,.05-.09,.1-.13,.14,.11,.11,.19,.19,.22,.23l-.14,.1s-.12-.12-.22-.22c-.09,.08-.17,.14-.25,.18l-.14-.13c.2-.12,.35-.23,.46-.33h-.43v-.18h.6c.04-.06,.08-.11,.12-.16h-.55v-.18h.64c.03-.07,.05-.12,.05-.16h-.78v-.18h.8s.02-.09,.03-.13l.19,.02s-.01,.08-.02,.11h.92v.18h-.96c-.01,.07-.03,.12-.04,.16h.92v.18h-.54c.04,.07,.07,.12,.11,.16h.59v.18h-.44c.12,.11,.28,.21,.47,.31l-.15,.14c-.11-.07-.21-.14-.3-.21-.08,.07-.17,.15-.29,.22l-.12-.14c.11-.08,.2-.15,.27-.2-.04-.03-.08-.08-.12-.13Zm-.55,.67c-.17,.12-.4,.24-.69,.35l-.08-.17c.29-.11,.51-.22,.67-.32l.1,.14Zm.3-.54v.69c0,.08-.04,.15-.11,.19-.07,.03-.2,.03-.38,0v-.19c.15,.03,.24,.04,.28,.02,.01-.02,.02-.04,.02-.06v-.64h.2Zm.02-.48h-.24c-.04,.06-.07,.11-.11,.16h.45c-.03-.05-.06-.1-.1-.16Zm.2,.89c.3,.15,.51,.26,.63,.33l-.11,.15c-.17-.11-.38-.21-.62-.32l.1-.16Z"/>
          <path d="M58.28,24.95h-.61v-.2h.61v-.42h.21v1.99h-.21v-.53c-.16,.1-.34,.2-.54,.31l-.12-.16c.23-.11,.45-.24,.65-.37v-.6Zm.68,.05c.26-.17,.45-.32,.58-.44l.13,.15c-.19,.17-.42,.34-.72,.52v.76s.01,.08,.02,.09c.02,.02,.05,.03,.11,.03h.29c.07,0,.12-.02,.13-.05,.02-.04,.04-.16,.04-.37l.21,.03c0,.28-.02,.44-.06,.49-.04,.04-.07,.07-.1,.08-.04,0-.08,0-.14,0h-.44c-.06,0-.11-.01-.14-.03-.07-.05-.11-.14-.11-.25v-1.71h.21v.69Z"/>
          <path d="M61.13,24.95c-.08,.32-.16,.55-.24,.71-.15,.28-.38,.49-.68,.63l-.18-.14c.09-.04,.17-.08,.24-.11,.21-.12,.37-.29,.48-.49-.13-.11-.29-.23-.46-.35-.04,.06-.08,.11-.14,.17l-.18-.1c.11-.11,.19-.22,.24-.35,.05-.12,.08-.3,.11-.54l.19,.03s0,.05,0,.08h.63s.05,.01,.05,.02h0s0,0,0,0c.01,0,.02,.02,.02,.03h0c.06,.25,.15,.45,.28,.62v-.81h.2v1.03c.12,.1,.27,.19,.46,.27l-.14,.15c-.13-.06-.24-.13-.31-.2v.74h-.2v-.9c-.12-.12-.24-.28-.33-.48Zm-.54,.23c.09,.07,.17,.13,.24,.19,.08-.19,.13-.4,.17-.64,0-.03-.01-.05-.04-.05h-.5c-.02,.15-.04,.27-.08,.36,.05,.04,.12,.09,.21,.14Z"/>
          <path d="M62.46,24.37c.09,.07,.18,.16,.28,.26l-.13,.12c-.11-.11-.2-.2-.28-.25l.13-.13Zm0,.56c.09,.06,.18,.15,.28,.25l-.13,.13c-.11-.11-.2-.2-.27-.25l.12-.13Zm.28,.56c-.02,.33-.1,.6-.22,.79l-.18-.05c.13-.23,.21-.48,.22-.76l.18,.02Zm.04,.87l-.1-.14c.18-.06,.32-.15,.39-.25h-.31v-.15h.38s0-.06,0-.09h-.32v-.14h.32v-.08h-.31s-.02-.01-.02-.02v-.42s.01-.03,.02-.03h.31v-.08h-.15s-.07-.03-.07-.07v-.2h-.13v-.15h.13v-.14h.16v.14h.29v-.14h.16v.14h.12v.15h-.12v.2s-.03,.07-.08,.07h-.14v.08h.32s.03,0,.03,.03v.42s0,.02-.03,.02h-.32v.08h.32v.14h-.32s0,.06,0,.09h.38v.15h-.33c.11,.07,.22,.15,.31,.24l-.12,.13c-.09-.08-.2-.18-.33-.29-.09,.13-.24,.24-.44,.32Zm.37-1.2h-.17s0,0,0,0v.16h0s.17,0,.17,0v-.18Zm.23-.49h-.29v.09s.01,.03,.02,.03h.25s.03,0,.03-.03v-.09Zm-.06,.67h.18s0,0,0,0v-.16s0,0,0,0h-.18v.18Zm1.14,.82v.16h-.65s-.06-.02-.06-.06v-1.34s-.03,.04-.04,.06c-.05-.05-.09-.08-.13-.09,.12-.15,.2-.33,.23-.54l.17,.04c-.03,.08-.06,.17-.08,.25h.19c.06-.11,.09-.2,.1-.29l.16,.05c-.01,.07-.04,.15-.07,.24h.19l-.02,.16h-.19v.34h.17v.16h-.17v.34h.17v.16h-.17v.35h.21Zm-.38-1.35h-.13s-.03,0-.03,.03v.31h.16v-.34Zm0,.5h-.16v.34h.16v-.34Zm0,.5h-.16v.32s0,.03,.03,.03h.13v-.35Z"/>
        </g>
      </g>
    </g>
  </g>
</svg>