<?xml version="1.0" encoding="UTF-8"?>
<svg id="_圖層_2" data-name="圖層 2" xmlns="http://www.w3.org/2000/svg" viewBox="0 0 61.33 26.72">
  <defs>
    <style>
      .cls-1 {
        fill: #7a6a56;
      }
    </style>
  </defs>
  <g id="_圖層_1-2" data-name="圖層 1">
    <g>
      <g>
        <path class="cls-1" d="M20.77,15.46c-.09,.02-.16,.03-.2,.04-.06,.01-.1,.02-.12,.02-.06,0-.1-.04-.1-.11,0-.04,.02-.07,.05-.09,.02-.01,.08-.02,.19-.02,.04-.04,.07-.08,.11-.13,.03-.03,.05-.07,.07-.1-.03,0-.05-.03-.08-.07-.04-.07-.08-.13-.13-.2-.04-.05-.08-.1-.14-.16l-.02-.02s0-.02,0-.03c0-.04,.02-.06,.06-.06,0,0,.02,0,.03,.01,.01,0,.03,.02,.05,.03l.09,.07,.03-.05s.03-.04,.04-.07c.04-.06,.07-.13,.1-.21,.04-.1,.09-.14,.14-.14,.04,0,.07,.01,.1,.03,.03,.02,.05,.05,.05,.09,0,0,0,.02,0,.03,0,0,0,.02-.01,.03-.01,.02-.04,.06-.09,.11-.04,.05-.09,.11-.14,.16l-.09,.1,.09,.08s.03,.03,.04,.04c.01,.01,.02,.02,.02,.03,.03-.05,.06-.08,.07-.11l.09-.16s.03-.05,.04-.06c.02-.02,.05-.03,.08-.03,.1,0,.14,.04,.14,.13,0,.03-.05,.11-.16,.23-.13,.16-.26,.29-.38,.41,.18,0,.31-.02,.37-.03l-.05-.14s0-.02,0-.03c0-.04,.02-.05,.05-.05,.01,0,.03,.01,.06,.04,.03,.03,.06,.06,.1,.1,.08,.1,.13,.18,.13,.23,0,.08-.04,.13-.12,.13-.05,0-.08-.02-.09-.06l-.03-.11-.18,.04v.97s0,.02,0,.02c0,.02,0,.04-.01,.05-.02,.04-.05,.06-.11,.06s-.09-.02-.11-.06c0-.01-.01-.03-.01-.05,0,0,0-.01,0-.02v-.92Zm-.09,.16s.04,.05,.04,.08c0,.06-.03,.16-.08,.31-.05,.15-.1,.26-.14,.33-.02,.03-.04,.04-.06,.04-.04,0-.06-.02-.06-.05,0,0,0-.02,0-.03l.03-.13c.02-.1,.04-.26,.06-.47,0-.07,.04-.11,.11-.11,.03,0,.06,0,.08,.03Zm.54,.01c.05,.07,.1,.15,.14,.25,.05,.1,.07,.16,.07,.2,0,.08-.04,.12-.13,.12-.08,0-.12-.04-.12-.13-.01-.14-.03-.27-.07-.38,0-.02,0-.03,0-.04,0-.04,.02-.06,.06-.06,.02,0,.04,.02,.07,.05Zm.93,.03v.66h.53s.01,0,.02,0c0,0,.02,0,.02,0,.02,0,.03,.02,.03,.05,0,.02,0,.04-.03,.05,0,0-.01,0-.02,0,0,0-.01,0-.02,0h-1.35s-.01,0-.02,0c0,0-.02,0-.02,0-.02,0-.03-.02-.03-.05s0-.04,.03-.05c0,0,.01,0,.02,0,0,0,.01,0,.02,0h.56v-.66h-.39s-.01,0-.02,0c0,0-.02,0-.02,0-.02-.01-.03-.03-.03-.05,0-.02,0-.04,.03-.05,0,0,.01,0,.02,0,0,0,.01,0,.02,0h1.09s.01,0,.02,0c0,0,.02,0,.02,0,.02,0,.03,.03,.03,.05,0,.02,0,.04-.03,.05,0,0-.01,0-.02,0,0,0-.01,0-.02,0h-.42Zm.46-1.39s.02,0,.02,0c0,0,.02,0,.02,0,.02,0,.03,.03,.03,.05s0,.04-.03,.04c0,0-.01,0-.02,0,0,0-.01,0-.02,0h-1.2s-.02,0-.02,0c0,0-.02,0-.02,0-.02,0-.03-.02-.03-.04,0-.02,0-.04,.03-.05,0,0,.01,0,.02,0,0,0,.01,0,.02,0h1.2Zm-.83,.3s-.02,.08-.07,.15c-.02,.03-.04,.06-.07,.09,0,.01-.02,.03-.04,.05l-.03,.04s0,0,0,0c0,0,0,0,0,0l-.02,.03s-.02,.03-.02,.04c0,.01,.01,.03,.03,.05l.08,.08s.06,.07,.09,.09c.03,.04,.05,.07,.07,.09,.02,.03,.03,.05,.03,.07,0,.09-.05,.13-.14,.13-.04,0-.06,0-.08-.03,0,0-.01-.02-.02-.03v-.03c-.06-.12-.12-.24-.19-.36v-.02s-.02-.02-.02-.03c0-.02,0-.04,.02-.07,.03-.06,.06-.12,.08-.18,0-.03,.02-.06,.03-.09l.04-.11c.02-.05,.05-.08,.11-.08,.09,0,.14,.04,.14,.11Zm.4,0s-.02,.07-.05,.12c-.01,.02-.03,.04-.05,.07l-.08,.11s-.02,.02-.02,.03l-.04,.05s-.02,.02-.02,.03c0,0,0,.01,0,.03l.06,.06s.05,.05,.07,.07c.03,.03,.06,.06,.08,.09,.03,.04,.05,.07,.06,.09,.02,.03,.03,.05,.03,.07,0,.08-.04,.12-.13,.12-.03,0-.06,0-.08-.03,0,0-.02-.03-.03-.06-.04-.1-.07-.17-.1-.22-.02-.03-.05-.08-.1-.16-.01-.02-.02-.04-.02-.06,0-.02,0-.04,.03-.08,.02-.05,.05-.11,.08-.2,.01-.03,.02-.06,.03-.09l.02-.05c.02-.06,.06-.09,.12-.09,.09,0,.14,.04,.14,.11Zm.38-.09s.05,.05,.05,.09c0,.04-.08,.16-.24,.36v.02s-.02,0-.02,.01c0,.01,.01,.03,.03,.05,.03,.03,.05,.05,.08,.08,.03,.03,.06,.07,.09,.1,.06,.08,.1,.13,.1,.16,0,.08-.04,.13-.13,.13-.03,0-.06-.01-.08-.04-.02-.02-.06-.1-.12-.22,0,0,0-.02-.01-.03,0,0,0,0,0-.01,0,0,0,0,0,0l-.03-.06s-.04-.08-.06-.1c0-.01-.01-.03-.01-.05,0,0,0-.03,.02-.06l.15-.38s.06-.06,.11-.06c.03,0,.06,0,.09,.03Z"/>
        <path class="cls-1" d="M26.23,15.73v-1.03c0-.15,.08-.22,.25-.22h.29v-.16s0-.02,0-.02c0-.02,0-.04,.02-.06,.02-.04,.06-.07,.11-.07s.09,.02,.12,.07c0,.01,.01,.03,.01,.06,0,0,0,.01,0,.02v.16h.28v-.16s0-.02,0-.03c0-.02,0-.04,.02-.05,.02-.04,.06-.07,.12-.07s.09,.02,.11,.07c0,.01,.01,.03,.01,.06,0,0,0,.01,0,.02v.16h.29c.17,0,.25,.08,.25,.22v1.03h.16s.01,0,.02,0c0,0,.02,0,.02,0,.02,0,.03,.02,.03,.05s0,.04-.03,.05c-.01,0-.03,0-.05,0h-2.2s-.01,0-.02,0c0,0-.02,0-.02,0-.02-.01-.03-.03-.03-.05,0-.02,.01-.04,.03-.05,0,0,.01,0,.02,0,0,0,.01,0,.02,0h.15Zm.66,.45s-.14,.09-.27,.15c-.06,.03-.13,.05-.2,.08-.06,.02-.11,.04-.17,.06-.05,.01-.09,.02-.12,.03-.03,0-.05,.01-.06,.01-.04,0-.06-.02-.06-.06,0-.02,0-.03,.02-.04,0,0,.01,0,.02-.01h.02c.1-.05,.2-.1,.3-.16,.11-.07,.21-.15,.29-.23,.05-.05,.1-.08,.13-.08,.04,0,.07,.01,.1,.04,.04,.03,.06,.07,.06,.13,0,.04-.02,.07-.06,.1Zm-.12-1.09v-.49h-.16c-.07,0-.11,.04-.11,.11v.38h.27Zm0,.64v-.53h-.27v.53h.27Zm.54-.64v-.49h-.28v.49h.28Zm0,.64v-.53h-.28v.53h.28Zm.16,.22s.07-.04,.1-.04c.03,0,.05,0,.07,.02,.02,.01,.06,.05,.13,.12,.14,.14,.31,.25,.51,.34,.03,.01,.04,.03,.04,.06,0,.04-.02,.06-.06,.06-.05,0-.13-.02-.26-.07-.11-.04-.21-.08-.29-.12-.13-.06-.22-.11-.26-.15-.03-.03-.05-.06-.05-.09,0-.05,.02-.09,.06-.13Zm.38-.86v-.38c0-.07-.04-.11-.11-.11h-.17v.49h.27Zm-.27,.12v.53h.27v-.53h-.27Z"/>
        <path class="cls-1" d="M32.24,16.37s0,.02,0,.03c0,.02,0,.04-.02,.06-.02,.04-.06,.06-.12,.06s-.1-.02-.12-.06c0-.02-.01-.03-.02-.06,0,0,0-.02,0-.03v-1.25l-.07,.07s-.06,.06-.09,.08c-.03,.03-.06,.05-.09,.07-.03,.02-.05,.03-.06,.03-.04,0-.06-.02-.06-.06,0-.02,.01-.04,.05-.07,.22-.25,.4-.55,.52-.91l.02-.04s.02-.03,.03-.04c.03-.03,.06-.05,.11-.05,.11,0,.17,.05,.17,.14,0,.04-.03,.11-.09,.21-.02,.04-.05,.08-.08,.13l-.08,.12v1.58Zm.73-1.64h-.09c-.07,.09-.15,.2-.24,.3-.05,.06-.09,.1-.12,.13-.04,.04-.07,.05-.08,.05-.04,0-.06-.02-.06-.06,0-.01,.01-.04,.04-.07l.05-.07s.06-.09,.09-.15c.04-.07,.08-.15,.11-.23,.04-.09,.07-.19,.1-.29l.02-.06s.02-.04,.03-.05c.03-.04,.06-.05,.11-.05,.04,0,.08,.01,.11,.04,.04,.03,.06,.06,.06,.11,0,.03-.02,.08-.05,.14-.02,.04-.05,.09-.09,.14h.95s.01,0,.02,0c0,0,.02,0,.02,0,.02,0,.03,.02,.03,.05s0,.04-.03,.05c0,0-.01,0-.02,0,0,0-.01,0-.02,0h-.66v.49h.6s.01,0,.02,0c0,0,.02,0,.02,0,.02,0,.03,.02,.03,.05,0,.02,0,.04-.03,.05,0,0-.01,0-.02,0,0,0-.01,0-.02,0h-.6v.49h.6s.01,0,.02,0c0,0,.02,0,.02,0,.02,0,.03,.02,.03,.05s0,.04-.03,.05c0,0-.01,0-.02,0,0,0-.01,0-.02,0h-.6v.41s0,.02,0,.03c0,.02,0,.04-.02,.06-.02,.04-.06,.06-.12,.06s-.1-.02-.12-.06c0-.01-.01-.03-.02-.06,0,0,0-.02,0-.03v-1.63Z"/>
        <path class="cls-1" d="M38.32,16.24c0,.14-.08,.21-.25,.21h-.5c-.17,0-.25-.07-.25-.21v-.61c0-.14,.08-.21,.25-.21h.5c.17,0,.25,.07,.25,.21v.61Zm-.26-.6c0-.08-.04-.11-.11-.11h-.25c-.08,0-.11,.04-.11,.11v.58c0,.08,.04,.11,.11,.11h.25c.08,0,.11-.04,.11-.11v-.58Zm1.11-.74c0,.09-.02,.15-.07,.19-.04,.03-.11,.05-.2,.05h-.96c-.18,0-.27-.08-.27-.24v-.41c0-.09,.02-.15,.07-.19,.04-.03,.11-.05,.2-.05h.96c.18,0,.27,.08,.27,.24v.41Zm-.28-.42c0-.08-.04-.12-.12-.12h-.71c-.08,0-.12,.04-.12,.12v.42c0,.08,.04,.12,.12,.12h.71c.08,0,.12-.04,.12-.12v-.42Zm.63,1.75c0,.14-.08,.21-.25,.21h-.51c-.17,0-.25-.07-.25-.21v-.61c0-.14,.08-.21,.25-.21h.51c.17,0,.25,.07,.25,.21v.61Zm-.27-.6c0-.08-.04-.11-.12-.11h-.25c-.08,0-.12,.04-.12,.11v.58c0,.08,.04,.11,.12,.11h.25c.08,0,.12-.04,.12-.11v-.58Z"/>
      </g>
      <rect class="cls-1" x="24.52" y="14.1" width=".1" height="2.21"/>
      <rect class="cls-1" x="18.68" y="14.1" width=".1" height="2.21"/>
      <rect class="cls-1" x="29.97" y="14.1" width=".1" height="2.21"/>
      <rect class="cls-1" x="35.43" y="14.1" width=".1" height="2.21"/>
      <rect class="cls-1" x="41.14" y="14.1" width=".1" height="2.21"/>
      <g>
        <path d="M17.96,7.6s-.02,0-.03-.02c.03-.03,.07-.05,.11-.06,.09-.04,.18-.08,.25-.13l.5-.51c.04-.06,.08-.13,.12-.19,.05,0,.09-.04,.12-.09,0-.03-.01-.05-.02-.06h0s.04-.07,.06-.09l.02,.03c.06-.09,.1-.16,.13-.21,.06-.05,.1-.12,.11-.2-.01-.05-.04-.1-.07-.13,.03-.02,.07-.03,.12-.03,.05,.03,.11,.05,.17,.06,.02-.01,.04-.02,.07-.03,0,0,.01,0,.03-.02,.01,.01,.02,.02,.03,.02,0,.11,.05,.15,.14,.13,.06,.07,.1,.14,.12,.23-.04,.17-.15,.3-.31,.39-.04,.05-.08,.11-.11,.17-.04,.03-.12,.09-.22,.18-.09,.09-.16,.15-.2,.18-.08,.14-.21,.25-.37,.32-.03,0-.08,0-.12,.02l-.07,.06c-.08,.04-.16,.06-.26,.05-.06,0-.12,0-.17,0,0,0-.01,0-.02-.02,0-.03,0-.06,0-.09-.04,.01-.08,.02-.12,.03Zm.1,.02s-.01,0,0,0c.01,0,.01,0,0,0Zm2.6,3.14s-.03,0-.03,.03l-.03-.03c-.13,0-.22-.04-.27-.12-.07,.02-.13,0-.19-.03,.06-.05,.11-.07,.17-.07,.04-.01,.09-.04,.15-.08,.05-.04,.1-.08,.12-.13,.02-.02,.04-.03,.07-.05,.16-.16,.23-.36,.22-.59,0-.24-.02-.49-.06-.74-.01-.07-.02-.12-.03-.14h-.06l-.37,.08h0c-.09,.02-.21,.04-.36,.08-.13,.05-.25,.09-.38,.14h0s-.04,.02-.06,.03c-.06,.02-.11,.03-.16,.04-.12,.07-.24,.11-.38,.12-.08,0-.17-.05-.27-.14-.09-.08-.14-.16-.15-.25,0-.04,0-.08,.03-.1h.08c.09,0,.17,.02,.24,.06,.24-.03,.47-.08,.69-.13,.06,0,.13,0,.2-.02,.11-.02,.21-.04,.32-.06h.04c.17-.02,.33-.06,.48-.11,.03,0,.04-.02,.05-.05-.06-.26-.22-.44-.49-.54-.02-.04-.04-.06-.08-.06-.07,.05-.14,.1-.22,.15-.02,0-.03-.01-.03-.02-.02,0-.03,.01-.03,.03,0,.01,0,.02,.02,.03v.02s-.04,0-.06,0c-.02,.02-.04,.03-.06,.03,0-.02-.01-.02-.03-.02-.04,.02-.08,.04-.1,.05h-.19s-.04-.05-.06-.09c-.03-.11-.05-.21-.06-.32,0-.05,.02-.09,.04-.14,0-.05,.02-.1,.03-.14,.03-.04,.06-.07,.11-.1,.05-.07,.08-.15,.08-.24h0s.08,.05,.1,.13c.02,.09,.03,.15,.03,.19h.02c.19-.02,.36-.07,.52-.15,0-.01,.01-.02,.02-.04h0c-.02-.05-.04-.1-.07-.13,.01-.07,.02-.15,.03-.23,0-.13-.01-.27-.03-.41v-.19s.02-.02,.03-.03c0-.02-.01-.05-.03-.08,.02,0,.04-.02,.05-.04-.02-.04-.04-.08-.07-.13h0c0-.09,.01-.18,.02-.26v-.02c0-.05-.02-.09-.05-.12-.13,.02-.24,.05-.33,.1l-.56,.11h-.06c-.06,0-.12,0-.18,0-.09-.03-.17-.08-.23-.14-.03-.05-.06-.08-.08-.09v-.02c.11,0,.21,0,.3,0,.03,.01,.06,.02,.09,.02,.37-.03,.73-.11,1.07-.25,.01-.02,.02-.05,.02-.08-.02-.04-.03-.08-.03-.12,0,0,.01,0,.03-.02,0-.02,0-.04,.02-.06,.01,0,.02,0,.03-.02h0s-.01-.03-.04-.05v-.09c.01-.07,.02-.14,.04-.22,0-.03-.01-.06-.03-.09v-.02s.02,0,.03-.03c0-.02,0-.05,0-.08v.03s.03-.02,.03-.05c0-.01,0-.02-.02-.02v-.38c-.01-.1-.03-.15-.06-.15-.03,0-.06-.01-.09-.05,.03-.08,.08-.12,.17-.13,.05,0,.09,0,.13,.02,.07-.01,.15-.02,.23-.02,.07,0,.17,.04,.28,.11,.13,.07,.21,.14,.22,.21l-.05,.36s.02,.07,.03,.1c0,.06-.02,.1-.05,.13h-.07l-.02,.02h0s-.09-.03-.12-.04l-.03-.02v.08s.09,.02,.14,.04c-.03,.1-.05,.2-.08,.29,0,.04,.03,.06,.08,.06,.14-.02,.29-.04,.43-.07,.16,0,.32,.02,.47,.06v.02c-.02,.06-.06,.1-.12,.12-.11,.03-.21,.04-.32,.05-.06,.02-.17,.04-.32,.08-.15,.03-.25,.08-.29,.12-.02,.05-.03,.11-.03,.18-.03,.12-.04,.25-.04,.37,0,.06,0,.13,0,.2h.02c.07-.02,.13-.03,.2-.04,.06-.01,.13-.02,.21-.02,.16-.02,.32-.03,.48-.04,.17,0,.33,.01,.5,.02,.07-.01,.15-.02,.23-.03,.11,0,.22,.01,.32,.02,.04,0,.1,.02,.19,.05,.09,.03,.14,.05,.17,.06,.04-.01,.07-.02,.1-.04h.17c.16,.05,.31,.12,.47,.21l.03,.02v.02c-.09,.13-.22,.2-.39,.21-.13-.03-.26-.05-.4-.08-.1,.03-.21,.07-.32,.1-.08-.03-.18-.06-.29-.1-.09-.01-.19-.02-.29-.04h-.41c-.18-.04-.36-.07-.55-.08-.15-.06-.29-.11-.42-.13,0,.04,.01,.09,.02,.13v.06c-.02,.06-.03,.11-.04,.17v.06c-.05,.13-.09,.26-.12,.39,.09,.03,.18,.02,.27-.03l.17-.13h.07l.02-.02h.02l.05,.05c.13,0,.29,.02,.49,.03,.19,.02,.29,.1,.32,.25-.03,.18-.14,.32-.32,.41-.1,.08-.19,.16-.28,.25h-.02s-.03-.02-.04-.04c-.06,.06-.13,.14-.2,.24v-.05c-.06,.08-.12,.16-.18,.23,.01,.04,.03,.07,.05,.08,.02,.01,.05,.02,.08,.02,.07,0,.14-.02,.21-.05,.07,0,.17-.02,.3-.03,.13-.02,.23-.02,.28-.02,.11-.02,.22-.03,.33-.04,.11,.01,.23,.02,.37,.02,.12,.04,.21,.07,.28,.11,0,.02-.02,.03-.03,.04,.03,.06,.06,.13,.07,.19v.02s-.05,.05-.07,.06h-.46c-.07-.01-.14-.02-.21-.02-.09,.01-.19,.02-.28,.03h-.02s-.04-.01-.06-.02c-.07,0-.2,0-.37,.02s-.27,.03-.3,.06v.65c.02,.11,.03,.21,.03,.28,0,.27-.04,.54-.12,.8-.03,.04-.07,.09-.1,.13-.02,.06-.04,.12-.04,.18,0,.02-.02,.02-.04,.02-.1-.01-.19-.05-.27-.11h0Zm-.75-2.79s.08-.03,.1-.07c-.01-.01-.02-.02-.03-.02-.04,.02-.07,.04-.07,.09Zm.07-.21s.01-.02,0-.02c0,0,0,.01,0,.02Zm.28,.11c.05,.02,.11,.03,.17,.04,.06,.04,.12,.06,.18,.08,.06,.05,.12,.09,.19,.13,.02,0,.03,0,.03,0,.02,0,.03,0,.03-.02,.03-.09,.04-.18,.05-.27l.12-.48v-.02s-.04-.07-.1-.08v.08l-.08,.04s-.04,.02-.04,.03h0s-.03-.02-.05-.04c.01,.06-.02,.09-.09,.09,0,.02-.01,.03-.02,.04-.08,.07-.17,.12-.28,.15v.02h-.03s-.04,.06-.08,.06h-.03s-.08,.05-.11,.08c.03,.04,.08,.06,.15,.06Zm-.14-.15s.01,0,0-.02v.02Zm.03-.02s.04,0,.05-.02c0-.02-.02-.02-.03-.02h-.02v.04Zm.04-.15s0-.01,0-.02c0,0,0,.01,0,.02Zm.03-.05h.02v-.02l-.02,.02Zm.04-2.28v-.02h-.03l.03,.02Zm0,.12h.05v-.06s-.05,.03-.05,.06Zm.07,2.26c.06-.02,.11-.04,.16-.09h-.04c-.07,0-.11,.03-.12,.09Zm.03-2.96s.01-.01,0-.02c-.01,0-.01,.01,0,.02Zm.21,2.81h0s.04,0,.05-.03h0s-.04,.01-.04,.03Zm.34,.75l.04-.04h0s0-.02-.02-.04c-.02,.02-.03,.04-.04,.05,0,.01,0,.02,.02,.02Zm0-.11s.02-.01,0-.02c0,0,0,.01,0,.02Zm.02-3.29s.01,0,0-.02v.02Zm.02,3.47s.02,0,0,0c0,0,0,0,0,0Zm.04-.08s.02-.02,.02-.03c-.02,0-.03,0-.03,.02l.02,.02Zm.02-.21s0-.01,0-.02c0,0,0,.01,0,.02Z"/>
        <path d="M26.09,6.98s0-.01,0-.02c0,0,0,.01,0,.02Zm.14,2.32s.02-.07,.04-.13c0-.02,.01-.03,.02-.04,0-.07,0-.14,0-.21,0-.09,0-.16,0-.21,0-.07-.02-.2-.04-.41-.02-.2-.04-.34-.04-.4,0-.21-.02-.43-.04-.65-.03-.07-.06-.15-.07-.22v-.05l.02-.02h.19c.12,.04,.23,.09,.33,.13,0,.02,.02,.04,.04,.06,.03,.04,.06,.07,.09,.1,.02,.03,.04,.05,.04,.08,.08,.12,.14,.24,.16,.38,0,.07-.02,.15-.06,.24-.04,.24-.09,.48-.14,.73,0,.03,0,.05-.02,.06-.02,.06-.04,.14-.06,.22,0,0,0,.01,0,.02-.01,.04-.02,.08-.02,.11-.03,.02-.05,.03-.06,.05,0,.02-.01,.03-.02,.04,0,.04,0,.06,.04,.06,.11,0,.19-.04,.25-.11,.02,0,.02,0,0,.02,0,.01,0,.04-.02,.09,.02,0,.04,0,.05,0,.02,0,.03,.01,.03,.02l.03-.02s.09,.04,.14,.06c.05-.04,.09-.07,.11-.09,.02,.01,.03,.02,.03,.04,0,.01,0,.02,0,.02-.03,.05-.06,.09-.1,.13-.02,.02-.05,.04-.07,.06-.07,.1-.14,.2-.22,.29-.13,.09-.26,.16-.4,.2,0,0-.02,0-.05-.04-.1-.03-.16-.09-.19-.19,0-.03,0-.05,0-.08v-.33Zm.86-3.88h.37s.09,.03,.17,.05c.18,.02,.29,.09,.35,.21-.03,.13-.12,.21-.27,.23-.04,0-.09,0-.13,0-.02,.03-.04,.04-.05,.05s-.04,.01-.07,.01c-.06,0-.11-.02-.15-.03-.06,.04-.12,.08-.21,.12-.12-.06-.17-.17-.17-.32-.03-.07-.07-.13-.12-.17,.08-.08,.17-.13,.29-.15Zm.03,3.91s.01,0,0-.02c0,0,0,.01,0,.02Zm1.37,.23v-.03s-.04-.1-.06-.15v-.04s.02-.02,.02-.04c0,0,0-.02-.02-.04h.02s.07,.02,.11,.02h.06s.03-.02,.03-.04c0,0-.01,0-.02-.02,0-.02,.01-.03,.03-.05,0-.19,0-.38,.02-.57v-.13s-.01-.03-.02-.06h0c.01-.13,.02-.26,.04-.39,0-.18-.03-.36-.08-.53-.05-.09-.12-.16-.22-.2-.09,.02-.17,.05-.26,.1-.06,.02-.12,.03-.19,.04-.13,.05-.28,.08-.42,.1-.07,0-.15-.04-.24-.1-.09-.06-.15-.13-.16-.19,.18,0,.36-.03,.54-.06,.04-.01,.08-.02,.12-.02l.65-.21c.05-.02,.1-.04,.15-.06,.02-.02,.03-.03,.03-.03h-.03s0,0,0,0c0-.03,.02-.05,.05-.08,0-.03,0-.05,0-.08h-.04s.05-.08,.08-.1c0-.04-.03-.05-.07-.05,.02,0,.03-.02,.03-.04-.02-.07-.03-.15-.03-.22l-.02-.02c.01-.05,.03-.12,.05-.19,0-.07-.02-.14-.03-.21-.03-.22-.04-.43-.05-.65,0-.04,.01-.08,.02-.13,0-.09,0-.19-.02-.28-.06-.05-.11-.11-.15-.17,.02-.07,.08-.11,.18-.13,.1-.02,.18-.03,.23-.03h.05c.07,.02,.13,.05,.18,.08,.08,.07,.17,.14,.28,.19,.07,.13,.11,.27,.12,.4,0,.12-.03,.23-.08,.32-.03,.04-.05,.08-.04,.13,0,.02,0,.03,0,.04h.08c.1-.02,.2-.03,.31-.04,.19,0,.36,.06,.51,.17,.02,0,.03,.02,.05,.04v.02s-.03,.01-.05,.02c-.31,.02-.61,.04-.92,.06-.04-.01-.07,0-.08,.04-.01,.07-.03,.13-.04,.19-.01,.23-.08,.42-.21,.59h.04c.12-.06,.25-.09,.39-.11,.14,0,.3,.02,.46,.05,.03,.01,.06,.03,.08,.05,0,.03-.03,.05-.08,.07-.05,.02-.1,.03-.15,.04-.03,.02-.06,.04-.09,.07-.05,.01-.1,.02-.16,.02-.24,.06-.47,.15-.69,.25l-.02,.02s.1,.06,.17,.04c.02,.02,.04,.03,.06,.04,.19,.1,.29,.25,.31,.44-.02,.06-.03,.12-.04,.18,.11,0,.22,0,.32,0,.12,0,.25,.02,.39,.08,.14,.05,.22,.14,.24,.26-.01,.04-.04,.06-.08,.07-.09,.02-.18,.03-.27,.04h0c-.14-.03-.27-.05-.41-.07-.03-.04-.07-.08-.12-.1-.02-.04-.04-.08-.08-.13,0-.02-.01-.02-.02-.02,0,0-.02,0-.03,.02,0,.11-.02,.21-.05,.32,0,.17,0,.35-.02,.53,0,.03-.02,.06-.03,.09v.02s.02,.08,.02,.13c-.01,.27-.06,.52-.15,.77-.03,.06-.04,.13-.05,.2,0,.01,0,.02-.02,.02h-.05c-.07,0-.11-.03-.14-.1,0-.03-.01-.07-.02-.11-.06-.11-.12-.21-.17-.32h.02Zm-.97-.83c.02-.12,.04-.23,.05-.35,.11-.16,.18-.33,.21-.51,0-.05-.01-.1-.03-.15,0-.03,.03-.04,.06-.04,.11,.02,.18,.1,.21,.24,.04,.15,.05,.26,.04,.35v.09c0,.06-.01,.12-.02,.16h-.02s-.18,.34-.18,.34c0,.03-.02,.08-.07,.16-.03,.08-.06,.13-.09,.14-.04-.02-.08-.08-.11-.19-.03-.11-.05-.19-.05-.23h0Zm1.07-1.94s0-.01,0-.02c.02,0,.02,.01,0,.02Zm.06-.48s0-.01,0-.02c0,.01,0,.02,0,.02Zm0-.04s0,0,0,0c0,0,0,0,0,0Zm2.96,2.86c-.03-.05-.07-.1-.12-.13-.05-.03-.1-.05-.15-.08-.06-.05-.11-.12-.15-.19-.07-.05-.14-.09-.19-.13-.04-.07-.09-.13-.16-.17h0c-.07,.09-.17,.21-.32,.35-.13,.15-.25,.24-.35,.25h-.08c-.14,.08-.28,.15-.42,.2-.03,0-.06-.02-.07-.05,.02-.02,.03-.03,.05-.03,0-.02-.01-.03-.02-.04v-.02s.06-.05,.1-.06v-.04c.06-.03,.1-.06,.11-.11l.27-.23s.02-.04,.03-.07c.17-.17,.27-.36,.3-.58-.02-.13-.08-.24-.19-.34-.11-.1-.21-.19-.29-.27-.06-.08-.12-.16-.19-.24-.04-.03-.08-.06-.1-.09,.01-.02,.02-.02,.03-.02h0s.08,.04,.11,.05c.08,.03,.16,.05,.25,.07,.05,.03,.1,.06,.14,.1,.01,0,.02,.01,.02,.02,.03,0,.06,0,.08,.02,.02,0,.03,.01,.03,.04,.07,.03,.14,.05,.23,.09,.02,.04,.05,.07,.09,.09,.02-.01,.05-.06,.09-.15s.06-.15,.06-.19c0-.09,.01-.18,.02-.27,0-.04,0-.08,0-.13,0-.04,0-.07,0-.09l-.02-.04h-.04c-.11,.02-.22,.04-.34,.06-.16,0-.29-.02-.39-.06,.21-.05,.4-.11,.59-.2,.06-.06,.11-.12,.15-.19,.02,0,.1-.01,.23-.04,.13-.02,.21-.03,.23-.03,.03,0,.06,.01,.09,.02,.02,0,.03-.01,.03-.02h.02c.14,.01,.24,.06,.3,.13,0,.24-.07,.46-.2,.67-.02,.02-.05,.04-.08,.07-.06,.12-.11,.25-.13,.38-.06,.13-.11,.25-.13,.38,0,.03,0,.04,0,.05,.02,.03,.05,.07,.08,.1,.11,.13,.22,.26,.34,.39,.15,.16,.31,.3,.48,.42,.03,.04,.06,.07,.11,.09,.04,0,.08,.02,.12,.03l.02,.03c.1,.13,.21,.25,.34,.36,.07,.08,.11,.14,.12,.17v.03c-.12-.01-.24-.03-.37-.06-.09-.02-.18-.03-.27-.03-.11-.05-.21-.1-.32-.15-.07-.05-.15-.1-.22-.15Z"/>
        <path d="M34.86,6.94v-.11s0-.02,0-.04v-.16s.02-.06,.05-.06v-.1c.07-.04,.12-.08,.17-.13,.04-.03,.08-.06,.11-.09,.04-.04,.07-.06,.08-.07,0-.02,.02-.05,.07-.08,.05-.03,.06-.05,.05-.07,.03-.03,.07-.08,.11-.14s.07-.11,.07-.15c0-.03,0-.05-.01-.06,0-.01-.01-.03-.01-.05,.05,0,.1,.02,.15,.07,.05,.05,.1,.08,.13,.1l.13,.12s.02,.05,.03,.06c.03,.01,.04,.03,.04,.05,0,.03-.01,.07-.03,.14-.01,.07-.02,.12-.04,.13-.01,.02-.03,.04-.05,.05,0,.02-.01,.04-.02,.06,0,0,0,.02,0,.03v.02s0,0,0,0c0,0,0,0-.03,0h-.02s-.06,.03-.07,.07c0,.03,0,.05,0,.07-.03,.04-.05,.05-.05,.04-.01-.01-.03,0-.07,.03-.04,.03-.06,.06-.08,.08-.01,.03-.02,.05-.02,.06-.02,.02-.04,.03-.08,.03-.02,0-.07,0-.13,0l-.03,.07h-.02s-.04,0-.06-.02c-.02,0-.03-.02-.05-.02-.05,0-.08,.01-.1,.03-.02,.02-.04,.05-.07,.08h-.02s-.03-.02-.03-.05l-.08-.03Zm.96-.48s-.02,0-.02,0c0,0,0,0,.02,0v-.02Zm1.51,.54s0-.02,0-.02v-.05s0-.04,0-.07c0-.03,0-.06,0-.08,0-.02,0-.03,0-.04,0-.04,0-.07,0-.08,0-.01,0-.04,0-.09s-.02-.08-.04-.09c-.01-.01-.02-.05-.02-.11-.01-.06-.02-.1-.02-.12v-.1s0-.03,0-.03h-.14s-.04,.05-.06,.06c-.03,.02-.06,.02-.08,.02,0,0-.02,0-.03-.01-.01,0-.03-.01-.05-.01,0,0-.01,0-.02,.02-.01,.01-.03,.02-.04,.02-.04,0-.08-.01-.13-.04l-.12-.03c-.09-.03-.19-.06-.29-.09-.09-.02-.17-.06-.25-.11,.06,0,.11,0,.15-.02,.04-.02,.09-.02,.16-.02,.01,0,.02,0,.04,.01s.04,.01,.06,.01c.09,0,.19-.02,.28-.05,.11-.03,.21-.06,.31-.08,.01,0,.05-.02,.11-.05,.07-.03,.11-.05,.11-.07h0s0-.02,0-.03v-.02s0-.01,0-.02v-.02s0-.02,0-.02c0-.02,0-.04,0-.08,0-.03,0-.06-.01-.08v-.21s-.01-.06-.04-.06h-.07s-.08,0-.09,0c-.02,0-.06-.01-.11-.03-.05-.01-.08-.02-.1-.03h-.02l-.32-.14s-.03,0-.04-.02c0-.02,0-.03,0-.04,0-.03,0-.04,.03-.04,.04,0,.07,0,.1,.01,.03,0,.07,.01,.11,.01,.02,0,.04,0,.05-.01,.01,0,.03-.01,.04-.01h0s0,0,.02,0h.02s.05,0,.07-.02c.02,0,.05,0,.08,0,.06-.02,.1-.03,.13-.04,.03,0,.08-.03,.15-.05l.03-.02s.07-.03,.1-.04,.06-.01,.09-.02c.02-.02,.04-.03,.04-.03s0,0,.02-.02c.02,0,.03,0,.03-.01,0,0,.02,0,.06,0h.04s0-.02,.02-.02c.02-.02,.03-.02,.03-.02,.04-.02,.09-.03,.13-.04,.06,0,.11-.02,.16-.02,.02,0,.04,0,.06,.02,.02,.01,.05,.02,.08,.02h.03l.02-.02c.05,0,.09,.01,.12,.04,.05,.04,.1,.06,.15,.06v.02s.02,0,.03,0c.03,.02,.04,.03,.05,.04-.04,.09-.09,.15-.12,.17-.03,.03-.1,.05-.2,.06-.09,.02-.19,.04-.28,.05-.09,.01-.17,.03-.25,.05-.05,0-.09,.01-.11,.02-.02,.02-.05,.03-.09,.03-.01,0-.04,0-.08,0-.03,0-.05,0-.08,0v.02s.01,.03,.03,.03c.02,.02,.04,.02,.05,0,.02,.01,.04,.03,.06,.06l.06,.05s.01,.02,.03,.03c.03,.02,.05,.03,.06,.04l.07,.07h0v.02s.04,.04,.04,.04c0,0,.01,.01,.03,.01s.03,.02,.04,.05h.06s.07,0,.09-.03c.03-.01,.06-.02,.09-.02,0,0,.02,0,.03,0s.02,0,.03,0c.02,0,.05,0,.1-.02l.07-.02s.01,0,.03-.03c.02,0,.03,0,.03,0h.05s0-.02,0-.02l.02-.02h.05s.02-.02,.02-.02h.05s.04-.02,.07-.02c.02-.02,.05-.03,.07-.03,.03,0,.04,0,.05,0,.04-.02,.09-.04,.15-.06,.06-.02,.12-.02,.17-.02,0,0,0,0,0,0,0,0,0,0,.02,0,0,.02,0,.03,0,.03,.03-.02,.04-.04,.04-.05,.02,0,.03,0,.04,0,.04,0,.08-.01,.12-.03,.04-.02,.07-.03,.09-.04,.04-.01,.08-.02,.12-.02s.07-.01,.11-.03c.05-.01,.1-.02,.15-.02h.15s.04,0,.06,.02c.02,.02,.04,.02,.08,.02s.06,0,.1-.02c.03,0,.06-.02,.09-.02,.08,0,.16,0,.22,.02,.06,.02,.13,.03,.21,.05h.02s.03-.02,.03-.02h0s.04,0,.09,.03,.1,.04,.14,.06c.04,.02,.08,.04,.11,.08,.03,.03,.05,.06,.05,.08,0,.03-.01,.05-.04,.07-.02,.01-.05,.04-.07,.07-.04,0-.09,0-.13,0-.05,.02-.1,.03-.14,.04,0,0,0,0,0,.01s0,.01,0,.01c0,0-.02,0-.05,.01-.03,0-.05,.02-.09,.02s-.06,.01-.09,.02l-.05,.02h0s-.03,0-.04,0c-.03,0-.05,0-.07,0l-.06-.02h-.05s-.02,0-.03,0c-.01,0-.03,0-.04,0v-.09h-.06l-.02-.02h-.03s0-.07,.02-.09c.01-.02,.02-.04,.02-.05s0-.03-.02-.03h-.03s-.08,0-.11,.02c-.04,.01-.07,.02-.1,.02h-.05s-.05,0-.08,0c-.02,.02-.05,.02-.08,.02-.02,0-.04,0-.07,0-.02,0-.04,.01-.08,.02-.03,.02-.06,.03-.09,.03-.01,0-.03,0-.05,0,0,0-.01,0-.02,0l-.02,.02s-.04,0-.05,.02c-.05,0-.09,.01-.13,.04-.05,.03-.1,.04-.14,.04-.02,0-.03,0-.03,0,0,0-.01,0-.03,0s-.03,0-.05,0c-.02,.02-.03,.03-.03,.05-.02,0-.04,0-.08,0-.03,.01-.06,.02-.11,.03-.04,.02-.08,.03-.12,.03l-.08,.03s-.07,.01-.12,.03c-.05,.01-.1,.03-.16,.04l-.13,.04s-.08,.04-.1,.05c0,0-.02,.01-.03,.03-.01,.02-.02,.04-.02,.06-.01,.03-.03,.06-.06,.11-.01,.04-.02,.08-.02,.1v.05s.02,.06,.02,.06v.06s0,.08-.02,.1c-.02,.04-.03,.08-.03,.13l.02,.02v.06s0,.02,0,.03l-.02,.02,.02,.02v.02s0,.03,0,.03c-.01,.03-.02,.13-.02,.3,0,.08-.03,.16-.08,.24-.04,.08-.09,.15-.12,.22h-.17s0-.05-.02-.08c-.01-.03-.02-.05-.02-.07v-.42s-.02-.02-.02-.02v-.02Zm-.46,3.01s-.07-.06-.1-.11c-.02-.05-.06-.08-.1-.09,0,0-.02,0-.03-.02s-.03-.02-.03-.02c-.03-.02-.06-.05-.08-.1-.02-.06-.03-.1-.03-.12,.03,0,.07,0,.1,0s.06,0,.1,0,.09,0,.15,0c.06,0,.12-.01,.15-.02,.03-.02,.04-.05,.05-.08,0-.03,.03-.06,.06-.08,.01-.02,.04-.05,.09-.09,.04-.05,.08-.09,.13-.14,.05-.05,.09-.09,.12-.14,.03-.04,.05-.08,.05-.11h0c-.09,.02-.17,.05-.25,.08-.08,.03-.17,.05-.26,.05-.13,0-.24-.02-.34-.06-.12-.05-.22-.1-.32-.15-.02-.01-.03-.02-.05-.02-.01,0-.02-.01-.02-.03h0s.05,0,.11-.02c.06,0,.09,0,.1,0s.02,0,.02,0,0,0,.02,0,.04,0,.08,0c.02,0,.04,0,.08,0,.02,0,.06-.01,.12-.03,.07-.01,.14-.03,.22-.05,.08-.02,.18-.05,.29-.08l.27-.1,.09-.02c.06-.02,.13-.04,.21-.06,.08-.02,.15-.04,.22-.05l.24-.07c.06-.02,.09-.03,.11-.03l.07-.03s.09-.02,.15-.03,.11-.03,.15-.03c.05-.02,.08-.02,.09-.02,.04-.02,.08-.03,.12-.04,.04-.01,.08-.02,.13-.03,.02-.01,.05-.02,.07-.02,.06,0,.13,0,.2,.01,.07,0,.13,.03,.18,.07l.03,.02s.03,0,.06,.03c.02,.01,.04,.02,.06,.02l.02-.03,.03,.05s.03,.07,.03,.08,0,.01,0,.01,0,0,0,.02c-.02,0-.05,.02-.1,.03-.04,.02-.07,.03-.09,.04h-.11s-.07,0-.08,.02v.02s0,0,0,.02v.03c-.09,.02-.19,.03-.27,.03h-.26s-.03,.01-.05,.02c-.01,0-.02,0-.03,0-.03,0-.06,0-.08,.02-.02,.01-.04,.02-.05,.02h0s0,0,0,0h0s-.09,.01-.12,.05c-.03,.05-.04,.09-.03,.13l-.09,.09v.06c-.08,.04-.14,.08-.16,.13-.03,.03-.06,.09-.09,.17-.01,.01-.02,.02-.02,.02v.04h-.05s-.05,.02-.08,.07c0,.05-.02,.08-.03,.09,.02,.01,.03,.02,.05,.02,.03,0,.06,0,.09-.02,.02-.02,.04-.03,.08-.04,.04,0,.07,0,.1,0,.04,0,.08,0,.12,0,.02-.02,.03-.02,.04-.03,0,0,.02,0,.04,0s.04,0,.05,.02h0s.04,0,.05-.02c.02-.01,.04-.02,.06-.02s.04,0,.07,.02c.04,.02,.07,.03,.11,.04-.02,.05-.04,.09-.05,.13-.01,.03-.05,.05-.11,.07,0,0-.02,0-.03,0-.01,0-.03,0-.04,0v.02h-.07s-.03,.02-.05,.02c-.01,0-.03,0-.04,0v.02s0,.03,.01,.04c0,0,.01,.01,.01,.03-.03,0-.07,0-.1,.02l-.07,.03s-.05,.03-.07,.03c-.03,0-.06,0-.1,0-.01,.02-.04,.03-.08,.03-.06,0-.1,0-.12,.02-.02,0-.04,0-.07,.02-.03,.01-.04,.02-.05,.02-.02,0-.04,0-.04,0l-.25,.09h-.02l-.1,.02s-.08,.03-.08,.03c-.07,.01-.12,.03-.17,.06-.05,.03-.11,.05-.18,.05-.03,0-.06-.01-.08-.04-.02-.02-.04-.03-.07-.01Zm-.57-2.55s.01-.08,.04-.1c.03-.02,.04-.06,.04-.1,0,0,0,0,0-.01,0,0,0-.01,0-.04,0-.07,0-.15,0-.21,.01-.06,.02-.12,.02-.18,0-.09,0-.15-.02-.19-.01-.04-.05-.09-.11-.15h.02s0-.01,0-.02h0c.07,.02,.13,.04,.18,.07l.19,.09,.02,.02,.03,.03,.03,.07s.02,.05,.02,.06v.02s0,0,0,0c0,.02,0,.03,0,.03,.01,.05,0,.1-.02,.15-.03,.05-.04,.1-.04,.16v.03s.01,.04,.03,.04c.02,0,.04-.02,.06-.05,.02-.03,.06-.06,.12-.07h0s.02-.02,.02-.02c0,0,0,0,0,0l.1-.1s.03,.03,.06,.03c.04,0,.06,.01,.08,.04v.03s0,.03,0,.04l-.07,.12s-.02,.02-.03,.04l-.04,.03s-.03,.04-.03,.05c0,.01-.01,.03-.03,.05,0,.01-.02,.02-.04,.04-.02,.01-.04,.02-.07,.03-.01,.01-.02,.03-.04,.06s-.04,.05-.06,.07l-.1,.08s-.04,.07-.04,.12c-.08,0-.16,0-.22-.02-.02,0-.03-.02-.05-.05-.02-.03-.03-.07-.04-.11l-.03-.11s-.03-.06-.03-.07Zm.23,.48s.1,0,.14,0c.04-.02,.09-.03,.13-.04,.04,0,.09,0,.13,0h.14s.03-.02,.08-.04c.05-.02,.07-.03,.08-.03,.02,0,.03,0,.05,0,.01,0,.02,0,.03,0,.03-.02,.08-.04,.16-.06,.07-.03,.11-.05,.12-.05,0,0,.01-.01,.04-.03,.02-.01,.04-.03,.06-.04,.02,0,.05,0,.08-.01s.07,0,.1-.02c.03-.01,.06-.02,.08-.04,.03-.02,.04-.04,.04-.08,.02,0,.05,0,.07,0,.02,0,.05,0,.09,0h.12l.12,.02s.03,0,.07,.02l.07,.03h.02s.07,.02,.13,.03,.1,.04,.1,.07c0,.04-.02,.07-.05,.09-.02,.02-.05,.03-.09,.05-.03,0-.06,.01-.1,.03-.04,.01-.06,.03-.08,.05-.08,.02-.16,.02-.22,.03s-.13,.01-.2,.03c-.03,0-.05,0-.07,.02-.02,.01-.05,.02-.08,.02s-.06,0-.08,0c0,0,0,0,0,.01s0,.01,0,.01h-.02s-.03,0-.04,0c-.02,0-.03,0-.05,0v.06s-.09,.03-.17,.05-.14,.02-.18,.02c-.02,.03-.03,.05-.04,.05h-.02l-.17-.04c-.07-.01-.14-.02-.21-.04-.07-.02-.14-.03-.2-.06-.06-.02-.11-.04-.13-.07Zm1.29,0s0,0,0,0c0,0,0,0,0,0,0,0,0,0,0,0,0,0,0,0,0,0Zm.24,1.27s0,0,0,0,0,0,0,0,0,0,0,0,0,0,0,0Zm.47-2.1s-.08-.09-.12-.13c-.02-.04-.04-.07-.07-.11v-.02s0-.02,0-.02c-.03-.01-.04-.04-.05-.08-.02-.05-.02-.08-.02-.11,0-.01,0-.04-.03-.09,0-.04,0-.07,0-.09v-.11s.02-.06,.02-.09c0-.06,0-.09-.02-.11s-.04-.03-.09-.05c0,0,0-.02,.02-.05,.01-.03,.03-.04,.05-.02,0,0,.02,0,.04,.02l.08,.02s.05,.02,.06,.02c.02,.01,.04,.02,.07,.02l.05,.05s.04,.04,.06,.04l.02,.03s.02,.02,.03,.02v.02s0,.03,0,.03c0,.01,.02,.04,.05,.08,.04,.04,.06,.07,.06,.08,0,.03,0,.04-.03,.05-.02,.02-.03,.04-.03,.05v.02s0,0,0,.02v.04l-.02,.05s-.02,.02-.02,.04c-.02-.02-.03-.02-.04,0-.01,.02-.03,.03-.05,.05,0,.02,0,.04,0,.07-.01,.01-.02,.03-.02,.04s0,.04,.03,.07c.02,.03,.04,.05,.05,.06,.02-.01,.05,0,.09,0,.04,.01,.06,.03,.08,.04h.11c.08,0,.15,0,.23-.02,.08-.01,.16-.02,.25-.02,.02,0,.04,0,.07,0,.03,0,.06,0,.07,.04,.01,0,.03,0,.07,0s.07,0,.1,.02v.06c0,.06,0,.09-.03,.09s-.03,.03-.05,.08c-.06-.02-.12-.02-.17,0-.04,.02-.1,.03-.17,.03-.09,0-.19-.01-.27-.04-.09-.02-.18-.05-.27-.08-.03-.02-.06-.03-.09-.05-.03-.02-.06-.04-.1-.05Zm-.35,1.81s0,0,0,0c0,0,0,0,0,0,.02,0,.02,0,0-.02Zm.3-.2s0,0,0,0,0,0,0,0c0,0,0,0,0,0s0,0,0,0Zm.14,.53s0,0,0,0c0,0,0,0,0,0s0,0,0,0h0Zm.05-.34s.06,0,.09-.02c.03-.02,.06-.03,.09-.03h.02s0,0,.02,0h.03s.03,0,.03,0c.07,.01,.15,.02,.23,.02,.07,0,.15,0,.22,.02,.02,0,.05,.02,.08,.05,.04,.03,.07,.05,.1,.05,0,0,.02,0,.03-.03,0,.02,0,.03,.02,.04,.01,0,.02,0,.03,0h.02s.02,0,.03,.02c.02,.03,.03,.05,.03,.08,0,.04,.02,.08,.03,.1,0,0,0,0,0,0,.02,0,.04,0,.04,.02v.29s0,.02,0,.03c0,.02,0,.03,0,.04v.02s0,0,0,.02c0,.03,0,.06-.02,.11-.01,.04-.03,.08-.05,.1h-.07s-.03,.02-.04,.04c0,.03-.01,.06-.03,.07,0,.03,0,.05-.03,.06,0,.02-.02,.03-.03,.03-.14,0-.24-.05-.31-.15-.03-.03-.05-.06-.06-.1-.02-.04-.04-.07-.06-.1-.04-.05-.08-.11-.11-.17-.03-.06-.07-.13-.11-.19-.03-.05-.05-.11-.08-.17-.01-.05-.03-.1-.06-.15-.02-.03-.04-.05-.07-.05s-.05-.02-.05-.06Z"/>
      </g>
      <g>
        <path class="cls-1" d="M23.09,1.65h.14s.01,0,.02,0c.01,0,.02,.02,.02,.04,0,.02,0,.03-.02,.04,0,0,0,0-.02,0,0,0,0,0-.01,0h-.52c-.11,0-.16-.05-.16-.16V.24c0-.1,.05-.16,.16-.16h.51s0,0,.01,0c0,0,.01,0,.02,0,.01,0,.02,.02,.02,.04,0,.02,0,.03-.02,.04,0,0,0,0-.02,0,0,0,0,0-.02,0h-.12v.36s0,.03,.03,.03h.03c.06,0,.08,.03,.08,.09v.46c0,.06-.03,.09-.08,.09h-.05s-.01,.02-.01,.03v.42Zm-.15-.46c0-.06,.03-.09,.08-.09h.03s.03,0,.03-.03v-.39s0-.02,0-.02c0,0,0,0-.02,0h-.03c-.05,0-.08-.03-.08-.09V.17h-.16s-.07,.03-.07,.08V1.56c0,.06,.02,.08,.07,.08h.16v-.46Zm-.05-.04c0,.06-.02,.09-.06,.09s-.06-.03-.06-.09V.6c0-.06,.02-.09,.06-.09,.04,0,.06,.03,.06,.09v.55Zm.69,.48s-.07,.06-.12,.09c-.03,.02-.07,.04-.1,.06-.04,.02-.06,.03-.07,.03-.03,0-.04-.01-.04-.04,0-.02,0-.03,.03-.05,.07-.06,.13-.14,.18-.24,.03-.04,.05-.06,.08-.06,.02,0,.04,0,.06,.03,.02,.02,.04,.05,.04,.08,0,.03-.02,.06-.06,.09Zm.31-1.26c.11,0,.16,.05,.16,.16v.72c0,.1-.05,.16-.16,.16h-.38c-.11,0-.16-.05-.16-.16V.53c0-.1,.05-.16,.16-.16h.05l.03-.1s.02-.08,.02-.11h-.25s0,0-.01,0c0,0-.01,0-.02,0-.01,0-.02-.02-.02-.04s0-.03,.02-.04c0,0,0,0,.02,0,0,0,0,0,.01,0h.71s0,0,.01,0c0,0,.01,0,.02,0,.01,0,.02,.02,.02,.04s0,.03-.02,.04c0,0,0,0-.02,0,0,0,0,0-.01,0h-.25c-.04,.08-.07,.15-.12,.21h.2Zm-.02,.31v-.13c0-.06-.02-.08-.07-.08h-.2s-.07,.03-.07,.08v.13h.35Zm-.35,.09v.22h.35v-.22h-.35Zm0,.31v.15c0,.06,.02,.08,.07,.08h.2s.07-.03,.07-.08v-.15h-.35Zm.42,.43c.04,.08,.09,.15,.16,.23,0,0,0,.01,.01,.02,0,0,0,.01,0,.02,0,.03-.01,.04-.04,.04-.01,0-.04-.01-.08-.04-.05-.03-.1-.07-.15-.12-.04-.04-.07-.07-.09-.09,0,0,0-.02-.01-.02,0,0,0-.01,0-.02,0-.07,.04-.1,.11-.1,.03,0,.06,.03,.09,.08Z"/>
        <path class="cls-1" d="M25.12,1.73s0,.01,0,.02c0,.02,0,.03,0,.04-.01,.03-.04,.04-.08,.04s-.07-.01-.08-.04c0-.01,0-.02,0-.04,0,0,0-.01,0-.02v-.68c-.04,.08-.1,.16-.16,.24-.02,.03-.05,.06-.07,.09l-.07,.07s-.03,.03-.04,.03c-.03,0-.04-.02-.04-.05,0,0,0-.02,.02-.05,.05-.06,.09-.13,.13-.2,.04-.06,.07-.13,.1-.2,.02-.06,.04-.12,.06-.18,.02-.05,.03-.1,.04-.15h-.29s-.01,0-.02,0c0,0-.01,0-.02,0-.01,0-.02-.02-.02-.04,0-.02,0-.03,.02-.04,0,0,.01,0,.02,0,0,0,0,0,.01,0h.31V.25h-.12c-.07,.02-.11,.02-.14,.02-.03,0-.05-.01-.05-.04,0-.03,.02-.04,.06-.05,.07,0,.14-.02,.2-.03,.05-.01,.1-.03,.15-.04,.03-.01,.07-.02,.1-.04l.06-.03s.05-.02,.07-.02c.06,0,.08,.03,.08,.09,0,.03-.01,.04-.04,.06-.03,.02-.09,.04-.18,.05v.33h.25s0,0,.01,0c0,0,.01,0,.02,0,.01,0,.02,.02,.02,.04s0,.03-.02,.04c0,0,0,0-.02,0,0,0,0,0-.01,0h-.25c.02,.08,.04,.16,.08,.25,.05,.11,.1,.21,.17,.29,.01,.01,.02,.03,.02,.04,0,.03-.01,.04-.04,.04-.02,0-.04-.02-.08-.06-.05-.05-.1-.12-.15-.2v.71Zm1.04-.21c0,.08-.02,.13-.05,.16-.03,.03-.08,.04-.15,.04h-.28c-.13,0-.2-.07-.2-.2V.37c0-.08,.02-.13,.05-.16,.03-.02,.08-.04,.15-.04h.28c.13,0,.2,.07,.2,.2V1.52Zm-.18-1.15c0-.06-.03-.09-.08-.09h-.14c-.05,0-.08,.03-.08,.09V1.53c0,.06,.03,.09,.08,.09h.14c.06,0,.08-.03,.08-.09V.36Z"/>
        <path class="cls-1" d="M27.58,.73h.67s0,0,.01,0c0,0,.01,0,.02,0,.01,0,.02,.02,.02,.04,0,.02,0,.03-.02,.04,0,0,0,0-.02,0,0,0,0,0-.01,0h-1.53s-.01,0-.02,0c0,0-.01,0-.02,0-.01,0-.02-.02-.02-.04,0-.02,0-.03,.02-.04,0,0,0,0,.02,0,0,0,0,0,.01,0h.68v-.13h-.37c-.11,0-.16-.05-.16-.16V.22c0-.1,.05-.16,.16-.16h.93c.11,0,.16,.05,.16,.16v.22c0,.1-.05,.16-.16,.16h-.37v.13Zm-.37,.76s0,.02,0,.02c0,0,0,.02-.01,.03-.02,.02-.05,.05-.11,.09-.03,.02-.07,.04-.11,.06-.03,.02-.07,.04-.11,.05-.07,.03-.12,.05-.13,.05-.03,0-.04-.02-.04-.05,0-.02,.01-.04,.04-.05,.07-.04,.13-.08,.17-.12,.02-.02,.04-.04,.06-.07,.01-.01,.03-.04,.06-.08,.02-.02,.04-.04,.07-.04,.07,0,.11,.04,.11,.11Zm.37,.17c0,.1-.05,.16-.16,.16h-.23s0,0-.01,0c0,0-.01,0-.02,0-.01,0-.02-.02-.02-.04,0-.02,0-.03,.02-.04,0,0,.01,0,.02,0,0,0,0,0,.01,0h.12s.08-.03,.08-.08v-.3h-.35c-.11,0-.16-.05-.16-.16v-.09c0-.1,.05-.16,.16-.16h.86c.06,0,.11,.01,.13,.04,.02,.02,.03,.06,.03,.11v.09c0,.1-.05,.16-.16,.16h-.32v.32Zm.33-1.39v-.06s-.02-.07-.06-.07h-.76s-.06,.02-.06,.07v.06h.87Zm-.87,.09v.08s.02,.06,.06,.06h.76s.06-.02,.06-.06v-.08h-.87Zm.83,.73s-.02-.06-.06-.06h-.68s-.06,.02-.06,.06v.1s.02,.06,.06,.06h.68s.06-.02,.06-.06v-.1Zm-.06,.3s.04,.02,.07,.03c.03,.01,.06,.03,.1,.04,.04,.02,.08,.04,.12,.07,.07,.05,.11,.09,.11,.13,0,.07-.03,.11-.1,.11-.02,0-.03,0-.04-.01,0,0-.01,0-.02-.01h-.01c-.07-.1-.16-.19-.27-.28,0,0-.01-.01-.02-.02,0,0,0-.01,0-.02,0-.03,.01-.04,.04-.05,0,0,.02,0,.03,0Z"/>
        <path class="cls-1" d="M29.55,1.2s0,0,.01,0c0,0,0,0,.01,0,.01,0,.02,.02,.02,.04,0,.02,0,.03-.02,.04,0,0,0,0-.01,0,0,0,0,0-.01,0h-.17v.16h.17s0,0,.01,0c0,0,0,0,.01,0,.01,0,.02,.02,.02,.04,0,.02,0,.03-.02,.04,0,0,0,0-.02,0,0,0,0,0-.01,0h-.17v.17h.19s.05,.02,.05,.05-.02,.05-.05,.05h-.53c-.06,0-.1-.01-.12-.04-.02-.02-.03-.06-.03-.11v-.46l-.05,.05-.03,.02s-.02,0-.02,0c-.03,0-.04-.01-.04-.04,0-.01,0-.03,.02-.05,.04-.06,.08-.12,.11-.17,.01-.02,.02-.05,.03-.07,0,0,0-.02,.01-.04,0,0,0,0,0-.02,0,0,0,0,0,0h0c.02-.06,.04-.09,.08-.09,.07,0,.11,.03,.11,.09,0,.02-.01,.05-.04,.09h.13s.03-.07,.05-.12c0,0,0,0,0,0,0,0,0,0,0,0,0,0,0-.01,.01-.02,.01-.01,.03-.02,.05-.02s.04,0,.06,.02c.02,.02,.03,.04,.03,.06,0,0,0,.01,0,.02,0,0,0,.01-.01,.02,0,.02-.03,.04-.06,.06h.23s.05,.02,.05,.05-.02,.04-.05,.04h-.19v.15h.17Zm-.25-1.05v-.02s0-.02,0-.02c0-.02,0-.03,0-.05,.01-.03,.04-.05,.07-.05s.06,.02,.08,.05c0,.01,0,.03,0,.05,0,0,0,.01,0,.02v.02h.13s.05,.01,.05,.04c0,.02,0,.03-.02,.04,0,0,0,0-.02,0,0,0,0,0-.02,0h-.13v.02s0,.02,0,.02c0,.02,0,.04,0,.05-.01,.03-.04,.05-.08,.05s-.06-.02-.08-.05c0-.01,0-.03,0-.05,0,0,0-.01,0-.02v-.02h-.18v.02s0,.02,0,.03c0,.02,0,.03,0,.05-.01,.03-.04,.05-.08,.05s-.06-.02-.08-.05c0-.01,0-.03,0-.05,0,0,0-.01,0-.02v-.02h-.14s-.05-.02-.05-.05c0-.02,0-.03,.02-.04,0,0,0,0,.02,0,0,0,0,0,.01,0h.14v-.02s0-.02,0-.03c0-.02,0-.03,0-.05,.01-.03,.04-.05,.08-.05s.07,.02,.08,.05c0,.01,0,.03,0,.05,0,0,0,.02,0,.03v.02h.18Zm-.12,.48c0,.09-.05,.14-.14,.14h-.11c-.09,0-.14-.05-.14-.14v-.07c0-.09,.05-.14,.14-.14h.11c.09,0,.14,.05,.14,.14v.07Zm-.13-.08s-.01-.05-.04-.05h-.05s-.03,0-.04,.02c0,0,0,0,0,.02,0,0,0,0,0,.01v.08s.01,.05,.04,.05h.05s.03,0,.04-.02c0,0,0,0,0-.02,0,0,0,0,0-.01v-.08Zm.16,.65v-.15h-.09s-.07,.03-.07,.08v.07h.16Zm-.16,.09v.16h.16v-.16h-.16Zm.16,.25h-.16v.09c0,.05,.02,.08,.07,.08h.09v-.17Zm.41-.9c0,.09-.05,.14-.14,.14h-.1c-.09,0-.14-.05-.14-.14v-.07c0-.09,.05-.14,.14-.14h.1c.09,0,.14,.05,.14,.14v.07Zm-.12-.08s-.01-.05-.04-.05h-.04s-.03,0-.04,.02c0,0,0,.02,0,.03v.08s.01,.05,.04,.05h.04s.03,0,.04-.02c0,0,0-.02,0-.03v-.08Zm.21-.31c0-.1,.05-.16,.15-.16h.31c.1,0,.15,.05,.15,.16v.82s0,.09-.03,.11c-.02,.03-.07,.05-.13,.05v.45s0,.03,.02,.04c0,0,.01,.01,.02,.01,.03,0,.05,0,.05-.02,0-.02,.02-.06,.02-.13v-.05s0-.03,.01-.04c0-.02,.03-.04,.06-.04s.05,.01,.06,.03c0,0,0,.02,0,.03,0,0,0,.01,0,.02,0,.02,0,.05-.01,.1,0,.05-.02,.09-.03,.11-.02,.05-.06,.08-.12,.08h-.09c-.1,0-.15-.05-.15-.16v-.44h-.05c0,.05,0,.1-.02,.14,0,.05-.02,.1-.04,.14-.03,.1-.09,.19-.16,.26-.02,.02-.03,.03-.05,.05-.01,0-.02,.02-.03,.02,0,0-.02,0-.02,0-.02,0-.04-.01-.04-.04,0-.01,0-.03,.03-.05,.03-.04,.06-.09,.09-.15,.02-.05,.04-.1,.05-.16,.01-.05,.02-.09,.02-.14v-.05s0-.03,0-.04c-.04,0-.06-.03-.08-.06,0-.01,0-.03-.01-.04,0,0,0-.01,0-.02V.24Zm.45,.18v-.16c0-.06-.02-.08-.07-.08h-.14s-.07,.03-.07,.08v.16h.28Zm-.28,.09v.25h.28v-.25h-.28Zm0,.34v.18c0,.06,.02,.08,.07,.08h.14s.07-.03,.07-.08v-.18h-.28Z"/>
        <path class="cls-1" d="M33.59,.68s0,.01,0,.02c0,.02,0,.03-.01,.04-.02,.04-.04,.06-.08,.06s-.07-.02-.08-.05c0-.01,0-.03-.01-.05,0,0,0-.01,0-.02v-.25c-.06,.07-.13,.13-.21,.19-.07,.05-.14,.1-.21,.14-.14,.08-.22,.12-.26,.12-.03,0-.04-.02-.04-.05,0-.02,.01-.03,.04-.04,.11-.06,.22-.13,.31-.21,.1-.08,.18-.18,.25-.28h-.53s0,0-.01,0c0,0-.01,0-.02,0-.01,0-.02-.02-.02-.04,0-.02,0-.03,.02-.04,0,0,0,0,.02,0,0,0,0,0,.01,0h.66V.12s0-.01,0-.02c0-.02,0-.03,.01-.05,.01-.04,.04-.06,.08-.06s.07,.02,.08,.06c0,.01,0,.03,.01,.04,0,0,0,.01,0,.02v.09h.67s0,0,.01,0c0,0,.01,0,.02,0,.01,0,.02,.02,.02,.04,0,.02,0,.03-.02,.04,0,0-.01,0-.02,0,0,0,0,0-.01,0h-.53s.04,.06,.07,.09c.04,.04,.07,.08,.12,.13,.05,.05,.11,.09,.16,.14,.07,.05,.13,.09,.21,.13,0,0,0,0,0,0h.02s.01,.03,.01,.04c0,.03-.01,.05-.04,.05,0,0-.03,0-.08-.03-.05-.02-.11-.05-.17-.08-.08-.04-.15-.09-.22-.15-.08-.06-.16-.13-.22-.21v.26Zm-.19,.51s0-.01,0-.02c0-.02,0-.03,.01-.05,.01-.04,.04-.05,.08-.05,.01,0,.02,0,.03,0h.02c.06-.06,.09-.11,.09-.12,0,0,0-.02,0-.02,0,0,0,0-.01,0h-.57s0,0-.01,0c0,0-.01,0-.02,0-.01,0-.02-.02-.02-.04,0-.02,0-.03,.02-.04,0,0,0,0,.02,0,0,0,.01,0,.02,0h.77s.01,0,.02,0c.01,0,.03,0,.04,0,.03,.01,.04,.03,.04,.06,0,.02-.01,.04-.04,.06-.09,.07-.18,.14-.29,.21v.12h.65s0,0,.01,0c0,0,.01,0,.02,0,.01,0,.02,.02,.02,.04,0,.02,0,.03-.02,.04,0,0,0,0-.02,0,0,0,0,0-.02,0h-.65v.25c0,.12-.06,.19-.19,.19h-.23s0,0-.01,0c0,0-.01,0-.02,0-.01,0-.02-.02-.02-.04s0-.03,.02-.04c0,0,.01,0,.02,0,0,0,0,0,.01,0h.14c.05,0,.08-.03,.08-.09v-.25h-.65s0,0-.01,0c0,0-.01,0-.02,0-.01,0-.02-.02-.02-.04,0-.02,0-.03,.02-.04,0,0,0,0,.02,0,0,0,.01,0,.02,0h.65v-.12Z"/>
        <path class="cls-1" d="M34.84,.54l.07,.03c.07,.03,.13,.06,.17,.09,.03,.02,.04,.04,.04,.08,0,.08-.03,.11-.1,.11-.02,0-.05-.02-.07-.05-.05-.06-.11-.13-.19-.21,0,0,0,0,0-.01,0,0,0-.01,0-.02,0-.03,.01-.04,.04-.04,0,0,.02,0,.04,.01Zm.26,.46s0,.07-.02,.16c0,.05-.02,.1-.03,.14l-.04,.17c-.03,.14-.06,.23-.08,.27-.02,.03-.04,.05-.07,.05-.07,0-.1-.04-.1-.11,0-.02,.02-.07,.05-.14,.04-.08,.08-.18,.12-.29,.03-.09,.06-.17,.08-.25,0-.03,.02-.04,.04-.04,.03,0,.04,.01,.04,.04Zm-.16-.98l.06,.03c.05,.03,.1,.05,.14,.08l.03,.02,.03,.02s.02,.04,.02,.07c0,.08-.03,.11-.09,.11-.03,0-.05-.01-.07-.04-.06-.09-.13-.17-.19-.23,0,0,0,0,0-.01,0,0,0,0,0-.02,0-.03,.01-.04,.04-.04,0,0,.02,0,.03,0Zm.42,1.06s-.02,.08-.05,.16c-.03,.07-.06,.14-.1,.21-.01,.02-.02,.04-.03,.05l-.02,.04s-.03,.03-.04,.03c-.03,0-.04-.01-.04-.04,0,0,0,0,0-.02l.03-.11s.03-.1,.04-.14l.03-.17c0-.06,.04-.09,.09-.09,.06,0,.09,.03,.09,.09Zm.21-.76h.15s0,0,.01,0c0,0,.01,0,.02,0,.01,0,.02,.02,.02,.04,0,0,0,0,0,.01,0,0,0,.01,0,.02,0,.01-.02,.02-.04,.02h-.15v.32h.17s0,0,.01,0c0,0,.01,0,.02,0,.01,0,.02,.02,.02,.04,0,.02,0,.03-.02,.04,0,0,0,0-.02,0,0,0,0,0-.01,0h-.17v.82c0,.12-.06,.18-.18,.18h-.19s0,0-.01,0c0,0-.01,0-.02,0-.01,0-.02-.02-.02-.04,0-.02,0-.03,.02-.04,0,0,.01,0,.02,0,0,0,0,0,.01,0h.1c.05,0,.08-.03,.08-.08V.82h-.19s0,0-.01,0c0,0-.01,0-.01,0-.01,0-.02-.02-.02-.04s0-.03,.02-.04c0,0,0,0,.01,0h.2V.13s0-.06,.02-.08c.01-.03,.04-.04,.07-.04,.04,0,.07,.02,.08,.05,0,.01,0,.02,0,.04,0,0,0,.01,0,.02v.21Zm.13,.67s.03,.04,.05,.08c.07,.13,.11,.21,.11,.26,0,.06-.03,.1-.09,.1-.03,0-.05-.01-.06-.04,0,0,0-.02-.01-.03,0,0,0,0,0-.01,0,0,0,0,0-.01-.01-.1-.03-.19-.05-.29,0,0,0-.02,0-.02,0-.03,.01-.04,.04-.04,.01,0,.02,0,.03,.02Zm.11-.81s0,0-.01,0c0,0-.01,0-.02,0-.01,0-.02-.02-.02-.04s0-.03,.02-.04c0,0,0,0,.02,0h.41c.06,0,.1,.02,.13,.05,.02,.03,.03,.06,.03,.11,0,.2-.02,.39-.05,.58-.04,.2-.09,.37-.16,.5l.04,.07s.03,.06,.05,.09c.04,.07,.1,.14,.17,.22,0,0,.01,.02,.02,.02,0,0,0,.01,0,.02,0,.03-.01,.05-.04,.05-.02,0-.06-.03-.12-.1-.03-.03-.06-.07-.09-.11-.03-.04-.06-.09-.09-.13-.04,.06-.08,.11-.13,.16-.04,.04-.07,.08-.11,.11-.03,.03-.06,.04-.08,.06-.02,.01-.04,.02-.04,.02-.03,0-.04-.02-.04-.05,0,0,0-.02,0-.03,0,0,0-.01,.02-.02,.04-.03,.08-.07,.12-.11,.03-.03,.06-.07,.09-.1,.02-.03,.04-.06,.06-.1,.01-.02,.03-.05,.04-.08-.04-.09-.08-.18-.11-.29-.03-.09-.05-.18-.06-.27-.01-.07-.02-.14-.03-.2,0-.02,0-.04,0-.06v-.03s.01-.08,.05-.1h.02s.02-.01,.02-.01c0,0,0,0,.01,0h.02s0,0,.01,0c.01,0,.02,0,.03,.01,.03,.02,.04,.05,.04,.1,0,.06,0,.11,0,.16,0,.06,0,.11,.01,.16,.01,.12,.03,.22,.06,.32l.03-.11c0-.05,.02-.11,.03-.17,0-.07,.02-.15,.02-.23,0-.1,0-.2,0-.31,0-.08-.02-.12-.06-.12h-.29Z"/>
        <path class="cls-1" d="M36.92,1.35s-.01,0-.02,0c0,0-.01,0-.02,0-.01,0-.02-.02-.02-.04,0-.02,0-.03,.02-.04,0,0,0,0,.02,0,0,0,0,0,.02,0h1.53s.01,0,.02,0c0,0,.01,0,.02,0,.01,0,.02,.02,.02,.04,0,.02,0,.03-.02,.04,0,0,0,0-.02,0,0,0,0,0-.02,0h-.88c-.06,.1-.13,.19-.21,.28,.3-.01,.54-.03,.73-.04-.02-.02-.04-.05-.07-.08-.01,0-.02-.02-.04-.04l-.04-.04s-.01-.01-.01-.02c0,0,0-.02,0-.02,0-.03,.01-.04,.04-.04,0,0,.02,0,.04,.02,.02,.01,.05,.02,.08,.04,.07,.04,.14,.08,.19,.12,.05,.04,.09,.08,.11,.1,.02,.02,.02,.04,.02,.06,0,.08-.04,.12-.11,.12-.03,0-.05-.01-.07-.04l-.07-.1-.33,.04s-.06,0-.08,0c-.1,.01-.2,.02-.28,.03l-.32,.03c-.09,0-.15,.01-.17,.01-.05,0-.07-.03-.07-.08,0-.04,.02-.07,.05-.07h.09s.13-.01,.13-.01c.03-.04,.05-.09,.08-.14,.03-.06,.05-.11,.07-.15h-.42Zm.86-1.03h.52c.11,0,.16,.05,.16,.16v.23s0,.01,0,.02c0,.02,0,.03,0,.04-.01,.03-.04,.05-.08,.05-.03,0-.06-.01-.07-.04-.01-.02-.02-.05-.02-.08v-.2c0-.06-.03-.09-.08-.09h-.42v.41s0,.01,0,.02c0,.02,0,.03-.01,.05-.01,.04-.04,.06-.08,.06s-.07-.02-.08-.05c0-.01,0-.03-.01-.05,0,0,0-.01,0-.02V.41h-.43c-.05,0-.08,.03-.08,.09v.2s0,.06-.02,.08c-.01,.03-.04,.04-.07,.04s-.06-.01-.07-.04c-.01-.02-.02-.05-.02-.08v-.22c0-.1,.05-.16,.16-.16h.52V.16h-.53s0,0-.02,0c0,0-.01,0-.02,0-.01,0-.02-.02-.02-.04,0-.02,0-.03,.02-.04,0,0,0,0,.02,0,0,0,0,0,.01,0h1.25s.01,0,.02,0c0,0,.01,0,.02,0,.01,0,.02,.02,.02,.04,0,.02,0,.03-.02,.04,0,0,0,0-.02,0,0,0,0,0-.01,0h-.52v.16Zm.51,.68s.01,0,.02,0c0,0,.01,0,.02,0,.01,0,.02,.02,.02,.04,0,.02,0,.03-.02,.04,0,0,0,0-.02,0,0,0,0,0-.01,0h-1.2s0,0-.01,0c0,0-.01,0-.02,0-.01,0-.02-.02-.02-.04s0-.03,.02-.04c0,0,.01,0,.02,0,0,0,0,0,.01,0h1.2Zm-.81-.46s.01,0,.02,0c0,0,.01,0,.02,0,.01,0,.02,.02,.02,.04,0,.02,0,.03-.02,.04,0,0,0,0-.02,0,0,0-.01,0-.02,0h-.29s-.01,0-.02,0c0,0-.01,0-.02,0-.01,0-.02-.02-.02-.04,0-.02,0-.03,.02-.04,0,0,0,0,.02,0,0,0,0,0,.01,0h.29Zm0,.22s.01,0,.02,0c0,0,.01,0,.02,0,.01,0,.02,.02,.02,.04,0,.02,0,.03-.02,.04,0,0,0,0-.02,0,0,0-.01,0-.02,0h-.29s-.01,0-.02,0c0,0-.01,0-.02,0-.01,0-.02-.02-.02-.04,0-.02,0-.03,.02-.04,0,0,.01,0,.02,0,0,0,0,0,.02,0h.29Zm.7-.22s.01,0,.02,0c0,0,.01,0,.02,0,.01,0,.02,.02,.02,.04,0,.02,0,.03-.02,.04,0,0,0,0-.02,0,0,0,0,0-.02,0h-.28s-.01,0-.02,0c0,0-.01,0-.02,0-.01,0-.02-.02-.02-.04,0-.02,0-.03,.02-.04,0,0,.01,0,.02,0,0,0,0,0,.01,0h.28Zm0,.22s.01,0,.02,0c0,0,.01,0,.02,0,.01,0,.02,.02,.02,.04,0,.02,0,.03-.02,.04,0,0,0,0-.02,0,0,0,0,0-.01,0h-.28s0,0-.01,0c0,0-.01,0-.02,0-.01,0-.02-.02-.02-.04,0-.02,0-.03,.02-.04,0,0,.01,0,.02,0,0,0,0,0,.01,0h.28Z"/>
      </g>
      <g>
        <path d="M.74,19.6v.12h-.2v-.12H0v-.17H.55v-.12h.2v.12h.63v-.12h.2v.12h.51v.17h-.51v.13h-.2v-.13H.74ZM.03,21.05v-.17H.95v-.17H.09v-.17H.41v-.21h-.41v-.17H.41v-.21H.09v-.17H1.99v.17h-.3v.21h.38v.17h-.38v.21h.29v.17h-.84v.17h.9v.17h-.9v.29h-.2v-.29H.03Zm.92-1.1h-.34v.21h.34v-.21Zm0,.38h-.34v.21h.34v-.21Zm.2-.17h.35v-.21h-.35v.21Zm0,.38h.35v-.21h-.35v.21Z"/>
        <path d="M2.61,21.31h-.2v-1.87s.02-.06,.06-.06h1.82s.07,.02,.07,.06v1.87h-.2v-.08h-1.56v.08Zm1.56-.27v-1.44s0-.03-.03-.03h-1.51s-.03,0-.03,.03v1.44h1.56Zm-.19-.13h-1.16s-.03,0-.03-.03v-.62s0-.03,.03-.03h.46v-.24h-.57v-.18h.57v-.18h.19v.18h.6v.18h-.6v.24h.51s.03,0,.03,.03v.62s0,.03-.03,.03Zm-.99-.49s0,0,0,0v.3s0,0,0,0h.82s0,0,0,0v-.3s0,0,0,0h-.82Z"/>
        <path d="M5.7,20.27v.15h-1.08v-.15h1.08Z"/>
        <path d="M6.66,20.3h.28v.15h-.82s-.06-.03-.06-.06v-.58s-.05,.05-.07,.08c-.04-.06-.08-.09-.12-.11,.12-.12,.21-.28,.26-.47l.18,.06s-.03,.07-.04,.1h.25c.03-.07,.05-.12,.07-.16l.16,.07s-.02,.06-.04,.09h.23v.15h-.27v.12h.23v.14h-.23v.13h.22v.14h-.22v.14Zm-.47,.42v-.17h1.47l.14,.11c-.14,.15-.31,.28-.53,.39,.19,.06,.42,.09,.7,.11l-.06,.19c-.33-.03-.61-.1-.85-.2h-.02c-.14,.06-.29,.11-.45,.14-.17,.04-.38,.06-.65,.06l-.04-.19c.29,0,.52-.03,.68-.07,.08-.02,.16-.05,.24-.07-.11-.07-.23-.14-.36-.23l.06-.08h-.34Zm.29-.98v-.12h-.23s-.02,.01-.02,.02v.1h.25Zm0,.27v-.13h-.25v.13h.25Zm-.25,.14v.11s.01,.03,.02,.03h.23v-.14h-.25Zm.45,.56c.13,.1,.25,.17,.36,.23,.19-.08,.33-.16,.43-.23h-.79Zm.98-.42h.29v.15h-.83s-.06-.03-.06-.06v-.65s-.04,.03-.05,.05c-.04-.06-.08-.1-.12-.12,.11-.08,.19-.2,.24-.36l.17,.08s-.03,.05-.04,.08h.24c.03-.06,.05-.11,.07-.15l.16,.07s-.02,.05-.04,.08h.26v.15h-.29v.12h.27v.14h-.27v.13h.27v.14h-.27v.14Zm-.18-.55v-.12h-.23s-.02,.01-.02,.02v.1h.25Zm0,.27v-.13h-.25v.13h.25Zm-.25,.14v.11s.01,.03,.02,.03h.23v-.14h-.25Z"/>
        <path d="M8.69,21.33h-.19v-.91c-.04,.1-.07,.19-.11,.25l-.19-.04c.13-.22,.22-.45,.26-.69h-.21v-.19h.24v-.43h.19v.43h.21v.19h-.21v.05c.1,.1,.2,.2,.29,.31l-.15,.12c-.04-.06-.09-.12-.14-.18v1.09Zm1.1-.17c-.03,.08-.08,.14-.15,.16-.07,.02-.17,.01-.32,0v-.19c.11,.02,.19,.03,.22,.03,.04-.02,.06-.05,.08-.1,.02-.06,.04-.11,.04-.17-.25,.19-.49,.31-.72,.37l-.09-.17c.3-.08,.57-.21,.8-.4-.01-.04-.03-.08-.04-.11-.23,.18-.45,.3-.65,.35l-.1-.16c.26-.07,.48-.18,.66-.33-.02-.02-.04-.04-.05-.06-.17,.11-.31,.19-.44,.22l-.1-.15c.17-.06,.33-.14,.49-.25h-.38s-.03,0-.03-.03v-.42s-.04,.02-.05,.03l-.08-.16c.19-.07,.32-.17,.41-.3l.15,.07s-.02,.03-.03,.05h.49l.12,.08c-.04,.08-.09,.15-.14,.2h.37s.03,0,.03,.03v.42s0,.03-.03,.03h-.55s-.06,.05-.1,.08c.04,.04,.1,.11,.17,.22,.09,.22,.29,.43,.59,.62l-.16,.12c-.14-.1-.25-.21-.35-.31-.01,.1-.03,.19-.05,.25Zm-.15-1.45c.07-.05,.11-.09,.13-.11h-.5c-.06,.04-.12,.08-.18,.11h.55Zm-.09,.15h-.35v.16s0,0,0,0h.34v-.17Zm.19,.17h.35v-.17h-.35v.17Zm.52,.36c-.08,.07-.17,.15-.29,.22l-.12-.14c.13-.08,.22-.16,.28-.21l.12,.14Z"/>
        <path d="M10.84,21.33h-.19v-1.89s.03-.06,.06-.06h1.81s.06,.02,.06,.06v1.89h-.19v-.08h-1.56v.08Zm.7-1.44v-.1h-.54v-.14h.54v-.09h-.67s-.03,0-.03,.03v1.5h1.56v-1.51s0-.02-.03-.02h-.65v.09h.54v.14h-.54v.1h.6v.15h-1.38v-.15h.6Zm-.02,.67v.47h-.18v-.32c-.12,.1-.23,.18-.32,.23l-.12-.13c.14-.07,.27-.16,.38-.25h-.21s-.03,0-.03-.03v-.39s0-.03,.03-.03h1.13s.03,0,.03,.03v.39s0,.03-.03,.03h-.4c.09,.19,.27,.3,.54,.34l-.09,.15c-.33-.07-.54-.24-.63-.49h-.08Zm-.31-.3s0,0,0,0v.14s0,0,0,0h.82s0,0,0,0v-.14s0,0,0,0h-.82Zm1.14,.42c-.06,.04-.14,.09-.23,.14l-.08-.14c.09-.05,.17-.1,.22-.14l.09,.13Z"/>
        <path d="M13.51,20.81v.25h-.28v-.25h.28Z"/>
        <path d="M14.16,20.46c-.01-.06-.03-.11-.05-.17l.15-.03c.06-.07,.12-.15,.18-.24-.11-.09-.23-.16-.34-.22,.03-.04,.05-.09,.07-.14,.02,0,.05,0,.09,.04,.07-.12,.12-.25,.16-.38,.05,.03,.11,.05,.16,.07-.04,.11-.1,.24-.19,.4,.04,.03,.08,.06,.13,.09,.06-.11,.1-.22,.12-.32l.18,.04c-.03,.16-.14,.37-.34,.63l.16-.03c-.01-.05-.02-.08-.03-.1l.18-.03c.04,.14,.07,.27,.07,.39l-.17,.02s0-.06,0-.09l-.52,.08Zm1.1,.87h-.19v-.43c-.31,.2-.59,.33-.85,.38l-.09-.18c.32-.07,.6-.18,.85-.34h-.86v-.17h.95v-.17h-.17s-.03,0-.03-.03v-.88s0-.03,.03-.03h.14c.04-.07,.06-.13,.06-.17l.16,.06s-.02,.06-.04,.11h.17s.03,0,.03,.03v.88s0,.03-.03,.03h-.14v.17h.97v.17h-.86c.11,.08,.21,.15,.29,.19,.14,.08,.33,.13,.56,.15l-.09,.18c-.33-.07-.62-.2-.88-.39v.44Zm0-1.45v-.21s0,0,0,0h-.2s0,0,0,0v.21h.21Zm-.21,.16v.21s0,0,0,0h.2s0,0,0,0v-.21h-.21Zm.45,.41c0-.05-.02-.11-.04-.18h.14c.05-.07,.11-.15,.17-.24-.11-.09-.21-.16-.32-.2,.02-.05,.05-.1,.07-.15,.01,0,.04,0,.07,.03,.06-.11,.11-.24,.15-.37,.05,.02,.11,.04,.16,.07-.04,.1-.09,.23-.17,.39,.04,.03,.07,.06,.12,.09,.05-.1,.09-.2,.12-.29l.17,.04c-.04,.15-.15,.35-.33,.59l.2-.02c-.02-.06-.04-.11-.04-.13l.17-.04c.08,.24,.13,.37,.13,.39l-.17,.03s-.02-.06-.03-.08l-.56,.07Z"/>
        <path d="M17.32,20.58c-.18,.16-.43,.28-.76,.37l-.1-.16c.23-.06,.41-.13,.55-.2h-.54v-.17h.75s.06-.06,.08-.09h-.59s-.03,0-.03-.03v-.58s0-.03,.03-.03h1.6s.03,0,.03,.03v.58s0,.03-.03,.03h-.78s-.05,.06-.07,.09h1.09v.17h-.5c.13,.08,.3,.15,.52,.19l-.11,.17c-.27-.08-.51-.2-.71-.36h-.45Zm-.1-1.01v.07h-.2v-.07h-.55v-.17h.55v-.08h.2v.08h.63v-.08h.2v.08h.52v.17h-.52v.07h-.2v-.07h-.63Zm-.12,1.43c-.16,.15-.31,.25-.47,.32-.02-.07-.05-.13-.07-.16,.16-.06,.29-.16,.4-.3l.14,.14Zm1.06-1.07v-.08h-1.28v.08h1.28Zm-1.28,.14v.08s0,0,0,0h1.27v-.09h-1.28Zm.56,.61v.46c0,.08-.04,.14-.1,.18-.05,.03-.17,.03-.35,0v-.19c.05,.02,.09,.03,.12,.03,.07,.01,.11,0,.12,0,.01-.02,.02-.04,.02-.06v-.42h.19Zm.3,.16c.1,.2,.16,.34,.18,.41l-.18,.05c-.07-.16-.12-.29-.18-.39l.18-.07Zm.4,0c.16,.2,.25,.33,.29,.38l-.17,.09c-.07-.11-.16-.23-.28-.37l.16-.1Z"/>
        <path d="M19.41,20.81v.25h-.28v-.25h.28Z"/>
        <path d="M20.11,19.95l-.06-.2c.31-.05,.55-.2,.72-.43l.2,.06s-.01,.02-.02,.03h.95l.15,.12c-.06,.08-.11,.15-.15,.22-.21,.26-.52,.48-.93,.65h.92s.07,.02,.07,.07v.85h-.21v-.09h-1.04v.09h-.21v-.76c-.14,.04-.28,.08-.43,.11l-.07-.2c.31-.05,.57-.11,.77-.19,.07-.02,.14-.05,.21-.08-.17-.14-.35-.26-.53-.37-.1,.04-.22,.08-.35,.12Zm1.06,.15c.24-.14,.43-.3,.56-.48,0-.02,0-.03,0-.03h-.95c-.05,.04-.1,.09-.14,.13,.06,.04,.13,.08,.21,.14,.12,.09,.24,.17,.33,.25Zm.57,.93v-.42s0-.03-.03-.03h-.98s-.03,0-.03,.03v.42h1.04Z"/>
        <path d="M22.78,19.57c-.07,.07-.16,.15-.28,.24l-.17-.11c.2-.12,.33-.24,.38-.34h.18s0,.03,0,.03c.09,.07,.19,.13,.29,.18l-.13,.14c-.09-.06-.17-.12-.24-.19-.01,.01-.02,.03-.03,.04Zm-.14,.82h-.26v-.17h.26v-.21h-.2v-.17h.59v.17h-.21v.21h.24v.17h-.24v.62c.09-.02,.16-.04,.21-.06l.06,.16c-.16,.06-.39,.12-.7,.17l-.05-.17c.09-.02,.19-.04,.3-.06v-.66Zm-.11,.14c.04,.15,.05,.29,.05,.41h-.15c-.01-.14-.03-.28-.05-.4h.15Zm.53,0c-.01,.11-.03,.22-.05,.32l-.14-.03c.02-.07,.04-.18,.05-.31l.14,.03Zm.67,.28v-.14h.39v-.11h-.99v-.15h1.33v.15h-.16v.11h.16v.14h-.16v.32c0,.07-.04,.13-.1,.17-.06,.03-.17,.03-.33,0v-.17c.13,.03,.21,.03,.23,0,.01-.01,.02-.03,.02-.05v-.28h-.39Zm.49-.7h-.36v.08h.5v.14h-1.2v-.14h.52v-.08h-.46v-.12h1v.08l.04-.09s0-.03,0-.03c0,0,0,0,0,0h-1.12v-.15h1.25l.09,.07c-.04,.1-.08,.19-.12,.28-.05-.02-.1-.03-.14-.05v.03Zm-.9,1.17h-.17v-.62s0-.03,.03-.03h.47s.04,.02,.04,.03v.61h-.17v-.08h-.2v.08Zm.38-1.77h-.53v-.14h.53v-.08h.18v.08h.54v.14h-.54v.08h.47v.12h-1.11v-.12h.46v-.08Zm-.18,1.54v-.25s-.01-.03-.02-.03h-.15s-.03,0-.03,.03v.25h.2Zm.33-.2c.07,.03,.13,.08,.19,.15l-.11,.11c-.08-.07-.14-.12-.18-.15l.1-.11Z"/>
        <path d="M25.3,20.81v.25h-.28v-.25h.28Z"/>
        <path d="M26.63,19.34h.21v.52h1.04v.2h-1.04v1.01h1.16v.2h-2.09v-.2h.72v-1.72Z"/>
        <path d="M28.27,19.76v-.2h.94v-.24h.21v.24h.93v.2h-.35c-.11,.39-.29,.71-.55,.97,.27,.2,.58,.35,.92,.44l-.13,.17c-.37-.12-.68-.28-.94-.49-.07,.05-.15,.11-.22,.16-.16,.1-.38,.21-.69,.33l-.12-.17c.34-.11,.64-.26,.89-.45-.24-.23-.41-.55-.5-.96h-.38Zm.74,.45c.08,.16,.18,.29,.29,.39,.01-.02,.03-.04,.04-.04,.21-.21,.36-.48,.44-.8h-.93c.04,.18,.09,.33,.15,.45Z"/>
        <path d="M31.21,21.33h-.2v-1.02c-.11,.24-.19,.41-.24,.49l-.19-.06c.2-.27,.33-.57,.41-.9h-.37v-.19h.38v-.34h.2v.34h.31v.19h-.31v.03c.14,.15,.27,.31,.4,.48l-.16,.11c-.07-.11-.15-.22-.24-.34v1.2Zm.75-1.08c-.11,.29-.24,.55-.38,.77l-.2-.06c.14-.19,.26-.38,.36-.59,.07-.13,.13-.31,.19-.53h-.3v-.19h.34v-.34h.2v.34h.48v.19h-.46c.18,.46,.36,.82,.54,1.08l-.17,.08c-.15-.23-.28-.5-.39-.81v1.13h-.2v-1.08Z"/>
        <path d="M33.83,19.27l-.65,2.13h-.16l.65-2.13h.16Z"/>
        <path d="M34.43,20.49s0-.03-.03-.03h-.21v-.19h.38s.05,.02,.05,.04v.52c0,.05,.03,.1,.07,.14,.06,.07,.14,.12,.23,.14,.12,.03,.56,.02,1.31-.02l-.04,.2c-.39,0-.75,0-1.09,0-.28-.02-.47-.11-.56-.27-.02,.05-.05,.1-.11,.16-.07,.07-.13,.11-.19,.14l-.11-.16c.12-.06,.2-.11,.23-.16,.03-.03,.05-.08,.05-.13v-.4Zm-.17-.73c.11,.06,.24,.14,.37,.25l-.12,.15c-.14-.12-.26-.2-.36-.24l.11-.16Zm.05-.4c.11,.05,.24,.13,.37,.23l-.12,.15c-.14-.11-.25-.18-.35-.22l.1-.16Zm.83,1.37c-.14,.07-.25,.12-.35,.15l-.1-.17c.2-.06,.38-.14,.54-.25h-.41s-.02,0-.02-.03v-.41s.01-.02,.02-.02h1.25s.03,.01,.03,.02v.41s0,.03-.03,.03h-.56c-.07,.06-.13,.11-.19,.14v.48h-.18v-.37h0Zm.21-1.09h-.56v-.16h.56v-.14h.19v.14h.57v.16h-.57v.12h.66v.17h-1.48v-.17h.63v-.12Zm-.36,.54s0,0,0,0v.14h0s.93,0,.93,0h0v-.14h-.94Zm.99,.31l.12,.13c-.06,.06-.13,.12-.21,.18,.07,.05,.14,.1,.21,.16l-.11,.14c-.23-.18-.43-.31-.59-.39l.11-.14c.07,.04,.14,.08,.21,.12,.11-.07,.2-.14,.25-.2Z"/>
        <path d="M36.51,19.74v-.18h.33c0-.07,.01-.14,.02-.21l.18,.02c0,.07-.01,.14-.02,.2h.39v.18h-.42c-.07,.39-.18,.71-.33,.96l-.18-.05c.16-.28,.27-.58,.33-.91h-.3Zm.04,1.48c-.02-.06-.05-.11-.07-.17l.21-.03c.14-.29,.26-.61,.35-.95l.17,.05c-.05,.23-.16,.51-.3,.86l.3-.07c-.05-.17-.08-.28-.08-.33l.18-.03c.07,.23,.12,.45,.14,.68l-.18,.02c-.01-.06-.02-.11-.03-.16l-.69,.14Zm2.02-.1v.17h-.99s-.07-.03-.07-.07v-1.22c-.04,.05-.08,.1-.12,.15l-.16-.09c.2-.21,.34-.45,.41-.72l.18,.05c-.04,.11-.07,.21-.12,.3h.3c.08-.14,.13-.25,.15-.33l.18,.07c-.02,.08-.06,.17-.12,.26h.34l-.02,.17h-.34v.31h.35v.17h-.35v.31h.35v.17h-.35v.31h.38Zm-.56-1.27h-.29s-.03,0-.03,.03v.28h.31v-.31Zm0,.48h-.31v.31h.31v-.31Zm0,.48h-.31v.28s0,.03,.03,.03h.29v-.31Z"/>
        <path d="M39.86,20.27v.15h-1.08v-.15h1.08Z"/>
        <path d="M40.26,21.17h-.19v-1.72h.46c.14,0,.25,.05,.34,.15,.07,.1,.11,.23,.11,.41,0,.15-.04,.27-.12,.36-.08,.07-.19,.11-.32,.11h-.27v.7Zm.45-.94c.05-.05,.08-.12,.08-.22,0-.13-.02-.22-.07-.28-.05-.07-.15-.1-.28-.1h-.18v.67h.18c.13,0,.21-.02,.27-.07Z"/>
        <path d="M41.34,21.17h-.19l.47-1.72h.19l.48,1.72h-.19l-.15-.52h-.47l-.14,.52Zm.57-.7l-.19-.69-.2,.69h.38Z"/>
        <path d="M42.66,20.48v.7h-.19v-1.72h.46c.14,0,.26,.05,.36,.15,.08,.1,.12,.23,.12,.41,0,.15-.05,.27-.14,.36-.06,.06-.14,.1-.23,.1l.45,.71h-.22l-.44-.7h-.16Zm.47-.25c.06-.05,.09-.12,.09-.21,0-.13-.03-.22-.09-.28-.05-.07-.14-.1-.27-.1h-.21v.67h.21c.12,0,.21-.03,.27-.08Z"/>
        <path d="M43.79,21.17h-.19v-1.72h.19v.76l.53-.76h.21l-.57,.82,.69,.9h-.22l-.63-.85v.85Z"/>
        <path d="M46.16,21.01c-.09-.14-.13-.39-.13-.75,0-.31,.06-.53,.15-.66,.09-.11,.22-.17,.37-.17s.27,.06,.35,.18c.1,.14,.14,.36,.14,.65,0,.37-.06,.62-.15,.76-.07,.11-.18,.17-.34,.17-.18,0-.31-.06-.38-.19Zm.59-1.27c-.06-.08-.13-.13-.21-.13-.1,0-.17,.03-.22,.09-.07,.1-.11,.29-.11,.56,0,.29,.04,.5,.1,.63,.05,.08,.12,.13,.23,.13,.08,0,.16-.05,.21-.14,.06-.1,.09-.31,.09-.61,0-.27-.04-.44-.1-.53Z"/>
        <path d="M48.01,19.45h.19v1.72h-.2l-.54-1.32v1.32h-.19v-1.72h.21l.53,1.32v-1.32Z"/>
        <path d="M48.69,21h.69v.18h-.88v-1.72h.88v.18h-.69v.58h.48v.18h-.48v.61Z"/>
        <path d="M50.25,20.81v.25h-.28v-.25h.28Z"/>
        <path d="M51.39,21.2c-.19,0-.33-.08-.42-.24-.08-.13-.12-.34-.12-.64,0-.32,.06-.56,.17-.71,.1-.12,.22-.18,.37-.18,.13,0,.24,.03,.31,.12,.08,.09,.12,.2,.12,.34h-.19c0-.08-.03-.15-.07-.2-.05-.05-.11-.08-.17-.08-.1,0-.17,.04-.23,.13-.07,.1-.1,.3-.1,.59,0,.27,.03,.44,.07,.54,.07,.11,.15,.16,.26,.16,.08,0,.14-.03,.18-.08,.04-.06,.06-.14,.06-.22h.19c0,.14-.04,.25-.12,.34-.08,.1-.18,.14-.31,.14Z"/>
        <path d="M52.16,21.17h-.19l.47-1.72h.19l.48,1.72h-.19l-.15-.52h-.47l-.14,.52Zm.57-.7l-.19-.69-.2,.69h.38Z"/>
        <path d="M53.75,21.01c.08,0,.15-.03,.21-.08,.05-.06,.08-.12,.08-.2,0-.11-.12-.24-.34-.38-.26-.17-.38-.33-.38-.48,0-.11,.03-.2,.1-.29,.08-.1,.19-.15,.33-.15,.2,0,.36,.11,.49,.34l-.12,.14c-.05-.1-.1-.17-.14-.21-.05-.06-.13-.08-.22-.08-.07,0-.13,.03-.17,.08-.05,.05-.07,.11-.07,.19,0,.1,.12,.23,.38,.39,.23,.15,.35,.31,.35,.48,0,.12-.04,.23-.13,.32-.1,.08-.21,.13-.34,.13-.2,0-.37-.12-.49-.36l.12-.14c.12,.21,.24,.31,.38,.31Z"/>
        <path d="M54.56,21.17h-.19l.47-1.72h.19l.48,1.72h-.19l-.15-.52h-.47l-.14,.52Zm.57-.7l-.19-.69-.2,.69h.38Z"/>
        <path d="M56.26,20.81v.25h-.28v-.25h.28Z"/>
        <path d="M57.17,19.33h.18v1.64h.08s.03,0,.03-.03v-1.36h.17v1.47c0,.06-.03,.08-.09,.08h-.55c-.06,0-.09-.03-.09-.08v-1.47h.17v1.36s0,.03,.03,.03h.08v-1.64Zm.62,.48l-.09-.16c.18-.06,.3-.17,.38-.32l.18,.03s-.02,.03-.02,.04h.55l.12,.1c-.11,.19-.24,.33-.39,.42,.13,.06,.29,.1,.46,.12l-.06,.17c-.24-.03-.43-.09-.58-.2-.17,.08-.37,.14-.58,.2l-.06-.17c.19-.03,.36-.08,.51-.13-.07-.07-.14-.14-.2-.23-.06,.05-.13,.1-.22,.14Zm-.09,1.25v-.17h.54v-.14h-.46v-.17h.46v-.13h-.48v-.17h.48v-.17h.19v.17h.47v.17h-.47v.13h.46v.17h-.46v.14h.54v.17h-.54v.27h-.19v-.27h-.54Zm.67-1.23c.15-.1,.24-.18,.29-.24,.01-.02,0-.03,0-.03h-.5c.07,.1,.14,.19,.21,.25,0,0,0,0,0,0Z"/>
        <path d="M59.25,20.63c-.01-.05-.03-.1-.05-.16l.15-.02s.1-.1,.15-.15c-.1-.1-.21-.17-.31-.23,.04-.05,.07-.1,.09-.15,.01,0,.04,.03,.1,.06,.07-.1,.13-.2,.19-.31,.05,.04,.1,.07,.14,.09-.04,.08-.11,.19-.21,.31,.04,.03,.07,.06,.11,.09,.07-.1,.13-.2,.17-.29l.16,.07c-.04,.11-.15,.27-.33,.46l.18-.03c-.02-.06-.03-.1-.03-.12l.15-.03c.04,.14,.07,.27,.07,.37l-.15,.02s0-.05,0-.08l-.12,.02v.77h-.18v-.75l-.27,.03Zm.68-1.04v.09h-.2v-.09h-.51v-.17h.51v-.09h.2v.09h.67v-.09h.2v.09h.5v.17h-.5v.08h-.2v-.08h-.67Zm-.46,1.14c-.01,.15-.04,.33-.08,.54l-.17-.03c.05-.22,.08-.39,.08-.53l.17,.02Zm.42,0c.02,.17,.04,.3,.04,.39h-.15c0-.13-.02-.26-.04-.38h.14Zm.13-.12s.02-.05,.05-.05h1.1s.06,.02,.06,.05v.55h.09v.17h-1.4v-.17h.1v-.55Zm1.16-.15h-1.07s-.03,0-.03-.03v-.68s0-.03,.03-.03h1.07s.03,0,.03,.03v.68s0,.03-.03,.03Zm-.8,.7v-.45h-.17s-.02,.01-.02,.02v.43h.19Zm.23-1.09s0,.01,0,.02c-.06,.07-.12,.13-.17,.17l-.12-.09c.09-.07,.17-.16,.24-.28h-.29s0,0,0,0v.39s0,0,0,0h.77s0,0,0,0v-.39s0,0,0,0h-.29s-.03,.06-.04,.08c.1,.05,.19,.11,.28,.18l-.1,.12c-.07-.06-.15-.12-.25-.2Zm.11,1.09v-.45h-.18v.45h.18Zm.33,0v-.43s0-.02-.03-.02h-.14v.45h.17Z"/>
        <path d="M11.47,25.23c.09,.07,.2,.16,.3,.27l-.13,.14c-.11-.12-.21-.21-.3-.26l.13-.14Zm.29,.57c-.03,.33-.11,.6-.24,.81l-.19-.05c.15-.25,.23-.51,.23-.77l.2,.02Zm-.27-1.11c.1,.07,.2,.16,.3,.27l-.13,.14c-.11-.12-.21-.21-.3-.26l.13-.14Zm1.07,.08v.66s-.02,.06-.05,.06h-.47v1.15h-.19v-1.88s.02-.04,.05-.04h.61s.05,.02,.05,.05Zm-.19,.26v-.13s-.01-.03-.04-.03h-.26s-.04,.01-.04,.03v.13h.34Zm-.34,.15v.15h.29s.04-.02,.04-.04v-.11h-.34Zm.51,.89h-.35v-.15h.35v-.17h-.39v-.15h.97v.15h-.39v.17h.37v.15h-.37v.15h.44v.16h-1.06v-.16h.44v-.15Zm.19-.59s-.06-.03-.06-.06v-.66s.02-.05,.06-.05h.63s.05,.02,.05,.05v1.71s0,.07-.03,.1c-.02,.03-.05,.05-.09,.07-.08,.03-.2,.02-.36-.02l.03-.2c.11,.04,.19,.06,.22,.05,.01,0,.02-.02,.03-.03,0-.01,0-.03,0-.04v-.92h-.49Zm.49-.47v-.11s-.02-.04-.05-.04h-.27s-.04,.01-.04,.03v.12h.37Zm-.37,.15v.11s.02,.05,.05,.05h.31v-.16h-.37Z"/>
        <path d="M15.1,25.62h-.72s-.02,.03-.03,.03c-.05,.05-.09,.1-.13,.14,.11,.11,.19,.19,.22,.23l-.14,.1s-.12-.12-.22-.22c-.09,.08-.17,.14-.25,.18l-.14-.13c.2-.12,.35-.23,.46-.33h-.43v-.18h.6c.04-.06,.08-.11,.12-.16h-.55v-.18h.64c.03-.07,.05-.12,.05-.16h-.78v-.18h.8s.02-.09,.03-.13l.19,.02s-.01,.08-.02,.11h.92v.18h-.97c-.01,.07-.03,.12-.04,.16h.92v.18h-.54c.04,.07,.07,.12,.11,.16h.59v.18h-.44c.12,.11,.28,.21,.47,.31l-.15,.14c-.11-.07-.21-.14-.3-.21-.08,.07-.17,.15-.29,.22l-.12-.14c.11-.08,.2-.15,.27-.2-.04-.03-.08-.08-.12-.13Zm-.55,.67c-.17,.12-.4,.24-.69,.35l-.08-.17c.29-.11,.51-.22,.67-.32l.1,.14Zm.3-.54v.69c0,.08-.04,.15-.11,.19-.07,.03-.2,.03-.38,0v-.19c.15,.03,.24,.04,.28,.02,.01-.02,.02-.04,.02-.06v-.64h.2Zm.02-.48h-.24c-.04,.06-.07,.11-.11,.16h.45c-.03-.05-.06-.1-.1-.16Zm.2,.89c.3,.15,.51,.26,.62,.33l-.11,.15c-.17-.11-.38-.21-.62-.32l.1-.16Z"/>
        <path d="M17.06,25.59v.15h-1.08v-.15h1.08Z"/>
        <path d="M17.25,25.08v-.2h.94v-.24h.21v.24h.93v.2h-.35c-.11,.39-.29,.71-.55,.97,.27,.2,.58,.35,.92,.44l-.13,.17c-.37-.12-.68-.28-.94-.49-.07,.05-.15,.11-.22,.16-.16,.1-.38,.21-.69,.33l-.12-.17c.34-.11,.64-.26,.89-.45-.24-.23-.41-.55-.5-.96h-.38Zm.74,.45c.08,.16,.18,.29,.29,.39,.01-.02,.03-.04,.04-.04,.21-.21,.36-.48,.44-.8h-.93c.04,.18,.09,.33,.15,.45Z"/>
        <path d="M20.01,26.64h-.19v-.88c-.02,.09-.04,.16-.08,.22l-.18-.03c.11-.23,.18-.47,.21-.71h-.18v-.19h.23v-.42h.19v.42h.2v.19h-.19c.08,.11,.16,.23,.21,.36l-.16,.08s-.04-.09-.06-.13v1.08Zm.21-.25v-.17h.65v-.15h-.61v-.17h.21v-.24h-.21v-.17h.21v-.24h-.17v-.17h1.34v.17h-.19v.24h.22v.17h-.22v.24h.21v.17h-.61v.15h.63v.17h-.63v.25h-.19v-.25h-.65Zm.54-1.49v.12h-.2v-.12h-.33v-.18h.33v-.09h.2v.09h.39v-.09h.2v.09h.33v.18h-.33v.12h-.2v-.12h-.39Zm.12,.35h-.21v.24h.21v-.24Zm0,.41h-.21v.24h.21v-.24Zm.19-.17h.21v-.24h-.21v.24Zm0,.41h.21v-.24h-.21v.24Z"/>
        <path d="M22.52,26.12v.25h-.28v-.25h.28Z"/>
        <path d="M23.44,24.64h.18v1.64h.08s.03,0,.03-.03v-1.36h.17v1.47c0,.06-.03,.08-.09,.08h-.55c-.06,0-.09-.03-.09-.08v-1.47h.17v1.36s0,.03,.03,.03h.08v-1.64Zm.62,.48l-.09-.16c.18-.06,.3-.17,.38-.32l.18,.03s-.02,.03-.02,.04h.55l.12,.1c-.11,.19-.25,.33-.39,.42,.13,.06,.29,.1,.46,.12l-.06,.17c-.24-.03-.43-.09-.58-.2-.17,.08-.37,.14-.58,.2l-.06-.17c.19-.03,.36-.08,.51-.13-.07-.07-.14-.14-.2-.23-.06,.05-.13,.1-.22,.14Zm-.09,1.25v-.17h.54v-.14h-.46v-.17h.46v-.13h-.48v-.17h.48v-.17h.19v.17h.47v.17h-.47v.13h.46v.17h-.46v.14h.54v.17h-.54v.27h-.19v-.27h-.54Zm.67-1.23c.15-.1,.25-.18,.29-.24,.01-.02,0-.03,0-.03h-.5c.07,.1,.14,.19,.21,.25,0,0,0,0,0,0Z"/>
        <path d="M26.58,25.64h-.52c-.16,.2-.31,.37-.44,.49l-.17-.13s.06-.05,.08-.07c.29-.26,.5-.54,.64-.85h-.65v-.19h.71c.04-.08,.07-.17,.09-.27l.2,.05c-.03,.08-.05,.15-.07,.22h1.08v.19h-1.15c-.05,.12-.12,.25-.2,.37h1.28v.19h-.68v.76h.79v.19h-1.89v-.19h.89v-.76Z"/>
        <path d="M29.88,25.43h-1.73s-.02,0-.02,.03v.45c0,.28-.05,.53-.13,.73l-.19-.06c.07-.19,.11-.43,.12-.72v-.55s.02-.05,.05-.05h1.9v.18Zm-1.06-.8h.2v.31h.61s.04,0,.04-.03v-.21h.2v.33c0,.06-.04,.08-.1,.08h-1.7c-.06,0-.09-.03-.09-.08v-.33h.2v.21s0,.03,.03,.03h.63v-.31Zm-.59,1.55v-.18h.71v-.25h-.64v-.18h1.53v.18h-.69v.25h.75v.18h-.75v.47h-.2v-.47h-.71Z"/>
        <path d="M31.06,24.58l-.65,2.13h-.16l.65-2.13h.16Z"/>
        <path d="M31.59,25.62h-.21v-.18h.21v-.5h-.21v-.18h.63v.18h-.22v.5h.21v.18h-.21v.59c.08-.03,.16-.06,.21-.09l.09,.17c-.18,.08-.4,.15-.65,.2l-.08-.17c.09-.02,.17-.03,.24-.05v-.65Zm.47,1.04l-.09-.18c.33-.08,.54-.2,.63-.36h-.57v-.17h.62v-.14h-.5v-.17h.5v-.11h-.55v-.17h.28s-.01-.08-.02-.11c-.01-.03-.02-.06-.02-.08h-.29v-.17h.16c-.05-.09-.09-.16-.12-.21l.15-.09c.05,.07,.11,.16,.16,.26l-.08,.04h.17v-.38h.18v.38h.16v-.38h.18v.38h.08c.07-.13,.12-.24,.16-.32l.16,.07c-.02,.08-.06,.17-.12,.25h.19v.17h-.36s-.03,.1-.05,.19h.37v.17h-.59v.11h.54v.17h-.54v.14h.64v.17h-.59c.12,.19,.32,.31,.61,.37l-.09,.17c-.3-.08-.52-.23-.66-.44-.12,.19-.35,.34-.69,.44Zm.8-1.29c.04-.1,.06-.17,.06-.19h-.41s0,.03,0,.05c.01,.05,.02,.1,.03,.14h.31Z"/>
        <path d="M34.52,26.5c-.2,.07-.45,.12-.75,.16l-.06-.18c.32-.03,.57-.08,.73-.15l.08,.17Zm-.51-1.4s.02-.06,.06-.06h.61v-.12h-.91v-.17h.91v-.1h.2v.1h.9v.17h-.9v.12h.62s.07,.02,.07,.06v1.04h.24v.17h-2.07v-.17h.28v-1.04Zm1.36,.24v-.1s0-.03-.03-.03h-1.11s-.03,0-.03,.03v.1h1.16Zm0,.27v-.12h-1.16v.12h1.16Zm-1.16,.15v.12h1.16v-.12h-1.16Zm1.16,.38v-.11h-1.16v.11h1.16Zm-.26,.19c.29,.06,.52,.11,.7,.16l-.06,.18c-.25-.08-.47-.14-.69-.16l.05-.18Z"/>
        <path d="M37.09,25.59v.15h-1.08v-.15h1.08Z"/>
        <path d="M37.38,25.42l-.12-.17c.53-.2,.87-.4,1.02-.61l.19,.03s-.02,.03-.03,.04c.26,.22,.57,.4,.95,.54l-.12,.17c-.35-.16-.66-.35-.93-.58-.19,.19-.51,.38-.96,.58Zm.38,1.21h-.21v-.87s.03-.07,.07-.07h1.44s.07,.02,.07,.07v.87h-.21v-.09h-1.17v.09Zm1.24-1.32v.2h-1.32v-.2h1.32Zm-.07,1.04v-.44s0-.03-.03-.03h-1.12s-.03,0-.03,.03v.44h1.17Z"/>
        <path d="M40.29,26.65h-.2v-.97c-.09,.19-.2,.36-.32,.5l-.18-.08c.2-.21,.35-.45,.46-.71h-.42v-.19h.46v-.31c-.14,.01-.26,.02-.36,.02l-.03-.18c.38-.02,.68-.04,.9-.08l.04,.18c-.08,.02-.2,.03-.36,.05v.32h.39v.19h-.39c.16,.18,.3,.36,.43,.54l-.16,.11c-.08-.12-.17-.26-.27-.4v1Zm.68-.07h-.2v-1.83s0-.03,.03-.03h.79s.04,.01,.04,.03v1.82h-.2v-.1h-.46v.1Zm.46-.29v-1.35s0-.03-.03-.03h-.41s-.03,0-.03,.03v1.35h.46Z"/>
        <path d="M42.55,26.12v.25h-.28v-.25h.28Z"/>
        <path d="M45.03,26.04s.04,.01,.04,.03v.59h-.19v-.09h-1.13v.09h-.19v-.45c-.12,.05-.24,.09-.33,.11l-.08-.18c.26-.06,.49-.14,.67-.25h-.63v-.17h2.05v.17h-1.11c-.07,.06-.14,.1-.21,.14h1.13Zm-1.39-.78h-.37v-.17h.37v-.2h-.38v-.17h.9v.17h-.34v.2h.31v.17h-.31v.18l.33-.03,.02,.17-.9,.08-.03-.17,.4-.03v-.19Zm1.24,1.14v-.17s0-.02-.03-.02h-1.08s-.03,0-.03,.03v.16h1.13Zm.29-.77h-.9s-.03,0-.03-.03v-.8s0-.03,.03-.03h.28c.04-.1,.06-.15,.06-.15l.18,.08s-.02,.03-.04,.07h.42s.03,0,.03,.03v.8s0,.03-.03,.03Zm-.15-.52v-.16h-.6v.16h.6Zm-.6,.17v.17h0s.59,0,.59,0c0,0,0,0,0,0v-.17h-.6Z"/>
        <path d="M45.59,25.21c.11,.05,.22,.13,.35,.23l-.12,.15c-.14-.11-.25-.18-.34-.22l.11-.16Zm.35,.57c-.03,.34-.12,.61-.26,.82l-.19-.07c.16-.24,.24-.5,.27-.77l.18,.02Zm-.29-1.1c.11,.06,.22,.15,.33,.27l-.13,.14c-.12-.12-.23-.21-.32-.26l.12-.14Zm1.24,1.96l-.19-.04s.02-.05,.03-.07h-.18v-.09h-.32v.09h-.19v-1.1s.01-.03,.04-.03h.21v-.31h-.27v-.18h.27v-.26h.19v.26h.27v.18h-.27v.31h.22s.04,.02,.04,.04v1.05c.08-.27,.13-.5,.13-.71v-1.04s.02-.05,.05-.05h.56s.06,.02,.06,.05v1.68c0,.07-.03,.13-.06,.16-.05,.04-.16,.05-.34,.03v-.2c.06,.03,.12,.04,.15,.04,.02,0,.04,0,.04,0,.02-.01,.03-.04,.03-.08v-.44h-.33c-.01,.23-.06,.47-.15,.71Zm-.34-.38v-.65s0-.03-.03-.03h-.27s-.03,0-.03,.03v.65h.32Zm.82-1.04v-.35s0-.02-.03-.02h-.28s-.02,0-.02,.02v.35h.32Zm0,.54v-.37h-.32v.37h.32Z"/>
        <path d="M48.08,26.56h-.18v-1.81s.02-.06,.05-.06h.69s.06,.03,.06,.06v1.63s-.03,.06-.06,.06h-.56v.12Zm.03-1.69s-.03,0-.03,.03v.6h.13v-.63h-.11Zm.11,1.39v-.59h-.13v.59h.13Zm.17-1.39v.63h.14v-.6s-.01-.03-.04-.03h-.11Zm.14,.81h-.14v.59h.11s.04-.01,.04-.03v-.55Zm.21,.42v-.19h.51v-.32h-.46v-.19h.46v-.76h.2v.76h.49v.19h-.49v.32h.52v.19h-.52v.56h-.2v-.56h-.51Zm.18-1.36c.09,.14,.16,.32,.22,.53l-.18,.06c-.07-.22-.14-.39-.21-.51l.17-.08Zm1.01,.1c-.05,.14-.13,.31-.23,.49l-.17-.08c.11-.2,.19-.36,.22-.48l.18,.07Z"/>
      </g>
    </g>
  </g>
</svg>