<?xml version="1.0" encoding="UTF-8"?>
<svg id="_圖層_2" data-name="圖層 2" xmlns="http://www.w3.org/2000/svg" viewBox="0 0 61.01 27.12">
  <defs>
    <style>
      .cls-1 {
        fill: #7a6a56;
      }

      .cls-2 {
        fill: #231815;
      }
    </style>
  </defs>
  <g id="_圖層_1-2" data-name="圖層 1">
    <g>
      <g>
        <path class="cls-1" d="M21.28,15.7c-.09,.02-.16,.03-.2,.04-.06,0-.1,.01-.12,.01-.06,0-.1-.04-.1-.11,0-.04,.02-.08,.05-.09,.02,0,.08-.01,.19-.01,.04-.04,.07-.08,.11-.13,.03-.03,.05-.07,.07-.1-.03,0-.05-.03-.08-.07-.04-.07-.08-.13-.13-.2-.04-.05-.08-.1-.14-.16l-.02-.02s0-.02,0-.03c0-.04,.02-.06,.06-.06,0,0,.02,0,.03,.01,.01,0,.03,.02,.05,.03l.09,.07,.03-.04s.03-.04,.04-.07c.04-.06,.07-.13,.1-.21,.04-.1,.09-.14,.14-.14,.04,0,.07,.01,.1,.03,.03,.02,.05,.05,.05,.09,0,.01,0,.02,0,.03,0,0,0,.02-.01,.03-.01,.02-.04,.06-.09,.11-.04,.05-.09,.11-.14,.16l-.09,.1,.09,.08s.03,.03,.04,.04c.01,.01,.02,.02,.02,.03,.03-.05,.06-.08,.07-.11l.09-.16s.03-.05,.04-.06c.02-.02,.05-.03,.08-.03,.1,0,.14,.04,.14,.13,0,.03-.05,.11-.16,.24-.13,.15-.26,.29-.38,.41,.18,0,.31-.02,.37-.03l-.05-.14s0-.02,0-.03c0-.04,.02-.05,.05-.05,.01,0,.03,.01,.06,.04,.03,.03,.06,.06,.1,.1,.08,.1,.13,.18,.13,.23,0,.08-.04,.13-.12,.13-.05,0-.08-.02-.09-.06l-.03-.11-.18,.04v.96s0,.02,0,.02c0,.02,0,.04-.01,.05-.02,.04-.05,.06-.11,.06s-.09-.02-.11-.06c0-.02-.01-.03-.01-.05,0,0,0-.01,0-.02v-.91Zm-.09,.16s.04,.05,.04,.08c0,.06-.03,.16-.08,.31-.05,.15-.1,.26-.14,.33-.02,.03-.04,.05-.06,.05-.04,0-.06-.02-.06-.06,0,0,0-.01,0-.03l.03-.13c.02-.1,.04-.26,.06-.47,0-.07,.04-.11,.11-.11,.03,0,.06,0,.08,.03Zm.54,.01c.05,.07,.1,.15,.14,.25,.05,.1,.07,.16,.07,.19,0,.08-.04,.12-.13,.12-.08,0-.12-.04-.12-.13-.01-.14-.03-.27-.07-.38,0-.02,0-.03,0-.04,0-.04,.02-.06,.06-.06,.02,0,.04,.02,.07,.05Zm.93,.03v.66h.53s.01,0,.02,0c0,0,.02,0,.02,0,.02,0,.03,.02,.03,.05s0,.04-.03,.05c0,0-.01,0-.02,0,0,0-.01,0-.02,0h-1.35s-.01,0-.02,0c0,0-.02,0-.02,0-.02,0-.03-.02-.03-.05s0-.04,.03-.05c0,0,.01,0,.02,0,0,0,.01,0,.02,0h.56v-.66h-.39s-.01,0-.02,0c0,0-.02,0-.02,0-.02,0-.03-.03-.03-.05,0-.02,0-.04,.03-.05,0,0,.01,0,.02,0,0,0,.01,0,.02,0h1.09s.01,0,.02,0c0,0,.02,0,.02,0,.02,.01,.03,.03,.03,.05,0,.02,0,.04-.03,.05,0,0-.01,0-.02,0,0,0-.01,0-.02,0h-.42Zm.46-1.39s.02,0,.02,0c0,0,.02,0,.02,0,.02,.01,.03,.03,.03,.05s0,.04-.03,.05c0,0-.01,0-.02,0,0,0-.01,0-.02,0h-1.2s-.02,0-.02,0c0,0-.02,0-.02,0-.02,0-.03-.02-.03-.05s0-.04,.03-.05c0,0,.01,0,.02,0,0,0,.01,0,.02,0h1.2Zm-.83,.3s-.02,.08-.07,.15c-.02,.03-.04,.06-.07,.09,0,.02-.02,.03-.04,.05l-.03,.04s0,0,0,0,0,0,0,0l-.02,.03s-.02,.03-.02,.04c0,.01,.01,.03,.03,.05l.08,.08s.06,.06,.09,.09c.03,.04,.05,.07,.07,.09,.02,.03,.03,.05,.03,.07,0,.09-.05,.13-.14,.13-.04,0-.06-.01-.08-.03,0,0-.01-.02-.02-.03v-.03c-.06-.11-.12-.24-.19-.36v-.02s-.02-.02-.02-.03c0-.02,0-.04,.02-.07,.03-.06,.06-.12,.08-.18,0-.03,.02-.06,.03-.09l.04-.11c.02-.05,.05-.08,.11-.08,.09,0,.14,.04,.14,.11Zm.4,0s-.02,.07-.05,.12c-.01,.02-.03,.04-.05,.07l-.08,.11s-.02,.02-.02,.03l-.04,.05s-.02,.02-.02,.03c0,0,0,.02,0,.03l.06,.06s.05,.05,.07,.07c.03,.03,.06,.06,.08,.09,.03,.04,.05,.07,.06,.09,.02,.03,.03,.05,.03,.07,0,.08-.04,.12-.13,.12-.03,0-.06-.01-.08-.03,0-.01-.02-.03-.03-.06-.04-.1-.07-.17-.1-.22-.02-.03-.05-.08-.1-.16-.01-.02-.02-.04-.02-.06,0-.02,0-.04,.03-.08,.02-.05,.05-.11,.08-.2,.01-.03,.02-.06,.03-.09l.02-.05c.02-.06,.06-.09,.12-.09,.09,0,.14,.04,.14,.11Zm.38-.09s.05,.05,.05,.09c0,.04-.08,.16-.24,.36v.02s-.02,.01-.02,.02c0,0,.01,.03,.03,.04,.03,.03,.05,.05,.08,.08,.03,.03,.06,.07,.09,.1,.06,.08,.1,.13,.1,.16,0,.08-.04,.13-.13,.13-.03,0-.06-.01-.08-.04-.02-.02-.06-.1-.12-.22,0,0,0-.02-.01-.03,0,0,0,0,0-.02,0,0,0,0,0,0l-.03-.06s-.04-.08-.06-.1c0-.01-.01-.03-.01-.05,0,0,0-.03,.02-.06l.15-.38s.06-.06,.11-.06c.03,0,.06,0,.09,.03Z"/>
        <path class="cls-1" d="M26.75,15.97v-1.03c0-.15,.08-.22,.25-.22h.29v-.16s0-.02,0-.02c0-.02,0-.04,.02-.06,.02-.04,.06-.07,.11-.07s.09,.02,.12,.07c0,.02,.01,.03,.01,.06,0,0,0,.01,0,.02v.16h.28v-.16s0-.02,0-.03c0-.02,0-.04,.02-.05,.02-.04,.06-.07,.12-.07s.09,.02,.11,.07c0,.02,.01,.03,.01,.06,0,0,0,.01,0,.02v.16h.29c.17,0,.25,.07,.25,.22v1.03h.16s.01,0,.02,0c0,0,.02,0,.02,0,.02,0,.03,.02,.03,.05,0,.02,0,.04-.03,.05-.01,0-.03,0-.05,0h-2.2s-.01,0-.02,0c0,0-.02,0-.02,0-.02,0-.03-.03-.03-.05,0-.02,.01-.04,.03-.05,0,0,.01,0,.02,0,0,0,.01,0,.02,0h.15Zm.66,.45s-.14,.09-.27,.15c-.06,.03-.13,.06-.2,.08-.06,.02-.11,.04-.17,.06-.05,.01-.09,.02-.12,.03-.03,0-.05,0-.06,0-.04,0-.06-.02-.06-.06,0-.02,0-.03,.02-.04,0,0,.01,0,.02-.01h.02c.1-.05,.2-.1,.3-.16,.11-.07,.21-.15,.29-.24,.05-.05,.1-.08,.13-.08,.04,0,.07,.01,.1,.04,.04,.03,.06,.07,.06,.13,0,.04-.02,.07-.06,.1Zm-.12-1.09v-.49h-.16c-.07,0-.11,.04-.11,.11v.38h.27Zm0,.64v-.53h-.27v.53h.27Zm.54-.64v-.49h-.28v.49h.28Zm0,.64v-.53h-.28v.53h.28Zm.16,.22s.07-.04,.1-.04c.03,0,.05,0,.07,.02,.02,.01,.06,.05,.13,.12,.14,.14,.31,.25,.51,.34,.03,.01,.04,.03,.04,.06,0,.04-.02,.06-.06,.06-.05,0-.13-.02-.26-.07-.11-.04-.21-.08-.29-.12-.13-.06-.22-.11-.26-.15-.03-.03-.05-.06-.05-.09,0-.05,.02-.09,.06-.13Zm.38-.86v-.38c0-.07-.04-.11-.11-.11h-.17v.49h.27Zm-.27,.12v.53h.27v-.53h-.27Z"/>
        <path class="cls-1" d="M32.75,16.61s0,.02,0,.03c0,.02,0,.04-.02,.06-.02,.04-.06,.06-.12,.06s-.1-.02-.12-.06c0-.01-.01-.03-.02-.06,0,0,0-.02,0-.03v-1.25l-.07,.07s-.06,.06-.09,.08c-.03,.03-.06,.05-.09,.07-.03,.02-.05,.03-.06,.03-.04,0-.06-.02-.06-.06,0-.02,.01-.04,.05-.07,.22-.25,.4-.55,.52-.91l.02-.04s.02-.03,.03-.04c.03-.03,.06-.04,.11-.04,.11,0,.17,.04,.17,.14,0,.04-.03,.12-.09,.21-.02,.04-.05,.08-.08,.13l-.08,.12v1.58Zm.73-1.64h-.09c-.07,.09-.15,.2-.24,.3-.05,.06-.09,.1-.12,.13-.04,.04-.07,.05-.08,.05-.04,0-.06-.02-.06-.06,0-.02,.01-.04,.04-.07l.05-.07s.06-.09,.09-.15c.04-.07,.08-.15,.11-.22,.04-.09,.07-.19,.1-.29l.02-.06s.02-.04,.03-.05c.03-.04,.06-.05,.11-.05,.04,0,.08,.01,.11,.04,.04,.03,.06,.06,.06,.11,0,.03-.02,.08-.05,.14-.02,.04-.05,.09-.09,.14h.95s.01,0,.02,0c0,0,.02,0,.02,0,.02,0,.03,.02,.03,.05,0,.02,0,.04-.03,.05,0,0-.01,0-.02,0,0,0-.01,0-.02,0h-.66v.49h.6s.01,0,.02,0c0,0,.02,0,.02,0,.02,0,.03,.02,.03,.05s0,.04-.03,.05c0,0-.01,0-.02,0,0,0-.01,0-.02,0h-.6v.49h.6s.01,0,.02,0c0,0,.02,0,.02,0,.02,0,.03,.02,.03,.05,0,.02,0,.04-.03,.05,0,0-.01,0-.02,0,0,0-.01,0-.02,0h-.6v.42s0,.02,0,.03c0,.02,0,.04-.02,.06-.02,.04-.06,.06-.12,.06s-.1-.02-.12-.06c0-.02-.01-.03-.02-.06,0,0,0-.02,0-.03v-1.63Z"/>
        <path class="cls-1" d="M38.83,16.48c0,.14-.08,.21-.25,.21h-.5c-.17,0-.25-.07-.25-.21v-.61c0-.14,.08-.21,.25-.21h.5c.17,0,.25,.07,.25,.21v.61Zm-.26-.6c0-.08-.04-.11-.11-.11h-.25c-.08,0-.11,.04-.11,.11v.58c0,.08,.04,.11,.11,.11h.25c.08,0,.11-.04,.11-.11v-.58Zm1.11-.74c0,.09-.02,.16-.07,.19-.04,.03-.11,.05-.2,.05h-.96c-.18,0-.27-.08-.27-.24v-.41c0-.09,.02-.16,.07-.19,.04-.03,.11-.05,.2-.05h.96c.18,0,.27,.08,.27,.24v.41Zm-.28-.42c0-.08-.04-.12-.12-.12h-.71c-.08,0-.12,.04-.12,.12v.42c0,.08,.04,.12,.12,.12h.71c.08,0,.12-.04,.12-.12v-.42Zm.63,1.75c0,.14-.08,.21-.25,.21h-.51c-.17,0-.25-.07-.25-.21v-.61c0-.14,.08-.21,.25-.21h.51c.17,0,.25,.07,.25,.21v.61Zm-.27-.6c0-.08-.04-.11-.12-.11h-.25c-.08,0-.12,.04-.12,.11v.58c0,.08,.04,.11,.12,.11h.25c.08,0,.12-.04,.12-.11v-.58Z"/>
      </g>
      <rect class="cls-1" x="25.04" y="14.33" width=".1" height="2.21"/>
      <rect class="cls-1" x="30.49" y="14.33" width=".1" height="2.21"/>
      <rect class="cls-1" x="35.94" y="14.33" width=".1" height="2.21"/>
      <rect class="cls-1" x="41.65" y="14.33" width=".1" height="2.21"/>
      <g>
        <path class="cls-2" d="M33.89,10.4c.08,0,.15-.01,.23-.03,.08-.01,.16-.02,.24-.02,0,0,0,0,.02,.01s.02,0,.03,0h.02s.05-.02,.1-.03c.06,0,.1,0,.11,0,.02-.04,.05-.06,.11-.07,.07,0,.13-.02,.19-.04,.06-.01,.11-.03,.16-.05,.06-.03,.09-.07,.09-.12v-.02s0-.01-.02-.03v-.02s0-.28,0-.28c-.03,0-.04,0-.04-.03s0-.03,.02-.03,.02-.01,.02-.04-.02-.04-.05-.05l.05-.06v-.21s0-.05-.01-.07c0-.02-.02-.03-.03-.03-.08,0-.14,.01-.18,.04-.04,.03-.09,.06-.15,.08-.03,0-.07,0-.11,0h-.24s-.03,0-.06,0-.04,0-.05,0c-.02,0-.04,0-.07,0s-.04-.02-.05-.05c0-.01,.03-.01,.07,0,.03,.02,.04,.02,.05,0,.02-.01,.05-.03,.1-.05,.06-.01,.09-.02,.12-.02,.1-.03,.19-.07,.28-.12,.1-.04,.2-.08,.29-.11v-.05s0-.08,0-.12c0-.04-.01-.08-.03-.13,0,0,0-.02-.02-.03l-.02-.02h-.02c-.07,0-.14,0-.21,.02-.06,.01-.13,.02-.19,.03-.05,.03-.1,.07-.14,.12-.04,.05-.08,.09-.13,.12,0,0-.02,.01-.06,.04-.03,.03-.07,.05-.11,.08-.04,.03-.08,.06-.11,.08-.03,.03-.04,.05-.04,.06l-.19,.12s-.02,.02-.05,.02c-.02,0-.04,0-.06,0h-.05s-.02,.02-.03,.03-.01,.02-.01,.03c-.01,.03-.06,.04-.14,.05-.07,.02-.12,.03-.14,.03-.06,0-.1,0-.12-.03-.03,0-.06-.02-.09-.03-.02-.02-.05-.03-.08-.05-.03-.01-.07-.02-.11-.03-.02-.02-.03-.03-.04-.05,0-.01-.02-.03-.03-.04,.01-.01,.02-.02,.04-.02h.04c.06,.01,.11,.02,.16,.04s.1,.03,.17,.03c0,0,.04,0,.1-.02,.06-.01,.09-.02,.1-.03,0-.02,0-.03,0-.04,0,0,0-.01,0-.01h.05s.04-.02,.05-.02l.03-.04s0-.02,.02-.02v.03h.02s.02,0,.02-.03c0,0,0,0,0,0s0-.01,0-.03c0,0,0,0,.02,0h.03l.03-.08s.05-.04,.08-.03c.04-.03,.06-.06,.08-.08l.07-.07s.01-.02,.03-.04c.02-.01,.04-.02,.05-.03v-.02s.01-.02,.02-.02c0-.02,.02-.03,.05-.04,.03-.01,.05-.02,.06-.04s.03-.03,.04-.05l.02-.07s.02-.03,.02-.03h.03l.02-.02s.02,0,.02-.01c0,0,0-.01,0-.01,0-.01,0-.02,.02-.04l.04-.07s.04-.04,.05-.07l.02-.02s.02-.06,.03-.08c.02-.03,.04-.09,.07-.16,.04-.06,.05-.09,.05-.1l.03-.03,.11-.24v-.12h.03s0-.02,.02-.02c0-.01,.02-.02,.03-.04,.02-.01,.03-.02,.03-.02v.02s.22,.08,.22,.08h.02s.05-.01,.05-.04,0-.05-.03-.06c0,0,.02,0,.04,0s.03-.01,.03-.04h0s-.02,0-.04,0h0l-.02-.06s.06-.05,.06-.1,0-.08,.01-.1,.02-.03,.04-.03l.02-.04v-.05s0-.04,.02-.05l.02-.02s0-.02,.02-.02c.02-.02,.03-.06,.04-.12,.01-.08,.03-.16,.04-.23,.01-.08,.02-.16,.03-.23,.02-.07,.02-.11,.02-.12,.02,.01,.03,.02,.05,.02,0,.01,.02,.02,.05,.02v-.04s.04,.01,.08,.03c.05,.03,.07,.06,.07,.07v.28c-.02,.06-.03,.13-.03,.22l-.02,.02s-.02,0-.04,0c0,0,0,.02,0,.04,0,.02-.01,.04-.03,.06l-.03,.07v.12s-.08,.07-.1,.12c-.03,.05-.05,.1-.09,.15v.02s-.02,0-.02,0c0,0-.01,0-.02,.01-.01,0-.02,0-.04,0v.07s0,0-.02,0c-.01,0-.02,0-.02,.02,0,0-.02,0-.04,.02-.01,.02-.02,.03-.02,.03,.02,.01,.04,.03,.05,.07,0,.04,.02,.07,.02,.09h0s0,.01,0,.02c0,.02,0,.03-.01,.05s-.01,.02-.01,.03c.08-.02,.16-.02,.23,0,.09,.02,.17,.03,.25,.04l.13,.05c.07,.03,.12,.04,.15,.03l.33,.08s.02,.02,.04,.02c.03,0,.04,0,.05,.02l.06,.07,.05,.02s.05,.03,.05,.03c.03,0,.04,.03,.04,.06s.02,.06,.05,.08h-.16s0,.03,0,.03l.02,.03h0s-.06-.01-.09-.03c-.02-.02-.05-.02-.08,0-.01,0-.03,0-.07-.02-.03,0-.06-.01-.09-.02l-.09-.04s-.05,0-.06,0l-.08-.04-.08-.03s-.03,0-.05-.02c-.03,0-.05,0-.05,0-.09-.05-.18-.1-.27-.15-.1-.06-.2-.11-.29-.13h-.02s0,.08-.02,.08c-.01,0-.03,.03-.05,.08-.04,.06-.07,.11-.11,.17-.03,.07-.07,.13-.12,.2-.01,.01-.03,.03-.07,.07-.03,.02-.05,.05-.06,.08-.02,.02-.03,.04-.04,.05-.01,.02-.02,.04-.03,.06h0s.03,0,.04,0c.02-.01,.03-.01,.05,0l.19-.08s.05-.05,.09-.07c.04,0,.07-.01,.09-.03l.19-.11,.03,.02s.05-.03,.08-.03c.03,0,.06,0,.08,0h.04s.02,.02,.03,.06l.19,.02h0s0,.04-.02,.04-.03,0-.05,0l-.04,.02s-.02,.01-.02,.04h-.09s-.08,.03-.09,.03c-.01,0-.03,0-.04,.01s-.02,.01-.02,.02h-.11s-.06,.02-.08,.05c.02,.03,.04,.04,.07,.05,.02,0,.04,.02,.05,.06,0,0,.01,.02,.02,.04,.02,.03,.03,.06,.04,.08h.02s.02,.02,.02,.02,.02,0,.04,0c0,0,.02,0,.03,0,.01,0,.03,0,.05,0h.03s.02,.07,.05,.07h.04s.03,0,.04,0c.04,0,.08,0,.11,.03,0,0,0,.02,0,.03v.03s.02,.01,.02,.02l.02,.02s-.04,0-.08,.03l-.08,.03s-.08,.02-.14,.02c-.05,0-.09,.02-.12,.06-.02,.05-.03,.09-.04,.12,0,.03,0,.07,0,.12v.05s0,.03,.01,.05,.02,.02,.05,.02,.07-.02,.1-.06c0-.01,0-.02-.02-.02h-.03s0-.02,.02-.03c.02,0,.03-.01,.04-.01,0,.02,0,.03,.01,.05,.02-.03,.04-.05,.06-.05s.04,0,.04,0c.02,.01,.04,.02,.05,.02s.02,0,.03-.01c0,0,.02-.01,.04-.01l.11,.03c.05,0,.08,.01,.08,.02,.02,0,.04,.03,.09,.06s.07,.06,.07,.09c0,.04-.02,.07-.07,.07-.04,0-.05,.01-.05,.03h-.16s-.03-.03-.07-.05c-.04-.01-.08-.02-.12-.03l-.14-.03s-.07,0-.08,0h-.04s-.03,0-.03,0l-.03,.33s0,.03,0,.05c0,.02,0,.04,0,.06v.02s0,.02,0,.02c.03,0,.05,0,.06,0,.03,.01,.05,.02,.08,.02s.06,0,.09,0c.03,0,.06-.01,.09-.02,.02,0,.04,0,.05,0h.06s.08-.02,.08-.02l.02-.04s.07,0,.09,0c.04,0,.07,0,.11,0h.06s.08,.02,.12,.03c.05,.02,.08,.04,.11,.05,.04,.02,.05,.04,.05,.07,0,0,0,0,0,0v.02s0,0,0,.02l-.12,.03s-.03,.02-.09,.04c-.06,.02-.13,.05-.2,.07-.08,.03-.14,.05-.21,.06-.06,.02-.11,.03-.13,.03-.01,0-.02,.02-.02,.04s-.02,.03-.05,.03c0,0-.01,0-.02,0s-.02,0-.03,0c-.01,0-.02,0-.03,0,0,.02-.02,.02-.04,.02,0,0-.02,0-.03,0-.01,0-.03,0-.04,0,0,0-.02,0-.05,.03-.04,.03-.07,.04-.08,.04v.04s-.01,.03-.04,.03v-.04s-.01-.03-.04-.03c-.02,0-.02,.01-.02,.03,0,.03-.01,.05-.03,.05s-.03,0-.03,0c-.02,0-.03,0-.03,0-.02,0-.03,0-.05,0-.01,0-.02,.02-.02,.03h.05s-.02,.03-.06,.05c-.03,.02-.07,.03-.12,.03-.05,.02-.09,.03-.14,.03s-.07,0-.08,.02h0s-.02,.01-.03,.02c-.02,.02-.03,.03-.03,.04-.02-.02-.04-.03-.08-.03-.03-.01-.05-.02-.07-.02h-.16l-.05-.02s-.05-.02-.07-.03c0,0-.03-.02-.07-.05-.04-.03-.06-.05-.06-.06-.02,0-.04-.01-.07-.03-.03-.01-.05-.02-.06-.04-.04-.01-.06-.03-.08-.05-.02-.02-.03-.04-.03-.05Zm-.46-1.02s0,0,0,0h0s0,0,0,0Zm.32-1.59s0-.03,.02-.05c.02-.01,.03-.02,.03-.03v-.22s-.02-.08-.05-.11c-.02-.04-.02-.08-.02-.11s0-.05,0-.05v-.03s0-.04,0-.07,0-.07-.02-.1c-.03-.03-.04-.07-.05-.12,0,0,0-.02,0-.03v-.03s-.03-.07-.05-.1c-.01-.03-.02-.06-.02-.09s0-.04,.02-.04c.03,0,.05,0,.06,0,.01,0,.04,0,.09,0h.1c.08,0,.14,.02,.19,.06,.04,.05,.09,.1,.16,.16v.1c0,.06,0,.09,0,.1v.07l.02,.08s0,.05,0,.07c0,.03,0,.04,.03,.04,.02,0,.04-.02,.05-.05,0-.02,.02-.03,.05-.04,0-.01,.01-.02,.03-.02h.02v-.02s0-.02,0-.02c0-.01,0-.02,0-.03,0,0,.01-.02,.03-.03,.02,0,.04-.02,.04-.03,0-.05,.02-.1,.05-.15,.03-.05,.06-.1,.08-.15,0-.01-.02-.04-.03-.08s-.03-.06-.03-.07c0-.03-.03-.06-.05-.08-.02-.02-.02-.04-.02-.07,.07,0,.15,0,.22,.03s.14,.04,.21,.07c.07,.03,.13,.08,.17,.14,.05,.07,.07,.15,.07,.24v.02s0,.01,0,.03v.03s0,.07,0,.07c0,.01,0,.02-.02,.02s-.02,.01-.02,.03c0,0,.01,.02,.03,.03s.03,.03,.03,.05h0s-.03,.01-.05,.02c-.01,.02-.03,.03-.05,.03-.02,0-.04,0-.04-.04,0-.02,.01-.03,0-.04s-.02-.01-.04-.01h-.02s-.05-.01-.07-.04c-.01-.02-.03-.03-.07-.03,0,0-.03,0-.07,.02-.03,.02-.05,.03-.05,.04,0,.02,0,.04,0,.05,0,0,0,.02-.03,.03,0,.02,0,.04,0,.04l-.02,.02s-.02,0-.02,0c0,0-.01,0-.03,0-.01,0-.02,0-.04,0h0s0,.02,0,.04,0,.03,0,.04c0,.03-.03,.07-.09,.13-.06,.06-.1,.11-.11,.15-.04,.07-.07,.13-.1,.2-.03,.07-.07,.13-.1,.2-.02,.01-.02,.02-.02,.03,0,0,0,0-.02,0s-.04-.02-.09-.05c-.05-.01-.09-.03-.14-.07-.05-.04-.09-.07-.14-.1-.04-.03-.05-.06-.05-.08Zm.03,1.26s0,0,0,0,0,0,.01,0c0,0,.01,0,.01,0s0,0-.02,0Zm.02-1.71v.02s0,.01,.02,.03v-.08s0-.02-.02-.02h-.02v.04h.02Zm0-.17s0,0,0,0h0s0,0,0,0h0Zm.02,.42s-.02,0-.02,.01c0,0,0,.01,.01,.01s.01,0,.01-.01c0,0,0-.01,0-.01Zm.02,.06s0,0,0,0c0,0,0,0,0,0s0,0,0,0c0,0,0,0,0,0Zm0-.09h.02v-.03h-.02v.03Zm.02,.15s-.02,0-.02,0,0,0,0,0c.02,0,.02,0,.02,0s0,0-.02,0Zm1.91-.24s.04,0,.05,.03h0s-.02-.06-.04-.07l-.11-.23h0s.07-.06,.07-.06c0,0,.03,0,.05,.02,.02,.02,.03,.03,.05,.03h.02s0-.04,0-.06c0-.03,.01-.05,.02-.05,0-.03,.02-.05,.05-.06s.05-.04,.05-.07c0-.02,0-.03-.02-.03-.01,0-.02-.01-.02-.04,.02,0,.03,0,.04,.02,.02-.04,.03-.09,.03-.14s.01-.09,.04-.12c0-.03,0-.07,0-.12s.01-.08,.04-.11c-.02,0-.02-.02-.02-.03,0-.06,0-.12,.02-.17,0-.05,.01-.11,.01-.17,0-.05-.02-.08-.07-.08-.04,0-.07,.01-.11,.03-.03,0-.06,.02-.1,.04-.03,0-.08-.01-.15-.03l-.15-.03s-.04-.02-.07-.03-.05-.02-.05-.02-.02,0-.04-.03-.03-.02-.03-.02c-.01,0-.03,0-.03,0-.02,0-.03,0-.04,0s-.02,0-.04,0c-.02,0-.03,0-.03,0-.05,0-.11,0-.2,.03-.08,.02-.15,.04-.19,.05-.02,0-.04,.02-.05,.04,0,0-.01,.02-.02,.04,0,.02-.02,.03-.03,.03-.02,.02-.04,.04-.07,.04-.01,0-.02,0-.02,0-.01,0-.02,0-.02-.02h0s-.03,0-.05,.03c-.01,.02-.04,.03-.07,.03h-.08s-.02,0-.04,0h-.03s-.03,0-.04,0v-.13h0s0-.01,0-.03h-.02s-.02,0-.02,.03h0s0-.05,0-.08l.03-.06s.02-.01,.06-.04c.03-.03,.06-.04,.07-.05v-.06s0-.04,.02-.07c.01-.03,.03-.07,.04-.11,.02-.04,.03-.08,.03-.1l.02-.03h.19s.08,0,.12,.02c.06,.01,.12,.02,.19,.02,.07,0,.14,.02,.19,.03,.07,.03,.12,.07,.15,.12,.04,.05,.06,.12,.06,.21,0,.02-.01,.03-.04,.03s-.04,0-.04,.02h.07s.05,0,.07,.02h.03c.09-.04,.2-.08,.31-.12s.23-.05,.34-.05h.08l.08,.02s.02,0,.04,.02h.02s0,0,0,0c0,0,0,0,0,0h0s0,0,0,0h.02s.05,.05,.09,.08c.04,.03,.07,.06,.11,.09,.03,.03,.06,.07,.09,.1,.03,.05,.05,.09,.05,.12,0,.06-.01,.1-.04,.14s-.04,.08-.05,.13c0,.03-.02,.07-.02,.11s0,.08-.03,.1c-.01,.04-.03,.08-.06,.13-.03,.05-.05,.09-.05,.12,0,.01,0,.03,0,.06,0,.03,0,.05,0,.05-.01,.04-.03,.07-.05,.07,0,.02-.02,.04-.02,.08,0,.01-.03,.04-.05,.08-.01,.05-.02,.09-.03,.12,0,0-.02,0-.04,0,0,.02-.02,.04-.02,.05-.06,.04-.12,.09-.17,.15h0s-.04,0-.06-.02c-.01-.01-.03-.02-.05-.02h0l-.06,.12h-.02s-.06-.02-.06-.06c0-.03-.02-.05-.05-.08-.03-.01-.05-.02-.05-.02v-.03Zm-1.43-1.57s-.04,.01-.04,.03v.03s.06-.01,.06-.04c0,0-.02,0-.02,0v-.02Zm.03,3.76v-.06s.02-.02,.03-.02l.12,.1h.21s0,.02,0,.02c.02,0,.04,0,.05-.02l.04-.03s.02,0,.04,0c.02,0,.03,0,.05,0,0-.03,.01-.05,.04-.05,.02,0,.03,0,.04,0,.02,.01,.03,.03,.04,.06s0,.06-.02,.09c-.02,.04-.04,.06-.08,.06,0-.02,.01-.04,.04-.06h-.02s-.04,0-.05,.03l-.02,.06s-.02,.06-.03,.07c0,.03-.01,.04-.02,.04h-.02s-.02,0-.02-.02c0,0,0,0,0,0-.02,.02-.03,.03-.03,.04l-.02,.05s0,.03,0,.03c0,.02-.02,.03-.04,.03-.03,0-.07-.02-.1-.05-.04-.03-.08-.07-.11-.12-.03-.05-.06-.09-.08-.14-.02-.04-.04-.09-.04-.12Zm.2-1.05s0,0,0,0h0s.02,0,.02,0,0,0,0,0Zm.02-.03s0,0,0,0c0,0,0,0,0,0s0,0,0,0c0,0,0,0,0,0Zm.12,2.13s0,0,0,0h0s0,0,0,0h0Zm.06-.96s-.02,0-.02,0c0,0,0,0,.01,0,0,0,.01,0,.01,0,0,0,0,0,0,0Zm.15,.78s0,0,0,.01c0,0,0,.01,0,.01s0,0,0-.01c0,0,0-.01,0-.01Zm0-.22h0v0Zm.05-.08s0,0,0,0h0s0,0,0,0h0Zm.12,0s-.01,0-.01,0,0,0,.01,0c0,0,.01,0,.01,0s0,0,0,0Zm.02,.17h.02v-.02h-.02v.02Zm.19-3.21s0,0,0,0,0,0,0,0h.01s0,0-.01,0Zm.08-.34s.02,.02,.03,.02v-.03l-.03,.02Zm.24-.69s0,0,0,.01c0,0,0,.01,0,.01,0,0,0,0,0-.01,0,0,0-.01,0-.01Zm.25,.99s0,0,0,0c0,0,0,0,0,0s0,0,0,0c0,0,0,0,0,0Zm.09-.08s-.04,.03-.04,.06h.04v-.06Zm-.03,.1s0,0,0,0,0,0,0,0c0,0,0,0,0,0s0,0,0,0Zm.06-.17h0s0-.04,0-.04v.04Zm1.19,1.45s-.03,0-.03,.02c0,.01-.02,.02-.04,.02-.03-.05-.05-.09-.07-.12,0-.05-.03-.09-.07-.12l-.02,.04s-.02-.03-.03-.03c-.01,0-.02,0-.02-.02-.02-.01-.04-.04-.06-.08,0-.05-.01-.08-.01-.1s0-.05,0-.1c0-.05,0-.08,.02-.08l.02,.02v-.03c0-.11-.02-.21-.05-.3-.03-.1-.06-.19-.09-.29,0-.04,0-.06-.02-.06,0,0,.02,0,.03,0h0s.09,.02,.14,.05,.09,.07,.11,.1c.05,.04,.08,.06,.1,.08,.02,.01,.05,.04,.1,.1,0,.02,0,.03,0,.03s.02,.01,.04,.03c0,0,.03,.02,.06,.05l.05,.07s0,.06,0,.12c.02,.07,.03,.11,.03,.14v.11l-.02,.02s0,.04,.02,.04c.01,0,.02,0,.02,.02s0,.03-.02,.05c.02,0,.03,.03,.04,.08s0,.09,0,.12c-.03,0-.04,0-.05,0l-.04,.05s0,.04-.02,.06c-.01,.01-.02,.02-.04,.03-.01-.07-.05-.1-.1-.1Zm.61,2.2s-.03-.02-.08-.05c-.05-.03-.07-.05-.08-.06l-.04-.04s-.02-.03-.02-.05c0-.01,0-.02,.02-.02,0,0,0,0,.03,0,0,0,.02,0,.03,0h0s.03,0,.03-.02c0,0,.02,0,.05,0h.03s.02,.02,.02,.02c0,0,.02,0,.03-.03l.02-.02h.16s0-.05-.03-.05c-.02,0-.03-.01-.03-.04,.01,0,.02,0,.02,.01,0,0,.01,.01,.04,.01v-.06s0-.03,0-.04h0s-.02-.01-.02-.02c-.02,0-.02,0-.02,.02v-.1s.02-.02,.05,0v-.12s-.02,0-.03,0c0-.02,0-.03,0-.03,0-.03,0-.05,.02-.05-.03-.01-.04-.04-.04-.08,.01-.04,.02-.08,.02-.09v-.06l.05-.03c0-.07,0-.12,0-.15,0-.04,0-.09,0-.16,0-.06,0-.1,0-.12,0-.02,0-.06,0-.12-.03-.03-.04-.04-.04-.05,0,0,.01-.02,.04-.03l-.08-.05v-.13s0-.06,.03-.07v.04s0,.05,0,.06c0-.01,0-.02,0-.02s0,0,0,0v-.02s-.02-.09-.02-.17c0-.08,0-.13-.02-.16,0-.03,0-.04-.02-.04-.02,0-.02-.01-.02-.03,.02,0,.03-.01,.03-.03,0-.01,0-.03,0-.05,0-.01,0-.03,0-.05,0-.02,0-.04,0-.07,0-.02,0-.03,0-.03,0,0,0,0,0-.02h0c-.03-.09-.04-.17-.03-.26,0-.09,0-.17,0-.24,0-.02,0-.03,0-.04,0-.01-.02,0-.03,.02,.01-.02,.02-.04,.02-.05,0,0,0-.02,0-.04v-.02s-.04,.05-.04,.08h0s0-.03-.01-.04c0-.01,0-.02,0-.04v-.03c0-.06,.02-.08,.05-.08v-.06s0-.03-.02-.04c-.01,.02-.02,.03-.02,.03-.02,0-.03,0-.03,0h0c0-.08,0-.1,.03-.09,.02,.01,.04,0,.07-.03,0,0,0-.01,0-.03v-.06s0-.05-.02-.12c-.01-.05-.02-.08-.02-.1-.02,0-.03-.03-.03-.06s.01-.05,.03-.05,.03-.02,.03-.05v-.02h-.07v-.02s.01-.05,.04-.04c.01-.02,.02-.04,.02-.07,0-.01,0-.03,0-.06v-.04s-.02,.04-.03,.04-.03,.01-.03,.04c-.02-.04-.03-.07-.03-.08,0-.03,0-.06,.02-.08,.02-.01,.04-.03,.05-.06,0-.02,0-.04,0-.08v-.08h-.07s0-.08,.02-.12c.02-.03,.04-.06,.07-.08h0s0-.04-.02-.06-.02-.03-.03-.03v-.17s0-.05-.02-.07c-.01-.03-.02-.05-.02-.07-.03-.1-.04-.19-.04-.27,0-.08-.02-.17-.08-.26v-.02h.02s.06,.02,.08,.04l.06,.03s.04,.02,.05,.03c.05,.03,.09,.06,.12,.1s.08,.07,.12,.1,.09,.05,.14,.07c.05,.02,.09,.05,.12,.1,0,.02,.02,.04,.04,.07,.02,.03,.02,.05,.02,.06v.36s.02,0,.02,0c0,0,0,.01,0,.03,0,.01,0,.03-.02,.05-.02,.02-.03,.04-.03,.07v.03s.02,.03,.02,.05c0,.09-.02,.21-.06,.33v.03c0,.06-.01,.12-.02,.19,0,.06-.01,.13-.01,.19,0,0,0,.02,0,.03s0,.03,0,.03c0,0,0,.04,0,.08,0,.05,0,.08,0,.1v.03s0,.02-.02,.02c0,.02,0,.03,0,.04,0,.03,0,.05,0,.08l-.02,.04s0,.05-.01,.06c0,.01,0,.03,0,.06,0,.03,0,.05,0,.06,0,0,0,.02,0,.05v.49s0,.05,0,.05,0,.02,0,.05c0,.03,0,.05,0,.05v.06s0,.08,0,.08c0,.04,0,.07,0,.09v.19s.02,.04,.02,.08c.01,.08,.02,.17,.02,.25s0,.17,0,.25c0,.01,0,.02,0,.02,0,0,0,.01,0,.03,0,.03,.01,.05,.04,.05,0,.02,0,.04-.02,.07-.01,0-.02,.02-.02,.05s0,.05,.02,.09c0,.03,.02,.06,.02,.08s0,.04-.02,.05c-.01,.02-.02,.04-.02,.05v.02s0,.03,0,.03c0,0,0,0,0,0v.03s0,.04-.02,.05c-.01,.01-.02,.03-.02,.04,0,.02,0,.03,.02,.03,.01,.02,.02,.04,.02,.06v.12s0,.02,0,.04,0,.03,0,.04c0,.08,0,.16-.01,.24,0,.08-.02,.17-.04,.26,0,0,0,.02-.02,.05,0,.02-.03,.04-.05,.08-.01,.03-.03,.06-.05,.08s-.03,.03-.04,.03c0,0-.03-.01-.06-.03-.03-.02-.06-.05-.11-.08-.04-.03-.07-.06-.11-.08l-.04-.03s-.02-.06-.02-.08,0-.04-.02-.06Zm.05-4s0,0,0,0,0,0,0,0h0s0,0,0,0Zm.18,3.25s0,0,0,0h0s0,0,0,0h0Zm0-.09h0s0,0,0,0h0Z"/>
        <path class="cls-2" d="M40.21,6.34c.12-.12,.21-.25,.27-.4,0-.05,.02-.1,.03-.15,.02,0,.03,0,.05,0,.19,.13,.31,.29,.35,.49l.02,.03h.37c.07-.01,.17-.04,.3-.1,.13-.05,.22-.08,.25-.08,.28-.13,.57-.23,.87-.3,.05,0,.1-.02,.15-.05l.5-.13c.05-.01,.13-.02,.22-.03h.32s.04,.03,.06,.03c.07-.03,.14-.05,.21-.07,.03,0,.09,0,.17,.01,.08,0,.14,.02,.17,.04h.22s.08,.07,.16,.08c.09,.02,.14,.06,.15,.13v.03c-.14,.11-.3,.17-.47,.2-.04,.03-.07,.06-.11,.07v-.04s-.07,.09-.11,.11c-.04-.02-.08-.04-.12-.07-.06,.04-.12,.09-.18,.12v-.02s.04-.06,.09-.1c.01,0,.03,0,.05,0h0s-.02-.04-.04-.03c-.02,0-.03,0-.05,.03l-.02-.03c-.07-.03-.11-.09-.12-.18,0-.02,0-.04,.02-.07l-.02-.02h0l-.52,.11s-.03,.01-.04,.02c-.33,.09-.67,.19-1,.3-.09,.05-.18,.08-.28,.1-.13,.07-.27,.12-.42,.15-.05,.03-.1,.04-.16,.05-.1,0-.2-.02-.29-.05h-.08s-.1-.01-.15-.03c-.02-.03-.05-.04-.08-.03h0c-.06,.09-.12,.19-.17,.27-.07,.08-.14,.16-.21,.24-.05,.13-.13,.23-.25,.28-.02,0-.03,0-.04,0l-.16-.17s-.03-.05-.03-.08c-.05-.05-.08-.11-.08-.17,0-.19,.07-.36,.19-.49Zm1.39,4.84c-.08,0-.15-.03-.21-.08h.16s.06-.05,.08-.08c.04-.01,.07-.02,.12-.03,.24-.12,.39-.32,.46-.6,0-.03,.01-.07,.03-.11,.08-.26,.13-.53,.15-.82h0s-.02-.04-.02-.04v-.62c0-.17-.07-.27-.2-.31,0,.03,0,.06,0,.08h0s-.12,.49-.12,.49c-.02,.05-.04,.1-.08,.14-.09,.21-.19,.42-.31,.62-.07,.09-.14,.19-.2,.29l-.26,.27c-.05,.03-.11,.05-.18,.05s-.11-.03-.13-.09c.04-.02,.06-.04,.08-.07,.02-.02,.03-.03,.04-.05,.06-.08,.11-.17,.16-.26,.04-.06,.07-.12,.09-.17l.02-.02,.22-.42h0c.06-.12,.13-.26,.22-.43,.09-.17,.14-.32,.16-.44v-.07s-.02-.02-.03-.02c-.04,.01-.07,.03-.11,.06-.04,.04-.08,.09-.12,.13-.03,.06-.07,.11-.14,.16-.04,.09-.09,.18-.14,.27-.1,.17-.22,.31-.36,.42-.02,.03-.03,.04-.05,.05l-.22,.23s-.08,.08-.12,.1c-.03,0-.05-.01-.07-.02-.08,.02-.16,.03-.25,.04,0-.01,.03-.02,.05-.02,.01-.02,.02-.03,.02-.05,0-.01,0-.03,0-.05,.05-.05,.1-.1,.15-.12,0-.02,0-.04,.02-.06l.14-.14,.02-.03,.41-.5,.02-.03,.26-.34s.02-.04,0-.06h-.02c-.07,.04-.14,.08-.22,.12h-.03s-.03-.04-.05-.05c-.07,.04-.14,.08-.22,.12h-.09s.01-.06,.03-.08c-.03-.02-.05-.04-.07-.05,0-.02,0-.03,.02-.03,.12-.03,.24-.08,.34-.15l.91-.87s-.03-.08-.08-.11c-.11,.03-.25,.06-.4,.09-.14-.03-.25-.11-.31-.24,0-.03,0-.05,.01-.06,.04,0,.08,.01,.12,.02,.26-.03,.5-.13,.71-.3,0-.01,0-.02,.02-.02,.06-.02,.1-.04,.13-.07,.05-.01,.09-.02,.15-.03,.1-.05,.21-.08,.31-.1,.11,0,.18,.06,.22,.16-.04,.16-.15,.24-.33,.24-.05,.03-.11,.06-.16,.09-.13,.04-.25,.09-.37,.15,.03,.03,.05,.04,.07,.04,.03,0,.07-.01,.11-.03,.05,.02,.09,.03,.12,.05,.04,0,.11,.02,.22,.05,.1,.03,.16,.07,.18,.12-.04,.07-.1,.11-.18,.13-.16,.19-.34,.34-.57,.44-.02,0-.03,.02-.03,.03h0s.01,.07,.04,.1h.12c.05-.02,.1-.04,.15-.06,.13,.01,.26,.06,.37,.13,.02,0,.05,0,.08,.02v.03s.08,.08,.11,.12c.06,.03,.11,.06,.16,.08l.22,.15s.11,.1,.23,.19,.19,.14,.23,.15c.12,.1,.27,.19,.43,.27,.09,.02,.17,.05,.26,.09,.02,.03,.04,.05,.05,.06,.02,.01,.04,.02,.07,.02,.18,.06,.33,.15,.47,.27,.16,.13,.32,.21,.5,.24-.03,.02-.04,.04-.03,.08-.08,.09-.18,.14-.3,.12-.1,0-.21-.01-.32-.04-.05-.01-.09-.02-.12-.04-.01,0-.03,.01-.05,.03-.07-.03-.13-.07-.19-.12-.17-.08-.32-.17-.47-.28-.07-.04-.14-.09-.21-.12-.1-.09-.2-.18-.3-.27-.12-.13-.25-.22-.39-.26-.05-.05-.1-.1-.15-.15-.02-.02-.03-.03-.05-.04,0,0-.01,0-.02,0,.01,.12,.01,.23,0,.34,0,.06,0,.13-.01,.23v.23c-.02,.07-.04,.13-.05,.18-.05,.22-.11,.43-.18,.65-.03,.06-.05,.11-.07,.17,0,.03,0,.06,0,.08-.02,.06-.04,.12-.06,.17-.06,.18-.16,.31-.29,.38-.07-.04-.13-.08-.19-.13-.07,0-.13,0-.2,0-.03,0-.06,0-.09,0Zm-.75-2.62s.02-.02,.04-.04,.04-.02,.05-.02c-.01,0-.02,0-.03-.02-.04,0-.06,.02-.08,.07,0,0,.01,0,.02,0Zm1.04-2.96c0-.07-.03-.1-.07-.09s-.07,0-.07-.02c0-.11,0-.22-.02-.34-.02-.08-.04-.16-.05-.23,.07-.07,.14-.1,.22-.1,.02,0,.03,0,.05,.02h.35s.09-.02,.13-.02c.06,0,.14,.02,.24,.05,.12,.02,.18,.07,.19,.13-.03,.12-.08,.2-.17,.26-.04,.07-.07,.14-.1,.22-.03,.03-.07,.06-.12,.09-.05,.03-.09,.05-.14,.07-.04,.03-.07,.07-.12,.1l-.04,.02c-.1-.02-.2-.04-.32-.06,.01-.03,.03-.06,.04-.09Zm.91,2.56s0-.02,0-.04h0s.02-.05,.05-.06c.06-.06,.12-.12,.18-.18,.02-.03,.04-.05,.05-.08-.05,.03-.08,.05-.1,.06s-.02,.02-.03,0c.05-.08,.1-.15,.16-.22,0-.06,.01-.12,.05-.17,.02,.01,.04,.02,.06,.03,.1-.02,.2-.03,.29-.05,.18-.03,.32,.03,.4,.19v.03c-.06,.14-.17,.24-.33,.28-.05,.04-.1,.08-.16,.11-.05,.04-.11,.07-.17,.09-.01,.02-.02,.04-.04,.04-.02,0-.03,0-.04-.02-.01,0-.02,.01-.02,.02-.04,.04-.09,.07-.16,.07-.01,0-.02,0-.03-.02-.04,.04-.09,.07-.14,.08-.02-.04-.04-.07-.05-.1,.01-.02,.02-.03,.02-.05Zm.2-.13l.02-.03h-.02v.03Zm.27,.06h0s.01,0,0-.02h0s0,.01,0,.02Zm.75-2.05l.02-.02h-.02v.02Z"/>
        <path class="cls-2" d="M47.43,10.32s0-.04,.03-.05c.02-.01,.03-.02,.04-.02,.02,0,.05,0,.08-.02,.03-.01,.06-.02,.08-.02h.13c.06-.02,.12-.03,.19-.05,.07-.02,.14-.04,.19-.07l.02-.02,.25-.1s.06,0,.07-.02c.01-.02,.04-.04,.07-.05v-.03s0-.04,0-.04c0-.12,0-.23-.02-.33l-.02-.35s0,0,0,0h-.02s-.04,0-.06,.01c-.02,0-.04,.02-.05,.04-.05,.02-.09,.04-.12,.06s-.07,.05-.09,.1c-.03,.03-.04,.07-.06,.14-.01,.06-.03,.12-.05,.17-.02,.05-.05,.1-.08,.14-.03,.04-.08,.06-.13,.06h-.03s-.04-.05-.05-.09c-.03-.04-.05-.08-.05-.1v-.09c0-.07,0-.12,0-.16,0-.04,.02-.09,.05-.14l.02-.02s0-.08,.01-.13c0-.05,0-.09,0-.12,.04,0,.07,0,.09,.03,.02,.02,.04,.05,.07,.08,.02,.03,.04,.06,.05,.08,.02,.02,.05,.03,.08,.03h0s.04-.02,.09-.03c.06-.02,.1-.03,.1-.04,.05-.02,.1-.04,.15-.06,.05-.02,.08-.06,.08-.12,0-.01,0-.04,0-.09,0-.05-.01-.1-.02-.15,0-.05,0-.09-.01-.13l-.03-.06-.52,.15s-.02,0-.04,.02c-.01,0-.02,0-.02,.02h0s-.08,0-.13-.03c-.05-.02-.08-.05-.08-.1h0s0-.04,.02-.04c0,0,0,.01,0,.02,.02,0,.06-.02,.14-.05,.09-.03,.18-.07,.27-.12,.1-.03,.19-.07,.26-.1,.08-.03,.12-.05,.12-.06,.02-.02,.02-.04,.02-.06v-.08s0-.09,0-.12l-.03-.12s-.03-.03-.05-.06c-.02-.03-.02-.05-.02-.07v-.03s0-.01,0-.04h-.33s-.03,0-.03,.02c0,.02,0,.04-.02,.05h-.02s-.04,.02-.07,.05c-.03,.03-.07,.07-.1,.11-.03,.04-.05,.07-.09,.1-.04,.04-.06,.05-.07,.04-.02,.01-.05,.02-.08,.03-.04,.02-.06,.04-.08,.05-.06,.01-.12,.03-.17,.07-.05,.03-.1,.06-.15,.08-.02,0-.03,0-.04,0h-.03s-.03,0-.05,0c0,0-.03,0-.05,.03-.02,.02-.05,.03-.08,.03-.04,0-.07-.01-.09-.03,.03-.05,.07-.09,.13-.11,.06-.03,.11-.07,.14-.1,.04-.07,.09-.13,.15-.18,.06-.05,.11-.11,.16-.18,0,0,0-.02,.02-.05,.02-.03,.03-.06,.05-.1,.02-.03,.04-.06,.05-.08s.03-.03,.05-.02l.07-.12h0s.01-.07,.04-.09l.06-.07s.04-.05,.06-.08,.03-.05,.04-.08l.08-.08s.08-.07,.09-.08c0,0,.01-.03,.03-.08,.01-.03,.02-.06,.04-.08,.03-.07,.06-.13,.09-.2s.05-.14,.05-.21h.03v-.06c.02-.06,.04-.11,.07-.16,.03-.05,.06-.1,.07-.15,0-.03,.02-.07,.03-.12l.03-.08s0-.08,0-.12v-.1s.01-.04,.03-.05c.03,0,.08,0,.14,0h.08s.03,.01,.02,0c0,0,0,0,.04,.01,0,0,.02,.02,.05,.05,.03,.04,.06,.09,.09,.13,.03,.04,.06,.08,.09,.12,.02,.05,.04,.08,.05,.1v.08c0,.07-.01,.15-.04,.22-.02,.07-.05,.14-.09,.2h-.02s-.03,.02-.06,.07-.06,.09-.09,.14c-.03,.05-.06,.09-.09,.13-.03,.04-.04,.07-.04,.09l-.24,.25c-.06,.07-.11,.15-.16,.22-.04,.08-.09,.16-.16,.22h0s0,.03,.02,.04c.01,0,.03,0,.04,0,.06,0,.13-.02,.19-.05,.08-.03,.15-.06,.19-.08,0-.02,.02-.04,.06-.07l.13-.08c.05-.03,.1-.05,.15-.06,.05-.01,.08-.02,.09-.02,.06,0,.11,.01,.16,.04,.05,.03,.1,.07,.15,.11-.05,.05-.1,.09-.15,.12-.02,0-.06,0-.12,.02-.06,.01-.13,.03-.2,.04s-.14,.03-.19,.04c-.06,.01-.08,.03-.08,.03,0,0,.01,.02,.04,.04,.02,.02,.05,.03,.08,.05s.06,.03,.09,.05l.06,.02s.03,.03,.08,.08c.05,.04,.07,.07,.08,.08,0,0,0,0,0,0h0s0,.02,0,.02h0s.04-.03,.06-.03h.15s.06,0,.08,.03h.11s.02,0,.02,0c.02,.02,.03,.04,.05,.08,0,0,0,0,.03,0,.02,0,.03,.01,.03,.03l-.02,.03c-.06,0-.09,0-.09,.02,0,.02-.04,.04-.09,.06-.04,.02-.08,.03-.12,.04s-.09,.03-.14,.05c-.07,.06-.12,.14-.13,.23,0,.1,0,.2,0,.29,.04,0,.07,0,.1-.03s.06-.03,.1-.03c0-.01,.05-.02,.13-.02h.15s.08,.03,.12,.08,.07,.1,.09,.15c0,.01-.01,.03-.04,.05-.02,.02-.04,.04-.08,.05-.03,.02-.05,.03-.07,.04-.03,.01-.05,.02-.05,.02h-.01s-.38-.11-.38-.11h-.1s0,.02,0,.04v.05s0,.08,0,.13c.02,.05,.02,.1,.02,.14,0,.06,0,.11-.02,.16,0,.05,0,.11,0,.17h.16c.06,0,.11,0,.15-.03,.01,0,.03-.01,.05-.02,.02,0,.04-.01,.06-.01s.03,0,.05,.03,.03,.02,.05,.02h.03s0-.01,0-.02h0l.03,.02s.02,0,.02,.02h.02s.04,0,.05-.02c0,.01,.02,.03,.02,.07v.04c-.1,.04-.2,.08-.3,.14s-.19,.1-.28,.15c-.01,0-.03,0-.05,0-.01,.01-.03,.02-.05,.03h-.06s-.03,.02-.03,.02l-.09,.03-.12,.07s-.09,.03-.12,.04c-.03,.02-.06,.04-.09,.05-.01,.02-.04,.03-.08,.05-.03,.02-.07,.04-.12,.06-.05,.02-.09,.03-.12,.05-.04,.02-.07,.03-.1,.03-.1,0-.2-.03-.29-.09-.08-.05-.16-.12-.24-.18Zm.49-1h-.02s0,0,.01,0,.01,0,.01,0h0Zm.61-1.63s0,0,0,0,0,0,0,0,0,0,0,0,0,0,0,0Zm.33,.82s0,0,0,.01c0,0,0,.01,0,.01s0,0,0-.01c0,0,0-.01,0-.01Zm.13-.5s0,0,0,0,0,0,0,0h0Zm.1-1.55c.05,0,.1,0,.15,.01,.05,0,.09,.02,.15,.03,.03,0,.07,0,.12,0,.05,0,.1,0,.14,.02,.05,.02,.08,.05,.11,.08,.04,.04,.05,.08,.05,.13s-.03,.08-.08,.09c-.06,0-.1,.01-.13,.01-.04,0-.09,0-.15,0-.05,0-.08-.02-.12-.06v-.03s-.05-.06-.08-.08c-.03-.02-.06-.04-.08-.07-.03-.01-.06-.03-.1-.06-.03-.01-.05-.03-.06-.07h.09Zm.16,1.6s0,0,0,0v.02s0,0,0-.02h0Zm1.04,1.77v-.08s0-.06,.02-.09v-.73s0-.03-.02-.03h-.02l-.17,.22c-.07,.01-.12,.04-.16,.09-.04,.05-.08,.1-.12,.14-.03,0-.05,0-.06,.02l-.06,.07s-.05,.06-.07,.08c-.03,.03-.06,.05-.08,.06-.01,0-.02,0-.04,0s-.02,0-.02-.01c0,0,0-.02,0-.03v-.02s0-.06,.03-.1c.03-.03,.05-.05,.07-.07,0,.01,0,.02,.02,.02h.02s0-.02,0-.04v-.02s0-.02,0-.03,0-.02,.02-.02l.02,.02s0,0,.02,0h.02v-.02s.03,0,.05,0c0-.01,0-.03,.02-.04,0-.03,0-.04,0-.05s0-.01,0-.03v-.02s.02-.06,.04-.06c.01,0,.03-.02,.05-.05l.02-.03s.03-.04,.05-.06l.05-.06h0s.01-.05,.02-.07c0-.02,.03-.05,.05-.08,0-.01,.02-.04,.05-.09,.03-.05,.05-.08,.07-.1,0-.03,.02-.06,.05-.09l.08-.09s.05-.06,.08-.09c.03-.03,.04-.06,.04-.09,0,0-.02-.03-.05-.06-.03-.04-.06-.07-.09-.11-.04-.05-.07-.09-.09-.12l-.07-.07s-.02-.04-.05-.06c-.04-.03-.06-.05-.06-.05,.03-.02,.06-.03,.08-.03,.01,0,.02,0,.02,0,0,0,0,0,0,0h0s.03,0,.06,0c.03,0,.05,0,.06,0,.06,0,.12,.01,.18,.05,.06,.03,.13,.04,.21,.04,.04,0,.08-.02,.1-.07l.05-.12s.02-.06,.03-.08c.02-.01,.03-.03,.05-.06,.01-.04,.02-.08,.02-.11,0-.04,.02-.07,.06-.1,0,0,0,0,0,0h0s0-.04,.02-.05,.02-.02,.04-.02c0-.02,.02-.04,.03-.08,.01-.04,.03-.06,.04-.07l.05-.12s.04-.08,.04-.09c0-.03-.01-.08-.04-.14s-.06-.09-.08-.09v.02s-.01,0-.02,0l-.02,.02s0-.01-.02-.02c0-.02,0-.03,0-.03-.04,0-.06,.01-.06,.03,0,.02,0,.04-.01,.06-.05,.07-.1,.15-.17,.23-.06,.08-.11,.16-.16,.24-.03,.03-.05,.07-.08,.11-.01,.04-.03,.08-.06,.12-.02,.01-.05,.02-.08,.03-.03,0-.06,.02-.07,.04-.02,0-.02,0-.02,.02,0,.03,0,.05-.02,.07,0,.03-.02,.05-.03,.06-.02,.02-.04,.03-.08,.03-.01,0-.02,0-.02-.02,0,0,0,0,0,0h-.02s-.05,0-.05,0c-.02,.01-.03,.02-.04,.02,0,.03,.02,.04,.04,.05s.04,0,.06,0c0,.02,0,.03-.03,.03-.02,0-.04,0-.06-.02-.01,0-.02,0-.03,0-.03,0-.04,.01-.02,.03-.03,.03-.07,.06-.1,.08s-.08,.02-.12,.02c-.03,0-.07,0-.12,0-.05,0-.08-.03-.08-.07,0-.01,0-.03,.02-.05,.02-.01,.04-.03,.06-.06,.03-.02,.05-.04,.07-.06,.02-.03,.03-.04,.03-.05h.02v-.1s.02,0,.03,.03h.02s0-.01,0-.03h0s.02-.04,.05-.07l.05-.07s0,0,.02,0h.02l.02-.04s.01-.06,.03-.09l.02-.09s.02-.06,.02-.08c0-.01,0-.02-.01-.02s-.01,0-.01-.02,.01-.02,.04-.02,.04,0,.04-.02c.01-.04,.02-.07,.02-.09s0-.03,0-.04h.03s.02,0,.05-.02h0s0-.03-.02-.03c0,0,0-.01,0-.03,0,0,0-.02,.02-.04,.03-.01,.03-.02,.02-.04,.02-.02,.04-.05,.06-.08,.03-.03,.05-.06,.08-.09,.03-.03,.05-.06,.07-.1,.02-.03,.02-.06,.03-.08,0-.02,.01-.04,.03-.08,.02-.03,.03-.05,.03-.07l.05-.12c.02-.06,.03-.11,.05-.14,0,0,0-.02,0-.05,0-.03,0-.05,0-.05v-.04s0-.03,.02-.03c.04,.03,.08,.06,.14,.08,.05,.02,.1,.05,.14,.09,.02,.02,.05,.05,.1,.1,.05,.05,.08,.1,.08,.14,0,0,0,0,0,.02,0,.01,0,.02,0,.02v.28s-.05,.04-.05,.05l.02,.03s.01-.03,.04-.03,.06,0,.09-.02l.1-.02s.05,0,.07,0,.03,0,.05,.02h.19s.04,.04,.07,.05c.02,0,.05,.02,.07,.03,.02,.01,.04,.03,.06,.06,.02,.02,.02,.06,.02,.11,0,.02-.02,.06-.06,.1-.04,.05-.08,.1-.13,.17-.05,.06-.09,.12-.14,.18-.05,.06-.08,.1-.09,.12-.03,.04-.06,.07-.09,.08-.01,.01-.03,.04-.05,.08l-.02,.05s-.02,.06-.02,.07c0,.02-.03,.04-.05,.06-.02,.02-.03,.05-.04,.08-.02,.04-.03,.08-.05,.12,0,.03-.03,.08-.05,.12,.02,.03,.04,.06,.06,.09,.02,.03,.03,.07,.03,.11,0,.02,0,.03,0,.05s-.01,.03-.03,.05c-.09,.02-.17,.04-.22,.08-.05,.03-.09,.07-.14,.12-.05,.05-.09,.1-.12,.16-.03,.06-.07,.12-.11,.2-.02,.03-.04,.05-.06,.08,0,.02-.01,.04-.01,.08h.09s.02,0,.02,0h.02s0,0,.01,0,.02,0,.03,0l.41-.13s.06-.02,.08-.02c.04,0,.07,0,.1-.02,.05-.03,.1-.05,.15-.07s.1-.03,.16-.05c.05-.02,.1-.05,.16-.08,.06-.02,.12-.02,.18-.02,.02,0,.03,0,.04,0,.01,0,.02,.01,.03,.02h.05s.04,0,.08,.01c.05,0,.07,.01,.08,.01l.05,.03s.03,.02,.04,.02c.04,.01,.07,.02,.1,.02,.03,0,.06,.01,.08,.03s.04,.02,.05,.03c.02,.03,.03,.07,.05,.12,0,.02,.02,.04,.02,.05,0,0,0,.03,0,.05s0,.05-.02,.07c-.02,.02-.03,.04-.05,.07v.02l-.08,.08-.03-.03s0,.02,0,.04c0,.01,0,.03,.02,.04-.02,.02-.03,.03-.04,.03-.02,.01-.04,.02-.05,.04,0,0,0,.03,0,.06v.05l-.02,.03s-.02,0-.03,.01c0,0,0,.02-.01,.04-.01,.03-.02,.06-.03,.07,0,.01-.02,.03-.04,.06-.02,.03-.03,.05-.03,.08,0,.03,.01,.06,.03,.08l.07,.05s.06,.04,.08,.06c.03,.02,.05,.04,.05,.07,0,.02-.01,.04-.04,.07-.01,0-.03,0-.07,.02-.03,.02-.04,.04-.05,.04-.03,0-.06,0-.1,.02-.05,.01-.08,.02-.1,.02-.01,0-.02,0-.04-.02-.09,0-.17,0-.24,0-.07,0-.15,0-.25,0h-.08s-.08,0-.09,0c-.03,.03-.06,.04-.11,.04h-.11s-.08,0-.12,0c-.04,0-.07,0-.1,.03,0,.08,0,.17-.02,.28,0,.01,0,.02-.02,.02-.04,.03-.06,.05-.07,.08s-.04,.03-.08,.03-.08-.02-.11-.08c-.03-.05-.06-.11-.08-.18-.03-.06-.04-.13-.06-.2-.01-.07-.02-.12-.02-.15Zm-.33-2.79s0,0,0,0c0,0,0,0,0,0s0,0,0,0c0,0,0,0,0,0Zm.74,2.54s0,.08,0,.15c0,.06,.02,.1,.06,.1,.05,0,.1,0,.15-.03,.05-.02,.09-.02,.15-.02,.02,0,.03,0,.03,0s.02,0,.04,0,.04-.02,.06-.06c.02-.03,.05-.04,.09-.03l.02,.02s.02,.02,.02,.02h0s.05-.02,.04-.07c.02,0,.04,0,.06,0s.05,0,.08-.02c.03,0,.05,0,.07-.03,.02-.02,.03-.04,.03-.05v-.22s0-.03-.03-.04c-.01,0-.02,0-.03,0,.03-.01,.04-.03,.04-.05s-.01-.05-.04-.06c-.03-.02-.04-.04-.04-.06v-.07s.03,0,.04,.03c0-.04,0-.06,.03-.07,.03,0,.05-.03,.05-.06v-.03l-.07-.03s-.05-.02-.05-.04h-.19s0,0,0,0,0,0,0,.02c-.12,.02-.24,.04-.36,.07-.12,.02-.25,.03-.36,.03h0s.02,.07,.07,.1,.07,.08,.07,.14,0,.12-.02,.17c-.01,.06-.02,.11-.02,.16h0s0,.03,0,.03c0,0,.02,0,.02,0Zm.06,.37h.04v-.02h-.04v.02Zm.8-.81s0,0,0,0,0,0,.01,0,.01,0,.01,0,0,0-.02,0Zm.02,.15h0s0,0,0,0h0s0,0,0,0Zm.31,.52h0v.02s0,0,0,0c0,0,0,0,0,0Z"/>
      </g>
      <g>
        <path class="cls-2" d="M10.75,9.77c.02-.07,.03-.14,.02-.23h-.07s0,.05-.02,.08c-.04,.04-.07,.08-.1,.12-.06,.03-.11,.07-.15,.13-.09,.08-.17,.15-.25,.23-.01,0-.02,.02-.02,.04-.03,.03-.09,.08-.18,.15-.09,.06-.15,.1-.17,.1-.09-.02-.14-.08-.15-.17-.02-.02-.04-.05-.05-.08v-.02c0-.11,.02-.21,.03-.31,.04-.11,.09-.22,.16-.34l.29-.62c.06-.13,.1-.27,.11-.42,0-.05,0-.09-.01-.13-.02,0-.04,0-.05,.03-.05,.03-.11,.04-.17,.04-.13,0-.26-.02-.37-.07-.04-.02-.09-.05-.14-.09-.03-.02-.09-.07-.19-.13-.08-.06-.13-.1-.15-.12v-.02c.13,.01,.25-.01,.36-.07l.88-.47s.08-.03,.13-.07c.07-.04,.14-.07,.21-.11l.02-.02s0-.15,.01-.31c.02-.35,.04-.7,.06-1.06,0-.03,0-.1,.02-.19,.02-.09,.03-.16,.03-.2,.02-.09,.02-.19,.02-.27,0-.05-.02-.1-.02-.16,.11,.02,.22,.07,.33,.13,0,.02,.02,.04,.02,.07,.06,.06,.12,.11,.18,.15,.09,.16,.13,.33,.12,.53v.02c-.02,.13-.06,.25-.12,.35-.03,.11-.05,.22-.07,.33,0,0,0,.02-.02,.04-.05,.09-.07,.2-.07,.32,.09,0,.18-.01,.26-.02,.06,0,.14,0,.26,.01,.11,.01,.18,.07,.2,.15-.04,.08-.11,.13-.23,.14-.06,.07-.12,.13-.19,.19-.07,.05-.14,.09-.21,.12-.17,.17-.24,.4-.19,.67,0,.15,.01,.3,.02,.45,.03-.02,.05-.01,.06,.02v-.03s.03,.04,.02,.06h.02s.05-.02,.08-.04l-.02-.02s.04-.07,.08-.1h0s-.02,.06-.05,.08c.01,0,.02,0,.02,.02,0,.02,0,.05,0,.08h.02s.01,.03,0,.06c-.03,.02-.05,.07-.06,.15,.01-.01,.02,0,.02,0-.05,.11-.12,.19-.21,.24,0,.45-.02,.9-.06,1.34-.01,.03-.02,.07-.04,.12-.04,.06-.06,.11-.08,.14h-.04s-.05-.08-.08-.14c-.04-.13-.06-.25-.08-.38l-.02-.52Zm-.39-.54v.03c.09-.05,.16-.1,.21-.14l.08-.05s.03-.03,.05-.03c.04-.03,.07-.08,.08-.13v-.18c0-.15,0-.29-.02-.43,0-.15-.02-.25-.03-.32l-.02-.02s-.04,.02-.08,.04c-.04,.03-.08,.07-.12,.1-.12,.02-.21,.07-.26,.17h0c.11,.18,.18,.37,.2,.58-.03,.13-.06,.26-.09,.38Zm.36-.06s.03-.01,.04-.03h0l-.03,.03Zm1.88,1.71s-.03-.08-.06-.17c-.03-.08-.05-.14-.07-.16,.03-.03,.05-.05,.07-.08,.04,0,.06,.02,.06,.07,.02-.02,.02-.04,.02-.06-.02-.07-.04-.1-.07-.1,.12,0,.17-.08,.15-.22v-.06s-.01-.07-.02-.11c.01-.01,.02-.02,.02-.03-.02-.11-.03-.23-.03-.36v-.57l-.02-.07h-.02s-.06,.04-.11,.08c0,.03-.02,.07-.04,.1-.02,0-.03,.02-.04,.04-.08,.12-.18,.24-.3,.38s-.25,.19-.4,.18l-.17,.12h0c-.06,0-.11-.01-.16-.05,.2-.12,.37-.29,.51-.5,0,0,0-.01,.02-.03,.15-.24,.28-.5,.39-.76,.01-.02,.03-.07,.05-.16,.03-.09,.04-.16,.05-.2-.03-.11-.1-.18-.22-.22-.07,0-.15,.01-.23,.03-.15-.01-.29-.06-.43-.16-.03,0-.05-.02-.05-.05,0-.02,.02-.03,.05-.02,.05,0,.1,0,.14,0h0s.08,0,.13,0l.56-.23c.06,0,.11-.03,.15-.08,.03,0,.05-.03,.06-.07,.03-.19,.04-.39,.03-.59,.03-.42,.04-.84,.04-1.24h0c-.01-.11-.02-.21-.04-.31-.07-.04-.12-.11-.15-.18,.04-.08,.1-.11,.19-.11,.09,.02,.19,.03,.28,.03l.29,.15c.04,.07,.06,.14,.07,.22,0,.08-.02,.17-.07,.25,.02,.24,0,.47-.08,.7v.08c0,.07-.02,.17-.05,.3-.02,.14-.02,.25-.02,.31v.29s0,.01,.02,0c.09-.01,.15-.06,.19-.16,.02,0,.02-.01,.02-.04,.02,.03,.04,.04,.07,.03h.05l.04-.03s.04,.03,.05,.03h.12s.09,0,.13,0c.1,0,.2,0,.3,.04,.11,.04,.18,.12,.19,.23h0s-.04,.03-.04,.03c-.09,.02-.17,.02-.26,.02-.14,.03-.29,.08-.45,.12h-.02c-.13,.04-.26,.08-.39,.11-.06,.01-.09,.05-.1,.11,.02,.11,.06,.2,.12,.28,.08,.09,.16,.18,.23,.28,.07,.06,.13,.11,.2,.16,0,.01,.02,.02,.02,.02,.02,.02,.03,.04,.04,.05,.01,.01,.02,.02,.04,.03,.03,.01,.08,.06,.17,.15,.1,.09,.15,.14,.17,.14l.63,.38c.07,.04,.14,.09,.22,.15,.23,.12,.45,.26,.66,.41,.03,.03,.05,.06,.06,.07-.02,.05-.07,.08-.15,.1s-.15,.03-.19,.03c-.1,.01-.2,0-.3-.05-.04-.03-.08-.05-.12-.07-.04-.02-.09-.04-.14-.05-.01,0-.02,0-.02-.02-.18-.12-.35-.25-.52-.4-.08-.06-.17-.12-.26-.18-.06-.06-.15-.14-.27-.24,0-.02-.02-.03-.04-.03-.04-.03-.09-.09-.17-.17-.08-.08-.14-.13-.17-.15-.06-.05-.12-.1-.2-.13h-.02s-.02,.09-.05,.13c0,.14-.01,.29-.02,.42,.02,.19,.04,.38,.07,.57-.02,.07-.03,.13-.04,.2,.02,.04,.03,.08,.03,.12,0,0,0,.02,0,.04,0,.04-.01,.08-.02,.13,.02,.06,.03,.11,.03,.16h0c-.02,.24-.05,.46-.08,.68-.03,.06-.04,.12-.04,.17,0,.05,0,.1,0,.16-.05-.02-.09-.04-.13-.08-.02-.04-.04-.08-.06-.11-.05-.08-.1-.15-.16-.21h0s.06-.03,.06-.07Z"/>
        <path class="cls-2" d="M19.79,9.88s-.07-.08-.1-.12c-.02,0-.04-.01-.05-.04-.06-.07-.13-.14-.2-.2-.03-.04-.1-.12-.21-.23-.1-.11-.17-.17-.2-.19-.17-.19-.33-.38-.5-.57-.02-.02-.04-.03-.07-.04,0,0-.01,0-.02,.02-.03,.09-.05,.17-.06,.25-.02,.05-.02,.1-.02,.14-.08,.41-.23,.78-.44,1.13-.12,.16-.26,.3-.42,.43-.09,.03-.17,.08-.24,.12-.12,.02-.24,.03-.36,.02-.05,.03-.09,.04-.13,.05h-.02s-.07-.02-.08-.07c.05-.09,.1-.14,.16-.15,0-.02-.01-.02-.03-.02,.05-.04,.1-.06,.16-.08,.37-.26,.62-.62,.77-1.07,.05-.16,.08-.31,.12-.46,0-.01,0-.02,0-.03l.11-.6v-.03s-.03-.07-.08-.07c-.07,.02-.14,.04-.22,.08-.05,.01-.1,.02-.15,.03-.08,.04-.17,.09-.26,.12-.06,.02-.13,.02-.2,.02s-.18-.03-.31-.08c-.13-.05-.21-.13-.22-.23,.08,0,.15,.01,.22,.02h.03l.47-.12h.04l.67-.2c.07-.07,.12-.32,.15-.75,.03-.42,.04-.69,.04-.82,.03-.15,.05-.3,.07-.44,0-.02,0-.04,0-.04l-.15-.15v-.02s.05-.05,.08-.09c.06-.02,.12-.03,.18-.02h.05c.06,.01,.11,.03,.16,.06,.07,.02,.14,.03,.21,.03,.15,.04,.26,.14,.32,.27,0,.06-.02,.11-.03,.17,0,.05,0,.11,.02,.16-.01,.08-.03,.15-.07,.22-.05,.09-.08,.17-.12,.22-.04,.19-.08,.38-.11,.57-.05,.13-.08,.27-.09,.42,0,.02,0,.04,.02,.07h.03c.1-.02,.19-.04,.27-.07,.18,0,.33-.05,.47-.16,.1,0,.2-.02,.3-.05,.11-.01,.23-.02,.34-.02,.12,0,.3,.03,.54,.09,.24,.06,.36,.15,.38,.26-.03,.07-.15,.11-.38,.14-.23,.04-.39,.06-.46,.06-.07-.01-.15-.02-.23-.03h-.02s-.06,.01-.1,.02h-.5c-.23,.02-.45,.07-.65,.13-.03,0-.05,.02-.08,.04-.02,.08-.04,.16-.06,.26h0s.01,.08,.03,.12c.12,.04,.24,.09,.35,.15,.07,.06,.15,.09,.22,.12,.08,.06,.16,.13,.23,.2l.33,.32c.15,.12,.3,.24,.45,.37,.02,0,.04,.01,.06,.02,.11,.09,.21,.17,.32,.24,.05,.02,.09,.04,.14,.07,.18,.14,.37,.26,.57,.35,.07,.04,.15,.08,.22,.12l.72,.44s.01,.03,0,.05c0,.04-.08,.07-.22,.08-.13,.01-.22,.02-.27,.02-.22,0-.42-.04-.61-.11-.04-.01-.07-.03-.11-.04-.02,0-.03-.01-.03-.02-.1-.08-.2-.14-.3-.19l-.81-.67Zm-2.94,.54s0,0,0,0h0Z"/>
        <path class="cls-2" d="M24.38,10.63h-.06l-.04-.03s-.04-.04-.06-.08c-.03-.03-.05-.06-.08-.09-.03-.03-.05-.06-.06-.08-.02,0-.03-.03-.04-.06-.01-.04-.02-.06-.03-.07-.01-.01-.02-.04-.03-.08,0-.04,0-.05-.02-.03l-.1-.12s0,0,.02,0h.02s.08,0,.11,0l.08,.06s.06,.02,.09,.03c.03,0,.07,.01,.11,.01,.02,.03,.05,.06,.09,.07,.04,.02,.07,.06,.08,.11,0,.02,0,.03,0,.04,0,.03,.01,.04,.05,.04,0,.04,0,.08,.02,.09,.03,.02,.05,.06,.05,.11,0,.03,0,.06,0,.08,0,.04-.02,.06-.05,.06s-.06,0-.07-.03c-.01-.02-.03-.02-.06-.02h0Zm2.9,.39s-.06-.06-.06-.08c0-.04,.01-.06,.04-.08,.04-.02,.07-.02,.1-.02h.1s.07-.01,.09-.04c.03-.02,.06-.06,.08-.12,.02-.06,.04-.13,.06-.19,.02-.06,.03-.12,.04-.17,.02-.05,.04-.09,.05-.11,0-.02,0-.05,0-.08,0-.02,.01-.06,.04-.13s.04-.13,.04-.17v-.6l-.02-.08s-.02-.02-.05-.02h-.37s-.05,0-.08,.02c-.03,.01-.06,.02-.07,.03-.01,0-.03,0-.04,0-.04,0-.06,0-.06,0v.02h-.04s-.04,0-.09,.02c-.05,0-.1,0-.15,.02-.06,0-.11,.02-.15,.03-.05,0-.07,.02-.07,.03-.12,.02-.24,.05-.36,.1s-.23,.08-.34,.1c-.17,.03-.34,.05-.53,.05h-.03c-.07-.01-.15-.04-.24-.07-.09-.02-.17-.05-.23-.09h0s-.02-.02-.02-.02l.02-.03s.03,0,.03,0c.02,0,.03,0,.03,.03l.34-.05s.03-.03,.05-.02l.5-.12s.07,0,.08,0,.03-.03,.06-.03c.02-.02,.05-.03,.11-.05s.1-.03,.12-.04c.02,0,.04,0,.05-.01,.01,0,.03-.02,.06-.03,.03-.01,.05-.02,.06-.02,.01,0,.02,0,.03,0,0,0,0-.02,0-.03v-.08s-.02,.01-.04,.04c-.02,.03-.05,.04-.09,.05v-.03s0-.05,0-.05h.04s0-.05-.02-.07c-.02,0-.02-.02-.02-.05s0-.07,0-.12c0-.05,0-.1,0-.15s0-.1-.02-.15c-.01-.04-.03-.06-.05-.08h0s0,0,0,0h-.03s-.03,0-.05,0c-.02,0-.03,0-.04,0,0,0,0,.02,0,.04,0,.02,0,.03-.01,.03-.06,.02-.12,.04-.2,.08-.07,.04-.14,.05-.2,.05h-.02v-.02s-.03,0-.05,0h-.02s-.06,0-.06,0c-.08,0-.14,0-.19,0s-.11-.01-.18-.03c-.02-.01-.04-.02-.06-.02s-.03,0-.03-.02c-.02,0-.03,.01-.03,.03v.06c-.05,.12-.09,.23-.14,.35-.06,.11-.12,.22-.18,.33,0,0,0,0,0,.02v.02s-.05,.08-.08,.12c-.03,.03-.06,.08-.09,.12,0,.02-.02,.03-.03,.05,0,.03-.02,.05-.03,.05,0,.02-.02,.04-.03,.07l-.04,.05s-.08,.07-.11,.14c-.03,.06-.07,.1-.12,.1h-.05s-.04,0-.04-.03h0c.03-.06,.05-.09,.07-.12,.03-.01,.05-.03,.06-.06,.02-.02,.03-.04,.04-.07,0-.03,0-.08,0-.15h.02s0,.02,0,.02c.03-.02,.05-.03,.05-.03v-.05s-.04-.02-.04-.05h.04s0-.03,0-.03c0,0,0-.01,0-.03s0-.04,.02-.06c.05-.19,.11-.4,.19-.6,.08-.21,.15-.4,.22-.59,.02-.01,.03-.04,.03-.08,.01-.03,.02-.06,.02-.08v-.02s-.1,.07-.16,.1c-.07,.01-.12,.04-.15,.08-.03,0-.05,0-.08,0-.02,0-.04,0-.07,0-.05,0-.09,0-.12-.02-.03-.02-.06-.05-.09-.08h-.02c-.05-.02-.09-.03-.11-.05-.02-.02-.06-.05-.1-.1,0,0,0-.01-.02-.02l-.02-.03s0-.01,.02-.02c.02,0,.06,0,.12,0,.06,0,.1,0,.13,0,0,0,.01,0,.02,0h.04c.08-.04,.16-.09,.23-.15,.07-.06,.14-.11,.22-.15,.1-.07,.21-.12,.31-.17,.1-.05,.17-.13,.22-.25,0-.03,.02-.06,.04-.1,.02-.03,.03-.06,.04-.09,.05-.12,.1-.22,.14-.33,.04-.1,.08-.21,.13-.32,.02-.03,.03-.07,.05-.1,.03-.03,.05-.07,.06-.11l.02-.04s.02-.06,.03-.09,.02-.05,.02-.06,.01-.02,.02-.03,.03-.03,.04-.04c0,0,0-.02-.01-.03,0-.02-.01-.03-.01-.03-.02,0-.05,.01-.1,.05-.04,.03-.08,.06-.11,.08-.04,.02-.08,.04-.12,.07-.04,.03-.08,.06-.1,.1-.02,0-.03,0-.03,.01,0,0-.01,0-.04,.01-.01,.02-.02,.04-.02,.07l-.02,.22c0,.07-.01,.13-.04,.19-.01,.07-.04,.11-.09,.14-.05,.04-.12,.06-.22,.06-.01,0-.04,0-.07,0-.03,0-.05-.01-.05-.02v-.07s-.01-.02-.03-.05c-.02-.02-.03-.04-.04-.06,0-.01,0-.03-.01-.05,0-.02,0-.05-.02-.08,0-.03-.02-.05-.03-.07s-.03-.02-.05-.01v-.05s0-.06,.01-.1,.02-.07,.04-.11c0-.02,0-.05,.02-.1,.01-.05,.02-.08,.03-.1,.03-.03,.05-.06,.06-.08,.02-.03,.04-.06,.06-.08h0s.08,.02,.1,.05c.04,.04,.08,.07,.12,.07,.02,0,.04,0,.07-.02,.03-.01,.06-.02,.08-.02,0,0,.02,0,.02,0,0,0,0,0,.02,0,.04,0,.05-.02,.05-.06,.03,0,.07-.03,.14-.06,.07-.02,.14-.05,.21-.08,.08-.03,.15-.07,.21-.1s.1-.07,.13-.1c0,0,0-.02,.02-.03,0-.03,.02-.05,.02-.05,0-.01,.02-.03,.03-.05,.02-.02,.03-.04,.03-.04s.02,0,.04,0c.01-.02,.03-.03,.05-.04,.02,0,.03-.03,.05-.07,.02-.04,.05-.05,.1-.05,.04,0,.07,.02,.09,.05,.04,.04,.06,.07,.08,.08,.05,.04,.1,.06,.15,.06,.05,0,.1,.02,.15,.05v.02s.07,.07,.1,.09c.03,.02,.05,.05,.05,.1,0,.07-.02,.12-.07,.16-.05,.04-.1,.07-.15,.1-.01,0-.03,0-.05,0-.02,.02-.04,.02-.05,0l-.09,.1s-.05,.05-.06,.07c0,.02-.02,.05-.05,.08-.02,.04-.04,.08-.09,.11-.04,.03-.08,.06-.12,.09-.01,.01-.04,.04-.08,.08-.03,.04-.05,.06-.05,.07,0,0,0,.02,0,.04s0,.03-.01,.03c-.03,.05-.06,.09-.08,.12l-.06,.08s-.03,.06-.04,.1-.02,.08-.02,.15c.04,0,.09-.01,.14-.03,.06-.01,.1-.02,.13-.04,.03-.03,.04-.05,.04-.06s.02-.01,.07-.03c.02,0,.07,0,.13,0,.07,0,.12,0,.14-.01,.03,0,.06,0,.09,0,.03,0,.06,0,.09,0,.02,0,.05,0,.1,.02,.04,.01,.08,.03,.11,.04,.04,.01,.08,.04,.1,.07,.03,.04,.04,.07,.04,.09,0,.04,0,.06-.02,.07,0,.02-.02,.04-.03,.05-.01,.01-.02,.04-.04,.07-.03,.03-.05,.05-.05,.05s0,0,0,.01h0s-.02,.01-.02,.02c-.01,0-.02,0-.02,.02v.04c-.02,.07-.04,.13-.07,.18-.03,.05-.05,.1-.07,.17,0,0,0,.02-.02,.05,0,.04-.02,.06-.02,.08,0,.05-.03,.09-.05,.12-.03,.04-.04,.09-.04,.13h.02l.03,.03c.08-.02,.15-.01,.21,0,.05,.02,.11,.06,.17,.12v.08s0,0-.01,.02c-.03,.11-.07,.22-.12,.35-.05,.13-.07,.25-.07,.38,.05,0,.11-.01,.17-.03,.06-.01,.12-.02,.18-.02h.02s.01,0,.02,0h.02s.01,0,.03,0c.01,0,.02-.01,.03-.01,.07-.02,.13-.03,.2-.04,.06,0,.13,0,.21-.02,.01,0,.03,0,.06-.01,.03,0,.05-.01,.07-.01s.03,0,.05-.02h0c.07,0,.13,0,.19,.03,.06,.02,.12,.04,.19,.07h.03s.09,.01,.14,.03c.06,.02,.11,.04,.15,.07,.05,.03,.09,.07,.13,.11,.03,.04,.05,.09,.05,.15-.05,.16-.1,.32-.16,.46-.06,.15-.11,.3-.15,.47h-.04s-.03,.02-.05,.06c-.02,.04-.04,.07-.06,.08-.02,.11-.05,.22-.08,.33-.03,.11-.08,.21-.15,.29l-.08,.09s-.07,.08-.08,.09c0,0-.01,0-.01,.02-.01,.02-.02,.04-.02,.04,0,0-.02,.02-.03,.03s-.03,.03-.04,.05c-.03-.02-.05-.02-.07,0l-.08,.05s-.06,.03-.07,.05c-.02,.02-.04,.03-.06,.03,0,0-.02-.01-.05-.03,0-.02-.03-.04-.07-.07-.02-.03-.04-.05-.05-.06-.03-.02-.04-.04-.04-.05-.02-.02-.02-.03-.02-.05s0-.03-.02-.05h0Zm-2.93-1.54s0,0,0,.01c0,0,0,.01,0,.01,0,0,0,0,0-.01,0,0,0-.01,0-.01Zm.19,1.12s0,0,0,0c0,0,0,0,0,0s0,0,0,0c0,0,0,0,0,0Zm.39-.76s.02,0,.02,0c0,0,0,0-.01,0s-.01,0-.01,0c0,0,0,0,0,0Zm.02,.03h0v0Zm0,0s.08,.02,.11,.06c.03,.04,.06,.06,.08,.06s.05,0,.06-.02,.03-.02,.06-.02h.03v.07s0,0,0,0h.02l.03-.04h0s.02,.03,.04,.08,.03,.09,.03,.12-.01,.06-.03,.09c-.02,.04-.04,.07-.07,.07-.06,0-.12-.03-.18-.08s-.11-.1-.13-.15v-.05s-.02-.07-.04-.1c-.02-.03-.03-.06-.03-.09Zm.21-1.57s.05,0,.05,0c.03,0,.06-.02,.08-.03s.06-.02,.1-.02c.03-.01,.08-.04,.15-.08l.16-.06s.03-.03,.04-.03c.01,.01,.02,0,.04,0,.02-.02,.03-.03,.03-.03,0-.02,.01-.03,.04-.03h.04s.02-.01,.05-.02c.02-.02,.04-.03,.07-.05,.04-.01,.06-.03,.08-.05,.03-.01,.04-.02,.04-.03v-.66l-.02-.07h-.02s-.08,.02-.12,.05-.06,.05-.08,.07l-.11,.05s-.08,.04-.09,.05c-.01,.02-.05,.04-.1,.07-.05,.04-.07,.07-.08,.08,0,0-.01,0-.02,.02l-.02,.03s-.04,.07-.05,.1-.03,.07-.06,.1c-.01,.02-.02,.04-.04,.08s-.03,.07-.04,.12c-.01,.05-.03,.09-.05,.13-.01,.04-.02,.06-.02,.08,0,.02-.01,.04-.03,.05-.01,.01-.02,.04-.02,.07h0Zm.46,1.42h.18c.08,0,.15,.02,.21,.03,.07,.02,.13,.05,.18,.09s.07,.09,.07,.17v.04s-.06,0-.09,.03-.05,.03-.06,.03c-.03,0-.07-.02-.12-.05-.06-.03-.12-.07-.16-.1-.06-.04-.11-.08-.15-.12-.03-.04-.05-.08-.05-.12Zm.7-4.55s0,0,0,0c0,0,0,0,0,0,0-.01,0-.02,0-.02Zm.08,3.45s0,0,0,0c0,0,0,0,0,0s0,0,0,0c0,0,0,0,0,0Zm.07,.16s0,0,0,0c0,0,0,0,.01,0s0,0,0-.02Zm0,.12s0,0,0,0,0,0-.02,0c0,0,0,0,0-.02,0-.02,0-.02,0,0Zm.5,1.01s-.03,0-.05,0h-.02s-.04-.02-.04-.03c-.02,0-.03-.01-.03-.02-.05-.03-.08-.05-.09-.07,0-.01,0-.03,0-.06,0-.02,0-.04,0-.06,0-.01,0-.04-.03-.08-.03-.03-.04-.04-.05-.05-.03-.02-.05-.03-.06-.05,.01-.02,.04-.03,.08-.03,.05-.01,.08-.02,.1-.02h.12s.08,.02,.11,.04c.05,0,.08,.02,.12,.03,.03,.01,.06,.02,.08,.03,.04,.01,.07,.02,.09,.03,.03,.02,.06,.06,.09,.11l.02,.03s.02,.02,.02,.02c0,.06-.03,.11-.1,.14-.06,.03-.11,.05-.16,.05-.03,0-.06-.01-.09-.03-.02-.01-.05-.02-.08-.02Zm-.35-4.6s0,0,0,0,0,0,0,0c0,0,0,0,0,0s0,0,0,0Zm.09,1.57s0,0,0,0c0,0,0,0,0,0,.01,.01,.02,.01,.02,0Z"/>
      </g>
      <g>
        <path class="cls-1" d="M17.17,1.1s0,.1-.01,.14c0,.05-.02,.11-.04,.16-.02,.06-.04,.11-.07,.17-.03,.06-.07,.12-.12,.17-.02,.02-.04,.04-.05,.06-.01,.01-.02,.02-.03,.03-.01,0-.02,0-.03,0-.03,0-.04-.01-.04-.04,0-.01,0-.03,.03-.06,.06-.09,.11-.19,.14-.32,.03-.11,.04-.23,.04-.36V.28c0-.06,.01-.11,.04-.14,.03-.03,.07-.05,.14-.05h.74c.13,0,.2,.06,.2,.2V1.64c0,.07-.02,.12-.05,.14-.03,.03-.08,.04-.14,.04h-.33s-.01,0-.02,0c0,0-.01,0-.02-.01,0,0,0-.02,0-.03,0,0,0-.02,0-.03,0,0,0-.01,.02-.01,0,0,.01,0,.02,0h.23c.06,0,.09-.03,.09-.1v-.52h-.73Zm.73-.55V.27c0-.06-.03-.09-.08-.09h-.56c-.05,0-.08,.03-.08,.09v.28h.73Zm0,.47v-.38h-.73v.38h.73Z"/>
        <path class="cls-1" d="M19,.66c.07,.04,.1,.09,.1,.12,0,.03,0,.06-.03,.08-.02,.03-.04,.04-.07,.04-.03,0-.05-.02-.08-.07-.02-.03-.05-.07-.08-.11-.02-.03-.06-.06-.1-.11-.01,0-.02-.02-.02-.04,0-.03,.01-.05,.04-.05,.04,0,.12,.04,.24,.12Zm.2,.33s0,.03-.02,.07l-.05,.15c-.02,.06-.04,.13-.07,.19-.02,.07-.05,.13-.07,.18-.04,.09-.06,.15-.08,.17-.02,.03-.04,.04-.07,.04-.07,0-.11-.04-.11-.12,0-.03,.01-.05,.04-.08,.06-.08,.12-.18,.18-.29,.03-.05,.05-.1,.08-.16,.02-.04,.05-.1,.07-.16,0-.02,.02-.03,.04-.03,.03,0,.04,.01,.04,.04Zm-.3-.98s.03,0,.04,.02c.04,.02,.07,.03,.1,.05,.07,.04,.11,.07,.13,.09,.02,.02,.03,.05,.03,.07,0,.08-.03,.12-.1,.12-.03,0-.07-.04-.12-.11-.04-.05-.08-.11-.15-.17,0-.01-.01-.02-.01-.03,0-.03,.01-.05,.04-.05,0,0,.01,0,.03,0Zm1.33,1.62c0,.07-.02,.12-.05,.15-.03,.02-.07,.04-.14,.04h-.28s-.01,0-.02,0c0,0-.01,0-.02,0-.01,0-.02-.02-.02-.04s0-.03,.02-.04c0,0,0,0,.02,0,0,0,0,0,.01,0h.2c.06,0,.08-.03,.08-.09V.21h-.74s0,0-.01,0c0,0-.01,0-.02,0-.01,0-.02-.02-.02-.04s0-.03,.02-.04c0,0,.01,0,.02,0,0,0,0,0,.01,0h.99s0,0,.01,0c0,0,.01,0,.02,0,.01,0,.02,.02,.02,.04,0,.02,0,.03-.02,.04,0,0-.01,0-.02,0,0,0,0,0-.01,0h-.07V1.64Zm-.35-.45c0,.11-.06,.17-.17,.17h-.24c-.12,0-.17-.06-.17-.17V.67c0-.11,.06-.17,.17-.17h.24c.12,0,.17,.06,.17,.17v.52Zm-.17-.51c0-.06-.03-.09-.08-.09h-.08c-.05,0-.08,.03-.08,.09v.5c0,.06,.03,.09,.08,.09h.08c.05,0,.08-.03,.08-.09v-.5Z"/>
        <path class="cls-1" d="M20.98,.47v.28c0,.12-.02,.2-.03,.23-.01,.04-.03,.05-.07,.05-.06,0-.09-.03-.09-.1,0-.02,0-.04,.01-.07,.03-.11,.06-.26,.08-.45,0-.03,.02-.04,.04-.04,.03,0,.04,.03,.04,.1Zm.25,.35s0,.07,0,.09c0,.07,0,.13,.01,.17,.02,.11,.05,.22,.11,.33l.04,.06s.02,.02,.02,.03c0,.01,0,.02,0,.02,0,.03-.01,.04-.04,.04-.02,0-.05-.03-.09-.09-.04-.06-.09-.12-.13-.19-.03,.1-.06,.18-.1,.26-.05,.09-.1,.18-.17,.26-.01,.01-.02,.02-.04,.02-.03,0-.04-.01-.04-.05,0,0,0-.02,.01-.04,.16-.26,.24-.59,.24-.96V.11s0-.01,0-.02c0-.01,0-.03,0-.04,.01-.03,.04-.04,.07-.04s.06,.01,.07,.04c0,.01,0,.02,0,.04,0,0,0,.01,0,.02V.49l.06-.12s.03-.04,.06-.04c.06,0,.09,.03,.09,.1,0,.01,0,.03-.02,.05-.01,.02-.03,.04-.05,.06-.02,.02-.04,.04-.07,.06l-.06,.05v.15Zm.89-.2s.01,0,.02,0c-.05-.05-.09-.1-.12-.14-.04-.05-.08-.12-.13-.19-.04,.07-.09,.15-.15,.22-.05,.06-.1,.12-.16,.17-.11,.1-.18,.16-.21,.16-.03,0-.04-.01-.04-.05,0,0,0-.01,0-.02h0c.11-.12,.19-.2,.23-.27,0,0-.01,0-.01,0,0,0,0,0-.01,0,0,0,0,0-.02-.02l-.1-.12s-.01-.02-.01-.03c0-.03,.01-.04,.04-.04,0,0,.04,.01,.08,.04,.05,.03,.09,.06,.1,.08,.02-.04,.04-.09,.06-.12,.01-.03,.02-.05,.02-.06,0-.02-.01-.03-.03-.03h-.2s-.01,0-.02,0c-.01,0-.02-.02-.02-.04s0-.03,.02-.04c0,0,0,0,.02,0,0,0,0,0,.01,0h.39c.05,0,.09,.02,.1,.05v.02s.02,.02,.03,.03l.02,.05,.07-.11s.03-.03,.06-.03c.06,0,.08,.03,.08,.09,0,.02-.01,.04-.03,.06s-.07,.05-.14,.08c.02,.04,.04,.07,.06,.1l.02-.02s.02-.02,.03-.04l.03-.04s.02-.02,.02-.03c.02-.02,.04-.03,.05-.03,.05,0,.08,.03,.08,.09,0,.02,0,.04-.03,.06-.02,.02-.07,.05-.15,.09,.04,.05,.11,.13,.2,.23,0,.01,.01,.02,.01,.03,0,.03-.01,.05-.04,.05-.03,0-.11-.06-.23-.18,0,.02,0,.03,0,.04,0,.01-.02,.02-.04,.02h-.44s0,0-.01,0c0,0-.01,0-.02,0-.01,0-.02-.02-.02-.04s0-.03,.02-.04c0,0,0,0,.02,0,0,0,0,0,.02,0h.44Zm-.71,1.17s0,0-.01,0c0,0-.01,0-.02,0-.01,0-.02-.02-.02-.04,0-.02,0-.03,.02-.04,0,0,.01,0,.02,0,0,0,0,0,.01,0h.95s0,0,.01,0c0,0,.01,0,.02,0,.01,0,.02,.02,.02,.04,0,.02,0,.03-.02,.04,0,0,0,0-.02,0,0,0,0,0-.01,0h-.95Zm.88-.61c0,.1-.05,.16-.16,.16h-.48c-.06,0-.1-.01-.13-.04-.02-.02-.03-.06-.03-.11v-.15c0-.1,.05-.16,.16-.16h.48c.06,0,.1,.01,.13,.04,.02,.02,.03,.06,.03,.11v.15Zm-.69,.18s.02,0,.04,.03c.02,.02,.04,.04,.07,.06,.06,.06,.09,.11,.09,.13,0,.07-.03,.1-.1,.1-.02,0-.04,0-.06-.03,0-.01-.02-.03-.03-.06l-.03-.11s-.01-.04-.02-.06c0-.02,0-.03,0-.03,0-.03,.01-.04,.04-.04Zm.51-.32c0-.06-.03-.08-.08-.08h-.29s-.07,.03-.07,.08v.12c0,.05,.02,.08,.07,.08h.29s.08-.03,.08-.08v-.12Zm-.14,.59l.04-.13c.02-.09,.06-.14,.1-.14,.07,0,.1,.04,.1,.11,0,.04-.03,.08-.09,.15-.06,.06-.09,.09-.12,.09-.03,0-.04-.01-.04-.04,0,0,0-.01,0-.02Z"/>
        <path class="cls-1" d="M23.61,.77V.13s0-.01,0-.02c0-.02,0-.03,.01-.05,.02-.04,.05-.05,.09-.05,.04,0,.07,.02,.09,.06v.02s.01,.02,.01,.02c0,0,0,.01,0,.02V.77h.66s0,0,.01,0c0,0,.01,0,.02,0,.01,0,.02,.02,.02,.04,0,.02,0,.03-.02,.04,0,0,0,0-.02,0,0,0,0,0-.02,0h-.46v.77c0,.06,.03,.09,.08,.09h.08s.08,0,.1-.02c.02-.02,.04-.07,.06-.16,.02-.09,.05-.14,.1-.14,.07,0,.1,.03,.1,.1,0,.02,0,.05-.02,.09-.01,.05-.03,.09-.04,.12-.02,.04-.05,.07-.08,.08-.02,0-.05,.01-.1,.01h-.29c-.06,0-.11-.01-.13-.04-.04-.03-.05-.08-.05-.15V.87h-.24c0,.09,0,.17,0,.24,0,.08-.02,.14-.03,.2-.03,.12-.08,.22-.16,.3-.05,.05-.1,.09-.16,.12-.04,.03-.09,.05-.14,.07l-.06,.02-.09,.02s-.04-.01-.04-.04c0-.01,0-.02,.01-.03,0,0,.01,0,.03-.02l.11-.05c.15-.08,.24-.18,.29-.32,.02-.06,.03-.14,.04-.23,0-.04,0-.08,0-.13,0-.02,0-.04,0-.07v-.08s-.44,0-.44,0c0,0-.01,0-.02,0,0,0-.01,0-.02,0-.01,0-.02-.02-.02-.04,0-.02,0-.03,.02-.04,0,0,0,0,.02,0,0,0,0,0,.02,0h.67Zm-.5-.64s.04,.03,.06,.05l.11,.1,.06,.06s.04,.05,.06,.07c.04,.05,.07,.1,.07,.12,0,.03-.01,.06-.04,.09-.03,.02-.05,.04-.09,.04-.03,0-.05,0-.06-.03,0,0-.02-.03-.03-.06-.04-.1-.11-.23-.2-.38,0-.01-.01-.02-.01-.03,0-.03,.01-.05,.04-.05,0,0,.02,0,.04,.02Zm1.23,.02s.04,.05,.04,.09c0,.03-.02,.07-.07,.12-.02,.02-.04,.05-.06,.07l-.06,.06s-.08,.08-.12,.11c-.05,.04-.08,.07-.09,.07-.03,0-.04-.02-.04-.05,0-.01,0-.03,.02-.04,.04-.06,.07-.12,.1-.18,.04-.08,.07-.15,.1-.21v-.03s.02-.02,.03-.03c.02-.02,.04-.03,.07-.03s.06,.01,.09,.04Z"/>
        <path class="cls-1" d="M26.19,1c-.04,.08-.07,.15-.11,.22-.03,.05-.06,.09-.08,.14-.03,.04-.04,.06-.05,.07,0,0-.02,.01-.03,.01-.03,0-.04-.02-.04-.05,0-.01,0-.03,.01-.04l.07-.11c.03-.06,.06-.12,.08-.18,.03-.08,.06-.16,.08-.24,.03-.09,.04-.19,.06-.29h-.23s0,0-.01,0c0,0-.01,0-.02,0-.01,0-.02-.02-.02-.04,0-.02,0-.03,.02-.04,0,0,0,0,.02,0,0,0,.01,0,.02,0h.24V.12s0-.01,0-.02c0-.02,0-.03,.01-.04,.01-.03,.04-.05,.08-.05s.07,.02,.08,.05c0,.01,0,.03,0,.04,0,0,0,.01,0,.02V.44h.23s0,0,.01,0c0,0,.01,0,.02,0,.01,0,.02,.02,.02,.04,0,.01,0,.02,0,.03,0,0,0,0-.01,.01,0,0-.01,0-.02,0,0,0,0,0-.01,0h-.23s.01,.08,.04,.15c.01,.05,.03,.1,.05,.14,.02,.04,.04,.08,.06,.11,.02,.03,.04,.06,.05,.09,.01,.02,.03,.04,.04,.06,.01,.02,.02,.03,.02,.04,0,.03-.01,.05-.04,.05-.01,0-.04-.03-.09-.08-.04-.05-.09-.11-.13-.18v.82s0,.01,0,.02c0,.02,0,.03,0,.04-.01,.03-.04,.05-.08,.05s-.07-.02-.08-.05c0-.01,0-.03,0-.04,0,0,0-.01,0-.02v-.73Zm.81-.03c-.04,.07-.08,.15-.13,.22-.04,.06-.09,.12-.13,.17-.09,.1-.14,.15-.17,.15-.03,0-.04-.02-.04-.05,0-.01,0-.03,.02-.04,.12-.15,.22-.3,.29-.46,.07-.15,.12-.3,.14-.44h-.25s0,0-.01,0c0,0-.01,0-.02,0-.01,0-.02-.02-.02-.04,0-.02,0-.03,.02-.04,0,0,.01,0,.02,0,0,0,0,0,.02,0h.27V.12s0-.01,0-.02c0-.02,0-.03,.01-.04,.01-.03,.04-.05,.08-.05s.07,.02,.08,.05c0,.01,0,.03,0,.04,0,0,0,.01,0,.02V.44h.3s0,0,.01,0c0,0,.01,0,.02,0,.01,0,.02,.02,.02,.04,0,.02,0,.03-.02,.04,0,0,0,0-.02,0,0,0,0,0-.01,0h-.27c.02,.12,.05,.23,.08,.34,.03,.09,.06,.17,.1,.25,.03,.06,.06,.12,.09,.17l.06,.08s.02,.03,.02,.04c0,.03-.01,.05-.04,.05-.02,0-.07-.04-.13-.13-.03-.04-.07-.09-.1-.15-.04-.06-.07-.13-.1-.2v.76s0,.01,0,.02c0,.02,0,.03,0,.04-.01,.03-.04,.05-.08,.05s-.07-.02-.08-.05c0-.01,0-.03,0-.04,0,0,0-.01,0-.02V.97Z"/>
        <path class="cls-1" d="M28.7,.12s0-.01,0-.02c0-.02,0-.03,.01-.04,.01-.03,.04-.05,.08-.05s.07,.02,.09,.05c0,.01,0,.03,.01,.04,0,0,0,.01,0,.02v.46h.67s0,0,.01,0c0,0,.01,0,.02,0,.01,0,.02,.02,.02,.04,0,.02,0,.03-.02,.04,0,0-.01,0-.02,0,0,0,0,0-.01,0h-.66c.02,.23,.09,.44,.2,.62,.12,.19,.27,.33,.46,.43,.03,.02,.05,.03,.05,.05,0,.03-.01,.05-.04,.05,0,0-.01,0-.03,0-.02,0-.04-.02-.07-.03-.03-.02-.06-.03-.1-.05-.04-.02-.08-.05-.12-.08-.04-.03-.08-.07-.12-.1-.04-.04-.09-.08-.12-.13-.09-.11-.16-.23-.21-.36-.06,.14-.13,.25-.2,.34-.08,.11-.19,.2-.31,.28-.05,.03-.11,.07-.16,.09-.05,.03-.09,.04-.1,.04-.03,0-.04-.01-.04-.05,0-.01,0-.02,.01-.03l.05-.03s.02-.01,.04-.02c.03-.02,.06-.04,.08-.06,.04-.02,.07-.05,.1-.08,.04-.03,.07-.07,.11-.11,.04-.04,.07-.09,.1-.14,.04-.06,.07-.11,.09-.17,.06-.14,.1-.29,.11-.46h-.65s-.01,0-.02,0c0,0-.01,0-.02,0-.01,0-.02-.02-.02-.04,0-.02,0-.03,.02-.04,0,0,0,0,.02,0,0,0,0,0,.01,0h.66s0-.05,0-.1V.12Z"/>
        <path class="cls-1" d="M31.5,1.11h.02s.02,0,.03,0c.02,0,.04,0,.06,.02,.05,.02,.07,.07,.07,.14,0,.05,0,.11,0,.18,0,.08-.02,.14-.03,.18-.02,.09-.05,.14-.1,.17-.02,.01-.04,.02-.07,.02h-.04s-.21,0-.21,0c0,0,0,0-.01,0,0,0-.01,0-.02,0,0,0-.01,0-.01-.01,0,0,0-.02,0-.03,0-.02,0-.03,.02-.04,0,0,0,0,.02,0,0,0,0,0,.01,0h.1s.07-.01,.09-.04c0,0,.02-.02,.02-.04v-.04s.02-.05,.02-.09c0-.03,0-.07,.01-.11v-.15s-.01-.07-.05-.07h-.93c-.05,.06-.09,.12-.14,.18-.04,.05-.08,.09-.11,.12-.06,.06-.1,.1-.12,.1-.03,0-.04-.01-.04-.04,0-.02,0-.03,.03-.05,.13-.13,.25-.28,.34-.46,.1-.18,.17-.38,.22-.59h-.5s0,0-.01,0c0,0-.01,0-.02,0-.01,0-.02-.02-.02-.04,0-.02,0-.03,.02-.04,0,0,0,0,.02,0,0,0,0,0,.01,0h.52l.04-.29h0s0-.04,.01-.05c.02-.03,.04-.04,.08-.04,.03,0,.05,0,.07,.03,.02,.02,.04,.05,.04,.08,0,.06-.01,.15-.04,.26h.48c.08,0,.12,.03,.12,.1,0,.02,0,.04-.02,.09l-.04,.17c.09,0,.13,.03,.13,.1,0,0,0,.02,0,.04l-.05,.25Zm-1.13-.87s-.05-.08-.1-.15c0-.01-.01-.02-.01-.03,0-.03,.01-.04,.04-.04,0,0,.02,0,.05,.02,.03,.02,.06,.03,.09,.05,.04,.02,.06,.05,.08,.07,.03,.03,.04,.05,.04,.08,0,.07-.03,.1-.09,.1-.03,0-.06-.03-.1-.09Zm.17,1.16s0,.04,0,.08c0,.05-.02,.1-.03,.14-.03,.13-.07,.19-.12,.19-.07,0-.1-.03-.1-.1,0-.02,.02-.06,.06-.12,.02-.03,.03-.05,.05-.08,.02-.04,.04-.08,.06-.13,.01-.03,.03-.04,.04-.04,.03,0,.04,.02,.04,.05Zm.18-.58s-.05,.09-.07,.13c-.03,.05-.06,.1-.1,.16h.75l.05-.24s0-.01,0-.02c0-.01,0-.02-.01-.03h-.01s-.62,0-.62,0Zm-.05,.89v-.26c0-.07,.02-.1,.05-.1,.01,0,.02,0,.03,.02,0,.01,.02,.04,.04,.09,.04,.12,.06,.2,.06,.25,0,.07-.03,.1-.1,.1-.05,0-.08-.03-.08-.09Zm.57-.98l.05-.22v-.02s0-.02-.01-.03h-.01s-.4,0-.4,0l-.03,.11s-.03,.1-.06,.16h.47Zm-.19,1s-.07-.05-.08-.15c0-.04-.01-.07-.02-.1l-.03-.1v-.02s.01-.04,.04-.04c.01,0,.04,.03,.08,.09l.03,.05s.02,.04,.04,.06c.03,.06,.04,.09,.04,.11,0,.06-.03,.09-.09,.09Zm.26-.14s-.06-.04-.08-.11l-.04-.09s-.02-.04-.02-.05c0-.02-.01-.02-.01-.03,0-.03,.01-.05,.04-.05,0,0,.02,0,.04,.03,.02,.02,.05,.04,.07,.06,.06,.06,.09,.11,.09,.14,0,.06-.03,.09-.09,.09Z"/>
        <path class="cls-1" d="M32.23,1.68s0,0,0,.01c0,0-.02,.01-.03,.01-.03,0-.04-.02-.04-.05,0,0,0-.01,0-.02l.69-1.52s.02-.03,.04-.03c.03,0,.04,.02,.04,.05,0,0,0,.01,0,.02l-.69,1.52Z"/>
        <path class="cls-1" d="M33.54,.47v.28c0,.12-.02,.2-.03,.23-.01,.04-.03,.05-.07,.05-.06,0-.09-.03-.09-.1,0-.02,0-.04,.01-.07,.03-.11,.06-.26,.08-.45,0-.03,.02-.04,.04-.04,.03,0,.04,.03,.04,.1Zm.25,.35s0,.07,0,.09c0,.07,0,.13,.01,.17,.02,.11,.05,.22,.11,.33l.04,.06s.02,.02,.02,.03c0,.01,0,.02,0,.02,0,.03-.01,.04-.04,.04-.02,0-.05-.03-.09-.09-.04-.06-.09-.12-.13-.19-.03,.1-.06,.18-.1,.26-.05,.09-.1,.18-.17,.26-.01,.01-.02,.02-.04,.02-.03,0-.04-.01-.04-.05,0,0,0-.02,.01-.04,.16-.26,.24-.59,.24-.96V.11s0-.01,0-.02c0-.01,0-.03,0-.04,.01-.03,.04-.04,.07-.04s.06,.01,.07,.04c0,.01,0,.02,0,.04,0,0,0,.01,0,.02V.49l.06-.12s.03-.04,.06-.04c.06,0,.09,.03,.09,.1,0,.01,0,.03-.02,.05-.01,.02-.03,.04-.05,.06-.02,.02-.04,.04-.07,.06l-.06,.05v.15Zm.89-.2s.01,0,.02,0c-.05-.05-.09-.1-.12-.14-.04-.05-.08-.12-.13-.19-.04,.07-.09,.15-.15,.22-.05,.06-.1,.12-.16,.17-.11,.1-.18,.16-.21,.16-.03,0-.04-.01-.04-.05,0,0,0-.01,0-.02h0c.11-.12,.19-.2,.23-.27,0,0-.01,0-.01,0,0,0,0,0-.01,0,0,0,0,0-.02-.02l-.1-.12s-.01-.02-.01-.03c0-.03,.01-.04,.04-.04,0,0,.04,.01,.08,.04,.05,.03,.09,.06,.1,.08,.02-.04,.04-.09,.06-.12,.01-.03,.02-.05,.02-.06,0-.02-.01-.03-.03-.03h-.2s-.01,0-.02,0c-.01,0-.02-.02-.02-.04s0-.03,.02-.04c0,0,0,0,.02,0,0,0,0,0,.01,0h.39c.05,0,.09,.02,.1,.05v.02s.02,.02,.03,.03l.02,.05,.07-.11s.03-.03,.06-.03c.06,0,.08,.03,.08,.09,0,.02-.01,.04-.03,.06s-.07,.05-.14,.08c.02,.04,.04,.07,.06,.1l.02-.02s.02-.02,.03-.04l.03-.04s.02-.02,.02-.03c.02-.02,.04-.03,.05-.03,.05,0,.08,.03,.08,.09,0,.02,0,.04-.03,.06-.02,.02-.07,.05-.15,.09,.04,.05,.11,.13,.2,.23,0,.01,.01,.02,.01,.03,0,.03-.01,.05-.04,.05-.03,0-.11-.06-.23-.18,0,.02,0,.03,0,.04,0,.01-.02,.02-.04,.02h-.44s0,0-.01,0c0,0-.01,0-.02,0-.01,0-.02-.02-.02-.04s0-.03,.02-.04c0,0,0,0,.02,0,0,0,0,0,.02,0h.44Zm-.71,1.17s0,0-.01,0c0,0-.01,0-.02,0-.01,0-.02-.02-.02-.04,0-.02,0-.03,.02-.04,0,0,.01,0,.02,0,0,0,0,0,.01,0h.95s0,0,.01,0c0,0,.01,0,.02,0,.01,0,.02,.02,.02,.04,0,.02,0,.03-.02,.04,0,0,0,0-.02,0,0,0,0,0-.01,0h-.95Zm.88-.61c0,.1-.05,.16-.16,.16h-.48c-.06,0-.1-.01-.13-.04-.02-.02-.03-.06-.03-.11v-.15c0-.1,.05-.16,.16-.16h.48c.06,0,.1,.01,.13,.04,.02,.02,.03,.06,.03,.11v.15Zm-.69,.18s.02,0,.04,.03c.02,.02,.04,.04,.07,.06,.06,.06,.09,.11,.09,.13,0,.07-.03,.1-.1,.1-.02,0-.04,0-.06-.03,0-.01-.02-.03-.03-.06l-.03-.11s-.01-.04-.02-.06c0-.02,0-.03,0-.03,0-.03,.01-.04,.04-.04Zm.51-.32c0-.06-.03-.08-.08-.08h-.29s-.07,.03-.07,.08v.12c0,.05,.02,.08,.07,.08h.29s.08-.03,.08-.08v-.12Zm-.14,.59l.04-.13c.02-.09,.06-.14,.1-.14,.07,0,.1,.04,.1,.11,0,.04-.03,.08-.09,.15-.06,.06-.09,.09-.12,.09-.03,0-.04-.01-.04-.04,0,0,0-.01,0-.02Z"/>
        <path class="cls-1" d="M35.86,.44h-.08s-.07,.03-.07,.08v.44s.65,0,.65,0c0,0,0,0,.01,0,0,0,.01,0,.02,0,.01,0,.02,.02,.02,.04,0,.02,0,.03-.02,.04,0,0-.01,0-.02,0,0,0,0,0-.02,0h-.66c-.01,.14-.03,.26-.06,.38-.03,.14-.08,.25-.13,.34-.01,.02-.03,.03-.04,.03-.03,0-.04-.02-.04-.05v-.03c.03-.05,.04-.11,.05-.18,.01-.06,.02-.13,.03-.2,0-.06,.01-.13,.01-.21,0-.06,0-.13,0-.19v-.43c0-.05,.01-.09,.03-.11,.02-.03,.07-.04,.13-.04h.2V.12s0-.05,.02-.07c.01-.02,.04-.04,.07-.04,.04,0,.06,.01,.07,.04,0,.01,0,.03,0,.04,0,0,0,.01,0,.02v.02h.26s0,0,.01,0c0,0,.01,0,.01,0,.01,0,.02,.02,.02,.04,0,.02,0,.03-.02,.04,0,0,0,0-.02,0,0,0,0,0-.01,0h-.26v.13h.23c.09,0,.14,.05,.14,.14v.05s0,.05-.01,.07c-.01,.02-.04,.03-.07,.03s-.05-.01-.07-.04c0-.02-.01-.04-.01-.06v-.05s-.01-.05-.04-.05h-.2v.14l.17-.02s.05,.01,.05,.04c0,.03-.01,.04-.04,.04l-.17,.02v.06s.02,.07,.07,.07h.08s.06-.02,.07-.05c0,0,0-.01,0-.02h.01s.03-.03,.04-.03c.05,0,.08,.03,.08,.08,0,.03-.02,.06-.05,.08h-.01s-.01,.01-.02,.01c-.02,0-.04,0-.08,0h-.22c-.1,0-.15-.05-.15-.14v-.06h-.09s-.05,0-.05-.03c0-.02,0-.03,.02-.04,0,0,0,0,.01,0h.11v-.17Zm-.11,.84c0-.09,.05-.14,.14-.14h.31c.1,0,.14,.05,.14,.14v.05s0,.06-.02,.08c-.02,.03-.04,.05-.08,.05v.02s.02,.02,.02,.04c0,.02-.01,.04-.03,.07l-.05,.05s.02,0,.03,0l.12-.02s.04,.02,.04,.05c0,.01,0,.02-.01,.03,0,0,0,0-.01,0h0s-.07,.03-.13,.04c-.06,.01-.12,.02-.19,.04-.16,.03-.26,.04-.29,.04-.04,0-.06-.02-.06-.07,0-.03,0-.05,.03-.06,0,0,0,0,.02,0h.03s.08,0,.15-.01c-.01,0-.02-.01-.02-.02v-.03s-.02-.01-.02-.02l-.03-.1s0-.02,0-.02c0,0,0,0,.01-.01-.06-.02-.08-.06-.08-.13v-.05Zm.14,.19s0,0,.01,0c0,0,0,0,.01,0l.04,.03s.04,.05,.04,.08c0,.03-.01,.06-.04,.07h.13s0-.03,0-.03l.03-.13v-.03s-.23,0-.23,0Zm.3-.18s-.02-.06-.05-.06h-.18s-.05,.02-.05,.06v.03s.02,.06,.05,.06h.18s.05-.02,.05-.06v-.03Zm.26-.53s-.02,0-.03,0c0,0-.01,0-.02-.01,0,0,0,0,0-.02,0,0,0,0,0,0,0,0,0-.02,0-.03,0-.01,.02-.02,.04-.02h.07c0-.14,0-.3,0-.48,0-.06,0-.1,0-.11,0-.02,0-.03,.01-.04,.02-.02,.04-.03,.07-.03,.05,0,.08,.02,.08,.06,0,0,0,.03,0,.08V.43s0,.06,0,.09c0,.06,0,.1,0,.12l.32-.05s.02,0,.03,0c0,0,.01,0,.02,.01s0,.01,0,.02h0s-.01,.06-.04,.06l-.33,.05c.01,.19,.03,.34,.05,.45,.04-.1,.08-.2,.11-.31v-.02s.02-.02,.02-.02c.01-.02,.03-.02,.06-.02,.07,0,.1,.03,.1,.09,0,.03-.02,.08-.05,.17-.02,.05-.05,.1-.07,.15-.03,.06-.07,.12-.11,.18,.02,.06,.04,.11,.07,.15,.03,.04,.04,.06,.06,.06,0,0,.02,0,.02-.03l.02-.06c.02-.07,.04-.11,.08-.11,.05,0,.08,.03,.08,.08,0,.01,0,.03-.01,.07,0,.04-.02,.08-.04,.11-.02,.04-.04,.08-.07,.11-.03,.03-.06,.04-.09,.04-.05,0-.1-.03-.15-.1-.02-.02-.04-.05-.05-.08-.01-.02-.02-.05-.04-.08-.04,.04-.08,.08-.11,.12-.03,.03-.06,.06-.09,.08-.05,.04-.09,.07-.1,.07-.03,0-.04-.01-.04-.04,0,0,0-.02,0-.02,0,0,0-.01,.01-.02,.06-.06,.11-.12,.16-.18,.04-.04,.07-.1,.11-.16-.03-.1-.05-.21-.07-.34,0-.05-.01-.11-.02-.17v-.15s-.07,0-.07,0Zm.43-.64s.05,.04,.07,.07c.07,.07,.1,.13,.1,.16,0,.07-.03,.11-.1,.11-.03,0-.05,0-.06-.03,0-.02-.03-.06-.05-.13l-.05-.14s0-.02,0-.03c0-.03,.01-.04,.04-.04,0,0,.03,0,.05,.03Z"/>
        <path class="cls-1" d="M38.67,.5s.05-.01,.07-.02c.04,0,.06-.01,.09-.02l-.04-.1s0-.02,0-.02c0-.03,.01-.04,.04-.04,.02,0,.06,.03,.11,.1,.05,.07,.08,.12,.08,.15,0,.06-.03,.08-.08,.08-.03,0-.05-.03-.07-.09l-.07,.04s-.07,.03-.1,.05c-.04,.02-.07,.03-.1,.04-.03,.01-.05,.02-.07,.02-.04,0-.07-.03-.07-.09,0-.03,0-.05,.03-.06h.02s.02-.02,.02-.02V.24s.01-.09,.04-.11c.01,0,.02-.02,.04-.02,.01,0,.02,0,.04,0,.05,0,.09-.02,.14-.03,0,0,.02,0,.03-.01l.08-.03s.02,0,.02,0c.02,0,.03,0,.05,.03,.01,.02,.02,.03,.02,.05,0,.03-.02,.05-.05,.06-.04,.01-.1,.02-.2,.02-.03,0-.05,.02-.05,.06v.27Zm.8,.62s-.01,0-.03,0c-.02,0-.04-.02-.06-.03-.03-.01-.07-.03-.1-.06-.04-.03-.09-.06-.13-.1-.03-.02-.04-.04-.06-.05l-.04-.03s-.01,0-.02,0c0,0,0,0-.01,0h-.02c-.13,.12-.29,.21-.46,.27h-.01s-.01,0-.01,0c-.03,0-.04-.01-.04-.04,0-.01,0-.03,.01-.03h.02c.1-.06,.18-.11,.24-.17,.03-.02,.05-.05,.08-.08l.09-.1s.01-.01,.02-.02c.02-.01,.05-.02,.09-.02,.04,0,.07,0,.1,.03,.01,0,.02,.02,.03,.03l.03,.04c.04,.06,.08,.11,.12,.15,.02,.02,.05,.04,.08,.06l.1,.07s.02,.02,.02,.04c0,.03-.01,.04-.04,.04Zm-.55,.22h-.33s-.01,0-.02,0c0,0-.01,0-.02,0-.01,0-.02-.02-.02-.04,0-.02,0-.03,.02-.04,0,0,.01,0,.02,0,0,0,0,0,.02,0h.33v-.13h-.12s-.01,0-.02,0c0,0-.01,0-.02,0-.01,0-.02-.02-.02-.04,0-.02,0-.03,.02-.04,0,0,0,0,.02,0h.45s.01,0,.02,0c.01,0,.02,.02,.02,.04s0,.03-.02,.04c0,0,0,0-.02,0,0,0,0,0-.01,0h-.13v.13h.3s.01,0,.02,0c0,0,.01,0,.02,0,.01,0,.02,.02,.02,.04,0,.02,0,.03-.02,.04,0,0,0,0-.02,0,0,0,0,0-.01,0h-.3v.3s.08,0,.14-.01l.15-.02s.04,0,.05,0c.03,0,.04,.02,.04,.05,0,.02,0,.03-.02,.04-.01,0-.05,.01-.12,.03-.09,.01-.18,.03-.27,.04-.08,.01-.16,.02-.24,.03l-.17,.02s-.07,0-.08,0c-.05,0-.07-.03-.07-.08,0-.05,.03-.07,.08-.08h.27s.06,0,.07,0v-.31Zm-.15,.29s-.06-.03-.08-.1l-.03-.07s-.01-.03-.02-.04c0-.01,0-.02,0-.02,0-.03,.01-.04,.04-.04,0,0,.02,0,.04,.02,.02,.01,.04,.03,.06,.05,.05,.05,.08,.08,.08,.11,0,.06-.03,.09-.08,.09Zm.29-1.46s-.01,0-.02,0c0,0-.01,0-.02,0-.01,0-.02-.02-.02-.04,0-.02,0-.03,.02-.04,0,0,0,0,.02,0,0,0,0,0,.01,0h.35c.08,0,.12,.04,.12,.11,0,.03,0,.09-.01,.17,0,.04,0,.07-.01,.1,0,.03,0,.06-.01,.07-.01,.05-.04,.08-.07,.1-.03,.02-.06,.03-.1,.03h-.08s-.01,0-.02,0c0,0-.01,0-.02,0-.01,0-.02-.02-.02-.04,0-.03,.02-.04,.05-.04h.04s.05-.03,.06-.08c.02-.11,.03-.2,.03-.28,0-.03-.01-.04-.04-.04h-.06c0,.08-.03,.16-.05,.23-.02,.06-.04,.11-.07,.15-.02,.03-.04,.06-.07,.08-.02,.02-.03,.03-.04,.03-.03,0-.04-.02-.04-.05,0-.01,0-.02,.01-.04,.06-.11,.1-.24,.1-.4h-.07Zm.28,1.33s-.03,.04-.05,.06c-.05,.04-.08,.06-.1,.06-.03,0-.04-.01-.04-.04,0,0,0-.01,0-.02l.04-.09c.02-.06,.05-.09,.07-.09,.06,0,.09,.03,.09,.08,0,.01,0,.03-.02,.05Zm.39-.17s0,.01,0,.02c0,.01,0,.03,0,.04-.01,.03-.04,.04-.07,.04s-.06-.01-.07-.04c0-.02-.01-.04-.01-.08V.28s0-.01,0-.02c0-.01,0-.03,0-.04,.01-.03,.04-.04,.07-.04s.06,.01,.07,.04c0,.02,.01,.04,.01,.08V1.34Zm.3,.3c0,.12-.06,.18-.18,.18h-.17s-.01,0-.02,0c0,0-.01,0-.02,0-.01,0-.02-.02-.02-.04,0-.02,0-.03,.02-.04,0,0,0,0,.02,0,0,0,0,0,.01,0h.1c.05,0,.08-.03,.08-.08V.13s0-.01,0-.02c0-.01,0-.03,0-.04,.01-.03,.04-.05,.08-.05s.06,.02,.08,.05c0,.01,0,.03,0,.04,0,0,0,.01,0,.02V1.64Z"/>
        <path class="cls-1" d="M40.87,.61s0,0-.01,0c0,0-.01,0-.02,0-.01,0-.02-.02-.02-.04,0-.02,0-.03,.02-.04,0,0,0,0,.02,0,0,0,0,0,.01,0h.99s0,0,.01,0c0,0,.01,0,.02,0,.01,0,.02,.02,.02,.04s0,.03-.02,.04c0,0,0,0-.02,0,0,0,0,0-.01,0h-.18c0,.12,.01,.22,.03,.31,.03-.03,.06-.06,.09-.08l.07-.07s.04-.04,.07-.04c.07,0,.1,.04,.1,.11,0,.03-.02,.06-.05,.08-.04,.03-.12,.06-.24,.11,.02,.08,.05,.16,.08,.23,.03,.06,.06,.12,.1,.17,.03,.04,.07,.09,.11,.13,.03,.03,.06,.06,.09,.09,0,0,.01,.01,.01,.02,0,0,0,.01,0,.02,0,.03-.01,.05-.04,.05-.02,0-.05-.02-.11-.07-.06-.05-.12-.11-.17-.16-.04-.04-.07-.09-.1-.14-.04-.06-.07-.12-.1-.19-.03-.08-.06-.16-.08-.25-.02-.1-.04-.2-.04-.31h-.11s0,.01,0,.01c0,0,0,0-.01,.01l-.02,.03s-.04,.04-.06,.06c.06,.05,.1,.11,.14,.17,.03,.06,.06,.12,.08,.19,.02,.06,.03,.12,.04,.19,0,.06,.01,.12,.01,.18,0,.11-.02,.2-.05,.26-.04,.08-.1,.12-.18,.12h-.25s0,0-.01,0c0,0-.01,0-.02,0-.01,0-.02-.02-.02-.04,0-.02,0-.03,.02-.04,0,0,0,0,.02,0,0,0,0,0,.01,0h.13s.05,0,.06,0c.02,0,.04-.02,.05-.05,.02-.03,.03-.07,.04-.12,0-.06,.01-.14,.01-.24-.07,.07-.16,.13-.25,.18-.08,.05-.16,.09-.25,.12-.04,.01-.07,.03-.11,.04l-.08,.03s-.08,.02-.08,.02c-.02,0-.04-.01-.04-.04,0-.02,.01-.04,.04-.05,.14-.05,.27-.12,.39-.2,.14-.09,.26-.19,.36-.31-.01-.04-.02-.07-.03-.09-.06,.06-.13,.11-.21,.16-.07,.04-.14,.08-.21,.12-.06,.03-.12,.05-.17,.07-.04,.02-.07,.02-.08,.02-.03,0-.04-.02-.04-.05,0-.02,.01-.04,.04-.04,.04-.02,.09-.04,.14-.06,.05-.03,.11-.06,.16-.1,.06-.04,.11-.08,.17-.13,.06-.05,.11-.1,.15-.16,0-.02-.02-.03-.03-.04l-.02-.03s-.1,.08-.17,.12c-.06,.04-.11,.07-.17,.09-.04,.02-.09,.04-.13,.06-.02,0-.04,.02-.06,.02-.02,0-.03,0-.03,0-.03,0-.04-.01-.04-.04,0-.01,0-.02,.01-.03h.01s.01-.02,.01-.02c.07-.03,.14-.07,.2-.11,.05-.03,.1-.07,.14-.11,.03-.03,.06-.06,.09-.09l.03-.04,.02-.03h-.28Zm.4-.38v-.1s0-.05,.02-.07c.02-.03,.04-.04,.08-.04h0s0,0,.01,0c.01,0,.02,0,.03,.01,.03,.02,.04,.05,.04,.1v.1h.52c.11,0,.16,.05,.16,.16v.11s0,.01,0,.02c0,.02,0,.03-.01,.04-.01,.03-.04,.05-.08,.05s-.07-.02-.08-.05c0-.01,0-.03-.01-.04,0,0,0-.01,0-.02v-.09c0-.06-.02-.08-.07-.08h-1.02s-.07,.03-.07,.08v.09s0,.01,0,.02c0,.02,0,.03,0,.04-.01,.03-.04,.05-.08,.05s-.07-.02-.08-.05c0-.01,0-.03-.01-.04,0,0,0-.01,0-.02v-.11c0-.1,.05-.16,.16-.16h.51Z"/>
        <path class="cls-1" d="M43.11,.89h.17s.01,0,.02,0c0,0,.01,0,.02,0,.01,0,.02,.02,.02,.04,0,.02,0,.03-.02,.04,0,0,0,0-.02,0,0,0,0,0-.01,0h-.17v.59s0,0,.02,0l.2-.06s.04-.01,.04-.01c.03,0,.04,.02,.04,.05,0,.02,0,.03-.02,.04,0,0-.04,.02-.09,.04-.07,.03-.18,.08-.33,.13-.07,.02-.12,.04-.17,.06-.05,.02-.08,.02-.08,.02-.05,0-.07-.03-.07-.09,0-.04,.02-.06,.05-.08h.05s.04-.02,.07-.03c.05-.01,.09-.02,.12-.02V.98h-.24s0,0-.01,0c0,0-.01,0-.02,0-.01,0-.02-.02-.02-.04,0-.02,0-.03,.02-.04,0,0,0,0,.02,0,0,0,0,0,.01,0h.24v-.23h-.1s-.06-.02-.05-.06l-.07,.06s-.05,.04-.06,.04c-.03,0-.04-.01-.04-.04,0-.01,0-.03,.03-.05,.08-.08,.14-.17,.18-.25,.02-.04,.04-.08,.05-.12l.05-.13s.03-.07,.06-.08c.02-.01,.04-.02,.08-.02,.04,0,.08,0,.09,.03,.01,.01,.04,.05,.06,.12,.02,.05,.05,.1,.07,.15l.05,.08s.02,.04,.02,.05c0,.03-.01,.05-.04,.05-.02,0-.05-.02-.09-.06-.04-.04-.08-.08-.11-.13l-.02-.03s0-.01-.01-.01c0,0,0,0-.01,0,0,0-.02,0-.03,.02-.04,.06-.07,.12-.1,.16-.04,.05-.08,.1-.13,.16,0,0,.01,0,.02,0h.39s.01,0,.02,0c0,0,.01,0,.02,0,.01,0,.02,.02,.02,.04,0,.02,0,.03-.02,.04,0,0,0,0-.02,0,0,0,0,0-.01,0h-.11v.23Zm-.35,.25s.04,.05,.06,.09c.05,.09,.08,.15,.08,.19,0,.07-.03,.11-.09,.11-.04,0-.07-.03-.08-.1-.01-.09-.03-.17-.06-.25,0-.01,0-.02,0-.03,0-.03,.01-.05,.04-.05,0,0,.02,.01,.05,.04Zm.96-.81c-.04,.05-.07,.1-.11,.14-.03,.04-.07,.08-.1,.11-.07,.06-.11,.09-.12,.09-.03,0-.04-.01-.04-.05,0,0,0-.02,.02-.04,0,0,0,0,0,0,0,0,0,0,0,0l.05-.06s.05-.07,.07-.1c.03-.04,.05-.09,.07-.14,.03-.05,.05-.11,.06-.17v-.04s.02-.03,.03-.04c.02-.03,.04-.04,.08-.04,.03,0,.05,0,.08,.03,.03,.02,.04,.05,.04,.08,0,.02,0,.03-.01,.05,0,.02-.02,.05-.05,.08h.31s.05,0,.07,.01c.02,0,.03,.02,.04,.03,0,0,.01,.02,.01,.03,0,0,0,.01,0,.02,0,.05-.04,.13-.12,.25-.05,.07-.1,.13-.16,.2-.07,.07-.14,.14-.22,.2h.34c.12,0,.18,.06,.18,.18v.45c0,.12-.06,.18-.18,.18h-.36c-.12,0-.17-.06-.17-.18v-.49l-.06,.03s-.02,.01-.03,.02c-.01,0-.02,0-.02,0,0,0-.02,0-.02,0,0,0-.01-.02-.02-.03,0,.02,0,.05-.02,.09-.01,.03-.03,.06-.05,.09v.02s-.02,.01-.02,.02l-.03,.04s-.04,.05-.06,.05c-.03,0-.04-.02-.04-.05l.05-.18v-.04s0-.01,.01-.02c0-.02,0-.03,0-.04,0-.01,0-.02,0-.02,.01-.02,.03-.03,.06-.03,0,0,.01,0,.02,0,0,0,.02,0,.03,0,.02,.01,.03,.03,.04,.06,0-.02,0-.04,.03-.05,.12-.07,.23-.16,.33-.27-.02,0-.04-.02-.05-.05-.01-.03-.03-.05-.04-.08l-.06-.08s0-.01,0-.02c0,0,0-.01,0-.02,0-.03,.01-.04,.04-.04,0,0,.02,0,.04,.02,.02,.01,.05,.03,.07,.05,.07,.05,.11,.09,.11,.11,.03-.04,.06-.08,.08-.12,.02-.04,.04-.07,.06-.1,.01-.03,.03-.05,.04-.08,0-.02,.01-.03,.01-.04,0-.02-.01-.03-.04-.03h-.25Zm.31,.84c0-.06-.03-.08-.08-.08h-.19c-.05,0-.08,.03-.08,.08v.45c0,.06,.03,.08,.08,.08h.19c.05,0,.08-.03,.08-.08v-.45Z"/>
      </g>
      <g>
        <path d="M.32,20.89s0-.03-.03-.03H.08v-.19H.46s.05,.02,.05,.04v.53s.04,.08,.07,.14c.08,.11,.26,.16,.53,.15h.13v-.22H.67v-.17h.58v-.13h-.49v-.16h.49v-.14H.7v-.16h.3c-.04-.09-.07-.16-.09-.22h-.28v-.17h.63v-.14H.72v-.17h.54v-.13h.19v.13h.55v.17h-.55v.14h.65v.17h-.32c-.02,.07-.04,.15-.06,.22h.33v.16h-.59v.14h.52v.16h-.52v.13h.63v.17h-.63v.21c.25-.01,.47-.02,.66-.03l-.04,.2c-.38,0-.74,0-1.06,0-.28-.02-.47-.1-.56-.26-.02,.05-.06,.1-.13,.16-.08,.06-.15,.1-.21,.13l-.1-.17c.13-.05,.22-.09,.26-.14,.02-.04,.04-.1,.06-.15v-.38Zm-.17-.71c.12,.05,.24,.12,.38,.21l-.1,.16c-.14-.1-.27-.17-.38-.2l.1-.17Zm.05-.41c.11,.05,.23,.12,.38,.21l-.11,.16c-.15-.1-.27-.17-.37-.2l.1-.17Zm1.31,.78c.03-.09,.06-.16,.08-.22h-.49c.03,.06,.06,.14,.08,.22h.33Z"/>
        <path d="M2.69,20.51v.09c-.01,.39-.06,.75-.13,1.07l-.2-.09c.08-.31,.13-.64,.13-.98v-.66s0-.06,.04-.07c.27-.03,.52-.07,.73-.13l.08,.19c-.19,.06-.4,.1-.63,.12-.02,0-.03,.02-.03,.03v.25h.63v.19h-.22v1.22h-.2v-1.22h-.21Zm1.2,.48s-.02,.07-.04,.11c-.05,.14-.12,.25-.19,.34-.08,.1-.18,.2-.31,.3l-.15-.14s.01,0,.02,0c.38-.26,.58-.67,.58-1.23v-.24h-.14c-.04,.29-.11,.53-.2,.71l-.2-.04c.16-.35,.23-.69,.21-1.04h.19v.18h.7l.12,.07c-.04,.29-.09,.56-.17,.81l-.19-.03c.03-.08,.06-.16,.08-.23,.07-.26,.1-.4,.08-.42,0,0-.01,0-.02,0h-.28v.24s0,.02,0,.04c0,.45,.17,.87,.51,1.25l-.19,.09c-.21-.27-.35-.52-.42-.75Z"/>
        <path d="M5.74,20.68v.15h-1.08v-.15h1.08Z"/>
        <path d="M5.93,20.17v-.2h.94v-.24h.21v.24h.93v.2h-.35c-.11,.39-.29,.71-.55,.97,.27,.2,.58,.35,.92,.44l-.13,.17c-.37-.12-.68-.28-.94-.49-.07,.05-.15,.1-.22,.16-.16,.1-.38,.21-.69,.33l-.12-.17c.34-.11,.64-.26,.89-.45-.24-.23-.41-.55-.5-.96h-.38Zm.74,.45c.08,.16,.18,.29,.29,.39,.01-.02,.03-.04,.04-.04,.21-.21,.36-.48,.44-.8h-.93c.04,.18,.09,.33,.15,.45Z"/>
        <path d="M9.02,20.01v.12h-.2v-.12h-.54v-.17h.54v-.12h.2v.12h.63v-.12h.2v.12h.51v.17h-.51v.13h-.2v-.13h-.63Zm-.72,1.45v-.17h.92v-.17h-.86v-.17h.32v-.21h-.41v-.17h.41v-.21h-.32v-.17h1.9v.17h-.3v.21h.38v.17h-.38v.21h.29v.17h-.84v.17h.9v.17h-.9v.29h-.2v-.29h-.92Zm.92-1.1h-.34v.21h.34v-.21Zm0,.38h-.34v.21h.34v-.21Zm.2-.17h.35v-.21h-.35v.21Zm0,.38h.35v-.21h-.35v.21Z"/>
        <path d="M10.75,21.03l-.16-.11c.1-.08,.17-.17,.21-.26,.05-.09,.1-.23,.13-.42l.17,.04s0,.04,0,.06h.51s.07,.02,.06,.06c0,.13-.04,.29-.1,.47-.04,.1-.07,.19-.11,.27-.16,.27-.38,.46-.69,.59l-.17-.16c.27-.08,.47-.2,.6-.35-.14-.12-.25-.21-.35-.29-.04,.04-.07,.07-.11,.1Zm.61-.94v.12h-.2v-.12h-.54v-.19h.54v-.18h.2v.18h.63v-.18h.2v.18h.52v.19h-.52v.13h-.2v-.13h-.63Zm-.04,.97s.03-.07,.04-.1c.05-.09,.08-.21,.11-.37,0-.03,0-.05-.03-.05h-.38c-.02,.11-.05,.19-.09,.25,.11,.08,.22,.17,.35,.28Zm.65,.35s0,.06,0,.08c.01,.02,.03,.04,.05,.04,.07,.01,.16,.02,.27,.02s.16,0,.17,0c.02,0,.03-.02,.04-.04,.01-.04,.02-.13,.02-.27h.2c0,.22-.02,.36-.06,.42-.02,.03-.05,.05-.07,.06-.04,.02-.12,.03-.24,.03-.17,0-.32-.01-.43-.02-.04-.01-.07-.03-.09-.04-.04-.05-.05-.11-.05-.18v-1.17h.81s.04,.01,.04,.04v.59c0,.06-.03,.1-.08,.14-.07,.06-.22,.07-.46,.03v-.19c.17,.03,.28,.03,.31,0,.02-.02,.03-.04,.03-.07v-.34s0-.02-.03-.02h-.44v.9Z"/>
        <path d="M13.84,19.67l-.65,2.13h-.16l.65-2.13h.16Z"/>
        <path d="M15.21,20.69s-.02,.06-.03,.09c-.17,.4-.47,.7-.9,.92l-.14-.15c.52-.24,.84-.63,.95-1.18h-.88v-.2h.89s0-.07,0-.1v-.32h.21v.32s0,.07,0,.1h.89v.2h-.87c.01,.08,.03,.16,.04,.23,.12,.36,.42,.69,.9,.99l-.18,.13s-.09-.06-.12-.08c-.41-.29-.67-.61-.78-.95Z"/>
        <path d="M16.75,21.74h-.19v-1.93s0-.02,0-.03h.49l.13,.08-.18,.54s0,.06,0,.07c.08,.11,.14,.21,.16,.31,.05,.16,.04,.28-.04,.36-.04,.05-.09,.08-.15,.09-.07,.01-.15,0-.24-.02v.53Zm.02-1.78h-.02v1.07c.06,.03,.12,.04,.17,.03,.03,0,.05-.01,.07-.03,.07-.09,0-.28-.17-.57h0v-.02l.14-.44s0-.05-.04-.04h-.16Zm1.02,1.25h-.49v-.18h.49v-.2h.2v.2h.55v.18h-.55v.29h.64v.18h-1.5v-.18h.66v-.29Zm-.06-.76v.03s0,.08-.03,.14c-.05,.16-.18,.28-.38,.36l-.12-.14c.06-.02,.11-.04,.15-.07,.12-.07,.18-.16,.19-.28v-.03h-.36v-.17h.59v-.2h-.46v-.17h.46v-.17h.2v.17h.54v.17h-.54v.2h.62v.17h-.42v.22s0,.05,.03,.07c.02,.02,.04,.03,.06,.03h.12s.04,0,.05-.02c0,0,0-.01,0-.02,0-.03,.01-.08,.02-.14l.16,.03c-.02,.15-.04,.23-.04,.25-.04,.04-.08,.06-.12,.06h-.29s-.08-.02-.12-.06c-.04-.03-.05-.07-.05-.1v-.31h-.27Z"/>
        <path d="M19.31,20.64s0-.02,0-.02h-.32l-.07-.11,.32-.54s0,0,0,0h-.31v-.19h.5l.09,.12-.34,.54h.29s.07,.03,.07,.06c0,.28-.07,.54-.2,.78,0,0,0,0,0,0,.14,.15,.35,.22,.63,.21h1.01l-.05,.2h-.88c-.16-.01-.29-.03-.42-.05-.12-.03-.25-.1-.38-.2-.07,.11-.15,.21-.24,.31l-.16-.14c.12-.12,.21-.23,.27-.33-.07-.1-.14-.25-.2-.45l.18-.04c.04,.12,.07,.22,.12,.31,.08-.16,.12-.32,.12-.46Zm.21,.59v-.18h.56v-.12h-.47v-.18h.47v-.13h-.4v-.17h.4v-.14h-.59v-.17h.59v-.13h-.4v-.17h.4v-.14h.2v.14h.46s.06,.02,.06,.05v.25h.14v.17h-.14v.25s-.03,.06-.06,.06h-.46v.13h.55v.18h-.55v.12h.63v.18h-.63v.23h-.2v-.23h-.56Zm.76-1.08h.33v-.12s-.01,0-.02,0h-.31v.13Zm0,.31h.31s.02-.01,.02-.02v-.12h-.33v.14Z"/>
        <path d="M22.06,20.08v.18h-.86v-.18h.86Zm-.62,1.61h-.19v-.74s.03-.05,.06-.05h.63s.06,.02,.06,.05v.59s-.02,.06-.06,.06h-.5v.09Zm.51-1.33v.17h-.65v-.17h.65Zm0,.27v.17h-.65v-.17h.65Zm0-.83v.18h-.65v-.18h.65Zm-.49,1.27s-.03,0-.03,.03v.33h.34s.04-.02,.04-.03v-.3s0-.03-.03-.03h-.32Zm.97-1.09v.08c0,.22-.1,.38-.29,.49l-.12-.13s.06-.03,.08-.05c.1-.09,.15-.21,.15-.37v-.18s0-.02,0-.03c.01,0,.02,0,.03,0h.64s.02,0,.03,0c0,.01,.01,.02,.02,.03v.45s0,.05,0,.06c.01,.02,.04,.03,.07,.03h.02s.03-.01,.05-.02c.01,0,.02-.03,.02-.06v-.14l.17,.02c0,.13,0,.21,0,.25-.01,.03-.03,.05-.04,.08-.04,.03-.08,.05-.13,.05h-.16c-.06,0-.1-.02-.13-.05-.04-.04-.05-.08-.05-.12v-.37s0-.03-.03-.03h-.32s-.02,.01-.02,.02Zm-.27,1.77l-.12-.16c.18-.06,.33-.13,.45-.2-.12-.11-.23-.26-.34-.45l.16-.08c.09,.18,.2,.32,.32,.42,.18-.14,.3-.3,.34-.47v-.02s-.04,0-.05,0h-.77v-.18h.93l.11,.08c-.05,.28-.18,.51-.4,.71,.13,.08,.3,.13,.52,.17l-.1,.18c-.24-.07-.43-.15-.57-.24-.12,.07-.28,.15-.47,.24Z"/>
        <path d="M24.56,20.68v.15h-1.08v-.15h1.08Z"/>
        <path d="M24.98,20.65h-.21v-.17h.21v-.5h-.21v-.17h.62v.17h-.21v.5h.19v.17h-.19v.52c.09-.04,.16-.07,.21-.09l.08,.16c-.17,.09-.38,.18-.65,.26l-.09-.17c.08-.03,.17-.06,.26-.09v-.59Zm1.15-.11c-.11,.1-.21,.18-.3,.24,.03,.07,.06,.14,.08,.21l-.18,.05c-.02-.06-.04-.11-.06-.17-.07,.03-.13,.06-.19,.08l-.1-.15c.08-.03,.15-.06,.22-.09-.04-.08-.06-.14-.08-.16l.18-.06s.03,.08,.05,.14c.1-.07,.2-.15,.29-.24-.04-.05-.07-.1-.12-.15-.19,.11-.34,.19-.45,.22l-.1-.15c.23-.07,.43-.18,.6-.31h-.47v-.18h1.24v.18h-.5c-.06,.06-.12,.1-.17,.14,.12,.15,.21,.33,.27,.54,.05,.24,.22,.52,.51,.83l-.18,.08c-.11-.12-.21-.25-.29-.39,0,.12-.04,.23-.09,.31-.05,.11-.12,.18-.21,.21-.04,.01-.08,.01-.12,0-.05,0-.14-.03-.25-.07l.02-.19c.14,.06,.24,.08,.28,.06,.06-.02,.11-.07,.14-.14,.05-.11,.07-.24,.06-.37-.3,.26-.59,.44-.87,.53l-.11-.16c.37-.14,.69-.33,.96-.59-.01-.03-.02-.05-.02-.05-.03-.07-.05-.14-.05-.2Zm.67-.28c-.08,.1-.18,.21-.3,.33l-.14-.13c.14-.12,.24-.23,.29-.32l.15,.12Z"/>
        <path d="M27.43,21.72h-.21v-1.67s.03-.07,.07-.07h.59c.05-.11,.08-.19,.11-.25l.18,.06c-.02,.06-.04,.12-.06,.19h.87s.07,.02,.07,.07v1.67h-.21v-.09h-1.41v.09Zm.03-1.55s-.03,0-.03,.03v.52h1.41v-.52s0-.03-.03-.03h-1.36Zm1.39,1.27v-.54h-1.41v.54h1.41Z"/>
        <path d="M30.03,21.21v.25h-.28v-.25h.28Z"/>
        <path d="M30.87,20.65h-.21v-.17h.21v-.5h-.21v-.17h.62v.17h-.21v.5h.19v.17h-.19v.52c.09-.04,.16-.07,.21-.09l.08,.16c-.17,.09-.38,.18-.65,.26l-.09-.17c.08-.03,.17-.06,.26-.09v-.59Zm1.15-.11c-.11,.1-.21,.18-.3,.24,.03,.07,.06,.14,.08,.21l-.18,.05c-.02-.06-.04-.11-.06-.17-.07,.03-.13,.06-.19,.08l-.1-.15c.08-.03,.15-.06,.22-.09-.04-.08-.06-.14-.08-.16l.18-.06s.03,.08,.05,.14c.1-.07,.2-.15,.29-.24-.04-.05-.07-.1-.12-.15-.19,.11-.34,.19-.45,.22l-.1-.15c.23-.07,.43-.18,.6-.31h-.47v-.18h1.24v.18h-.5c-.06,.06-.12,.1-.17,.14,.12,.15,.21,.33,.27,.54,.05,.24,.22,.52,.51,.83l-.18,.08c-.11-.12-.21-.25-.29-.39,0,.12-.04,.23-.09,.31-.05,.11-.12,.18-.21,.21-.04,.01-.08,.01-.12,0-.05,0-.14-.03-.25-.07l.02-.19c.14,.06,.24,.08,.28,.06,.06-.02,.11-.07,.14-.14,.05-.11,.07-.24,.06-.37-.3,.26-.59,.44-.87,.53l-.11-.16c.37-.14,.69-.33,.96-.59-.01-.03-.02-.05-.02-.05-.03-.07-.05-.14-.05-.2Zm.67-.28c-.08,.1-.18,.21-.3,.33l-.14-.13c.14-.12,.24-.23,.29-.32l.15,.12Z"/>
        <path d="M33.51,21.41h-.31s-.02,0-.02-.03v-.34s.01-.03,.02-.03h1.66s.03,0,.03,.03v.34s0,.03-.03,.03h-.29l-.06,.14h.57v.17h-2.09v-.17h.59c-.02-.06-.04-.11-.06-.14Zm1.54-.6v.15h-2.04v-.15h2.04Zm-.85-.34v-.14h.21v-.1h-.21v-.14h.21v-.11h-.21v-.14h.21v-.12h.16v.12h.2v.14h-.2v.11h.19v.14h-.19v.1h.2v.14h-.2v.1h.25s.03,0,.03-.03v-.78h.18v.88c0,.05-.03,.08-.08,.08h-1.82s-.07-.03-.07-.08v-.88h.18v.78s0,.03,.03,.03h.24v-.1h-.21v-.14h.21v-.11h-.2v-.14h.2v-.1h-.21v-.14h.21v-.12h.16v.12h.18v.14h-.18v.1h.18v.14h-.18v.11h.19v.14h-.19v.1h.28v-.84h.18v.84h.29v-.1h-.21Zm-.84,.7s0,0,0,0v.09h0s1.34,0,1.34,0c0,0,0,0,0,0v-.09s0,0,0,0h-1.34Zm.96,.39s.04-.08,.05-.12c0-.01,0-.02,0-.03h-.68s.03,.05,.06,.14h.55Z"/>
        <path d="M35.92,21.21v.25h-.28v-.25h.28Z"/>
        <path d="M37.41,20.96v.72h-.2v-.72h-.36s0,0,0,0v.76h-.2v-.91s.02-.04,.04-.04h.72c.03-.1,.05-.16,.05-.16h-.91v-.19h2.05v.19h-.94s-.02,.06-.04,.1c0,.02-.01,.04-.02,.06h.85s.05,.02,.05,.04v.71c0,.08-.04,.14-.1,.17-.08,.05-.21,.06-.39,.03v-.2c.13,.03,.22,.04,.24,.02,.04-.02,.05-.04,.05-.08v-.48s-.01,0-.02,0h-.35v.72h-.2v-.72h-.35Zm.84-.86s.04-.01,.04-.03v-.26h.2v.39c0,.06-.04,.09-.1,.09h-1.6c-.06,0-.09-.04-.09-.09v-.39h.2v.26s0,.03,.03,.03h.57v-.38h.2v.38h.56Z"/>
        <path d="M39.2,19.78h.18v1.66h.08s.03,0,.03-.03v-1.32h.18v1.43c0,.05-.03,.08-.09,.08h-.58c-.05,0-.08-.03-.08-.08v-1.43h.18v1.32s0,.03,.03,.03h.08v-1.66Zm1.68,.26s.04,.02,.04,.04v1.65h-.19v-.09h-.76v.09h-.19v-1.66s.01-.03,.04-.03h.44v-.3h.19v.3h.44Zm-.63,.18h-.26s-.03,0-.03,.03v.51h.29v-.53Zm0,.71h-.29v.53h.29v-.53Zm.19-.18h.29v-.51s0-.03-.03-.03h-.26v.53Zm0,.71h.29v-.53h-.29v.53Z"/>
        <path d="M42.11,19.67l-.65,2.13h-.16l.65-2.13h.16Z"/>
        <path d="M42.54,20.32c.09,.07,.2,.17,.3,.27l-.13,.13c-.11-.12-.21-.21-.3-.26l.13-.14Zm.29,.57c-.03,.33-.11,.6-.24,.81l-.19-.05c.15-.25,.23-.51,.23-.77l.2,.02Zm-.27-1.11c.1,.07,.2,.17,.3,.27l-.13,.14c-.11-.12-.21-.21-.3-.26l.13-.14Zm1.07,.09v.66s-.02,.06-.05,.06h-.47v1.15h-.19v-1.88s.02-.04,.05-.04h.61s.05,.02,.05,.05Zm-.19,.26v-.13s-.01-.03-.04-.03h-.26s-.04,.01-.04,.03v.13h.34Zm-.34,.15v.15h.3s.04-.02,.04-.04v-.11h-.34Zm.51,.89h-.35v-.15h.35v-.17h-.39v-.15h.97v.15h-.39v.17h.37v.15h-.37v.15h.44v.16h-1.06v-.16h.44v-.15Zm.19-.58s-.06-.03-.06-.06v-.66s.02-.05,.06-.05h.62s.05,.02,.05,.05v1.71s0,.07-.03,.1c-.02,.03-.05,.05-.09,.07-.08,.03-.2,.02-.36-.02l.03-.2c.11,.04,.19,.06,.22,.05,.01,0,.02-.02,.03-.03,0-.01,0-.03,0-.04v-.92h-.49Zm.49-.47v-.11s-.02-.04-.05-.04h-.27s-.04,.01-.04,.03v.12h.37Zm-.37,.15v.11s.02,.05,.05,.05h.31v-.16h-.37Z"/>
        <path d="M46.18,20.71h-.72s-.02,.03-.03,.03c-.05,.05-.09,.1-.13,.14,.11,.11,.19,.19,.22,.23l-.14,.1s-.12-.12-.22-.22c-.09,.08-.17,.14-.25,.18l-.14-.13c.2-.12,.35-.23,.46-.33h-.43v-.18h.6c.04-.06,.08-.11,.12-.16h-.55v-.18h.64c.03-.07,.05-.12,.05-.16h-.78v-.18h.8s.02-.09,.03-.13l.19,.02s-.01,.08-.02,.11h.92v.18h-.96c-.01,.07-.03,.12-.04,.16h.92v.18h-.54c.04,.07,.07,.12,.11,.16h.59v.18h-.44c.12,.11,.28,.21,.47,.31l-.15,.14c-.11-.07-.21-.14-.3-.21-.08,.07-.17,.15-.29,.22l-.12-.14c.11-.08,.2-.15,.27-.2-.04-.03-.08-.08-.12-.13Zm-.55,.67c-.17,.12-.4,.24-.69,.35l-.08-.17c.29-.11,.51-.22,.67-.32l.1,.14Zm.3-.54v.69c0,.09-.04,.15-.11,.19-.07,.03-.2,.03-.38,0v-.19c.15,.03,.24,.04,.28,.02,.01-.02,.02-.04,.02-.06v-.64h.2Zm.02-.47h-.24c-.04,.06-.07,.11-.11,.16h.45c-.03-.05-.06-.1-.1-.16Zm.2,.89c.3,.15,.51,.26,.63,.33l-.11,.15c-.17-.11-.38-.21-.62-.32l.1-.16Z"/>
        <path d="M48.14,20.68v.15h-1.08v-.15h1.08Z"/>
        <path d="M48.77,19.73h.2v.16h.47v.17h-1.13v-.17h.46v-.16Zm.27,1.88c-.03,.05-.07,.09-.12,.11-.11,.03-.26,.02-.44-.03v-.2c.17,.08,.28,.11,.33,.09,.03-.02,.05-.04,.07-.06,.02-.04,.02-.1,0-.19l-.5,.08-.04-.18,.48-.07s-.05-.09-.09-.13h.09l.16-.16s0-.02,0-.03c0-.01-.01-.02-.02-.02h-.58v-.16h.83l.12,.11-.37,.33s.01,.02,.02,.03l.41-.06,.03,.18-.38,.05c.04,.15,.04,.25-.02,.31Zm.26-1.02h-.88s-.02,0-.02-.03v-.4s.01-.03,.02-.03h.88s.03,0,.03,.03v.4s0,.03-.03,.03Zm-.72-.31s0,0,0,0v.14h0s.56,0,.56,0c0,0,0,0,0,0v-.14s0,0,0,0h-.56Zm.93,.43l-.18-.05c.17-.29,.25-.6,.25-.91h.19c0,.09-.01,.16-.02,.21h.67v.18h-.16v.08c0,.33-.09,.65-.27,.96,.1,.14,.25,.3,.45,.47l-.17,.09c-.16-.16-.29-.3-.38-.42-.12,.17-.29,.31-.51,.42l-.13-.14c.22-.11,.4-.26,.54-.45-.1-.2-.16-.42-.19-.65-.03,.07-.06,.14-.1,.2Zm.29-.05c.03,.12,.07,.23,.11,.34,.11-.23,.17-.49,.18-.78v-.08h-.32c-.01,.19,0,.37,.04,.52Z"/>
        <path d="M50.97,19.74h.18v1.64h.08s.03,0,.03-.03v-1.36h.17v1.47c0,.06-.03,.09-.09,.09h-.55c-.06,0-.09-.04-.09-.09v-1.47h.17v1.36s0,.03,.03,.03h.08v-1.64Zm.62,.48l-.09-.16c.18-.06,.3-.17,.38-.32l.18,.03s-.02,.03-.02,.04h.55l.12,.1c-.11,.19-.24,.33-.39,.42,.13,.06,.29,.1,.46,.12l-.06,.17c-.24-.03-.43-.09-.58-.2-.17,.08-.37,.14-.58,.2l-.06-.17c.19-.03,.36-.08,.51-.13-.07-.07-.14-.14-.2-.23-.06,.05-.13,.1-.22,.14Zm-.09,1.25v-.17h.54v-.14h-.46v-.17h.46v-.13h-.48v-.17h.48v-.17h.19v.17h.47v.17h-.47v.13h.46v.17h-.46v.14h.54v.17h-.54v.27h-.19v-.27h-.54Zm.67-1.23c.15-.1,.24-.18,.29-.24,.01-.02,0-.03,0-.03h-.5c.07,.1,.14,.19,.21,.26,0,0,0,0,0,0Z"/>
        <path d="M53.6,21.21v.25h-.28v-.25h.28Z"/>
        <path d="M54.74,21.75h-.19v-1.02c-.05,.15-.12,.29-.19,.41l-.18-.04c.16-.24,.27-.5,.33-.77h-.29v-.19h.32v-.4h.19v.4h.28v.19h-.28v.03c.11,.17,.21,.35,.3,.53l-.16,.09c-.04-.09-.09-.19-.14-.29v1.08Zm.21-.09c-.02-.06-.04-.12-.06-.19l.21-.02c.15-.3,.28-.62,.38-.97l.19,.06c-.07,.24-.19,.53-.36,.89l.7-.07c-.05-.15-.12-.3-.2-.47l.18-.06c.15,.34,.25,.62,.31,.84l-.19,.04c-.01-.06-.03-.11-.04-.17l-1.12,.11Zm.46-1.54c-.04,.27-.12,.48-.22,.64l-.19-.07c.12-.19,.2-.38,.22-.59l.19,.02Zm.56-.31s.05,.02,.05,.05c.02,.19,.06,.34,.1,.47,.04,.12,.11,.25,.2,.38l-.19,.07c-.09-.14-.15-.26-.17-.36-.05-.12-.08-.26-.1-.42,0,0-.01,0-.02,0h-.52v-.19h.64Z"/>
        <path d="M56.65,20.29c.1,.06,.21,.13,.33,.22l-.12,.15c-.12-.1-.23-.17-.32-.21l.11-.16Zm.32,.59c-.03,.34-.11,.62-.24,.83l-.19-.05c.15-.26,.23-.53,.25-.8l.18,.02Zm-.29-1.11c.1,.06,.21,.14,.34,.24l-.13,.15c-.12-.11-.23-.19-.32-.24l.11-.15Zm1.9,.44l.09,.07c-.04,.11-.09,.2-.15,.29-.05-.02-.1-.04-.14-.06l.07-.12v-.03h-1.41v-.15h1.55Zm-.82,1.04v-.15h.5v-.1h-1.22v-.15h1.6v.15h-.21v.1h.2v.15h-.2v.3c0,.07-.04,.13-.1,.17-.07,.03-.2,.03-.38,0v-.17c.07,.02,.11,.03,.13,.04,.08,.01,.13,0,.15-.02,.01-.01,.02-.03,.02-.05v-.25h-.5Zm-.54,.43h-.17v-.54s.02-.05,.05-.05h.53s.05,.02,.05,.06v.53h-.17v-.08h-.29v.08Zm.5-1.13h-.57v-.13h1.19v.13h-.44v.08h.63v.13h-1.46v-.13h.64v-.08Zm0-.61h-.63v-.14h.63v-.07h.18v.07h.66v.14h-.66v.07h.58v.13h-1.31v-.13h.55v-.07Zm-.21,1.52v-.2s-.01-.03-.02-.03h-.25s-.03,0-.03,.03v.2h.29Zm.38-.2c.07,.03,.13,.08,.21,.15l-.11,.12c-.08-.08-.14-.13-.2-.15l.1-.12Z"/>
        <path d="M59.04,21.03l-.16-.11c.1-.08,.17-.17,.21-.26,.05-.09,.1-.23,.13-.42l.17,.04s0,.04,0,.06h.51s.07,.02,.06,.06c0,.13-.04,.29-.1,.47-.04,.1-.07,.19-.11,.27-.16,.27-.38,.46-.69,.59l-.17-.16c.27-.08,.47-.2,.6-.35-.14-.12-.25-.21-.35-.29-.04,.04-.07,.07-.11,.1Zm.61-.94v.12h-.2v-.12h-.54v-.19h.54v-.18h.2v.18h.63v-.18h.2v.18h.52v.19h-.52v.13h-.2v-.13h-.63Zm-.04,.97s.03-.07,.04-.1c.05-.09,.08-.21,.11-.37,0-.03,0-.05-.03-.05h-.38c-.02,.11-.05,.19-.09,.25,.11,.08,.22,.17,.35,.28Zm.65,.35s0,.06,0,.08c.01,.02,.03,.04,.05,.04,.07,.01,.16,.02,.27,.02s.16,0,.17,0c.02,0,.03-.02,.04-.04,.01-.04,.02-.13,.02-.27h.2c0,.22-.02,.36-.06,.42-.02,.03-.05,.05-.07,.06-.04,.02-.12,.03-.24,.03-.17,0-.32-.01-.43-.02-.04-.01-.07-.03-.09-.04-.04-.05-.05-.11-.05-.18v-1.17h.81s.04,.01,.04,.04v.59c0,.06-.03,.1-.08,.14-.07,.06-.22,.07-.46,.03v-.19c.17,.03,.28,.03,.31,0,.02-.02,.03-.04,.03-.07v-.34s0-.02-.03-.02h-.44v.9Z"/>
        <path d="M18.06,25.04h.2v.12h.82l.15,.08c0,.11-.04,.24-.09,.38l-.18-.05c.04-.12,.06-.2,.06-.22,0-.02,0-.03-.02-.03h-1.67s-.02,.01-.02,.02v.26h-.19v-.41s.02-.03,.04-.03h.89v-.12Zm-.67,2.01h-.19v-.76s.03-.06,.06-.06h1.77s.06,.03,.06,.06v.76h-.19v-.08h-1.52v.08Zm.67-.66h-.64s-.03,0-.03,.03v.1h.67v-.13Zm0,.29h-.67v.13h.67v-.13Zm.86-1.25v.15h-1.52v-.15h1.52Zm-.03,.71h-1.47s-.03,0-.03-.03v-.39s0-.03,.03-.03h1.47s.03,0,.03,.03v.39s0,.03-.03,.03Zm-1.3-.29h0v.13s0,0,0,0h1.14v-.13h-1.14Zm.65,.67h.66v-.1s0-.03-.03-.03h-.63v.13Zm0,.29h.66v-.13h-.66v.13Z"/>
        <path d="M19.44,26.48v-.19h.46c0-.06,0-.13,0-.2v-.14h-.39v-.19h.39v-.33h-.41v-.19h.41v-.19h.2v.19h.38v.19h-.38v.33h.36v.19h-.36v.14c0,.07-.01,.13-.02,.2h.41v.19h-.43c-.02,.1-.05,.18-.07,.24-.04,.09-.09,.16-.15,.21-.07,.06-.16,.1-.27,.13l-.14-.14c.09-.02,.17-.05,.24-.1,.09-.07,.16-.19,.2-.34h-.43Zm1.39-1.19s-.03,0-.03,.03v1.74h-.21v-1.92s.02-.04,.04-.04h.75l.13,.1-.25,.66s0,.03,.02,.04c.1,.12,.17,.22,.21,.3,.07,.2,.07,.36,0,.48-.04,.07-.08,.12-.13,.14-.11,.05-.27,.05-.46,0v-.21c.13,.04,.21,.07,.25,.07,.04,0,.08-.01,.1-.02,.1-.03,.13-.13,.11-.3-.02-.1-.12-.24-.28-.42-.02-.02-.02-.04-.02-.06l.21-.58v-.02s-.44,0-.44,0Z"/>
        <path d="M22.82,25.99v.15h-1.08v-.15h1.08Z"/>
        <path d="M23.44,25.8s-.02,.04-.03,.06c-.07,.09-.18,.14-.35,.16l-.05-.14c.12,0,.21-.03,.27-.08h-.28v-.14h.46v-.07h-.36v-.13h.36v-.07h.18v.07h.33v.13h-.33v.07h.4v.14l.04,.02c-.01,.1-.03,.16-.04,.16-.03,.02-.06,.03-.08,.03h-.21s-.07-.03-.07-.06v-.14h-.23Zm.31-.51v.08h-.18v-.08h-.56v-.17h.56v-.08h.18v.08h.61v-.08h.18v.08h.55v.17h-.55v.08h-.18v-.08h-.61Zm-.3,.88h-.36v-.13h.36v-.14h.18v.14h.31v.13h-.31v.08l.37-.03v.15s-.96,.06-.96,.06l-.03-.15,.44-.03v-.08Zm-.33,.9c0-.05-.02-.1-.04-.15l.38-.02s.06-.09,.1-.13h-.54v-.15h2.03v.15h-.29c.09,.06,.17,.12,.24,.18l-.12,.12s-.07-.05-.11-.09l-1.66,.09Zm1.56-.65v.13h-1.22v-.13h1.22Zm-.1,.43c-.06-.04-.1-.07-.12-.08h-.71s-.06,.08-.08,.12l.92-.04Zm-.63-1.05h-.15v.04s0,.04,.04,.04h.09s0-.01,0-.04c0,0,0-.02,0-.04Zm.23,.59l-.12-.09c.09-.07,.16-.16,.21-.26-.08-.06-.14-.1-.16-.12l.11-.11s.06,.04,.1,.08c0-.02,.01-.04,.02-.05,0-.04,0-.09,0-.14h-.21v-.15h.21v-.13h.16v.13h.25s.06,.02,.06,.05v.58s0,.04,.02,.05c.01,.02,.03,.03,.04,.03h0s.03-.01,.04-.02c.01-.01,.02-.03,.02-.04v-.16l.16,.03c-.01,.13-.02,.2-.03,.22,0,.04-.03,.07-.06,.09-.04,.02-.07,.03-.12,.03h-.07s-.05-.01-.07-.02c-.07-.04-.1-.09-.1-.16v-.5s0-.03-.03-.03h-.13c-.01,.09-.03,.19-.05,.3,.07,.06,.13,.11,.19,.16l-.12,.1s-.08-.08-.12-.12c-.05,.1-.12,.18-.21,.26Z"/>
        <path d="M26.42,25.03h.2v.15h.79v.18h-1.7s-.03,0-.03,.03v.67c0,.39-.05,.7-.16,.94l-.19-.06c.07-.16,.11-.3,.13-.44,.02-.13,.03-.29,.03-.48v-.77s.02-.05,.05-.05h.88v-.15Zm-.64,2.02l-.13-.13c.11-.09,.2-.18,.26-.26-.1-.12-.15-.25-.16-.37l.17-.05c.01,.1,.04,.19,.1,.27,.08-.14,.12-.26,.12-.37h0s-.27,0-.27,0l-.07-.11,.27-.39s0,0,0,0h-.31v-.17h.48l.08,.11-.29,.38h.24s.06,.03,.06,.07c0,.14-.03,.27-.06,.37-.03,.07-.07,.16-.13,.25,.03,.02,.05,.04,.07,.04,.2,.11,.62,.15,1.25,.14l-.04,.2c-.66,0-1.12-.08-1.38-.25-.08,.1-.16,.19-.26,.27Zm1.03-.92h-.41v-.17h.41v-.26c-.12,.01-.24,.02-.38,.02l-.02-.18c.39-.01,.71-.04,.94-.09l.03,.18c-.12,.02-.25,.04-.38,.06v.27h.43v.17h-.43v.38h.42v.17h-1.02v-.17h.41v-.38Z"/>
        <path d="M28.28,26.53v.25h-.28v-.25h.28Z"/>
        <path d="M29.33,25.8s-.02,.04-.03,.06c-.07,.09-.18,.14-.35,.16l-.05-.14c.13,0,.21-.03,.27-.08h-.28v-.14h.46v-.07h-.36v-.13h.36v-.07h.18v.07h.33v.13h-.33v.07h.4v.14l.04,.02c-.01,.1-.03,.16-.04,.16-.03,.02-.06,.03-.08,.03h-.21s-.07-.03-.07-.06v-.14h-.23Zm.31-.51v.08h-.18v-.08h-.56v-.17h.56v-.08h.18v.08h.61v-.08h.18v.08h.54v.17h-.54v.08h-.18v-.08h-.61Zm-.3,.88h-.36v-.13h.36v-.14h.18v.14h.31v.13h-.31v.08l.37-.03v.15s-.96,.06-.96,.06l-.03-.15,.44-.03v-.08Zm-.33,.9c0-.05-.02-.1-.04-.15l.38-.02s.06-.09,.1-.13h-.54v-.15h2.03v.15h-.29c.09,.06,.17,.12,.24,.18l-.12,.12s-.07-.05-.11-.09l-1.66,.09Zm1.56-.65v.13h-1.22v-.13h1.22Zm-.1,.43c-.06-.04-.1-.07-.12-.08h-.72s-.06,.08-.08,.12l.92-.04Zm-.63-1.05h-.15v.04s0,.04,.04,.04h.09s0-.01,0-.04c0,0,0-.02,0-.04Zm.23,.59l-.12-.09c.09-.07,.16-.16,.21-.26-.08-.06-.14-.1-.16-.12l.11-.11s.06,.04,.1,.08c0-.02,.01-.04,.02-.05,0-.04,0-.09,0-.14h-.21v-.15h.21v-.13h.16v.13h.25s.06,.02,.06,.05v.58s0,.04,.02,.05c.01,.02,.03,.03,.04,.03h0s.03-.01,.04-.02c.01-.01,.02-.03,.02-.04v-.16l.16,.03c-.01,.13-.02,.2-.03,.22,0,.04-.03,.07-.06,.09-.04,.02-.07,.03-.12,.03h-.07s-.05-.01-.07-.02c-.07-.04-.1-.09-.1-.16v-.5s0-.03-.03-.03h-.13c-.01,.09-.03,.19-.05,.3,.07,.06,.13,.11,.19,.16l-.12,.1s-.08-.08-.12-.12c-.05,.1-.13,.18-.21,.26Z"/>
        <path d="M31.68,27.05h-.19v-.88c-.02,.1-.05,.17-.09,.23l-.18-.03c.12-.23,.21-.47,.24-.75h-.2v-.18h.22v-.4h.19v.4h.18v.18h-.18v.08c.08,.12,.15,.23,.22,.34l-.16,.09s-.04-.08-.06-.12v1.04Zm.74-.63l.18,.04c-.02,.09-.04,.2-.08,.31,.06-.01,.12-.02,.16-.03l.04,.18c-.07,.02-.19,.03-.35,.05-.22,.03-.4,.04-.55,.05l-.03-.19c.14,0,.29-.02,.47-.03,.02,0,.04,0,.05,0,.06-.16,.09-.28,.1-.38Zm-.21-1.06h-.32v-.17h.32v-.16h.19v.16h.33v.17h-.33v.14h.3v.17h-.79v-.17h.3v-.14Zm-.12,1.1c.04,.08,.06,.18,.08,.3l-.18,.03c-.02-.12-.05-.22-.07-.29l.17-.04Zm.54-.08h-.66s-.03,0-.03-.03v-.54s0-.03,.03-.03h.66s.03,0,.03,.03v.54s0,.03-.03,.03Zm-.51-.43v.25h0s.35,0,.35,0c0,0,0,0,0,0v-.25h-.36Zm.79-.14c.05,.21,.08,.41,.08,.61h-.17c-.02-.21-.04-.41-.08-.59l.17-.02Zm-.15-.2v-.18h.29v-.38h.19v.38h.12v.18h-.12v1.23c0,.08-.04,.14-.1,.18-.06,.04-.18,.03-.36-.03v-.18c.06,.02,.1,.04,.12,.04,.07,0,.11,0,.13,0,.01-.02,.02-.04,.02-.06v-1.19h-.29Z"/>
        <path d="M34.47,24.99l-.65,2.13h-.16l.65-2.13h.16Z"/>
        <path d="M35.54,25.32v.12h-.2v-.12h-.54v-.17h.54v-.12h.2v.12h.62v-.12h.2v.12h.51v.17h-.51v.13h-.2v-.13h-.62Zm-.72,1.45v-.17h.92v-.17h-.86v-.17h.32v-.21h-.41v-.17h.41v-.21h-.32v-.17h1.9v.17h-.3v.21h.38v.17h-.38v.21h.29v.17h-.84v.17h.9v.17h-.9v.29h-.2v-.29h-.92Zm.92-1.1h-.34v.21h.34v-.21Zm0,.38h-.34v.21h.34v-.21Zm.2-.17h.35v-.21h-.35v.21Zm0,.38h.35v-.21h-.35v.21Z"/>
        <path d="M37.4,27.03h-.2v-1.87s.02-.06,.06-.06h1.82s.07,.02,.07,.06v1.87h-.2v-.08h-1.56v.08Zm1.56-.27v-1.44s0-.03-.03-.03h-1.51s-.03,0-.03,.03v1.44h1.56Zm-.19-.13h-1.16s-.03,0-.03-.03v-.62s0-.03,.03-.03h.46v-.24h-.57v-.18h.57v-.18h.19v.18h.6v.18h-.6v.24h.51s.03,0,.03,.03v.62s0,.03-.03,.03Zm-.99-.49s0,0,0,0v.3s0,0,0,0h.82s0,0,0,0v-.3s0,0,0,0h-.82Z"/>
        <path d="M39.93,25.04h.2v.16h.47v.17h-1.13v-.17h.46v-.16Zm.27,1.88c-.03,.05-.07,.09-.12,.11-.11,.03-.26,.02-.44-.03v-.2c.17,.08,.28,.11,.33,.08,.03-.02,.05-.04,.07-.06,.02-.04,.02-.1,0-.19l-.5,.08-.04-.18,.48-.07s-.05-.09-.09-.13h.09l.16-.16s0-.02,0-.03c0,0-.01-.02-.02-.02h-.58v-.16h.83l.12,.11-.37,.33s.01,.02,.02,.03l.41-.06,.03,.18-.38,.05c.04,.15,.04,.25-.02,.31Zm.26-1.02h-.88s-.02,0-.02-.03v-.4s.01-.03,.02-.03h.88s.03,0,.03,.03v.4s0,.03-.03,.03Zm-.72-.31s0,0,0,0v.14h0s.56,0,.56,0c0,0,0,0,0,0v-.14s0,0,0,0h-.56Zm.93,.43l-.18-.05c.17-.29,.25-.6,.25-.91h.19c0,.09-.01,.16-.02,.21h.67v.18h-.16v.08c0,.33-.09,.65-.27,.96,.1,.14,.25,.3,.45,.48l-.17,.09c-.16-.16-.29-.3-.38-.42-.12,.16-.29,.31-.51,.42l-.13-.13c.22-.11,.4-.26,.54-.45-.1-.21-.16-.42-.19-.65-.03,.07-.06,.14-.1,.2Zm.29-.05c.03,.12,.07,.23,.11,.34,.11-.23,.17-.49,.18-.78v-.08h-.32c-.01,.19,0,.37,.04,.52Z"/>
        <path d="M42.08,27.01h-.2v-.96s0-.03,.03-.03h.82s.04,.01,.04,.03v.95h-.2v-.08h-.5v.08Zm1.63-1.15h-1.66s-.03,0-.03-.03v-.69s0-.03,.03-.03h1.66s.04,0,.04,.03v.69s-.01,.03-.04,.03Zm-1.13,.88v-.51s0-.03-.03-.03h-.45s-.03,0-.03,.03v.51h.5Zm-.36-1.44s0,0,0,0v.36s0,0,0,0h1.32v-.37h0s-1.31,0-1.31,0Zm.95,1.71h-.2v-.96s0-.03,.03-.03h.82s.04,.01,.04,.03v.95h-.2v-.08h-.5v.08Zm.5-.26v-.51s0-.03-.03-.03h-.45s-.03,0-.03,.03v.51h.5Z"/>
      </g>
      <rect class="cls-1" x="18.84" y="14.41" width=".1" height="2.21"/>
    </g>
  </g>
</svg>