<?xml version="1.0" encoding="UTF-8"?>
<svg id="_圖層_2" data-name="圖層 2" xmlns="http://www.w3.org/2000/svg" viewBox="0 0 58.94 27.98">
  <defs>
    <style>
      .cls-1 {
        fill: #7a6a56;
      }
    </style>
  </defs>
  <g id="_圖層_1-2" data-name="圖層 1">
    <g>
      <g>
        <path class="cls-1" d="M20.06,16.16c-.09,.02-.16,.03-.2,.04-.06,.01-.1,.02-.12,.02-.06,0-.1-.04-.1-.11,0-.04,.02-.07,.05-.09,.02-.01,.08-.02,.19-.02,.04-.04,.07-.08,.11-.13,.03-.03,.05-.07,.07-.1-.03,0-.05-.03-.08-.07-.04-.07-.08-.13-.13-.2-.04-.05-.08-.1-.14-.16l-.02-.02s0-.02,0-.03c0-.04,.02-.06,.06-.06,0,0,.02,0,.03,.01,.01,0,.03,.02,.05,.03l.09,.07,.03-.05s.03-.04,.04-.07c.04-.06,.07-.13,.1-.21,.04-.1,.09-.14,.14-.14,.04,0,.07,.01,.1,.03,.03,.02,.05,.05,.05,.09,0,0,0,.02,0,.03,0,0,0,.02-.01,.03-.01,.02-.04,.06-.09,.11-.04,.05-.09,.11-.14,.16l-.09,.1,.09,.08s.03,.03,.04,.04c.01,.01,.02,.02,.02,.03,.03-.05,.06-.08,.07-.11l.09-.16s.03-.05,.04-.06c.02-.02,.05-.03,.08-.03,.1,0,.14,.04,.14,.13,0,.03-.05,.11-.16,.23-.13,.16-.26,.29-.38,.41,.18,0,.31-.02,.37-.03l-.05-.14s0-.02,0-.03c0-.04,.02-.05,.05-.05,.01,0,.03,.01,.06,.04,.03,.03,.06,.06,.1,.1,.08,.1,.13,.18,.13,.23,0,.08-.04,.13-.12,.13-.05,0-.08-.02-.09-.06l-.03-.11-.18,.04v.97s0,.02,0,.02c0,.02,0,.04-.01,.05-.02,.04-.05,.06-.11,.06s-.09-.02-.11-.06c0-.01-.01-.03-.01-.05,0,0,0-.01,0-.02v-.92Zm-.09,.16s.04,.05,.04,.08c0,.06-.03,.16-.08,.31-.05,.15-.1,.26-.14,.33-.02,.03-.04,.04-.06,.04-.04,0-.06-.02-.06-.05,0,0,0-.02,0-.03l.03-.13c.02-.1,.04-.26,.06-.47,0-.07,.04-.11,.11-.11,.03,0,.06,0,.08,.03Zm.54,.01c.05,.07,.1,.15,.14,.25,.05,.1,.07,.16,.07,.2,0,.08-.04,.12-.13,.12-.08,0-.12-.04-.12-.13-.01-.14-.03-.27-.07-.38,0-.02,0-.03,0-.04,0-.04,.02-.06,.06-.06,.02,0,.04,.02,.07,.05Zm.93,.03v.66h.53s.01,0,.02,0c0,0,.02,0,.02,0,.02,0,.03,.02,.03,.05,0,.02,0,.04-.03,.05,0,0-.01,0-.02,0,0,0-.01,0-.02,0h-1.35s-.01,0-.02,0c0,0-.02,0-.02,0-.02,0-.03-.02-.03-.05s0-.04,.03-.05c0,0,.01,0,.02,0,0,0,.01,0,.02,0h.56v-.66h-.39s-.01,0-.02,0c0,0-.02,0-.02,0-.02-.01-.03-.03-.03-.05,0-.02,0-.04,.03-.05,0,0,.01,0,.02,0,0,0,.01,0,.02,0h1.09s.01,0,.02,0c0,0,.02,0,.02,0,.02,0,.03,.03,.03,.05,0,.02,0,.04-.03,.05,0,0-.01,0-.02,0,0,0-.01,0-.02,0h-.42Zm.46-1.39s.02,0,.02,0c0,0,.02,0,.02,0,.02,0,.03,.03,.03,.05s0,.04-.03,.04c0,0-.01,0-.02,0,0,0-.01,0-.02,0h-1.2s-.02,0-.02,0c0,0-.02,0-.02,0-.02,0-.03-.02-.03-.04,0-.02,0-.04,.03-.05,0,0,.01,0,.02,0,0,0,.01,0,.02,0h1.2Zm-.83,.3s-.02,.08-.07,.15c-.02,.03-.04,.06-.07,.09,0,.01-.02,.03-.04,.05l-.03,.04s0,0,0,0c0,0,0,0,0,0l-.02,.03s-.02,.03-.02,.04c0,.01,.01,.03,.03,.05l.08,.08s.06,.07,.09,.09c.03,.04,.05,.07,.07,.09,.02,.03,.03,.05,.03,.07,0,.09-.05,.13-.14,.13-.04,0-.06,0-.08-.03,0,0-.01-.02-.02-.03v-.03c-.06-.12-.12-.24-.19-.36v-.02s-.02-.02-.02-.03c0-.02,0-.04,.02-.07,.03-.06,.06-.12,.08-.18,0-.03,.02-.06,.03-.09l.04-.11c.02-.05,.05-.08,.11-.08,.09,0,.14,.04,.14,.11Zm.4,0s-.02,.07-.05,.12c-.01,.02-.03,.04-.05,.07l-.08,.11s-.02,.02-.02,.03l-.04,.05s-.02,.02-.02,.03c0,0,0,.01,0,.03l.06,.06s.05,.05,.07,.07c.03,.03,.06,.06,.08,.09,.03,.04,.05,.07,.06,.09,.02,.03,.03,.05,.03,.07,0,.08-.04,.12-.13,.12-.03,0-.06,0-.08-.03,0,0-.02-.03-.03-.06-.04-.1-.07-.17-.1-.22-.02-.03-.05-.08-.1-.16-.01-.02-.02-.04-.02-.06,0-.02,0-.04,.03-.08,.02-.05,.05-.11,.08-.2,.01-.03,.02-.06,.03-.09l.02-.05c.02-.06,.06-.09,.12-.09,.09,0,.14,.04,.14,.11Zm.38-.09s.05,.05,.05,.09c0,.04-.08,.16-.24,.36v.02s-.02,0-.02,.01c0,.01,.01,.03,.03,.05,.03,.03,.05,.05,.08,.08,.03,.03,.06,.07,.09,.1,.06,.08,.1,.13,.1,.16,0,.08-.04,.13-.13,.13-.03,0-.06-.01-.08-.04-.02-.02-.06-.1-.12-.22,0,0,0-.02-.01-.03,0,0,0,0,0-.01,0,0,0,0,0,0l-.03-.06s-.04-.08-.06-.1c0-.01-.01-.03-.01-.05,0,0,0-.03,.02-.06l.15-.38s.06-.06,.11-.06c.03,0,.06,0,.09,.03Z"/>
        <path class="cls-1" d="M25.53,16.43v-1.03c0-.15,.08-.22,.25-.22h.29v-.16s0-.02,0-.02c0-.02,0-.04,.02-.06,.02-.04,.06-.07,.11-.07s.09,.02,.12,.07c0,.01,.01,.03,.01,.06,0,0,0,.01,0,.02v.16h.28v-.16s0-.02,0-.03c0-.02,0-.04,.02-.05,.02-.04,.06-.07,.12-.07s.09,.02,.11,.07c0,.01,.01,.03,.01,.06,0,0,0,.01,0,.02v.16h.29c.17,0,.25,.08,.25,.22v1.03h.16s.01,0,.02,0c0,0,.02,0,.02,0,.02,0,.03,.02,.03,.05s0,.04-.03,.05c-.01,0-.03,0-.05,0h-2.2s-.01,0-.02,0c0,0-.02,0-.02,0-.02-.01-.03-.03-.03-.05,0-.02,.01-.04,.03-.05,0,0,.01,0,.02,0,0,0,.01,0,.02,0h.15Zm.66,.45s-.14,.09-.27,.15c-.06,.03-.13,.05-.2,.08-.06,.02-.11,.04-.17,.06-.05,.01-.09,.02-.12,.03-.03,0-.05,.01-.06,.01-.04,0-.06-.02-.06-.06,0-.02,0-.03,.02-.04,0,0,.01,0,.02-.01h.02c.1-.05,.2-.1,.3-.16,.11-.07,.21-.15,.29-.23,.05-.05,.1-.08,.13-.08,.04,0,.07,.01,.1,.04,.04,.03,.06,.07,.06,.13,0,.04-.02,.07-.06,.1Zm-.12-1.09v-.49h-.16c-.07,0-.11,.04-.11,.11v.38h.27Zm0,.64v-.53h-.27v.53h.27Zm.54-.64v-.49h-.28v.49h.28Zm0,.64v-.53h-.28v.53h.28Zm.16,.22s.07-.04,.1-.04c.03,0,.05,0,.07,.02,.02,.01,.06,.05,.13,.12,.14,.14,.31,.25,.51,.34,.03,.01,.04,.03,.04,.06,0,.04-.02,.06-.06,.06-.05,0-.13-.02-.26-.07-.11-.04-.21-.08-.29-.12-.13-.06-.22-.11-.26-.15-.03-.03-.05-.06-.05-.09,0-.05,.02-.09,.06-.13Zm.38-.86v-.38c0-.07-.04-.11-.11-.11h-.17v.49h.27Zm-.27,.12v.53h.27v-.53h-.27Z"/>
        <path class="cls-1" d="M31.53,17.07s0,.02,0,.03c0,.02,0,.04-.02,.06-.02,.04-.06,.06-.12,.06s-.1-.02-.12-.06c0-.02-.01-.03-.02-.06,0,0,0-.02,0-.03v-1.25l-.07,.07s-.06,.06-.09,.08c-.03,.03-.06,.05-.09,.07-.03,.02-.05,.03-.06,.03-.04,0-.06-.02-.06-.06,0-.02,.01-.04,.05-.07,.22-.25,.4-.55,.52-.91l.02-.04s.02-.03,.03-.04c.03-.03,.06-.05,.11-.05,.11,0,.17,.05,.17,.14,0,.04-.03,.11-.09,.21-.02,.04-.05,.08-.08,.13l-.08,.12v1.58Zm.73-1.64h-.09c-.07,.09-.15,.2-.24,.3-.05,.06-.09,.1-.12,.13-.04,.04-.07,.05-.08,.05-.04,0-.06-.02-.06-.06,0-.01,.01-.04,.04-.07l.05-.07s.06-.09,.09-.15c.04-.07,.08-.15,.11-.23,.04-.09,.07-.19,.1-.29l.02-.06s.02-.04,.03-.05c.03-.04,.06-.05,.11-.05,.04,0,.08,.01,.11,.04,.04,.03,.06,.06,.06,.11,0,.03-.02,.08-.05,.14-.02,.04-.05,.09-.09,.14h.95s.01,0,.02,0c0,0,.02,0,.02,0,.02,0,.03,.02,.03,.05s0,.04-.03,.05c0,0-.01,0-.02,0,0,0-.01,0-.02,0h-.66v.49h.6s.01,0,.02,0c0,0,.02,0,.02,0,.02,0,.03,.02,.03,.05,0,.02,0,.04-.03,.05,0,0-.01,0-.02,0,0,0-.01,0-.02,0h-.6v.49h.6s.01,0,.02,0c0,0,.02,0,.02,0,.02,0,.03,.02,.03,.05s0,.04-.03,.05c0,0-.01,0-.02,0,0,0-.01,0-.02,0h-.6v.41s0,.02,0,.03c0,.02,0,.04-.02,.06-.02,.04-.06,.06-.12,.06s-.1-.02-.12-.06c0-.01-.01-.03-.02-.06,0,0,0-.02,0-.03v-1.63Z"/>
        <path class="cls-1" d="M37.61,16.94c0,.14-.08,.21-.25,.21h-.5c-.17,0-.25-.07-.25-.21v-.61c0-.14,.08-.21,.25-.21h.5c.17,0,.25,.07,.25,.21v.61Zm-.26-.6c0-.08-.04-.11-.11-.11h-.25c-.08,0-.11,.04-.11,.11v.58c0,.08,.04,.11,.11,.11h.25c.08,0,.11-.04,.11-.11v-.58Zm1.11-.74c0,.09-.02,.15-.07,.19-.04,.03-.11,.05-.2,.05h-.96c-.18,0-.27-.08-.27-.24v-.41c0-.09,.02-.15,.07-.19,.04-.03,.11-.05,.2-.05h.96c.18,0,.27,.08,.27,.24v.41Zm-.28-.42c0-.08-.04-.12-.12-.12h-.71c-.08,0-.12,.04-.12,.12v.42c0,.08,.04,.12,.12,.12h.71c.08,0,.12-.04,.12-.12v-.42Zm.63,1.75c0,.14-.08,.21-.25,.21h-.51c-.17,0-.25-.07-.25-.21v-.61c0-.14,.08-.21,.25-.21h.51c.17,0,.25,.07,.25,.21v.61Zm-.27-.6c0-.08-.04-.11-.12-.11h-.25c-.08,0-.12,.04-.12,.11v.58c0,.08,.04,.11,.12,.11h.25c.08,0,.12-.04,.12-.11v-.58Z"/>
        <rect class="cls-1" x="17.62" y="14.81" width=".1" height="2.21"/>
      </g>
      <rect class="cls-1" x="23.82" y="14.79" width=".1" height="2.21"/>
      <rect class="cls-1" x="29.27" y="14.79" width=".1" height="2.21"/>
      <rect class="cls-1" x="34.72" y="14.79" width=".1" height="2.21"/>
      <rect class="cls-1" x="40.43" y="14.79" width=".1" height="2.21"/>
      <g>
        <path d="M19.27,5.83c.72,0,1.23,.17,1.53,.5l.03,.25c0,.15-.14,.84-.41,2.06l.03,.39-.03,.17,.09,.06h.09l.09-.06,.03,.03-.18,.92v.11l.03,.11c-.1,.37-.2,.57-.29,.58h-.03c-.18,0-.26-.19-.26-.58-.04,0-.08-.29-.12-.86-.06,0-.09-.23-.09-.7,0-.61,.12-1.31,.35-2.09v-.14s-.22-.08-.65-.14c-.2-.22-.29-.39-.29-.5v-.03l.09-.08Zm4.37-.47h.06v.03l-.18,.64v.11l.12,.11h.09l.79-.14,.06-.17-.09-.2h.06c.18,.09,.26,.15,.26,.17v.28c-.06,.41-.23,.61-.5,.61-.51,.13-.91,.33-1.2,.61l-.03,.03v.31c0,.28,.11,.42,.32,.42h.23c.1,0,.22-.09,.38-.28l.26-.08c.14,0,.31,.12,.53,.36v.06c-.12,.21-.26,.31-.44,.31l-.15,.14v.31l.03,.5c-.06,.63-.23,.95-.5,.95l-.32,.08-.26-.11v-.03s.11-.1,.32-.2c.1-.07,.15-.26,.15-.56v-.42c0-.32-.04-.5-.12-.56l-.29,.03h-.09c-.27,0-.47-.3-.59-.89l-.03-.03h-.09c-.86,.26-1.39,.5-1.59,.72v-.06c0-.33,.25-.72,.76-1.17l1.23-.7,.41-.89c.1-.2,.23-.31,.38-.31Zm-.47,4.29v.03c-.31,.26-.54,.47-.67,.64l-.29,.11c-.37-.07-.56-.18-.56-.31,0-.17,.19-.28,.56-.33h.38c.1,0,.29-.05,.59-.14Zm2-.67c.33,0,.65,.23,.94,.7-.1,.28-.17,.42-.21,.42l-.76-.28h-.03l-.15,.03v-.03c.16-.15,.24-.27,.24-.36s-.05-.21-.15-.36c.02-.07,.06-.11,.12-.11Z"/>
        <path d="M30.91,5.89c.06,0,.12,.06,.18,.17,0,.19-.27,.6-.82,1.25l-.41,.59,.09,.03c.45-.22,.71-.33,.79-.33h.18l.12,.08-.21,1.2c.33,.09,.5,.21,.5,.36l-.03,.2c.59,.04,.88,.16,.88,.36,.1,.37,.15,.66,.15,.86-.14,.37-.39,.65-.76,.84-.41,.13-.77,.2-1.09,.2h-.06l-.15-.03v-.06s.29-.12,.76-.25c.49-.22,.73-.47,.73-.75l.03-.08v-.39c-.04-.17-.11-.25-.21-.25-.59,0-.88-.07-.88-.22v-.06l.03-.22c0-.06-.09-.12-.26-.2l-.09-.28,.26-.81-.06-.06c-.74,.21-1.12,.44-1.12,.7-.14,.3-.37,.45-.7,.45l-.03-.03v-.22c.14-.39,.52-.99,1.14-1.81v-.03h-.09c-.22,.17-.59,.33-1.12,.47-.1,0-.19-.06-.26-.2,0-.26,.09-.39,.26-.39,.39-.09,.86-.3,1.41-.61,.49-.32,.76-.47,.82-.47Zm-.44-1.23c.12,0,.18,.06,.18,.19,0,.06-.04,.14-.12,.25v.06l.53-.08,.09,.03v.08c-.12,.19-.24,.28-.35,.28-.2,.15-.36,.22-.5,.22h-.03c-.25,0-.38-.11-.38-.33v-.11c.08-.39,.27-.58,.59-.58Z"/>
        <path d="M40.37,8.87h.09l.03,.2c-.33,.65-.71,1.03-1.14,1.14l-1.26,.28-.15-.03-.38,.06h-.23l-.03,.03c-.43,0-.95-.24-1.56-.72l-.12-.39c.08-.17,.15-.25,.21-.25,.1,0,.35,.18,.76,.53,.21,.15,.5,.25,.85,.31l.32-.06,.15,.03c1-.17,1.59-.32,1.79-.45l.59-.58,.09-.08Zm-2.17-3.07l.03,.03h.21c.18,0,.26,.07,.26,.2,0,.09-.13,.3-.38,.61-.1,.17-.15,.31-.15,.42v.22c.1,.11,.15,.47,.15,1.09l-.06,.17c.14,.09,.28,.14,.44,.14l.18,.25c0,.19-.21,.31-.62,.36-.59,0-.88-.18-.88-.53,.04-.11,.21-.3,.53-.56v-.08h-.24c-.12,0-.23-.1-.35-.31v-.06c0-.15,.18-.36,.53-.64,0-.19,.16-.47,.47-.86v-.03h-.15c-.21,0-.72,.22-1.53,.67l-.32,.11v-.06c.2-.39,.71-.74,1.56-1.06l.32-.08Z"/>
      </g>
      <g>
        <path d="M1.07,21.55s-.02,.06-.03,.09c-.17,.4-.47,.7-.9,.92l-.14-.15c.52-.24,.84-.63,.95-1.18H.07v-.2H.97s0-.07,0-.1v-.32h.21v.32s0,.07,0,.1h.89v.2h-.87c.01,.08,.03,.16,.04,.23,.12,.36,.42,.69,.9,.99l-.18,.14s-.09-.06-.12-.08c-.41-.29-.67-.61-.78-.95Z"/>
        <path d="M2.61,22.6h-.19v-1.93s0-.02,0-.03h.49l.13,.08-.18,.54s0,.06,0,.07c.08,.11,.14,.21,.16,.31,.05,.16,.04,.28-.04,.37-.04,.05-.09,.08-.15,.08-.07,.01-.15,0-.24-.02v.53Zm.02-1.78h-.02v1.07c.06,.03,.12,.04,.17,.03,.03,0,.05-.01,.07-.03,.07-.09,0-.28-.17-.57h0v-.02l.14-.44s0-.05-.04-.04h-.16Zm1.02,1.25h-.49v-.18h.49v-.2h.2v.2h.55v.18h-.55v.29h.64v.18h-1.5v-.18h.66v-.29Zm-.06-.76v.03s0,.08-.03,.14c-.05,.16-.18,.28-.38,.36l-.12-.14c.06-.02,.11-.04,.15-.07,.12-.07,.18-.16,.19-.28v-.03h-.36v-.17h.59v-.2h-.46v-.17h.46v-.17h.2v.17h.54v.17h-.54v.2h.62v.17h-.42v.22s0,.05,.03,.07c.02,.02,.04,.03,.06,.03h.12s.04,0,.05-.02c0,0,0-.01,0-.02,0-.03,.01-.08,.02-.14l.16,.03c-.02,.15-.04,.23-.04,.25-.04,.04-.08,.06-.12,.06h-.29s-.08-.02-.12-.06c-.04-.03-.05-.07-.05-.1v-.31h-.27Z"/>
        <path d="M5.17,21.5s0-.02,0-.02h-.32l-.07-.11,.32-.54s0,0,0,0h-.31v-.19h.5l.09,.12-.34,.54h.29s.07,.03,.07,.06c0,.28-.07,.54-.2,.78,0,0,0,0,0,0,.14,.15,.35,.22,.62,.21h1.01l-.05,.2h-.88c-.16-.01-.3-.03-.42-.05-.12-.03-.24-.1-.38-.2-.07,.11-.15,.21-.24,.31l-.16-.14c.12-.12,.21-.23,.27-.33-.07-.1-.14-.25-.2-.45l.18-.04c.04,.12,.07,.22,.12,.31,.08-.16,.12-.32,.12-.46Zm.21,.59v-.18h.56v-.12h-.47v-.18h.47v-.13h-.4v-.17h.4v-.14h-.59v-.17h.59v-.13h-.4v-.17h.4v-.14h.2v.14h.46s.06,.02,.06,.05v.25h.14v.17h-.14v.25s-.03,.06-.06,.06h-.46v.13h.55v.18h-.55v.12h.63v.18h-.63v.23h-.2v-.23h-.56Zm.76-1.08h.33v-.12s-.01,0-.02,0h-.31v.13Zm0,.31h.31s.02-.01,.02-.02v-.12h-.33v.14Z"/>
        <path d="M7.92,20.94v.18h-.86v-.18h.86Zm-.62,1.61h-.19v-.74s.03-.05,.06-.05h.63s.06,.02,.06,.05v.59s-.02,.06-.06,.06h-.5v.09Zm.51-1.33v.17h-.65v-.17h.65Zm0,.27v.17h-.65v-.17h.65Zm0-.83v.18h-.65v-.18h.65Zm-.49,1.27s-.03,0-.03,.03v.33h.34s.04-.02,.04-.03v-.3s0-.03-.03-.03h-.32Zm.97-1.09v.08c0,.22-.1,.38-.29,.49l-.12-.14s.06-.03,.08-.05c.1-.08,.15-.21,.15-.37v-.18s0-.02,0-.03c.01,0,.02,0,.03,0h.64s.02,0,.03,0c0,.01,.01,.02,.02,.03v.45s0,.05,0,.06c.01,.02,.04,.03,.07,.03h.02s.03-.01,.05-.02c.01,0,.02-.03,.02-.06v-.14l.17,.02c0,.13,0,.21,0,.25-.01,.03-.03,.05-.04,.08-.04,.03-.08,.05-.13,.05h-.16c-.06,0-.1-.02-.13-.05-.04-.04-.05-.08-.05-.12v-.37s0-.03-.03-.03h-.32s-.02,.01-.02,.02Zm-.27,1.77l-.12-.16c.18-.06,.33-.13,.45-.2-.12-.11-.23-.26-.34-.45l.16-.08c.09,.18,.2,.32,.32,.42,.18-.14,.3-.3,.34-.47v-.02s-.04,0-.05,0h-.77v-.18h.93l.11,.08c-.05,.28-.18,.51-.4,.71,.13,.08,.3,.14,.52,.17l-.1,.18c-.24-.07-.43-.15-.57-.24-.12,.07-.28,.15-.47,.24Z"/>
        <path d="M10.43,21.54v.15h-1.08v-.15h1.08Z"/>
        <path d="M10.9,21.66h-.27v-.17h.27v-.17h-.22v-.17h.63v.17h-.22v.17h.28v.17h-.28v.61c.12-.02,.21-.04,.27-.06l.05,.18c-.17,.05-.43,.09-.77,.13l-.04-.19c.09,0,.2-.02,.31-.03v-.64Zm-.14-.59l-.16-.12c.21-.12,.34-.23,.39-.32h.17s0,.03,0,.03c.08,.07,.17,.13,.26,.18l-.13,.14c-.08-.05-.15-.11-.21-.18-.08,.09-.18,.18-.31,.27Zm.04,.72c.03,.16,.04,.32,.04,.48h-.18c0-.19-.01-.34-.04-.46l.17-.02Zm.55,0c-.01,.15-.03,.27-.04,.36l-.16-.03c.01-.06,.03-.17,.04-.35l.16,.02Zm1.31-.26v.16h-1.1s-.06-.02-.06-.06v-.56s-.05,.05-.07,.08l-.16-.08c.14-.15,.24-.31,.3-.48l.17,.05s-.04,.09-.05,.13h.36c.04-.07,.07-.14,.09-.19l.16,.07s-.03,.08-.04,.12h.44l-.02,.16h-.44v.09h.42v.15h-.42v.11h.42v.15h-.42v.09h.44Zm-.3,.42s-.04,.01-.04,.03v.34s-.03,.06-.06,.06h-.39s-.05-.03-.05-.06v-.34s-.02-.03-.04-.03h-.14s-.02,0-.02,.02v.62h-.18v-.76s.01-.04,.04-.04h.46s.06,.02,.06,.06v.35s0,.03,.02,.03h.11s.03,0,.03-.03v-.36s.02-.05,.05-.05h.46s.06,.02,.06,.06v.55c0,.07-.03,.13-.08,.17-.06,.04-.17,.06-.34,.03v-.18c.11,.02,.17,.03,.19,.03,.04-.02,.05-.06,.05-.11v-.36s-.01-.03-.04-.03h-.14Zm-.31-1.03h-.35s-.02,0-.02,.03v.07h.37v-.09Zm0,.25h-.37v.11h.37v-.11Zm0,.26h-.37v.07s.01,.03,.02,.03h.35v-.09Z"/>
        <path d="M13.18,22.57l-.21-.07c.17-.33,.25-.64,.26-.93v-.88s.03-.06,.06-.06h1.56s.06,.03,.06,.06v1.66c0,.08-.02,.14-.06,.18-.05,.04-.12,.07-.21,.07-.11,0-.24-.02-.4-.05v-.22c.26,.07,.41,.09,.45,.05,.02-.02,.03-.04,.03-.08v-.37h-1.31c-.05,.24-.13,.46-.22,.65Zm1.53-1.39v-.32s0-.03-.03-.03h-1.22s-.03,0-.03,.03v.32h1.28Zm0,.54v-.35h-1.28v.35h1.28Z"/>
        <path d="M15.89,22.07v.25h-.28v-.25h.28Z"/>
        <path d="M16.79,21.66h-.27v-.17h.27v-.17h-.22v-.17h.63v.17h-.22v.17h.28v.17h-.28v.61c.12-.02,.21-.04,.27-.06l.05,.18c-.17,.05-.43,.09-.77,.13l-.04-.19c.1,0,.2-.02,.31-.03v-.64Zm-.14-.59l-.16-.12c.21-.12,.34-.23,.39-.32h.17s0,.03,0,.03c.08,.07,.17,.13,.26,.18l-.13,.14c-.08-.05-.15-.11-.21-.18-.08,.09-.18,.18-.31,.27Zm.04,.72c.03,.16,.04,.32,.04,.48h-.18c0-.19-.01-.34-.04-.46l.17-.02Zm.54,0c-.01,.15-.03,.27-.04,.36l-.16-.03c.01-.06,.03-.17,.04-.35l.16,.02Zm1.31-.26v.16h-1.1s-.06-.02-.06-.06v-.56s-.05,.05-.07,.08l-.16-.08c.14-.15,.24-.31,.29-.48l.17,.05s-.04,.09-.05,.13h.36c.04-.07,.07-.14,.09-.19l.16,.07s-.03,.08-.04,.12h.44l-.02,.16h-.44v.09h.42v.15h-.42v.11h.42v.15h-.42v.09h.44Zm-.3,.42s-.04,.01-.04,.03v.34s-.03,.06-.06,.06h-.39s-.05-.03-.05-.06v-.34s-.02-.03-.04-.03h-.14s-.02,0-.02,.02v.62h-.18v-.76s.01-.04,.04-.04h.46s.06,.02,.06,.06v.35s0,.03,.02,.03h.11s.03,0,.03-.03v-.36s.02-.05,.05-.05h.46s.06,.02,.06,.06v.55c0,.07-.03,.13-.08,.17-.06,.04-.17,.06-.34,.03v-.18c.11,.02,.17,.03,.19,.03,.04-.02,.05-.06,.05-.11v-.36s-.01-.03-.04-.03h-.14Zm-.31-1.03h-.35s-.02,0-.02,.03v.07h.37v-.09Zm0,.25h-.37v.11h.37v-.11Zm0,.26h-.37v.07s.01,.03,.02,.03h.35v-.09Z"/>
        <path d="M19.34,22.25h-.24s-.03,0-.03-.03v-.42s0-.03,.03-.03h1.6s.03,0,.03,.03v.42s0,.03-.03,.03h-.24c-.02,.05-.05,.1-.07,.16h.55v.17h-2.08v-.17h.55c-.02-.07-.05-.12-.07-.16Zm1.52-.75v.17h-1.93v-.17h1.93Zm-.1-.8s.03,0,.03,.03v.65s0,.03-.03,.03h-1.73s-.03,0-.03-.03v-.65s0-.03,.03-.03h.51v-.11h.19v.11h.35v-.11h.19v.11h.5Zm-1.22,.15h-.35v.13h.35v-.13Zm0,.28h-.35v.11s0,0,0,0h.34v-.12Zm-.27,.8h0v.15s0,0,0,0h1.27v-.16h-1.27Zm.92,.48c.03-.07,.06-.12,.08-.16h-.72c.02,.05,.05,.1,.07,.16h.57Zm-.12-1.55h-.35v.13h.35v-.13Zm0,.28h-.35v.12h.35v-.12Zm.19-.15h.34v-.13h-.34v.13Zm0,.27h.34v-.12h-.34v.12Z"/>
        <path d="M21.79,22.07v.25h-.28v-.25h.28Z"/>
        <path d="M23.27,21.82v.72h-.2v-.72h-.36s0,0,0,0v.76h-.2v-.91s.02-.04,.04-.04h.72c.03-.1,.05-.16,.05-.16h-.91v-.19h2.05v.19h-.94s-.02,.06-.04,.1c0,.02-.01,.04-.02,.06h.85s.05,.02,.05,.04v.71c0,.08-.04,.14-.1,.17-.08,.05-.21,.06-.39,.03v-.2c.13,.03,.22,.04,.24,.02,.04-.02,.05-.05,.05-.08v-.48s-.01,0-.02,0h-.35v.72h-.2v-.72h-.35Zm.84-.86s.04-.01,.04-.03v-.26h.2v.39c0,.06-.04,.09-.1,.09h-1.6c-.06,0-.09-.04-.09-.09v-.39h.2v.26s0,.03,.03,.03h.57v-.38h.2v.38h.56Z"/>
        <path d="M25.69,20.59h.21v.15h.88v.19h-1.7s-.02,.01-.02,.02v.77c0,.33-.06,.61-.15,.84l-.19-.06c.05-.15,.09-.28,.12-.4,.02-.12,.03-.26,.03-.43v-.87s.02-.05,.05-.05h.77v-.15Zm-.54,1.3v-.19h.69c-.11-.08-.24-.17-.4-.25l.12-.15c.09,.06,.18,.11,.25,.16,.26-.07,.45-.15,.57-.22h-1.21v-.17h1.44l.09,.12c-.15,.17-.38,.3-.71,.4,.02,.02,.04,.03,.05,.03l-.07,.08h.74l.13,.08c-.05,.29-.21,.5-.48,.63l-.15-.16c.21-.08,.34-.2,.39-.36h-.56v.49c0,.08-.04,.15-.11,.19-.11,.07-.32,.06-.63-.03v-.2c.13,.04,.22,.06,.26,.07,.05,.01,.11,.02,.16,.03,.04,0,.07,0,.11-.04,.01-.02,.02-.04,.02-.06v-.44h-.7Z"/>
        <path d="M27.68,22.07v.25h-.28v-.25h.28Z"/>
        <path d="M28.52,21.51h-.21v-.17h.21v-.5h-.21v-.17h.62v.17h-.21v.5h.19v.17h-.19v.52c.09-.04,.16-.07,.21-.09l.08,.16c-.17,.09-.38,.18-.65,.26l-.09-.17c.08-.03,.17-.06,.26-.09v-.59Zm1.15-.11c-.11,.1-.21,.18-.3,.24,.03,.07,.06,.14,.08,.21l-.18,.05c-.02-.06-.04-.11-.06-.17-.07,.03-.13,.06-.19,.08l-.1-.15c.08-.03,.15-.06,.22-.09-.04-.08-.06-.14-.08-.16l.18-.06s.03,.08,.05,.14c.1-.07,.2-.15,.29-.24-.04-.05-.07-.1-.12-.15-.19,.11-.34,.19-.45,.22l-.1-.15c.23-.07,.43-.18,.6-.31h-.47v-.18h1.24v.18h-.5c-.06,.06-.12,.1-.17,.14,.12,.15,.21,.33,.27,.54,.05,.24,.22,.52,.51,.83l-.18,.08c-.11-.12-.21-.25-.29-.39,0,.12-.04,.23-.09,.31-.05,.11-.12,.18-.21,.21-.04,.01-.08,.01-.12,0-.05,0-.14-.03-.25-.07l.02-.19c.14,.06,.24,.08,.28,.06,.06-.02,.11-.07,.14-.14,.05-.11,.07-.24,.06-.37-.3,.26-.59,.44-.87,.53l-.11-.16c.37-.14,.69-.33,.96-.59-.01-.03-.02-.05-.02-.05-.03-.07-.05-.14-.05-.2Zm.67-.28c-.08,.1-.18,.21-.3,.33l-.14-.13c.14-.12,.24-.23,.29-.32l.15,.12Z"/>
        <path d="M32.72,21.23v.17h-2.08v-.17h.95v-.1h-.76v-.14h.76v-.09h-.87v-.17h.87v-.14h.2v.14h.85v.17h-.85v.09h.77v.14h-.77v.1h.93Zm-1.67,1.35h-.2v-1.04s.02-.04,.04-.04h1.57s.05,.02,.05,.04v.84c0,.08-.04,.14-.1,.17-.09,.06-.26,.07-.51,0v-.2c.2,.06,.31,.07,.36,.03,.04-.02,.05-.05,.05-.08v-.03h-1.28v.31Zm1.28-.76v-.14s-.01,0-.02,0h-1.25s0,0,0,0v.14h1.28Zm0,.31v-.15h-1.28v.15h1.28Z"/>
        <path d="M33.57,22.07v.25h-.28v-.25h.28Z"/>
        <path d="M36.27,21.23v.17h-2.07v-.17h.95v-.1h-.76v-.14h.76v-.09h-.87v-.17h.87v-.14h.2v.14h.85v.17h-.85v.09h.77v.14h-.77v.1h.93Zm-1.67,1.35h-.2v-1.04s.02-.04,.04-.04h1.57s.05,.02,.05,.04v.84c0,.08-.04,.14-.1,.17-.09,.06-.26,.07-.51,0v-.2c.2,.06,.32,.07,.36,.03,.04-.02,.05-.05,.05-.08v-.03h-1.28v.31Zm1.28-.76v-.14s-.01,0-.02,0h-1.25s0,0,0,0v.14h1.28Zm0,.31v-.15h-1.28v.15h1.28Z"/>
        <path d="M38.3,22.33s.03,0,.03-.03v-1.49h.21v1.61c0,.06-.04,.09-.1,.09h-1.72c-.07,0-.1-.04-.1-.09v-1.61h.21v1.49s.01,.03,.04,.03h.62v-1.72h.21v1.72h.61Z"/>
        <path d="M39.38,20.81c-.09,.11-.21,.21-.36,.3l-.16-.12c.23-.13,.38-.25,.44-.35h.18s-.01,.03-.02,.03c.1,.08,.2,.15,.29,.2l-.13,.14c-.09-.07-.17-.14-.24-.2Zm-.17,.82h-.27v-.17h.27v-.16h-.2v-.17h.57v.17h-.2v.16h.23v.17h-.23v.64c.11-.03,.19-.05,.24-.08l.06,.18c-.19,.07-.44,.13-.76,.18l-.05-.18c.09-.02,.21-.04,.33-.06v-.69Zm-.13,.11c.03,.19,.05,.35,.05,.48h-.17c-.01-.17-.03-.33-.05-.47l.17-.02Zm.58,0c-.02,.16-.04,.28-.06,.37l-.16-.04c.02-.1,.04-.22,.06-.36l.16,.03Zm.52,.71c-.18,.1-.35,.16-.49,.16l-.06-.17c.16-.02,.31-.07,.46-.14l.1,.15Zm-.28-1.25v.89s0,.04,.04,.04h1.03v.15h-1.17c-.05,0-.08-.03-.08-.08v-1h.18Zm.77-.61l.04,.14c-.2,.05-.45,.08-.76,.1,0,.02,0,.03,.03,.05,.02,.02,.04,.03,.06,.03h.69s.04-.01,.05-.02c.01,0,.02-.05,.03-.14l.15,.04c-.02,.14-.04,.21-.04,.21-.05,.04-.09,.06-.12,.06h-.85s-.08-.03-.12-.06c-.03-.03-.04-.06-.04-.09v-.31h.16v.09c.31-.02,.55-.05,.72-.1Zm.21,1.46h-.88s-.02-.01-.02-.02v-.83s.01-.03,.02-.03h.88s.03,0,.03,.03v.83s0,.02-.03,.02Zm-.13-.64v-.08s0,0,0,0h-.59s0,0,0,0v.08h.6Zm0,.25v-.1h-.6v.1h.6Zm-.6,.14v.09h0s.59,0,.59,0c0,0,0,0,0,0v-.09h-.6Zm.4,.5c.13,.03,.28,.08,.44,.15l-.08,.16c-.16-.07-.29-.12-.4-.14l.04-.17Z"/>
        <path d="M42.11,20.54l-.65,2.13h-.16l.65-2.13h.16Z"/>
        <path d="M42.68,22.59h-.2v-1.88s.02-.06,.06-.06h1.84s.07,.02,.07,.06v1.88h-.2v-.08h-1.58v.08Zm1.35-1.77s.04,.09,.05,.14h.11v.17h-.43c.04,.24,.07,.41,.09,.52,.06-.13,.11-.27,.15-.42l.17,.05c-.07,.24-.15,.44-.24,.58,0,0,0,.01,0,.02,.02,.06,.04,.11,.05,.15,.02,.05,.04,.08,.04,.08,.01,0,.02-.02,.03-.04v-.23l.17,.04c0,.18-.03,.3-.06,.37-.02,.03-.04,.05-.06,.06-.02,0-.04,0-.06,0-.05-.01-.09-.04-.12-.08-.04-.06-.07-.12-.1-.2-.09,.11-.17,.2-.25,.27l-.14-.1s.08-.08,.12-.12c-.23,.06-.47,.09-.74,.09l-.04-.17c.34-.03,.6-.07,.78-.11l.04,.14c.07-.07,.12-.14,.16-.2-.06-.19-.11-.42-.15-.71h-.8v-.17h.79c0-.06,0-.1,0-.14h-.85s-.03,0-.03,.03v1.49h1.58v-1.49s0-.03-.03-.03h-.21Zm-.54,1.03h-.69s-.02,0-.02-.03v-.53s.01-.02,.02-.02h.69s.03,.01,.03,.02v.53s0,.03-.03,.03Zm-.53-.42s0,0,0,0v.26h0s.37,0,.37,0h0v-.27h-.38Zm.88-.6h-.12s.01,.09,.02,.14h.15c-.02-.06-.04-.11-.05-.14Z"/>
        <path d="M46.18,21.57h-.72s-.02,.03-.03,.03c-.05,.05-.09,.1-.13,.14,.11,.11,.19,.19,.22,.23l-.14,.1s-.12-.12-.22-.22c-.09,.08-.17,.14-.25,.18l-.14-.13c.2-.12,.35-.23,.46-.33h-.43v-.18h.6c.04-.06,.08-.11,.12-.16h-.55v-.18h.64c.03-.07,.05-.12,.05-.16h-.78v-.18h.8s.02-.09,.03-.13l.19,.02s-.01,.08-.02,.11h.92v.18h-.96c-.01,.07-.03,.12-.04,.16h.92v.18h-.54c.04,.07,.07,.12,.11,.16h.59v.18h-.44c.12,.11,.28,.21,.47,.31l-.15,.14c-.11-.07-.21-.14-.3-.21-.08,.07-.17,.15-.29,.22l-.12-.14c.11-.08,.2-.15,.27-.2-.04-.03-.08-.08-.12-.13Zm-.55,.67c-.17,.12-.4,.24-.69,.35l-.08-.17c.29-.11,.51-.22,.67-.32l.1,.14Zm.3-.53v.69c0,.08-.04,.15-.11,.19-.07,.03-.2,.03-.38,0v-.19c.15,.03,.24,.04,.28,.02,.01-.02,.02-.04,.02-.06v-.64h.2Zm.02-.48h-.24c-.04,.06-.07,.11-.11,.16h.45c-.03-.05-.06-.1-.1-.16Zm.2,.89c.3,.15,.51,.26,.63,.33l-.11,.15c-.17-.11-.38-.21-.62-.32l.1-.16Z"/>
        <path d="M48.14,21.54v.15h-1.08v-.15h1.08Z"/>
        <path d="M48.27,20.89v-.18h1.07v.18h-.44v1.54h-.19v-1.54h-.45Z"/>
        <path d="M50.23,22.44l-.23-.82-.24,.82h-.15l-.13-1.72h.17l.09,1.31,.2-.67h.15l.19,.68,.11-1.32h.17l-.16,1.72h-.15Z"/>
        <path d="M51.51,22.26v.18h-.63v-.18h.21v-1.37h-.21v-.18h.63v.18h-.22v1.37h.22Z"/>
        <path d="M52.68,20.71h.19v1.72h-.2l-.54-1.32v1.32h-.19v-1.72h.21l.53,1.32v-1.32Z"/>
        <path d="M54.54,22.44h-.19v-1.72h.46c.14,0,.25,.05,.34,.15,.07,.1,.11,.23,.11,.41,0,.15-.04,.27-.12,.36-.08,.07-.19,.11-.32,.11h-.27v.7Zm.45-.94c.05-.04,.08-.12,.08-.22,0-.13-.02-.22-.07-.28-.05-.07-.15-.1-.28-.1h-.18v.67h.18c.13,0,.21-.02,.27-.07Z"/>
        <path d="M55.63,22.44h-.19l.47-1.72h.19l.48,1.72h-.19l-.15-.52h-.47l-.14,.52Zm.57-.7l-.19-.69-.2,.69h.38Z"/>
        <path d="M56.95,21.74v.7h-.19v-1.72h.46c.14,0,.26,.05,.36,.15,.08,.1,.12,.23,.12,.41,0,.15-.05,.27-.14,.36-.06,.06-.14,.1-.23,.1l.45,.7h-.22l-.44-.7h-.16Zm.47-.25c.06-.05,.09-.12,.09-.21,0-.13-.03-.22-.09-.28-.05-.07-.14-.1-.27-.1h-.21v.67h.21c.12,0,.21-.03,.27-.08Z"/>
        <path d="M58.08,22.44h-.19v-1.72h.19v.76l.53-.76h.21l-.57,.82,.69,.9h-.22l-.63-.85v.85Z"/>
        <path d="M1.78,26.88v.06c0,.4-.12,.72-.35,.94l-.16-.11c.2-.16,.31-.44,.31-.83v-.06h-.22v-.19h.94v.19h-.15v.67s0,.06,.03,.08c.03,.02,.06,.03,.08,.03h.88s.04,0,.05-.03c.01,0,.02-.08,.02-.21l.19,.03c0,.2-.02,.31-.04,.32-.05,.05-.1,.08-.14,.08h-1.07c-.05,0-.1-.03-.14-.07-.04-.04-.05-.08-.05-.12v-.78h-.17Zm-.45-.88s.01-.03,.04-.03h1.86l.18,.08c-.01,.1-.04,.23-.1,.38l-.19-.06c.04-.12,.05-.19,.05-.2,0-.02,0-.03-.03-.03H1.54s-.02,0-.02,.02v.26h-.2v-.43Zm.92,.31v.19h-.66v-.19h.66Zm.11,.38v-.19h.52v-.22h.2v.22h.28v.19h-.28v.7c0,.08-.04,.15-.11,.19-.09,.04-.24,.04-.46-.02v-.2c.18,.06,.3,.07,.36,.03,.01-.02,.02-.04,.02-.06v-.65h-.52Zm.21,.1c.09,.15,.16,.28,.21,.41l-.18,.07c-.05-.11-.12-.25-.21-.4l.17-.08Z"/>
        <path d="M4.14,25.97c-.11,.23-.23,.41-.38,.53l-.16-.12c.16-.13,.28-.29,.36-.48l.18,.07Zm-.38,1.07l-.16-.12c.2-.16,.35-.35,.45-.57l.18,.08c-.07,.13-.14,.24-.2,.32v1.15h-.19v-.94s-.06,.05-.08,.08Zm.67,.25c-.03,.21-.09,.4-.18,.55-.07-.04-.12-.08-.16-.09,.09-.14,.14-.3,.14-.48l.2,.03Zm1.19-.42h-1.33s-.03,0-.03-.03v-.48s0-.03,.03-.03h.54v-.13h-.62v-.17h.62v-.14h.19v.14h.67v.17h-.67v.13h.61s.03,0,.03,.03v.48s0,.03-.03,.03Zm.08,.11v.17h-1.48v-.17h1.48Zm-1.05-.48h-.21s0,0,0,0v.2h0s.21,0,.21,0v-.21Zm.04,.76v.33c0,.05,.01,.08,.02,.08,.02,.02,.06,.03,.1,.03h.29s.06,0,.08,0c.01,0,.03-.02,.04-.04,0-.02,0-.07,0-.15l.2,.03c-.01,.15-.03,.25-.05,.28-.03,.03-.06,.05-.08,.06-.04,.01-.08,.02-.13,.02h-.43c-.06,0-.1-.02-.13-.03-.07-.05-.1-.13-.1-.23v-.37h.19Zm.3-.03s.04,.07,.06,.13c.04,.06,.06,.11,.08,.15l-.17,.06c-.05-.11-.1-.2-.14-.26l.17-.08Zm.04-.72h-.21v.21h.21v-.21Zm.19,.21h.22s0,0,0,0v-.2s0,0,0,0h-.22v.21Zm.29,.5c.08,.14,.16,.31,.21,.52l-.18,.06c-.07-.21-.13-.38-.21-.5l.17-.08Z"/>
        <path d="M7,26.85v.15h-1.08v-.15h1.08Z"/>
        <path d="M7.34,26.9l-.19-.08c.2-.28,.33-.58,.38-.91l.19,.03c-.04,.18-.08,.33-.12,.45v1.51h-.2v-1.11s-.05,.07-.07,.1Zm1.92-.66v.19h-1.54v-.19h1.54Zm-1.23,1.66h-.2v-.69s0-.03,.03-.03h1.27s.04,.02,.04,.04v.68h-.2v-.1h-.95v.1Zm1.07-1.36v.18h-1.23v-.18h1.23Zm0,.31v.18h-1.23v-.18h1.23Zm0-.9v.18h-1.2v-.18h1.2Zm-.12,1.66v-.24s0-.03-.03-.03h-.89s-.03,0-.03,.03v.24h.95Z"/>
        <path d="M10.78,27.3h-.56v.13c.14-.02,.24-.03,.31-.05l.04,.16c-.07,.02-.19,.04-.35,.06v.13c0,.07-.04,.13-.1,.17-.07,.05-.2,.04-.4,0v-.17c.16,.03,.26,.04,.3,.02,.01-.01,.02-.03,.02-.05v-.06c-.18,.02-.33,.03-.45,.03l-.03-.17c.14,0,.29-.02,.47-.03v-.15h-.46v-.17h.46v-.09c-.15,.01-.27,.02-.37,.02l-.03-.16c.35-.01,.63-.04,.83-.08l.03,.16c-.07,.01-.16,.03-.29,.04v.11h.5c-.03-.1-.06-.2-.08-.32h-1.09v-.17h.94v-.1h-.74v-.15h.74v-.11h-.87v-.17h.52s-.07-.07-.09-.09l.13-.11c.05,.05,.11,.1,.17,.18l-.04,.03h.5c.08-.08,.14-.15,.18-.2l.14,.11s-.05,.06-.07,.09h.46v.17h-.85v.11h.73v.15h-.73v.1h.93v.17h-.78c.02,.12,.04,.23,.08,.32h.66v.17h-.6c.03,.07,.07,.14,.13,.2,.07-.05,.15-.1,.24-.17l.11,.14c-.08,.07-.16,.12-.23,.16,.03,.02,.06,.04,.08,.06,.05,.03,.08,.04,.11,.03,.02,0,.04-.02,.04-.03,.02-.04,.03-.1,.03-.17l.17,.06c-.04,.2-.08,.31-.14,.35-.07,.01-.15,0-.22-.04-.09-.05-.16-.1-.22-.16-.19,.08-.41,.14-.66,.18l-.05-.17c.18-.01,.38-.06,.6-.14-.07-.08-.12-.18-.15-.28Zm.34-.48c.14,.06,.24,.11,.31,.14l-.09,.14s-.14-.07-.3-.14l.08-.15Z"/>
        <path d="M12.69,27.62c-.08,.08-.19,.13-.31,.13h-.49v-1.72h.49c.09,0,.17,.05,.25,.14,.08,.08,.12,.21,.12,.37,0,.11-.04,.21-.12,.28-.01,.01-.02,.02-.02,.03,.02,.01,.05,.03,.07,.05,.09,.07,.13,.19,.13,.34,0,.17-.05,.31-.12,.4Zm-.19-.93s.05-.1,.05-.17c0-.1-.02-.18-.06-.24-.05-.06-.11-.08-.18-.08h-.24v.56h.24c.08,0,.15-.03,.19-.07Zm-.19,.25h-.24v.63h.3c.08,0,.14-.03,.18-.08,.05-.07,.07-.16,.07-.26,0-.09-.03-.16-.09-.21-.05-.04-.13-.07-.22-.07Z"/>
        <path d="M13.66,27.39v.25h-.28v-.25h.28Z"/>
        <path d="M14.8,27.78c-.18,0-.32-.08-.42-.24-.08-.13-.12-.34-.12-.64,0-.32,.06-.56,.17-.71,.1-.12,.22-.18,.37-.18,.13,0,.24,.03,.31,.12,.08,.09,.12,.2,.12,.34h-.19c0-.08-.03-.15-.07-.2-.05-.05-.11-.08-.17-.08-.09,0-.17,.04-.23,.13-.07,.1-.1,.3-.1,.59,0,.27,.03,.44,.07,.54,.07,.11,.15,.16,.26,.16,.08,0,.14-.03,.18-.08,.04-.06,.06-.14,.06-.22h.19c0,.14-.04,.25-.12,.34-.08,.1-.18,.14-.31,.14Z"/>
        <path d="M16.07,27.39v.25h-.28v-.25h.28Z"/>
        <path d="M16.9,27.75h-.19v-1.72h.89v.18h-.7v.56h.53v.18h-.53v.81Z"/>
        <path d="M18.76,25.85l-.65,2.13h-.16l.65-2.13h.16Z"/>
        <path d="M19.88,27.33c-.16,.21-.38,.4-.66,.55l-.14-.15c.53-.25,.84-.66,.94-1.24h-.91v-.2h.93v-.38h.21v.38h.93v.2h-.91s.01,.08,.02,.11c.14,.44,.45,.83,.94,1.15l-.18,.14c-.11-.08-.21-.16-.29-.23-.3-.28-.5-.56-.61-.86-.07,.19-.15,.37-.26,.53Zm.21,0c.14,.18,.25,.33,.34,.47l-.17,.09c-.11-.18-.22-.33-.33-.46l.16-.1Z"/>
        <path d="M22.69,27.02s0,.01,0,.02c.05,.14,.07,.27,.08,.37,.01,.19-.04,.33-.14,.4-.1,.06-.21,.09-.34,.09-.14,0-.29-.05-.46-.14l.04-.2c.18,.1,.33,.14,.46,.14,.09-.02,.16-.06,.2-.13,.04-.1,.01-.28-.08-.56h-1.04v-.2h.96c-.05-.1-.1-.2-.15-.29h.14l.55-.37s0-.01,0-.02c0,0-.01,0-.02,0h-1.26v-.2h1.5l.18,.2-.78,.51c.03,.06,.06,.12,.08,.18h.89v.2h-.83Z"/>
        <path d="M24.23,26.82s0-.02,0-.02h-.32l-.07-.11,.32-.54s0,0,0,0h-.31v-.19h.5l.09,.12-.34,.53h.29s.07,.03,.07,.06c0,.28-.07,.54-.2,.78,0,0,0,0,0,0,.14,.15,.35,.22,.63,.21h1.01l-.05,.2h-.88c-.16-.01-.29-.03-.42-.05-.12-.03-.25-.1-.38-.2-.07,.11-.15,.22-.24,.31l-.16-.14c.12-.12,.21-.23,.27-.33-.07-.1-.14-.25-.2-.45l.18-.04c.04,.12,.07,.22,.12,.31,.08-.16,.12-.32,.12-.46Zm.21,.59v-.18h.56v-.12h-.47v-.18h.47v-.13h-.4v-.17h.4v-.14h-.59v-.17h.59v-.13h-.4v-.17h.4v-.14h.2v.14h.46s.06,.02,.06,.05v.25h.14v.17h-.14v.25s-.03,.06-.06,.06h-.46v.13h.55v.18h-.55v.12h.63v.18h-.63v.23h-.2v-.23h-.56Zm.76-1.08h.33v-.12s-.01,0-.02,0h-.31v.13Zm0,.31h.31s.02-.01,.02-.02v-.12h-.33v.14Z"/>
        <path d="M26.98,26.26v.18h-.86v-.18h.86Zm-.62,1.61h-.19v-.74s.03-.05,.06-.05h.63s.06,.02,.06,.05v.59s-.02,.06-.06,.06h-.5v.09Zm.51-1.33v.17h-.65v-.17h.65Zm0,.27v.17h-.65v-.17h.65Zm0-.83v.18h-.65v-.18h.65Zm-.49,1.27s-.03,0-.03,.03v.33h.34s.04-.02,.04-.03v-.3s0-.03-.03-.03h-.32Zm.97-1.1v.08c0,.22-.1,.38-.29,.49l-.12-.14s.06-.03,.08-.05c.1-.08,.15-.21,.15-.37v-.18s0-.02,0-.03c.01,0,.02,0,.03,0h.64s.02,0,.03,0c0,.01,.01,.02,.02,.03v.45s0,.05,0,.06c.01,.02,.04,.03,.07,.03h.02s.03-.01,.05-.02c.01,0,.02-.03,.02-.06v-.14l.17,.02c0,.13,0,.21,0,.25-.01,.03-.03,.05-.04,.08-.04,.03-.08,.05-.12,.05h-.16c-.06,0-.1-.02-.12-.05-.04-.04-.05-.08-.05-.12v-.37s0-.03-.03-.03h-.32s-.02,.01-.02,.02Zm-.27,1.77l-.12-.16c.18-.06,.33-.13,.45-.2-.12-.11-.23-.26-.34-.45l.16-.08c.09,.17,.2,.32,.32,.42,.18-.14,.3-.3,.34-.47v-.02s-.04,0-.05,0h-.77v-.18h.93l.11,.08c-.05,.28-.18,.51-.4,.71,.13,.08,.3,.14,.52,.17l-.1,.18c-.24-.07-.43-.15-.57-.24-.12,.07-.28,.15-.47,.24Z"/>
        <path d="M29.48,26.85v.15h-1.08v-.15h1.08Z"/>
        <path d="M29.7,26.73c-.01-.06-.03-.12-.05-.19l.22-.02c.16-.19,.3-.4,.45-.63l.16,.1c-.08,.14-.2,.31-.35,.51l1.16-.08s-.12-.13-.29-.28l.15-.13c.27,.25,.47,.47,.62,.65l-.16,.11c-.05-.06-.1-.12-.16-.18l-1.75,.13Zm.38,1.16h-.21v-.91s.03-.07,.07-.07h1.52s.07,.02,.07,.07v.91h-.21v-.09h-1.25v.09Zm1.25-.28v-.48s0-.03-.03-.03h-1.2s-.03,0-.03,.03v.48h1.25Z"/>
        <path d="M32.65,26.53h-.61v-.2h.61v-.42h.21v1.99h-.21v-.53c-.16,.1-.34,.2-.54,.31l-.12-.16c.23-.11,.45-.24,.65-.37v-.6Zm.68,.05c.26-.17,.45-.32,.58-.44l.13,.15c-.19,.17-.42,.34-.72,.52v.76s.01,.08,.02,.09c.02,.02,.05,.03,.11,.03h.29c.07,0,.12-.02,.13-.05,.02-.04,.04-.16,.04-.37l.21,.03c0,.28-.02,.44-.06,.49-.04,.04-.07,.07-.1,.08-.04,0-.08,0-.14,0h-.44c-.06,0-.11-.01-.14-.03-.07-.05-.11-.14-.11-.25v-1.71h.21v.69Z"/>
        <path d="M34.52,26.9l-.19-.08c.2-.28,.33-.58,.38-.91l.19,.03c-.04,.18-.07,.33-.12,.45v1.51h-.2v-1.11s-.05,.07-.07,.1Zm1.92-.66v.19h-1.54v-.19h1.54Zm-1.23,1.66h-.2v-.69s0-.03,.03-.03h1.27s.04,.02,.04,.04v.68h-.2v-.1h-.95v.1Zm1.07-1.36v.18h-1.22v-.18h1.22Zm0,.31v.18h-1.22v-.18h1.22Zm0-.9v.18h-1.2v-.18h1.2Zm-.12,1.66v-.24s0-.03-.03-.03h-.89s-.03,0-.03,.03v.24h.95Z"/>
        <path d="M37.96,27.3h-.56v.13c.14-.02,.24-.03,.31-.05l.04,.16c-.07,.02-.19,.04-.35,.06v.13c0,.07-.04,.13-.1,.17-.07,.05-.2,.04-.4,0v-.17c.16,.03,.26,.04,.3,.02,.01-.01,.02-.03,.02-.05v-.06c-.18,.02-.33,.03-.45,.03l-.03-.17c.14,0,.29-.02,.47-.03v-.15h-.46v-.17h.46v-.09c-.15,.01-.27,.02-.37,.02l-.03-.16c.35-.01,.63-.04,.83-.08l.03,.16c-.07,.01-.16,.03-.29,.04v.11h.5c-.03-.1-.06-.2-.08-.32h-1.09v-.17h.94v-.1h-.74v-.15h.74v-.11h-.87v-.17h.52s-.07-.07-.09-.09l.13-.11c.05,.05,.11,.1,.17,.18l-.04,.03h.5c.08-.08,.14-.15,.18-.2l.14,.11s-.05,.06-.07,.09h.46v.17h-.85v.11h.73v.15h-.73v.1h.93v.17h-.78c.02,.12,.04,.23,.08,.32h.66v.17h-.6c.03,.07,.07,.14,.12,.2,.07-.05,.15-.1,.24-.17l.11,.14c-.08,.07-.16,.12-.23,.16,.03,.02,.06,.04,.08,.06,.05,.03,.08,.04,.11,.03s.04-.02,.04-.03c.02-.04,.03-.1,.03-.17l.17,.06c-.04,.2-.08,.31-.14,.35-.07,.01-.15,0-.22-.04-.09-.05-.16-.1-.22-.16-.19,.08-.41,.14-.66,.18l-.05-.17c.18-.01,.38-.06,.6-.14-.07-.08-.12-.18-.15-.28Zm.34-.48c.14,.06,.24,.11,.31,.14l-.09,.14s-.14-.07-.3-.14l.08-.15Z"/>
        <path d="M39.94,25.85l-.65,2.13h-.16l.65-2.13h.16Z"/>
        <path d="M40.67,27.9h-.19v-.88c-.02,.09-.04,.16-.08,.22l-.18-.03c.11-.23,.18-.47,.21-.71h-.18v-.19h.23v-.42h.19v.42h.2v.19h-.19c.08,.11,.16,.23,.21,.36l-.16,.08s-.04-.09-.06-.13v1.08Zm.21-.25v-.17h.65v-.15h-.61v-.17h.21v-.24h-.21v-.17h.21v-.24h-.17v-.17h1.34v.17h-.19v.24h.22v.17h-.22v.24h.21v.17h-.61v.15h.63v.17h-.63v.25h-.19v-.25h-.65Zm.54-1.49v.12h-.2v-.12h-.33v-.18h.33v-.09h.2v.09h.39v-.09h.2v.09h.33v.18h-.33v.12h-.2v-.12h-.39Zm.12,.35h-.21v.24h.21v-.24Zm0,.41h-.21v.24h.21v-.24Zm.19-.17h.21v-.24h-.21v.24Zm0,.41h.21v-.24h-.21v.24Z"/>
        <path d="M42.95,26.93v.21c0,.06,0,.15-.03,.25-.02,.09-.04,.18-.06,.26-.04,.1-.07,.18-.1,.23l-.19-.05c.13-.22,.2-.45,.2-.7v-.21h-.17v-.18h.27v-.84h.19v.84h.31v.18h-.15v.65s0,.04,0,.04c0,0,.05-.03,.14-.08l.08,.15c-.16,.1-.28,.14-.35,.14-.01,0-.03,0-.04-.03-.01-.02-.02-.05-.02-.08v-.8h-.09Zm-.2-.85c.05,.24,.07,.43,.07,.59h-.17c-.01-.2-.04-.39-.07-.57l.17-.02Zm.59,0c0,.19-.03,.38-.06,.57l-.17-.03c.04-.15,.06-.33,.06-.56l.17,.03Zm.1,1.55v-.17h.51v-.12h-.44s-.03,0-.03-.03v-.76s0-.03,.03-.03h.44v-.14h-.33v-.17h.33v-.11h-.37s-.02,0-.02,.02v.25h-.18v-.4s.01-.03,.04-.03h1.13l.16,.08c0,.1-.03,.22-.08,.37l-.17-.05c.03-.11,.04-.18,.04-.2s0-.03-.03-.03h-.34v.11h.31v.17h-.31v.14h.46s.03,0,.03,.03v.76s0,.03-.03,.03h-.46v.12h.55v.17h-.55v.26h-.19v-.26h-.51Zm.51-.93h-.28v.14h.28v-.14Zm0,.31h-.28v.14s0,0,0,0h.27v-.15Zm.19-.17h.29v-.14h-.29v.14Zm0,.32h.29v-.15h-.29v.15Z"/>
        <path d="M45.4,26.82s0-.02,0-.02h-.32l-.07-.11,.32-.54s0,0,0,0h-.31v-.19h.5l.09,.12-.34,.53h.29s.07,.03,.07,.06c0,.28-.07,.54-.2,.78,0,0,0,0,0,0,.14,.15,.35,.22,.63,.21h1.01l-.05,.2h-.88c-.16-.01-.29-.03-.42-.05-.12-.03-.25-.1-.38-.2-.07,.11-.15,.22-.24,.31l-.16-.14c.12-.12,.21-.23,.27-.33-.07-.1-.14-.25-.2-.45l.18-.04c.04,.12,.08,.22,.12,.31,.08-.16,.12-.32,.12-.46Zm.21,.59v-.18h.56v-.12h-.47v-.18h.47v-.13h-.4v-.17h.4v-.14h-.59v-.17h.59v-.13h-.4v-.17h.4v-.14h.2v.14h.46s.06,.02,.06,.05v.25h.14v.17h-.14v.25s-.03,.06-.06,.06h-.46v.13h.55v.18h-.55v.12h.63v.18h-.63v.23h-.2v-.23h-.56Zm.76-1.08h.33v-.12s-.01,0-.02,0h-.31v.13Zm0,.31h.31s.02-.01,.02-.02v-.12h-.33v.14Z"/>
        <path d="M48.15,26.26v.18h-.86v-.18h.86Zm-.62,1.61h-.19v-.74s.03-.05,.06-.05h.62s.06,.02,.06,.05v.59s-.02,.06-.06,.06h-.5v.09Zm.51-1.33v.17h-.65v-.17h.65Zm0,.27v.17h-.65v-.17h.65Zm0-.83v.18h-.65v-.18h.65Zm-.49,1.27s-.03,0-.03,.03v.33h.34s.04-.02,.04-.03v-.3s0-.03-.03-.03h-.32Zm.97-1.1v.08c0,.22-.1,.38-.29,.49l-.12-.14s.06-.03,.08-.05c.1-.08,.15-.21,.15-.37v-.18s0-.02,0-.03c.01,0,.02,0,.03,0h.64s.02,0,.03,0c0,.01,.01,.02,.02,.03v.45s0,.05,0,.06c.01,.02,.04,.03,.07,.03h.02s.03-.01,.05-.02c.01,0,.02-.03,.02-.06v-.14l.17,.02c0,.13,0,.21,0,.25-.01,.03-.03,.05-.04,.08-.04,.03-.08,.05-.12,.05h-.16c-.06,0-.1-.02-.12-.05-.04-.04-.05-.08-.05-.12v-.37s0-.03-.03-.03h-.32s-.02,.01-.02,.02Zm-.27,1.77l-.12-.16c.18-.06,.33-.13,.45-.2-.12-.11-.23-.26-.34-.45l.16-.08c.09,.17,.2,.32,.32,.42,.18-.14,.3-.3,.34-.47v-.02s-.04,0-.05,0h-.77v-.18h.93l.11,.08c-.05,.28-.18,.51-.4,.71,.13,.08,.3,.14,.52,.17l-.1,.18c-.24-.07-.43-.15-.57-.24-.12,.07-.28,.15-.47,.24Z"/>
        <path d="M50.66,26.85v.15h-1.08v-.15h1.08Z"/>
        <path d="M51.26,27.91h-.18v-.94c-.04,.08-.07,.16-.09,.23l-.18-.03c.12-.22,.2-.45,.23-.71h-.21v-.17h.24v-.38h.18v.38h.19v.17h-.19v.06c.08,.12,.16,.24,.23,.36l-.14,.08c-.04-.05-.07-.1-.09-.15v1.1Zm1.64-.18v.15h-1.24s-.06-.03-.06-.06v-.64s-.06,.06-.1,.08c-.04-.05-.07-.09-.12-.13,.14-.11,.24-.26,.31-.43l.17,.08s-.04,.08-.06,.11h.36c.05-.07,.08-.14,.11-.19l.15,.08s-.03,.07-.05,.11h.53l-.02,.15h-.52v.12h.5v.15h-.5v.13h.49v.15h-.49v.13h.54Zm-.88-1.58v.07h-.18v-.07h-.34v-.15h.34v-.1h.18v.1h.39v-.1h.18v.1h.32v.15h-.32v.08h-.18v-.08h-.39Zm.11,.54h-.58s-.02,0-.02-.03v-.41s.01-.02,.02-.02h.58s.03,.01,.03,.02v.41s0,.03-.03,.03Zm-.42-.3s0,0,0,0v.14h0s.26,0,.26,0h0v-.14h-.27Zm.46,.65h-.38s-.02,.01-.02,.02v.1h.4v-.12Zm0,.27h-.4v.13h.4v-.13Zm0,.28h-.4v.1s.01,.03,.02,.03h.38v-.13Zm.69-.91h-.59s-.02,0-.02-.03v-.4s.01-.02,.02-.02h.59s.03,.01,.03,.02v.4s0,.03-.03,.03Zm-.43-.29s0,0,0,0v.13h0s.27,0,.27,0h0v-.14h-.28Z"/>
        <path d="M53.17,26.61v-.2h.26v-.5h.21v.5h.45v-.47h.21v.47h.53v-.47h.21v.47h.28v.2h-.28v.68c0,.06-.04,.09-.1,.09h-.74c-.07,0-.1-.04-.1-.09v-.68h-.45v1s.02,.05,.05,.05h1.55v.2h-1.71c-.07,0-.1-.04-.1-.09v-1.16h-.26Zm1.65,0h-.53v.55s.01,.03,.04,.03h.46s.03,0,.03-.03v-.55Z"/>
        <path d="M56.73,26.86h-.27c-.07,.07-.12,.13-.16,.18v.17c0,.06,0,.12-.03,.19,0,.01,0,.02,0,.03-.08,.22-.23,.39-.45,.49l-.13-.15c.07-.03,.13-.06,.19-.1,.15-.11,.23-.26,.23-.45v-.02h0c-.17,.12-.33,.21-.48,.26l-.11-.17s.08-.03,.12-.04c.21-.08,.41-.21,.59-.38h-.54s-.03,0-.03-.03v-.83s0-.03,.03-.03h1.81s.04,0,.04,.03v.83s-.01,.03-.04,.03h-.51c.2,.19,.42,.33,.68,.43l-.14,.15c-.19-.1-.33-.18-.42-.25v.72h-.2v-.89c-.05-.06-.11-.11-.16-.16Zm-.24-.71h-.64s0,0,0,0v.17h.64v-.18Zm0,.36h-.64v.16h0s.64,0,.64,0v-.17Zm.2-.18h.63v-.17s0,0,0,0h-.62v.18Zm0,.35h.62s0,0,0,0v-.16h-.63v.17Z"/>
      </g>
      <g>
        <path class="cls-1" d="M21.83,1.72c0,.07-.03,.11-.08,.11s-.08-.04-.08-.11v-.31s0,0-.01,0l-.14,.06s-.06,.03-.09,.04c-.03,.01-.04,.02-.05,.02-.04,0-.07-.03-.07-.09,0-.03,0-.05,.03-.07,0,0,.02,0,.03-.01h.03V.17h-.02s-.02,0-.02,0c-.01,0-.02-.02-.02-.04s0-.03,.02-.04c0,0,.01,0,.02,0,0,0,0,0,.01,0h.52s0,0,.01,0c0,0,.01,0,.02,0,.01,0,.02,.02,.02,.04,0,.02,0,.03-.02,.04,0,0,0,0-.02,0,0,0,0,0-.01,0h-.06V1.72Zm-.17-1.55h-.13V.48h.13V.17Zm0,.4h-.13v.32h.13v-.32Zm0,.41h-.13v.35s.01,0,.02,0c0,0,.02,0,.04,0h.07v-.34Zm.35-.45c-.04-.07-.08-.13-.13-.18-.01-.01-.02-.03-.02-.04,0-.03,.01-.04,.04-.04,0,0,.02,0,.03,0l.04,.02s.03-.06,.04-.1l.05-.13s.04-.06,.06-.06c.06,0,.09,.03,.09,.08,0,.02-.01,.05-.03,.08l-.06,.07s-.06,.07-.08,.1c.03,.02,.05,.04,.07,.06,0,0,0,.01,.01,.02h0s.03-.05,.07-.12c.02-.05,.05-.07,.08-.07,.06,0,.09,.03,.09,.09,0,.02,0,.04-.02,.07-.05,.07-.1,.13-.14,.18-.05,.06-.1,.12-.15,.17h.18s-.03-.11-.03-.11c0-.03,.01-.04,.04-.04,0,0,.02,0,.04,.03,.01,.02,.03,.04,.05,.07,.04,.05,.06,.09,.07,.12,0-.03,.03-.04,.07-.05,.04-.06,.09-.12,.12-.18-.02,0-.03-.02-.04-.04v-.02s-.02-.01-.02-.02c0-.01-.02-.03-.03-.04-.02-.03-.04-.06-.07-.08-.02-.02-.02-.03-.02-.05,0-.03,.01-.04,.04-.04,0,0,.01,0,.03,0,0,0,.02,0,.02,.01,.03-.06,.06-.13,.1-.23,0,0,0-.01,0-.02,0,0,0-.01,.01-.02,.01-.01,.03-.02,.05-.02,.06,0,.08,.03,.08,.08,0,.01,0,.03,0,.04,0,0,0,.01,0,.02,0,0,0,0,0,0v.02s-.03,.02-.04,.04c-.03,.04-.06,.08-.11,.13,.03,.02,.06,.04,.07,.06l.02,.02s0,0,0,.01l.08-.15s.02-.03,.03-.04c.01-.01,.03-.02,.05-.02,.06,0,.08,.03,.08,.08,0,.02-.01,.05-.03,.08-.04,.05-.09,.11-.15,.18l-.14,.17c.09,0,.16-.01,.19-.02l-.03-.08s0-.02,0-.02c0-.03,.01-.05,.04-.05,0,0,.02,0,.02,.01,0,0,.02,.03,.04,.05l.02,.03s.02,.03,.03,.05c.01,.02,.03,.04,.03,.06,0,.02,.01,.04,.01,.05,0,.06-.03,.08-.08,.08-.03,0-.06-.03-.07-.1l-.29,.06s-.05,0-.06,0c-.02,0-.04-.01-.05-.04,0,.03-.02,.05-.05,.06,0,0-.01,0-.02,0,0,0,0,0-.01,0-.02,0-.04,0-.05-.03,0,0,0-.02-.01-.03v-.04s-.32,.05-.32,.05c-.03,0-.04,0-.05,0-.04,0-.05-.02-.05-.07,0-.04,.03-.06,.09-.06,.01-.02,.04-.05,.06-.09,.02-.03,.04-.06,.05-.08-.01,0-.03-.02-.04-.04Zm.34,.74c0,.07,0,.13-.02,.18-.01,.05-.03,.09-.05,.13-.02,.03-.04,.06-.06,.08,0,0-.02,.02-.03,.03l-.02,.02s-.08,.06-.13,.09c-.04,.02-.07,.04-.08,.04-.03,0-.04-.01-.04-.04,0-.02,.01-.04,.04-.05,.07-.04,.12-.09,.15-.14,.03-.04,.05-.09,.06-.16h-.09c-.06,0-.1-.01-.12-.04-.02-.02-.03-.06-.03-.11v-.24c0-.06,.02-.09,.07-.09s.07,.03,.07,.09v.22c0,.05,.02,.08,.07,.08h.04v-.09s0-.18,0-.18c0,0,0-.02,0-.02,0-.02,0-.03,0-.05,.01-.03,.04-.05,.07-.05s.06,.02,.07,.05c0,.01,0,.03,0,.04,0,0,0,.01,0,.02v.2Zm.34,.08s.07-.03,.07-.08v-.19c0-.07,.03-.1,.07-.1s.08,.03,.08,.1v.21s-.01,.09-.03,.11c-.02,.03-.07,.04-.12,.04h-.12v.28s0,.06-.02,.08c-.01,.03-.04,.04-.07,.04-.06,0-.09-.04-.09-.12v-.66c0-.08,.03-.11,.09-.11s.08,.04,.08,.11v.29h.06Z"/>
        <path class="cls-1" d="M23.76,.12s0-.01,0-.02c0-.02,0-.03,.01-.04,.01-.03,.04-.05,.08-.05s.07,.02,.08,.05c0,.01,0,.03,.01,.04,0,0,0,.01,0,.02v.14h.27s.01,0,.02,0c0,0,.01,0,.02,0,.01,0,.02,.02,.02,.04,0,.02,0,.03-.02,.04,0,0-.01,0-.02,0,0,0,0,0-.01,0h-.27v.33h.22s0,0,.01,0c0,0,.01,0,.02,0,.01,0,.02,.02,.02,.04s0,.03-.02,.04c0,0-.01,0-.02,0,0,0,0,0-.01,0h-.22v.18c0,.06,0,.11,0,.16h.27s.01,0,.02,0c0,0,.01,0,.02,0,.01,0,.02,.02,.02,.04,0,.02,0,.03-.02,.04,0,0,0,0-.02,0,0,0,0,0-.01,0h-.29c-.02,.1-.06,.19-.11,.28-.04,.07-.09,.14-.15,.19-.04,.04-.09,.08-.14,.12-.04,.02-.06,.04-.07,.04-.03,0-.04-.01-.04-.04,0-.02,0-.03,.03-.05,.09-.08,.16-.17,.21-.27,.02-.04,.04-.09,.06-.14,.01-.04,.02-.08,.03-.12h-.29s-.01,0-.02,0c0,0-.01,0-.02,0-.01,0-.02-.02-.02-.04,0-.02,0-.03,.02-.04,0,0,0,0,.02,0,0,0,0,0,.01,0h.3s0-.1,0-.15v-.19h-.26s-.01,0-.02,0c0,0-.01,0-.02,0-.01,0-.02-.02-.02-.04,0-.02,0-.03,.02-.04,0,0,0,0,.02,0,0,0,0,0,.01,0h.26V.34h-.29s-.01,0-.02,0c0,0-.01,0-.02,0-.01,0-.02-.02-.02-.04,0-.02,0-.03,.02-.04,0,0,0,0,.02,0,0,0,0,0,.02,0h.29V.12Zm.77,1.61s0,.01,0,.02c0,.02,0,.03-.01,.04-.01,.03-.04,.05-.08,.05s-.07-.02-.08-.05c0-.01,0-.03-.01-.04,0,0,0-.01,0-.02V.24c0-.1,.05-.16,.16-.16h.39c.08,0,.12,.03,.12,.1,0,.02,0,.05-.03,.1l-.2,.47s0,0,0,0c0,0,0,.01,0,.02s0,.02,.02,.03c.03,.04,.06,.08,.08,.11,.03,.04,.06,.09,.08,.13,.03,.05,.05,.1,.06,.15,.02,.06,.02,.12,.02,.17s0,.11-.03,.15c-.01,.03-.04,.06-.06,.08-.02,.01-.05,.02-.08,.03h-.04s-.2,0-.2,0c0,0-.01,0-.02,0,0,0-.01,0-.02,0-.01,0-.02-.02-.02-.04,0-.02,0-.03,.02-.04,0,0,0,0,.02,0,0,0,0,0,.01,0h.11s.05,0,.07-.03c.02-.03,.03-.08,.03-.16,0-.06,0-.11-.02-.17-.01-.05-.03-.09-.05-.14-.01-.04-.03-.07-.05-.11l-.05-.08s-.05-.08-.05-.09c0,0,0-.02,0-.03l.16-.5s0-.02,0-.03c0-.02-.01-.03-.04-.03h-.16s-.08,.03-.08,.08V1.73Z"/>
        <path class="cls-1" d="M26.42,1.64h.67s.01,0,.02,0c0,0,.01,0,.02,0,.01,0,.02,.02,.02,.04,0,.02,0,.03-.02,.04,0,0,0,0-.02,0,0,0,0,0-.01,0h-1.54s-.02,0-.03,0c-.01,0-.02-.02-.02-.04,0-.02,0-.03,.02-.04,0,0,0,0,.02,0,0,0,.01,0,.02,0h.67V.25h-.55s-.01,0-.02,0c0,0-.01,0-.02,0-.01,0-.02-.02-.02-.04,0-.02,0-.03,.02-.04,0,0,0,0,.02,0,0,0,0,0,.01,0h1.31s.01,0,.02,0c0,0,.01,0,.02,0,.01,0,.02,.02,.02,.04,0,.02,0,.03-.02,.04,0,0,0,0-.02,0,0,0,0,0-.02,0h-.56V1.64Z"/>
        <path class="cls-1" d="M28.05,1.72c0,.08-.03,.12-.09,.12s-.09-.04-.09-.12v-.67c-.04,.1-.09,.19-.15,.26-.05,.07-.08,.1-.1,.1-.03,0-.04-.01-.04-.04,0-.01,0-.03,.02-.05,.03-.04,.05-.08,.07-.11,.03-.05,.05-.1,.08-.15,.03-.06,.05-.13,.07-.19,.02-.08,.04-.16,.05-.25h-.2s0,0-.01,0c0,0-.01,0-.02,0-.01,0-.02-.02-.02-.04,0-.02,0-.03,.02-.04,0,0,0,0,.02,0,0,0,0,0,.01,0h.21V.22h-.13s-.09,.01-.09,.01c0,0-.01,0-.02,0,0,0,0,0-.01-.01,0,0,0-.01,0-.03,0-.02,0-.03,.02-.04h.02s.09-.02,.09-.02l.09-.02c.07-.01,.13-.03,.18-.05l.08-.03s.02,0,.02,0c0,0,.02,0,.02,0,.01,0,.02,0,.03,0,.05,0,.08,.03,.08,.1,0,.05-.06,.09-.19,.1v.33h.14s0,0,.01,0c0,0,.01,0,.02,0,.01,0,.02,.02,.02,.04,0,.02,0,.03-.02,.04,0,0,0,0-.02,0,0,0,0,0-.01,0h-.14c.03,.17,.1,.34,.2,.51,0,.01,.01,.03,.01,.04,0,.03-.01,.04-.04,.04-.02,0-.05-.03-.09-.09-.03-.04-.06-.09-.09-.14v.74Zm.77-.49h.29s.01,0,.02,0c0,0,.01,0,.02,0,.01,0,.02,.02,.02,.04,0,.02,0,.03-.02,.04,0,0,0,0-.02,0,0,0,0,0-.02,0h-.29v.35h.36s.01,0,.02,0c0,0,.01,0,.02,0,.01,0,.02,.02,.02,.04,0,.02,0,.03-.02,.04,0,0,0,0-.02,0,0,0,0,0-.01,0h-.96s-.01,0-.02,0c0,0-.01,0-.02,0-.01,0-.02-.02-.02-.04,0-.02,0-.03,.02-.04,0,0,0,0,.02,0,0,0,0,0,.01,0h.41v-.35h-.27s-.01,0-.02,0c0,0-.01,0-.02,0-.01,0-.02-.02-.02-.04,0-.02,0-.03,.02-.04,0,0,0,0,.02,0,0,0,0,0,.01,0h.27v-.32h-.32s-.01,0-.02,0c0,0-.01,0-.02,0-.01,0-.02-.02-.02-.04,0-.02,0-.03,.02-.04,0,0,0,0,.02,0,0,0,0,0,.01,0h.83s0,0,.01,0c0,0,.01,0,.02,0,.01,0,.02,.02,.02,.04,0,.02,0,.03-.02,.04,0,0,0,0-.02,0,0,0,0,0-.01,0h-.32v.32Zm.33-.72c0,.1-.05,.16-.16,.16h-.52c-.06,0-.11-.01-.13-.04-.02-.02-.03-.06-.03-.11V.23c0-.1,.05-.16,.16-.16h.52c.11,0,.16,.05,.16,.16v.28Zm-.18-.27c0-.05-.02-.08-.07-.08h-.32s-.08,.03-.08,.08v.25c0,.06,.03,.08,.08,.08h.32s.07-.03,.07-.08V.25Z"/>
        <path class="cls-1" d="M31.73,1.72s0,.01,0,.02c0,.02,0,.03,0,.04-.01,.03-.04,.05-.07,.05s-.06-.02-.07-.05c0-.01,0-.03,0-.04,0,0,0-.01,0-.02V.22c0-.1,.05-.16,.16-.16h.27c.08,0,.12,.04,.12,.1,0,.02,0,.03-.01,.06l-.19,.48s0,.01,0,.02c0,0,0,.01,.01,.03l.07,.11s.04,.08,.06,.11c.04,.09,.05,.18,.05,.28,0,.04,0,.09-.01,.12-.01,.05-.04,.1-.07,.13-.03,.02-.06,.03-.11,.03h-.09s-.01,0-.02,0c0,0-.01,0-.02,0-.01,0-.02-.02-.02-.04,0-.03,.03-.04,.08-.04,.06,0,.09-.07,.09-.21,0-.08-.01-.16-.03-.22,0-.03-.02-.06-.04-.11l-.06-.12s0,0,0,0c-.01-.02-.02-.04-.02-.05,0,0,0-.01,0-.02,0,0,0,0,0,0l.15-.49s0-.01,0-.02v-.02s-.02-.01-.03-.01h-.08s-.07,.03-.07,.08V1.72Zm1.05-.55c.03,.09,.09,.19,.16,.29,.07,.09,.13,.16,.2,.21h0s0,.02,0,.02c0,0,0,.02,0,.03,0,.03-.01,.04-.04,.04-.02,0-.08-.04-.17-.11-.05-.04-.09-.08-.13-.13-.05-.05-.09-.11-.12-.16v.37s0,.01,0,.02c0,.02,0,.03,0,.04-.01,.03-.04,.05-.08,.05s-.07-.02-.08-.05c0-.01,0-.03,0-.04,0,0,0-.01,0-.02v-.35c-.04,.06-.1,.12-.16,.18-.05,.05-.1,.09-.16,.13-.04,.03-.09,.06-.13,.08-.03,.02-.05,.03-.06,.03-.03,0-.04-.02-.04-.05,0-.02,.01-.03,.03-.05,.11-.08,.2-.17,.29-.27,.07-.09,.13-.18,.16-.26h-.14c-.12,0-.17-.06-.17-.18v-.35c0-.12,.06-.18,.17-.18h.21v-.18h-.36s0,0-.01,0c0,0-.01,0-.02,0-.01,0-.02-.02-.02-.04,0-.02,0-.03,.02-.04,0,0,0,0,.02,0,0,0,0,0,.02,0h.36V.12s0-.01,0-.02c0-.02,0-.03,0-.04,.01-.03,.04-.05,.08-.05s.07,.02,.08,.05c0,.01,0,.03,0,.04,0,0,0,.01,0,.02v.08h.4s.01,0,.02,0c0,0,.01,0,.02,0,.01,0,.02,.02,.02,.04,0,.02,0,.03-.02,.04,0,0,0,0-.02,0,0,0-.01,0-.02,0h-.4v.18h.21c.12,0,.18,.06,.18,.18v.35c0,.12-.06,.18-.18,.18h-.13Zm-.26-.61h-.13c-.05,0-.08,.03-.08,.09v.13h.21v-.21Zm0,.31h-.21v.13c0,.06,.03,.09,.08,.09h.13v-.22Zm.18-.09h.21v-.13c0-.06-.03-.09-.08-.09h-.14v.21Zm0,.31h.14c.05,0,.08-.03,.08-.09v-.13h-.21v.22Z"/>
        <path class="cls-1" d="M34.69,.69s-.07-.05-.1-.07c-.04-.02-.08-.04-.12-.07-.06,.02-.12,.04-.19,.05-.05,.01-.11,.03-.16,.04-.04,0-.08,.01-.12,.02-.03,0-.05,0-.06,0-.03,0-.04-.02-.04-.05,0-.02,0-.03,.02-.04,0,0,0,0,.01,0l.09-.02s.06-.01,.09-.02c.07-.02,.13-.04,.2-.07-.07-.02-.14-.05-.23-.09-.01,0-.02-.01-.02-.02,0,0,0-.01,0-.02,0-.03,.01-.04,.04-.04h.03s.08,.02,.08,.02c.04,0,.08,.02,.12,.03,.05,.01,.1,.03,.15,.05,.04-.02,.07-.04,.09-.05,.03-.02,.06-.04,.1-.07h-.89s0,0-.01,0c0,0-.01,0-.02,0-.01,0-.02-.02-.02-.04s0-.03,.02-.04c0,0,.01,0,.02,0,0,0,0,0,.01,0h.55v-.05s0-.07,.02-.09c.02-.03,.04-.04,.08-.04,.04,0,.07,.02,.08,.05,0,.01,0,.03,.01,.04,0,0,0,.01,0,.02v.07h.58s.01,0,.02,0c0,0,.01,0,.01,.01,0,0,0,.02,0,.03,0,.02,0,.03-.02,.04,0,0,0,0-.02,0,0,0,0,0-.01,0h-.29s0,.02,0,.03c0,0,0,.01,0,.02,0,0,0,.02,0,.03,0,.04-.05,.09-.14,.13,.11,.04,.17,.09,.17,.13,0,.03-.01,.06-.04,.08h.38s.01,0,.02,0c0,0,.01,0,.02,0,.01,0,.02,.02,.02,.04,0,.02,0,.03-.02,.04,0,0,0,0-.02,0,0,0,0,0-.01,0h-1.23v.18c0,.26-.05,.49-.16,.68-.02,.04-.05,.08-.08,.11-.04,.04-.06,.07-.08,.07-.03,0-.04-.01-.04-.04,0-.01,0-.03,.01-.04l.05-.09s.04-.09,.05-.13c.02-.06,.03-.12,.04-.19,.01-.08,.02-.16,.02-.25v-.3h-.11s0,0-.01,0c0,0-.01,0-.02,0-.01,0-.02-.02-.02-.04,0-.02,0-.03,.02-.04,0,0,0,0,.02,0,0,0,0,0,.01,0h1.04Zm-.73,1.06s0,0,.01,0h.01c.11-.02,.22-.04,.32-.07,.09-.03,.18-.06,.27-.1,.08-.04,.15-.08,.22-.12,.06-.04,.12-.09,.17-.13,.04-.04,.07-.05,.09-.05,.07,0,.11,.04,.11,.12,0,.03,0,.05-.03,.07-.02,.02-.07,.06-.13,.09-.13,.07-.27,.13-.42,.18-.07,.02-.14,.04-.22,.05-.07,.01-.14,.02-.22,.04-.04,0-.07,0-.11,0-.03,0-.04,0-.05,0-.02,0-.03,0-.03-.02,0,0,0-.02,0-.03,0-.02,0-.03,.02-.04Zm.07-.33h.04s.12-.04,.12-.04c.06-.02,.12-.04,.18-.06,.07-.03,.14-.06,.21-.1,.08-.04,.15-.1,.21-.15,.04-.03,.06-.05,.08-.05,.07,0,.1,.04,.1,.11v.02h0s-.01,.04-.02,.05c-.03,.03-.09,.07-.19,.11-.03,.02-.07,.03-.1,.04-.04,.02-.09,.03-.13,.05-.05,.02-.1,.03-.16,.05-.06,.01-.12,.03-.18,.04-.06,.01-.1,.02-.12,.02-.03,0-.04-.02-.04-.05,0-.02,0-.03,.02-.04Zm.01-.33h.01s.01-.01,.01-.01c.11-.03,.21-.06,.29-.1,.09-.04,.17-.09,.25-.15,.03-.03,.06-.04,.08-.04,.06,0,.1,.04,.1,.11v.02s0,.01,0,.02c0,.01-.01,.02-.03,.04-.04,.03-.12,.06-.24,.1-.06,.02-.13,.04-.23,.06l-.13,.03s-.07,.01-.08,.01c-.03,0-.04-.02-.04-.05,0-.02,0-.03,.02-.04Z"/>
        <path class="cls-1" d="M37.29,1.7s.01,0,.02,0c0,0,.01,0,.02,0,.01,0,.02,.02,.02,.04s0,.03-.02,.04c0,0,0,0-.02,0,0,0,0,0-.01,0h-.73c-.09,0-.16,0-.23-.02-.06-.01-.11-.03-.16-.05-.04-.02-.07-.04-.1-.06l-.06-.05s-.06,.07-.09,.1c-.03,.03-.06,.05-.08,.07-.02,.02-.04,.03-.06,.04-.02,0-.03,.01-.03,.01-.03,0-.04-.01-.04-.04,0-.02,.01-.04,.04-.05,.03-.03,.07-.05,.1-.08,.04-.04,.07-.08,.1-.13-.03-.04-.06-.09-.08-.14-.02-.04-.04-.09-.05-.14-.03-.09-.04-.15-.04-.19,0-.04,.01-.06,.04-.08,0,0,.02,0,.03-.01,0,0,.02,0,.02,0,.05,0,.09,.04,.1,.11,0,.05,.01,.09,.02,.13,.01,.05,.03,.1,.05,.15,.02-.05,.03-.1,.05-.16,.01-.05,.02-.1,.03-.15,0-.04,0-.08,.01-.12v-.05s0-.03-.01-.04c0,0,0,0-.01,0h-.18s-.06,0-.08-.02c-.02-.01-.04-.04-.04-.07,0-.01,0-.04,.03-.07l.22-.44s0-.01,0-.02c0,0,0,0,0,0,0-.01,0-.02-.01-.02h-.01s-.26,0-.26,0c0,0-.01,0-.02,0,0,0-.01,0-.02,0-.01,0-.02-.02-.02-.04,0-.02,0-.03,.02-.04,0,0,0,0,.02,0,0,0,0,0,.02,0h.41s0,0,.02,0c.01,0,.03,0,.04,0,.03,.01,.05,.04,.05,.07,0,0,0,.02,0,.04v.03s-.24,.44-.24,.44c0,0,0,.02,0,.02,0,0,0,0,0,0,0,.01,0,.02,.01,.02h.01s.12,0,.12,0c.09,0,.13,.04,.13,.12v.08c-.01,.05-.02,.11-.04,.16-.02,.07-.03,.14-.06,.2-.03,.08-.06,.15-.1,.21,.02,.03,.04,.06,.06,.08,.03,.03,.06,.05,.1,.07,.04,.02,.09,.04,.15,.05,.07,.01,.14,.02,.23,.02h.64Zm-.37-.98h.37s.01,0,.02,0c0,0,.01,0,.02,0,.01,0,.02,.02,.02,.04,0,.02,0,.03-.02,.04,0,0,0,0-.02,0,0,0,0,0-.01,0h-.37v.6h.33s.01,0,.02,0c0,0,.01,0,.02,0,.01,0,.02,.02,.02,.04,0,.02,0,.03-.02,.04,0,0-.01,0-.02,0,0,0,0,0-.02,0h-.85s0,0-.01,0c0,0-.01,0-.02,0-.01,0-.02-.02-.02-.04s0-.03,.02-.04c0,0,0,0,.02,0,0,0,0,0,.01,0h.33V.81h-.36s0,0-.01,0c0,0-.01,0-.02,0-.01,0-.02-.02-.02-.04,0-.02,0-.03,.02-.04,0,0,.01,0,.02,0,0,0,0,0,.01,0h.36V.21h-.13s-.09,0-.13,0h-.02s-.02,0-.03,0c-.01,0-.02,0-.03,0-.01,0-.02,0-.02,0-.01,0-.02-.02-.02-.04,0-.02,0-.03,.02-.04,0,0,.01,0,.02,0h.02c.08,0,.17-.01,.27-.02,.1-.01,.19-.03,.27-.05l.15-.04s.03,0,.04,0c.06,0,.09,.03,.09,.1,0,.04-.02,.06-.05,.07-.03,0-.11,.02-.25,.03V.72Z"/>
      </g>
    </g>
  </g>
</svg>