<?xml version="1.0" encoding="UTF-8"?>
<svg xmlns="http://www.w3.org/2000/svg" viewBox="0 0 43.54 23.59">
  <defs>
    <style>
      .cls-1 {
        fill: #fff;
      }

      .cls-2 {
        isolation: isolate;
      }

      .cls-3 {
        fill: #946134;
      }

      .cls-4 {
        mix-blend-mode: multiply;
        opacity: .8;
      }
    </style>
  </defs>
  <g class="cls-2">
    <g id="_圖層_2" data-name="圖層 2">
      <g id="_圖層_1-2" data-name="圖層 1">
        <polygon class="cls-1" points="22.19 20.56 22.19 23.59 4.13 23.59 4.13 20.45 5.03 20.45 5.03 22.69 21.29 22.69 21.29 20.56 22.19 20.56"/>
        <polygon class="cls-1" points="21.56 0 21.56 2.68 20.66 2.68 20.66 .9 4.39 .9 4.39 2.76 3.49 2.76 3.49 0 21.56 0"/>
        <g class="cls-4">
          <g>
            <path class="cls-3" d="M1.32,5.84c.32-.21,.72-.32,1.18-.32,.29,0,.56,.04,.82,.13,.26,.09,.48,.23,.67,.43,.19,.2,.34,.44,.45,.74,.11,.29,.17,.65,.17,1.07,0,.3-.03,.59-.09,.85-.06,.26-.15,.52-.26,.77-.11,.25-.26,.5-.43,.76-.17,.25-.38,.52-.61,.81-.14,.17-.3,.37-.49,.59-.18,.22-.37,.45-.56,.69-.19,.24-.37,.47-.54,.7-.17,.23-.31,.45-.43,.64h1.05c.53,0,1-.01,1.41-.03,.41-.02,.77-.05,1.08-.07-.04,.2-.06,.36-.06,.5,0,.13,.02,.28,.06,.46-.4-.02-.79-.03-1.18-.03H1.19c-.39,0-.79,0-1.19,.03v-.16c.51-.62,.96-1.16,1.34-1.63,.38-.47,.7-.89,.97-1.27,.26-.38,.48-.71,.65-1.02,.17-.3,.3-.59,.39-.86,.1-.27,.16-.54,.19-.8,.03-.26,.05-.55,.05-.85,0-.66-.12-1.15-.37-1.47-.25-.32-.54-.48-.87-.48-.24,0-.44,.05-.61,.15-.17,.1-.31,.23-.42,.38-.11,.15-.19,.31-.25,.48-.06,.17-.1,.32-.12,.46l-.08,.03-.39-.66c.24-.46,.51-.79,.84-1Z"/>
            <path class="cls-3" d="M6.53,8.34c.09-.56,.23-1.05,.44-1.46,.2-.42,.47-.75,.8-.99,.33-.25,.74-.37,1.21-.37,.53,0,.96,.12,1.3,.37,.33,.25,.6,.58,.79,.99,.19,.42,.32,.9,.39,1.46,.07,.56,.1,1.15,.1,1.79s-.05,1.2-.15,1.76c-.1,.55-.26,1.04-.47,1.46-.21,.42-.48,.75-.8,.99-.32,.24-.71,.36-1.16,.36-.53,0-.96-.12-1.3-.35-.33-.23-.6-.56-.79-.97-.19-.42-.32-.9-.39-1.46-.07-.56-.1-1.15-.1-1.79s.04-1.23,.13-1.79Zm.85,3.44c.06,.51,.15,.95,.28,1.33,.13,.38,.31,.67,.52,.88,.21,.21,.48,.32,.79,.32s.58-.11,.79-.32c.21-.21,.39-.51,.52-.88,.13-.38,.23-.82,.28-1.33,.06-.51,.08-1.06,.08-1.65s-.03-1.14-.08-1.65c-.06-.51-.15-.95-.28-1.33-.13-.38-.31-.67-.52-.88-.21-.21-.48-.32-.79-.32s-.58,.1-.79,.29c-.21,.2-.39,.48-.52,.84-.13,.37-.23,.81-.28,1.32-.06,.51-.08,1.09-.08,1.72,0,.59,.03,1.14,.08,1.65Z"/>
            <path class="cls-3" d="M12.66,8.34c.09-.56,.23-1.05,.44-1.46,.2-.42,.47-.75,.8-.99,.33-.25,.74-.37,1.21-.37,.53,0,.96,.12,1.3,.37,.33,.25,.6,.58,.79,.99,.19,.42,.32,.9,.39,1.46,.07,.56,.1,1.15,.1,1.79s-.05,1.2-.15,1.76c-.1,.55-.26,1.04-.47,1.46-.21,.42-.48,.75-.8,.99-.32,.24-.71,.36-1.16,.36-.53,0-.96-.12-1.3-.35-.33-.23-.6-.56-.79-.97-.19-.42-.32-.9-.39-1.46-.07-.56-.1-1.15-.1-1.79s.04-1.23,.13-1.79Zm.85,3.44c.06,.51,.15,.95,.28,1.33,.13,.38,.31,.67,.52,.88,.21,.21,.48,.32,.79,.32s.58-.11,.79-.32c.21-.21,.39-.51,.52-.88,.13-.38,.23-.82,.28-1.33,.06-.51,.08-1.06,.08-1.65s-.03-1.14-.08-1.65c-.06-.51-.15-.95-.28-1.33-.13-.38-.31-.67-.52-.88-.21-.21-.48-.32-.79-.32s-.58,.1-.79,.29c-.21,.2-.39,.48-.52,.84-.13,.37-.23,.81-.28,1.32-.06,.51-.08,1.09-.08,1.72,0,.59,.03,1.14,.08,1.65Z"/>
            <path class="cls-3" d="M18.8,8.34c.09-.56,.23-1.05,.44-1.46,.2-.42,.47-.75,.8-.99,.33-.25,.74-.37,1.21-.37,.53,0,.96,.12,1.3,.37,.33,.25,.6,.58,.79,.99,.19,.42,.32,.9,.39,1.46,.07,.56,.1,1.15,.1,1.79s-.05,1.2-.15,1.76c-.1,.55-.26,1.04-.47,1.46-.21,.42-.48,.75-.8,.99-.32,.24-.71,.36-1.16,.36-.53,0-.96-.12-1.3-.35-.33-.23-.6-.56-.79-.97-.19-.42-.32-.9-.39-1.46-.07-.56-.1-1.15-.1-1.79s.04-1.23,.13-1.79Zm.85,3.44c.06,.51,.15,.95,.28,1.33,.13,.38,.31,.67,.52,.88,.21,.21,.48,.32,.79,.32s.58-.11,.79-.32c.21-.21,.39-.51,.52-.88,.13-.38,.23-.82,.28-1.33,.06-.51,.08-1.06,.08-1.65s-.03-1.14-.08-1.65c-.06-.51-.15-.95-.28-1.33-.13-.38-.31-.67-.52-.88-.21-.21-.48-.32-.79-.32s-.58,.1-.79,.29c-.21,.2-.39,.48-.52,.84-.13,.37-.23,.81-.28,1.32-.06,.51-.08,1.09-.08,1.72,0,.59,.03,1.14,.08,1.65Z"/>
          </g>
        </g>
        <g>
          <path d="M36.12,5.57s.07,0,.1,0c.04,0,.07,.01,.1,.02,.03,0,.07,.02,.1,.03,.03,.01,.06,.03,.08,.04,.04,0,.07,0,.1-.01,.03,0,.07,0,.1-.01,.03,0,.07,0,.1-.01,.03,0,.07,0,.1,0,.09,0,.19,.01,.28,.02,.09,.01,.19,.03,.28,.06,.02-.01,.05-.02,.07-.03,.02-.01,.05-.02,.07-.03,0,0,0,0,.01,0,0,0,.01,0,.01,0,0,0,0,0,0,0,0,0,0,0,0,0,0,0-.02,.01-.03,.02,0,0-.02,0-.03,.01-.01,0-.02,0-.03,.01-.01,0-.02,0-.03,.01,.04,.02,.07,.04,.1,.06,.03,.03,.07,.05,.09,.08,.03,.03,.05,.06,.06,.1,.01,.03,.02,.07,0,.1-.01,.05-.03,.09-.05,.13-.02,.04-.05,.08-.08,.11-.03,.03-.08,.06-.13,.09-.06,.03-.12,.05-.2,.06,.05,.01,.1,.03,.15,.05,.05,.02,.09,.05,.12,.08,.03,.03,.06,.07,.08,.11,.02,.04,.03,.09,.03,.14,0,.04,0,.07-.02,.11-.01,.03-.03,.07-.05,.1-.02,.03-.05,.07-.08,.1s-.06,.06-.1,.09c-.04,.03-.07,.05-.11,.07-.04,.02-.08,.04-.12,.05-.04,.02-.09,.03-.13,.03-.04,0-.09,.01-.13,.01-.06,0-.11,0-.15-.02-.04-.01-.07-.03-.1-.06-.03-.02-.05-.05-.06-.08-.01-.03-.02-.06-.02-.09,0-.04,0-.08,.02-.11,.01-.04,.04-.07,.06-.1,.03-.03,.06-.06,.09-.09,.03-.03,.07-.05,.11-.08,0,0,0,0,0,0,0,0,0,0,0,0,0,0,0,0,0,0,0,0,0,0,0,0-.04,.02-.07,.05-.1,.08-.03,.03-.06,.06-.08,.09-.02,.03-.04,.06-.05,.09-.01,.03-.02,.07-.02,.1,0,.03,0,.05,.02,.08,.01,.03,.03,.05,.05,.07,.02,.02,.05,.04,.08,.05,.03,.01,.07,.02,.11,.01,.04,0,.08,0,.12-.02,.04-.01,.08-.03,.11-.04,.03-.02,.06-.04,.09-.06s.06-.05,.08-.08c.02-.03,.04-.06,.06-.09,.02-.03,.03-.06,.05-.09,.01-.03,.02-.06,.03-.09s.01-.06,.02-.09c0-.03,0-.06,0-.09-.01-.03-.03-.06-.05-.09s-.05-.05-.07-.07c-.03-.02-.06-.03-.1-.04-.02,0-.03,0-.05,0-.02,0-.03,.01-.05,.02-.02,0-.03,.01-.05,.02-.02,0-.03,0-.05,0,0,0-.02,0-.03,0-.01,0-.02,0-.03-.01,0,0-.01-.01-.02-.02s0-.01,0-.02c0,0,0-.01,.01-.02,0,0,.02-.01,.03-.02,0,0,.02,0,.03,0s.02,0,.03,0c.01,0,.02,0,.03,0s.02,0,.03,0,.02,0,.03,0c.01,0,.02,0,.03,0,.03,0,.06-.01,.09-.02,.03-.01,.05-.02,.07-.04,.02-.01,.04-.03,.06-.05,.02-.02,.04-.04,.05-.06,.01-.02,.03-.04,.04-.06s.02-.04,.03-.07c0-.02,.02-.04,.02-.07s.01-.05,.02-.07c0-.02,0-.04,0-.07s-.02-.04-.03-.07c-.01-.02-.03-.04-.05-.06-.02-.02-.04-.04-.05-.05-.04,.03-.08,.06-.11,.09-.04,.03-.07,.07-.11,.11s-.07,.08-.1,.12c-.03,.04-.06,.08-.09,.13-.03,.04-.06,.09-.09,.13-.03,.04-.06,.09-.09,.13-.03,.04-.06,.09-.09,.13-.03,.04-.06,.09-.09,.13-.03,.04-.06,.09-.1,.13-.03,.04-.07,.08-.1,.12-.04,.04-.07,.07-.11,.11-.04,.03-.08,.07-.12,.1s-.09,.06-.13,.08c-.05,.02-.1,.05-.15,.06-.05,.02-.11,.03-.17,.04-.06,.01-.12,.02-.18,.02-.02,0-.04,0-.06,0-.02,0-.04,0-.06,0-.02,0-.04,0-.06-.01-.02,0-.04-.01-.06-.02s-.03-.02-.05-.03c-.02-.01-.03-.02-.04-.04s-.02-.03-.03-.05c0-.02-.01-.04-.01-.06,0-.01,0-.03,.01-.04,0-.01,.02-.03,.03-.04,.01-.01,.03-.02,.05-.03,.02,0,.03-.01,.05-.02,.01,0,.03,0,.04,0,.01,0,.02,.02,.03,.03,.01,.01,.02,.02,.03,.04,0,.01,.01,.03,.02,.04,0,0,0,.02,0,.03,0,0-.01,.02-.02,.03,0,0-.01,.02-.02,.03,0,0,0,.02,0,.03,0,.02,.01,.03,.03,.04,.01,.01,.03,.03,.05,.04,.02,.01,.04,.02,.06,.02,.02,0,.04,0,.06,0,.05,0,.1-.02,.14-.03,.05-.01,.09-.03,.13-.05s.08-.04,.11-.07,.07-.05,.1-.09,.07-.06,.1-.1c.03-.03,.06-.07,.09-.11,.03-.04,.06-.08,.09-.12,.03-.04,.06-.08,.08-.13,.03-.04,.06-.09,.08-.13,.03-.04,.06-.09,.09-.13,.03-.04,.06-.09,.09-.13,.03-.04,.07-.09,.1-.13,.04-.04,.07-.08,.11-.12,.04-.04,.08-.08,.13-.11,.04-.04,.09-.07,.14-.1,.05-.03,.1-.06,.16-.09-.04-.02-.07-.03-.11-.04-.04-.01-.08-.02-.12-.03-.04,0-.08-.01-.13-.02-.04,0-.08,0-.12-.01-.03,0-.06,0-.1,0-.03,0-.06,0-.1,0-.03,0-.06,0-.1,.01-.03,0-.06,0-.1,.01,.02,.02,.03,.05,.05,.07,.02,.02,.03,.05,.04,.07s.02,.05,.03,.08c0,.03,0,.05,0,.08,0,.04,0,.08-.02,.12-.01,.04-.03,.09-.04,.13-.02,.04-.04,.09-.07,.13-.03,.04-.06,.08-.09,.12-.03,.04-.07,.08-.12,.11-.04,.03-.09,.07-.14,.09-.05,.03-.11,.05-.17,.07-.06,.02-.13,.03-.19,.03-.03,0-.06,0-.08,0-.03,0-.05,0-.07-.02-.02,0-.04-.02-.06-.03-.02-.01-.03-.02-.05-.04s-.03-.03-.04-.05c-.01-.02-.02-.03-.03-.05,0-.02-.01-.03-.02-.05,0-.02,0-.04,0-.05,0-.04,0-.08,.02-.12,.01-.04,.03-.08,.05-.13,.02-.04,.05-.08,.09-.12,.03-.04,.07-.08,.12-.12,.04-.04,.09-.08,.14-.11,.05-.04,.11-.07,.17-.1,.06-.03,.12-.06,.19-.08,.07-.02,.13-.04,.2-.06-.02,0-.05-.02-.08-.03-.03-.01-.05-.02-.08-.03-.03,0-.05-.01-.08-.02-.03,0-.06,0-.08,0-.09,0-.18,.02-.26,.05-.08,.03-.16,.07-.24,.12-.07,.05-.14,.11-.2,.18-.06,.07-.1,.15-.14,.23,0,0,0,0,0,0,0,0,0,0-.01,0,0,0,0,0-.01,0,0,0,0,0,0,0,0-.02,.02-.05,.03-.08,.01-.03,.03-.06,.05-.09,.02-.03,.05-.07,.07-.1s.06-.07,.1-.1c.04-.03,.08-.06,.12-.09,.04-.03,.09-.05,.14-.07,.05-.02,.11-.04,.17-.05,.06-.01,.12-.02,.19-.02Zm.34,.14c-.07,.02-.14,.04-.2,.07-.07,.03-.13,.05-.18,.08-.06,.03-.11,.06-.16,.09-.05,.03-.09,.07-.13,.1s-.08,.07-.11,.11c-.03,.04-.06,.07-.08,.11-.02,.04-.04,.07-.05,.11s-.02,.07-.02,.11c0,.03,0,.05,.02,.08,.01,.03,.03,.05,.05,.08s.05,.04,.08,.06,.07,.02,.12,.02c.05,0,.1,0,.15-.02,.05-.01,.09-.04,.14-.06,.04-.03,.09-.06,.13-.09,.04-.03,.08-.07,.11-.11,.04-.04,.07-.08,.1-.13,.03-.04,.05-.09,.08-.13,.02-.04,.04-.08,.05-.13,.01-.04,.02-.08,.02-.11,0-.02,0-.04,0-.07,0-.02-.01-.04-.02-.06,0-.02-.02-.04-.03-.06-.01-.02-.03-.04-.04-.05Z"/>
          <path d="M38.7,7.37c-.1,.01-.19,.02-.23,.02-.05,0-.07-.02-.08-.11-.09,.08-.18,.12-.29,.12-.16,0-.26-.08-.26-.21s.09-.2,.27-.23c.08-.01,.17-.02,.28-.03v-.09c0-.15-.03-.2-.13-.2-.05,0-.09,.01-.11,.05-.02,.02-.02,.05-.03,.1,0,.05-.03,.07-.1,.07-.08,0-.12-.02-.12-.07,0-.05,.04-.1,.1-.13,.07-.04,.16-.05,.28-.05s.2,.02,.25,.06c.05,.04,.07,.09,.07,.18v.12s0,.12,0,.12c0,.04,0,.07,0,.08,0,.16,0,.17,.11,.17v.03Zm-.31-.41c-.24,.02-.33,.07-.33,.2,0,.1,.05,.17,.14,.17,.07,0,.13-.04,.16-.09,.02-.04,.03-.08,.03-.17v-.11Z"/>
          <path d="M39.11,6.61c0,.05,0,.09,0,.12v.04c.07-.11,.15-.16,.25-.16,.08,0,.14,.05,.14,.11,0,.05-.05,.09-.12,.09-.05,0-.07-.01-.08-.05-.01-.04-.02-.05-.05-.05h0s-.07,.03-.09,.07c-.03,.04-.04,.09-.04,.16v.26c0,.13,.01,.14,.14,.14v.03h-.47v-.03c.12,0,.13-.02,.13-.14v-.4c0-.12-.02-.14-.12-.14v-.03l.32-.02Z"/>
          <path d="M39.71,6.71c.07-.06,.19-.1,.32-.1,.27,0,.44,.15,.44,.39,0,.11-.04,.22-.11,.28-.08,.07-.2,.12-.33,.12s-.25-.04-.32-.11c-.07-.07-.12-.17-.12-.28,0-.12,.05-.23,.13-.3Zm.31,.66c.15,0,.21-.11,.21-.36s-.07-.36-.21-.36c-.07,0-.13,.03-.16,.08-.04,.06-.05,.15-.05,.28,0,.25,.07,.36,.21,.36Z"/>
          <path d="M41.24,7.29c-.06,.07-.15,.11-.26,.11-.22,0-.36-.15-.36-.38,0-.25,.15-.41,.41-.41,.12,0,.2,.03,.29,.1l.07-.09h.06c0,.07,0,.14,0,.23v.67c0,.13,.01,.14,.13,.14v.03h-.47v-.03c.13,0,.14-.02,.14-.14v-.23Zm-.04-.56c-.03-.05-.09-.09-.15-.09-.06,0-.1,.02-.14,.06-.05,.06-.07,.16-.07,.3,0,.1,.02,.18,.05,.25,.03,.06,.08,.1,.15,.1,.07,0,.14-.05,.17-.12,.03-.06,.04-.14,.04-.25,0-.11-.01-.19-.05-.24Z"/>
          <path d="M42.31,7.39s0-.09,0-.15c-.07,.1-.19,.16-.31,.16-.1,0-.18-.04-.22-.11-.02-.04-.03-.09-.03-.18v-.31s0,0,0-.01c0-.06,0-.09-.02-.1-.02-.02-.03-.02-.1-.02v-.03l.34-.02c0,.1-.01,.16-.01,.28v.15s0,.02,0,.03c0,.1,0,.13,.02,.17,.02,.05,.06,.07,.12,.07,.08,0,.14-.04,.18-.12,.02-.05,.03-.09,.03-.17v-.23c0-.08,0-.11-.03-.12-.02-.01-.03-.01-.1-.02v-.03l.34-.02q-.01,.2-.01,.29v.3c0,.12,.02,.15,.11,.15v.03h-.31Z"/>
          <path d="M42.95,6.98c0,.11,.01,.17,.04,.23,.05,.09,.13,.14,.23,.14,.12,0,.22-.06,.28-.16l.04,.02c-.08,.14-.2,.2-.37,.2-.27,0-.44-.15-.44-.39s.17-.4,.42-.4c.17,0,.29,.07,.35,.19,.02,.04,.03,.09,.03,.18h-.59Zm.38-.04c0-.09-.01-.13-.03-.18-.03-.08-.08-.11-.15-.11-.07,0-.13,.04-.16,.13-.02,.04-.03,.09-.04,.16h.37Z"/>
        </g>
        <g>
          <path d="M25.78,6.88c-.02,.07-.06,.13-.12,.17-.05,.04-.11,.06-.17,.06h0c-.09,0-.17-.04-.23-.12-.06-.08-.1-.18-.1-.29s.03-.2,.1-.28c.06-.08,.14-.12,.23-.12,.06,0,.12,.02,.18,.06,.06,.04,.1,.1,.12,.17h-.13s-.04-.05-.07-.07c-.03-.02-.06-.03-.09-.03-.06,0-.11,.03-.15,.08-.04,.05-.06,.12-.06,.19,0,.07,.02,.13,.06,.18s.09,.08,.15,.08c.03,0,.06,0,.09-.02s.05-.04,.07-.07h.14Z"/>
          <path d="M26.55,6.32h.12v.64h.19v.14h-.31v-.78Z"/>
          <path d="M27.75,6.32h.09l.27,.78h-.13l-.07-.2h-.22l-.07,.2h-.13l.26-.78Zm.11,.44l-.07-.24-.07,.24h.14Z"/>
          <path d="M28.91,6.87s0,.06,.03,.07c.02,.02,.04,.03,.06,.03,.01,0,.02,0,.03,0,0,0,.02-.01,.03-.02,.02-.02,.02-.04,.02-.07,0-.04-.01-.07-.03-.08s-.04-.03-.07-.04h0s0,0,0,0c0,0,0,0,0,0h0s-.03-.02-.05-.03-.03-.02-.05-.04c-.01-.02-.02-.03-.03-.06,0-.02-.01-.04-.02-.07h0v-.02c0-.06,.02-.12,.06-.16s.08-.06,.13-.06,.09,.02,.13,.06,.06,.09,.06,.16h-.12s0-.04-.02-.06-.03-.02-.05-.02-.03,0-.05,.02c-.01,.02-.02,.03-.02,.06h0s0,.05,.02,.06c.01,.01,.03,.02,.05,.03h0s0,0,0,0h0s0,0,0,0c.02,0,.04,.02,.06,.03,.02,0,.03,.02,.05,.04,.02,.02,.04,.05,.05,.08,.01,.03,.02,.06,.02,.1,0,.07-.02,.13-.06,.17-.04,.05-.09,.07-.14,.07s-.1-.02-.14-.07c-.04-.04-.06-.1-.06-.17h.12Z"/>
          <path d="M30.02,6.87s0,.06,.03,.07c.02,.02,.04,.03,.06,.03,.01,0,.02,0,.03,0,0,0,.02-.01,.03-.02,.02-.02,.02-.04,.02-.07,0-.04-.01-.07-.03-.08s-.04-.03-.07-.04h0s0,0,0,0c0,0,0,0,0,0h0s-.03-.02-.05-.03-.03-.02-.05-.04c-.01-.02-.02-.03-.03-.06,0-.02-.01-.04-.02-.07h0v-.02c0-.06,.02-.12,.06-.16s.08-.06,.13-.06,.09,.02,.13,.06,.06,.09,.06,.16h-.12s0-.04-.02-.06-.03-.02-.05-.02-.03,0-.05,.02c-.01,.02-.02,.03-.02,.06h0s0,.05,.02,.06c.01,.01,.03,.02,.05,.03h0s0,0,0,0h0s0,0,0,0c.02,0,.04,.02,.06,.03,.02,0,.03,.02,.05,.04,.02,.02,.04,.05,.05,.08,.01,.03,.02,.06,.02,.1,0,.07-.02,.13-.06,.17-.04,.05-.09,.07-.14,.07s-.1-.02-.14-.07c-.04-.04-.06-.1-.06-.17h.12Z"/>
          <path d="M31.1,6.32h.12v.78h-.12v-.78Z"/>
          <path d="M32.56,6.88c-.02,.07-.06,.13-.12,.17-.05,.04-.11,.06-.17,.06h0c-.09,0-.17-.04-.23-.12-.06-.08-.1-.18-.1-.29s.03-.2,.1-.28c.06-.08,.14-.12,.23-.12,.06,0,.12,.02,.18,.06,.06,.04,.1,.1,.12,.17h-.13s-.04-.05-.07-.07c-.03-.02-.06-.03-.09-.03-.06,0-.11,.03-.15,.08-.04,.05-.06,.12-.06,.19,0,.07,.02,.13,.06,.18s.09,.08,.15,.08c.03,0,.06,0,.09-.02s.05-.04,.07-.07h.14Z"/>
          <path d="M33.36,6.87s0,.06,.03,.07c.02,.02,.04,.03,.06,.03,.01,0,.02,0,.03,0,0,0,.02-.01,.03-.02,.02-.02,.02-.04,.02-.07,0-.04-.01-.07-.03-.08s-.04-.03-.07-.04h0s0,0,0,0c0,0,0,0,0,0h0s-.03-.02-.05-.03-.03-.02-.05-.04c-.01-.02-.02-.03-.03-.06,0-.02-.01-.04-.02-.07h0v-.02c0-.06,.02-.12,.06-.16s.08-.06,.13-.06,.09,.02,.13,.06,.06,.09,.06,.16h-.12s0-.04-.02-.06-.03-.02-.05-.02-.03,0-.05,.02c-.01,.02-.02,.03-.02,.06h0s0,.05,.02,.06c.01,.01,.03,.02,.05,.03h0s0,0,0,0h0s0,0,0,0c.02,0,.04,.02,.06,.03,.02,0,.03,.02,.05,.04,.02,.02,.04,.05,.05,.08,.01,.03,.02,.06,.02,.1,0,.07-.02,.13-.06,.17-.04,.05-.09,.07-.14,.07s-.1-.02-.14-.07c-.04-.04-.06-.1-.06-.17h.12Z"/>
        </g>
        <path d="M29.27,13.42c0,.2,.01,.2,1.41,.2s1.59-.01,1.69-.15c.08-.1,.16-.33,.42-1.19h.05s-.03,1-.03,1c0,.02,0,.04,0,.04,0,.14,.01,.17,.08,.2,.15,.07,.2,.13,.2,.27,0,.17-.09,.27-.3,.33-.19,.05-.58,.07-1.36,.07q-.33,0-1.89-.01c-.69,0-.85-.11-.87-.6v-.92s0-2.49,0-2.49q-.01-.36-.02-.52c0-.15,0-.16-.01-.32,.31,.15,.4,.21,.7,.39h2.63c.14-.16,.18-.21,.33-.36,.21,.16,.27,.21,.47,.37,.04,.04,.06,.07,.06,.09,0,.06-.06,.1-.2,.18v.56c0,.45,0,.59,.02,1.36,0,.1-.01,.13-.05,.14-.04,.02-.27,.05-.42,.05-.11,0-.14-.03-.14-.15v-.26h-2.76v1.72Zm1.07-3.58h-1.07v1.74h1.07v-1.74Zm1.69,1.74v-1.74h-1.1v1.74h1.1Z"/>
        <path d="M25.17,12.48c.34,.08,.43,.14,.43,.27,0,.11-.07,.21-.15,.21-.04,0-.05-.02-.07-.09-.06-.17-.11-.25-.22-.37v-.02Zm.02,.91c.11,.02,.14,.02,.17,.02,.04,0,.07-.03,.13-.17,.09-.19,.27-.61,.36-.85h.03s-.28,1.01-.28,1.01c-.02,.06-.03,.14-.03,.16s0,.05,.03,.11c.04,.12,.05,.16,.05,.23,0,.14-.1,.26-.22,.26-.06,0-.09-.03-.09-.09,0-.02,0-.08,.01-.13,.02-.16,.03-.22,.03-.29s-.02-.13-.06-.16c-.03-.02-.05-.04-.14-.06v-.03Zm.15-1.46c.2,.05,.29,.08,.35,.12,.08,.05,.11,.1,.11,.18,0,.1-.07,.19-.14,.19-.04,0-.06-.02-.09-.1-.06-.16-.11-.23-.24-.36v-.03Zm1.59,.97c.06-.07,.08-.09,.14-.16,.1,.07,.12,.09,.21,.16,.02,.02,.03,.03,.03,.04,0,.02-.03,.04-.11,.07-.12,.28-.2,.42-.35,.59,.2,.13,.34,.18,.6,.22v.03c-.07,.03-.1,.06-.14,.11-.03,.04-.05,.1-.07,.14,0,.03-.02,.04-.03,.04,0,0-.05-.02-.11-.05-.14-.08-.29-.2-.41-.33-.08,.07-.15,.12-.24,.18-.18,.11-.33,.17-.6,.25v-.03c.3-.16,.52-.33,.72-.56-.14-.2-.2-.36-.26-.64h-.12c-.02,.29-.05,.46-.11,.64-.05,.15-.14,.29-.23,.41-.05,.06-.08,.1-.17,.18l-.02-.02c.12-.21,.18-.38,.23-.64,.05-.25,.07-.53,.07-.95,0-.17,0-.29-.01-.45,.14,.07,.17,.09,.3,.17h.26v-.13c0-.11,0-.17-.02-.28,.3,.03,.32,.03,.34,.04,.02,0,.03,.02,.03,.03,0,.02-.03,.04-.1,.07v.27h.28c.06-.08,.08-.1,.14-.17,.1,.08,.14,.1,.23,.18,.02,.02,.03,.04,.03,.05,0,.03-.02,.04-.13,.06-.17,.15-.22,.19-.35,.28l-.02-.02c.06-.13,.08-.19,.13-.33h-.31v.55h.18Zm-.43-.55h-.29c0,.28,0,.38,0,.55h.3v-.55Zm-.13,.61c.09,.25,.16,.36,.31,.51,.11-.15,.17-.28,.26-.51h-.57Z"/>
        <path d="M25.34,9.93c.05,.14,.07,.24,.07,.36,0,.2-.06,.35-.15,.35-.03,0-.06-.03-.08-.07-.02-.04-.03-.09-.03-.12t.07-.14c.06-.08,.09-.19,.09-.32,0,0,0-.04,0-.06h.03Zm-.17,1.74c.12-.21,.2-.41,.25-.66,.05-.24,.06-.53,.06-1.06,0-.26,0-.39-.01-.55,.32,.03,.36,.04,.36,.07,0,.02-.02,.04-.1,.07,0,.11,0,.22,0,.35q0,.31,0,.37c.05-.11,.09-.23,.11-.37,.08,.08,.11,.1,.15,.15,0-.13,0-.15-.01-.25,.12,.06,.15,.08,.25,.14h.13v-.32h-.3c-.06,0-.09,0-.15,.02l-.02-.09c.06,.01,.11,.02,.16,.02h.95c.07-.08,.09-.11,.16-.19,.11,.09,.14,.11,.25,.2,0,.01,.01,.02,.01,.03,0,0,0,.02-.03,.02h-.49v.32h.14c.05-.06,.07-.08,.12-.14,.08,.06,.1,.08,.18,.15,.02,.02,.02,.03,.02,.04,0,.02-.02,.03-.08,.07v.17c0,.11,0,.17,0,.46,0,.04-.03,.05-.16,.05-.07,0-.07,0-.08-.04v-.07h-.84v.07c0,.05-.02,.06-.14,.06-.09,0-.1,0-.1-.05q0-.26,.01-.55h-.03c-.11,.11-.15,.14-.24,.2,0,.25-.02,.38-.05,.52,.23,.12,.35,.24,.35,.34s-.08,.21-.15,.21c-.01,0-.03,0-.03-.02t-.03-.11c-.03-.19-.07-.28-.15-.38-.03,.12-.06,.22-.12,.32-.09,.19-.18,.3-.35,.46l-.02-.02Zm1.84-.13c.05-.07,.11-.14,.17-.21,.11,.09,.15,.12,.25,.22,0,.01,.01,.02,.01,.02,0,0-.01,.02-.03,.02h-1.43c-.07,0-.1,0-.17,.02v-.09c.05,.02,.1,.02,.17,.02h.49v-.47h-.28c-.06,0-.1,0-.16,.02l-.02-.09c.07,.01,.1,.02,.17,.02h.28v-.11c0-.11,0-.15,0-.25,.34,.04,.35,.04,.35,.07,0,.02-.02,.04-.1,.06v.22h.22c.06-.08,.09-.11,.15-.19,.1,.09,.14,.11,.24,.2,0,0,.01,.02,.01,.02,0,0,0,.02-.02,.02h-.6v.47h.28Zm-.66-.98v-.57h-.14v.57h.14Zm.35-.94h-.15v.32h.15v-.32Zm-.15,.37v.57h.15v-.57h-.15Zm.35,.57h.15v-.57h-.15v.57Z"/>
        <path d="M33.52,10.45c.73,.18,.98,.34,.98,.6,0,.21-.19,.45-.35,.45-.07,0-.12-.05-.15-.17-.14-.39-.27-.6-.51-.84l.03-.05Zm.03,2.04c.22,.05,.31,.07,.36,.07,.09,0,.11-.03,.28-.38,.16-.3,.4-.86,.88-1.94l.06,.03-.67,2.28c-.05,.16-.06,.22-.06,.27s.02,.11,.06,.25c.1,.26,.12,.36,.12,.5,0,.35-.23,.63-.52,.63-.11,0-.18-.07-.18-.17,0-.06,.01-.15,.03-.25,.03-.22,.05-.49,.05-.65,0-.2-.02-.3-.09-.37-.05-.06-.08-.08-.34-.19l.02-.08Zm.31-3.28c.39,.08,.58,.15,.76,.24,.21,.12,.29,.22,.29,.4,0,.24-.16,.44-.34,.44-.04,0-.07-.02-.09-.04t-.14-.27c-.05-.12-.16-.31-.27-.45-.06-.08-.12-.14-.24-.26l.03-.06Zm3.34,.63c.11-.11,.22-.22,.32-.32,.22,.17,.29,.22,.49,.41,.05,.04,.06,.07,.06,.1,0,.06-.06,.08-.25,.12-.32,.5-.48,.71-.8,1.02,.46,.26,.92,.39,1.57,.44v.06c-.14,.08-.18,.12-.24,.25-.04,.08-.07,.15-.1,.24-.03,.08-.04,.1-.07,.1-.04,0-.15-.03-.31-.1-.44-.17-.8-.41-1.13-.72-.38,.3-.71,.5-1.15,.7,.17,.08,.2,.1,.39,.2h1.27c.12-.12,.15-.15,.27-.26,.19,.13,.24,.17,.43,.3,.05,.04,.06,.06,.06,.1,0,.04-.04,.07-.15,.14q0,.5,.02,1.51s0,.07-.02,.09c-.03,.04-.15,.06-.36,.06-.17,0-.21-.02-.21-.11,0,0,0-.01,0-.02v-.27h-1.35v.27c0,.12-.05,.14-.36,.14-.2,0-.23-.02-.23-.12,.02-.54,.03-1.01,.03-1.44q0-.21-.01-.5c-.22,.08-.35,.12-.67,.2l-.03-.07c.73-.35,1.15-.65,1.76-1.25-.18-.22-.33-.5-.43-.76-.29,.42-.55,.68-1.05,1.07l-.04-.04c.33-.48,.48-.75,.67-1.19,.18-.44,.27-.74,.3-1.06,.2,.04,.35,.07,.45,.08,.33,.06,.42,.1,.42,.16,0,.05-.06,.08-.27,.13-.09,.17-.12,.25-.18,.36h.89Zm-1.25,3.91h1.35v-1.31h-1.35v1.31Zm.29-3.79c-.06,.12-.1,.16-.16,.27,.15,.28,.28,.43,.55,.65,.25-.29,.39-.51,.6-.92h-.98Z"/>
        <path d="M38.55,14.21c.74-.29,1.05-.5,1.3-.9,.2-.32,.29-.65,.31-1.18,.16,.03,.29,.05,.38,.06,.34,.06,.42,.08,.42,.14,0,.05-.05,.08-.19,.12-.13,.67-.29,.98-.63,1.27-.36,.3-.76,.44-1.56,.57l-.02-.08Zm3.87-4.26c.15-.18,.28-.35,.4-.5,.29,.22,.37,.29,.64,.53,.02,.02,.03,.04,.03,.05,0,.02-.02,.03-.05,.03h-2.13v.75h.73c.13-.15,.17-.19,.3-.34,.2,.14,.27,.18,.45,.32,.05,.04,.07,.07,.07,.1,0,.05-.05,.1-.2,.17v.25c0,.28,0,.46,.02,.88,0,.06-.01,.09-.05,.11-.05,.03-.18,.04-.35,.04-.18,0-.21-.01-.21-.1v-.16h-.28v1.4c0,.13,.02,.13,.53,.13,.42,0,.45-.01,.53-.12,.08-.12,.19-.43,.4-1.1h.06s-.06,.98-.06,.98c0,.01,0,.02,0,.03,0,.06,.02,.09,.07,.11,.11,.04,.12,.05,.15,.08,.04,.04,.05,.1,.05,.17,0,.14-.07,.25-.21,.31-.12,.05-.53,.08-1.14,.08-.57,0-.76-.02-.86-.1-.09-.06-.11-.13-.12-.27q0-.3,0-.49v-1.21h-1.2v.13c0,.11-.05,.13-.41,.13-.18,0-.2-.02-.2-.12,.02-.32,.02-.54,.02-1.13,0-.22,0-.35-.02-.62,.3,.14,.39,.18,.66,.34h.65v-.75h-1.57c-.18,0-.27,0-.4,.03l-.03-.21c.15,.04,.26,.06,.43,.06h1.57v-.1c0-.29,0-.41-.03-.7,.19,.02,.32,.03,.42,.04,.42,.03,.48,.06,.48,.13,0,.06-.06,.1-.24,.15v.48h1.11Zm-2.43,2.02h2.08v-1.04h-2.08v1.04Z"/>
        <g>
          <path class="cls-3" d="M1.49,17.7s-.02,.07-.03,.1c-.18,.44-.52,.78-1,1.02l-.16-.17c.58-.26,.93-.7,1.05-1.3H.38v-.22h.99s.01-.07,.01-.11v-.36h.24v.36s0,.08,0,.11h.99v.22h-.96c.01,.09,.03,.18,.05,.25,.13,.4,.46,.76,1,1.09l-.2,.15c-.05-.04-.1-.07-.14-.09-.45-.33-.73-.68-.86-1.05Z"/>
          <path class="cls-3" d="M6.47,18.47h-1.5s-.03,0-.03-.03v-1.29s0-.03,.03-.03h.53v-.15h-1.05v-.2h1.05v-.14h.22v.14h.97v.2h-.97v.15h.75s.04,0,.04,.03v1.29s-.01,.03-.04,.03Zm-1.72-1.28v1.39s.02,.05,.05,.05h1.88v.2h-2.04c-.07,0-.1-.03-.1-.09v-1.54h.22Zm1.54,.31v-.17s0,0-.01,0h-1.12s0,0,0,0v.17h1.14Zm0,.38v-.19h-1.14v.19h1.14Zm-1.14,.2v.19h0s1.12,0,1.12,0c0,0,.01,0,.01,0v-.19h-1.14Z"/>
          <path class="cls-3" d="M9.52,18.52h-.92v-.19h.92v-.13h-.81s-.03,0-.03-.03v-.8s.01-.03,.03-.03h.81v-.12h-1.06v-.19h1.06v-.11c-.32,.01-.59,.02-.81,0l-.02-.21c.28,0,.59,0,.96-.02,.38-.02,.65-.05,.84-.07l.03,.2c-.15,.03-.39,.06-.72,.08-.02,0-.04,0-.06,0v.12h1.05v.19h-1.05v.12h.8s.03,0,.03,.03v.8s0,.03-.03,.03h-.8v.13h.91v.19h-.91v.11h1.03v.19h-2.28v-.19h1.04v-.11Zm0-.98h-.63v.15h.63v-.15Zm0,.34h-.63v.13s0,0,0,0h.62v-.14Zm.22-.19h.62v-.15h-.62v.15Zm0,.33h.62v-.14h-.62v.14Z"/>
          <path class="cls-3" d="M13.2,17.6h-.6v-.14h.6v-.07h-.53v-.15h.53v-.1h-.64v-.14h.64v-.07h-.52v-.15h.52v-.14h.21v.14h.51s.06,.02,.06,.05v.18h.19v.14h-.19v.2s-.02,.06-.06,.06h-.51v.07h.64v.14h-.64v.08h.7v.15h-1.55v-.15h.64v-.08Zm.83,1v.17s-1.44,.06-1.44,.06l-.02-.17,1.46-.06Zm-.07-.07h-1.3s-.02,0-.02-.03v-.58s.01-.02,.02-.02h1.3s.03,.01,.03,.02v.58s0,.03-.03,.03Zm-.75-.48h-.38s0,0,0,0v.09h.38v-.09Zm0,.23h-.38v.08h0s.38,0,.38,0v-.09Zm.2-1.3h.38v-.07s-.01,0-.02,0h-.36v.07Zm0,.24h.36s.02-.01,.02-.02v-.08h-.38v.1Zm0,.92h.38v-.09h-.38v.09Zm0,.23h.38v-.09h-.38v.09Zm1.01-1.6v1.58h-.2v-1.58h.2Zm.41-.15v1.96c0,.09-.04,.16-.11,.2-.08,.06-.25,.06-.48,0v-.21c.2,.04,.33,.05,.37,.03,.01-.02,.02-.04,.02-.07v-1.91h.21Z"/>
          <path class="cls-3" d="M16.59,16.91v-.19h2.28v.19h-1.96v1.62s.02,.05,.05,.05h1.89v.2h-2.05c-.07,0-.1-.03-.1-.09v-1.77h-.1Zm1.22,1.57h-.74s-.03,0-.03-.03v-.7s0-.03,.03-.03h.74s.03,0,.03,.03v.7s0,.03-.03,.03Zm.75-.89h-1.39s-.03,0-.03-.03v-.51s0-.03,.03-.03h1.39s.03,0,.03,.03v.51s0,.03-.03,.03Zm-1.32,.31s0,0,0,0v.38h0s.4,0,.4,0c0,0,0,0,0,0v-.38s0,0,0,0h-.4Zm.12-.69s0,0,0,0v.19s0,0,0,0h1.02s0,0,0,0v-.19s0,0,0,0h-1.02Zm1.38,1.27h-.73s-.03,0-.03-.03v-.69s.01-.03,.03-.03h.73s.03,0,.03,.03v.69s0,.03-.03,.03Zm-.56-.57s0,0,0,0v.38h0s.38,0,.38,0c0,0,0,0,0,0v-.38s0,0,0,0h-.38Z"/>
          <path class="cls-3" d="M20.99,18.84h-.23v-1.55c0-.05,.03-.08,.08-.08h.71c.02-.07,.04-.14,.06-.22,.01-.04,.02-.07,.02-.08h-.99v-.21h2.28v.21h-1.07s-.02,.1-.04,.16c-.02,.05-.03,.1-.04,.14h.94c.05,0,.08,.02,.08,.08v1.55h-.23v-.1h-1.58v.1Zm1.58-.95v-.44s0-.03-.03-.03h-1.52s-.03,0-.03,.03v.44h1.58Zm-1.58,.21v.43h1.58v-.43h-1.58Z"/>
          <path class="cls-3" d="M24.72,18.39v-.21h.35v-.74s.02-.05,.05-.05h.83v-.38h-.73c-.1,.16-.22,.29-.37,.4l-.16-.14c.12-.09,.21-.18,.28-.28,.06-.08,.12-.21,.18-.38l.21,.06s-.03,.1-.05,.14h1.69v.21h-.82v.38h.76v.21h-.76v.58h.86v.21h-.86v.46h-.23v-.46h-1.22Zm1.22-.79h-.62s-.03,.01-.03,.02v.56h.65v-.58Z"/>
          <path class="cls-3" d="M29.56,18.82h-.23v-1.07c-.21,.17-.33,.26-.35,.28l-.17-.16c.07-.04,.13-.08,.19-.12,.3-.2,.54-.47,.72-.82h-.83v-.21h2.21v.21h-1.15c-.14,.28-.29,.49-.42,.63h1.33c.05,0,.08,.02,.08,.07v1.18h-.23v-.1h-1.16v.1Zm1.16-.31v-.71s-.01-.03-.03-.03h-1.1s-.03,0-.03,.03v.71h1.16Z"/>
          <path class="cls-3" d="M35.2,18.62v.19h-.86c-.05,0-.08-.03-.08-.08v-1.21c-.03,.06-.06,.11-.09,.15-.03-.02-.06-.04-.08-.06v1c0,.08-.03,.14-.07,.18-.07,.06-.24,.07-.49,.04v-.22c.18,.04,.3,.05,.34,.03,.02-.01,.03-.04,.03-.08v-1.65s0-.02-.03-.02h-.25v.18h.18v.17h-.18v.15h.19v.17h-.58v-.17h.2v-.15h-.19v-.17h.19v-.18h-.26s-.02,0-.02,.02v1.05c0,.33-.03,.62-.07,.88l-.21-.03c.05-.34,.07-.66,.08-.96v-1.1s.02-.06,.06-.06h1.02s.07,.02,.07,.06v.68c.06-.11,.11-.22,.15-.32,.04-.14,.07-.3,.09-.5l.2,.04c-.01,.12-.04,.24-.08,.38h.25c.04-.15,.07-.27,.09-.38l.2,.05c-.02,.1-.04,.21-.07,.33h.29l-.02,.19h-.28v.34h.27v.19h-.27v.34h.27v.19h-.27v.34h.3Zm-1.42-.12h-.52s-.02,0-.02-.03v-.78s.01-.03,.02-.03h.52s.03,0,.03,.03v.78s0,.03-.03,.03Zm-.37-.66h0v.47h0s.21,0,.21,0c0,0,0,0,0,0v-.46h0s-.21,0-.21,0Zm1.28-.61h-.2s-.03,0-.03,.03v.31h.23v-.34Zm0,.53h-.23v.34h.23v-.34Zm0,.52h-.23v.31s.01,.03,.03,.03h.2v-.34Z"/>
          <path class="cls-3" d="M36.99,18.21v-.2h.71v-.21h-.52c-.07,0-.1-.03-.1-.09v-.46h.22v.31s.02,.05,.05,.05h.36v-.39h.22v1.63h-.22v-.64h-.28c-.06,.24-.14,.44-.25,.59l-.21-.08c.12-.17,.2-.34,.25-.52h-.23Zm.77-1.21v.15h-.22v-.15h-.55v-.2h.55v-.18h.22v.18h.74v-.18h.22v.18h.55v.2h-.55v.15h-.22v-.15h-.74Zm.78,.79h-.5v-.2h.5v-.36h.22v.36h.52v.2h-.52v.76h.51v.2h-1.18v-.2h.45v-.76Z"/>
          <path class="cls-3" d="M41.26,18.85h-.21v-2.09s.03-.07,.07-.07h1.99s.07,.02,.07,.07v2.09h-.21v-.09h-1.72v.09Zm.77-1.59v-.11h-.59v-.16h.59v-.1h-.74s-.03,0-.03,.03v1.66h1.72v-1.67s0-.02-.03-.02h-.72v.1h.59v.16h-.59v.11h.66v.17h-1.52v-.17h.66Zm-.02,.74v.52h-.2v-.36c-.13,.11-.25,.2-.36,.25l-.14-.14c.16-.08,.3-.17,.41-.27h-.24s-.03,0-.03-.03v-.43s0-.03,.03-.03h1.24s.03,0,.03,.03v.43s0,.03-.03,.03h-.44c.1,.21,.3,.33,.59,.38l-.1,.17c-.36-.08-.59-.26-.69-.54h-.09Zm-.35-.33s0,0,0,0v.15s0,0,0,0h.91s0,0,0,0v-.15s0,0,0,0h-.91Zm1.26,.46c-.07,.05-.15,.1-.26,.16l-.09-.15c.1-.06,.19-.11,.25-.15l.1,.14Z"/>
        </g>
      </g>
    </g>
  </g>
</svg>