<?xml version="1.0" encoding="UTF-8"?>
<svg id="_圖層_2" data-name="圖層 2" xmlns="http://www.w3.org/2000/svg" viewBox="0 0 42.41 23.59">
  <defs>
    <style>
      .cls-1 {
        fill: #fff;
      }

      .cls-2 {
        fill: #946134;
      }

      .cls-3 {
        opacity: .8;
      }
    </style>
  </defs>
  <g id="_圖層_1-2" data-name="圖層 1">
    <polygon class="cls-1" points="21.47 20.56 21.47 23.59 3.4 23.59 3.4 20.45 4.3 20.45 4.3 22.69 20.57 22.69 20.57 20.56 21.47 20.56"/>
    <polygon class="cls-1" points="20.83 0 20.83 2.68 19.93 2.68 19.93 .9 3.67 .9 3.67 2.76 2.77 2.76 2.77 0 20.83 0"/>
    <g class="cls-3">
      <path class="cls-2" d="M1.3,5.9c.32-.19,.7-.29,1.16-.29,.28,0,.55,.04,.8,.12,.25,.08,.47,.21,.65,.38,.18,.18,.33,.4,.44,.66,.11,.26,.16,.58,.16,.96,0,.27-.03,.53-.09,.76-.06,.24-.14,.47-.25,.69s-.25,.45-.42,.68c-.17,.23-.37,.47-.6,.72-.14,.15-.3,.33-.48,.53-.18,.2-.36,.41-.55,.62-.18,.21-.36,.42-.52,.63-.17,.21-.31,.4-.42,.58h1.03c.52,0,.98,0,1.38-.03,.4-.02,.75-.04,1.05-.07-.04,.18-.05,.32-.05,.44,0,.11,.02,.25,.05,.41-.39-.02-.77-.02-1.16-.02H1.16c-.39,0-.77,0-1.16,.02v-.14c.5-.55,.94-1.04,1.31-1.46s.69-.8,.95-1.13c.26-.34,.47-.64,.63-.91s.29-.53,.38-.77,.16-.48,.19-.72c.03-.24,.05-.49,.05-.76,0-.59-.12-1.03-.36-1.31-.24-.28-.52-.43-.85-.43-.23,0-.43,.05-.59,.14-.17,.09-.3,.2-.41,.34-.11,.13-.19,.27-.25,.43s-.1,.29-.12,.41l-.08,.02-.38-.59c.23-.41,.5-.71,.82-.9Z"/>
      <path class="cls-2" d="M6.4,8.13c.09-.5,.23-.93,.43-1.31s.46-.67,.78-.89,.72-.33,1.19-.33c.52,0,.94,.11,1.27,.33s.59,.52,.77,.89c.19,.37,.31,.81,.38,1.31,.07,.5,.1,1.03,.1,1.6s-.05,1.07-.15,1.57c-.1,.5-.25,.93-.46,1.31-.21,.38-.47,.67-.78,.89-.32,.22-.7,.32-1.13,.32-.52,0-.94-.1-1.27-.31-.33-.21-.58-.5-.77-.87-.19-.37-.32-.81-.38-1.31-.07-.5-.1-1.03-.1-1.6s.04-1.1,.13-1.6Zm.84,3.07c.05,.46,.15,.85,.28,1.19,.13,.34,.3,.6,.51,.79,.21,.19,.47,.29,.78,.29s.57-.1,.78-.29c.21-.19,.38-.46,.51-.79,.13-.34,.22-.73,.28-1.19,.05-.46,.08-.95,.08-1.47s-.03-1.02-.08-1.47c-.05-.46-.15-.85-.28-1.19s-.3-.6-.51-.79c-.21-.19-.47-.29-.78-.29s-.57,.09-.78,.26c-.21,.18-.38,.43-.51,.76s-.22,.72-.28,1.18c-.05,.46-.08,.97-.08,1.54,0,.53,.03,1.02,.08,1.47Z"/>
      <path class="cls-2" d="M12.41,8.13c.09-.5,.23-.93,.43-1.31s.46-.67,.78-.89,.72-.33,1.19-.33c.52,0,.94,.11,1.27,.33s.59,.52,.77,.89c.19,.37,.31,.81,.38,1.31,.07,.5,.1,1.03,.1,1.6s-.05,1.07-.15,1.57c-.1,.5-.25,.93-.46,1.31-.21,.38-.47,.67-.78,.89-.32,.22-.7,.32-1.13,.32-.52,0-.94-.1-1.27-.31-.33-.21-.58-.5-.77-.87-.19-.37-.32-.81-.38-1.31-.07-.5-.1-1.03-.1-1.6s.04-1.1,.13-1.6Zm.84,3.07c.05,.46,.15,.85,.28,1.19,.13,.34,.3,.6,.51,.79,.21,.19,.47,.29,.78,.29s.57-.1,.78-.29c.21-.19,.38-.46,.51-.79,.13-.34,.22-.73,.28-1.19,.05-.46,.08-.95,.08-1.47s-.03-1.02-.08-1.47c-.05-.46-.15-.85-.28-1.19-.13-.34-.3-.6-.51-.79-.21-.19-.47-.29-.78-.29s-.57,.09-.78,.26c-.21,.18-.38,.43-.51,.76s-.22,.72-.28,1.18c-.05,.46-.08,.97-.08,1.54,0,.53,.03,1.02,.08,1.47Z"/>
      <path class="cls-2" d="M18.77,10.17c.24-.41,.64-.71,1.21-.92v-.08c-.14-.03-.28-.09-.42-.19-.14-.09-.27-.21-.38-.35-.12-.14-.21-.31-.28-.5-.07-.19-.11-.4-.11-.62,0-.26,.05-.5,.15-.72,.1-.23,.23-.43,.41-.61s.39-.32,.64-.42c.25-.1,.53-.16,.84-.16,.36,0,.67,.05,.93,.15,.26,.1,.47,.23,.64,.39,.17,.16,.29,.35,.37,.56,.08,.21,.12,.43,.12,.67,0,.38-.1,.74-.31,1.06-.21,.32-.51,.56-.9,.7v.08c.12,.02,.27,.07,.45,.15,.18,.08,.35,.19,.51,.35s.3,.36,.42,.6c.12,.25,.17,.56,.17,.92,0,.4-.06,.76-.19,1.08-.13,.32-.3,.59-.52,.82-.22,.23-.48,.4-.77,.51-.29,.11-.6,.17-.93,.17s-.66-.05-.95-.14c-.3-.09-.55-.24-.77-.44s-.39-.44-.51-.73c-.12-.29-.18-.62-.18-.99,0-.49,.12-.94,.36-1.34Zm3.4,.47c-.07-.24-.17-.46-.29-.63-.13-.18-.28-.32-.46-.42-.18-.1-.38-.15-.61-.15s-.43,.05-.61,.15c-.18,.1-.33,.24-.46,.42-.13,.18-.22,.39-.29,.63-.07,.24-.1,.51-.1,.81s.03,.57,.1,.81,.17,.46,.29,.64c.13,.18,.28,.32,.46,.42,.18,.1,.38,.15,.61,.15s.42-.05,.61-.15c.18-.1,.33-.24,.46-.42,.13-.18,.22-.39,.29-.64s.1-.51,.1-.81-.03-.56-.1-.81Zm-.24-3.71c-.04-.18-.11-.35-.21-.49-.1-.14-.22-.25-.36-.34-.14-.08-.32-.13-.53-.13s-.38,.04-.52,.13-.27,.2-.36,.34c-.09,.14-.16,.3-.21,.49-.04,.18-.06,.38-.06,.59s.02,.39,.06,.58c.04,.19,.11,.35,.21,.49,.09,.14,.21,.25,.36,.34s.32,.13,.52,.13,.39-.04,.53-.13c.14-.08,.26-.2,.36-.34,.1-.14,.17-.3,.21-.49,.04-.19,.06-.38,.06-.58s-.02-.4-.06-.59Z"/>
    </g>
    <g>
      <path d="M26.01,10.07c.07-.11,.14-.21,.21-.3,.14,.14,.18,.19,.31,.34,.02,.02,.03,.04,.03,.05,0,.02-.02,.03-.05,.03h-.53v.45c.41,.23,.59,.39,.59,.56s-.15,.39-.26,.39c-.03,0-.06-.02-.07-.04t-.06-.23c-.03-.2-.1-.42-.19-.57l.02,3.03v.02s-.01,.05-.03,.07c-.05,.04-.18,.06-.3,.06-.18,0-.22-.03-.23-.12,.02-.44,.03-1.04,.04-1.58v-.72c-.19,.53-.29,.69-.62,1.09l-.04-.02c.17-.4,.28-.77,.42-1.38,.09-.4,.12-.53,.17-1.01h-.27c-.1,0-.16,0-.25,.02l-.03-.17c.11,.03,.19,.04,.28,.04h.31v-.66c0-.24,0-.36-.02-.57,.69,.07,.74,.08,.74,.15,0,.04-.05,.07-.2,.12v.96h.04Zm.98,.9c.57,.15,.67,.2,.67,.26,0,.05-.06,.08-.21,.08-.11,.15-.15,.2-.22,.29h.67c.1-.27,.14-.39,.17-.59,.14,.03,.25,.06,.32,.07,.3,.07,.36,.09,.36,.14,0,.06-.06,.08-.23,.09-.12,.11-.14,.12-.37,.28h.72q.18-.21,.34-.38c.21,.17,.27,.23,.47,.42,.02,.02,.03,.04,.03,.04,0,.02-.02,.03-.06,.03h-1.21v.48h.33c.15-.17,.2-.22,.34-.36,.2,.16,.26,.21,.44,.38,.02,.02,.03,.05,.03,.06,0,.02-.03,.04-.06,.04h-1.08v.5h.32c.15-.17,.19-.22,.33-.37,.21,.17,.28,.22,.48,.4,.02,.02,.03,.04,.03,.05,0,.02-.03,.04-.06,.04h-1.11v.58h.48c.17-.18,.21-.24,.37-.4,.23,.18,.29,.24,.49,.43,.02,.02,.03,.04,.03,.04,0,.02-.02,.03-.06,.03h-2.51v.17s-.01,.06-.03,.07c-.05,.03-.18,.05-.31,.05-.16,0-.21-.03-.21-.1v-.02c0-.08,.01-.47,.03-1.18v-.44c-.19,.17-.28,.25-.52,.41l-.05-.05c.33-.42,.54-.79,.75-1.29,.04-.1,.05-.13,.08-.24-.1,.03-.19,.05-.29,.05-.09,0-.12-.02-.13-.09,.01-.25,.01-.29,.01-.58,0-.24-.01-.46-.03-.62,.22,.11,.29,.15,.49,.29h.41q.12-.13,.19-.21c-.08,.01-.13,.02-.21,.02-.2,0-.24-.02-.25-.1,0-.14,0-.15,.01-.29h-.47c-.07,0-.22,.02-.31,.03l-.03-.19c.15,.04,.23,.05,.34,.05h.47v-.22c0-.12,0-.16-.02-.27,.54,.05,.6,.05,.66,.08,.04,.02,.06,.04,.06,.07,0,.05-.05,.08-.18,.1,0,.07,0,.12,0,.16v.08h.54q0-.37-.02-.5c.6,.04,.72,.07,.72,.14,0,.04-.04,.07-.17,.11v.24h.21c.14-.17,.18-.22,.32-.38,.21,.17,.27,.21,.47,.4,.01,.02,.02,.04,.02,.05,0,.02-.03,.04-.07,.04h-.95q0,.1,0,.24s0,.07-.03,.08c-.04,.02-.16,.04-.32,.04s-.2-.02-.2-.09c0-.14,0-.16,0-.26h-.53q0,.13,0,.26s0,.06-.04,.09q.18,.13,.29,.21s.07,.06,.07,.09c0,.04-.03,.06-.13,.12v.13c0,.13,0,.27,.01,.47,0,.05-.01,.07-.04,.08-.03,.02-.18,.04-.29,.04-.1,0-.13-.02-.13-.07v-.07h-.44v.13Zm0-.8v.56h.44v-.56h-.44Zm.91,2.03v-.48h-.67v.48h.67Zm0,.61v-.5h-.67v.5h.67Zm-.67,.7h.67v-.58h-.67v.58Zm1.79-3.46c.1-.13,.14-.16,.24-.26,.15,.1,.19,.14,.33,.25,.05,.04,.07,.07,.07,.09,0,.03-.03,.06-.15,.13q0,.2,.01,.62s-.01,.07-.03,.09c-.04,.03-.14,.04-.26,.04-.14,0-.17-.02-.18-.07v-.1h-.46v.06s0,.05-.05,.06c-.03,.01-.2,.03-.28,.03-.09,0-.13-.02-.13-.09q0-.42,0-.63c0-.2,0-.26,0-.44,.21,.09,.28,.13,.48,.24h.41Zm-.42,.12v.56h.46v-.56h-.46Z"/>
      <path d="M33.14,10.44q0-1.22-.03-1.48c.62,.06,.67,.06,.73,.09,.05,.01,.07,.04,.07,.07,0,.04-.05,.08-.19,.13v1.2h.82v-.88c0-.21-.02-.42-.04-.61,.62,.06,.67,.07,.74,.09,.04,.02,.06,.04,.06,.07,0,.04-.06,.08-.19,.13,0,.36,0,.59,0,.83v.36h.15c.14-.2,.19-.26,.34-.45,.23,.2,.3,.26,.52,.48,.02,.03,.03,.04,.03,.06,0,.02-.02,.03-.06,.03h-.98q.01,1.38,.03,1.9c0,.06,0,.09-.03,.11-.04,.04-.2,.07-.38,.07-.15,0-.19-.03-.19-.15h0v-.31h-.82v.34c0,.06,0,.08-.02,.1-.04,.05-.16,.08-.39,.08-.15,0-.19-.03-.19-.12v-.02q.02-1.29,.02-1.52c0-.08,0-.19,0-.28v-.07s0-.06,0-.12h-.73v2.87h2.5c.17-.22,.22-.29,.4-.51,.26,.23,.35,.3,.6,.53,.02,.03,.03,.04,.03,.06,0,.02-.02,.03-.06,.03h-3.46v.25c0,.12-.1,.15-.46,.15-.13,0-.16-.03-.16-.13h0c.02-.9,.03-1.27,.03-2.12v-1.13h-.21c-.19,0-.29,0-.43,.03l-.03-.19c.14,.03,.32,.04,.47,.04h.21q0-1.11-.04-1.48c.76,.07,.83,.08,.83,.16,0,.04-.05,.08-.2,.13v1.19h.73Zm.58,1.61h.82v-1.49h-.82v1.49Z"/>
      <path d="M38.63,11.05v.14s0,.08-.04,.09c-.05,.03-.18,.06-.34,.06s-.2-.02-.2-.12c.02-.43,.02-.62,.02-1.11,0-.6,0-.86-.03-1.27,.29,.13,.38,.18,.67,.33h2.35c.12-.14,.17-.18,.3-.32,.19,.14,.25,.19,.44,.33,.04,.04,.06,.06,.06,.09,0,.05-.05,.09-.19,.15v.42c0,.49,0,.91,.02,1.31,0,.05-.01,.08-.03,.1-.04,.04-.2,.07-.37,.07-.14,0-.17-.02-.18-.11v-.17h-.94c.15,.18,.3,.3,.57,.44,.41,.23,.95,.36,1.67,.4v.06c-.2,.08-.31,.22-.38,.46-.03,.08-.04,.1-.08,.1-.15,0-.64-.23-.96-.45-.03,.01-.04,.02-.08,.03v.5c0,.05,0,.44,.02,1.16,0,.13-.08,.16-.38,.16-.19,0-.22-.02-.22-.12,.02-.64,.02-.76,.02-.88,0-.85,0-.9-.02-1.11,.19,.02,.28,.03,.39,.05-.23-.19-.33-.31-.48-.53-.09-.15-.12-.19-.16-.28h-.25c-.25,.37-.37,.5-.69,.75,.42,.07,.47,.08,.47,.14,0,.04-.05,.08-.18,.13-.03,.47-.07,.67-.17,.9-.15,.35-.47,.64-.87,.79-.25,.09-.43,.14-.84,.21l-.02-.07c.57-.24,.78-.39,1-.68,.21-.28,.3-.64,.3-1.15v-.06c-.43,.28-.77,.41-1.42,.56l-.03-.07c.56-.26,.87-.46,1.21-.77,.25-.23,.38-.4,.55-.68h-.51Zm.94-1.01v-.75h-.94v.75h.94Zm0,.12h-.94v.77h.94v-.77Zm1.54-.87h-.99v.75h.99v-.75Zm-.99,.87v.77h.99v-.77h-.99Z"/>
    </g>
    <g>
      <path d="M25.91,6.29s.08,0,.12,0c.04,0,.08,.01,.12,.02,.04,0,.08,.02,.12,.04,.04,.02,.08,.03,.11,.05,.04,.02,.07,.04,.1,.07,.03,.03,.05,.05,.08,.09,.02,.03,.04,.07,.05,.1,.01,.04,.02,.08,.02,.12,0,.04,0,.08-.02,.12-.01,.04-.03,.08-.05,.11-.02,.04-.04,.07-.07,.1-.03,.03-.06,.06-.09,.09-.04,.03-.07,.05-.12,.07-.04,.02-.08,.04-.13,.05-.04,.01-.09,.02-.14,.03-.05,0-.1,0-.15,0-.04,0-.07,0-.11-.01-.04,0-.07-.01-.11-.02-.04,0-.07-.02-.11-.03-.04-.01-.07-.02-.11-.04,0,0,0,0,0,0s0,0,0-.01c0,0,0,0,0-.01,0,0,0,0,.01,0,.03,0,.07,.02,.1,.03s.07,.02,.1,.03c.04,0,.07,.01,.11,.02s.07,0,.11,.01c.05,0,.09,0,.14,0s.09-.02,.13-.03c.04-.01,.08-.03,.12-.05,.04-.02,.08-.04,.11-.07,.03-.02,.06-.05,.09-.08,.03-.03,.05-.06,.07-.09,.02-.03,.03-.06,.04-.1,0-.03,0-.07,0-.1,0-.04-.01-.08-.02-.11s-.03-.06-.05-.08c-.02-.02-.04-.04-.07-.06-.03-.02-.05-.03-.08-.05-.03-.01-.06-.02-.09-.03-.03,0-.07-.01-.1-.02-.03,0-.06,0-.1-.01-.03,0-.06,0-.09,0-.05,0-.11,0-.16,0-.05,0-.11,.02-.17,.04-.06,.02-.11,.04-.16,.06-.05,.03-.11,.05-.15,.09s-.09,.07-.13,.11c-.04,.04-.07,.08-.1,.12s-.05,.09-.06,.13c-.01,.05-.02,.09-.02,.14,0,.06,.02,.12,.04,.17,.02,.05,.05,.1,.08,.14,.03,.04,.07,.08,.12,.11,.04,.03,.09,.06,.15,.08s.11,.04,.16,.05c.06,.01,.11,.03,.17,.03,.06,0,.12,.01,.17,.01,.06,0,.11,0,.16,0,.06,0,.12,0,.18-.02s.12-.02,.18-.04c.06-.02,.12-.04,.17-.06,.06-.02,.11-.05,.17-.08,.05-.03,.1-.06,.16-.1s.1-.07,.14-.11c.04-.04,.09-.08,.13-.13,.04-.04,.07-.09,.1-.14,.08-.12,.15-.22,.22-.32,.07-.1,.13-.18,.18-.26s.11-.15,.16-.21c.05-.06,.1-.12,.14-.17s.09-.1,.13-.14c.04-.04,.08-.08,.13-.11,.04-.03,.09-.06,.13-.09s.09-.05,.14-.07h.02s.01,0,.02,0c0,0,0,0,.01,0,0,0,0,0,0,0-.07,.04-.12,.09-.18,.14-.05,.05-.1,.1-.14,.15-.04,.05-.09,.11-.12,.16-.04,.05-.07,.11-.1,.17-.03,.06-.06,.11-.09,.17s-.06,.11-.09,.16-.06,.1-.09,.15c-.03,.05-.07,.1-.1,.14-.05,.06-.1,.12-.15,.17-.05,.06-.11,.11-.16,.16-.06,.05-.11,.1-.17,.14-.06,.04-.12,.08-.19,.12s-.14,.07-.21,.1c-.08,.03-.15,.05-.24,.07-.08,.02-.17,.04-.27,.05-.1,.01-.2,.02-.3,.02-.05,0-.11,0-.17,0-.06,0-.12-.01-.18-.02s-.12-.03-.17-.04c-.06-.02-.11-.04-.16-.07s-.1-.06-.14-.1c-.04-.04-.08-.08-.11-.12-.03-.05-.06-.1-.07-.15s-.03-.12-.02-.19c0-.05,0-.09,.02-.14s.03-.09,.05-.14c.02-.04,.05-.09,.09-.13,.03-.04,.07-.08,.12-.11,.04-.03,.09-.06,.14-.09s.11-.05,.17-.07,.13-.04,.19-.05,.14-.02,.21-.02Zm.5-.21c0-.09,.04-.17,.08-.23,.04-.07,.1-.12,.17-.17,.07-.05,.15-.09,.25-.12,.09-.03,.2-.06,.3-.08s.22-.04,.34-.05c.12-.01,.24-.02,.35-.03,.12,0,.23,0,.35,0h.32c.06,0,.12,0,.19,0s.12,0,.19,0c.06,0,.12,0,.18,0,.06,0,.12-.01,.18-.02,0,0,.02,0,.03,0,0,0,.02,0,.03,0,0,0,.01,0,.02,.01,0,0,0,.01,0,.01-.03,.03-.07,.06-.12,.08-.05,.02-.09,.04-.15,.05s-.11,.02-.16,.03c-.06,0-.11,.01-.16,.02-.05,0-.1,0-.15,0s-.1,0-.14,0-.09,0-.14-.01c-.05,0-.1-.01-.15-.02-.05,0-.1-.01-.15-.02-.05,0-.1-.01-.15-.01s-.1,0-.16,0c-.05,0-.11,0-.16,0-.05,0-.11,0-.17,0-.06,0-.12,.01-.19,.02s-.12,.02-.19,.04c-.06,.02-.12,.04-.18,.06-.06,.02-.11,.05-.16,.08-.05,.03-.09,.06-.13,.1s-.06,.08-.08,.13c-.02,.05-.03,.1-.04,.15,0,.03,0,.07,.03,.1s.04,.06,.08,.09c.03,.03,.07,.05,.11,.06,.04,.02,.09,.02,.14,.02,.07,0,.13,0,.19-.01,.06,0,.11-.02,.16-.04s.1-.04,.14-.06c.05-.02,.09-.05,.13-.08s.08-.06,.11-.09,.07-.06,.1-.1c.03-.03,.06-.07,.08-.1,.03-.03,.05-.07,.08-.1,0,0,0,0,.01,0s.01,0,.02,0,.01,0,.02,0c0,0,0,0,0,0-.02,.06-.05,.11-.08,.16-.03,.05-.06,.09-.09,.14s-.07,.08-.11,.12c-.04,.04-.08,.07-.12,.1-.04,.03-.09,.05-.13,.08-.05,.02-.09,.04-.14,.06s-.09,.03-.14,.04c-.05,0-.09,.01-.13,.01-.08,0-.15-.01-.21-.03s-.12-.05-.16-.09-.08-.08-.1-.13c-.02-.05-.03-.1-.03-.15Z"/>
      <path d="M28.96,7.21s-.08,0-.13,0-.08,0-.13,0c-.04,0-.08,0-.13,0v.09c0,.09,0,.16,0,.23,0,.07,0,.13,.01,.2-.02,0-.04,0-.06,0h-.15s-.04,0-.06,0c0-.06,0-.13,.01-.2,0-.07,0-.15,0-.23v-.21c0-.09,0-.17,0-.23,0-.07,0-.14-.01-.2,.02,0,.04,0,.06,0,.02,0,.05,0,.07,0s.05,0,.08,0c.02,0,.04,0,.06,0,0,.07,0,.14-.01,.2,0,.07,0,.14,0,.23,.03,0,.06,0,.1,0,.04,0,.09,0,.15,0s.11,0,.15,0c.04,0,.07,0,.1,0,0-.09,0-.16,0-.23s0-.13,0-.2c.02,0,.04,0,.06,0,.02,0,.05,0,.08,0s.05,0,.08,0c.02,0,.04,0,.06,0,0,.07,0,.14,0,.2,0,.07,0,.15,0,.23v.21c0,.09,0,.16,0,.23,0,.07,0,.13,0,.2-.02,0-.04,0-.06,0h-.15s-.04,0-.06,0c0-.06,0-.13,0-.2s0-.15,0-.23v-.09s-.08,0-.13,0Z"/>
      <path d="M29.95,6.85c0-.07,0-.14,0-.2,.05,0,.1,0,.15,0s.1,0,.15,0c.08,0,.16,0,.22,0,.06,0,.11,0,.13,0,0,.02,0,.04,0,.07,0,.02,0,.03,0,.04,0,0,0,.02,0,.03-.03,0-.07,0-.11,0-.04,0-.08,0-.11,0-.04,0-.07,0-.1,0-.03,0-.05,0-.06,0,0,.06,0,.12,0,.17v.17c.07,0,.14,0,.2,0,.06,0,.12,0,.18,0,0,.02,0,.03,0,.04,0,0,0,.02,0,.03,0,0,0,.02,0,.03,0,0,0,.02,0,.04-.13,0-.25-.01-.38-.01,0,.03,0,.07,0,.1,0,.03,0,.07,0,.1,0,.07,0,.13,0,.2,.06,0,.13,0,.19,0,.06,0,.13,0,.19-.02,0,.01,0,.02,0,.03,0,0,0,.02,0,.04s0,.03,0,.04,0,.02,0,.02c-.03,0-.07,0-.11,0s-.1,0-.18,0h-.26s-.04,0-.06,0-.02,0-.03,0c0-.06,0-.13,0-.2s0-.15,0-.23v-.21c0-.09,0-.17,0-.23Z"/>
      <path d="M31.88,7.07c0-.05,0-.1,0-.15,.01,0,.03,0,.05,0,.02,0,.04,0,.06,0,.03,0,.06,0,.09,0s.06,0,.09,0c.06,0,.11,0,.14,.01,.03,0,.06,.02,.08,.04,.03,.02,.05,.04,.06,.07s.02,.06,.02,.09c0,.05,0,.08-.02,.12-.02,.03-.04,.06-.07,.08-.03,.02-.06,.04-.1,.04-.04,0-.08,.01-.13,.01h-.06c0,.06,0,.12,0,.18,0,.06,0,.12,0,.18-.01,0-.03,0-.05,0h-.11s-.03,0-.05,0c0-.05,0-.1,0-.15,0-.05,0-.11,0-.18v-.16c0-.07,0-.12,0-.18Zm.37,0s-.02-.04-.03-.05c-.01-.01-.03-.02-.04-.03-.02,0-.03,0-.05,0h-.04s0,0-.01,0c0,.06,0,.11,0,.17v.17s.04,0,.06,0,.04-.01,.06-.02,.03-.03,.04-.05,.02-.05,.02-.09c0-.03,0-.06-.01-.08Z"/>
      <path d="M33.61,7.16c.02-.05,.05-.1,.1-.14,.04-.04,.09-.07,.15-.09,.06-.02,.13-.03,.2-.03,.07,0,.13,0,.19,.03,.06,.02,.11,.04,.15,.08,.04,.04,.08,.08,.1,.13,.03,.05,.04,.12,.04,.19,0,.06-.01,.11-.04,.17-.02,.05-.06,.1-.1,.14-.04,.04-.09,.07-.15,.09-.06,.02-.12,.03-.19,.03-.07,0-.13,0-.19-.02-.06-.02-.11-.04-.15-.07-.04-.03-.08-.08-.1-.13-.03-.05-.04-.12-.04-.19,0-.06,.01-.11,.04-.17Zm.7,0s-.03-.08-.06-.1c-.02-.03-.05-.05-.09-.07-.03-.02-.07-.02-.11-.02-.04,0-.08,0-.12,.03-.03,.02-.06,.05-.09,.08-.02,.03-.04,.07-.05,.12-.01,.04-.02,.09-.02,.14,0,.06,0,.12,.02,.16,.01,.04,.03,.08,.06,.1,.02,.03,.05,.05,.08,.06,.03,.01,.07,.02,.1,.02,.04,0,.07,0,.11-.02,.03-.02,.06-.04,.09-.07,.03-.03,.05-.07,.06-.12,.02-.05,.02-.1,.02-.17,0-.05,0-.1-.02-.14Z"/>
      <path d="M36.18,7.29c-.02,.05-.04,.1-.06,.15-.02,.05-.04,.1-.06,.15s-.03,.1-.05,.14c-.02,0-.04,0-.06,0h-.03s-.02,0-.03,0c0-.03-.02-.07-.04-.13-.02-.05-.03-.11-.05-.16-.02-.06-.04-.12-.05-.18s-.04-.11-.05-.16c-.02-.05-.03-.09-.04-.13s-.02-.06-.02-.06c.02,0,.04,0,.05,0,.02,0,.04,0,.05,0s.03,0,.05,0c.02,0,.03,0,.05,0,.01,.05,.03,.1,.04,.16s.03,.11,.04,.16,.03,.1,.04,.15,.03,.09,.04,.14h0c.02-.05,.04-.1,.06-.16,.02-.06,.04-.12,.06-.17,.02-.06,.04-.11,.06-.15s.03-.08,.04-.11c.01,0,.02,0,.03,0,0,0,.02,0,.03,0s.02,0,.03,0c.01,0,.02,0,.03,0,0,.02,0,.04,.02,.07,0,.03,.02,.06,.03,.1,.01,.04,.03,.07,.04,.11,.01,.04,.03,.08,.04,.12,.01,.04,.03,.08,.04,.11,.01,.04,.02,.07,.03,.09h0c.02-.05,.03-.1,.05-.17,.02-.06,.04-.12,.06-.17s.03-.11,.05-.15c.01-.05,.02-.08,.03-.11,.02,0,.04,0,.05,0,0,0,.02,0,.03,0,0,0,.02,0,.03,0,0,.02-.02,.04-.03,.07-.01,.03-.03,.07-.04,.12-.02,.05-.03,.1-.05,.15s-.04,.11-.06,.17c-.02,.06-.04,.11-.06,.16-.02,.05-.03,.1-.05,.14-.02,0-.04,0-.06,0h-.03s-.02,0-.03,0c-.03-.1-.06-.19-.09-.29-.03-.1-.07-.19-.11-.29h0s-.03,.09-.05,.14Z"/>
      <path d="M38.01,7.07c0-.05,0-.1,0-.15,.04,0,.08,0,.11,0,.04,0,.07,0,.11,0,.06,0,.12,0,.17,0,.05,0,.08,0,.1,0,0,.01,0,.03,0,.05,0,.01,0,.02,0,.03,0,0,0,.02,0,.02-.02,0-.05,0-.08,0-.03,0-.06,0-.08,0s-.05,0-.07,0c-.02,0-.04,0-.05,0,0,.04,0,.09,0,.13v.13c.05,0,.1,0,.15,0s.09,0,.14,0c0,.01,0,.02,0,.03,0,0,0,.01,0,.02,0,0,0,.01,0,.02,0,0,0,.02,0,.03-.1,0-.19-.01-.29-.01,0,.03,0,.05,0,.08v.08c0,.05,0,.1,0,.15,.05,0,.1,0,.14,0s.1,0,.14-.01c0,0,0,.02,0,.02,0,0,0,.02,0,.03s0,.02,0,.03c0,0,0,.01,0,.02-.02,0-.05,0-.08,0s-.08,0-.14,0h-.2s-.03,0-.04,0-.02,0-.02,0c0-.05,0-.1,0-.15,0-.05,0-.11,0-.18v-.16c0-.07,0-.12,0-.18Z"/>
      <path d="M39.89,7.36v.05c0,.07,0,.12,0,.18s0,.1,0,.15c-.01,0-.03,0-.05,0h-.11s-.03,0-.05,0c0-.05,0-.1,0-.15s0-.11,0-.18v-.16c0-.07,0-.12,0-.18s0-.1,0-.15c.01,0,.03,0,.05,0,.02,0,.04,0,.06,0,.02,0,.05,0,.08,0,.03,0,.07,0,.11,0,.03,0,.06,0,.08,0,.02,0,.04,0,.06,0,.02,0,.03,0,.04,.01,.01,0,.02,.01,.03,.02,.03,.02,.05,.04,.06,.06,.01,.03,.02,.06,.02,.09,0,.06-.02,.1-.05,.14-.03,.04-.08,.06-.15,.08,.04,.07,.08,.13,.13,.2,.05,.07,.09,.13,.14,.2-.02,0-.04,0-.06,0h-.11s-.04,0-.06,0l-.23-.37h-.01Zm.19-.3s-.02-.04-.03-.05-.04-.02-.06-.02c-.02,0-.05,0-.09,0,0,.11,0,.22,0,.32,0,0,0,0,.01,0,0,0,0,0,.01,0,.05,0,.1-.01,.13-.04,.03-.03,.04-.07,.04-.13,0-.04,0-.06-.01-.08Z"/>
      <path d="M41.74,6.97s-.07,.01-.09,.03-.04,.05-.04,.07,0,.05,.03,.07c.02,.02,.04,.04,.07,.05,.03,.02,.06,.03,.09,.04,.03,.01,.06,.03,.09,.05,.03,.02,.05,.04,.07,.07,.02,.03,.03,.07,.03,.11,0,.04,0,.08-.02,.11-.02,.03-.04,.06-.07,.08-.03,.02-.06,.04-.11,.05s-.09,.02-.14,.02c-.04,0-.09,0-.12-.01-.04,0-.06-.02-.08-.03,0-.03,.02-.05,.02-.08s.01-.05,.01-.07h.02s0,.03,.02,.05c0,.02,.02,.03,.04,.04s.03,.02,.05,.03c.02,0,.04,.01,.07,.01,.05,0,.09-.01,.11-.04,.02-.02,.04-.05,.04-.09,0-.03,0-.05-.03-.07s-.04-.04-.07-.05-.06-.03-.09-.04c-.03-.01-.06-.03-.09-.05-.03-.02-.05-.04-.07-.07-.02-.03-.03-.07-.03-.11,0-.04,0-.08,.02-.11s.04-.06,.06-.08c.03-.02,.06-.04,.09-.05s.07-.02,.11-.02c.04,0,.08,0,.12,.02s.06,.02,.09,.04c0,.02-.01,.04-.02,.05,0,.02-.01,.04-.02,.06h-.02c-.03-.07-.08-.1-.15-.1Z"/>
    </g>
    <g>
      <path class="cls-2" d="M1.21,18.37h-.21v-.64c-.12,.17-.24,.32-.36,.43l-.18-.1c.2-.16,.36-.35,.48-.55h-.44v-.19h.49v-.18h-.48v-.19h.7c.07-.16,.12-.28,.14-.38l.19,.06c-.02,.1-.06,.21-.12,.33h.27v.19h-.48v.18h.48v.19h-.44c.13,.11,.26,.23,.38,.35l-.15,.14c-.08-.09-.17-.19-.28-.29v.67Zm-.19-2.23h.22v.17h.44v.2H.55v-.2h.47v-.17Zm-.16,.42c.05,.08,.1,.18,.15,.3l-.19,.08c-.05-.12-.1-.22-.14-.3l.18-.08Zm1.15,.45v.36c0,.18-.03,.34-.08,.47-.07,.17-.17,.34-.32,.51l-.17-.14c.16-.17,.26-.33,.3-.46,.04-.12,.06-.24,.06-.38v-1.05s.02-.07,.06-.07c.3,0,.58-.03,.85-.08l.07,.2c-.25,.05-.5,.08-.74,.08-.02,0-.03,.01-.03,.04v.34h.79v.2h-.26v1.35h-.21v-1.35h-.33Z"/>
      <path class="cls-2" d="M6.56,18.36h-.21v-1.01c-.05,.14-.11,.26-.17,.36l-.2-.05c.17-.26,.29-.53,.35-.83h-.31v-.21h.33v-.47h.21v.47h.31v.21h-.31v.02c.12,.17,.24,.36,.35,.54l-.18,.1c-.05-.11-.1-.21-.17-.31v1.18Zm.6-1.45v.29c0,.45-.12,.83-.35,1.15l-.19-.08c.13-.19,.22-.38,.27-.54,.04-.16,.06-.35,.06-.58v-.87s.02-.06,.06-.06h1.25v.21h-1.08s-.03,.01-.03,.02v.27h.97l.12,.07c-.05,.41-.19,.76-.41,1.04,.02,.03,.04,.05,.07,.08,.1,.11,.24,.22,.42,.34l-.18,.13c-.22-.16-.37-.28-.45-.38-.14,.12-.32,.25-.54,.38l-.16-.14c.21-.11,.4-.24,.56-.39-.21-.26-.33-.57-.35-.93h-.06Zm.44,.64s.06,.09,.1,.13c.18-.24,.29-.48,.33-.72,0-.02,0-.03,0-.04-.01,0-.03,0-.06,0h-.53c.02,.24,.08,.45,.18,.64Z"/>
      <path class="cls-2" d="M11.99,16.8h-.19c-.04,.16-.07,.28-.1,.36l-.2-.04c.1-.21,.15-.45,.15-.73v-.12h.2v.12c0,.05-.01,.12-.02,.22h.16v-.47h.21v.47h.26v.2h-.26v.4c.06-.04,.1-.07,.13-.11l.15,.15c-.08,.08-.17,.14-.28,.21v.92h-.21v-.79c-.11,.07-.22,.13-.34,.19l-.14-.16c.21-.1,.37-.19,.47-.26v-.54Zm.49,.7v-.21h.87v-.25h-.92v-.2h.57v-.28h-.49v-.2h.49v-.23h.22v.23h.54v.2h-.54v.28h.63v.2h-.29v.25h.27v.21h-.27v.6c0,.09-.04,.16-.12,.21-.1,.06-.3,.05-.6,0v-.21c.14,.04,.25,.06,.32,.06,.07,.01,.13,0,.17-.04,.01-.02,.02-.04,.02-.07v-.54h-.87Zm.24,.06c.11,.08,.21,.19,.32,.33l-.16,.12c-.12-.14-.22-.25-.31-.31l.15-.14Z"/>
      <path class="cls-2" d="M17.06,16.42v-.19h2.28v.19h-1.96v1.62s.02,.05,.05,.05h1.88v.2h-2.05c-.07,0-.1-.03-.1-.09v-1.77h-.1Zm1.22,1.58h-.74s-.03,0-.03-.03v-.7s0-.03,.03-.03h.74s.03,0,.03,.03v.7s0,.03-.03,.03Zm.75-.89h-1.39s-.03,0-.03-.03v-.51s0-.03,.03-.03h1.39s.03,0,.03,.03v.51s0,.03-.03,.03Zm-1.32,.31s0,0,0,0v.38h0s.39,0,.39,0c0,0,0,0,0,0v-.38s0,0,0,0h-.39Zm.12-.69s0,0,0,0v.19s0,0,0,0h1.02s0,0,0,0v-.19s0,0,0,0h-1.02Zm1.38,1.27h-.73s-.03,0-.03-.03v-.69s0-.03,.03-.03h.73s.03,0,.03,.03v.69s0,.03-.03,.03Zm-.56-.57s0,0,0,0v.38h0s.38,0,.38,0c0,0,0,0,0,0v-.38s0,0,0,0h-.38Z"/>
      <path class="cls-2" d="M22.93,16.45c-.08,.12-.16,.23-.24,.31l-.18-.11c.16-.15,.27-.32,.34-.51l.19,.07s-.02,.04-.02,.06h.62v.19h-.35c.02,.06,.04,.13,.06,.21l-.2,.03c-.01-.06-.03-.14-.06-.23h-.17Zm-.09,1.26v.07c-.08-.02-.15-.03-.22-.04l.06-.54s.02-.05,.06-.06h.87v-.2h-.88v-.2h1.92s.04,.01,.05,.02c.01,.01,.02,.03,.03,.05v.56h-.22v-.04h-.68v.18h.93s.05,.02,.05,.07c0,.26,0,.42-.03,.5-.02,.07-.05,.12-.09,.14-.05,.04-.12,.06-.2,.06s-.21-.01-.38-.04v-.22c.22,.05,.36,.07,.42,.05,.03-.01,.04-.03,.05-.06,.01-.04,.02-.13,.02-.28,0-.01-.01-.02-.04-.02h-.73v.67h-.22v-.54c-.35,.24-.67,.39-.98,.47l-.1-.19c.36-.08,.66-.22,.93-.4h-.62Zm.77-.38h-.7s-.02,0-.03,0l-.02,.17h.75v-.18Zm.33-.88c-.07,.11-.13,.2-.2,.26l-.18-.1c.14-.14,.24-.3,.29-.48l.2,.07s-.02,.04-.03,.07h.81v.19h-.48s.05,.08,.08,.19l-.19,.05c-.02-.06-.05-.13-.1-.23h-.2Zm-.12,.68h.68v-.17s-.01-.03-.03-.03h-.65v.2Z"/>
      <path class="cls-2" d="M30.38,17.05v.23h-2.32v-.23h2.32Z"/>
      <path class="cls-2" d="M33.6,17.01s.01-.04,.04-.04h2.09l.18,.08c0,.12-.03,.26-.09,.41l-.19-.06c.04-.13,.06-.21,.05-.23,0-.02,0-.03-.03-.03h-1.84s-.02,0-.02,.02v.24h-.2v-.41Zm1.38,1.17c-.03,.09-.08,.14-.15,.17-.05,.02-.09,.03-.14,.03-.05,0-.14-.02-.27-.05v-.2c-.3,.11-.55,.17-.73,.19l-.07-.19c.44-.06,.84-.18,1.19-.38,0-.04-.01-.07-.02-.09-.41,.22-.77,.34-1.09,.37l-.07-.19c.38-.04,.73-.14,1.06-.32-.03-.03-.05-.05-.08-.07-.34,.17-.63,.27-.89,.27l-.06-.18c.24-.02,.49-.08,.73-.17h-.5v-.15h1.65v.15h-.73s.08,.08,.11,.12c.07,.09,.11,.15,.12,.17,.18,.23,.44,.39,.78,.51l-.13,.18c-.26-.11-.48-.25-.66-.42,0,.1-.02,.18-.06,.24Zm-.35-2.05h.22v.12h.99v.19h-2.19v-.19h.99v-.12Zm.91,.77h-1.63s-.02,0-.02-.03v-.35s.01-.02,.02-.02h1.63s.03,.01,.03,.02v.35s0,.03-.03,.03Zm-1.45-.24s0,0,0,0v.08h0s1.27,0,1.27,0h0v-.09h-1.28Zm.74,1.29c-.15,.07-.27,.13-.38,.19,.14,.03,.24,.04,.28,.02,.03-.02,.06-.05,.08-.09,.01-.04,.02-.08,.02-.11Zm.85-.35c-.11,.08-.23,.16-.38,.24l-.11-.16c.16-.09,.29-.17,.38-.23l.11,.15Z"/>
      <path class="cls-2" d="M39.14,17.63l-.03-.21,.83-.06v-.28c-.17,.02-.34,.03-.5,.04l-.06-.22c.67-.01,1.19-.08,1.59-.2l.07,.21c-.18,.04-.47,.09-.87,.15v.3l1.17-.08v.21s-1.17,.08-1.17,.08v.43s.01,.07,.04,.09c.02,.02,.05,.03,.09,.03h.78s.04,0,.07-.02c.01,0,.02-.12,.03-.35l.23,.04c-.02,.28-.04,.43-.07,.46-.06,.06-.11,.08-.16,.08h-1.01c-.06,0-.11-.03-.16-.08-.05-.05-.07-.1-.07-.14v-.54l-.8,.05Zm.99-1.49h.23v.19h.87l.2,.09c-.01,.14-.06,.3-.14,.5l-.2-.07c.05-.16,.08-.25,.08-.29,0-.02,0-.03-.03-.03h-1.76s-.02,0-.02,.02v.34h-.22v-.53s.01-.04,.04-.04h.95v-.19Z"/>
    </g>
  </g>
</svg>