<?xml version="1.0" encoding="UTF-8"?>
<svg id="_圖層_2" data-name="圖層 2" xmlns="http://www.w3.org/2000/svg" viewBox="0 0 42.62 23.59">
  <defs>
    <style>
      .cls-1 {
        fill: #fff;
      }

      .cls-2 {
        fill: #946134;
      }

      .cls-3 {
        opacity: .8;
      }
    </style>
  </defs>
  <g id="_圖層_1-2" data-name="圖層 1">
    <polygon class="cls-1" points="21.47 20.56 21.47 23.59 3.4 23.59 3.4 20.45 4.3 20.45 4.3 22.69 20.57 22.69 20.57 20.56 21.47 20.56"/>
    <polygon class="cls-1" points="20.83 0 20.83 2.68 19.93 2.68 19.93 .9 3.67 .9 3.67 2.76 2.77 2.76 2.77 0 20.83 0"/>
    <g class="cls-3">
      <path class="cls-2" d="M1.3,5.9c.32-.19,.7-.29,1.16-.29,.28,0,.55,.04,.8,.12,.25,.08,.47,.21,.65,.38,.18,.18,.33,.4,.44,.66,.11,.26,.16,.58,.16,.96,0,.27-.03,.53-.09,.76-.06,.24-.14,.47-.25,.69s-.25,.45-.42,.68c-.17,.23-.37,.47-.6,.72-.14,.15-.3,.33-.48,.53-.18,.2-.36,.41-.55,.62-.18,.21-.36,.42-.52,.63-.17,.21-.31,.4-.42,.58h1.03c.52,0,.98,0,1.38-.03,.4-.02,.75-.04,1.05-.07-.04,.18-.05,.32-.05,.44,0,.11,.02,.25,.05,.41-.39-.02-.77-.02-1.16-.02H1.16c-.39,0-.77,0-1.16,.02v-.14c.5-.55,.94-1.04,1.31-1.46s.69-.8,.95-1.13c.26-.34,.47-.64,.63-.91s.29-.53,.38-.77,.16-.48,.19-.72c.03-.24,.05-.49,.05-.76,0-.59-.12-1.03-.36-1.31-.24-.28-.52-.43-.85-.43-.23,0-.43,.05-.59,.14-.17,.09-.3,.2-.41,.34-.11,.13-.19,.27-.25,.43s-.1,.29-.12,.41l-.08,.02-.38-.59c.23-.41,.5-.71,.82-.9Z"/>
      <path class="cls-2" d="M6.4,8.13c.09-.5,.23-.93,.43-1.31s.46-.67,.78-.89,.72-.33,1.19-.33c.52,0,.94,.11,1.27,.33s.59,.52,.77,.89c.19,.37,.31,.81,.38,1.31,.07,.5,.1,1.03,.1,1.6s-.05,1.07-.15,1.57c-.1,.5-.25,.93-.46,1.31-.21,.38-.47,.67-.78,.89-.32,.22-.7,.32-1.13,.32-.52,0-.94-.1-1.27-.31-.33-.21-.58-.5-.77-.87-.19-.37-.32-.81-.38-1.31-.07-.5-.1-1.03-.1-1.6s.04-1.1,.13-1.6Zm.84,3.07c.05,.46,.15,.85,.28,1.19,.13,.34,.3,.6,.51,.79,.21,.19,.47,.29,.78,.29s.57-.1,.78-.29c.21-.19,.38-.46,.51-.79,.13-.34,.22-.73,.28-1.19,.05-.46,.08-.95,.08-1.47s-.03-1.02-.08-1.47c-.05-.46-.15-.85-.28-1.19s-.3-.6-.51-.79c-.21-.19-.47-.29-.78-.29s-.57,.09-.78,.26c-.21,.18-.38,.43-.51,.76s-.22,.72-.28,1.18c-.05,.46-.08,.97-.08,1.54,0,.53,.03,1.02,.08,1.47Z"/>
      <path class="cls-2" d="M13.14,7.17c-.08-.16-.19-.29-.32-.38v-.08c.41-.18,.83-.39,1.26-.6s.83-.43,1.21-.64l.08,.06c-.03,.53-.05,1.05-.06,1.56-.01,.52-.02,1.04-.02,1.56v2c0,.53,0,1.04,.02,1.55,.01,.51,.04,1,.06,1.49-.09-.02-.17-.02-.25-.02h-.51c-.08,0-.17,0-.25,.02,.04-.5,.06-.99,.07-1.5s.02-1.02,.02-1.55V6.38l-1.29,.79Z"/>
      <path class="cls-2" d="M19.03,9.75c.34-.54,.67-1.05,.99-1.56,.32-.5,.62-.97,.89-1.41,.27-.44,.49-.81,.67-1.11,.14,.04,.27,.06,.37,.06s.22-.02,.35-.06c-.02,.53-.04,1.12-.05,1.78-.01,.66-.02,1.34-.02,2.03v1.32c.21,0,.41-.01,.59-.03,.19-.02,.34-.04,.46-.07-.04,.16-.05,.29-.05,.4s.02,.24,.05,.4c-.12-.02-.28-.04-.46-.05-.19-.01-.38-.02-.59-.02v.5c0,.31,0,.63,.02,.96,.01,.33,.03,.59,.04,.78-.14-.02-.3-.02-.48-.02s-.33,0-.48,.02c.01-.21,.03-.48,.05-.8,.02-.33,.03-.64,.03-.95v-.5c-.17,0-.41,0-.72,0-.31,0-.64,.01-.98,.02-.34,0-.67,.02-.98,.03-.31,.01-.54,.02-.69,.03v-.22c.32-.5,.65-1.01,.99-1.55Zm2.36-2.97c-.15,.23-.34,.53-.57,.89-.23,.36-.47,.74-.71,1.13s-.48,.76-.7,1.12c-.22,.36-.39,.65-.51,.89h2.52V6.78h-.02Z"/>
    </g>
    <g>
      <path d="M28.08,11.63s.07-.08,.1-.1c-.1-.14-.15-.25-.22-.47h-.32c-.11,0-.16,0-.25,.02l-.03-.17c.08,.02,.2,.03,.27,.03h.22c.08-.08,.1-.11,.16-.19,.12,.07,.15,.09,.24,.16,.04,.04,.06,.06,.06,.08,0,.04-.03,.06-.19,.15,.1,.11,.22,.19,.42,.27,.22,.09,.24,.09,.62,.16v-.96h-.88v.03c0,.08-.05,.09-.35,.09-.19,0-.21-.01-.21-.1,0-.47,.02-.73,.02-1,0-.24,0-.33-.02-.63,.28,.12,.36,.15,.62,.29h.79c.12-.13,.16-.18,.29-.3,.19,.14,.25,.18,.43,.33,.05,.04,.06,.07,.06,.09,0,.04-.04,.08-.18,.17v2.78q0,1,.02,1.25v.04c0,.21-.07,.33-.26,.39-.1,.03-.26,.06-.35,.06-.07,0-.08-.02-.09-.12-.02-.24-.05-.33-.17-.4-.04,.08-.1,.13-.2,.16-.11,.03-.23,.04-.55,.04-.43,0-.53-.06-.53-.29h0v-1.02h-.67v.11c.49,.08,.53,.1,.53,.15,0,.03-.03,.05-.14,.08-.14,.4-.24,.55-.46,.72-.2,.17-.42,.26-.84,.36l-.02-.06c.37-.22,.54-.38,.67-.65,.08-.16,.12-.28,.15-.51-.05,.02-.12,.02-.23,.02-.16,0-.18-.02-.18-.1,.01-.38,.01-.46,.01-.74-.19,.12-.29,.17-.55,.26h0s0,.65,0,.65v.89c0,.07,0,.15,0,.3,0,.12-.07,.15-.4,.15-.16,0-.19-.02-.19-.12,0-.25,.01-.49,.01-.68,.02-.54,.02-1.77,.02-3.26,0-.38,0-.66-.03-1.06,.28,.12,.36,.15,.62,.3h.78c.12-.14,.15-.18,.27-.3,.18,.13,.24,.17,.4,.31,.05,.04,.07,.06,.07,.09,0,.05-.04,.08-.17,.15v.28c0,.18,0,.48,.01,.8,0,.11-.07,.14-.35,.14-.17,0-.19-.01-.2-.08v-.08h-.85v1.45s.02-.02,.06-.06c.32-.27,.66-.72,.83-1.13,.46,.17,.63,.26,.63,.31,0,.04-.02,.05-.21,.08-.17,.17-.23,.23-.33,.32l.06,.04h1.18Zm-1.37-2.21h-.85v.47h.85v-.47Zm0,.58h-.85v.49h.85v-.49Zm.21,1.75v.61h1.14v-.61h-1.14Zm2.25-.12c-.15,.08-.18,.13-.27,.41,0,.03-.03,.04-.05,.04-.04,0-.12-.05-.28-.15v.16c0,.1,0,.12,.01,.37,0,.06-.02,.08-.07,.11-.05,.02-.2,.03-.33,.03-.06,0-.07,0-.11-.03v.68q0,.09,.19,.09c.17,0,.2-.01,.25-.07,.02-.03,.04-.07,.08-.19,.08-.23,.14-.36,.15-.41h.05s-.03,.49-.03,.49c0,.02,0,.03,0,.04,0,.02,0,.05,.01,.06t.09,.08s.06,.07,.06,.15c.06,0,.13,0,.18,0,.05,0,.06-.01,.06-.06v-1.81Zm0-2.21h-.88v.47h.88v-.47Zm0,.58h-.88v.5h.88v-.5Z"/>
      <path d="M33.32,10.63q0-1.22-.03-1.48c.62,.06,.67,.06,.73,.09,.05,.01,.07,.04,.07,.07,0,.04-.05,.08-.19,.13v1.2h.82v-.88c0-.21-.02-.42-.04-.61,.62,.06,.66,.07,.74,.09,.04,.02,.06,.04,.06,.07,0,.04-.06,.08-.19,.13,0,.36,0,.59,0,.83v.36h.15c.14-.2,.19-.26,.34-.45,.23,.2,.3,.26,.52,.48,.02,.03,.03,.04,.03,.06,0,.02-.02,.03-.06,.03h-.98q.01,1.38,.03,1.9c0,.06,0,.09-.03,.11-.04,.04-.2,.07-.38,.07-.15,0-.19-.03-.19-.15h0v-.31h-.82v.34c0,.06,0,.08-.02,.1-.04,.05-.16,.08-.39,.08-.15,0-.19-.03-.19-.12v-.02q.02-1.29,.02-1.52c0-.08,0-.19,0-.28v-.07s0-.06,0-.12h-.73v2.87h2.5c.17-.22,.22-.29,.4-.51,.26,.23,.34,.3,.6,.53,.02,.03,.03,.04,.03,.06,0,.02-.02,.03-.06,.03h-3.46v.25c0,.12-.1,.15-.46,.15-.13,0-.16-.03-.16-.13h0c.02-.9,.03-1.27,.03-2.12v-1.13h-.21c-.19,0-.29,0-.43,.03l-.03-.19c.14,.03,.32,.04,.47,.04h.21q0-1.11-.04-1.48c.76,.07,.83,.08,.83,.16,0,.04-.05,.08-.2,.13v1.19h.73Zm.58,1.61h.82v-1.49h-.82v1.49Z"/>
      <path d="M38.82,11.24v.14s0,.08-.04,.09c-.05,.03-.18,.06-.34,.06s-.2-.02-.2-.12c.02-.43,.02-.62,.02-1.11,0-.6,0-.86-.03-1.27,.29,.13,.38,.18,.67,.33h2.35c.12-.14,.17-.18,.3-.32,.19,.14,.25,.19,.44,.33,.04,.04,.06,.06,.06,.09,0,.05-.05,.09-.19,.15v.42c0,.49,0,.91,.02,1.31,0,.05-.01,.08-.03,.1-.04,.04-.2,.07-.37,.07-.14,0-.17-.02-.18-.11v-.17h-.94c.15,.18,.3,.3,.57,.44,.41,.23,.95,.36,1.67,.4v.06c-.2,.08-.31,.22-.38,.46-.03,.08-.04,.1-.08,.1-.15,0-.64-.23-.96-.45-.03,.01-.04,.02-.08,.03v.5c0,.05,0,.44,.02,1.16,0,.13-.08,.16-.38,.16-.19,0-.22-.02-.22-.12,.02-.64,.02-.76,.02-.88,0-.85,0-.9-.02-1.11,.19,.02,.28,.03,.39,.05-.23-.19-.33-.31-.48-.53-.09-.15-.12-.19-.16-.28h-.25c-.25,.37-.37,.5-.69,.75,.42,.07,.47,.08,.47,.14,0,.04-.05,.08-.18,.13-.03,.47-.07,.67-.17,.9-.15,.35-.47,.64-.87,.79-.25,.09-.43,.14-.84,.21l-.02-.07c.57-.24,.78-.39,1-.68,.21-.28,.3-.64,.3-1.15v-.06c-.43,.28-.77,.41-1.42,.56l-.03-.07c.56-.26,.87-.46,1.21-.77,.25-.23,.38-.4,.55-.68h-.51Zm.94-1.01v-.75h-.94v.75h.94Zm0,.12h-.94v.77h.94v-.77Zm1.54-.87h-.99v.75h.99v-.75Zm-.99,.87v.77h.99v-.77h-.99Z"/>
    </g>
    <g>
      <path d="M29.08,5.25c-.06,.02-.12,.04-.17,.07-.06,.03-.11,.06-.16,.1-.05,.04-.1,.08-.15,.13-.05,.05-.09,.1-.13,.15s-.08,.1-.12,.16c-.04,.06-.08,.11-.11,.17s-.07,.12-.1,.18-.06,.12-.09,.18c.05-.01,.09-.03,.13-.04,.04-.02,.08-.03,.11-.05,.03-.02,.07-.04,.1-.06,.03-.02,.06-.05,.09-.08,0,0,0,0,0,0,0,0,0,0,0,0,0,0,0,0,.01,0,0,0,0,0,.01,0,0,0,0,0,0,0,0,0,0,0,0,.01,0,0,0,0,0,.01,0,0,0,0,0,0-.02,.03-.05,.06-.08,.09-.04,.03-.07,.06-.12,.09s-.09,.05-.14,.07c-.05,.02-.11,.03-.17,.03-.06,.11-.12,.21-.19,.3s-.13,.17-.2,.24c-.07,.07-.14,.13-.22,.18-.07,.05-.15,.1-.23,.14-.08,.04-.15,.07-.23,.1-.08,.02-.15,.05-.22,.06s-.14,.03-.21,.03c-.07,0-.13,.01-.19,.01-.06,0-.11,0-.17,0-.06,0-.12-.02-.17-.03-.06-.01-.11-.03-.16-.05-.05-.02-.1-.05-.15-.08s-.09-.06-.13-.1c-.04-.04-.07-.07-.1-.12-.03-.04-.05-.09-.06-.14-.01-.05-.02-.1-.02-.16,0-.06,.01-.12,.03-.18,.02-.05,.04-.1,.07-.15,.03-.05,.07-.09,.11-.13,.04-.04,.08-.07,.13-.1s.1-.06,.15-.08,.11-.04,.16-.06c.05-.02,.11-.03,.17-.04,.06,0,.11-.01,.17-.02,.05,0,.11,0,.16,0,.05,0,.1,.01,.14,.03,.04,.01,.09,.03,.12,.05s.07,.04,.11,.07,.06,.05,.08,.08,.04,.06,.06,.09c.02,.03,.03,.06,.04,.1,0,.03,.01,.07,.01,.1,0,.05,0,.1-.02,.14-.01,.04-.03,.08-.06,.11-.02,.03-.05,.06-.08,.09-.03,.03-.07,.05-.1,.07-.04,.02-.08,.04-.12,.05-.04,.01-.08,.03-.13,.04-.04,0-.09,.02-.13,.02-.04,0-.08,0-.12,.01-.05,0-.09,0-.13,0-.04,0-.07-.01-.11-.02-.03,0-.06-.02-.09-.03s-.06-.02-.1-.03c0,0-.01,0-.02-.01,0,0-.01-.02-.01-.02,0,0,0,0,0,0,0,0,0,0,0,0,0,0,0,0,.01,0,0,0,0,0,.01,0,.04,0,.07,.01,.11,.03,.04,.01,.07,.02,.11,.03s.07,.02,.11,.02,.07,0,.11,0c.05,0,.09,0,.14-.01s.09-.02,.13-.03,.08-.03,.12-.04,.07-.04,.11-.06,.06-.05,.09-.07c.03-.03,.05-.05,.06-.08,.02-.03,.03-.06,.04-.09,0-.03,.02-.06,.02-.1,0-.04,0-.07-.01-.1,0-.03-.02-.06-.04-.09-.02-.03-.04-.05-.06-.07-.02-.02-.05-.04-.08-.05-.03-.02-.06-.03-.09-.04-.03-.01-.06-.02-.09-.02-.03,0-.06-.01-.09-.01-.03,0-.06,0-.09,0-.07,0-.14,0-.2,.01-.06,0-.12,.02-.18,.04-.06,.02-.11,.04-.16,.06-.05,.02-.1,.05-.14,.08s-.08,.06-.11,.1c-.03,.04-.06,.07-.09,.11-.03,.04-.05,.08-.06,.13-.02,.04-.03,.09-.03,.13,0,.04,0,.08,0,.11,0,.04,.02,.07,.04,.11,.02,.03,.05,.07,.08,.1s.07,.06,.11,.08c.04,.03,.08,.05,.13,.07,.05,.02,.09,.04,.15,.05,.05,.01,.1,.03,.16,.03s.11,.01,.17,.01c.15,0,.29-.02,.43-.07,.13-.04,.26-.11,.37-.2,.12-.09,.23-.19,.33-.32,.1-.13,.2-.27,.29-.43-.08-.02-.14-.04-.2-.06-.05-.02-.09-.05-.12-.08s-.05-.06-.06-.1c-.01-.04-.02-.08-.02-.12,0-.06,.01-.12,.04-.17,.03-.06,.07-.11,.12-.17,.05-.05,.11-.1,.18-.15,.07-.05,.14-.09,.23-.13,.08-.04,.17-.08,.27-.11,.1-.03,.2-.06,.3-.08,.1-.02,.21-.03,.32-.04,.11,0,.22,0,.32,0Zm-.19,.04c-.13,0-.24,.02-.35,.04s-.21,.05-.3,.07c-.09,.03-.18,.06-.25,.1-.08,.04-.14,.07-.2,.11-.06,.04-.11,.08-.15,.12-.04,.04-.08,.08-.1,.13s-.04,.08-.05,.12c0,.04-.01,.08,0,.12,0,.03,0,.06,.02,.09s.02,.06,.04,.08c.02,.03,.04,.05,.08,.07,.04,.02,.08,.03,.15,.04,.03-.06,.07-.11,.11-.17,.04-.06,.08-.11,.12-.17,.04-.06,.09-.11,.13-.16s.09-.1,.14-.15c.05-.05,.1-.1,.15-.14s.11-.08,.16-.12c.05-.04,.11-.07,.16-.1,.05-.03,.11-.06,.16-.08Z"/>
      <path d="M28.37,6.62s0-.04,0-.05c-.02,0-.04,0-.06,0s-.05,0-.08,0-.06,0-.08,0c-.03,0-.05,0-.08,0v-.03s0-.02,0-.03,0-.02,0-.03v-.03s.07,0,.1,0,.06,0,.09,0c.03,0,.07,0,.1,0,.04,0,.08,0,.13,0s.1,0,.13,0c.04,0,.07,0,.1,0s.06,0,.09,0c.03,0,.06,0,.09,0v.03s0,.02,0,.03,0,.02,0,.03v.03s-.04,0-.07,0c-.03,0-.06,0-.08,0-.03,0-.05,0-.08,0s-.04,0-.06,0c0,0,0,.01,0,.02,0,0,0,.02,0,.03v.46c0,.08,0,.16,0,.23s0,.13,0,.19c-.02,0-.04,0-.06,0h-.15s-.04,0-.06,0c0-.06,0-.13,0-.19,0-.07,0-.14,0-.23v-.38s0-.06,0-.08Z"/>
      <path d="M30.06,7s-.08,0-.13,0-.08,0-.13,0-.08,0-.13,0v.09c0,.08,0,.16,0,.23s0,.13,0,.19c-.02,0-.04,0-.06,0h-.15s-.04,0-.06,0c0-.06,0-.13,0-.19s0-.14,0-.23v-.21c0-.08,0-.16,0-.23s0-.13,0-.2c.02,0,.04,0,.06,0,.02,0,.05,0,.07,0s.05,0,.08,0c.02,0,.04,0,.06,0,0,.07,0,.13-.01,.2,0,.06,0,.14,0,.23,.03,0,.06,0,.1,0s.09,0,.15,0,.11,0,.15,0c.04,0,.07,0,.11,0,0-.08,0-.16,0-.23s0-.13,0-.2c.02,0,.04,0,.06,0s.05,0,.07,0,.05,0,.08,0c.02,0,.04,0,.06,0,0,.07,0,.13,0,.2,0,.07,0,.14,0,.23v.21c0,.08,0,.16,0,.23,0,.07,0,.13,0,.19-.02,0-.04,0-.06,0h-.15s-.04,0-.06,0c0-.06,0-.13,0-.19s0-.14,0-.23v-.09s-.08,0-.13,0Z"/>
      <path d="M31.04,6.65c0-.07,0-.13,0-.2,.05,0,.1,0,.15,0s.1,0,.15,0c.08,0,.15,0,.22,0,.06,0,.11,0,.13,0,0,.02,0,.04,0,.06,0,.02,0,.03,0,.04s0,.02,0,.03c-.03,0-.07,0-.11,0s-.08,0-.11,0c-.04,0-.07,0-.1,0-.03,0-.05,0-.06,0,0,.06,0,.11,0,.17v.17c.07,0,.14,0,.19,0,.06,0,.12,0,.18,0,0,.02,0,.03,0,.04,0,0,0,.02,0,.03,0,0,0,.02,0,.03,0,0,0,.02,0,.04-.13,0-.25-.01-.38-.01,0,.03,0,.07,0,.1,0,.03,0,.07,0,.1,0,.07,0,.13,0,.19,.06,0,.13,0,.19,0,.06,0,.13,0,.19-.02,0,.01,0,.02,0,.03s0,.02,0,.04,0,.03,0,.04,0,.02,0,.02c-.03,0-.07,0-.11,0-.04,0-.1,0-.18,0h-.26s-.04,0-.06,0c-.01,0-.02,0-.03,0,0-.06,0-.13,0-.19s0-.14,0-.23v-.21c0-.08,0-.16,0-.23Z"/>
      <path d="M32.9,6.83c0-.05,0-.1,0-.16,.01,0,.03,0,.05,0,.02,0,.04,0,.06,0,.03,0,.06,0,.09,0s.06,0,.09,0c.06,0,.11,0,.14,.01,.03,0,.06,.02,.08,.04,.03,.02,.05,.04,.06,.07,.01,.03,.02,.06,.02,.09,0,.05,0,.09-.02,.12-.02,.03-.04,.06-.07,.08-.03,.02-.07,.04-.11,.05-.04,0-.08,.01-.13,.01h-.07c0,.06,0,.12,0,.18,0,.06,0,.12,0,.18-.01,0-.03,0-.05,0h-.12s-.03,0-.05,0c0-.05,0-.1,0-.15s0-.11,0-.18v-.17c0-.07,0-.13,0-.18Zm.38,0s-.02-.04-.03-.05-.03-.02-.04-.03c-.02,0-.03,0-.05,0h-.04s0,0-.01,0c0,.06,0,.12,0,.17s0,.11,0,.17c.02,0,.04,0,.07,0,.02,0,.04-.01,.06-.02,.02-.01,.03-.03,.05-.05s.02-.06,.02-.09c0-.03,0-.06-.01-.08Z"/>
      <path d="M34.62,6.83c0-.05,0-.1,0-.16,.04,0,.08,0,.12,0,.04,0,.08,0,.11,0,.06,0,.12,0,.17,0,.05,0,.08,0,.1,0,0,.01,0,.03,0,.05,0,.01,0,.02,0,.03s0,.02,0,.02c-.03,0-.05,0-.08,0-.03,0-.06,0-.09,0-.03,0-.05,0-.08,0-.02,0-.04,0-.05,0,0,.04,0,.09,0,.13s0,.09,0,.13c.06,0,.11,0,.15,0,.04,0,.09,0,.14,0,0,.01,0,.02,0,.03s0,.02,0,.02c0,0,0,.01,0,.02,0,0,0,.02,0,.03-.1,0-.2-.01-.29-.01v.08s0,.05,0,.08c0,.05,0,.1,0,.15,.05,0,.1,0,.15,0,.05,0,.1,0,.15-.01,0,0,0,.02,0,.02s0,.02,0,.03,0,.02,0,.03,0,.01,0,.02c-.02,0-.05,0-.09,0s-.08,0-.14,0h-.2s-.03,0-.04,0-.02,0-.03,0c0-.05,0-.1,0-.15,0-.05,0-.11,0-.18v-.17c0-.07,0-.13,0-.18Z"/>
      <path d="M37.02,7.51s-.04,0-.06,0h-.11s-.04,0-.06,0c-.01-.04-.03-.08-.04-.12s-.03-.08-.05-.12h-.08s-.06,0-.08,0c-.02,0-.04,0-.07,0s-.04,0-.07,0c-.02,.04-.03,.08-.05,.12s-.03,.08-.04,.12c-.01,0-.02,0-.03,0h-.06s-.02,0-.03,0c0-.02,.02-.05,.04-.09,.02-.04,.04-.08,.06-.13,.02-.05,.04-.1,.07-.15,.02-.05,.05-.11,.07-.16,.02-.06,.05-.11,.07-.16s.04-.1,.06-.15c0,0,.02,0,.02,0,0,0,.02,0,.02,0,0,0,.02,0,.03,0,0,0,.02,0,.02,0,.03,.07,.06,.14,.09,.22,.03,.08,.06,.16,.09,.23,.03,.08,.06,.15,.09,.22,.03,.07,.06,.13,.08,.17Zm-.46-.61s-.04,.1-.06,.14c-.02,.05-.04,.1-.06,.15h.24s-.04-.1-.06-.15c-.02-.05-.04-.1-.06-.14Z"/>
      <path d="M38.35,7.12v.05c0,.07,0,.13,0,.18s0,.1,0,.15c-.01,0-.03,0-.05,0h-.12s-.03,0-.05,0c0-.05,0-.1,0-.15s0-.11,0-.18v-.17c0-.07,0-.13,0-.18,0-.05,0-.1,0-.16,.01,0,.03,0,.05,0,.02,0,.04,0,.06,0,.02,0,.05,0,.08,0,.03,0,.07,0,.11,0,.03,0,.06,0,.08,0,.02,0,.04,0,.06,0s.03,0,.04,.01,.02,.01,.04,.02c.03,.02,.05,.04,.06,.07,.02,.03,.02,.06,.02,.09,0,.06-.02,.11-.05,.15-.03,.04-.08,.06-.15,.08,.04,.07,.09,.14,.13,.21,.05,.07,.09,.14,.14,.2-.02,0-.04,0-.06,0h-.12s-.04,0-.06,0l-.23-.38h-.01Zm.19-.31s-.02-.04-.04-.05c-.02-.01-.04-.02-.06-.02-.03,0-.06,0-.09,0,0,.11,0,.22,0,.33,0,0,.01,0,.01,0,0,0,0,0,.01,0,.06,0,.1-.01,.13-.04s.04-.07,.04-.13c0-.04,0-.06-.01-.09Z"/>
      <path d="M39.95,6.83c0-.05,0-.1,0-.16,.01,0,.03,0,.05,0,.02,0,.04,0,.06,0s.04,0,.06,0c.02,0,.03,0,.05,0,0,.05,0,.11,0,.16,0,.05,0,.11,0,.18v.17s0,.09,0,.13c0,.04,0,.08,0,.11,.05,0,.1,0,.15,0,.05,0,.1,0,.15-.01,0,0,0,.02,0,.02,0,0,0,.02,0,.03s0,.02,0,.03c0,0,0,.01,0,.02-.02,0-.05,0-.09,0-.03,0-.08,0-.14,0h-.2s-.03,0-.04,0-.02,0-.03,0c0-.05,0-.1,0-.15s0-.11,0-.18v-.17c0-.07,0-.13,0-.18Z"/>
      <path d="M41.83,6.73s-.07,.01-.1,.03c-.02,.02-.04,.05-.04,.08s0,.05,.03,.07,.04,.04,.07,.05c.03,.02,.06,.03,.09,.04,.03,.01,.07,.03,.09,.05,.03,.02,.05,.05,.07,.08s.03,.07,.03,.11c0,.04,0,.08-.02,.11s-.04,.06-.07,.09c-.03,.02-.07,.04-.11,.06s-.09,.02-.14,.02c-.05,0-.09,0-.12-.01-.04,0-.06-.02-.08-.03,0-.03,.02-.05,.02-.08,0-.02,.01-.05,.02-.08h.02s0,.04,.02,.05,.02,.03,.04,.04,.03,.02,.05,.03c.02,0,.04,.01,.07,.01,.05,0,.09-.01,.11-.04s.04-.05,.04-.09c0-.03,0-.06-.03-.08-.02-.02-.04-.04-.07-.05s-.06-.03-.09-.04c-.03-.01-.06-.03-.09-.05-.03-.02-.05-.05-.07-.07-.02-.03-.03-.07-.03-.11,0-.04,0-.08,.02-.11,.02-.03,.04-.06,.06-.08,.03-.02,.06-.04,.09-.05,.04-.01,.07-.02,.11-.02,.05,0,.09,0,.12,.02,.03,.01,.06,.03,.09,.04,0,.02-.01,.04-.02,.05s-.01,.04-.02,.07h-.02c-.03-.07-.08-.1-.16-.1Z"/>
    </g>
    <g>
      <path class="cls-2" d="M.8,17.97h-.21v-.64c-.12,.17-.24,.32-.36,.43l-.18-.1c.2-.16,.36-.35,.48-.55H.1v-.19h.49v-.18H.11v-.19H.81c.07-.16,.12-.28,.14-.38l.19,.06c-.02,.1-.06,.21-.12,.33h.27v.19h-.48v.18h.48v.19h-.44c.13,.11,.26,.23,.38,.35l-.15,.14c-.08-.09-.17-.19-.28-.29v.67Zm-.19-2.23h.22v.17h.44v.2H.14v-.2h.47v-.17Zm-.16,.42c.05,.08,.1,.18,.15,.3l-.19,.08c-.05-.12-.1-.23-.14-.3l.18-.07Zm1.16,.45v.36c0,.18-.03,.34-.08,.47-.07,.17-.17,.34-.32,.51l-.17-.14c.16-.18,.26-.33,.3-.46,.04-.12,.06-.24,.06-.38v-1.05s.02-.07,.06-.07c.3,0,.59-.03,.85-.08l.07,.2c-.25,.05-.5,.08-.74,.08-.02,0-.03,.01-.03,.04v.34h.79v.2h-.26v1.35h-.21v-1.35h-.33Z"/>
      <path class="cls-2" d="M5.13,17.32v-.2h.71v-.21h-.52c-.07,0-.1-.03-.1-.09v-.46h.22v.31s.02,.05,.05,.05h.36v-.39h.22v1.63h-.22v-.64h-.28c-.06,.24-.14,.44-.25,.59l-.21-.08c.12-.17,.2-.34,.25-.52h-.23Zm.77-1.21v.15h-.22v-.15h-.55v-.2h.55v-.18h.22v.18h.74v-.18h.22v.18h.55v.2h-.55v.15h-.22v-.15h-.74Zm.78,.79h-.5v-.2h.5v-.36h.22v.36h.52v.2h-.52v.76h.51v.2h-1.18v-.2h.45v-.76Z"/>
      <path class="cls-2" d="M10.85,17.09l.2,.05c-.02,.13-.05,.26-.1,.41,.08-.02,.15-.05,.21-.07l.09,.19c-.28,.1-.63,.18-1.06,.23l-.07-.2c.25-.03,.45-.06,.59-.09,.07-.21,.12-.39,.14-.53Zm.31-1.27v.19h-1.01v-.19h1.01Zm-.08,1.19h-.86s-.03,0-.03-.03v-.78s0-.03,.03-.03h.86s.03,0,.03,.03v.78s0,.03-.03,.03Zm-.63,.09c.05,.13,.09,.28,.12,.46l-.21,.05c-.03-.19-.07-.34-.12-.45l.21-.06Zm-.04-.74h0v.45s0,0,0,0h.49v-.46h-.49Zm1.3,1.42c-.18,.1-.36,.16-.53,.19,0-.07,0-.14-.03-.2,.16-.02,.32-.07,.45-.17l.11,.18Zm.65-.19h-1.01s-.03,0-.03-.03v-1.34s0-.03,.03-.03h.28c.05-.11,.08-.17,.09-.2h-.44v-.19h1.17v.19h-.52s-.02,.07-.04,.11c-.02,.03-.03,.06-.04,.08h.51s.03,0,.03,.03v1.34s0,.03-.03,.03Zm-.17-.99v-.22h-.67v.22h.67Zm0,.4v-.22h-.67v.22h.67Zm-.67,.19v.21h0s.66,0,.66,0c0,0,0,0,0,0v-.21h-.67Zm.54,.44c.12,.03,.26,.08,.41,.16l-.08,.17c-.17-.08-.31-.13-.42-.16l.08-.17Z"/>
      <path class="cls-2" d="M16.75,15.74l.2,.08c-.02,.06-.04,.12-.07,.18h.57v.21h-2.26v-.21h.66c-.03-.07-.07-.12-.11-.17l.2-.1c.05,.07,.1,.16,.15,.27h.54c.06-.1,.1-.19,.12-.26Zm-1.26,2.2h-.22v-1.52s.02-.07,.07-.07h.93c.05,0,.08,.03,.08,.07v1.3c0,.09-.04,.16-.11,.2-.08,.05-.23,.06-.45,.02l-.02-.23c.16,.05,.27,.06,.31,.04,.04-.02,.06-.05,.06-.09v-.22h-.64v.51Zm.64-1.14v-.23s-.01-.02-.02-.02h-.61s0,.01,0,.02v.23h.64Zm0,.44v-.24h-.64v.24h.64Zm.69-.83v1.12h-.22v-1.12h.22Zm.55-.09v1.41c0,.09-.04,.16-.12,.21-.1,.06-.28,.06-.54-.02v-.22c.09,.03,.16,.05,.2,.06,.11,.02,.19,.02,.23-.02,.01-.02,.02-.04,.02-.07v-1.35h.22Z"/>
      <path class="cls-2" d="M21.25,17.63h-.92v-.19h.92v-.13h-.81s-.03,0-.03-.03v-.8s0-.03,.03-.03h.81v-.12h-1.06v-.19h1.06v-.11c-.32,.01-.59,.02-.81,0l-.02-.21c.28,0,.6,0,.96-.02,.38-.02,.65-.05,.84-.07l.03,.2c-.14,.03-.38,.06-.72,.08-.02,0-.04,0-.06,0v.12h1.05v.19h-1.05v.12h.8s.03,0,.03,.03v.8s0,.03-.03,.03h-.8v.13h.91v.19h-.91v.11h1.03v.19h-2.28v-.19h1.04v-.11Zm0-.98h-.63v.15h.63v-.15Zm0,.34h-.63v.13s0,0,.01,0h.62v-.14Zm.22-.19h.62v-.15h-.62v.15Zm0,.33h.62v-.14h-.62v.14Z"/>
      <path class="cls-2" d="M25.84,16.71h-.6v-.14h.6v-.07h-.53v-.15h.53v-.1h-.64v-.14h.64v-.07h-.52v-.15h.52v-.14h.21v.14h.51s.06,.02,.06,.05v.18h.19v.14h-.19v.2s-.02,.06-.06,.06h-.51v.07h.64v.14h-.64v.08h.7v.15h-1.55v-.15h.64v-.08Zm.83,1v.17s-1.44,.06-1.44,.06l-.02-.17,1.46-.06Zm-.07-.07h-1.3s-.02,0-.02-.03v-.58s.01-.02,.02-.02h1.3s.03,.01,.03,.02v.58s0,.03-.03,.03Zm-.75-.48h-.38s0,0,0,0v.09h.38v-.09Zm0,.23h-.38v.08h0s.38,0,.38,0v-.09Zm.2-1.3h.38v-.07s-.01,0-.02,0h-.36v.07Zm0,.24h.36s.02-.01,.02-.02v-.08h-.38v.1Zm0,.92h.38v-.09h-.38v.09Zm0,.23h.38v-.09h-.38v.09Zm1.01-1.6v1.58h-.2v-1.58h.2Zm.41-.15v1.96c0,.09-.04,.16-.11,.2-.08,.06-.25,.06-.48,0v-.21c.2,.04,.33,.05,.37,.03,.01-.02,.02-.04,.02-.07v-1.91h.21Z"/>
      <path class="cls-2" d="M30.26,16.02v-.19h2.28v.19h-1.96v1.62s.02,.05,.05,.05h1.89v.2h-2.05c-.07,0-.1-.03-.1-.09v-1.77h-.1Zm1.22,1.57h-.74s-.03,0-.03-.03v-.7s0-.03,.03-.03h.74s.03,0,.03,.03v.7s0,.03-.03,.03Zm.75-.89h-1.39s-.03,0-.03-.03v-.51s0-.03,.03-.03h1.39s.03,0,.03,.03v.51s0,.03-.03,.03Zm-1.32,.31s0,0,0,0v.38h0s.4,0,.4,0c0,0,0,0,0,0v-.38s0,0,0,0h-.4Zm.12-.69s0,0,0,0v.19s0,0,0,0h1.02s0,0,0,0v-.19s0,0,0,0h-1.02Zm1.38,1.27h-.73s-.03,0-.03-.03v-.69s.01-.03,.03-.03h.73s.03,0,.03,.03v.69s0,.03-.03,.03Zm-.56-.57s0,0,0,0v.38h0s.38,0,.38,0c0,0,0,0,0,0v-.38s0,0,0,0h-.38Z"/>
      <path class="cls-2" d="M35.54,16.52h-.27v-.21h.27v-.55h.22v.55h.24v.21h-.24v.83c.07-.04,.13-.09,.18-.13l.14,.16c-.17,.13-.41,.25-.7,.38l-.13-.18c.12-.04,.22-.08,.3-.12v-.94Zm.42,.33l-.11-.19,.31-.13v-.58h.22v.5l.33-.14v-.57h.22v.49l.45-.19,.15,.07v.83s-.01,.09-.04,.15c-.03,.06-.07,.1-.12,.12-.07,.03-.18,.04-.34,.02v-.2c.06,.01,.11,.02,.15,.02,.05,0,.09-.03,.12-.07,.01-.03,.02-.08,.02-.13v-.52s0-.02,0-.02c0,0-.01,0-.02,0l-.37,.15v.98h-.22v-.89l-.33,.14v.88c0,.05,.01,.08,.02,.1,.02,.02,.06,.03,.12,.03h.66c.08,0,.13-.02,.16-.05,.01-.04,.02-.14,0-.31l.22,.02c0,.25-.01,.4-.04,.46-.05,.05-.08,.08-.11,.08-.04,0-.09,0-.16,0h-.83c-.07,0-.12-.01-.16-.04-.08-.06-.12-.15-.11-.27v-.83l-.2,.08Z"/>
      <path class="cls-2" d="M40.8,17.95h-.21v-.96c-.04,.11-.08,.21-.12,.29l-.21-.04c.15-.27,.25-.54,.29-.83h-.26v-.21h.3v-.47h.21v.47h.21v.21h-.21v.05c.1,.15,.2,.3,.3,.45l-.19,.11c-.03-.06-.07-.13-.11-.21v1.12Zm.67-.37c-.16,.16-.31,.26-.45,.32l-.13-.18c.16-.06,.3-.15,.42-.28l.16,.14Zm-.44-.21v-.2h1.59v.2h-.67v.37c0,.09-.04,.16-.12,.21-.08,.04-.22,.04-.42-.02v-.22c.17,.05,.27,.06,.31,.04,.01-.02,.02-.04,.02-.07v-.31h-.7Zm1.5-1.23s.03,0,.03,.03v.54s0,.03-.03,.03h-1.4s-.03,0-.03-.03v-.54s0-.03,.03-.03h.39v-.14h-.46v-.19h1.53v.19h-.44v.14h.38Zm-.04,.72v.19h-1.28v-.19h1.28Zm-.97-.53h-.22v.22s0,0,0,0h.21v-.23Zm.42-.33h-.21v.14h.21v-.14Zm0,.33h-.21v.23h.21v-.23Zm.3,1.14c.12,.07,.25,.18,.4,.31l-.14,.15c-.16-.13-.29-.23-.39-.29l.14-.17Zm-.09-.92h.21v-.23h-.21v.23Z"/>
    </g>
  </g>
</svg>