<?xml version="1.0" encoding="UTF-8"?>
<svg id="_圖層_2" data-name="圖層 2" xmlns="http://www.w3.org/2000/svg" viewBox="0 0 42.83 23.59">
  <defs>
    <style>
      .cls-1 {
        fill: #fff;
      }

      .cls-2 {
        fill: #946134;
      }

      .cls-3 {
        opacity: .8;
      }

      .cls-4 {
        fill: #231815;
      }
    </style>
  </defs>
  <g id="_圖層_1-2" data-name="圖層 1">
    <polygon class="cls-1" points="21.7 20.56 21.7 23.59 3.64 23.59 3.64 20.45 4.54 20.45 4.54 22.69 20.8 22.69 20.8 20.56 21.7 20.56"/>
    <polygon class="cls-1" points="21.07 0 21.07 2.68 20.17 2.68 20.17 .9 3.9 .9 3.9 2.76 3 2.76 3 0 21.07 0"/>
    <g class="cls-3">
      <path class="cls-2" d="M1.53,5.9c.32-.19,.7-.29,1.16-.29,.28,0,.55,.04,.8,.12,.25,.08,.47,.21,.65,.38,.18,.18,.33,.4,.44,.66,.11,.26,.16,.58,.16,.96,0,.27-.03,.53-.09,.76-.06,.24-.14,.47-.25,.69s-.25,.45-.42,.68c-.17,.23-.37,.47-.6,.72-.14,.15-.3,.33-.48,.53-.18,.2-.36,.41-.55,.62-.18,.21-.36,.42-.52,.63-.17,.21-.31,.4-.42,.58h1.03c.52,0,.98,0,1.38-.03,.4-.02,.75-.04,1.05-.07-.04,.18-.05,.32-.05,.44,0,.11,.02,.25,.05,.41-.39-.02-.77-.02-1.16-.02H1.4c-.39,0-.77,0-1.16,.02v-.14c.5-.55,.94-1.04,1.31-1.46s.69-.8,.95-1.13c.26-.34,.47-.64,.63-.91s.29-.53,.38-.77,.16-.48,.19-.72c.03-.24,.05-.49,.05-.76,0-.59-.12-1.03-.36-1.31-.24-.28-.52-.43-.85-.43-.23,0-.43,.05-.59,.14-.17,.09-.3,.2-.41,.34-.11,.13-.19,.27-.25,.43s-.1,.29-.12,.41l-.08,.02-.38-.59c.23-.41,.5-.71,.82-.9Z"/>
      <path class="cls-2" d="M6.64,8.13c.09-.5,.23-.93,.43-1.31s.46-.67,.78-.89,.72-.33,1.19-.33c.52,0,.94,.11,1.27,.33s.59,.52,.77,.89c.19,.37,.31,.81,.38,1.31,.07,.5,.1,1.03,.1,1.6s-.05,1.07-.15,1.57c-.1,.5-.25,.93-.46,1.31-.21,.38-.47,.67-.78,.89-.32,.22-.7,.32-1.13,.32-.52,0-.94-.1-1.27-.31-.33-.21-.58-.5-.77-.87-.19-.37-.32-.81-.38-1.31-.07-.5-.1-1.03-.1-1.6s.04-1.1,.13-1.6Zm.84,3.07c.05,.46,.15,.85,.28,1.19,.13,.34,.3,.6,.51,.79,.21,.19,.47,.29,.78,.29s.57-.1,.78-.29c.21-.19,.38-.46,.51-.79,.13-.34,.22-.73,.28-1.19,.05-.46,.08-.95,.08-1.47s-.03-1.02-.08-1.47c-.05-.46-.15-.85-.28-1.19s-.3-.6-.51-.79c-.21-.19-.47-.29-.78-.29s-.57,.09-.78,.26c-.21,.18-.38,.43-.51,.76s-.22,.72-.28,1.18c-.05,.46-.08,.97-.08,1.54,0,.53,.03,1.02,.08,1.47Z"/>
      <path class="cls-2" d="M13.55,5.9c.32-.19,.7-.29,1.16-.29,.28,0,.55,.04,.8,.12,.25,.08,.47,.21,.65,.38,.18,.18,.33,.4,.44,.66,.11,.26,.16,.58,.16,.96,0,.27-.03,.53-.09,.76-.06,.24-.14,.47-.25,.69s-.25,.45-.42,.68c-.17,.23-.37,.47-.6,.72-.14,.15-.3,.33-.48,.53-.18,.2-.36,.41-.55,.62-.18,.21-.36,.42-.52,.63-.17,.21-.31,.4-.42,.58h1.03c.52,0,.98,0,1.38-.03,.4-.02,.75-.04,1.05-.07-.04,.18-.05,.32-.05,.44,0,.11,.02,.25,.05,.41-.39-.02-.77-.02-1.16-.02h-2.32c-.39,0-.77,0-1.16,.02v-.14c.5-.55,.94-1.04,1.31-1.46s.69-.8,.95-1.13c.26-.34,.47-.64,.63-.91s.29-.53,.38-.77,.16-.48,.19-.72c.03-.24,.05-.49,.05-.76,0-.59-.12-1.03-.36-1.31-.24-.28-.52-.43-.85-.43-.23,0-.43,.05-.59,.14-.17,.09-.3,.2-.41,.34-.11,.13-.19,.27-.25,.43s-.1,.29-.12,.41l-.08,.02-.38-.59c.23-.41,.5-.71,.82-.9Z"/>
      <path class="cls-2" d="M18.66,8.13c.09-.5,.23-.93,.43-1.31s.46-.67,.78-.89,.72-.33,1.19-.33c.52,0,.94,.11,1.27,.33s.59,.52,.77,.89c.19,.37,.31,.81,.38,1.31,.07,.5,.1,1.03,.1,1.6s-.05,1.07-.15,1.57c-.1,.5-.25,.93-.46,1.31-.21,.38-.47,.67-.78,.89-.32,.22-.7,.32-1.13,.32-.52,0-.94-.1-1.27-.31-.33-.21-.58-.5-.77-.87-.19-.37-.32-.81-.38-1.31-.07-.5-.1-1.03-.1-1.6s.04-1.1,.13-1.6Zm.84,3.07c.05,.46,.15,.85,.28,1.19,.13,.34,.3,.6,.51,.79,.21,.19,.47,.29,.78,.29s.57-.1,.78-.29c.21-.19,.38-.46,.51-.79,.13-.34,.22-.73,.28-1.19,.05-.46,.08-.95,.08-1.47s-.03-1.02-.08-1.47c-.05-.46-.15-.85-.28-1.19s-.3-.6-.51-.79c-.21-.19-.47-.29-.78-.29s-.57,.09-.78,.26c-.21,.18-.38,.43-.51,.76s-.22,.72-.28,1.18c-.05,.46-.08,.97-.08,1.54,0,.53,.03,1.02,.08,1.47Z"/>
    </g>
    <g>
      <path d="M26.12,10.97c.06,.38,.08,.56,.08,.85,0,.47-.08,.84-.24,1.07-.1,.15-.21,.23-.32,.23-.17,0-.31-.22-.31-.48,0-.1,.02-.18,.07-.24t.18-.17c.16-.14,.29-.37,.37-.63,.05-.19,.08-.33,.1-.63h.07Zm.56,.08c0-.37,0-.63-.03-.84,.81,.1,.86,.12,.86,.2,0,.05-.04,.08-.23,.15v2.7c0,.13,0,.13,.67,.13,.45,0,.53-.02,.59-.12,.06-.12,.18-.52,.38-1.31h.08s-.04,1.18-.04,1.18v.02c0,.08,.02,.09,.14,.13,.12,.03,.19,.14,.19,.27,0,.19-.13,.31-.37,.35-.2,.03-.6,.04-1.11,.04-.68,0-.86-.02-1-.09-.09-.06-.13-.15-.14-.35v-.85s0-1.61,0-1.61Zm.13-1.88c1.29,.22,1.65,.4,1.65,.83,0,.28-.09,.46-.24,.46-.06,0-.11-.03-.19-.13-.39-.5-.75-.82-1.26-1.1l.03-.07Zm2.21,1.72c.74,.58,1.14,1.06,1.14,1.4,0,.32-.23,.66-.44,.66-.1,0-.15-.06-.17-.25-.09-.71-.25-1.19-.58-1.77l.06-.04Z"/>
      <path d="M33.56,10.63q0-1.22-.03-1.48c.62,.06,.67,.06,.73,.09,.05,.01,.07,.04,.07,.07,0,.04-.05,.08-.19,.13v1.2h.82v-.88c0-.21-.02-.42-.04-.61,.62,.06,.67,.07,.74,.09,.04,.02,.06,.04,.06,.07,0,.04-.06,.08-.19,.13,0,.36,0,.59,0,.83v.36h.15c.14-.2,.19-.26,.34-.45,.23,.2,.3,.26,.52,.48,.02,.03,.03,.04,.03,.06,0,.02-.02,.03-.06,.03h-.98q.01,1.38,.03,1.9c0,.06,0,.09-.03,.11-.04,.04-.2,.07-.38,.07-.15,0-.19-.03-.19-.15h0v-.31h-.82v.34c0,.06,0,.08-.02,.1-.04,.05-.16,.08-.39,.08-.15,0-.19-.03-.19-.12v-.02q.02-1.29,.02-1.52c0-.08,0-.19,0-.28v-.07s0-.06,0-.12h-.73v2.87h2.5c.17-.22,.22-.29,.4-.51,.26,.23,.35,.3,.6,.53,.02,.03,.03,.04,.03,.06,0,.02-.02,.03-.06,.03h-3.46v.25c0,.12-.1,.15-.46,.15-.13,0-.16-.03-.16-.13h0c.02-.9,.03-1.27,.03-2.12v-1.13h-.21c-.19,0-.29,0-.43,.03l-.03-.19c.14,.03,.32,.04,.47,.04h.21q0-1.11-.04-1.48c.76,.07,.83,.08,.83,.16,0,.04-.05,.08-.2,.13v1.19h.73Zm.58,1.61h.82v-1.49h-.82v1.49Z"/>
      <path d="M39.05,11.24v.14s0,.08-.04,.09c-.05,.03-.18,.06-.34,.06s-.2-.02-.2-.12c.02-.43,.02-.62,.02-1.11,0-.6,0-.86-.03-1.27,.29,.13,.38,.18,.67,.33h2.35c.12-.14,.17-.18,.3-.32,.19,.14,.25,.19,.44,.33,.04,.04,.06,.06,.06,.09,0,.05-.05,.09-.19,.15v.42c0,.49,0,.91,.02,1.31,0,.05-.01,.08-.03,.1-.04,.04-.2,.07-.37,.07-.14,0-.17-.02-.18-.11v-.17h-.94c.15,.18,.3,.3,.57,.44,.41,.23,.95,.36,1.67,.4v.06c-.2,.08-.31,.22-.38,.46-.03,.08-.04,.1-.08,.1-.15,0-.64-.23-.96-.45-.03,.01-.04,.02-.08,.03v.5c0,.05,0,.44,.02,1.16,0,.13-.08,.16-.38,.16-.19,0-.22-.02-.22-.12,.02-.64,.02-.76,.02-.88,0-.85,0-.9-.02-1.11,.19,.02,.28,.03,.39,.05-.23-.19-.33-.31-.48-.53-.09-.15-.12-.19-.16-.28h-.25c-.25,.37-.37,.5-.69,.75,.42,.07,.47,.08,.47,.14,0,.04-.05,.08-.18,.13-.03,.47-.07,.67-.17,.9-.15,.35-.47,.64-.87,.79-.25,.09-.43,.14-.84,.21l-.02-.07c.57-.24,.78-.39,1-.68,.21-.28,.3-.64,.3-1.15v-.06c-.43,.28-.77,.41-1.42,.56l-.03-.07c.56-.26,.87-.46,1.21-.77,.25-.23,.38-.4,.55-.68h-.51Zm.94-1.01v-.75h-.94v.75h.94Zm0,.12h-.94v.77h.94v-.77Zm1.54-.87h-.99v.75h.99v-.75Zm-.99,.87v.77h.99v-.77h-.99Z"/>
    </g>
    <g>
      <path class="cls-4" d="M26.55,6.12s.06,0,.09,0c.03,0,.07,.01,.1,.02,.03,.01,.07,.03,.1,.04,.03,.02,.06,.04,.09,.06,.03,.02,.06,.05,.08,.08,.02,.03,.04,.06,.06,.1,.02,.04,.03,.08,.04,.12s.01,.09,.01,.14c0,.05,0,.1-.01,.15,0,.05-.02,.09-.04,.13-.02,.04-.04,.08-.06,.12-.02,.04-.05,.07-.08,.1-.03,.03-.06,.06-.09,.08-.03,.02-.07,.04-.1,.06-.04,.02-.07,.03-.11,.04-.04,0-.08,.01-.12,.01-.03,0-.06,0-.09-.01-.03,0-.06-.02-.09-.03-.03-.01-.06-.02-.09-.03-.03-.01-.06-.03-.09-.04,0,0,0,0,0,0,0,0,0-.01,0-.02s0-.01,0-.02,0,0,0,0c.03,.01,.05,.02,.08,.03,.03,.01,.06,.02,.08,.03,.03,0,.06,.02,.09,.02,.03,0,.06,.01,.09,.01,.04,0,.08,0,.11-.01,.04,0,.07-.02,.11-.04,.03-.02,.07-.04,.1-.06,.03-.02,.06-.05,.09-.08,.03-.03,.05-.06,.07-.09,.02-.03,.04-.07,.05-.11,.01-.04,.02-.07,.03-.11,0-.04,0-.08,0-.12,0-.05,0-.09-.02-.13,0-.04-.02-.07-.04-.1-.02-.03-.04-.05-.06-.07-.02-.02-.04-.04-.07-.05-.02-.01-.05-.03-.08-.03s-.05-.02-.08-.02c-.03,0-.05-.01-.08-.02-.03,0-.05,0-.08,0-.04,0-.09,0-.13,0s-.09,.02-.14,.04c-.04,.02-.09,.05-.13,.08-.04,.03-.08,.06-.12,.1-.04,.04-.07,.08-.11,.13-.03,.05-.06,.09-.08,.14-.02,.05-.04,.1-.05,.15-.01,.05-.02,.11-.01,.16,0,.08,.01,.14,.03,.2,.02,.06,.04,.11,.07,.16,.03,.05,.06,.09,.1,.12,.04,.04,.08,.07,.12,.09,.04,.03,.09,.05,.13,.06,.05,.02,.09,.03,.14,.04,.05,.01,.09,.02,.14,.02,.05,0,.09,0,.13,0,.05,0,.1,0,.15-.02,.05-.01,.1-.03,.15-.05,.05-.02,.09-.05,.14-.08,.05-.03,.09-.06,.13-.1,.04-.04,.09-.08,.13-.12,.04-.04,.08-.09,.12-.13,.04-.05,.07-.1,.1-.15,.03-.05,.06-.1,.08-.16,.06-.14,.12-.26,.18-.37,.05-.11,.1-.21,.15-.31s.09-.18,.13-.25c.04-.07,.08-.14,.12-.2,.04-.06,.07-.11,.11-.16,.04-.05,.07-.09,.11-.13s.07-.07,.11-.1c.04-.03,.07-.06,.12-.08h.01s0,0,.01,0c0,0,0,0,0,0,0,0,0,0,0,0-.05,.05-.1,.11-.14,.17-.04,.06-.08,.12-.12,.18-.04,.06-.07,.13-.1,.19-.03,.06-.06,.13-.08,.19-.03,.07-.05,.13-.07,.19-.02,.06-.05,.13-.07,.19-.02,.06-.05,.12-.08,.18-.03,.06-.05,.11-.08,.17-.04,.07-.08,.14-.12,.2-.04,.06-.09,.13-.13,.19-.04,.06-.09,.11-.14,.17s-.1,.1-.16,.14-.11,.08-.17,.12c-.06,.03-.13,.06-.19,.09-.07,.02-.14,.04-.22,.05-.08,.01-.16,.02-.25,.02-.04,0-.09,0-.14,0-.05,0-.1-.01-.14-.03-.05-.01-.1-.03-.14-.05-.05-.02-.09-.05-.13-.08s-.08-.07-.12-.11c-.04-.04-.07-.09-.09-.14-.03-.05-.05-.11-.06-.18s-.02-.14-.02-.22c0-.05,0-.11,.01-.17,0-.05,.02-.11,.04-.16s.04-.1,.07-.15c.03-.05,.06-.09,.1-.13,.04-.04,.07-.07,.12-.11,.04-.03,.09-.06,.14-.08,.05-.02,.1-.04,.16-.06,.06-.01,.11-.02,.18-.02Zm.41-.25c0-.1,.03-.19,.06-.27s.08-.14,.14-.2,.13-.11,.2-.15c.08-.04,.16-.07,.25-.1,.09-.02,.18-.04,.28-.06,.1-.01,.19-.02,.29-.03,.1,0,.19,0,.28,0h.26s.1,0,.15,0,.1,0,.15,0c.05,0,.1,0,.15-.01,.05,0,.1-.01,.15-.02,0,0,.01,0,.02,0s.01,0,.02,.01,.01,.01,.01,.02,0,.01,0,.02c-.03,.04-.06,.07-.1,.09-.04,.02-.08,.04-.12,.06-.04,.02-.09,.03-.13,.03-.04,0-.09,.01-.13,.02-.04,0-.08,0-.12,0-.04,0-.08,0-.12,0s-.08-.01-.12-.02c-.04,0-.08-.01-.12-.02-.04,0-.08-.01-.12-.02-.04,0-.08-.01-.12-.02-.04,0-.08,0-.13-.01s-.09,0-.13,0c-.04,0-.09,0-.14,0s-.1,.02-.15,.03-.1,.03-.15,.05-.1,.04-.15,.07c-.05,.03-.09,.06-.13,.09-.04,.04-.07,.07-.1,.12-.03,.04-.05,.09-.07,.15-.02,.05-.03,.11-.03,.18,0,.04,0,.08,.02,.12,.02,.04,.04,.08,.06,.1,.03,.03,.06,.05,.09,.07,.04,.02,.07,.03,.11,.03,.05,0,.1,0,.15-.02s.09-.03,.13-.05c.04-.02,.08-.04,.12-.07,.04-.03,.07-.06,.1-.09,.03-.03,.06-.07,.09-.11,.03-.04,.06-.08,.08-.11,.03-.04,.05-.08,.07-.12,.02-.04,.04-.08,.06-.11,0,0,0,0,0,0s0,0,.01,0,0,0,.01,0c0,0,0,0,0,0-.02,.07-.04,.13-.06,.18-.02,.06-.05,.11-.08,.16-.03,.05-.06,.1-.09,.14-.03,.04-.07,.08-.1,.11-.04,.03-.07,.06-.11,.09-.04,.03-.07,.05-.11,.07-.04,.02-.08,.03-.11,.04-.04,0-.07,.02-.11,.02-.06,0-.12-.01-.17-.04-.05-.03-.1-.06-.13-.1-.04-.04-.06-.09-.08-.15-.02-.05-.03-.11-.02-.17Z"/>
      <path class="cls-4" d="M29.04,7.19s-.07,0-.1,0-.07,0-.1,0c-.04,0-.07,0-.1,0v.1c0,.1,0,.19,0,.27s0,.16,0,.23c-.02,0-.03,0-.05,0h-.12s-.04,0-.05,0c0-.08,0-.15,0-.23s0-.17,0-.27v-.25c0-.1,0-.19,0-.27s0-.16,0-.24c.02,0,.03,0,.05,0,.02,0,.04,0,.06,0s.04,0,.06,0c.02,0,.04,0,.05,0,0,.08,0,.16,0,.24,0,.08,0,.17,0,.27,.02,0,.05,0,.08,0,.03,0,.07,0,.12,0s.09,0,.12,0c.03,0,.06,0,.09,0,0-.1,0-.19,0-.27,0-.08,0-.16,0-.24,.02,0,.03,0,.05,0,.02,0,.04,0,.06,0s.04,0,.06,0c.02,0,.03,0,.05,0,0,.08,0,.16,0,.24s0,.17,0,.27v.25c0,.1,0,.19,0,.27s0,.16,0,.23c-.02,0-.03,0-.05,0h-.12s-.04,0-.05,0c0-.08,0-.15,0-.23s0-.17,0-.27v-.1s-.07,0-.1,0Z"/>
      <path class="cls-4" d="M29.84,6.78c0-.08,0-.16,0-.24,.04,0,.08,0,.12,0,.04,0,.08,0,.12,0,.07,0,.13,0,.18,0,.05,0,.09,0,.11,0,0,.02,0,.05,0,.08,0,.02,0,.04,0,.05,0,.01,0,.02,0,.04-.03,0-.05,0-.09,0s-.06,0-.09,0-.06,0-.08,0c-.02,0-.04,0-.05,0,0,.07,0,.13,0,.2,0,.07,0,.13,0,.2,.06,0,.11,0,.16,0s.1,0,.15,0c0,.02,0,.04,0,.05,0,.01,0,.02,0,.04,0,0,0,.02,0,.03,0,.01,0,.03,0,.04-.1-.01-.21-.02-.31-.02,0,.04,0,.08,0,.12v.12c0,.08,0,.16,0,.23,.05,0,.1,0,.16,0,.05,0,.1,0,.16-.02,0,.01,0,.03,0,.04,0,.01,0,.03,0,.05s0,.03,0,.05,0,.02,0,.03c-.02,0-.05,0-.09,0-.04,0-.08,0-.15,0h-.22s-.04,0-.05,0c-.01,0-.02,0-.03,0,0-.08,0-.15,0-.23,0-.08,0-.17,0-.27v-.25c0-.1,0-.19,0-.27Z"/>
      <path class="cls-4" d="M32.11,7.68s0,.05-.01,.08c-.07,.05-.16,.07-.27,.07-.08,0-.15-.01-.21-.04s-.11-.07-.15-.12c-.04-.05-.07-.12-.1-.19-.02-.07-.03-.15-.03-.24,0-.12,.01-.23,.04-.32,.03-.09,.07-.16,.12-.21,.05-.05,.1-.09,.17-.12,.06-.03,.13-.04,.2-.04,.02,0,.05,0,.07,0,.03,0,.05,.01,.07,.02,.02,0,.05,.02,.07,.03,.02,.01,.04,.02,.05,.03,0,.03-.02,.06-.02,.09,0,.03,0,.06,0,.09h-.02c-.03-.06-.07-.1-.1-.12s-.08-.04-.12-.04c-.04,0-.07,.01-.11,.03s-.07,.05-.1,.1c-.03,.04-.05,.1-.07,.17-.02,.07-.03,.15-.03,.25s0,.17,.03,.24,.04,.12,.07,.16c.03,.04,.06,.07,.1,.09,.04,.02,.08,.03,.11,.03,.02,0,.04,0,.06,0,.02,0,.04-.02,.07-.03,.02-.01,.04-.03,.06-.04,.02-.02,.04-.04,.05-.06h.02s-.01,.06-.02,.09Z"/>
      <path class="cls-4" d="M32.61,6.81c0-.08,0-.15,0-.23,.02,0,.03,0,.05,0,.02,0,.04,0,.06,0s.04,0,.06,0c.02,0,.03,0,.05,0,0,.08,0,.15,0,.23,0,.08,0,.17,0,.26v.24c0,.1,0,.19,0,.26,0,.08,0,.15,0,.23-.02,0-.03,0-.05,0h-.12s-.03,0-.05,0c0-.07,0-.15,0-.23,0-.08,0-.17,0-.26v-.24c0-.1,0-.19,0-.26Z"/>
      <path class="cls-4" d="M33.52,6.77s0-.05,0-.06c-.01,0-.03,0-.05,0-.02,0-.04,0-.06,0-.02,0-.04,0-.07,0-.02,0-.04,0-.06,0,0-.01,0-.03,0-.04,0-.01,0-.03,0-.04s0-.03,0-.04c0-.01,0-.03,0-.04,.03,0,.06,0,.08,0,.02,0,.05,0,.07,0,.03,0,.05,0,.08,0s.07,0,.11,0,.08,0,.11,0c.03,0,.06,0,.08,0,.02,0,.05,0,.07,0,.02,0,.05,0,.08,0,0,.01,0,.03,0,.04s0,.03,0,.04,0,.03,0,.04,0,.03,0,.04c-.02,0-.04,0-.06,0-.02,0-.04,0-.07,0-.02,0-.04,0-.06,0-.02,0-.04,0-.05,0,0,0,0,.01,0,.03v.58c0,.1,0,.19,0,.26,0,.08,0,.15,0,.23-.02,0-.03,0-.05,0h-.12s-.03,0-.05,0c0-.07,0-.15,0-.23,0-.08,0-.17,0-.26v-.45s0-.07,0-.1Z"/>
      <path class="cls-4" d="M34.82,7s.04-.09,.05-.14c.02-.05,.03-.1,.05-.14,.02-.05,.03-.09,.05-.14,0,0,.02,0,.03,0,.01,0,.02,0,.03,0s.02,0,.03,0c.01,0,.02,0,.03,0-.01,.03-.03,.08-.06,.13s-.05,.11-.07,.18c-.03,.06-.05,.13-.08,.19-.03,.07-.05,.13-.07,.18,0,.03,0,.06,0,.09,0,.03,0,.06,0,.09,0,.06,0,.12,0,.18s0,.12,.01,.19c-.02,0-.04,0-.06,0h-.11s-.04,0-.06,0c0-.05,0-.11,0-.17,0-.06,0-.11,0-.17v-.08s0-.06,0-.08c-.02-.06-.05-.13-.08-.2-.03-.07-.06-.14-.08-.21-.03-.07-.05-.13-.07-.19-.02-.06-.04-.1-.05-.12,.02,0,.04,0,.06,0,.02,0,.04,0,.06,0s.04,0,.06,0c.02,0,.04,0,.06,0,.01,.04,.03,.09,.05,.15,.02,.05,.04,.11,.06,.16s.04,.1,.05,.14c.02,.04,.03,.07,.04,.09h0s.04-.07,.05-.12Z"/>
      <path class="cls-4" d="M36.92,7.68s0,.05-.01,.08c-.07,.05-.16,.07-.27,.07-.08,0-.15-.01-.21-.04s-.11-.07-.15-.12c-.04-.05-.07-.12-.1-.19-.02-.07-.03-.15-.03-.24,0-.12,.01-.23,.04-.32,.03-.09,.07-.16,.12-.21,.05-.05,.1-.09,.17-.12,.06-.03,.13-.04,.2-.04,.02,0,.05,0,.07,0,.03,0,.05,.01,.07,.02,.02,0,.05,.02,.07,.03,.02,.01,.04,.02,.05,.03,0,.03-.02,.06-.02,.09,0,.03,0,.06,0,.09h-.02c-.03-.06-.07-.1-.1-.12s-.08-.04-.12-.04c-.04,0-.07,.01-.11,.03s-.07,.05-.1,.1c-.03,.04-.05,.1-.07,.17-.02,.07-.03,.15-.03,.25s0,.17,.03,.24,.04,.12,.07,.16c.03,.04,.06,.07,.1,.09,.04,.02,.08,.03,.11,.03,.02,0,.04,0,.06,0,.02,0,.04-.02,.07-.03,.02-.01,.04-.03,.06-.04,.02-.02,.04-.04,.05-.06h.02s-.01,.06-.02,.09Z"/>
      <path class="cls-4" d="M37.41,6.81c0-.08,0-.15,0-.23,.04,0,.08,0,.12,0,.04,0,.08,0,.12,0,.07,0,.12,0,.17,0,.05,0,.08,0,.1,0,0,.02,0,.04,0,.08,0,.02,0,.03,0,.04s0,.02,0,.04c-.03,0-.05,0-.08,0-.03,0-.06,0-.09,0-.03,0-.05,0-.08,0-.02,0-.04,0-.05,0,0,.07,0,.13,0,.2s0,.13,0,.19c.06,0,.11,0,.16,0,.05,0,.09,0,.14,0,0,.02,0,.04,0,.05s0,.02,0,.03c0,0,0,.02,0,.03,0,.01,0,.02,0,.04-.1-.01-.2-.02-.3-.02v.11s0,.08,0,.11c0,.08,0,.15,0,.22,.05,0,.1,0,.15,0,.05,0,.1,0,.15-.02,0,.01,0,.02,0,.04s0,.03,0,.04,0,.03,0,.04,0,.02,0,.03c-.02,0-.05,0-.09,0-.04,0-.08,0-.14,0h-.21s-.03,0-.04,0c0,0-.02,0-.03,0,0-.07,0-.15,0-.23,0-.08,0-.17,0-.26v-.24c0-.1,0-.19,0-.26Z"/>
      <path class="cls-4" d="M38.41,6.72c0-.06,0-.11,0-.15,.02,0,.04,0,.06,0,.02,0,.04,0,.06,0,.1,.14,.19,.29,.29,.43,.09,.14,.19,.28,.29,.43v-.33c0-.06,0-.12,0-.17,0-.06,0-.11,0-.16,0-.05,0-.09,0-.12,0-.03,0-.06,0-.07,.02,0,.04,0,.06,0,.01,0,.03,0,.06,0,0,.11,0,.21-.01,.29,0,.09,0,.17,0,.25,0,.08,0,.15,0,.23,0,.08,0,.16,0,.24v.21s-.04,0-.05,0-.04,0-.05,0c-.18-.29-.38-.57-.58-.86,0,.03,0,.07,0,.1,0,.03,0,.07,0,.11v.21c0,.07,0,.13,0,.18,0,.05,0,.09,0,.13,0,.03,0,.06,0,.08s0,.04,0,.05c-.01,0-.02,0-.03,0h-.03s-.04,0-.06,0c0,0,0-.04,0-.1,0-.06,0-.13,0-.21,0-.08,0-.18,0-.27,0-.1,0-.19,0-.28,0-.08,0-.15,0-.21Z"/>
      <path class="cls-4" d="M39.9,6.77s0-.05,0-.06c-.01,0-.03,0-.05,0-.02,0-.04,0-.06,0-.02,0-.04,0-.07,0-.02,0-.04,0-.06,0,0-.01,0-.03,0-.04,0-.01,0-.03,0-.04s0-.03,0-.04c0-.01,0-.03,0-.04,.03,0,.06,0,.08,0,.02,0,.05,0,.07,0,.03,0,.05,0,.08,0s.07,0,.11,0,.08,0,.11,0c.03,0,.06,0,.08,0,.02,0,.05,0,.07,0,.02,0,.05,0,.08,0,0,.01,0,.03,0,.04s0,.03,0,.04,0,.03,0,.04,0,.03,0,.04c-.02,0-.04,0-.06,0-.02,0-.04,0-.07,0-.02,0-.04,0-.06,0-.02,0-.04,0-.05,0,0,0,0,.01,0,.03v.58c0,.1,0,.19,0,.26,0,.08,0,.15,0,.23-.02,0-.03,0-.05,0h-.12s-.03,0-.05,0c0-.07,0-.15,0-.23,0-.08,0-.17,0-.26v-.45s0-.07,0-.1Z"/>
      <path class="cls-4" d="M40.78,6.81c0-.08,0-.15,0-.23,.04,0,.08,0,.12,0,.04,0,.08,0,.12,0,.07,0,.12,0,.17,0,.05,0,.08,0,.1,0,0,.02,0,.04,0,.08,0,.02,0,.03,0,.04s0,.02,0,.04c-.03,0-.05,0-.08,0-.03,0-.06,0-.09,0-.03,0-.05,0-.08,0-.02,0-.04,0-.05,0,0,.07,0,.13,0,.2s0,.13,0,.19c.06,0,.11,0,.16,0,.05,0,.09,0,.14,0,0,.02,0,.04,0,.05s0,.02,0,.03c0,0,0,.02,0,.03,0,.01,0,.02,0,.04-.1-.01-.2-.02-.3-.02v.11s0,.08,0,.11c0,.08,0,.15,0,.22,.05,0,.1,0,.15,0,.05,0,.1,0,.15-.02,0,.01,0,.02,0,.04s0,.03,0,.04,0,.03,0,.04,0,.02,0,.03c-.02,0-.05,0-.09,0-.04,0-.08,0-.14,0h-.21s-.03,0-.04,0c0,0-.02,0-.03,0,0-.07,0-.15,0-.23,0-.08,0-.17,0-.26v-.24c0-.1,0-.19,0-.26Z"/>
      <path class="cls-4" d="M41.97,7.24v.07c0,.1,0,.19,0,.26,0,.08,0,.15,0,.23-.01,0-.03,0-.05,0h-.12s-.03,0-.05,0c0-.07,0-.15,0-.23,0-.08,0-.17,0-.26v-.24c0-.1,0-.19,0-.26,0-.08,0-.15,0-.23,.01,0,.03,0,.05,0,.02,0,.04,0,.06,0,.02,0,.05,0,.08,0,.03,0,.07,0,.11,0,.03,0,.06,0,.09,0,.02,0,.04,0,.06,.01s.03,.01,.04,.02,.03,.02,.04,.03c.03,.03,.05,.06,.06,.1,.02,.04,.02,.08,.02,.14,0,.09-.02,.16-.05,.21-.04,.05-.09,.09-.15,.12,.04,.1,.09,.2,.14,.3,.05,.1,.1,.2,.15,.3-.02,0-.04,0-.06,0h-.12s-.04,0-.06,0l-.24-.56h-.01Zm.2-.45s-.02-.05-.04-.07c-.02-.02-.04-.03-.06-.03-.03,0-.06,0-.09,0,0,.16,0,.32,0,.49,0,0,0,0,.01,0,0,0,0,0,.01,0,.06,0,.1-.02,.13-.06,.03-.04,.05-.11,.05-.19,0-.05,0-.09-.01-.12Z"/>
    </g>
    <g>
      <path class="cls-2" d="M1.06,17.83H.14v-.19h.92v-.13H.25s-.03,0-.03-.03v-.8s0-.03,.03-.03h.81v-.12H0v-.19H1.06v-.11c-.32,.01-.59,.02-.81,0l-.02-.21c.28,0,.6,0,.96-.02,.38-.02,.65-.05,.84-.07l.03,.2c-.14,.03-.38,.06-.72,.08-.02,0-.04,0-.06,0v.12h1.05v.19H1.27v.12h.8s.03,0,.03,.03v.8s0,.03-.03,.03h-.8v.13h.91v.19h-.91v.11h1.03v.19H.02v-.19H1.06v-.11Zm0-.98H.42v.15h.63v-.15Zm0,.34H.42v.13s0,0,.01,0h.62v-.14Zm.22-.19h.62v-.15h-.62v.15Zm0,.33h.62v-.14h-.62v.14Z"/>
      <path class="cls-2" d="M6.95,18.16h-.21v-2.13s0-.02,0-.03h.55l.15,.08-.16,.55s0,.07,0,.08c.07,.11,.12,.21,.15,.3,.03,.15,0,.27-.06,.38-.04,.06-.08,.09-.13,.09-.09,.02-.19,.02-.31,0v.67Zm.02-1.97h-.02v1.11c.08,.03,.15,.03,.21,.03,.03-.01,.05-.03,.06-.05,.07-.11,.02-.3-.14-.57h0s.13-.47,.13-.47c.01-.04,0-.05-.05-.05h-.19Zm1.23,1.2l-.14,.19c-.18,.22-.45,.39-.83,.51l-.11-.17c.17-.06,.32-.12,.45-.18,.15-.09,.28-.21,.38-.35h-.21c-.12,.12-.27,.22-.44,.32l-.14-.15c.07-.04,.14-.08,.21-.11,.18-.12,.3-.25,.37-.38h-.28v-.19h1.5v.19h-1.01s-.05,.1-.08,.14h1.01s.03,0,.04,0c.01,.01,.02,.02,.02,.03,0,0,0,.01,0,.02,0,.42-.03,.67-.08,.75-.04,.06-.09,.1-.16,.12-.09,.03-.23,.03-.41,0v-.2c.07,.02,.14,.03,.2,.04,.09,0,.15-.02,.19-.07,.03-.03,.04-.1,.05-.2,0-.2,0-.3,0-.31h-.17c-.17,.42-.45,.68-.83,.78l-.1-.18c.34-.06,.58-.26,.72-.6h-.17Zm.63-.61h-1.25s-.03,0-.03-.03v-.72s0-.03,.03-.03h1.25s.03,0,.03,.03v.72s0,.03-.03,.03Zm-.18-.48v-.13h-.9v.13h.9Zm-.9,.17v.13s0,0,0,0h.89v-.14h-.9Z"/>
      <path class="cls-2" d="M14.41,17.83h-.92v-.19h.92v-.13h-.81s-.03,0-.03-.03v-.8s0-.03,.03-.03h.81v-.12h-1.06v-.19h1.06v-.11c-.32,.01-.59,.02-.81,0l-.02-.21c.28,0,.6,0,.96-.02,.38-.02,.66-.05,.84-.07l.03,.2c-.15,.03-.38,.06-.72,.08-.02,0-.04,0-.06,0v.12h1.05v.19h-1.05v.12h.8s.03,0,.03,.03v.8s0,.03-.03,.03h-.8v.13h.91v.19h-.91v.11h1.03v.19h-2.28v-.19h1.04v-.11Zm0-.98h-.63v.15h.63v-.15Zm0,.34h-.63v.13s0,0,0,0h.62v-.14Zm.22-.19h.62v-.15h-.62v.15Zm0,.33h.62v-.14h-.62v.14Z"/>
      <path class="cls-2" d="M20.65,16.91h-.6v-.14h.6v-.07h-.53v-.15h.53v-.1h-.64v-.14h.64v-.07h-.52v-.15h.52v-.14h.21v.14h.51s.06,.02,.06,.05v.18h.19v.14h-.19v.2s-.02,.06-.06,.06h-.51v.07h.64v.14h-.64v.08h.7v.15h-1.55v-.15h.64v-.08Zm.83,1v.17s-1.44,.06-1.44,.06l-.02-.17,1.46-.06Zm-.07-.07h-1.3s-.02,0-.02-.03v-.58s.01-.02,.02-.02h1.3s.03,.01,.03,.02v.58s0,.03-.03,.03Zm-.75-.48h-.38s0,0,0,0v.09h.38v-.09Zm0,.23h-.38v.08h0s.38,0,.38,0v-.09Zm.2-1.3h.38v-.07s-.01,0-.02,0h-.36v.07Zm0,.24h.36s.02-.01,.02-.02v-.08h-.38v.1Zm0,.92h.38v-.09h-.38v.09Zm0,.23h.38v-.09h-.38v.09Zm1.01-1.6v1.58h-.2v-1.58h.2Zm.4-.15v1.96c0,.09-.04,.16-.11,.2-.09,.06-.25,.06-.48,0v-.21c.2,.04,.33,.05,.37,.03,.01-.02,.02-.04,.02-.07v-1.91h.21Z"/>
      <path class="cls-2" d="M26.72,16.22v-.19h2.28v.19h-1.96v1.62s.02,.05,.05,.05h1.89v.2h-2.05c-.07,0-.1-.03-.1-.09v-1.77h-.1Zm1.22,1.58h-.74s-.03,0-.03-.03v-.7s0-.03,.03-.03h.74s.03,0,.03,.03v.7s0,.03-.03,.03Zm.75-.89h-1.39s-.03,0-.03-.03v-.51s0-.03,.03-.03h1.39s.03,0,.03,.03v.51s0,.03-.03,.03Zm-1.32,.31s0,0,0,0v.38h0s.4,0,.4,0c0,0,0,0,0,0v-.38s0,0,0,0h-.4Zm.12-.69s0,0,0,0v.19s0,0,0,0h1.02s0,0,0,0v-.19s0,0,0,0h-1.02Zm1.38,1.27h-.73s-.03,0-.03-.03v-.69s.01-.03,.03-.03h.73s.03,0,.03,.03v.69s0,.03-.03,.03Zm-.56-.57s0,0,0,0v.38h0s.38,0,.38,0c0,0,0,0,0,0v-.38s0,0,0,0h-.38Z"/>
      <path class="cls-2" d="M33.48,16.63l-.07-.21c.34-.06,.61-.22,.79-.48l.22,.07s-.01,.02-.02,.03h1.05l.17,.13c-.07,.09-.12,.17-.17,.24-.23,.29-.57,.53-1.03,.72h1.02c.05,0,.08,.02,.08,.08v.94h-.23v-.1h-1.15v.1h-.23v-.84c-.15,.04-.31,.08-.47,.12l-.08-.22c.34-.06,.62-.12,.85-.21,.08-.03,.16-.06,.24-.09-.19-.15-.38-.28-.58-.4-.11,.05-.24,.09-.38,.13Zm1.17,.17c.27-.15,.48-.33,.62-.53,0-.02,0-.03,0-.03h-1.05c-.06,.05-.11,.1-.16,.14,.07,.04,.14,.09,.23,.15,.14,.1,.26,.19,.37,.27Zm.63,1.03v-.47s0-.03-.03-.03h-1.09s-.03,0-.03,.03v.47h1.15Z"/>
      <path class="cls-2" d="M40.38,16.83v.71s.03-.01,.05-.02c.15-.04,.26-.08,.33-.12l.09,.2c-.18,.09-.42,.17-.72,.24l-.09-.2s.08-.03,.13-.04v-1.5s.01-.06,.06-.06c.38,0,.71-.04,1.02-.11l.09,.2c-.14,.03-.28,.06-.42,.07,0,.14,0,.28,.02,.41h.44v.21h-.42c.04,.28,.11,.5,.21,.67,.02,.04,.04,.06,.06,.06,0,0,0,0,0-.02,.01-.03,.02-.12,.02-.27l.21,.06c-.03,.29-.06,.45-.11,.49-.03,.02-.06,.03-.09,.03-.04,0-.08-.02-.12-.05-.02-.02-.03-.03-.04-.04-.18-.21-.3-.52-.35-.93h-.36Zm.86,1.06v.21h-1.1v-.21h1.1Zm-.54-1.65c-.11,0-.21,0-.31,0-.01,0-.02,.01,0,.02v.36h.33c-.01-.12-.02-.25-.02-.38Zm1.04-.03s-.03,0-.03,.03v1.9h-.23v-2.1s.02-.04,.04-.04h.69l.15,.1-.24,.71s0,.04,0,.06c.12,.14,.19,.27,.22,.38,.06,.21,.05,.38-.03,.51-.04,.06-.08,.09-.13,.11-.04,.03-.09,.04-.16,.04s-.15-.02-.26-.07v-.23c.14,.07,.24,.09,.31,.08,.08-.02,.11-.12,.09-.3-.01-.11-.1-.28-.26-.49-.02-.02-.03-.04-.02-.06l.2-.61s0-.03,0-.03h-.36Z"/>
    </g>
  </g>
</svg>