<?xml version="1.0" encoding="UTF-8"?>
<svg xmlns="http://www.w3.org/2000/svg" xmlns:xlink="http://www.w3.org/1999/xlink" viewBox="0 0 27.8 24.57">
  <defs>
    <style>
      .cls-1 {
        fill: #fff;
      }

      .cls-2 {
        isolation: isolate;
      }

      .cls-3 {
        fill: url(#_未命名漸層_1049);
      }

      .cls-4 {
        fill: #beb292;
      }

      .cls-5 {
        fill: url(#_新增漸層色票_20-2);
      }

      .cls-6 {
        mix-blend-mode: overlay;
      }

      .cls-7 {
        fill: url(#_新增漸層色票_20);
      }

      .cls-8 {
        fill: #9b8277;
      }
    </style>
    <linearGradient id="_新增漸層色票_20" data-name="新增漸層色票 20" x1="18.04" y1="-.11" x2="18.14" y2="14.22" gradientUnits="userSpaceOnUse">
      <stop offset="0" stop-color="#fff"/>
      <stop offset=".07" stop-color="#dbd4d2"/>
      <stop offset=".17" stop-color="#b0a29f"/>
      <stop offset=".26" stop-color="#8f7a76"/>
      <stop offset=".34" stop-color="#775e59"/>
      <stop offset=".41" stop-color="#694d47"/>
      <stop offset=".47" stop-color="#644741"/>
      <stop offset=".86" stop-color="#a88d81"/>
      <stop offset=".99" stop-color="#bfa597"/>
    </linearGradient>
    <linearGradient id="_新增漸層色票_20-2" data-name="新增漸層色票 20" x1="9.78" y1="-.05" x2="9.89" y2="14.28" xlink:href="#_新增漸層色票_20"/>
    <linearGradient id="_未命名漸層_1049" data-name="未命名漸層 1049" x1="13.98" y1="-2.17" x2="14.09" y2="12.16" gradientUnits="userSpaceOnUse">
      <stop offset=".1" stop-color="#fff"/>
      <stop offset=".16" stop-color="#dbd4d2"/>
      <stop offset=".23" stop-color="#b0a29f"/>
      <stop offset=".3" stop-color="#8f7a76"/>
      <stop offset=".37" stop-color="#775e59"/>
      <stop offset=".43" stop-color="#694d47"/>
      <stop offset=".47" stop-color="#644741"/>
      <stop offset=".86" stop-color="#a88d81"/>
      <stop offset=".99" stop-color="#bfa597"/>
    </linearGradient>
  </defs>
  <g class="cls-2">
    <g id="_圖層_2" data-name="圖層 2">
      <g id="_圖層_1-2" data-name="圖層 1">
        <g>
          <path class="cls-8" d="M6.01,15.31s0-.01,0-.02c0,0,0,0,.01-.01,0,0,.02,0,.03,0s.03,0,.05,0c0,0,.02,0,.03,0,.01,0,.03,0,.05,0,.02,0,.03,0,.05,0,.02,0,.03,0,.05,0,0,.01,0,.02,0,.03,0,.02,0,.03-.02,.04-.04,0-.07,.02-.08,.03-.01,.01-.02,.03-.02,.05,0,0,0,.02,0,.06s0,.09,0,.18c0,.08,0,.19,.01,.33,0,.14,.01,.31,.02,.51,0,.03,0,.05,.02,.06,.01,.01,.04,.02,.08,.03,0,0,0,0,.01,.01,0,0,0,.01,0,.02s0,.02,0,.03c-.04,0-.07,0-.11,0-.03,0-.06,0-.09,0-.01,0-.02,0-.04,0-.02,0-.03,0-.05,0-.02,0-.04,0-.05,0-.02,0-.03,0-.05,0,0-.01,0-.02,0-.03,0-.02,0-.03,.02-.03,.04-.01,.07-.02,.09-.03,.02-.01,.02-.03,.02-.06,0,0,0-.03,0-.08,0-.05,0-.1,0-.17,0-.07,0-.14,0-.22,0-.08,0-.15,0-.22,0-.07,0-.13,0-.18,0-.05,0-.08,0-.09l-.36,1.1s0,.02-.01,.03c0,0,0,0-.02,0,0,0-.01,0-.01,0l-.41-1.17s0,.05,0,.1c0,.05,0,.12,0,.19,0,.07,0,.15,0,.23,0,.08,0,.16,0,.23,0,.07,0,.13,0,.18,0,.05,0,.07,0,.07,0,.04,.04,.07,.11,.09,.01,0,.02,.01,.02,.03,0,0,0,.02,0,.03-.03,0-.06,0-.09,0-.03,0-.05,0-.08,0-.02,0-.04,0-.07,0-.03,0-.06,0-.08,0,0-.01,0-.02,0-.03,0-.02,0-.03,.02-.03,.03,0,.05-.02,.07-.03,.02-.01,.03-.03,.03-.06,0-.01,0-.05,0-.11,0-.06,0-.13,0-.21s0-.16,0-.25c0-.09,0-.17,0-.25,0-.08,0-.14,0-.19,0-.05,0-.07,0-.08,0-.02,0-.04-.02-.05-.01-.01-.04-.02-.08-.03-.01,0-.02-.01-.02-.04,0,0,0-.02,0-.03,.01,0,.03,0,.05,0,.02,0,.04,0,.05,0,.02,0,.04,0,.05,0,.02,0,.03,0,.04,0,.02,0,.04,0,.05,0s.02,0,.03,0c0,0,.01,0,.01,.01,0,0,0,.01,0,.02l.36,1.04,.34-1.04Z"/>
          <path class="cls-8" d="M8.42,15.36v.53h.26s.04-.01,.05-.04c0-.03,.02-.06,.02-.1,0-.02,.01-.03,.03-.03,0,0,0,0,.01,0,0,0,0,0,.01,0,0,.03,0,.07,0,.1,0,.04,0,.07,0,.1,0,.02,0,.05,0,.09,0,.03,0,.07,0,.12,0,0-.02,0-.02,0-.02,0-.03,0-.03-.03,0-.04-.01-.07-.02-.1,0-.03-.03-.04-.05-.04h-.26v.49s.01,.05,.04,.06c.03,0,.08,.01,.15,.01h.09s.06,0,.08-.02c.02-.01,.04-.03,.06-.05,.02-.02,.03-.04,.05-.07,.01-.03,.03-.06,.04-.09,0,0,.01-.01,.02-.01,0,0,.01,0,.02,0s.01,0,.02,.01c0,.03-.02,.06-.03,.09,0,.04-.01,.07-.02,.11,0,.03-.01,.06-.02,.09,0,.02-.02,.04-.03,.04,0,0-.02,0-.04,0-.02,0-.03,0-.05,0-.02,0-.04,0-.06,0-.02,0-.04,0-.05,0h-.36s-.07,0-.1,0c-.04,0-.07,0-.1,0,0-.01,0-.02,0-.03,0-.02,0-.03,.02-.03,.04,0,.07-.02,.09-.03,.02-.01,.03-.03,.03-.06v-1.06s0-.05-.02-.06c-.02-.01-.05-.02-.09-.03-.01,0-.02-.01-.02-.04,0,0,0-.01,0-.02,0,0,0-.01,0-.02,.05,0,.09,0,.12,0,.03,0,.06,0,.09,0h.33s.09,0,.13,0c.04,0,.06,0,.07,0,.01,0,.02,.01,.03,.03,0,.02,0,.05,.01,.08,0,.03,0,.07,.01,.1,0,.04,.01,.07,.02,.09,0,0-.02,.01-.03,.01-.01,0-.02,0-.03-.02-.01-.04-.03-.07-.04-.09-.01-.03-.03-.05-.04-.06-.02-.02-.04-.03-.06-.04-.02,0-.05-.01-.08-.01h-.25Z"/>
          <path class="cls-8" d="M11.92,16.02h-.12v.46s.01,.05,.03,.06,.06,.02,.1,.03c.01,0,.02,.01,.02,.04,0,0,0,.02,0,.04-.03,0-.07,0-.11,0-.04,0-.08,0-.13,0-.03,0-.06,0-.1,0-.04,0-.07,0-.11,0,0-.01,0-.02,0-.03,0-.02,0-.03,.02-.03,.04,0,.07-.02,.09-.03,.02-.01,.03-.03,.03-.06v-1.06s0-.05-.02-.06c-.02-.01-.05-.02-.09-.03-.01,0-.02-.01-.02-.04,0,0,0-.02,0-.03,.03,0,.07,0,.1,0s.07,0,.1,0h.22c.12,0,.21,.03,.27,.1,.06,.07,.09,.16,.09,.27,0,.03,0,.06-.01,.1s-.02,.07-.04,.1c-.02,.03-.04,.06-.07,.09-.03,.03-.06,.05-.1,.07l.28,.48s.04,.06,.07,.07c.03,.01,.05,.02,.07,.03,0,0,.01,.01,.01,.03,0,.01,0,.02,0,.04-.03,0-.06,0-.09,0-.04,0-.07,0-.1,0-.02,0-.05-.01-.07-.04-.02-.03-.05-.06-.07-.1l-.27-.48Zm-.03-.09c.08,0,.14-.02,.18-.06,.04-.04,.06-.11,.06-.22,0-.04,0-.08-.01-.12,0-.04-.02-.07-.04-.09-.02-.03-.04-.05-.08-.06-.03-.02-.07-.02-.12-.02h-.08v.58h.09Z"/>
          <path class="cls-8" d="M14.52,16.48s0,.05,.02,.06c.02,.01,.04,.02,.09,.03,.01,0,.02,.01,.02,.03,0,0,0,.02,0,.03-.03,0-.07,0-.1,0-.03,0-.07,0-.1,0s-.06,0-.1,0c-.04,0-.07,0-.1,0,0-.01,0-.02,0-.03,0-.02,0-.03,.02-.03,.04,0,.07-.02,.09-.03s.02-.03,.02-.06v-1.06s0-.05-.02-.06c-.02-.01-.04-.02-.09-.03,0,0-.01,0-.01-.01,0,0,0-.01,0-.02s0-.02,0-.03c.03,0,.07,0,.1,0,.04,0,.07,0,.1,0s.06,0,.1,0c.04,0,.07,0,.11,0,0,.01,0,.02,0,.03,0,.02,0,.03-.02,.04-.04,0-.07,.02-.09,.03-.02,.01-.02,.03-.02,.06v1.06Z"/>
          <path class="cls-8" d="M17.27,15.44s0-.03,0-.04c0-.02,0-.03-.02-.04-.02,0-.04-.02-.07-.02-.01,0-.02-.01-.02-.04,0,0,0-.01,0-.02,0,0,0,0,0-.01,0,0,0,0,.02,0,.01,0,.03,0,.04,0,.02,0,.04,0,.06,0,.02,0,.04,0,.06,0,.04,0,.07,0,.1,0,.03,0,.05,0,.05,0,0,0,0,0,0,.01,0,0,0,0,0,.01s0,0,0,0c0,.02,0,.03-.02,.04-.04,0-.06,0-.08,.02-.02,.01-.03,.03-.04,.06l-.41,1.24s0,0,0,0,0,0,0,0c-.01,0-.02-.01-.03-.04l-.39-1.21s-.02-.03-.03-.04c-.02,0-.04-.02-.08-.03-.01,0-.02-.01-.02-.04,0-.01,0-.02,0-.03,.03,0,.07,0,.11,0,.04,0,.07,0,.1,0s.06,0,.1,0,.08,0,.11,0c0,.01,0,.02,0,.03,0,.02,0,.03-.02,.04-.07,0-.1,.03-.1,.07,0,0,0,.02,0,.03l.28,.91,.29-.89Z"/>
          <path class="cls-8" d="M19.52,15.36v.53h.26s.04-.01,.05-.04c0-.03,.02-.06,.02-.1,0-.02,.01-.03,.03-.03,0,0,0,0,.01,0,0,0,0,0,.01,0,0,.03,0,.07,0,.1,0,.04,0,.07,0,.1,0,.02,0,.05,0,.09,0,.03,0,.07,0,.12,0,0-.02,0-.02,0-.02,0-.03,0-.03-.03,0-.04-.01-.07-.02-.1,0-.03-.03-.04-.05-.04h-.26v.49s.01,.05,.04,.06c.03,0,.08,.01,.15,.01h.09s.06,0,.08-.02c.02-.01,.04-.03,.06-.05,.02-.02,.03-.04,.05-.07,.01-.03,.03-.06,.04-.09,0,0,.01-.01,.02-.01,0,0,.01,0,.02,0s.01,0,.02,.01c0,.03-.02,.06-.03,.09,0,.04-.01,.07-.02,.11,0,.03-.01,.06-.02,.09,0,.02-.02,.04-.03,.04,0,0-.02,0-.04,0-.02,0-.03,0-.05,0-.02,0-.04,0-.06,0-.02,0-.04,0-.05,0h-.36s-.07,0-.1,0c-.04,0-.07,0-.1,0,0-.01,0-.02,0-.03,0-.02,0-.03,.02-.03,.04,0,.07-.02,.09-.03,.02-.01,.03-.03,.03-.06v-1.06s0-.05-.02-.06c-.02-.01-.05-.02-.09-.03-.01,0-.02-.01-.02-.04,0,0,0-.01,0-.02,0,0,0-.01,0-.02,.05,0,.09,0,.12,0,.03,0,.06,0,.09,0h.33s.09,0,.13,0c.04,0,.06,0,.07,0,.01,0,.02,.01,.03,.03,0,.02,0,.05,.01,.08,0,.03,0,.07,.01,.1,0,.04,.01,.07,.02,.09,0,0-.02,.01-.03,.01-.01,0-.02,0-.03-.02-.01-.04-.03-.07-.04-.09-.01-.03-.03-.05-.04-.06-.02-.02-.04-.03-.06-.04-.02,0-.05-.01-.08-.01h-.25Z"/>
          <path class="cls-8" d="M22.3,16.02h-.12v.46s.01,.05,.03,.06,.06,.02,.1,.03c.01,0,.02,.01,.02,.04,0,0,0,.02,0,.04-.03,0-.07,0-.11,0-.04,0-.08,0-.13,0-.03,0-.06,0-.1,0-.04,0-.07,0-.11,0,0-.01,0-.02,0-.03,0-.02,0-.03,.02-.03,.04,0,.07-.02,.09-.03,.02-.01,.03-.03,.03-.06v-1.06s0-.05-.02-.06c-.02-.01-.05-.02-.09-.03-.01,0-.02-.01-.02-.04,0,0,0-.02,0-.03,.03,0,.07,0,.1,0s.07,0,.1,0h.22c.12,0,.21,.03,.27,.1,.06,.07,.09,.16,.09,.27,0,.03,0,.06-.01,.1s-.02,.07-.04,.1c-.02,.03-.04,.06-.07,.09-.03,.03-.06,.05-.1,.07l.28,.48s.04,.06,.07,.07c.03,.01,.05,.02,.07,.03,0,0,.01,.01,.01,.03,0,.01,0,.02,0,.04-.03,0-.06,0-.09,0-.04,0-.07,0-.1,0-.02,0-.05-.01-.07-.04-.02-.03-.05-.06-.07-.1l-.27-.48Zm-.03-.09c.08,0,.14-.02,.18-.06,.04-.04,.06-.11,.06-.22,0-.04,0-.08-.01-.12,0-.04-.02-.07-.04-.09-.02-.03-.04-.05-.08-.06-.03-.02-.07-.02-.12-.02h-.08v.58h.09Z"/>
        </g>
        <g>
          <path class="cls-7" d="M17.93,14.5h0s.07,0,.07,0c.12-.07,.24-.15,.36-.22h-.05c-.13,.07-.25,.15-.38,.21Z"/>
          <path class="cls-5" d="M9.71,14.26c.11,.07,.23,.15,.34,.22v-.06c-.09-.05-.19-.1-.29-.16h-.05Z"/>
          <path class="cls-3" d="M21.91,7.72c0-1.59-.48-3.07-1.29-4.31-1.12-1.58-2.81-2.72-4.85-3.06-2.62-.43-5.45,.12-7.4,2-.14,.13-.27,.27-.39,.41-1.1,1.35-1.77,3.08-1.77,4.96,0,2.72,1.39,5.12,3.5,6.53h.05c.1,.06,.2,.11,.3,.16,0,0,0,0,0,0l.09-.77s0-.08,.01-.12l.6-6.46,3.08,6.51c.05,.11,.1,.2,.13,.28v.04c.04-.08,.08-.18,.14-.29l3.08-6.51,.6,6.46s0,0,0,0l.13,.94c.13-.07,.26-.14,.38-.21h.05c2.13-1.41,3.54-3.82,3.54-6.56Zm-3.14,4.96l-.83-7.6c-.02-.24-.06-.33-.15-.33s-.14,.09-.19,.2l-3.61,7.69h0s-3.62-7.72-3.62-7.72c-.05-.11-.1-.2-.19-.2s-.12,.1-.15,.33l-.83,7.6c-.01,.13-.03,.28-.06,.43-.23-.23-.44-.48-.64-.74-1.75-2.31-2.01-5.53-.64-8.1C9.3,1.55,12.54-.32,15.6,.52c3.28,.91,5.47,3.91,5.54,7.27-.04,2.06-.87,4-2.29,5.4-.04-.18-.06-.36-.08-.51Z"/>
        </g>
        <g class="cls-6">
          <path class="cls-4" d="M17.93,14.28h0s.07,0,.07,0c.12-.07,.24-.15,.36-.22h-.05c-.13,.07-.25,.15-.38,.21Z"/>
          <path class="cls-4" d="M9.71,14.04c.11,.07,.23,.15,.34,.22v-.06c-.09-.05-.19-.1-.29-.16h-.05Z"/>
          <path class="cls-4" d="M21.91,7.51c0-1.59-.48-3.07-1.29-4.31-1.12-1.58-2.81-2.72-4.85-3.06-2.62-.43-5.45,.12-7.4,2-.14,.13-.27,.27-.39,.41-1.1,1.35-1.77,3.08-1.77,4.96,0,2.72,1.39,5.12,3.5,6.53h.05c.1,.06,.2,.11,.3,.16,0,0,0,0,0,0l.09-.77s0-.08,.01-.12l.6-6.46,3.08,6.51c.05,.11,.1,.2,.13,.28v.04c.04-.08,.08-.18,.14-.29l3.08-6.51,.6,6.46s0,0,0,0l.13,.94c.13-.07,.26-.14,.38-.21h.05c2.13-1.41,3.54-3.82,3.54-6.56Zm-3.14,4.96l-.83-7.6c-.02-.24-.06-.33-.15-.33s-.14,.09-.19,.2l-3.61,7.69h0s-3.62-7.72-3.62-7.72c-.05-.11-.1-.2-.19-.2s-.12,.1-.15,.33l-.83,7.6c-.01,.13-.03,.28-.06,.43-.23-.23-.44-.48-.64-.74-1.75-2.31-2.01-5.53-.64-8.1C9.3,1.33,12.54-.54,15.6,.31c3.28,.91,5.47,3.91,5.54,7.27-.04,2.06-.87,4-2.29,5.4-.04-.18-.06-.36-.08-.51Z"/>
        </g>
        <g>
          <path class="cls-1" d="M1.38,20.19h-.27s-.09-.04-.09-.08v-1.05s-.04-.08-.09-.08h-.16s-.09,.04-.09,.08v1.05s-.04,.08-.09,.08H.09s-.09,.04-.09,.08,.04,.08,.09,.08H.47s.01,0,.01,0c-.04,.56-.1,.9-.19,1.28-.08,.34-.13,.58-.26,.84,.21-.26,.44-.61,.55-1.05l.1-.4v3.52s.02,0,.02,0c.03-.04,.12-.21,.23-.69,.05-.22,.07-.63,.1-1.09,0-.43,0-1.44,0-1.97v-.34s.1,.32,.1,.32c.1,.31,.18,.68,.23,.89,0,.04,.02,.08,.02,.11h.02c-.02-.6-.06-1.08-.1-1.32v-.07s.08,0,.08,0c.05,0,.09-.04,.09-.08h0s-.04-.08-.09-.08Z"/>
          <path class="cls-1" d="M1.73,19.72h.47c.06,0,.1,.04,.1,.09v.33c0,.05,.05,.09,.1,.09h.15c.06,0,.1-.04,.1-.09v-.33c0-.05,.05-.09,.1-.09h.91c.06,0,.1,.04,.1,.09v.32c0,.05,.05,.09,.1,.09h.15c.06,0,.1-.04,.1-.09v-.32c0-.05,.05-.09,.1-.09h.51c.06,0,.1-.04,.1-.09s-.05-.09-.1-.09h-.51c-.06,0-.1-.04-.1-.09v-.35c0-.05-.05-.09-.1-.09h-.15c-.06,0-.1,.04-.1,.09v.35c0,.05-.05,.09-.1,.09h-.91c-.06,0-.1-.04-.1-.09v-.34c0-.05-.05-.09-.1-.09h-.15c-.06,0-.1,.04-.1,.09v.34c0,.05-.05,.09-.1,.09h-.47c-.06,0-.1,.04-.1,.09s.05,.09,.1,.09Z"/>
          <path class="cls-1" d="M4.84,23.5h-1.36c-.05,0-.09-.04-.09-.08v-.62s.04-.08,.09-.08h1.17c.05,0,.09-.04,.09-.08h0c0-.05-.04-.09-.09-.09h-.18c-.05,0-.09-.04-.09-.08v-.67s.04-.08,.09-.08h.34c.05,0,.09-.04,.09-.08v-.03s-.04-.08-.09-.08h-.34c-.05,0-.09-.04-.09-.08v-.72s.04-.08,.09-.08h.18c.05,0,.09-.04,.09-.08h0s-.04-.08-.09-.08H1.86c-.05,0-.09,.04-.09,.08h0c0,.05,.04,.09,.09,.09h.12c.05,0,.09,.04,.09,.08v.71s-.04,.08-.09,.08h-.26c-.05,0-.09,.04-.09,.08v.02s.04,.08,.09,.08h.26c.05,0,.09,.04,.09,.08v.69s-.04,.08-.09,.08h-.16c-.05,0-.09,.04-.09,.08s.04,.08,.09,.08h1.12c.05,0,.09,.04,.09,.08v.61s-.04,.08-.09,.08H1.62c-.05,0-.09,.04-.09,.08h0c0,.06,.04,.09,.09,.09h1.33c.05,0,.09,.04,.09,.08v.67s.04,.08,.09,.08h.17c.05,0,.09-.04,.09-.08v-.67s.04-.08,.09-.08h1.36c.05,0,.09-.04,.09-.08h0c0-.05-.04-.09-.09-.09Zm-1.45-2.78s.04-.08,.09-.08h.45c.05,0,.09,.04,.09,.08v.72s-.04,.08-.09,.08h-.45c-.05,0-.09-.04-.09-.08v-.72Zm0,1.07s.04-.08,.09-.08h.45c.05,0,.09,.04,.09,.08v.69s-.04,.08-.09,.08h-.45c-.05,0-.09-.04-.09-.08v-.69Zm-.36,.69s-.04,.08-.09,.08h-.43c-.05,0-.09-.04-.09-.08v-.68s.04-.08,.09-.08h.43c.05,0,.09,.04,.09,.08v.68Zm0-1.04s-.04,.08-.09,.08h-.43c-.05,0-.09-.04-.09-.08v-.72s.04-.08,.09-.08h.43c.05,0,.09,.04,.09,.08v.72Z"/>
        </g>
        <path class="cls-1" d="M12.43,23.61h-1.06c-.05,0-.09-.04-.09-.09v-.37s.04-.09,.09-.09h.88c.05,0,.09-.04,.09-.09v-1.99s-.04-.09-.09-.09h-.88c-.05,0-.09-.04-.09-.09v-.3s.04-.09,.09-.09h.62c.05,0,.09-.04,.09-.09h0c0-.06-.04-.1-.09-.1h-.62c-.05,0-.09-.04-.09-.09v-.34s-.04-.09-.09-.09h-.16c-.05,0-.09,.04-.09,.09v.34s-.04,.09-.09,.09h-.75c-.05,0-.09,.04-.09,.09h0s.04,.09,.09,.09h.75c.05,0,.09,.04,.09,.09v.31s-.04,.09-.09,.09h-.88c-.05,0-.09,.04-.09,.09v1.99s.05,.09,.1,.09h.87c.05,0,.09,.04,.09,.09v.37s-.04,.09-.09,.09h-1.07c-.05,0-.09,.04-.09,.09s.04,.09,.09,.09h1.07c.05,0,.09,.04,.09,.09v.62s.04,.09,.09,.09h.16c.05,0,.09-.04,.09-.09v-.62s.04-.09,.09-.09h1.06c.05,0,.09-.04,.09-.09s-.04-.09-.09-.09Zm-1.15-2.4s.04-.09,.09-.09h.53c.05,0,.09,.04,.09,.09v.58s-.04,.09-.09,.09h-.53c-.05,0-.09-.04-.09-.09v-.58Zm0,.93s.04-.09,.09-.09h.53c.05,0,.09,.04,.09,.09v.68s-.04,.09-.09,.09h-.53c-.05,0-.09-.04-.09-.09v-.68Zm-.35,.66s-.04,.09-.09,.09h-.53c-.05,0-.09-.04-.09-.09v-.65s.04-.09,.09-.09h.53c.05,0,.09,.04,.09,.09v.65Zm0-1.01s-.04,.09-.09,.09h-.53c-.05,0-.09-.04-.09-.09v-.58s.04-.09,.09-.09h.53c.05,0,.09,.04,.09,.09v.58Z"/>
        <path class="cls-1" d="M9.15,20.93h.14c.05,0,.09-.04,.09-.08l.02-1.52h-.03s-.11,.08-.21,.31c-.04,.1-.08,.28-.1,.51,0,0,0,0,0,0,0,.33,0,.56,0,.69,0,.05,.04,.08,.09,.08Z"/>
        <path class="cls-1" d="M7.94,20.97h.14c.05,0,.09-.04,.09-.08,0-.13,0-.37,0-.69,0,0,0,0,0,0-.02-.22-.06-.4-.1-.5-.1-.23-.19-.3-.21-.31h-.02s.02,1.51,.02,1.51c0,.05,.04,.08,.09,.08Z"/>
        <path class="cls-1" d="M9.92,20.29c.04-.1,.08-.28,.1-.51,0,0,0,0,0,0,0-.09,0-.18,0-.26v-.06h2.06c.05,0,.09,.04,.09,.09v1.04s.02,0,.02,0c.02-.02,.11-.09,.21-.31,.04-.1,.08-.28,.1-.51,0,0,0,0,0,0,0-.24,0-.43,0-.56,0-.05-.04-.08-.09-.08h-.14c-.05,0-.09,.04-.09,.08v.03s-.04,.08-.09,.08h-2.07v-.06c0-.05,0-.1,0-.13h-.24c-.05,0-.09,.04-.09,.08l-.02,1.39h.03s.11-.08,.21-.31Z"/>
        <path class="cls-1" d="M9.16,23.14v-.16c0-.62,0-1.4,0-1.49v-.06h.21c.05,0,.09-.04,.09-.09v-.03s-.04-.09-.09-.09h-.5c-.05,0-.09-.04-.09-.09v-1.98s-.04-.09-.09-.09h-.14c-.05,0-.09,.04-.09,.09v1.99s-.04,.09-.09,.09h-.54c-.05,0-.09,.04-.09,.09h0c0,.06,.04,.1,.09,.1h.24c.05,0,.09,.04,.09,.09h0s0,0,0,0c0,.01,0,.03,0,.03,0,.3-.03,1.07-.11,1.64-.07,.48-.36,1.03-.49,1.26h.01c.07-.05,.26-.26,.45-.52,.28-.39,.37-.92,.39-2.4,0,0,0,0,0,0,0-.03,0-.04,0-.04v-.06s.37,0,.37,0c.05,0,.09,.04,.09,.09v2.03s0,.04-.02,.06l-.05,.05s-.05,.07-.05,.12v.29c0,.08,.11,.12,.17,.05,.08-.1,.31-.48,.31-.48,.11-.19,.15-.32,.19-.42,.14-.32,.15-.55,.15-.6l-.39,.52Z"/>
        <path class="cls-1" d="M19.63,21.38v-.9c0-.06,.04-.11,.11-.11h.2c.06,0,.11-.05,.11-.11s-.05-.11-.11-.11h-1.29c-.06,0-.11-.05-.11-.11v-1.03c0-.06-.05-.11-.11-.11h-.16c-.06,0-.11,.05-.11,.11v1.05c0,.06-.05,.11-.11,.11h-1.17c-.06,0-.11,.05-.11,.11h0c0,.06,.05,.11,.11,.11h.12c.06,0,.11,.05,.11,.11v.79c0,2-.44,2.94-.52,3.18l.02,.02c.11-.17,.54-.9,.69-1.37,.17-.53,.2-2.18,.21-2.67v-.06h.54c.06,0,.11,.05,.11,.11v3.96c0,.06,.05,.11,.11,.11h.16c.06,0,.11-.05,.11-.11v-3.98c0-.06,.05-.11,.11-.11h.57v.06c0,.51,.04,2.21,.21,2.73,.15,.47,.58,1.2,.69,1.37l.02-.02c-.08-.24-.51-1.11-.51-3.13Z"/>
        <path class="cls-1" d="M16.18,21.52h-.15c-.06,0-.12,.04-.12,.1,0,.31-.03,1.04-.1,1.62-.07,.48-.34,1.08-.4,1.31h.01c.07-.05,.28-.25,.45-.53,.25-.43,.36-.84,.42-2.39,0-.06-.05-.11-.11-.11Z"/>
        <path class="cls-1" d="M15.85,19.81s0,0,.01,0c.11,.06,.21,.13,.32,.19,.08,.05,.18,0,.18-.09v-.22s-.02-.07-.05-.09l-.97-.59-.02,.05s.02,.16,.17,.39c.06,.09,.2,.22,.37,.36Z"/>
        <path class="cls-1" d="M16.33,20.67l-1.04-.62-.02,.06s.02,.16,.17,.39c.06,.09,.2,.22,.37,.36,0,0,0,0,.01,0,.13,.08,.26,.16,.38,.23,.08,.04,.17,0,.17-.09v-.23s-.02-.07-.05-.09Z"/>
        <path class="cls-1" d="M25.01,19.31h-1.89c-.08,0-.14,.06-.14,.14v4.73c0,.07,.06,.14,.14,.14h1.62s.27,0,.27,0c.08,0,.14-.06,.14-.14v-4.73c0-.08-.06-.14-.14-.14Zm-.76,.39c0-.07,.06-.14,.14-.14h.23c.08,0,.14,.06,.14,.14v1.94c0,.07-.06,.14-.14,.14h-.23c-.08,0-.14-.06-.14-.14v-1.94Zm-.37,4.23c0,.07-.06,.14-.14,.14h-.27c-.08,0-.14-.06-.14-.14v-1.8c0-.07,.06-.14,.14-.14h.27c.08,0,.14,.06,.14,.14v1.8Zm0-2.29c0,.07-.06,.14-.14,.14h-.27c-.08,0-.14-.06-.14-.14v-1.93c0-.07,.06-.14,.14-.14h.27c.08,0,.14,.06,.14,.14v1.93Zm.89,2.28c0,.07-.06,.14-.14,.14h-.24c-.08,0-.14-.06-.14-.14v-1.8c0-.07,.06-.14,.14-.14h.24c.08,0,.14,.06,.14,.14v1.8Z"/>
        <path class="cls-1" d="M27.08,22.75s.04-.06,.04-.09v-.16c0-.12-.16-.18-.25-.09-.09,.09-.2,.2-.33,.33-.32,.3-.98,.77-1.15,.88h0c.1,0,.36-.02,.88-.27,.38-.18,.54-.31,.81-.6Z"/>
        <path class="cls-1" d="M25.93,21.68c.09,.19,.19,.34,.26,.41,.17,.17,.28,.19,.3,.19l.03-.02-.47-1.29c-.02-.06-.08-.09-.14-.09h-.08c-.09,0-.16,.09-.13,.18,.05,.18,.12,.37,.22,.62,0,0,0,0,0,.01Z"/>
        <path class="cls-1" d="M27.66,19.72h-1.74s.01-.08,.01-.08c.04-.22,.06-.4,.07-.52,0-.08-.05-.15-.14-.15h-.13c-.08,0-.15,.05-.15,.13,0,.19-.01,.48-.03,.73-.03,.33-.19,.94-.24,1.17h.04c.06-.09,.34-.47,.5-1.01v-.04h1.44c.08,0,.14,.06,.14,.14v3.22s0,0,0,.01c-.05,.6-.26,.94-.64,.94h-.71c-.08,0-.15,.05-.15,.13,0,.07,.06,.14,.14,.14h.71c.27,0,.52-.12,.71-.35,.19-.23,.29-.54,.29-.86v-3.45c0-.07-.06-.14-.14-.14Z"/>
      </g>
    </g>
  </g>
</svg>