<?xml version="1.0" encoding="UTF-8"?>
<svg id="_圖層_2" data-name="圖層 2" xmlns="http://www.w3.org/2000/svg" viewBox="0 0 103.03 1.48">
  <defs>
    <style>
      .cls-1 {
        fill: #fff;
      }
    </style>
  </defs>
  <g id="_圖層_1-2" data-name="圖層 1">
    <path class="cls-1" d="M.01,.25c0-.08,0-.16-.01-.24,.02,0,.04,0,.07,0s.05,0,.09,0c.04,0,.09,0,.14,0,.05,0,.09,0,.14,0,.09,0,.16,0,.21,.02,.05,.01,.09,.03,.12,.06,.04,.03,.07,.07,.09,.11s.03,.09,.03,.14c0,.07-.01,.13-.04,.18-.02,.05-.06,.09-.1,.12-.04,.03-.1,.05-.16,.07s-.12,.02-.2,.02h-.1c0,.09,0,.18,0,.28,0,.09,0,.18,.01,.27-.02,0-.05,0-.07,0H.07s-.05,0-.07,0c0-.08,0-.15,.01-.23,0-.08,0-.17,0-.27v-.25c0-.1,0-.19,0-.27Zm.55,0s-.03-.06-.04-.08c-.02-.02-.04-.03-.06-.04-.02,0-.05-.01-.08-.01h-.06s-.01,0-.02,0c0,.09,0,.18,0,.26,0,.09,0,.17,0,.26,.03,0,.06,0,.1,0,.03,0,.06-.02,.09-.04s.05-.05,.07-.08c.02-.04,.03-.08,.03-.14,0-.05,0-.09-.02-.12Z"/>
    <path class="cls-1" d="M6.73,.25c0-.08,0-.16-.01-.24,.02,0,.05,0,.07,0,.03,0,.05,0,.09,0s.06,0,.09,0,.05,0,.07,0c0,.08,0,.16-.01,.24,0,.08,0,.17,0,.27v.25c0,.07,0,.14,0,.2,0,.07,0,.12,0,.17,.07,0,.14,0,.22,0,.07,0,.15,0,.22-.02,0,.01,0,.03,0,.04,0,.01,0,.03,0,.05s0,.03,0,.05c0,.01,0,.02,0,.03-.03,0-.08,0-.13,0-.05,0-.12,0-.21,0h-.3s-.05,0-.06,0c-.01,0-.03,0-.04,0,0-.08,0-.15,.01-.23,0-.08,0-.17,0-.27v-.25c0-.1,0-.19,0-.27Z"/>
    <path class="cls-1" d="M14.34,1.28s-.06,0-.09,0h-.16s-.05,0-.08,0c-.02-.06-.04-.12-.06-.18s-.04-.13-.07-.19c-.04,0-.08,0-.12,0-.04,0-.08,0-.12,0-.03,0-.07,0-.1,0-.03,0-.07,0-.1,0-.03,.06-.05,.13-.07,.19-.02,.06-.04,.12-.06,.18-.02,0-.03,0-.04,0h-.09s-.03,0-.05,0c.02-.03,.04-.08,.06-.13,.03-.06,.05-.12,.08-.19,.03-.07,.06-.15,.1-.23,.03-.08,.07-.16,.1-.25,.03-.08,.07-.17,.1-.25,.03-.08,.06-.16,.09-.23,.01,0,.02,0,.04,0s.02,0,.04,0,.02,0,.04,0c.01,0,.02,0,.04,0,.04,.1,.08,.22,.13,.34,.05,.12,.09,.24,.14,.35,.05,.11,.09,.22,.14,.33s.09,.19,.12,.26Zm-.67-.92c-.03,.07-.06,.15-.09,.22s-.06,.15-.09,.22h.35c-.03-.07-.06-.15-.08-.22-.03-.07-.06-.14-.09-.22Z"/>
    <path class="cls-1" d="M20.24,.21s0-.05,0-.06c-.02,0-.04,0-.07,0-.03,0-.06,0-.09,0-.03,0-.06,0-.1,0-.03,0-.06,0-.09,.01,0-.01,0-.03,0-.04,0-.01,0-.03,0-.04s0-.03,0-.04c0-.01,0-.03,0-.04,.04,0,.08,0,.12,0,.03,0,.07,0,.11,0,.04,0,.08,0,.12,0,.04,0,.09,0,.15,0s.11,0,.15,0c.04,0,.08,0,.12,0,.04,0,.07,0,.1,0,.03,0,.07,0,.11,0,0,.01,0,.03,0,.04,0,.01,0,.03,0,.04s0,.03,0,.04c0,.01,0,.03,0,.04-.03,0-.05,0-.09-.01-.03,0-.06,0-.09,0-.03,0-.06,0-.09,0-.03,0-.05,0-.07,0,0,0,0,.01,0,.03,0,.01,0,.02,0,.04V.77c0,.1,0,.19,0,.27,0,.08,0,.16,.01,.23-.02,0-.05,0-.07,0h-.17s-.05,0-.07,0c0-.08,0-.15,.01-.23s0-.17,0-.27V.31s0-.07,0-.1Z"/>
    <path class="cls-1" d="M26.88,.25c0-.08,0-.16-.01-.24,.02,0,.05,0,.07,0,.03,0,.05,0,.09,0s.06,0,.09,0,.05,0,.07,0c0,.08,0,.16-.01,.24,0,.08,0,.17,0,.27v.25c0,.1,0,.19,0,.27,0,.08,0,.16,.01,.23-.02,0-.05,0-.07,0h-.17s-.05,0-.07,0c0-.08,0-.15,.01-.23,0-.08,0-.17,0-.27v-.25c0-.1,0-.19,0-.27Z"/>
    <path class="cls-1" d="M33.11,.16c0-.06,0-.11,0-.15,.04,0,.06,0,.09,0s.05,0,.09,0c.14,.15,.27,.29,.41,.44,.14,.14,.27,.29,.42,.44v-.34c0-.06,0-.12,0-.18,0-.06,0-.11,0-.16,0-.05,0-.09,0-.13s0-.06,0-.07c.04,0,.06,0,.09,0s.05,0,.09,0c0,.11-.01,.21-.02,.3s0,.18,0,.26c0,.08,0,.16,0,.24,0,.08,0,.16,0,.25v.22s-.05,0-.08,0-.05,0-.07,0c-.26-.29-.54-.59-.83-.89,0,.04,0,.07,0,.11,0,.04,0,.07,0,.11v.21c0,.07,0,.14,0,.19,0,.05,0,.1,0,.13,0,.04,0,.06,0,.09,0,.02,0,.04,0,.05-.02,0-.03,0-.05,0h-.04s-.06,0-.09,0c0,0,0-.04,0-.11s0-.13,.01-.22c0-.09,0-.18,.01-.28,0-.1,0-.2,0-.29,0-.08,0-.16,0-.21Z"/>
    <path class="cls-1" d="M40.09,1.26c-.07-.02-.13-.04-.18-.08-.05-.04-.09-.09-.12-.15s-.04-.13-.04-.22c0-.05,0-.09,0-.13,0-.04,0-.07,0-.11s0-.07,0-.1c0-.03,0-.06,0-.1,0-.1,0-.18,0-.24,0-.06,0-.11,0-.14,.03,0,.05,0,.08,0,.03,0,.05,0,.08,0s.05,0,.08,0c.03,0,.05,0,.08,0-.01,.12-.02,.23-.02,.33,0,.1,0,.21,0,.31,0,.11,0,.2,.02,.27s.04,.12,.07,.16c.03,.04,.07,.06,.12,.07,.05,.01,.1,.02,.16,.02,.08,0,.14-.02,.18-.06,.04-.04,.08-.09,.1-.15,.02-.06,.04-.13,.04-.21,0-.08,0-.16,0-.25s0-.17,0-.25c0-.08,0-.17-.01-.25,.02,0,.03,0,.05,0s.03,0,.05,0c.02,0,.03,0,.05,0s.03,0,.05,0c0,.03,0,.06,0,.11,0,.05,0,.1,0,.16,0,.06,0,.13,0,.2s0,.15,0,.23c0,.21-.05,.37-.14,.46s-.23,.14-.42,.14c-.08,0-.16,0-.23-.02Z"/>
    <path class="cls-1" d="M46.39,.87c-.01,.14-.02,.28-.03,.41-.02,0-.03,0-.05,0h-.09s-.03,0-.04,0c.04-.21,.08-.42,.11-.63s.06-.42,.09-.64c.01,0,.03,0,.04,0,.01,0,.03,0,.04,0,.01,0,.02,0,.04,0s.03,0,.04,0c.03,.07,.07,.15,.11,.22,.04,.08,.07,.15,.11,.23s.07,.15,.11,.22c.04,.07,.07,.14,.11,.21,.08-.14,.15-.28,.23-.43,.08-.15,.15-.3,.22-.45,.03,0,.06,0,.08,0,.02,0,.05,0,.08,0,.01,.11,.03,.22,.04,.34,.01,.12,.03,.24,.04,.36,.01,.12,.03,.22,.04,.33,.01,.1,.03,.18,.04,.24-.03,0-.05,0-.08,0h-.16s-.05,0-.08,0c0-.13-.02-.26-.03-.41-.01-.15-.03-.29-.04-.44h0c-.07,.14-.14,.29-.21,.43-.07,.14-.14,.28-.21,.42,0,0-.01,0-.02,0,0,0-.01,0-.02,0s-.01,0-.02,0c0,0-.01,0-.02,0-.07-.14-.14-.28-.2-.41-.07-.14-.14-.28-.21-.42h0c-.02,.14-.04,.28-.05,.42Z"/>
    <path class="cls-1" d="M55.95,.9v.08c0,.1,0,.19,0,.27,0,.08,0,.16,.01,.23-.02,0-.05,0-.07,0h-.17s-.05,0-.07,0c0-.08,0-.15,.01-.23,0-.08,0-.17,0-.27v-.25c0-.1,0-.19,0-.27,0-.08,0-.16-.01-.24,.02,0,.05,0,.07,0,.03,0,.05,0,.09,0,.03,0,.07,0,.12,0,.04,0,.1,0,.16,0,.05,0,.09,0,.12,0,.03,0,.06,0,.09,.01,.02,0,.05,.01,.06,.02s.04,.02,.05,.03c.04,.03,.07,.06,.09,.1,.02,.04,.03,.09,.03,.14,0,.09-.03,.16-.08,.22-.05,.06-.12,.1-.22,.12,.06,.1,.13,.21,.2,.31s.14,.21,.21,.31c-.03,0-.06,0-.09,0h-.17s-.06,0-.09,0l-.34-.58h-.02Zm.28-.47s-.03-.06-.05-.07c-.02-.02-.05-.03-.09-.03-.04,0-.08,0-.13,0,0,.17,0,.33,0,.5,0,0,.01,0,.02,0,0,0,.01,0,.02,0,.08,0,.15-.02,.19-.07,.04-.04,.07-.11,.07-.2,0-.05,0-.1-.02-.13Z"/>
    <path class="cls-1" d="M61.8,.46c0-.08,0-.16-.01-.24,.02,0,.05,0,.07,0,.03,0,.05,0,.09,0s.06,0,.09,0,.05,0,.07,0c0,.08,0,.16-.01,.24,0,.08,0,.17,0,.27v.25c0,.1,0,.19,0,.27,0,.08,0,.16,.01,.23-.02,0-.05,0-.07,0h-.17s-.05,0-.07,0c0-.08,0-.15,.01-.23,0-.08,0-.17,0-.27v-.25c0-.1,0-.19,0-.27Z"/>
    <path class="cls-1" d="M68.01,.67c.06-.16,.12-.31,.17-.45,.03,0,.06,0,.08,0s.05,0,.08,0c-.03,.07-.07,.16-.11,.26s-.09,.21-.14,.32-.1,.23-.14,.35c-.05,.12-.09,.23-.13,.33-.03,0-.05,0-.08,0s-.06,0-.08,0c-.02-.05-.04-.11-.07-.18-.03-.07-.06-.14-.09-.22-.03-.08-.06-.16-.1-.24-.03-.08-.07-.16-.1-.24s-.06-.15-.09-.21c-.03-.07-.05-.12-.07-.17,.03,0,.06,0,.09,0s.06,0,.08,0,.06,0,.08,0,.06,0,.08,0c.02,.07,.05,.14,.07,.22,.03,.08,.06,.15,.08,.23,.03,.08,.06,.16,.09,.24,.03,.08,.06,.16,.09,.24,.07-.16,.13-.31,.19-.47Z"/>
    <path class="cls-1" d="M73.18,.46c0-.08,0-.16,0-.24,.06,0,.11,0,.17,0,.06,0,.11,0,.17,0,.09,0,.18,0,.25,0s.12,0,.15,0c0,.02,0,.05,0,.08,0,.02,0,.03,0,.05,0,.01,0,.02,0,.04-.04,0-.08,0-.12,0-.04,0-.09,0-.13,0-.04,0-.08,0-.11,0-.03,0-.06,0-.07,0,0,.07,0,.13,0,.2s0,.13,0,.2c.08,0,.16,0,.22,0,.07,0,.14,0,.21,0,0,.02,0,.04,0,.05,0,.01,0,.02,0,.04,0,0,0,.02,0,.03,0,.01,0,.03,0,.05-.14-.01-.29-.02-.43-.02,0,.04,0,.08,0,.12s0,.08,0,.12c0,.08,0,.16,0,.23,.07,0,.14,0,.22,0s.15,0,.22-.02c0,.01,0,.03,0,.04,0,.01,0,.03,0,.05s0,.03,0,.05c0,.01,0,.02,0,.03-.03,0-.08,0-.13,0-.05,0-.12,0-.21,0h-.3s-.05,0-.06,0c-.01,0-.03,0-.04,0,0-.08,0-.15,0-.23s0-.17,0-.27v-.25c0-.1,0-.19,0-.27Z"/>
    <path class="cls-1" d="M79.13,.9v.08c0,.1,0,.19,0,.27,0,.08,0,.16,.01,.23-.02,0-.05,0-.07,0h-.17s-.05,0-.07,0c0-.08,0-.15,.01-.23,0-.08,0-.17,0-.27v-.25c0-.1,0-.19,0-.27,0-.08,0-.16-.01-.24,.02,0,.05,0,.07,0,.03,0,.05,0,.09,0,.03,0,.07,0,.12,0,.04,0,.1,0,.16,0,.05,0,.09,0,.12,0,.03,0,.06,0,.09,.01,.02,0,.05,.01,.06,.02s.04,.02,.05,.03c.04,.03,.07,.06,.09,.1,.02,.04,.03,.09,.03,.14,0,.09-.03,.16-.08,.22-.05,.06-.12,.1-.22,.12,.06,.1,.13,.21,.2,.31s.14,.21,.21,.31c-.03,0-.06,0-.09,0h-.17s-.06,0-.09,0l-.34-.58h-.02Zm.28-.47s-.03-.06-.05-.07c-.02-.02-.05-.03-.09-.03-.04,0-.08,0-.13,0,0,.17,0,.33,0,.5,0,0,.01,0,.02,0,0,0,.01,0,.02,0,.08,0,.15-.02,.19-.07,.04-.04,.07-.11,.07-.2,0-.05,0-.1-.02-.13Z"/>
    <path class="cls-1" d="M84.69,.46c0-.08,0-.16-.01-.24,.02,0,.05,0,.07,0,.03,0,.05,0,.09,0,.05,0,.11,0,.17,0,.06,0,.12,0,.17,0s.11,0,.16,.02,.09,.03,.12,.05c.03,.02,.06,.05,.08,.09,.02,.04,.03,.08,.03,.13s-.01,.09-.03,.13-.05,.07-.08,.09c-.03,.02-.06,.04-.1,.06-.04,.01-.07,.02-.1,.03h0s.06,.01,.1,.02c.04,.01,.08,.03,.11,.05,.04,.02,.07,.06,.09,.09,.02,.04,.04,.09,.04,.14,0,.07-.01,.12-.04,.17-.02,.05-.06,.08-.1,.11-.04,.03-.09,.05-.14,.06s-.11,.02-.17,.02c-.05,0-.1,0-.14,0-.04,0-.09,0-.14,0h-.11s-.06,0-.09,0c0-.08,0-.15,.01-.23,0-.08,0-.17,0-.27v-.25c0-.1,0-.19,0-.27Zm.58,0s-.02-.05-.04-.07c-.02-.02-.04-.03-.06-.05s-.06-.02-.1-.02c-.03,0-.05,0-.06,0-.01,0-.02,0-.04,0,0,.05,0,.09,0,.14,0,.05,0,.09,0,.12s0,.06,0,.09c0,.03,0,.06,0,.09h.09s.05,0,.08-.01,.05-.02,.07-.04c.02-.02,.04-.04,.05-.07s.02-.06,.02-.1c0-.03,0-.06-.01-.08Zm-.04,.49s-.1-.06-.17-.06c-.02,0-.03,0-.05,0-.01,0-.02,0-.04,0,0,.03,0,.05,0,.08,0,.03,0,.06,0,.1,0,.03,0,.06,0,.09,0,.03,0,.06,0,.09s0,.06,0,.08c0,.02,0,.04,0,.06,.02,0,.03,0,.05,0,.02,0,.03,0,.06,0,.03,0,.05,0,.08-.02,.03-.01,.05-.03,.07-.05,.02-.02,.03-.05,.05-.08s.02-.07,.02-.11c0-.09-.02-.15-.06-.19Z"/>
    <path class="cls-1" d="M91.53,1.48s-.06,0-.09,0h-.16s-.05,0-.08,0c-.02-.06-.04-.12-.06-.18s-.04-.13-.07-.19c-.04,0-.08,0-.12,0-.04,0-.08,0-.12,0-.03,0-.07,0-.1,0-.03,0-.07,0-.1,0-.03,.06-.05,.13-.07,.19-.02,.06-.04,.12-.06,.18-.02,0-.03,0-.04,0h-.09s-.03,0-.05,0c.02-.03,.04-.08,.06-.13,.03-.06,.05-.12,.08-.19,.03-.07,.06-.15,.1-.23,.03-.08,.07-.16,.1-.25,.03-.08,.07-.17,.1-.25,.03-.08,.06-.16,.09-.23,.01,0,.02,0,.04,0s.02,0,.04,0,.02,0,.04,0c.01,0,.02,0,.04,0,.04,.1,.08,.22,.13,.34,.05,.12,.09,.24,.14,.35,.05,.11,.09,.22,.14,.33s.09,.19,.12,.26Zm-.67-.92c-.03,.07-.06,.15-.09,.22s-.06,.15-.09,.22h.35c-.03-.07-.06-.15-.08-.22-.03-.07-.06-.14-.09-.22Z"/>
    <path class="cls-1" d="M96.16,.37c0-.06,0-.11,0-.15,.04,0,.06,0,.09,0s.05,0,.09,0c.14,.15,.27,.29,.41,.44,.14,.14,.27,.29,.42,.44v-.34c0-.06,0-.12,0-.18,0-.06,0-.11,0-.16,0-.05,0-.09,0-.13s0-.06,0-.07c.04,0,.06,0,.09,0s.05,0,.09,0c0,.11-.01,.21-.02,.3s0,.18,0,.26c0,.08,0,.16,0,.24,0,.08,0,.16,0,.25v.22s-.05,0-.08,0-.05,0-.07,0c-.26-.29-.54-.59-.83-.89,0,.04,0,.07,0,.11,0,.04,0,.07,0,.11v.21c0,.07,0,.14,0,.19,0,.05,0,.1,0,.13,0,.04,0,.06,0,.09,0,.02,0,.04,0,.05-.02,0-.03,0-.05,0h-.04s-.06,0-.09,0c0,0,0-.04,0-.11s0-.13,.01-.22c0-.09,0-.18,.01-.28,0-.1,0-.2,0-.29,0-.08,0-.16,0-.21Z"/>
    <path class="cls-1" d="M102.3,1.26c0,.1,0,.17,.01,.23-.02,0-.05,0-.07,0h-.17s-.05,0-.07,0c0-.08,0-.15,.01-.23,0-.08,0-.17,0-.27v-.25c0-.1,0-.19,0-.27,0-.08,0-.16-.01-.24,.02,0,.04,0,.07,0s.05,0,.09,0,.06,0,.09,0,.05,0,.07,0c0,.04-.01,.09-.01,.17s0,.16,0,.25v.18s.09-.1,.14-.16c.05-.06,.1-.12,.14-.17,.05-.06,.09-.11,.12-.15,.04-.05,.06-.08,.08-.1,.02,0,.04,0,.05,0,.02,0,.04,0,.05,0s.04,0,.05,0,.04,0,.06,0c-.02,.02-.05,.05-.1,.1-.04,.05-.09,.1-.14,.15s-.1,.11-.14,.16c-.05,.05-.08,.09-.11,.12,.04,.06,.09,.13,.14,.2,.05,.07,.1,.14,.15,.21,.05,.07,.09,.13,.14,.19,.04,.06,.08,.1,.1,.13-.04,0-.07,0-.1,0h-.17s-.05,0-.08,0c-.06-.09-.13-.19-.19-.28-.06-.1-.13-.19-.19-.29h0c0,.13,0,.25,0,.34Z"/>
  </g>
</svg>