<?xml version="1.0" encoding="UTF-8"?>
<svg xmlns="http://www.w3.org/2000/svg" viewBox="0 0 74.38 1.07">
  <defs>
    <style>
      .cls-1 {
        isolation: isolate;
      }

      .cls-2 {
        mix-blend-mode: lighten;
        opacity: .49;
      }

      .cls-3 {
        fill: #2ca0da;
      }
    </style>
  </defs>
  <g class="cls-1">
    <g id="_圖層_2" data-name="圖層 2">
      <g id="_圖層_1-2" data-name="圖層 1">
        <g class="cls-2">
          <path class="cls-3" d="M0,.18c0-.06,0-.11,0-.17,.02,0,.03,0,.05,0s.04,0,.06,0c.03,0,.07,0,.1,0,.03,0,.07,0,.1,0,.06,0,.12,0,.15,.01,.04,0,.07,.02,.09,.04,.03,.02,.05,.05,.06,.08s.02,.06,.02,.1c0,.05,0,.09-.03,.13-.02,.04-.04,.07-.07,.09-.03,.02-.07,.04-.11,.05s-.09,.02-.14,.02h-.07c0,.07,0,.13,0,.2,0,.07,0,.13,0,.2-.02,0-.03,0-.05,0H.05s-.04,0-.05,0c0-.05,0-.11,0-.17,0-.06,0-.12,0-.2v-.18c0-.07,0-.14,0-.2Zm.4,0s-.02-.04-.03-.06c-.01-.01-.03-.02-.05-.03-.02,0-.04,0-.06,0h-.05s0,0-.01,0c0,.06,0,.13,0,.19,0,.06,0,.12,0,.19,.02,0,.05,0,.07,0,.02,0,.05-.01,.07-.03s.04-.03,.05-.06c.01-.03,.02-.06,.02-.1,0-.03,0-.06-.01-.09Z"/>
          <path class="cls-3" d="M4.86,.18c0-.06,0-.11,0-.17,.02,0,.03,0,.05,0,.02,0,.04,0,.06,0s.04,0,.06,0,.04,0,.05,0c0,.06,0,.12,0,.17,0,.06,0,.12,0,.2v.18c0,.05,0,.1,0,.15,0,.05,0,.09,0,.12,.05,0,.1,0,.16,0,.05,0,.1,0,.16-.01,0,0,0,.02,0,.03,0,0,0,.02,0,.03s0,.03,0,.03c0,0,0,.01,0,.02-.02,0-.06,0-.09,0-.04,0-.09,0-.15,0h-.22s-.04,0-.05,0c-.01,0-.02,0-.03,0,0-.05,0-.11,0-.17,0-.06,0-.12,0-.2v-.18c0-.07,0-.14,0-.2Z"/>
          <path class="cls-3" d="M10.35,.93s-.04,0-.06,0h-.12s-.04,0-.06,0c-.01-.04-.03-.09-.05-.13s-.03-.09-.05-.14c-.03,0-.06,0-.09,0-.03,0-.06,0-.09,0-.02,0-.05,0-.07,0-.02,0-.05,0-.07,0-.02,.05-.04,.09-.05,.14-.02,.05-.03,.09-.04,.13-.01,0-.02,0-.03,0h-.07s-.02,0-.04,0c.01-.02,.03-.05,.04-.1,.02-.04,.04-.09,.06-.14,.02-.05,.05-.11,.07-.17,.03-.06,.05-.12,.08-.18,.03-.06,.05-.12,.07-.18,.02-.06,.05-.11,.07-.16,0,0,.02,0,.03,0s.02,0,.03,0,.02,0,.03,0c0,0,.02,0,.03,0,.03,.08,.06,.16,.09,.24,.03,.09,.07,.17,.1,.25,.03,.08,.07,.16,.1,.24s.06,.14,.09,.19Zm-.49-.66c-.02,.05-.05,.11-.07,.16s-.04,.1-.06,.16h.25c-.02-.05-.04-.11-.06-.16-.02-.05-.04-.1-.06-.16Z"/>
          <path class="cls-3" d="M14.61,.15s0-.04,0-.05c-.01,0-.03,0-.05,0-.02,0-.04,0-.06,0-.02,0-.05,0-.07,0-.02,0-.05,0-.07,0,0,0,0-.02,0-.03,0,0,0-.02,0-.03s0-.02,0-.03c0,0,0-.02,0-.03,.03,0,.06,0,.08,0,.03,0,.05,0,.08,0,.03,0,.05,0,.09,0,.03,0,.07,0,.11,0s.08,0,.11,0c.03,0,.06,0,.08,0,.03,0,.05,0,.07,0,.02,0,.05,0,.08,0,0,0,0,.02,0,.03,0,0,0,.02,0,.03s0,.02,0,.03c0,0,0,.02,0,.03-.02,0-.04,0-.06,0-.02,0-.05,0-.07,0-.02,0-.04,0-.06,0-.02,0-.04,0-.05,0,0,0,0,.01,0,.02,0,0,0,.02,0,.03v.4c0,.07,0,.14,0,.2,0,.06,0,.11,0,.17-.02,0-.03,0-.05,0h-.12s-.04,0-.05,0c0-.05,0-.11,0-.17s0-.12,0-.2V.23s0-.05,0-.07Z"/>
          <path class="cls-3" d="M19.41,.18c0-.06,0-.11,0-.17,.02,0,.03,0,.05,0,.02,0,.04,0,.06,0s.04,0,.06,0,.04,0,.05,0c0,.06,0,.12,0,.17,0,.06,0,.12,0,.2v.18c0,.07,0,.14,0,.2,0,.06,0,.11,0,.17-.02,0-.03,0-.05,0h-.12s-.04,0-.05,0c0-.05,0-.11,0-.17,0-.06,0-.12,0-.2v-.18c0-.07,0-.14,0-.2Z"/>
          <path class="cls-3" d="M23.91,.12s0-.08,0-.11c.03,0,.05,0,.06,0s.04,0,.06,0c.1,.11,.2,.21,.3,.32,.1,.1,.2,.21,.3,.32v-.24s0-.09,0-.13c0-.04,0-.08,0-.12,0-.04,0-.07,0-.09s0-.04,0-.05c.03,0,.05,0,.06,0s.04,0,.06,0c0,.08,0,.15-.01,.22s0,.13,0,.18c0,.06,0,.11,0,.17,0,.06,0,.12,0,.18v.16s-.04,0-.06,0-.04,0-.05,0c-.19-.21-.39-.43-.6-.64,0,.03,0,.05,0,.08,0,.03,0,.05,0,.08v.15c0,.05,0,.1,0,.14,0,.04,0,.07,0,.09,0,.03,0,.05,0,.06,0,.02,0,.03,0,.04-.01,0-.02,0-.03,0h-.03s-.04,0-.06,0c0,0,0-.03,0-.08s0-.1,0-.16c0-.06,0-.13,0-.2,0-.07,0-.14,0-.21,0-.06,0-.11,0-.15Z"/>
          <path class="cls-3" d="M28.94,.91c-.05-.01-.1-.03-.13-.06-.04-.03-.07-.06-.09-.11s-.03-.1-.03-.16c0-.04,0-.07,0-.1,0-.03,0-.05,0-.08s0-.05,0-.07c0-.02,0-.05,0-.07,0-.07,0-.13,0-.17,0-.04,0-.08,0-.1,.02,0,.04,0,.06,0,.02,0,.04,0,.06,0s.04,0,.06,0c.02,0,.04,0,.06,0,0,.09-.01,.17-.02,.24,0,.07,0,.15,0,.23,0,.08,0,.15,.02,.2s.03,.09,.05,.12c.02,.03,.05,.05,.09,.05,.03,0,.07,.01,.12,.01,.05,0,.1-.01,.13-.04,.03-.03,.05-.06,.07-.11,.02-.04,.03-.1,.03-.15,0-.06,0-.12,0-.18s0-.12,0-.18c0-.06,0-.12,0-.18,.01,0,.03,0,.04,0s.02,0,.03,0c.01,0,.02,0,.03,0s.02,0,.03,0c0,.02,0,.05,0,.08,0,.03,0,.07,0,.11,0,.04,0,.09,0,.14s0,.11,0,.16c0,.15-.03,.26-.1,.33s-.17,.1-.3,.1c-.06,0-.11,0-.16-.02Z"/>
          <path class="cls-3" d="M33.49,.62c0,.1-.01,.2-.02,.3-.01,0-.02,0-.03,0h-.06s-.02,0-.03,0c.03-.15,.06-.3,.08-.45s.04-.3,.06-.46c.01,0,.02,0,.03,0,0,0,.02,0,.03,0,0,0,.02,0,.03,0s.02,0,.03,0c.02,.05,.05,.11,.08,.16,.03,.05,.05,.11,.08,.16s.05,.11,.08,.16c.03,.05,.05,.1,.08,.15,.05-.1,.11-.2,.16-.31,.05-.11,.11-.22,.16-.32,.02,0,.04,0,.06,0,.02,0,.03,0,.06,0,0,.08,.02,.16,.03,.25,.01,.09,.02,.17,.03,.26,.01,.08,.02,.16,.03,.23,.01,.07,.02,.13,.03,.18-.02,0-.04,0-.06,0h-.11s-.04,0-.06,0c0-.09-.01-.19-.02-.3-.01-.11-.02-.21-.03-.32h0c-.05,.1-.1,.21-.15,.31-.05,.1-.1,.2-.15,.3,0,0,0,0-.01,0,0,0,0,0-.01,0s0,0-.01,0c0,0,0,0-.01,0-.05-.1-.1-.2-.15-.3-.05-.1-.1-.2-.15-.3h0c-.01,.1-.03,.2-.03,.3Z"/>
        </g>
        <g class="cls-2">
          <path class="cls-3" d="M40.39,.65v.05c0,.07,0,.14,0,.2,0,.06,0,.11,0,.17-.02,0-.03,0-.05,0h-.12s-.04,0-.05,0c0-.05,0-.11,0-.17,0-.06,0-.12,0-.2v-.18c0-.07,0-.14,0-.2,0-.06,0-.11,0-.17,.02,0,.03,0,.05,0,.02,0,.04,0,.06,0,.02,0,.05,0,.08,0,.03,0,.07,0,.12,0,.03,0,.06,0,.09,0,.02,0,.05,0,.06,0,.02,0,.03,0,.05,.01s.03,.01,.04,.02c.03,.02,.05,.04,.07,.07,.02,.03,.02,.06,.02,.1,0,.06-.02,.12-.05,.16-.04,.04-.09,.07-.16,.09,.04,.08,.09,.15,.14,.23s.1,.15,.15,.22c-.02,0-.04,0-.06,0h-.12s-.04,0-.06,0l-.25-.42h-.01Zm.2-.34s-.02-.04-.04-.05c-.02-.01-.04-.02-.07-.02-.03,0-.06,0-.1,0,0,.12,0,.24,0,.36,0,0,.01,0,.02,0,0,0,0,0,.01,0,.06,0,.11-.02,.14-.05,.03-.03,.05-.08,.05-.14,0-.04,0-.07-.01-.09Z"/>
          <path class="cls-3" d="M44.62,.33c0-.06,0-.11,0-.17,.02,0,.03,0,.05,0,.02,0,.04,0,.06,0s.04,0,.06,0,.04,0,.05,0c0,.06,0,.12,0,.17,0,.06,0,.12,0,.2v.18c0,.07,0,.14,0,.2,0,.06,0,.11,0,.17-.02,0-.03,0-.05,0h-.12s-.04,0-.05,0c0-.05,0-.11,0-.17,0-.06,0-.12,0-.2v-.18c0-.07,0-.14,0-.2Z"/>
          <path class="cls-3" d="M49.1,.49c.04-.11,.09-.22,.12-.33,.02,0,.04,0,.06,0s.04,0,.06,0c-.02,.05-.05,.12-.08,.19s-.07,.15-.1,.23-.07,.17-.1,.25c-.03,.09-.06,.16-.09,.24-.02,0-.04,0-.06,0s-.04,0-.06,0c-.01-.04-.03-.08-.05-.13-.02-.05-.04-.1-.06-.16-.02-.06-.05-.11-.07-.17-.02-.06-.05-.12-.07-.17s-.04-.11-.06-.15c-.02-.05-.04-.09-.05-.12,.02,0,.04,0,.06,0s.04,0,.06,0,.04,0,.06,0,.04,0,.06,0c.02,.05,.03,.1,.05,.16,.02,.05,.04,.11,.06,.17,.02,.06,.04,.11,.07,.17,.02,.06,.04,.11,.07,.17,.05-.11,.09-.23,.14-.34Z"/>
          <path class="cls-3" d="M52.83,.33c0-.06,0-.11,0-.17,.04,0,.08,0,.12,0,.04,0,.08,0,.12,0,.07,0,.13,0,.18,0s.09,0,.11,0c0,.01,0,.03,0,.06,0,.01,0,.03,0,.03,0,0,0,.02,0,.03-.03,0-.06,0-.09,0-.03,0-.06,0-.09,0-.03,0-.06,0-.08,0-.02,0-.04,0-.05,0,0,.05,0,.1,0,.14s0,.1,0,.14c.06,0,.11,0,.16,0,.05,0,.1,0,.15,0,0,.02,0,.03,0,.03,0,0,0,.02,0,.03,0,0,0,.01,0,.02,0,0,0,.02,0,.03-.1,0-.21-.01-.31-.01,0,.03,0,.06,0,.09s0,.06,0,.09c0,.06,0,.11,0,.17,.05,0,.1,0,.16,0s.1,0,.16-.01c0,0,0,.02,0,.03,0,0,0,.02,0,.03s0,.03,0,.03c0,0,0,.01,0,.02-.02,0-.06,0-.09,0-.04,0-.09,0-.15,0h-.22s-.04,0-.05,0c-.01,0-.02,0-.03,0,0-.05,0-.11,0-.17s0-.12,0-.2v-.18c0-.07,0-.14,0-.2Z"/>
          <path class="cls-3" d="M57.13,.65v.05c0,.07,0,.14,0,.2,0,.06,0,.11,0,.17-.02,0-.03,0-.05,0h-.12s-.04,0-.05,0c0-.05,0-.11,0-.17,0-.06,0-.12,0-.2v-.18c0-.07,0-.14,0-.2,0-.06,0-.11,0-.17,.02,0,.03,0,.05,0,.02,0,.04,0,.06,0,.02,0,.05,0,.08,0,.03,0,.07,0,.12,0,.03,0,.06,0,.09,0,.02,0,.05,0,.06,0,.02,0,.03,0,.05,.01s.03,.01,.04,.02c.03,.02,.05,.04,.07,.07,.02,.03,.02,.06,.02,.1,0,.06-.02,.12-.05,.16-.04,.04-.09,.07-.16,.09,.04,.08,.09,.15,.14,.23s.1,.15,.15,.22c-.02,0-.04,0-.06,0h-.12s-.04,0-.06,0l-.25-.42h-.01Zm.2-.34s-.02-.04-.04-.05c-.02-.01-.04-.02-.07-.02-.03,0-.06,0-.1,0,0,.12,0,.24,0,.36,0,0,.01,0,.02,0,0,0,0,0,.01,0,.06,0,.11-.02,.14-.05,.03-.03,.05-.08,.05-.14,0-.04,0-.07-.01-.09Z"/>
          <path class="cls-3" d="M61.14,.33c0-.06,0-.11,0-.17,.02,0,.03,0,.05,0,.02,0,.04,0,.06,0,.04,0,.08,0,.12,0,.04,0,.08,0,.12,0s.08,0,.11,.01,.06,.02,.09,.04c.02,.02,.04,.04,.06,.06,.01,.03,.02,.06,.02,.09s0,.07-.02,.09-.03,.05-.06,.07c-.02,.02-.05,.03-.07,.04-.03,0-.05,.02-.07,.02h0s.05,0,.07,.02c.03,0,.06,.02,.08,.04,.03,.02,.05,.04,.07,.07,.02,.03,.03,.06,.03,.1,0,.05,0,.09-.03,.12-.02,.03-.04,.06-.07,.08-.03,.02-.06,.04-.1,.04s-.08,.01-.12,.01c-.04,0-.07,0-.1,0-.03,0-.06,0-.1,0h-.08s-.05,0-.06,0c0-.05,0-.11,0-.17,0-.06,0-.12,0-.2v-.18c0-.07,0-.14,0-.2Zm.42,0s-.01-.04-.03-.05c-.01-.01-.03-.02-.05-.03s-.04-.01-.07-.01c-.02,0-.03,0-.04,0,0,0-.02,0-.03,0,0,.03,0,.07,0,.1,0,.03,0,.06,0,.09s0,.05,0,.07c0,.02,0,.04,0,.07h.06s.04,0,.06-.01,.04-.02,.05-.03c.01-.01,.03-.03,.04-.05s.01-.05,.01-.07c0-.02,0-.04,0-.06Zm-.03,.35s-.07-.05-.13-.05c-.01,0-.02,0-.03,0,0,0-.02,0-.03,0,0,.02,0,.04,0,.06,0,.02,0,.04,0,.07,0,.02,0,.04,0,.07,0,.02,0,.04,0,.07s0,.04,0,.06c0,.02,0,.03,0,.04,.01,0,.02,0,.04,0,.01,0,.02,0,.04,0,.02,0,.04,0,.06-.01,.02,0,.03-.02,.05-.04,.01-.02,.02-.03,.03-.06s.01-.05,.01-.08c0-.06-.01-.11-.04-.14Z"/>
          <path class="cls-3" d="M66.08,1.07s-.04,0-.06,0h-.12s-.04,0-.06,0c-.01-.04-.03-.09-.05-.13s-.03-.09-.05-.14c-.03,0-.06,0-.09,0-.03,0-.06,0-.09,0-.02,0-.05,0-.07,0-.02,0-.05,0-.07,0-.02,.05-.04,.09-.05,.14-.02,.05-.03,.09-.04,.13-.01,0-.02,0-.03,0h-.07s-.02,0-.04,0c.01-.02,.03-.05,.04-.1,.02-.04,.04-.09,.06-.14,.02-.05,.05-.11,.07-.17,.03-.06,.05-.12,.08-.18,.03-.06,.05-.12,.07-.18,.02-.06,.05-.11,.07-.16,0,0,.02,0,.03,0s.02,0,.03,0,.02,0,.03,0c0,0,.02,0,.03,0,.03,.08,.06,.16,.09,.24,.03,.09,.07,.17,.1,.25,.03,.08,.07,.16,.1,.24s.06,.14,.09,.19Zm-.49-.66c-.02,.05-.05,.11-.07,.16s-.04,.1-.06,.16h.25c-.02-.05-.04-.11-.06-.16-.02-.05-.04-.1-.06-.16Z"/>
          <path class="cls-3" d="M69.42,.27s0-.08,0-.11c.03,0,.05,0,.06,0s.04,0,.06,0c.1,.11,.2,.21,.3,.32,.1,.1,.2,.21,.3,.32v-.24s0-.09,0-.13c0-.04,0-.08,0-.12,0-.04,0-.07,0-.09s0-.04,0-.05c.03,0,.05,0,.06,0s.04,0,.06,0c0,.08,0,.15-.01,.22s0,.13,0,.18c0,.06,0,.11,0,.17,0,.06,0,.12,0,.18v.16s-.04,0-.06,0-.04,0-.05,0c-.19-.21-.39-.43-.6-.64,0,.03,0,.05,0,.08,0,.03,0,.05,0,.08v.15c0,.05,0,.1,0,.14,0,.04,0,.07,0,.09,0,.03,0,.05,0,.06,0,.02,0,.03,0,.04-.01,0-.02,0-.03,0h-.03s-.04,0-.06,0c0,0,0-.03,0-.08s0-.1,0-.16c0-.06,0-.13,0-.2,0-.07,0-.14,0-.21,0-.06,0-.11,0-.15Z"/>
          <path class="cls-3" d="M73.85,.91c0,.07,0,.12,0,.16-.02,0-.03,0-.05,0h-.12s-.04,0-.05,0c0-.05,0-.11,0-.17,0-.06,0-.12,0-.2v-.18c0-.07,0-.14,0-.2,0-.06,0-.11,0-.17,.02,0,.03,0,.05,0s.04,0,.06,0,.04,0,.06,0,.04,0,.05,0c0,.03,0,.07,0,.12s0,.11,0,.18v.13s.06-.07,.1-.12c.04-.04,.07-.08,.1-.12,.03-.04,.06-.08,.09-.11,.03-.03,.05-.06,.06-.08,.01,0,.03,0,.04,0,.01,0,.03,0,.04,0s.03,0,.04,0,.03,0,.04,0c-.02,.02-.04,.04-.07,.07-.03,.03-.07,.07-.1,.11s-.07,.08-.1,.11c-.03,.04-.06,.07-.08,.09,.03,.04,.06,.09,.1,.14,.04,.05,.07,.1,.11,.15,.04,.05,.07,.1,.1,.14,.03,.04,.05,.07,.07,.1-.03,0-.05,0-.07,0h-.12s-.04,0-.06,0c-.05-.07-.09-.14-.14-.21-.04-.07-.09-.14-.14-.21h0c0,.1,0,.18,0,.25Z"/>
        </g>
      </g>
    </g>
  </g>
</svg>