<?xml version="1.0" encoding="UTF-8"?>
<svg id="_圖層_2" data-name="圖層 2" xmlns="http://www.w3.org/2000/svg" viewBox="0 0 21.02 4.48">
  <defs>
    <style>
      .cls-1 {
        fill: #fff;
      }

      .cls-2 {
        opacity: .2;
      }
    </style>
  </defs>
  <g id="_圖層_1-2" data-name="圖層 1">
    <g class="cls-2">
      <path class="cls-1" d="M3.08,4.25c-.07,.04-.16,.08-.27,.11-.1,.03-.22,.06-.35,.08-.13,.03-.26,.04-.4,.04-.3,0-.57-.05-.83-.14-.25-.09-.47-.24-.65-.43-.18-.19-.33-.43-.43-.71-.1-.28-.16-.6-.16-.95s.05-.67,.16-.95c.1-.28,.25-.51,.44-.71,.19-.19,.41-.34,.67-.44,.26-.1,.55-.15,.86-.15,.25,0,.48,.03,.68,.08,.21,.06,.39,.12,.55,.2-.03,.06-.05,.14-.07,.24-.02,.1-.03,.18-.05,.25h-.03s-.09-.09-.16-.16c-.07-.06-.15-.12-.24-.18-.09-.06-.19-.11-.31-.15-.11-.04-.24-.06-.37-.06-.22,0-.43,.04-.62,.12-.19,.08-.36,.2-.5,.37-.14,.17-.25,.38-.33,.63-.08,.25-.12,.55-.12,.9s.04,.65,.12,.9c.08,.25,.19,.46,.33,.63,.14,.17,.31,.29,.5,.37,.19,.08,.4,.12,.62,.12,.14,0,.26-.02,.38-.06,.12-.04,.22-.08,.32-.14,.1-.05,.18-.11,.26-.17,.08-.06,.14-.11,.2-.16l.02,.03-.05,.37s-.09,.07-.16,.11Z"/>
      <path class="cls-1" d="M4,1.3c.1-.28,.25-.51,.44-.71,.19-.19,.41-.34,.67-.44,.26-.1,.55-.15,.86-.15s.6,.05,.86,.15c.26,.1,.48,.25,.67,.44,.19,.19,.33,.43,.44,.71,.1,.28,.16,.6,.16,.95s-.05,.67-.16,.95c-.1,.28-.25,.51-.44,.71-.19,.19-.41,.34-.67,.43-.26,.09-.55,.14-.86,.14s-.59-.05-.86-.14c-.26-.09-.48-.24-.67-.43-.19-.19-.33-.43-.44-.71-.1-.28-.16-.6-.16-.95s.05-.67,.16-.95Zm3.41,.05c-.08-.25-.19-.46-.33-.63-.14-.17-.31-.29-.5-.37-.19-.08-.4-.12-.62-.12s-.42,.04-.61,.12c-.19,.08-.36,.2-.5,.37-.14,.17-.25,.38-.33,.63-.08,.25-.12,.55-.12,.9s.04,.65,.12,.9c.08,.25,.19,.46,.33,.63,.14,.17,.31,.29,.5,.37,.19,.08,.4,.12,.61,.12s.43-.04,.62-.12c.19-.08,.36-.2,.5-.37,.14-.17,.25-.37,.33-.63,.08-.25,.12-.55,.12-.9s-.04-.65-.12-.9Z"/>
      <path class="cls-1" d="M9.69,3.51c-.14-.35-.3-.71-.46-1.1-.16-.39-.33-.78-.5-1.18-.17-.4-.34-.78-.49-1.14,.06,0,.12,.02,.18,.02,.06,0,.11,0,.16,0s.11,0,.16,0c.06,0,.12-.01,.18-.02,.1,.28,.2,.57,.32,.87,.12,.3,.24,.61,.37,.93,.13,.31,.26,.63,.4,.96,.14,.32,.27,.64,.41,.96,.08-.17,.16-.36,.26-.57,.09-.21,.18-.43,.28-.66,.09-.23,.19-.46,.28-.7,.09-.24,.18-.46,.27-.68,.09-.22,.16-.42,.23-.61,.07-.19,.13-.35,.18-.49,.1,.02,.18,.03,.24,.03s.15-.01,.24-.03c-.34,.73-.67,1.45-.98,2.17-.31,.72-.62,1.43-.9,2.15-.07,0-.14-.01-.22-.01-.09,0-.16,0-.22,.01-.1-.25-.22-.54-.37-.89Z"/>
      <path class="cls-1" d="M13.49,.89c-.01-.27-.03-.54-.05-.8,.25,0,.5,.02,.75,.02,.25,0,.5,0,.75,0s.5,0,.74,0c.24,0,.49-.01,.74-.02-.02,.06-.02,.13-.02,.19s0,.13,.02,.19c-.18,0-.34-.02-.49-.03-.15,0-.3-.02-.47-.03-.16,0-.34-.02-.54-.02-.19,0-.43,0-.7,0,0,.13-.01,.26-.02,.38,0,.12-.01,.26-.01,.41,0,.16,0,.32,0,.48,0,.16,0,.27,0,.35,.24,0,.46,0,.66,0,.19,0,.37,0,.53-.02s.31-.01,.45-.02c.14,0,.27-.01,.39-.02-.02,.06-.02,.13-.02,.19,0,.06,0,.13,.02,.19-.14-.01-.31-.02-.5-.03-.19,0-.38-.01-.58-.02-.19,0-.37,0-.54,0-.17,0-.3,0-.4,0,0,.04,0,.08,0,.12,0,.04,0,.1,0,.17v.62c0,.24,0,.44,0,.59,0,.16,0,.27,.01,.35h.58c.21,0,.42,0,.62,0,.2,0,.39-.01,.58-.03,.18-.01,.34-.03,.47-.05-.01,.03-.02,.06-.02,.1,0,.04,0,.07,0,.1,0,.07,0,.12,.03,.16-.25,0-.5-.01-.75-.01h-1.51c-.25,0-.5,0-.76,.01,.02-.27,.03-.54,.05-.8,.01-.27,.02-.54,.02-.81V1.7c0-.28,0-.55-.02-.82Z"/>
      <path class="cls-1" d="M17.31,.9c-.01-.27-.03-.54-.04-.81,.14,0,.29,.02,.42,.02,.14,0,.28,0,.42,0s.29,0,.42-.02c.14-.01,.28-.02,.42-.02,.21,0,.41,.02,.6,.05,.19,.03,.35,.09,.49,.17,.14,.08,.25,.18,.33,.3,.08,.13,.12,.28,.12,.47,0,.2-.05,.37-.16,.52s-.24,.26-.39,.36c-.15,.09-.32,.17-.49,.22-.18,.05-.34,.09-.48,.1,.06,.06,.14,.15,.25,.26,.1,.11,.22,.24,.35,.37,.13,.14,.26,.28,.4,.43,.14,.15,.27,.29,.4,.43,.13,.14,.25,.26,.36,.37s.21,.2,.28,.26c-.07,0-.15-.01-.22-.01h-.44c-.07,0-.15,0-.22,.01-.07-.09-.19-.22-.34-.4-.15-.18-.32-.36-.5-.57s-.37-.4-.56-.6c-.19-.2-.37-.37-.52-.51h-.28v.46c0,.28,0,.55,.02,.82,.01,.27,.03,.53,.04,.79-.11,0-.24-.01-.36-.01s-.25,0-.36,.01c.01-.26,.03-.52,.04-.79,.01-.27,.02-.54,.02-.82V1.71c0-.28,0-.55-.02-.81Zm.86,1.2c.08,0,.17,0,.27,0,.15,0,.31-.01,.48-.04,.17-.03,.32-.08,.46-.15,.14-.07,.25-.17,.35-.3,.09-.12,.14-.28,.14-.47,0-.16-.04-.3-.11-.41s-.16-.19-.28-.25c-.11-.06-.24-.11-.37-.13-.13-.02-.27-.03-.39-.03-.17,0-.32,0-.43,0-.11,0-.21,.01-.29,.02,0,.23-.02,.46-.03,.68,0,.23-.01,.45-.01,.68v.36c.07,.01,.14,.02,.23,.03Z"/>
    </g>
  </g>
</svg>