<?xml version="1.0" encoding="UTF-8"?>
<svg id="_圖層_2" data-name="圖層 2" xmlns="http://www.w3.org/2000/svg" viewBox="0 0 107.91 4.52">
  <defs>
    <style>
      .cls-1 {
        fill: #fff;
      }

      .cls-2 {
        fill: #62eeee;
      }

      .cls-3 {
        fill: #6cb3f7;
      }
    </style>
  </defs>
  <g id="_圖層_1-2" data-name="圖層 1">
    <g>
      <path class="cls-1" d="M1.24,1.34H.16s-.02,0-.03,0c-.02,0-.03,0-.04-.01-.03-.02-.05-.04-.05-.09,0-.04,.01-.07,.05-.09,.01,0,.02-.01,.04-.01,.01,0,.02,0,.04,0H1.24V.26s0-.03,0-.05c0-.04,.01-.07,.03-.1,.03-.07,.1-.11,.2-.11s.16,.04,.2,.11c.01,.03,.02,.06,.02,.1,0,.02,0,.03,0,.05V3.91s0,.03,0,.05c0,.04-.01,.07-.02,.1-.03,.07-.1,.11-.2,.11s-.16-.04-.2-.11c-.01-.03-.02-.06-.03-.1,0-.02,0-.03,0-.05v-.94l-.24,.13c-.12,.07-.23,.12-.33,.18-.12,.06-.23,.11-.31,.15-.1,.04-.16,.06-.19,.06-.06,0-.1-.03-.13-.08-.03-.04-.04-.09-.04-.14,0-.07,.02-.12,.07-.15,.02-.01,.04-.02,.07-.03,.01,0,.02-.01,.04-.01l.4-.12c.1-.03,.2-.06,.29-.09,.08-.03,.15-.05,.22-.08l.14-.06V1.34Zm1.4,2.33c0,.14,.06,.21,.19,.21h.34c.09,0,.15-.05,.2-.14,.02-.04,.03-.08,.05-.14l.05-.27s.02-.08,.04-.1c.03-.06,.09-.09,.17-.09,.16,0,.24,.07,.24,.22v.08s-.02,.09-.03,.14c-.03,.13-.07,.24-.13,.33-.04,.06-.08,.1-.13,.13-.07,.03-.16,.05-.28,.05h-.69c-.31,0-.46-.15-.46-.45V.27s0-.03,0-.05c0-.04,.01-.07,.03-.1,.03-.07,.09-.1,.19-.1s.16,.03,.2,.1c.01,.03,.02,.06,.03,.1,0,.02,0,.03,0,.05V1.68s.02-.01,.03-.02l.1-.07c.06-.05,.12-.09,.18-.14,.07-.06,.14-.12,.21-.19,.08-.08,.16-.15,.23-.24,.1-.12,.19-.18,.25-.18,.16,0,.24,.09,.24,.27,0,.09-.09,.2-.28,.32-.09,.06-.18,.11-.28,.17-.08,.05-.17,.1-.26,.14l-.42,.2v1.73Z"/>
      <path class="cls-1" d="M11.2,.28s0-.03,0-.05c0-.04,.01-.07,.02-.1,.03-.08,.1-.12,.2-.12s.17,.04,.2,.12c.01,.03,.02,.06,.03,.1,0,.02,0,.03,0,.05V1.61h1.58s.02,0,.03,0c.01,0,.03,0,.04,.01,.03,.02,.05,.05,.05,.09,0,.04-.01,.07-.05,.09-.01,0-.02,.01-.04,.01-.01,0-.02,0-.03,0h-1.58v1.98h1.32s.02,0,.03,0c.01,0,.03,0,.04,.01,.03,.02,.05,.05,.05,.09,0,.04-.02,.07-.05,.09-.01,0-.02,.01-.04,.01-.01,0-.02,0-.03,0h-3.1s-.02,0-.03,0c-.01,0-.03,0-.04-.01-.03-.02-.05-.05-.05-.09,0-.04,.02-.07,.05-.09,.01,0,.02-.01,.04-.01,.01,0,.02,0,.03,0h1.32V1.82h-1.58s-.03,0-.04,0c-.01,0-.03,0-.04-.01-.03-.02-.04-.05-.04-.09s.02-.07,.05-.09c.01,0,.02-.01,.04-.01,.01,0,.02,0,.03,0h1.58V.28Z"/>
      <path class="cls-1" d="M20.11,3.91s0,.03,0,.04c0,.04,0,.07-.02,.1-.03,.08-.1,.12-.19,.12s-.16-.04-.19-.12c-.01-.03-.02-.06-.03-.1,0-.02,0-.03,0-.05v-1.52c-.06,.12-.14,.24-.21,.35-.07,.1-.13,.19-.2,.27-.13,.16-.22,.23-.26,.23-.07,0-.1-.03-.1-.1,0-.02,.02-.06,.05-.09,.16-.21,.29-.44,.41-.69,.14-.31,.23-.63,.29-.97h-.57s-.03,0-.04,0c-.01,0-.03,0-.04-.01-.03-.02-.04-.05-.04-.09s.02-.07,.05-.09c.01,0,.02-.01,.04-.01,.01,0,.02,0,.03,0h.59V.49c-.1,0-.22,.02-.35,.02-.12,0-.2,0-.23,0-.08,0-.11-.03-.11-.1,0-.04,.02-.07,.05-.09l.04-.02s.03,0,.04,0c.01,0,.02,0,.04,0l.24-.03c.1-.01,.19-.03,.26-.04,.18-.03,.35-.08,.51-.14l.13-.05,.08-.02s.04-.01,.05-.01c.13,0,.2,.07,.2,.22,0,.07-.03,.12-.1,.15-.06,.03-.2,.05-.41,.08v.73h.44s.03,0,.04,0c.01,0,.03,0,.04,.01,.03,.02,.04,.05,.04,.09,0,.04-.02,.07-.05,.09-.01,0-.02,.01-.04,.01-.01,0-.02,0-.03,0h-.44v.04c.01,.05,.03,.11,.05,.18,.03,.09,.06,.18,.1,.27,.05,.11,.1,.22,.16,.33,.07,.12,.14,.24,.22,.35,.01,.01,.02,.02,.03,.04,0,.02,.01,.03,.01,.05,0,.07-.03,.1-.1,.1-.03,0-.06-.02-.11-.07-.04-.04-.09-.09-.14-.16-.04-.05-.09-.11-.13-.18l-.09-.13v1.72Zm2.2,0s0,.03,0,.05c0,.04,0,.07-.02,.1-.03,.08-.1,.12-.19,.12s-.16-.04-.19-.12c-.01-.03-.02-.06-.03-.1,0-.01,0-.03,0-.05v-1.17l-1.12,.37s-.04,0-.06,0c-.06,0-.09-.03-.09-.1,0-.06,.03-.09,.09-.11l1.18-.38V.26s0-.03,0-.04c0-.04,0-.07,.02-.1,.03-.08,.1-.12,.19-.12s.16,.04,.19,.11c.01,.03,.02,.06,.03,.1,0,.01,0,.03,0,.04V2.38l.39-.13h.03s.02,0,.03,0c.06,0,.08,.03,.08,.1,0,.05-.03,.09-.09,.11l-.44,.14v1.32Zm-1.34-2.57s.07,.04,.11,.07c.03,.02,.07,.05,.11,.08l.19,.14s.09,.08,.12,.11c.09,.09,.13,.16,.13,.23,0,.17-.08,.26-.24,.26-.09,0-.15-.05-.2-.16-.08-.18-.2-.37-.37-.57-.01-.02-.02-.03-.02-.04,0-.02-.01-.03-.01-.04,0-.07,.03-.1,.1-.1,.01,0,.04,.01,.08,.03Zm.08-1.05l.1,.06,.1,.07s.06,.04,.08,.05c.15,.1,.24,.18,.29,.24,.04,.05,.05,.09,.05,.14,0,.17-.07,.25-.22,.25-.04,0-.08-.01-.1-.04s-.08-.1-.16-.23c-.04-.06-.08-.13-.13-.2l-.17-.22s0-.03,0-.04c0-.07,.03-.1,.1-.1,.01,0,.04,0,.07,.02Z"/>
      <path class="cls-1" d="M31.67,1.6h.5s.02,0,.03,0c.01,0,.03,0,.04,.01,.03,.02,.05,.05,.05,.09,0,.02,0,.04-.01,.06,0,.01-.02,.02-.03,.03-.01,0-.03,0-.04,0,0,0-.02,0-.03,0h-.5v.93h.32s.03,0,.04,0c.01,0,.03,0,.04,.01,.03,.02,.04,.05,.04,.09s-.02,.07-.05,.09c-.01,0-.02,.01-.04,.01-.01,0-.02,0-.03,0h-3.29s-.03,0-.04,0c-.01,0-.03,0-.04-.01-.03-.02-.04-.05-.04-.09s.02-.07,.05-.09c.01,0,.02-.01,.04-.01,.01,0,.02,0,.03,0h.32v-.93h-.48s-.02,0-.03,0c-.01,0-.03,0-.04-.01-.03-.01-.05-.04-.05-.09,0-.04,.01-.07,.04-.09,.01,0,.02-.01,.04-.01,.01,0,.02,0,.04,0h.48v-.6l-.1,.09c-.05,.05-.1,.08-.14,.12-.05,.04-.1,.08-.13,.1-.04,.03-.08,.04-.1,.04-.06,0-.1-.03-.1-.1,0-.03,.02-.06,.05-.09l.09-.11c.05-.07,.1-.13,.15-.2,.06-.09,.12-.19,.17-.28,.06-.12,.12-.24,.17-.36l.03-.07s.03-.05,.05-.07c.04-.05,.09-.07,.16-.07,.07,0,.13,.02,.19,.06,.06,.05,.09,.1,.09,.17,0,.06-.04,.14-.12,.25h2.43s.02,0,.03,0c.01,0,.03,0,.04,.01,.03,.02,.04,.05,.04,.09,0,.04-.01,.07-.04,.09-.01,0-.02,.01-.04,.01-.01,0-.02,0-.03,0h-.25v.92Zm-3.12,2.5c-.05-.05-.08-.11-.08-.18,0-.05,.01-.08,.04-.12,.02-.03,.09-.1,.2-.21l.11-.12c.07-.09,.15-.19,.22-.3,.03-.04,.06-.06,.08-.06,.06,0,.1,.03,.1,.1,0,0,0,.03,0,.05l-.03,.12c-.02,.06-.04,.12-.06,.19-.03,.08-.07,.17-.11,.26-.1,.22-.2,.33-.3,.33-.06,0-.11-.02-.16-.06Zm1.22-3.42h-.35v.92h.35V.69Zm0,1.13h-.35v.93h.35v-.93Zm.2,2.33c-.08,0-.14-.03-.17-.09-.01-.03-.03-.07-.04-.12l-.03-.18c-.01-.08-.03-.15-.05-.23,0-.03-.01-.06-.03-.09l-.04-.14s0-.03,0-.04c0-.07,.03-.1,.09-.1,.02,0,.07,.03,.12,.09,.05,.06,.1,.13,.16,.22,.14,.21,.21,.36,.21,.44,0,.15-.08,.23-.24,.23Zm.55-3.46h-.35v.92h.35V.69Zm0,1.13h-.35v.93h.35v-.93Zm.61,2.25s-.1,.06-.16,.06c-.1,0-.18-.1-.23-.31-.04-.17-.1-.33-.18-.47l-.02-.04s0-.03,0-.04c0-.07,.03-.1,.1-.1,.02,0,.07,.03,.13,.09,.06,.06,.12,.13,.19,.21,.08,.09,.14,.17,.18,.24,.05,.08,.08,.15,.08,.19,0,.07-.03,.13-.08,.18Zm.14-3.38h-.35v.92h.35V.69Zm0,1.13h-.35v.93h.35v-.93Zm.31,1.33s.07,.03,.15,.09c.07,.06,.14,.13,.22,.21,.08,.09,.15,.17,.2,.25,.06,.08,.09,.15,.09,.19,0,.17-.09,.26-.26,.26-.1,0-.18-.09-.23-.27-.07-.22-.14-.4-.23-.54-.02-.04-.03-.06-.03-.09,0-.07,.03-.1,.09-.1Z"/>
      <path class="cls-1" d="M38.41,.26s0-.03,0-.05c0-.04,.01-.07,.03-.1,.03-.07,.1-.11,.19-.11,.1,0,.16,.04,.2,.12,.01,.03,.02,.06,.02,.1,0,.01,0,.03,0,.04v.96h.33s.02,0,.03,0c.01,0,.03,0,.04,.01,.03,.02,.05,.05,.05,.09s-.02,.07-.05,.09c-.01,0-.02,.01-.04,.01-.01,0-.02,0-.03,0h-.33v1.55s.02-.01,.05-.02c.01,0,.03,0,.05-.02l.09-.04s0,0,.01,0l.11-.04s.03-.01,.05-.01c.06,0,.1,.03,.1,.1,0,.04-.03,.08-.08,.11-.05,.03-.13,.08-.24,.14l-.36,.2c-.15,.08-.27,.14-.36,.18-.05,.03-.1,.05-.13,.06-.04,.02-.07,.02-.08,.02-.12,0-.18-.07-.18-.22,0-.09,.04-.15,.1-.18,.03-.01,.1-.04,.22-.07l.21-.06V1.43h-.39s-.03,0-.04,0c-.01,0-.03,0-.04-.01-.03-.02-.04-.05-.04-.09,0-.04,.02-.07,.05-.09,.01,0,.02-.01,.04-.01,.01,0,.02,0,.03,0h.39V.26Zm3.26,3.62s.02,0,.03,0c.01,0,.03,0,.04,.01,.03,.02,.05,.04,.05,.09,0,.04-.02,.07-.05,.09-.01,0-.02,.01-.04,.01-.01,0-.02,0-.03,0h-.84c-.33,0-.59-.05-.77-.15-.16-.08-.29-.23-.4-.43-.07,.1-.15,.2-.25,.29-.09,.08-.18,.15-.29,.21-.08,.05-.17,.09-.24,.12-.07,.03-.11,.04-.12,.04-.06,0-.09-.03-.09-.1,0-.04,.03-.08,.09-.11,.29-.17,.49-.37,.59-.6,.04-.1,.07-.21,.09-.34,0-.05,.02-.11,.02-.18v-.19c.02-.16,.1-.24,.23-.24,.15,0,.23,.08,.23,.24,0,.12-.02,.25-.05,.39,.08,.33,.22,.56,.41,.68v-1.54h-.94s-.02,0-.03,0c-.01,0-.03,0-.04-.01-.03-.02-.05-.04-.05-.08,0-.04,.02-.07,.05-.09,.01,0,.02-.01,.04-.01,.01,0,.02,0,.03,0h2.31s.03,0,.04,0c.01,0,.03,0,.04,0,.03,.02,.04,.05,.04,.09,0,.04-.02,.07-.05,.09-.01,0-.02,.01-.04,.01-.01,0-.02,0-.03,0h-.92v.59h.72s.03,0,.04,0c.01,0,.03,0,.04,0,.03,.02,.04,.05,.04,.09,0,.04-.02,.07-.05,.09-.01,0-.02,.01-.04,.01-.01,0-.02,0-.03,0h-.72v.89s.09,.01,.16,.01c.02,0,.05,0,.07,0h.73Zm-.18-2.56c0,.24-.13,.36-.38,.36h-1.26c-.25,0-.38-.12-.38-.36V.5c0-.24,.13-.36,.38-.36h1.26c.25,0,.38,.12,.38,.36v.82Zm-.45-.52v-.28c0-.11-.05-.17-.16-.17h-.8c-.11,0-.16,.06-.16,.17v.28h1.12Zm-1.12,.2v.29c0,.11,.05,.17,.16,.17h.8c.11,0,.16-.06,.16-.17v-.29h-1.12Z"/>
      <path class="cls-1" d="M47.49,1.22s-.03,0-.04,0c-.01,0-.03,0-.04-.01-.03-.02-.04-.04-.04-.08,0-.04,.02-.07,.05-.09,.01,0,.02-.01,.04-.01,.01,0,.02,0,.03,0h1.13c.12,0,.21,.03,.26,.09,.04,.05,.06,.11,.06,.18,0,.05-.01,.13-.03,.23-.02,.13-.06,.26-.1,.39-.05,.17-.12,.33-.19,.48-.09,.18-.19,.35-.3,.5-.09,.12-.19,.24-.29,.36-.09,.09-.18,.18-.27,.26-.17,.14-.27,.22-.32,.22-.06,0-.1-.03-.1-.1,0-.03,.02-.07,.06-.1,.2-.17,.38-.39,.54-.64,.13-.21,.23-.43,.32-.68,.04-.1,.07-.2,.1-.31,.02-.09,.04-.18,.06-.27,.01-.07,.03-.14,.03-.2,0-.05,0-.09,0-.11,0-.06-.03-.09-.1-.09h-.87Zm2.03,2.52c0,.16-.04,.27-.12,.33-.07,.05-.18,.08-.32,.08h-.57s-.03,0-.04-.01c-.02,0-.03-.02-.04-.03-.01-.02-.02-.03-.02-.06s0-.04,.02-.06c0-.02,.02-.03,.04-.03,.01,0,.03-.01,.04-.01h.35c.14,0,.21-.08,.21-.24V.28s0-.03,0-.05c0-.04,.01-.07,.03-.1,.03-.08,.1-.12,.2-.12s.16,.04,.2,.12c.01,.03,.02,.06,.03,.1,0,.02,0,.03,0,.05v.45c.04,.21,.09,.38,.13,.52,.02,.05,.04,.11,.06,.18l.05,.13s.01,.03,.02,.05c.13-.09,.25-.21,.38-.34,.14-.14,.26-.28,.36-.42,.08-.12,.16-.18,.24-.18,.07,0,.13,.03,.18,.09,.06,.06,.08,.13,.08,.2,0,.05-.02,.1-.05,.14-.05,.06-.16,.14-.33,.26-.14,.1-.27,.18-.39,.25l-.39,.22c.32,.71,.77,1.28,1.33,1.7,.04,.03,.06,.06,.06,.1,0,.07-.03,.11-.09,.11-.02,0-.06-.02-.12-.06-.07-.04-.15-.09-.23-.15-.1-.07-.19-.14-.29-.22-.11-.09-.21-.18-.3-.27-.09-.09-.18-.19-.26-.29-.07-.09-.14-.18-.2-.28-.05-.08-.1-.16-.15-.24l-.05-.1s-.03-.05-.04-.08v1.69Z"/>
      <path class="cls-1" d="M57.12,1.9c0-.16,.04-.28,.12-.34,.07-.05,.18-.08,.33-.08h2.99s.03,0,.04,0c.01,0,.03,0,.04,0,.03,.02,.04,.05,.04,.09,0,.04-.02,.07-.05,.09-.01,0-.02,.01-.04,.01-.01,0-.02,0-.03,0h-2.78c-.13,0-.2,.07-.2,.21v.42c0,.33-.03,.61-.09,.84-.05,.21-.14,.41-.26,.61-.05,.08-.11,.16-.18,.24-.09,.1-.15,.15-.18,.15-.07,0-.1-.03-.1-.1,0,0,0-.03,.02-.05l.11-.18c.09-.17,.16-.38,.2-.65,.01-.11,.02-.22,.03-.35,0-.09,0-.2,0-.33v-.58Zm1.42-1.63s0-.03,0-.05c0-.04,.01-.07,.03-.1,.03-.08,.1-.13,.2-.13s.17,.04,.2,.13c.01,.03,.02,.06,.03,.1,0,.01,0,.03,0,.04V.97h.71c.12,0,.18-.07,.18-.2V.43c0-.08,.01-.15,.04-.2,.04-.06,.1-.1,.18-.1s.15,.03,.18,.09c.03,.05,.05,.12,.05,.2v.34c0,.27-.14,.4-.41,.4h-2.31c-.28,0-.42-.13-.42-.4V.41s0-.03,0-.04c0-.04,.01-.07,.03-.1,.03-.08,.1-.12,.19-.12s.17,.04,.2,.12c.01,.03,.02,.06,.02,.1,0,.01,0,.03,0,.04v.37c0,.13,.06,.2,.18,.2h.7V.28Zm.72,2.7h1.26s.03,0,.04,0c.01,0,.03,0,.04,.01,.03,.02,.04,.05,.04,.09s-.02,.07-.05,.09c-.01,0-.02,.01-.04,.01-.01,0-.02,0-.03,0h-1.26v.72s0,.03,0,.05c0,.04-.01,.07-.03,.1-.03,.08-.1,.13-.2,.13s-.16-.04-.2-.12c-.01-.03-.02-.07-.02-.11,0-.02,0-.03,0-.05v-.72h-1.06s-.03,0-.04,0c-.01,0-.03,0-.04-.01-.03-.02-.04-.05-.04-.09,0-.04,.02-.07,.05-.09,.01,0,.02-.01,.04-.01,.01,0,.02,0,.03,0h1.06v-.71h-.83s-.02,0-.03,0c-.01,0-.03,0-.04-.01-.03-.02-.05-.04-.05-.09s.01-.07,.05-.09c.01,0,.02-.01,.04-.01,.01,0,.02,0,.03,0h2.15s.03,0,.04,0c.01,0,.03,0,.04,.01,.03,.02,.04,.05,.04,.09,0,.04-.01,.07-.05,.09-.01,0-.02,.01-.04,.01-.01,0-.02,0-.03,0h-.87v.71Z"/>
    </g>
    <g>
      <path class="cls-3" d="M65.6,2.11h.59v.24h-1.48c-.05,0-.08-.03-.08-.1V.86s-.09,.09-.13,.14l-.16-.19c.17-.16,.32-.38,.45-.65l.21,.12c-.03,.06-.06,.12-.1,.19h.47c.07-.14,.13-.25,.18-.33l.21,.12c-.03,.07-.06,.14-.1,.21h.53v.24h-.59v.31h.56v.24h-.56v.29h.56v.24h-.56v.33Zm.8,1.65c-.23,.1-.47,.19-.72,.27-.28,.08-.65,.12-1.11,.12l-.05-.26c.49,0,.88-.05,1.17-.15,.14-.03,.27-.09,.4-.15-.24-.14-.5-.31-.79-.51l.14-.21c.35,.26,.66,.47,.92,.62,.02-.01,.04-.02,.05-.03,.34-.16,.64-.37,.9-.62h-2.2v-.26h2.43l.18,.17c-.27,.34-.62,.63-1.04,.87,.39,.14,.86,.23,1.42,.27l-.08,.26c-.51-.05-1.05-.18-1.61-.39Zm-1.04-2.74v-.31h-.45s-.03,0-.03,.03v.27h.48Zm0,.53v-.29h-.48v.29h.48Zm-.48,.24v.29s.02,.03,.03,.03h.45v-.33h-.48Zm2.57,.33h.6v.24h-1.5c-.05,0-.08-.03-.08-.1V.82c-.04,.08-.09,.14-.13,.19l-.18-.17c.16-.18,.28-.41,.35-.69l.22,.1c-.02,.08-.05,.15-.08,.22h.55c.05-.14,.1-.25,.13-.33l.22,.09c-.02,.08-.05,.16-.1,.24h.58v.24h-.6v.29h.55v.24h-.55v.31h.56v.24h-.56v.31Zm-.24-1.1v-.29h-.47s-.03,0-.03,.03v.26h.5Zm0,.55v-.31h-.5v.31h.5Zm-.5,.24v.27s.02,.03,.03,.03h.47v-.31h-.5Z"/>
      <path class="cls-3" d="M69.23,2.52c-.09,.64-.26,1.15-.51,1.53l-.22-.09c.28-.47,.45-.96,.51-1.47l.23,.03Zm-.58-1.18c.18,.11,.38,.27,.58,.48l-.14,.19c-.24-.21-.42-.36-.56-.46l.13-.21Zm.06-1.1c.17,.11,.36,.28,.56,.5l-.14,.19c-.24-.22-.42-.38-.56-.48l.14-.21Zm1.3,.29c-.14,.27-.33,.58-.56,.93l-.19-.14c.26-.37,.44-.67,.55-.93l.21,.14Zm.74,2.76c-.19,.34-.66,.62-1.4,.82l-.08-.26c.24-.06,.43-.11,.59-.15,.41-.15,.64-.35,.71-.6h-1.24v-.26h1.25v-.38l-1.12,.09-.03-.24,.9-.09s.07-.06,.11-.07c-.3-.23-.58-.39-.85-.5l.08-.24s.13,.06,.29,.14c.01,.01,.03,.02,.06,.03,.12-.15,.23-.31,.34-.48l.18,.15c-.07,.13-.18,.27-.32,.45,.13,.08,.26,.18,.4,.29,.05-.06,.1-.11,.14-.15,.21-.19,.38-.39,.48-.6l.19,.14c-.14,.26-.38,.54-.71,.82l1.04-.09c-.09-.15-.16-.26-.23-.34l.19-.14c.17,.22,.34,.5,.51,.86l-.21,.12c-.04-.09-.09-.17-.13-.24l-1.09,.09v.38h1.29v.26h-1.21c.25,.39,.69,.65,1.33,.79l-.08,.24-.03-.02c-.67-.13-1.12-.4-1.38-.82Zm.9-2.88c-.12,.02-.31,.05-.56,.09-.34,.03-.63,.05-.85,.05l-.03-.26c.62-.01,1.09-.06,1.41-.14l.03,.26Zm-.9,.19c.09,.29,.13,.53,.14,.74l-.22,.02c-.03-.18-.09-.42-.16-.7l.24-.05Zm.93-.09c.28,.48,.42,.74,.43,.77l-.21,.1c-.13-.29-.27-.54-.43-.75l.21-.12Z"/>
      <path class="cls-3" d="M73.31,3.74c-.04,.09-.13,.17-.26,.24-.14,.07-.26,.1-.37,.1-.01-.07-.03-.15-.06-.26,.18-.02,.31-.07,.39-.14,.1-.07,.15-.16,.16-.27v-1.05s0-.03-.03-.03h-.43v-.26h.64s.06,.03,.06,.07v1.29c.02,.07,.06,.13,.13,.17,.04,.06,.11,.09,.21,.1,.28,.08,1.13,.1,2.56,.05l-.05,.27c-.65,.01-1.27,.02-1.85,.03-.57-.01-.93-.12-1.09-.33Zm-.48-2.66c.18,.08,.39,.21,.61,.38l-.13,.21c-.24-.16-.43-.28-.59-.36l.11-.22Zm.11-.89c.17,.08,.36,.21,.56,.38l-.13,.21c-.24-.17-.42-.29-.56-.36l.13-.22Zm1.27,1.71c-.02,.25-.07,.5-.14,.74-.08,.31-.15,.52-.22,.63l-.23-.05c.27-.59,.4-1.27,.4-2.02v-.39h-.35v-.26h.53V.09h.24v.46h.51v.26h-.69v.48h.55s.06,.03,.06,.07c-.04,1.11-.12,1.77-.23,1.99-.03,.07-.06,.11-.1,.12-.11,.02-.28,0-.51-.09,.02-.06,.04-.14,.05-.26,.19,.07,.31,.1,.34,.09,.1-.07,.17-.62,.21-1.66,0,0,0,0-.03,0h-.35c-.01,.13-.02,.25-.03,.36Zm.84-.69l-.19-.15c.21-.25,.34-.57,.39-.94l.23,.02c-.02,.13-.04,.24-.05,.34h1v.26h-1.08c-.09,.18-.18,.34-.29,.48Zm.95,1.25c.05,.39,.03,.66-.08,.81-.07,.1-.14,.16-.21,.17-.16,.06-.35,.02-.58-.12l.06-.27c.09,.09,.18,.14,.27,.14,.1,.01,.18-.02,.24-.1,.09-.09,.09-.31,.02-.65h-.72v-.26h.64c-.04-.09-.09-.18-.13-.26-.02-.03-.03-.06-.03-.07-.01-.03,0-.06,.03-.07l.4-.46h-.71v-.26h.95l.15,.19h-.02l-.47,.53c-.05,.08-.06,.14-.02,.19,.04,.07,.08,.14,.11,.21h.5v.26h-.43s0,.02,.02,.03Z"/>
      <path class="cls-3" d="M77.1,2.35v.36c-.01,.47-.05,.91-.11,1.32l-.26-.03c.08-.51,.13-.98,.13-1.41v-.21l-.13,.02-.05-.24,.18-.03V.53c.01-.06,.04-.09,.08-.09h.32c.05-.11,.09-.21,.1-.29l.22,.09c-.01,.07-.03,.14-.06,.21h.45c.05,.01,.08,.04,.08,.09V1.96l.13-.03,.05,.26-.18,.03v1.61c-.01,.11-.04,.19-.08,.24-.09,.08-.28,.09-.58,.02v-.29c.21,.08,.34,.1,.39,.07,.02-.01,.03-.05,.03-.12v-1.49l-.24,.03v1.27h-.24v-1.23l-.22,.03Zm.71-.36V.74s0-.03-.03-.03h-.64s-.03,.02-.03,.03v1.35l.71-.1Zm-.16-.22l-.23,.03-.1-.82,.22-.05,.1,.84Zm1.03,1.75c-.11,.22-.22,.43-.35,.63l-.21-.19c.15-.25,.27-.49,.37-.7-.12-.17-.21-.48-.29-.93l.23-.1c.05,.27,.12,.51,.19,.72,.12-.34,.18-.72,.18-1.13h-.43l-.08-.14,.45-1.11h-.56V.31h.77l.1,.15-.45,1.1h.39c.05-.01,.08,.02,.08,.09-.01,.61-.1,1.14-.27,1.59,.11,.14,.22,.24,.35,.31,.26,.13,.71,.18,1.37,.17l-.05,.27c-.46,.01-.8,0-1.03-.05-.32-.07-.57-.21-.74-.43Zm1.24-1.89h.53v.26h-.53v1.17h.47v.26h-1.16v-.26h.45V1.89h-.51v-.26h.51V.67c-.14,.01-.28,.02-.42,.02l-.05-.26c.52-.01,.9-.05,1.12-.12l.06,.24c-.14,.05-.28,.07-.42,.09h-.06v.99Z"/>
      <path class="cls-3" d="M81.38,4.03h-.24v-1.97c-.05,.13-.1,.24-.14,.34l-.18-.19c.24-.49,.38-1.05,.42-1.68h-.37V.27h1.24v.26h-.63c-.03,.38-.08,.69-.14,.94h.59c.05,.01,.08,.04,.08,.09v1.96c-.01,.06-.04,.09-.08,.09h-.55v.43Zm.34-.69s.05-.02,.05-.05V1.77s0-.03-.03-.03h-.31s-.05,.02-.05,.05v1.56h.34Zm.84-.55c-.03,.35-.1,.77-.21,1.25l-.24-.05c.13-.51,.2-.93,.21-1.25l.24,.05Zm-.21-1.13V.36s.02-.07,.06-.07h2.15v.26h-.98v.36h.9v.26h-.9v.36h.92v.26h-.92v.39h.95s.05,.02,.05,.07c.04,.63,.05,1.06,.02,1.3-.01,.21-.07,.37-.18,.48s-.39,.13-.83,.05l-.02-.26c.27,.05,.43,.07,.5,.07s.11-.02,.14-.05c.09-.09,.13-.19,.15-.31,.02-.16,.02-.52-.02-1.08,.01-.01,0-.02-.03-.02h-1.91s-.05-.02-.05-.05v-.72Zm1-1.11h-.72s-.03,.02-.03,.03v.33h.75v-.36Zm0,.62h-.75v.36h.75v-.36Zm0,1.01v-.39h-.75v.39h.75Zm-.37,.6c.06,.41,.1,.76,.1,1.05h-.24c-.01-.38-.04-.72-.08-1.03l.22-.02Zm.43-.07c.13,.38,.21,.67,.26,.89l-.22,.05c-.06-.27-.15-.57-.26-.87l.22-.07Zm.56-.12c.1,.25,.18,.49,.24,.7l-.22,.07c-.06-.25-.15-.48-.24-.69l.22-.09Z"/>
      <path class="cls-3" d="M86.62,.29v.26h-1.66V.29h1.66Zm-.43,2.38l.23,.07c-.04,.22-.11,.47-.21,.75,.17-.07,.31-.13,.42-.17l.1,.22c-.43,.19-.98,.36-1.66,.5l-.1-.24c.4-.08,.71-.15,.95-.22,.14-.37,.23-.67,.27-.91Zm-1.03-.38s-.03-.02-.03-.03V.94s.02-.03,.03-.03h1.3s.03,.02,.03,.03v1.32s-.02,.03-.03,.03h-1.3Zm.24,.36c.08,.18,.16,.43,.22,.74l-.24,.07c-.06-.31-.13-.55-.21-.72l.23-.09Zm-.02-1.49s-.02,0-.02,.02v.86h.87s.02,0,.02-.02v-.84s0-.02-.02-.02h-.85Zm2.01,2.69c-.27,.19-.53,.31-.79,.34l-.02-.26c.21-.03,.44-.14,.68-.31l.13,.22Zm-.45-.38s-.03-.02-.03-.03V.99s.02-.03,.03-.03h.48c.05-.14,.1-.27,.14-.41h-.77V.29h1.93v.26h-.9c-.03,.1-.08,.24-.14,.41h.85s.03,.02,.03,.03V3.45s-.02,.03-.03,.03h-1.59Zm1.38-1.75v-.5s0-.02-.02-.02h-1.14s-.02,0-.02,.02v.5h1.17Zm0,.74v-.48h-1.17v.48h1.17Zm-1.17,.26v.5h1.16s.02,0,.02-.02v-.48h-1.17Zm.95,.91c.18,.08,.39,.19,.63,.34l-.11,.22c-.25-.15-.46-.26-.63-.33l.11-.24Z"/>
    </g>
    <g>
      <path class="cls-1" d="M91.97,1.49c.03-.31,.14-.56,.33-.74s.43-.27,.73-.27,.54,.09,.73,.26,.27,.42,.27,.72c0,.34-.11,.58-.33,.73,.3,.13,.44,.42,.44,.85,0,.34-.11,.61-.32,.81-.21,.2-.49,.3-.83,.3-.32,0-.59-.11-.81-.32s-.34-.47-.34-.78h.59c0,.17,.06,.31,.17,.43s.25,.17,.42,.17,.3-.06,.41-.19c.1-.13,.15-.28,.15-.46,0-.15-.05-.29-.16-.42-.11-.13-.23-.19-.37-.19-.02,0-.03,0-.05,0h-.13s0-.39,0-.39h.07c.14,0,.27-.05,.37-.15s.16-.23,.16-.38c0-.36-.16-.54-.48-.54s-.48,.18-.48,.54h-.55Z"/>
      <path class="cls-1" d="M95.03,1.08V.58h1.08v3.5h-.59V1.08h-.5Z"/>
      <path class="cls-2" d="M98.19,2.32v.53h-1.12v-.53h1.12Z"/>
      <path class="cls-1" d="M101.21,2.95v.46h-.41v.66h-.54v-.66h-1.58v-.26l1.55-2.64h.57V2.95h.41Zm-.95-1.61l-.89,1.61h.89V1.34Z"/>
      <path class="cls-1" d="M102.52,1.08l-.14,.63h.27c.33-.01,.6,.11,.81,.34s.31,.52,.31,.86c0,.38-.12,.68-.35,.91s-.54,.35-.91,.35c-.42,0-.76-.15-1.03-.46l.17-.51c.22,.31,.49,.47,.81,.47,.2,0,.37-.07,.51-.21,.14-.14,.21-.33,.21-.57s-.07-.43-.22-.56-.33-.2-.55-.2-.4,.08-.54,.23h-.11l.36-1.77h1.51v.5h-1.11Z"/>
    </g>
    <path class="cls-1" d="M104.66,1.83h-.41v-.25h.41V.68h.24v.9h.41v.25h-.41v1.68c.13-.09,.24-.17,.33-.23l.14,.18c-.23,.2-.58,.42-1.04,.67l-.14-.2c.18-.1,.33-.19,.46-.27V1.83Zm.7,1.47v-.25h1.18V1.05h-1.08v-.25h2.33v.25h-1V3.05h1.13v.25h-1.13v1.22h-.24v-1.22h-1.18Zm.38-1.88c.14,.31,.27,.7,.4,1.17l-.24,.08c-.13-.5-.25-.88-.38-1.15l.22-.1Zm2.02,.07c-.07,.34-.21,.75-.41,1.22l-.22-.08c.21-.5,.35-.91,.41-1.22l.22,.08Z"/>
  </g>
</svg>