<?xml version="1.0" encoding="UTF-8"?>
<svg id="_圖層_2" data-name="圖層 2" xmlns="http://www.w3.org/2000/svg" viewBox="0 0 20.63 4.4">
  <defs>
    <style>
      .cls-1 {
        fill: #fff;
      }
    </style>
  </defs>
  <g id="_圖層_1-2" data-name="圖層 1">
    <path class="cls-1" d="M3.03,4.17c-.07,.04-.16,.07-.26,.1-.1,.03-.22,.06-.34,.08-.13,.02-.26,.04-.39,.04-.29,0-.56-.05-.81-.14-.25-.09-.46-.23-.64-.42-.18-.19-.32-.42-.42-.69-.1-.27-.15-.58-.15-.93s.05-.66,.15-.93c.1-.27,.24-.5,.43-.69,.18-.19,.4-.33,.66-.43,.26-.1,.54-.15,.84-.15,.24,0,.47,.03,.67,.08,.2,.06,.38,.12,.54,.2-.03,.06-.05,.14-.07,.23-.02,.1-.03,.18-.04,.25h-.03s-.09-.09-.16-.15c-.07-.06-.14-.12-.23-.18-.09-.06-.19-.11-.3-.14-.11-.04-.23-.06-.37-.06-.22,0-.42,.04-.61,.12-.19,.08-.35,.2-.49,.36-.14,.16-.25,.37-.33,.62-.08,.25-.12,.54-.12,.89s.04,.64,.12,.89c.08,.25,.19,.45,.33,.62,.14,.16,.3,.28,.49,.36,.19,.08,.39,.12,.61,.12,.13,0,.26-.02,.37-.06,.11-.04,.22-.08,.31-.13,.09-.05,.18-.11,.26-.17,.08-.06,.14-.11,.19-.16l.02,.02-.05,.36s-.09,.07-.16,.11Z"/>
    <path class="cls-1" d="M3.92,1.27c.1-.27,.24-.5,.43-.69,.18-.19,.4-.33,.66-.43,.26-.1,.54-.15,.84-.15s.59,.05,.84,.15c.26,.1,.48,.24,.66,.43,.18,.19,.33,.42,.43,.69,.1,.27,.15,.58,.15,.93s-.05,.66-.15,.93c-.1,.27-.24,.5-.43,.69-.18,.19-.4,.33-.66,.42-.26,.09-.54,.14-.84,.14s-.58-.05-.84-.14c-.26-.09-.48-.23-.66-.42-.18-.19-.33-.42-.43-.69-.1-.27-.15-.58-.15-.93s.05-.66,.15-.93Zm3.35,.05c-.08-.25-.19-.45-.33-.62-.14-.16-.3-.28-.49-.36-.19-.08-.39-.12-.61-.12s-.42,.04-.6,.12c-.19,.08-.35,.2-.49,.36-.14,.16-.25,.37-.33,.62-.08,.25-.12,.54-.12,.89s.04,.64,.12,.89c.08,.25,.19,.45,.33,.62,.14,.16,.3,.28,.49,.36,.19,.08,.39,.12,.6,.12s.42-.04,.61-.12c.19-.08,.35-.2,.49-.36,.14-.16,.25-.37,.33-.62,.08-.25,.12-.54,.12-.89s-.04-.64-.12-.89Z"/>
    <path class="cls-1" d="M9.51,3.44c-.14-.34-.29-.7-.45-1.08-.16-.38-.33-.76-.49-1.16-.17-.39-.33-.77-.48-1.12,.06,0,.12,.02,.17,.02,.06,0,.11,0,.16,0s.1,0,.16,0c.06,0,.11-.01,.17-.02,.09,.27,.2,.56,.31,.85,.11,.3,.23,.6,.36,.91,.13,.31,.26,.62,.39,.94,.13,.32,.27,.63,.4,.94,.08-.17,.16-.36,.25-.56,.09-.21,.18-.42,.27-.65,.09-.22,.18-.45,.27-.68,.09-.23,.18-.46,.26-.67,.08-.21,.16-.41,.23-.6,.07-.19,.13-.35,.17-.48,.09,.02,.17,.03,.24,.03s.14-.01,.24-.03c-.33,.72-.66,1.42-.96,2.13-.31,.7-.6,1.41-.89,2.11-.07,0-.14-.01-.21-.01-.09,0-.16,0-.21,.01-.1-.24-.22-.53-.36-.88Z"/>
    <path class="cls-1" d="M13.24,.87c-.01-.26-.03-.53-.05-.79,.25,0,.49,.02,.73,.02,.24,0,.49,0,.73,0s.49,0,.73,0c.24,0,.48-.01,.73-.02-.02,.06-.02,.12-.02,.19s0,.12,.02,.19c-.17,0-.33-.02-.48-.02-.14,0-.3-.02-.46-.02-.16,0-.34-.02-.53-.02-.19,0-.42,0-.69,0,0,.13-.01,.26-.02,.38,0,.12-.01,.26-.01,.41,0,.16,0,.32,0,.47,0,.15,0,.27,0,.35,.24,0,.46,0,.65,0,.19,0,.37,0,.52-.02s.3-.01,.44-.02c.13,0,.26-.01,.38-.02-.02,.06-.02,.13-.02,.19,0,.06,0,.12,.02,.19-.14-.01-.31-.02-.5-.03-.19,0-.38-.01-.57-.02-.19,0-.37,0-.53,0-.17,0-.3,0-.4,0,0,.04,0,.08,0,.12,0,.04,0,.1,0,.16v.61c0,.23,0,.43,0,.58,0,.15,0,.27,.01,.35h.57c.21,0,.41,0,.61,0,.2,0,.39-.01,.57-.02,.18-.01,.33-.03,.46-.05-.01,.03-.02,.06-.02,.1,0,.04,0,.07,0,.1,0,.07,0,.12,.02,.16-.25,0-.49-.01-.73-.01h-1.49c-.25,0-.49,0-.75,.01,.02-.26,.03-.53,.05-.79,.01-.26,.02-.53,.02-.8V1.67c0-.27,0-.54-.02-.8Z"/>
    <path class="cls-1" d="M16.99,.88c-.01-.26-.03-.53-.04-.8,.14,0,.28,.02,.42,.02,.14,0,.27,0,.42,0s.28,0,.42-.02c.14-.01,.28-.02,.42-.02,.2,0,.4,.02,.58,.05,.18,.03,.35,.09,.49,.16,.14,.08,.25,.18,.33,.3,.08,.12,.12,.28,.12,.46,0,.2-.05,.37-.16,.51s-.23,.26-.38,.35c-.15,.09-.31,.16-.49,.22-.17,.05-.33,.09-.47,.1,.06,.06,.14,.15,.24,.26,.1,.11,.22,.23,.34,.37,.13,.13,.26,.27,.39,.42,.14,.15,.27,.29,.39,.42,.13,.13,.25,.26,.36,.37s.2,.2,.27,.25c-.07,0-.15-.01-.22-.01h-.43c-.07,0-.14,0-.21,.01-.07-.09-.18-.22-.33-.39-.15-.17-.31-.36-.49-.56s-.36-.39-.55-.59c-.19-.2-.36-.36-.51-.5h-.28v.45c0,.27,0,.54,.02,.8,.01,.26,.03,.52,.04,.78-.11,0-.23-.01-.36-.01s-.25,0-.36,.01c.01-.25,.03-.51,.04-.78,.01-.26,.02-.53,.02-.8V1.68c0-.27,0-.54-.02-.8Zm.84,1.17c.08,0,.17,0,.27,0,.15,0,.31-.01,.47-.04,.16-.03,.31-.08,.45-.15,.14-.07,.25-.17,.34-.29,.09-.12,.14-.27,.14-.46,0-.16-.04-.29-.11-.4s-.16-.19-.27-.25c-.11-.06-.23-.1-.37-.13-.13-.02-.26-.03-.39-.03-.17,0-.31,0-.42,0-.11,0-.21,.01-.28,.02,0,.23-.02,.45-.03,.67,0,.22-.01,.44-.01,.67v.35c.07,.01,.14,.02,.22,.02Z"/>
  </g>
</svg>