<?xml version="1.0" encoding="UTF-8"?>
<svg id="_圖層_2" data-name="圖層 2" xmlns="http://www.w3.org/2000/svg" viewBox="0 0 45.13 11.07">
  <defs>
    <style>
      .cls-1 {
        fill: #231815;
      }
    </style>
  </defs>
  <g id="_圖層_1-2" data-name="圖層 1">
    <g>
      <path class="cls-1" d="M15.94,3.66h2.93l.17-.19h.05s.08,0,.08,0l.36,.31v.06s-.02,.09-.07,.13c-.07,.07-.11,.15-.11,.25v.08s0,.82,0,.82h.13l.24-.33s.01,0,.02,0c.01,0,.02,0,.03,0,.03,0,.06,0,.08,.02l.38,.33,.04,.08-.04,.03h-5.46s-.06-.05-.09-.08c0,0,0,0-.01-.02l.03-.02h.75v-1.62s.01-.03,.05-.03h.05l.38,.19Zm-.27-2.7v.74h1.13l.26-.31h.05s.08,0,.08,0l.33,.29s.04,.07,.04,.1c0,.01,0,.02-.01,.03,0,0-.01,.02-.03,.02h-.48c0,.75-.18,1.22-.55,1.4-.05,.01-.09,.02-.14,.03-.08,0-.13-.05-.15-.14,0-.04-.02-.09-.05-.14-.03-.05-.09-.11-.16-.19-.02-.01-.04-.02-.05-.03s-.02-.02-.02-.02h.02s.1,0,.1,0l.33,.03c.1-.02,.17-.14,.23-.37l.02-.57h-.95c-.12,.83-.33,1.44-.64,1.83-.12,.1-.19,.15-.22,.15-.01-.01-.02-.02-.02-.03,0-.02,0-.04,0-.05s.02-.07,.07-.18c.22-.51,.33-1.15,.33-1.93,0-.09,0-.25-.02-.47s-.02-.39-.02-.51v-.03s.02-.05,.05-.05h.08s.42,.27,.42,.27h1.77c-.03-.11-.05-.21-.07-.31-.02-.1-.04-.21-.05-.34v-.03c0-.07,.02-.11,.08-.11l.07,.02,.45,.13s.07,.07,.07,.1c0,.03-.02,.05-.07,.07-.08,.02-.11,.1-.11,.23,0,.03,0,.06,.01,.1,0,.04,.02,.09,.03,.13h1.37l.3-.37h.05s.08,0,.08,0l.36,.35,.05,.11s-.01,.03-.04,.03h-2.12c.08,.23,.17,.43,.27,.62,.1,.19,.22,.38,.35,.56,.06-.08,.14-.19,.21-.33s.16-.33,.25-.53c.03-.03,.06-.04,.1-.04l.1,.03,.36,.31v.1c.01,.06-.03,.08-.13,.08h-.05s-.6,.65-.6,.65c.18,.17,.48,.34,.9,.5l.4-.67,.07-.09s.02,.02,.02,.03c0,.01,0,.03,0,.04v.06c-.06,.19-.1,.35-.1,.47,0,.16,.05,.28,.14,.36,.05,.07,.08,.12,.08,.15,0,.08-.08,.11-.23,.11h-.13c-.1,0-.21,0-.32-.04s-.24-.07-.38-.13c-.15-.08-.3-.17-.43-.25s-.24-.16-.31-.23c-.22,.16-.44,.29-.66,.41-.22,.12-.46,.22-.72,.32l-.27,.03s-.04,0-.05,0c0,0-.02,0-.02-.01,0-.04,.15-.13,.44-.25,.21-.12,.39-.24,.54-.35,.15-.11,.31-.25,.47-.4-.31-.42-.56-.91-.74-1.48h-1.81Zm.91,4.16v-1.32h-.64v1.32h.64Zm1.22,0v-1.32h-.76v1.32h.76Zm1.1,0v-1.32h-.65v1.32h.65Zm.18-4.53c-.04,.07-.1,.1-.15,.1s-.13-.04-.2-.12c-.04-.07-.1-.15-.16-.23-.03-.04-.09-.12-.18-.23-.01,0-.02-.02-.03-.03,0,0-.01-.02-.01-.02,.02-.01,.03-.02,.04-.02,.46,.11,.69,.29,.69,.53Z"/>
      <path class="cls-1" d="M25.14,1.03h.58l.25-.31,.04-.02,.07,.02,.33,.29s.04,.06,.05,.09c0,.02-.02,.03-.05,.05h-1.49c.18,.05,.27,.11,.27,.17,0,.03-.03,.07-.1,.11v.23c-.01,.06-.02,.11-.02,.14l-.04,.27h.5l.16-.14,.08-.02h.06l.29,.23,.02,.03v.03s0,.05-.02,.07c-.09,.09-.13,.19-.13,.3v.07c.01,.15,0,.3,0,.45s-.03,.31-.06,.48c-.05,.29-.11,.62-.2,.98-.21,.36-.44,.58-.7,.66l-.12,.02c-.1,0-.16-.04-.16-.11v-.03c0-.14-.09-.3-.29-.49v-.02s.02-.03,.07-.03h.07c.12,.03,.23,.05,.32,.05,.16,0,.29-.05,.39-.15,.03-.15,.06-.31,.09-.49,.03-.18,.06-.37,.08-.59,.02-.16,.03-.34,.04-.56,.01-.21,.02-.41,.02-.6h-.53c-.1,.77-.28,1.48-.54,2.13-.29,.42-.53,.69-.7,.82l-.1,.02-.02-.02,.02-.04,.04-.06c.4-.57,.67-1.37,.8-2.41l.05-.71,.02-.77h-.8l-.08-.04-.03-.02,.03-.02s.05-.02,.09-.03h.85V0l.62,.18s.07,.05,.07,.08c0,.05-.07,.1-.21,.16v.61Zm3.57-.02h.06s.08,0,.08,0l.32,.29,.03,.1s-.01,.05-.03,.06h-.76l.38,.17,.05,.05,.02,.05s-.05,.08-.14,.11c-.06,.06-.11,.27-.15,.62-.06,.16-.11,.3-.15,.4-.06,.15-.11,.27-.15,.36-.09,.21-.17,.39-.25,.53,.35,.38,.78,.7,1.29,.93,.02,.02,.04,.04,.04,.06,0,.03-.06,.06-.17,.09-.05,.01-.11,.02-.16,.04-.06,.02-.11,.03-.17,.06-.11,.03-.23,.09-.35,.16-.25-.27-.5-.61-.73-1.02-.48,.48-1.07,.87-1.75,1.18l-.13,.03-.02-.02,.03-.02,.08-.06c.62-.43,1.14-.92,1.56-1.47-.11-.23-.2-.52-.29-.86-.07-.31-.13-.7-.19-1.16-.15,.29-.28,.52-.4,.7s-.23,.32-.35,.44l-.04,.02h-.03s-.01,0-.01,0l.04-.11c.16-.35,.32-.77,.48-1.25,.15-.46,.27-.93,.38-1.42l.63,.2s.06,.06,.07,.11c0,.05-.07,.1-.2,.15l-.15,.4-.15,.37h1.14l.25-.31Zm-.53,.45h-.96l.05,.55c.08,.32,.16,.58,.23,.79s.17,.38,.27,.53c.17-.41,.31-1.04,.41-1.87Z"/>
    </g>
    <g>
      <path class="cls-1" d="M3.02,9.2s.02,0,.03,0c.01,0,.03,0,.04,.01,.03,.02,.04,.05,.04,.09s-.01,.07-.04,.09c-.01,0-.02,.01-.04,.02H.11s-.02,0-.03,0c-.01,0-.03,0-.04-.02-.03-.02-.04-.04-.04-.08,0-.02,0-.04,.01-.06,0-.01,.02-.02,.03-.03,.01,0,.02,0,.04-.01,.01,0,.02,0,.03,0H3.02Z"/>
      <path class="cls-1" d="M9.83,7.96v-.19s0-.03,0-.04c0-.03,0-.06,.02-.08,.03-.06,.08-.09,.16-.09s.13,.03,.16,.09c.01,.02,.02,.05,.02,.08,0,.01,0,.03,0,.04v.18h1.26s.02,0,.03,0c.01,0,.02,0,.03,.01,.02,.01,.04,.04,.04,.07,0,.03-.01,.06-.03,.07,0,0-.02,0-.03,.01,0,0-.02,0-.03,0h-2.31c-.11,0-.17,.06-.17,.19v.9c0,.3-.03,.57-.08,.79-.04,.2-.11,.4-.21,.59l-.05,.1s-.05,.09-.08,.12c-.07,.11-.12,.16-.16,.16-.05,0-.08-.03-.08-.09,0,0,0-.02,.01-.04,0-.02,.01-.03,.02-.06l.04-.09c.09-.21,.15-.44,.18-.69,.02-.1,.03-.22,.03-.34,0-.1,0-.21,0-.35v-1.01c0-.25,.12-.37,.37-.37h.85Zm.21,2.8v-.71h-.89s-.02,0-.03,0c-.01,0-.02,0-.03-.01-.03-.01-.04-.04-.04-.07,0-.03,.01-.06,.04-.07,0,0,.02,0,.03-.01,0,0,.02,0,.03,0h.89v-1.42s0-.03,0-.04c0-.03,0-.06,.02-.08,.03-.06,.08-.1,.16-.1s.13,.03,.16,.1c0,.02,.02,.05,.02,.08,0,0,0,.02,0,.03v1.43h.85s.02,0,.03,0c.01,0,.02,0,.03,.01,.03,.01,.04,.04,.04,.07,0,.04-.01,.06-.04,.07,0,0-.02,0-.03,.01,0,0-.02,0-.03,0h-.85v.71h1.05s.02,0,.03,0c.01,0,.02,0,.03,.01,.02,.01,.04,.04,.04,.07s-.01,.06-.03,.07c0,0-.02,0-.03,.01h-2.58s-.02,0-.03,0c-.01,0-.02,0-.03-.01-.03-.01-.04-.04-.04-.07,0-.04,.01-.06,.03-.07,0,0,.02,0,.03-.01,0,0,.02,0,.03,0h1.14Zm-.41-1.86c.03,.08,.07,.16,.12,.25,.07,.11,.14,.22,.23,.33,.02,.02,.03,.05,.03,.08,0,.06-.03,.09-.08,.09-.02,0-.05-.02-.09-.05-.04-.03-.08-.07-.13-.12-.1-.1-.19-.2-.25-.28-.06,.09-.12,.18-.19,.27-.04,.05-.08,.09-.11,.12-.03,.04-.06,.05-.08,.05-.05,0-.08-.03-.08-.09,0-.01,0-.03,.02-.06l.13-.26c.08-.18,.16-.42,.23-.71v-.05s.03-.03,.04-.05c.03-.04,.07-.05,.13-.05,.04,0,.08,.01,.12,.04,.05,.04,.07,.08,.07,.14,0,.04-.01,.09-.04,.17l-.04,.09-.04,.08Zm1.4-.02c.07,.15,.15,.27,.22,.36,.03,.04,.07,.08,.11,.12l.13,.12s.02,.02,.02,.03c0,.02,.01,.03,.01,.05,0,.06-.03,.08-.08,.08-.03,0-.12-.05-.25-.15-.14-.1-.25-.2-.34-.3-.03,.05-.06,.09-.08,.14-.03,.06-.07,.1-.1,.15-.08,.11-.14,.17-.17,.17-.05,0-.08-.03-.08-.08,0,0,0-.03,.02-.06l.12-.28c.04-.11,.08-.21,.11-.32,.01-.04,.03-.1,.04-.17l.05-.2c.02-.1,.08-.15,.18-.15,.13,0,.2,.06,.2,.18,0,.03-.01,.08-.04,.15,0,.03-.02,.05-.04,.09l-.03,.08Z"/>
      <path class="cls-1" d="M17.58,10.59c0,.13,.06,.2,.18,.2h1.98s.02,0,.03,0c.01,0,.02,0,.03,.01,.02,.01,.03,.04,.03,.07s-.01,.06-.04,.07c0,0-.02,0-.03,.01,0,0-.02,0-.03,0h-2.13c-.27,0-.4-.13-.4-.4v-1.68h-.32s-.02,0-.03,0c-.01,0-.02,0-.03-.01-.02-.02-.03-.04-.03-.07,0-.04,.01-.06,.03-.07,0,0,.02,0,.03-.01,0,0,.02,0,.03,0h.32v-.85s0-.03,0-.04c0-.03,0-.06,.02-.09,.03-.07,.08-.1,.16-.1s.14,.03,.17,.1c.01,.03,.02,.06,.02,.09,0,.01,0,.03,0,.04v.85h.58v-.89s0-.02,0-.04c0-.03,0-.06,.02-.09,.03-.07,.08-.1,.16-.1s.14,.03,.17,.1c.01,.03,.02,.05,.02,.09,0,.01,0,.03,0,.04v.89h.59v-.89s0-.03,0-.04c0-.03,0-.06,.02-.09,.03-.07,.08-.1,.17-.1s.14,.03,.17,.1c.01,.03,.02,.05,.02,.09,0,.01,0,.03,0,.04v.89h.35s.02,0,.03,0c.01,0,.02,0,.03,.01,.02,.01,.04,.04,.04,.07s-.01,.06-.04,.07c0,0-.02,0-.03,.01,0,0-.02,0-.03,0h-.35v.99c0,.22-.12,.33-.35,.33h-.63c-.14,0-.23-.03-.29-.08-.05-.05-.07-.13-.07-.26v-.99h-.58v1.71Zm1.54-1.71h-.59v.98c0,.12,.05,.17,.15,.17h.28c.1,0,.16-.06,.16-.17v-.98Z"/>
      <path class="cls-1" d="M26.52,9.09c-.1,.17-.22,.33-.38,.47-.12,.12-.26,.23-.41,.33-.06,.04-.12,.08-.19,.11l-.16,.08c-.09,.04-.14,.06-.15,.06-.05,0-.08-.03-.08-.09,0-.03,.02-.06,.07-.09,.38-.24,.66-.53,.82-.87h-.28c-.23,0-.34-.11-.34-.33v-.75c0-.22,.11-.33,.34-.33h1.98c.23,0,.34,.11,.34,.33v.75c0,.22-.11,.33-.34,.33h-.3c.07,.16,.18,.33,.35,.49,.16,.16,.32,.29,.49,.38,.04,.02,.07,.05,.07,.09,0,.06-.02,.09-.07,.09-.03,0-.1-.02-.2-.08-.12-.06-.24-.13-.37-.21-.15-.1-.29-.21-.4-.33-.14-.14-.24-.28-.31-.43h-.49Zm-.1,.58s.02,.04,.02,.07c0,.01,0,.02,0,.04v.03c0,.13,0,.25-.02,.34-.02,.12-.05,.22-.09,.31-.09,.21-.26,.37-.51,.5-.07,.04-.15,.07-.21,.09-.06,.02-.09,.03-.11,.03-.05,0-.08-.03-.08-.09,0-.04,.02-.06,.07-.08,.13-.06,.25-.14,.33-.23,.07-.08,.13-.18,.17-.29,.03-.09,.05-.18,.06-.28,0-.04,0-.08,.01-.12v-.09c0-.11,0-.18,.01-.2,.02-.08,.08-.11,.18-.11,.08,0,.13,.03,.16,.09Zm.15-1.38v-.44h-.62c-.1,0-.15,.05-.15,.16v.28h.77Zm-.77,.17v.3c0,.11,.05,.16,.15,.16h.62v-.46h-.77Zm1.92-.17v-.28c0-.11-.05-.16-.15-.16h-.63v.44h.78Zm-.78,.17v.46h.63c.1,0,.15-.05,.15-.16v-.3h-.78Zm.51,2.39s0,.02,0,.04c0,.03,0,.06-.02,.08-.03,.07-.08,.1-.16,.1s-.13-.03-.16-.1c-.01-.02-.02-.05-.02-.08,0-.01,0-.03,0-.04v-1.04s0-.02,0-.04c0-.03,0-.06,.02-.09,.03-.07,.08-.1,.16-.1s.13,.03,.16,.1c.01,.03,.02,.05,.02,.09,0,.01,0,.02,0,.04v1.04Z"/>
      <path class="cls-1" d="M33.68,8.61s.04,.02,.07,.03c.05,.03,.09,.06,.13,.08,.1,.07,.17,.12,.2,.17,.03,.03,.04,.07,.04,.11,0,.13-.06,.19-.18,.19-.05,0-.09-.04-.13-.11-.03-.06-.07-.12-.11-.18l-.12-.15s-.01-.02-.02-.03c0-.01-.01-.02-.01-.04,0-.06,.03-.09,.08-.09,0,0,.03,0,.05,.02Zm0,1.88c.07-.13,.13-.28,.2-.45,.07-.18,.12-.35,.16-.52l.02-.06s.04-.03,.06-.03c.05,0,.08,.03,.08,.09,0,.01,0,.05-.02,.12l-.12,.58c-.03,.13-.06,.24-.08,.34-.04,.16-.08,.27-.11,.32-.03,.06-.07,.08-.13,.08-.12,0-.18-.06-.18-.2,0-.03,.04-.12,.12-.28Zm.18-2.37c-.03-.06-.07-.13-.12-.2-.03-.05-.07-.1-.13-.18-.01-.01-.02-.03-.02-.06,0-.06,.03-.09,.08-.09,.01,0,.03,0,.05,.02l.17,.11,.11,.08s.05,.05,.08,.07c.05,.06,.08,.11,.08,.16,0,.12-.05,.18-.17,.18-.06,0-.1-.04-.14-.11Zm.62,.62s-.08,.01-.14,.03l-.12,.02c-.07,0-.11-.05-.11-.14,0-.08,.09-.13,.26-.13l.12-.18s-.04-.02-.06-.04c-.02-.02-.05-.06-.08-.11l-.08-.11s-.04-.06-.05-.07c0-.01-.01-.02-.01-.04,0-.06,.03-.09,.08-.09,.02,0,.05,.01,.08,.04,.03-.07,.06-.15,.09-.25,.02-.07,.06-.1,.11-.1,.09,0,.14,.05,.14,.14,0,.01,0,.03,0,.04,0,.02-.02,.03-.03,.05-.03,.05-.09,.11-.18,.2,.07,.05,.11,.09,.12,.13,.02-.04,.05-.1,.08-.17,.03-.06,.07-.1,.12-.1,.11,0,.16,.05,.16,.16,0,.04-.04,.11-.12,.2-.03,.04-.07,.08-.12,.13-.03,.03-.07,.08-.14,.14,.08,0,.16,0,.24-.01l-.02-.05s-.01-.04-.01-.05c0-.06,.03-.09,.08-.09,.03,0,.07,.05,.13,.14,.07,.11,.11,.19,.11,.22,0,.09-.04,.14-.13,.14-.06,0-.1-.05-.12-.16l-.15,.03v.57c0,.12-.04,.18-.12,.18-.05,0-.08-.02-.1-.06-.02-.03-.02-.07-.02-.12v-.52Zm-.33,.54s0-.02,0-.03c0-.02,0-.03,.01-.06,0,0,0-.02,.01-.03,0,0,0-.02,0-.03,0-.02,0-.03,0-.04,.04-.16,.08-.24,.13-.24,.08,0,.12,.04,.12,.13,0,.04-.03,.11-.08,.22-.03,.05-.05,.09-.08,.12-.03,.04-.05,.05-.07,.05-.05,0-.08-.03-.08-.09Zm.36,1.16c-.12,0-.18-.05-.18-.15,0-.01,0-.05,.02-.11l.04-.15c.03-.1,.09-.15,.18-.15h1.57s.06-.02,.06-.07v-.08s-.02-.07-.06-.07h-1.7s-.02,0-.03,0c-.01,0-.02,0-.03-.01-.02-.01-.03-.04-.03-.07,0-.04,.01-.06,.04-.08,0,0,.02,0,.03-.01h1.91c.16,0,.24,.07,.24,.22v.1c0,.15-.08,.23-.24,.23h-1.53s-.04,.02-.05,.05l-.03,.13s.02,.04,.05,.04h1.67c.13,0,.19,.06,.19,.17,0,.1-.05,.23-.15,.39-.08,.13-.23,.2-.42,.2h-.66s-.02,0-.02,0c-.01,0-.02,0-.03,0-.02-.02-.03-.04-.03-.08s.01-.06,.03-.07c0,0,.02,0,.03-.01,0,0,.02,0,.03,0h.52c.11,0,.19-.05,.24-.16,.02-.04,.04-.08,.05-.13,.01-.04,.02-.06,.02-.08,0-.03-.02-.05-.05-.05h-1.65Zm.35-1.59s.08,.04,.14,.12c.06,.09,.1,.15,.1,.2,0,.1-.04,.15-.13,.15-.05,0-.09-.05-.11-.16l-.05-.18s0-.03,0-.04c0-.06,.02-.09,.07-.09Zm.84-.9s.02,0,.03,0c.01,0,.02,0,.03,.01,.02,.01,.03,.03,.03,.06s-.01,.05-.04,.07c0,0-.02,0-.03,0,0,0-.02,0-.03,0h-.53s-.02,0-.02,0c-.01,0-.02,0-.03,0-.02-.02-.03-.04-.03-.07s.01-.05,.03-.06c0,0,.02,0,.03-.01,0,0,0,0,.01,0h.54Zm.06,1.28c0,.11-.06,.16-.17,.16h-.29c-.11,0-.17-.05-.17-.16v-.18c0-.11,.06-.16,.17-.16h.29c.12,0,.17,.05,.17,.16v.18Zm-.12-1.6s.02,0,.03,0c.01,0,.02,0,.03,0,.02,.02,.03,.04,.03,.07s-.01,.05-.03,.07c0,0-.02,0-.03,0,0,0-.01,0-.02,0h-.39s-.02,0-.02,0c-.01,0-.02,0-.03,0-.02-.02-.03-.04-.03-.07,0-.03,.01-.06,.03-.07,0,0,.02,0,.03-.01h.41Zm.03,.63s.02,0,.03,0c.01,0,.02,0,.03,.01,.02,.01,.03,.03,.03,.06,0,.03-.01,.06-.03,.07,0,0-.02,.01-.03,.01,0,0-.01,0-.02,0h-.42s-.02,0-.02,0c-.01,0-.02,0-.03,0-.02-.02-.03-.04-.03-.07,0-.03,.01-.06,.03-.07,0,0,.02,0,.03-.01,0,0,.02,0,.03,0h.42Zm0,.32s.02,0,.03,0,.02,0,.03,.01c.02,.01,.03,.03,.03,.06s-.01,.05-.03,.06c0,0-.02,0-.03,.01,0,0-.02,0-.02,0h-.43s-.02,0-.03,0c0,0-.02,0-.03-.01-.02-.01-.03-.03-.03-.06s.01-.05,.03-.06c0,0,.02,0,.03-.01,0,0,.01,0,.02,0h.43Zm-.12,.5s-.02-.05-.04-.05h-.12s-.02,0-.03,0c-.01,0-.02,.02-.02,.04v.09s.01,.05,.04,.05h.12s.04-.02,.04-.05v-.09Zm.57-.36c-.05,.01-.1,.02-.15,.03-.03,0-.05,0-.07,.01h-.04c-.07,0-.1-.04-.1-.13,0-.08,.07-.12,.21-.12l.11-.18s-.03,0-.04-.02l-.11-.15s-.02-.03-.03-.03c-.02-.02-.03-.04-.03-.05-.02-.03-.04-.05-.04-.07,0-.01-.01-.02-.01-.04,0-.06,.03-.09,.08-.09,.01,0,.02,0,.04,.01,0,0,.01,0,.02,.01l.02,.02c.02-.06,.05-.15,.09-.26,.02-.06,.06-.09,.11-.09,.09,0,.14,.04,.14,.14,0,.03-.03,.08-.08,.15l-.07,.09-.06,.07c.06,.05,.1,.08,.12,.11l.1-.2s.07-.07,.11-.07c.11,0,.17,.06,.17,.17,0,.04-.02,.07-.04,.11l-.32,.37h.12c.06-.01,.1-.01,.13-.02,0,0,0-.02-.02-.05,0-.03-.01-.04-.01-.05,0-.06,.03-.09,.08-.09,.03,0,.06,.03,.1,.09l.09,.14c.03,.06,.05,.1,.05,.13,0,.09-.04,.14-.13,.14-.06,0-.1-.06-.12-.18l-.14,.03v.59c0,.12-.04,.18-.12,.18-.05,0-.08-.02-.1-.06-.01-.03-.02-.07-.02-.11v-.53Zm-.34,.56s0-.02,0-.04c0-.02,0-.04,.01-.07l.02-.11c.02-.14,.06-.2,.13-.2,.09,0,.13,.05,.13,.14,0,.04-.03,.11-.08,.21-.06,.11-.1,.16-.14,.16-.05,0-.08-.03-.08-.09Zm.73-.44s.08,.05,.15,.14c.08,.1,.11,.17,.11,.22,0,.11-.05,.17-.15,.17-.05,0-.1-.06-.13-.18l-.06-.22s-.01-.04-.01-.04c0-.06,.03-.09,.08-.09Z"/>
      <path class="cls-1" d="M42.21,9.16c0-.14,.03-.23,.1-.29,.05-.04,.14-.07,.27-.07h2.46s.02,0,.03,0c.01,0,.02,0,.03,0,.02,.01,.03,.04,.03,.07,0,.04-.01,.06-.04,.07,0,0-.02,0-.03,.01,0,0-.02,0-.03,0h-2.28c-.11,0-.16,.06-.16,.18v.35c0,.27-.02,.51-.07,.7-.04,.17-.12,.34-.22,.5-.04,.07-.09,.14-.15,.2-.07,.08-.12,.12-.15,.12-.05,0-.08-.03-.08-.09,0,0,0-.02,.01-.04l.09-.15c.08-.14,.13-.32,.16-.54,.01-.09,.02-.18,.02-.29,0-.08,0-.17,0-.28v-.49Zm1.16-1.35s0-.02,0-.04c0-.03,0-.06,.02-.09,.03-.07,.08-.11,.16-.11s.14,.04,.17,.11c.01,.02,.02,.05,.02,.09,0,0,0,.02,0,.03v.58h.59c.1,0,.15-.06,.15-.17v-.28c0-.07,.01-.13,.04-.17,.03-.05,.08-.08,.15-.08s.12,.02,.15,.08c.03,.04,.04,.1,.04,.17v.28c0,.22-.11,.33-.34,.33h-1.9c-.23,0-.34-.11-.34-.33v-.31s0-.03,0-.04c0-.03,0-.06,.02-.09,.03-.06,.08-.1,.16-.1s.14,.03,.17,.1c0,.02,.02,.05,.02,.08,0,.01,0,.02,0,.04v.31c0,.11,.05,.17,.15,.17h.58v-.58Zm.59,2.25h1.04s.02,0,.03,0c.01,0,.02,0,.03,.01,.02,.02,.03,.04,.03,.07s-.01,.06-.04,.07c0,0-.02,0-.03,.01,0,0-.02,0-.03,0h-1.04v.6s0,.03,0,.04c0,.03,0,.06-.02,.09-.03,.07-.08,.11-.16,.11s-.13-.03-.16-.1c-.01-.03-.02-.06-.02-.09,0-.01,0-.03,0-.04v-.6h-.87s-.02,0-.03,0c-.01,0-.02,0-.03-.01-.02-.02-.03-.04-.03-.07,0-.04,.01-.06,.04-.07,0,0,.02,0,.03-.01,0,0,.02,0,.03,0h.87v-.59h-.69s-.02,0-.03,0c-.01,0-.02,0-.03-.01-.03-.01-.04-.04-.04-.07s.01-.06,.04-.07c0,0,.02,0,.03-.01,0,0,.02,0,.03,0h1.77s.02,0,.03,0c.01,0,.02,0,.03,.01,.02,.02,.03,.04,.03,.07,0,.04-.01,.06-.04,.07,0,0-.02,0-.03,.01,0,0-.02,0-.03,0h-.71v.59Z"/>
    </g>
  </g>
</svg>