<?xml version="1.0" encoding="UTF-8"?>
<svg id="_圖層_2" data-name="圖層 2" xmlns="http://www.w3.org/2000/svg" viewBox="0 0 74.38 4.48">
  <defs>
    <style>
      .cls-1 {
        fill: #172a86;
      }

      .cls-2 {
        fill: #171c61;
      }
    </style>
  </defs>
  <g id="_圖層_1-2" data-name="圖層 1">
    <path class="cls-2" d="M0,2.07c0-.06,0-.11,0-.17,.02,0,.03,0,.05,0s.04,0,.06,0c.03,0,.07,0,.1,0,.03,0,.07,0,.1,0,.06,0,.12,0,.15,.01,.04,0,.07,.02,.09,.04,.03,.02,.05,.05,.06,.08s.02,.06,.02,.1c0,.05,0,.09-.03,.13-.02,.04-.04,.07-.07,.09-.03,.02-.07,.04-.11,.05s-.09,.02-.14,.02h-.07c0,.07,0,.13,0,.2,0,.07,0,.13,0,.2-.02,0-.03,0-.05,0H.05s-.04,0-.05,0c0-.05,0-.11,0-.17,0-.06,0-.12,0-.2v-.18c0-.07,0-.14,0-.2Zm.4,0s-.02-.04-.03-.06c-.01-.01-.03-.02-.05-.03-.02,0-.04,0-.06,0h-.05s0,0-.01,0c0,.06,0,.13,0,.19,0,.06,0,.12,0,.19,.02,0,.05,0,.07,0,.02,0,.05-.01,.07-.03s.04-.03,.05-.06c.01-.03,.02-.06,.02-.1,0-.03,0-.06-.01-.09Z"/>
    <path class="cls-2" d="M4.86,2.07c0-.06,0-.11,0-.17,.02,0,.03,0,.05,0,.02,0,.04,0,.06,0s.04,0,.06,0,.04,0,.05,0c0,.06,0,.12,0,.17,0,.06,0,.12,0,.2v.18c0,.05,0,.1,0,.15,0,.05,0,.09,0,.12,.05,0,.1,0,.16,0,.05,0,.1,0,.16-.01,0,0,0,.02,0,.03,0,0,0,.02,0,.03s0,.03,0,.03c0,0,0,.01,0,.02-.02,0-.06,0-.09,0-.04,0-.09,0-.15,0h-.22s-.04,0-.05,0c-.01,0-.02,0-.03,0,0-.05,0-.11,0-.17,0-.06,0-.12,0-.2v-.18c0-.07,0-.14,0-.2Z"/>
    <path class="cls-2" d="M10.35,2.81s-.04,0-.06,0h-.12s-.04,0-.06,0c-.01-.04-.03-.09-.05-.13s-.03-.09-.05-.14c-.03,0-.06,0-.09,0-.03,0-.06,0-.09,0-.02,0-.05,0-.07,0-.02,0-.05,0-.07,0-.02,.05-.04,.09-.05,.14-.02,.05-.03,.09-.04,.13-.01,0-.02,0-.03,0h-.07s-.02,0-.04,0c.01-.02,.03-.05,.04-.1,.02-.04,.04-.09,.06-.14,.02-.05,.05-.11,.07-.17,.03-.06,.05-.12,.08-.18,.03-.06,.05-.12,.07-.18,.02-.06,.05-.11,.07-.16,0,0,.02,0,.03,0s.02,0,.03,0,.02,0,.03,0c0,0,.02,0,.03,0,.03,.08,.06,.16,.09,.24,.03,.09,.07,.17,.1,.25,.03,.08,.07,.16,.1,.24s.06,.14,.09,.19Zm-.49-.66c-.02,.05-.05,.11-.07,.16s-.04,.1-.06,.16h.25c-.02-.05-.04-.11-.06-.16-.02-.05-.04-.1-.06-.16Z"/>
    <path class="cls-2" d="M14.61,2.04s0-.04,0-.05c-.01,0-.03,0-.05,0-.02,0-.04,0-.06,0-.02,0-.05,0-.07,0-.02,0-.05,0-.07,0,0,0,0-.02,0-.03,0,0,0-.02,0-.03s0-.02,0-.03c0,0,0-.02,0-.03,.03,0,.06,0,.08,0,.03,0,.05,0,.08,0,.03,0,.05,0,.09,0,.03,0,.07,0,.11,0s.08,0,.11,0c.03,0,.06,0,.08,0,.03,0,.05,0,.07,0,.02,0,.05,0,.08,0,0,0,0,.02,0,.03,0,0,0,.02,0,.03s0,.02,0,.03c0,0,0,.02,0,.03-.02,0-.04,0-.06,0-.02,0-.05,0-.07,0-.02,0-.04,0-.06,0-.02,0-.04,0-.05,0,0,0,0,.01,0,.02,0,0,0,.02,0,.03v.4c0,.07,0,.14,0,.2,0,.06,0,.11,0,.17-.02,0-.03,0-.05,0h-.12s-.04,0-.05,0c0-.05,0-.11,0-.17s0-.12,0-.2v-.33s0-.05,0-.07Z"/>
    <path class="cls-2" d="M19.41,2.07c0-.06,0-.11,0-.17,.02,0,.03,0,.05,0,.02,0,.04,0,.06,0s.04,0,.06,0,.04,0,.05,0c0,.06,0,.12,0,.17,0,.06,0,.12,0,.2v.18c0,.07,0,.14,0,.2,0,.06,0,.11,0,.17-.02,0-.03,0-.05,0h-.12s-.04,0-.05,0c0-.05,0-.11,0-.17,0-.06,0-.12,0-.2v-.18c0-.07,0-.14,0-.2Z"/>
    <path class="cls-2" d="M23.91,2.01s0-.08,0-.11c.03,0,.05,0,.06,0s.04,0,.06,0c.1,.11,.2,.21,.3,.32,.1,.1,.2,.21,.3,.32v-.24s0-.09,0-.13c0-.04,0-.08,0-.12,0-.04,0-.07,0-.09s0-.04,0-.05c.03,0,.05,0,.06,0s.04,0,.06,0c0,.08,0,.15-.01,.22s0,.13,0,.18c0,.06,0,.11,0,.17,0,.06,0,.12,0,.18v.16s-.04,0-.06,0-.04,0-.05,0c-.19-.21-.39-.43-.6-.64,0,.03,0,.05,0,.08,0,.03,0,.05,0,.08v.15c0,.05,0,.1,0,.14,0,.04,0,.07,0,.09,0,.03,0,.05,0,.06,0,.02,0,.03,0,.04-.01,0-.02,0-.03,0h-.03s-.04,0-.06,0c0,0,0-.03,0-.08s0-.1,0-.16c0-.06,0-.13,0-.2,0-.07,0-.14,0-.21,0-.06,0-.11,0-.15Z"/>
    <path class="cls-2" d="M28.94,2.8c-.05-.01-.1-.03-.13-.06-.04-.03-.07-.06-.09-.11s-.03-.1-.03-.16c0-.04,0-.07,0-.1,0-.03,0-.05,0-.08s0-.05,0-.07c0-.02,0-.05,0-.07,0-.07,0-.13,0-.17,0-.04,0-.08,0-.1,.02,0,.04,0,.06,0,.02,0,.04,0,.06,0s.04,0,.06,0c.02,0,.04,0,.06,0,0,.09-.01,.17-.02,.24,0,.07,0,.15,0,.23,0,.08,0,.15,.02,.2s.03,.09,.05,.12c.02,.03,.05,.05,.09,.05,.03,0,.07,.01,.12,.01,.05,0,.1-.01,.13-.04,.03-.03,.05-.06,.07-.11,.02-.04,.03-.1,.03-.15,0-.06,0-.12,0-.18s0-.12,0-.18c0-.06,0-.12,0-.18,.01,0,.03,0,.04,0s.02,0,.03,0c.01,0,.02,0,.03,0s.02,0,.03,0c0,.02,0,.05,0,.08,0,.03,0,.07,0,.11,0,.04,0,.09,0,.14s0,.11,0,.16c0,.15-.03,.26-.1,.33s-.17,.1-.3,.1c-.06,0-.11,0-.16-.02Z"/>
    <path class="cls-2" d="M33.49,2.51c0,.1-.01,.2-.02,.3-.01,0-.02,0-.03,0h-.06s-.02,0-.03,0c.03-.15,.06-.3,.08-.45s.04-.3,.06-.46c.01,0,.02,0,.03,0,0,0,.02,0,.03,0,0,0,.02,0,.03,0s.02,0,.03,0c.02,.05,.05,.11,.08,.16,.03,.05,.05,.11,.08,.16s.05,.11,.08,.16c.03,.05,.05,.1,.08,.15,.05-.1,.11-.2,.16-.31,.05-.11,.11-.22,.16-.32,.02,0,.04,0,.06,0,.02,0,.03,0,.06,0,0,.08,.02,.16,.03,.25,.01,.09,.02,.17,.03,.26,.01,.08,.02,.16,.03,.23,.01,.07,.02,.13,.03,.18-.02,0-.04,0-.06,0h-.11s-.04,0-.06,0c0-.09-.01-.19-.02-.3-.01-.11-.02-.21-.03-.32h0c-.05,.1-.1,.21-.15,.31-.05,.1-.1,.2-.15,.3,0,0,0,0-.01,0,0,0,0,0-.01,0s0,0-.01,0c0,0,0,0-.01,0-.05-.1-.1-.2-.15-.3-.05-.1-.1-.2-.15-.3h0c-.01,.1-.03,.2-.03,.3Z"/>
    <path class="cls-2" d="M40.39,2.54v.05c0,.07,0,.14,0,.2,0,.06,0,.11,0,.17-.02,0-.03,0-.05,0h-.12s-.04,0-.05,0c0-.05,0-.11,0-.17,0-.06,0-.12,0-.2v-.18c0-.07,0-.14,0-.2,0-.06,0-.11,0-.17,.02,0,.03,0,.05,0,.02,0,.04,0,.06,0,.02,0,.05,0,.08,0,.03,0,.07,0,.12,0,.03,0,.06,0,.09,0,.02,0,.05,0,.06,0,.02,0,.03,0,.05,.01s.03,.01,.04,.02c.03,.02,.05,.04,.07,.07,.02,.03,.02,.06,.02,.1,0,.06-.02,.12-.05,.16-.04,.04-.09,.07-.16,.09,.04,.08,.09,.15,.14,.23s.1,.15,.15,.22c-.02,0-.04,0-.06,0h-.12s-.04,0-.06,0l-.25-.42h-.01Zm.2-.34s-.02-.04-.04-.05c-.02-.01-.04-.02-.07-.02-.03,0-.06,0-.1,0,0,.12,0,.24,0,.36,0,0,.01,0,.02,0,0,0,0,0,.01,0,.06,0,.11-.02,.14-.05,.03-.03,.05-.08,.05-.14,0-.04,0-.07-.01-.09Z"/>
    <path class="cls-2" d="M44.62,2.22c0-.06,0-.11,0-.17,.02,0,.03,0,.05,0,.02,0,.04,0,.06,0s.04,0,.06,0,.04,0,.05,0c0,.06,0,.12,0,.17,0,.06,0,.12,0,.2v.18c0,.07,0,.14,0,.2,0,.06,0,.11,0,.17-.02,0-.03,0-.05,0h-.12s-.04,0-.05,0c0-.05,0-.11,0-.17,0-.06,0-.12,0-.2v-.18c0-.07,0-.14,0-.2Z"/>
    <path class="cls-2" d="M49.1,2.37c.04-.11,.09-.22,.12-.33,.02,0,.04,0,.06,0s.04,0,.06,0c-.02,.05-.05,.12-.08,.19s-.07,.15-.1,.23-.07,.17-.1,.25c-.03,.09-.06,.16-.09,.24-.02,0-.04,0-.06,0s-.04,0-.06,0c-.01-.04-.03-.08-.05-.13-.02-.05-.04-.1-.06-.16-.02-.06-.05-.11-.07-.17-.02-.06-.05-.12-.07-.17s-.04-.11-.06-.15c-.02-.05-.04-.09-.05-.12,.02,0,.04,0,.06,0s.04,0,.06,0,.04,0,.06,0,.04,0,.06,0c.02,.05,.03,.1,.05,.16,.02,.05,.04,.11,.06,.17,.02,.06,.04,.11,.07,.17,.02,.06,.04,.11,.07,.17,.05-.11,.09-.23,.14-.34Z"/>
    <path class="cls-2" d="M52.83,2.22c0-.06,0-.11,0-.17,.04,0,.08,0,.12,0,.04,0,.08,0,.12,0,.07,0,.13,0,.18,0s.09,0,.11,0c0,.01,0,.03,0,.06,0,.01,0,.03,0,.03,0,0,0,.02,0,.03-.03,0-.06,0-.09,0-.03,0-.06,0-.09,0-.03,0-.06,0-.08,0-.02,0-.04,0-.05,0,0,.05,0,.1,0,.14s0,.1,0,.14c.06,0,.11,0,.16,0,.05,0,.1,0,.15,0,0,.02,0,.03,0,.03,0,0,0,.02,0,.03,0,0,0,.01,0,.02,0,0,0,.02,0,.03-.1,0-.21-.01-.31-.01,0,.03,0,.06,0,.09s0,.06,0,.09c0,.06,0,.11,0,.17,.05,0,.1,0,.16,0s.1,0,.16-.01c0,0,0,.02,0,.03,0,0,0,.02,0,.03s0,.03,0,.03c0,0,0,.01,0,.02-.02,0-.06,0-.09,0-.04,0-.09,0-.15,0h-.22s-.04,0-.05,0c-.01,0-.02,0-.03,0,0-.05,0-.11,0-.17s0-.12,0-.2v-.18c0-.07,0-.14,0-.2Z"/>
    <path class="cls-2" d="M57.13,2.54v.05c0,.07,0,.14,0,.2,0,.06,0,.11,0,.17-.02,0-.03,0-.05,0h-.12s-.04,0-.05,0c0-.05,0-.11,0-.17,0-.06,0-.12,0-.2v-.18c0-.07,0-.14,0-.2,0-.06,0-.11,0-.17,.02,0,.03,0,.05,0,.02,0,.04,0,.06,0,.02,0,.05,0,.08,0,.03,0,.07,0,.12,0,.03,0,.06,0,.09,0,.02,0,.05,0,.06,0,.02,0,.03,0,.05,.01s.03,.01,.04,.02c.03,.02,.05,.04,.07,.07,.02,.03,.02,.06,.02,.1,0,.06-.02,.12-.05,.16-.04,.04-.09,.07-.16,.09,.04,.08,.09,.15,.14,.23s.1,.15,.15,.22c-.02,0-.04,0-.06,0h-.12s-.04,0-.06,0l-.25-.42h-.01Zm.2-.34s-.02-.04-.04-.05c-.02-.01-.04-.02-.07-.02-.03,0-.06,0-.1,0,0,.12,0,.24,0,.36,0,0,.01,0,.02,0,0,0,0,0,.01,0,.06,0,.11-.02,.14-.05,.03-.03,.05-.08,.05-.14,0-.04,0-.07-.01-.09Z"/>
    <path class="cls-2" d="M61.14,2.22c0-.06,0-.11,0-.17,.02,0,.03,0,.05,0,.02,0,.04,0,.06,0,.04,0,.08,0,.12,0,.04,0,.08,0,.12,0s.08,0,.11,.01,.06,.02,.09,.04c.02,.02,.04,.04,.06,.06,.01,.03,.02,.06,.02,.09s0,.07-.02,.09-.03,.05-.06,.07c-.02,.02-.05,.03-.07,.04-.03,0-.05,.02-.07,.02h0s.05,0,.07,.02c.03,0,.06,.02,.08,.04,.03,.02,.05,.04,.07,.07,.02,.03,.03,.06,.03,.1,0,.05,0,.09-.03,.12-.02,.03-.04,.06-.07,.08-.03,.02-.06,.04-.1,.04s-.08,.01-.12,.01c-.04,0-.07,0-.1,0-.03,0-.06,0-.1,0h-.08s-.05,0-.06,0c0-.05,0-.11,0-.17,0-.06,0-.12,0-.2v-.18c0-.07,0-.14,0-.2Zm.42,0s-.01-.04-.03-.05c-.01-.01-.03-.02-.05-.03s-.04-.01-.07-.01c-.02,0-.03,0-.04,0,0,0-.02,0-.03,0,0,.03,0,.07,0,.1,0,.03,0,.06,0,.09s0,.05,0,.07c0,.02,0,.04,0,.07h.06s.04,0,.06-.01,.04-.02,.05-.03c.01-.01,.03-.03,.04-.05s.01-.05,.01-.07c0-.02,0-.04,0-.06Zm-.03,.35s-.07-.05-.13-.05c-.01,0-.02,0-.03,0,0,0-.02,0-.03,0,0,.02,0,.04,0,.06,0,.02,0,.04,0,.07,0,.02,0,.04,0,.07,0,.02,0,.04,0,.07s0,.04,0,.06c0,.02,0,.03,0,.04,.01,0,.02,0,.04,0,.01,0,.02,0,.04,0,.02,0,.04,0,.06-.01,.02,0,.03-.02,.05-.04,.01-.02,.02-.03,.03-.06s.01-.05,.01-.08c0-.06-.01-.11-.04-.14Z"/>
    <path class="cls-2" d="M66.08,2.96s-.04,0-.06,0h-.12s-.04,0-.06,0c-.01-.04-.03-.09-.05-.13s-.03-.09-.05-.14c-.03,0-.06,0-.09,0-.03,0-.06,0-.09,0-.02,0-.05,0-.07,0-.02,0-.05,0-.07,0-.02,.05-.04,.09-.05,.14-.02,.05-.03,.09-.04,.13-.01,0-.02,0-.03,0h-.07s-.02,0-.04,0c.01-.02,.03-.05,.04-.1,.02-.04,.04-.09,.06-.14,.02-.05,.05-.11,.07-.17,.03-.06,.05-.12,.08-.18,.03-.06,.05-.12,.07-.18,.02-.06,.05-.11,.07-.16,0,0,.02,0,.03,0s.02,0,.03,0,.02,0,.03,0c0,0,.02,0,.03,0,.03,.08,.06,.16,.09,.24,.03,.09,.07,.17,.1,.25,.03,.08,.07,.16,.1,.24s.06,.14,.09,.19Zm-.49-.66c-.02,.05-.05,.11-.07,.16s-.04,.1-.06,.16h.25c-.02-.05-.04-.11-.06-.16-.02-.05-.04-.1-.06-.16Z"/>
    <path class="cls-2" d="M69.42,2.16s0-.08,0-.11c.03,0,.05,0,.06,0s.04,0,.06,0c.1,.11,.2,.21,.3,.32,.1,.1,.2,.21,.3,.32v-.24s0-.09,0-.13c0-.04,0-.08,0-.12,0-.04,0-.07,0-.09s0-.04,0-.05c.03,0,.05,0,.06,0s.04,0,.06,0c0,.08,0,.15-.01,.22s0,.13,0,.18c0,.06,0,.11,0,.17,0,.06,0,.12,0,.18v.16s-.04,0-.06,0-.04,0-.05,0c-.19-.21-.39-.43-.6-.64,0,.03,0,.05,0,.08,0,.03,0,.05,0,.08v.15c0,.05,0,.1,0,.14,0,.04,0,.07,0,.09,0,.03,0,.05,0,.06,0,.02,0,.03,0,.04-.01,0-.02,0-.03,0h-.03s-.04,0-.06,0c0,0,0-.03,0-.08s0-.1,0-.16c0-.06,0-.13,0-.2,0-.07,0-.14,0-.21,0-.06,0-.11,0-.15Z"/>
    <path class="cls-2" d="M73.85,2.8c0,.07,0,.12,0,.16-.02,0-.03,0-.05,0h-.12s-.04,0-.05,0c0-.05,0-.11,0-.17,0-.06,0-.12,0-.2v-.18c0-.07,0-.14,0-.2,0-.06,0-.11,0-.17,.02,0,.03,0,.05,0s.04,0,.06,0,.04,0,.06,0,.04,0,.05,0c0,.03,0,.07,0,.12s0,.11,0,.18v.13s.06-.07,.1-.12c.04-.04,.07-.08,.1-.12,.03-.04,.06-.08,.09-.11,.03-.03,.05-.06,.06-.08,.01,0,.03,0,.04,0,.01,0,.03,0,.04,0s.03,0,.04,0,.03,0,.04,0c-.02,.02-.04,.04-.07,.07-.03,.03-.07,.07-.1,.11s-.07,.08-.1,.11c-.03,.04-.06,.07-.08,.09,.03,.04,.06,.09,.1,.14,.04,.05,.07,.1,.11,.15,.04,.05,.07,.1,.1,.14,.03,.04,.05,.07,.07,.1-.03,0-.05,0-.07,0h-.12s-.04,0-.06,0c-.05-.07-.09-.14-.14-.21-.04-.07-.09-.14-.14-.21h0c0,.1,0,.18,0,.25Z"/>
    <path class="cls-1" d="M30.21,4.25c-.07,.04-.16,.08-.27,.11-.1,.03-.22,.06-.35,.08-.13,.03-.26,.04-.4,.04-.3,0-.57-.05-.83-.14-.25-.09-.47-.24-.65-.43-.18-.19-.33-.43-.43-.71-.1-.28-.16-.6-.16-.95s.05-.67,.16-.95c.1-.28,.25-.51,.44-.71,.19-.19,.41-.34,.67-.44,.26-.1,.55-.15,.86-.15,.25,0,.48,.03,.68,.08,.21,.06,.39,.12,.55,.2-.03,.06-.05,.14-.07,.24-.02,.1-.03,.18-.05,.25h-.03s-.09-.09-.16-.16c-.07-.06-.15-.12-.24-.18-.09-.06-.19-.11-.31-.15-.11-.04-.24-.06-.37-.06-.22,0-.43,.04-.62,.12-.19,.08-.36,.2-.5,.37-.14,.17-.25,.38-.33,.63-.08,.25-.12,.55-.12,.9s.04,.65,.12,.9c.08,.25,.19,.46,.33,.63,.14,.17,.31,.29,.5,.37,.19,.08,.4,.12,.62,.12,.14,0,.26-.02,.38-.06,.12-.04,.22-.08,.32-.14,.1-.05,.18-.11,.26-.17,.08-.06,.14-.11,.2-.16l.02,.03-.05,.37s-.09,.07-.16,.11Z"/>
    <path class="cls-1" d="M31.12,1.3c.1-.28,.25-.51,.44-.71,.19-.19,.41-.34,.67-.44,.26-.1,.55-.15,.86-.15s.6,.05,.86,.15c.26,.1,.48,.25,.67,.44,.19,.19,.33,.43,.44,.71,.1,.28,.16,.6,.16,.95s-.05,.67-.16,.95c-.1,.28-.25,.51-.44,.71-.19,.19-.41,.34-.67,.43-.26,.09-.55,.14-.86,.14s-.59-.05-.86-.14c-.26-.09-.48-.24-.67-.43-.19-.19-.33-.43-.44-.71-.1-.28-.16-.6-.16-.95s.05-.67,.16-.95Zm3.41,.05c-.08-.25-.19-.46-.33-.63-.14-.17-.31-.29-.5-.37-.19-.08-.4-.12-.62-.12s-.42,.04-.61,.12c-.19,.08-.36,.2-.5,.37-.14,.17-.25,.38-.33,.63-.08,.25-.12,.55-.12,.9s.04,.65,.12,.9c.08,.25,.19,.46,.33,.63,.14,.17,.31,.29,.5,.37,.19,.08,.4,.12,.61,.12s.43-.04,.62-.12c.19-.08,.36-.2,.5-.37,.14-.17,.25-.37,.33-.63,.08-.25,.12-.55,.12-.9s-.04-.65-.12-.9Z"/>
    <path class="cls-1" d="M36.82,3.51c-.14-.35-.3-.71-.46-1.1-.16-.39-.33-.78-.5-1.18-.17-.4-.34-.78-.49-1.14,.06,0,.12,.02,.18,.02,.06,0,.11,0,.16,0s.11,0,.16,0c.06,0,.12-.01,.18-.02,.1,.28,.2,.57,.32,.87,.12,.3,.24,.61,.37,.93,.13,.31,.26,.63,.4,.96,.14,.32,.27,.64,.41,.96,.08-.17,.16-.36,.26-.57,.09-.21,.18-.43,.28-.66,.09-.23,.19-.46,.28-.7,.09-.24,.18-.46,.27-.68,.09-.22,.16-.42,.23-.61,.07-.19,.13-.35,.18-.49,.1,.02,.18,.03,.24,.03s.15-.01,.24-.03c-.34,.73-.67,1.45-.98,2.17-.31,.72-.62,1.43-.9,2.15-.07,0-.14-.01-.22-.01-.09,0-.16,0-.22,.01-.1-.25-.22-.54-.37-.89Z"/>
    <path class="cls-1" d="M40.61,.89c-.01-.27-.03-.54-.05-.8,.25,0,.5,.02,.75,.02,.25,0,.5,0,.75,0s.5,0,.74,0c.24,0,.49-.01,.74-.02-.02,.06-.02,.13-.02,.19s0,.13,.02,.19c-.18,0-.34-.02-.49-.03-.15,0-.3-.02-.47-.03-.16,0-.34-.02-.54-.02-.19,0-.43,0-.7,0,0,.13-.01,.26-.02,.38,0,.12-.01,.26-.01,.41,0,.16,0,.32,0,.48,0,.16,0,.27,0,.35,.24,0,.46,0,.66,0,.19,0,.37,0,.53-.02s.31-.01,.45-.02c.14,0,.27-.01,.39-.02-.02,.06-.02,.13-.02,.19,0,.06,0,.13,.02,.19-.14-.01-.31-.02-.5-.03-.19,0-.38-.01-.58-.02-.19,0-.37,0-.54,0-.17,0-.3,0-.4,0,0,.04,0,.08,0,.12,0,.04,0,.1,0,.17v.62c0,.24,0,.44,0,.59,0,.16,0,.27,.01,.35h.58c.21,0,.42,0,.62,0,.2,0,.39-.01,.58-.03,.18-.01,.34-.03,.47-.05-.01,.03-.02,.06-.02,.1,0,.04,0,.07,0,.1,0,.07,0,.12,.03,.16-.25,0-.5-.01-.75-.01h-1.51c-.25,0-.5,0-.76,.01,.02-.27,.03-.54,.05-.8,.01-.27,.02-.54,.02-.81V1.7c0-.28,0-.55-.02-.82Z"/>
    <path class="cls-1" d="M44.43,.9c-.01-.27-.03-.54-.04-.81,.14,0,.29,.02,.42,.02,.14,0,.28,0,.42,0s.29,0,.42-.02c.14-.01,.28-.02,.42-.02,.21,0,.41,.02,.6,.05,.19,.03,.35,.09,.49,.17,.14,.08,.25,.18,.33,.3,.08,.13,.12,.28,.12,.47,0,.2-.05,.37-.16,.52s-.24,.26-.39,.36c-.15,.09-.32,.17-.49,.22-.18,.05-.34,.09-.48,.1,.06,.06,.14,.15,.25,.26,.1,.11,.22,.24,.35,.37,.13,.14,.26,.28,.4,.43,.14,.15,.27,.29,.4,.43,.13,.14,.25,.26,.36,.37s.21,.2,.28,.26c-.07,0-.15-.01-.22-.01h-.44c-.07,0-.15,0-.22,.01-.07-.09-.19-.22-.34-.4-.15-.18-.32-.36-.5-.57s-.37-.4-.56-.6c-.19-.2-.37-.37-.52-.51h-.28v.46c0,.28,0,.55,.02,.82,.01,.27,.03,.53,.04,.79-.11,0-.24-.01-.36-.01s-.25,0-.36,.01c.01-.26,.03-.52,.04-.79,.01-.27,.02-.54,.02-.82V1.71c0-.28,0-.55-.02-.81Zm.86,1.2c.08,0,.17,0,.27,0,.15,0,.31-.01,.48-.04,.17-.03,.32-.08,.46-.15,.14-.07,.25-.17,.35-.3,.09-.12,.14-.28,.14-.47,0-.16-.04-.3-.11-.41s-.16-.19-.28-.25c-.11-.06-.24-.11-.37-.13-.13-.02-.27-.03-.39-.03-.17,0-.32,0-.43,0-.11,0-.21,.01-.29,.02,0,.23-.02,.46-.03,.68,0,.23-.01,.45-.01,.68v.36c.07,.01,.14,.02,.23,.03Z"/>
  </g>
</svg>