<?xml version="1.0" encoding="UTF-8"?>
<svg id="_圖層_2" data-name="圖層 2" xmlns="http://www.w3.org/2000/svg" viewBox="0 0 45.17 10.89">
  <defs>
    <style>
      .cls-1 {
        fill: #231815;
      }
    </style>
  </defs>
  <g id="_圖層_1-2" data-name="圖層 1">
    <g>
      <path class="cls-1" d="M15.42,4.16c-.06,.08-.1,.12-.14,.12s-.06-.02-.07-.07l-.15-.5,.44-.12V.69l.52,.14c.07,.03,.11,.07,.11,.11,0,.04-.04,.08-.11,.14-.05,.05-.07,.13-.07,.23V3.51l.69-.14V0l.55,.15s.07,.05,.07,.08c0,.04-.04,.08-.13,.12-.02,.04-.04,.12-.04,.23l.02,.31V5.18c-.1,.1-.22,.15-.38,.15h-.1v-1.85l-1.21,.69Zm4.32-2.77l.29,.15s.07,.06,.07,.08c0,.04-.05,.07-.16,.09-.07,.22-.13,.44-.2,.65-.15,.61-.35,1.11-.6,1.5,.48,.39,.93,.67,1.37,.86,.12,.05,.18,.09,.18,.13,0,.04-.06,.07-.17,.11s-.2,.13-.26,.3c-.29-.17-.54-.34-.77-.51-.23-.18-.43-.37-.61-.57-.45,.46-.94,.8-1.48,1.03-.06,.02-.11,.03-.15,.03h-.02s0-.02,.01-.02c.03-.03,.06-.05,.09-.07,.52-.41,.95-.83,1.26-1.25-.29-.45-.5-1.07-.64-1.86-.09,.19-.29,.41-.59,.67l-.1,.03-.04-.02s0-.03,.01-.05c.01-.02,.02-.05,.04-.08,.42-.77,.72-1.62,.91-2.55,.01-.02,.04-.03,.08-.03,.06,0,.13,.02,.21,.05l.32,.14s0,.01,0,.02,0,.02,0,.03c0,.06-.06,.11-.18,.14-.07,.16-.14,.32-.2,.48s-.11,.3-.14,.4h1.54l.29-.36h.04s.07,0,.07,0l.36,.36,.02,.07-.02,.06h-.91Zm-.27,0h-1.18v.03c0,.65,.2,1.34,.61,2.09,.24-.61,.43-1.32,.57-2.12Z"/>
      <path class="cls-1" d="M28.13,1.41l.04,.03,.02,.04s-.03,.07-.09,.12c0,.07-.02,.11-.03,.14h.78l.25-.29h.1l.29,.27,.05,.1-.03,.03h-1.4c0,.33,.02,.7,.06,1.1l.09,.9c.14-.27,.26-.54,.36-.79s.18-.5,.23-.72l.54,.29,.02,.03v.04s-.03,.07-.12,.1c-.15,.33-.3,.59-.42,.8-.14,.25-.27,.44-.39,.59,.14,.15,.29,.28,.45,.41h.03c.06,0,.11-.03,.17-.1l.31-.5,.02-.03,.02,.04v.06c-.04,.36-.07,.62-.07,.77v.05c.02,.05,.03,.09,.03,.11,0,.02,0,.06,0,.1v.07c-.06,.05-.14,.07-.21,.07-.06,0-.12-.01-.19-.03-.31-.18-.58-.4-.82-.68-.28,.28-.68,.53-1.22,.76h-.08s-.05,0-.05-.03l.04-.06c.6-.45,.95-.8,1.07-1.04-.21-.62-.32-1.4-.32-2.32h-2.02l-.02,2.14c-.11,.47-.33,.87-.66,1.21-.11,.06-.2,.09-.25,.1v-.02s.02-.04,.02-.04c.16-.28,.29-.54,.37-.79,.08-.25,.12-.48,.12-.7l-.02-.28c-.07,.26-.18,.52-.33,.78-.08,.14-.16,.27-.24,.38-.08,.11-.18,.23-.31,.37l-.1,.06h-.02s-.02-.02-.02-.02c0-.02,.01-.05,.04-.08,.13-.26,.23-.5,.3-.74,.07-.23,.12-.48,.16-.75h-.45v-.07s0-.03,0-.03h.99v-.36s0-.41,0-.41h-.35v.19l-.16,.09s-.06,.02-.11,.03c-.04,0-.08-.02-.12-.07V1.51l.53,.15s.02,.05,.03,.08c0,.03-.02,.05-.06,.08-.04,.03-.07,.09-.1,.17v.45h.35v-.9l.43,.19h2.01c-.02-.12-.02-.2-.03-.25,0-.05,0-.08,0-.11v-.08s.54,.12,.54,.12Zm-1.68-1.23v.06s-.01,.07-.01,.07c-.07,.05-.11,.12-.11,.24v.06h1.19V.03l.57,.14v.05s-.02,.07-.07,.1c-.06,.07-.1,.15-.1,.23v.06h1.02l.26-.32h.02s.07,0,.07,0l.32,.29,.04,.08v.02s0,.05-.04,.06h-1.69v.26c-.1,.07-.19,.1-.27,.1-.06,0-.12-.02-.17-.06v-.31h-1.14v.41l-.17,.08s-.09,.03-.14,.03-.09-.02-.15-.05v-.48h-1.66l-.03-.04s0-.03-.01-.03c0-.02,.01-.04,.04-.06h1.66V.03l.57,.15Zm.54,1.99l.05-.02h.04s.23,.21,.23,.21v.06s0,.03,0,.03h-.54v.51h.3l.12-.12,.05-.02s.06,.02,.07,.02l.21,.15v.04s-.01,.05-.01,.05c-.07,.05-.11,.11-.11,.2v.61c-.08,.08-.16,.12-.23,.12l-.1-.03v-.24h-.3v.67h.27l.19-.22h.02s.06,0,.06,0l.21,.2,.02,.04s0,.03,.01,.03c0,.02-.01,.04-.04,.05h-1.34v.24c-.12,.1-.21,.15-.3,.15-.03,0-.05,0-.06-.01l-.04-.02V2.15c.13,.08,.25,.14,.37,.19h.68l.15-.18Zm-.51,.79v-.51h-.32v.51h.32Zm.6,.67v-.57h-.89v.57h.89Zm-.6,.77v-.67h-.29v.67h.29Zm1.68-3.51c.33,.03,.57,.14,.73,.31v.08c0,.14-.04,.22-.11,.26h-.05c-.1,0-.18-.08-.24-.24l-.14-.16-.18-.16s-.02,0-.03-.02c0,0,0-.01,0-.02l.02-.05Z"/>
    </g>
    <g>
      <path class="cls-1" d="M2.67,8.85h.41s.02,0,.03,0c.01,0,.02,0,.03,.01,.02,.01,.04,.04,.04,.07,0,.02,0,.03-.01,.05,0,0-.02,.02-.03,.02,0,0-.02,0-.03,0,0,0-.02,0-.02,0h-.41v.73h.26s.02,0,.03,0c.01,0,.02,0,.03,.01,.02,.01,.03,.04,.03,.07s-.01,.05-.04,.07c0,0-.02,0-.03,.01,0,0-.02,0-.03,0H.23s-.02,0-.03,0c-.01,0-.02,0-.03-.01-.02-.01-.03-.04-.03-.07s.01-.05,.04-.07c0,0,.02,0,.03-.01,0,0,.02,0,.03,0H.49v-.73H.1s-.02,0-.03,0c-.01,0-.02,0-.03-.01-.03-.01-.04-.03-.04-.07,0-.03,.01-.05,.03-.07,0,0,.02,0,.03-.01,0,0,.02,0,.03,0H.49v-.47l-.08,.07s-.08,.07-.11,.09c-.04,.04-.08,.06-.11,.08-.04,.02-.06,.04-.08,.04-.05,0-.08-.03-.08-.08,0-.02,.01-.05,.04-.08l.08-.09c.04-.05,.08-.11,.12-.16,.05-.07,.1-.15,.14-.23,.05-.09,.1-.19,.14-.28l.02-.05s.02-.04,.04-.05c.03-.04,.08-.06,.13-.06s.11,.02,.16,.05c.05,.04,.08,.08,.08,.13,0,.05-.03,.11-.1,.2H2.88s.02,0,.03,0c.01,0,.02,0,.03,.01,.02,.01,.03,.04,.03,.07,0,.03-.01,.06-.03,.07,0,0-.02,0-.03,.01,0,0-.02,0-.03,0h-.21v.73ZM.11,10.83s-.07-.09-.07-.14c0-.04,.01-.07,.03-.09,.02-.03,.08-.08,.17-.16l.09-.1c.06-.07,.12-.15,.18-.24,.03-.03,.05-.05,.07-.05,.05,0,.08,.03,.08,.08,0,0,0,.02,0,.04l-.03,.1s-.03,.1-.05,.15c-.03,.07-.06,.14-.09,.21-.08,.17-.16,.26-.25,.26-.05,0-.09-.02-.13-.05Zm1-2.71h-.29v.73h.29v-.73Zm0,.89h-.29v.73h.29v-.73Zm.16,1.85c-.07,0-.11-.02-.14-.07-.01-.02-.02-.05-.03-.09l-.02-.14c0-.06-.02-.12-.04-.18,0-.02-.01-.05-.02-.08l-.03-.11s0-.02,0-.03c0-.05,.03-.08,.08-.08,.02,0,.06,.02,.1,.08,.04,.04,.09,.1,.13,.17,.11,.17,.17,.28,.17,.35,0,.12-.07,.18-.2,.18Zm.45-2.74h-.29v.73h.29v-.73Zm0,.89h-.29v.73h.29v-.73Zm.5,1.78s-.08,.05-.13,.05c-.08,0-.15-.08-.19-.25-.04-.14-.09-.26-.15-.37v-.03s-.02-.02-.02-.03c0-.06,.03-.08,.08-.08,.02,0,.05,.02,.11,.07,.05,.05,.1,.1,.16,.16,.06,.07,.11,.13,.15,.19,.04,.07,.07,.12,.07,.15,0,.06-.02,.1-.07,.14Zm.11-2.67h-.29v.73h.29v-.73Zm0,.89h-.29v.73h.29v-.73Zm.25,1.06s.06,.02,.12,.07c.06,.05,.11,.1,.18,.16,.07,.07,.12,.14,.16,.2,.05,.07,.07,.12,.07,.15,0,.14-.07,.2-.21,.2-.08,0-.15-.07-.19-.21-.06-.17-.12-.32-.19-.43-.02-.03-.02-.05-.02-.07,0-.05,.02-.08,.08-.08Z"/>
      <path class="cls-1" d="M10.89,8.13h.31c.12,0,.2,.03,.24,.09,.03,.04,.04,.1,.04,.19v.14c0,.11-.03,.19-.09,.23-.04,.03-.11,.05-.2,.05h-1.58c-.12,0-.2-.03-.24-.09-.03-.04-.04-.1-.04-.19v-.14c0-.18,.1-.28,.29-.28h.3v-.26h-.56s-.02,0-.03-.01c-.02,0-.03-.03-.04-.06,0,.06-.05,.16-.12,.32l-.12,.28v2.3s0,.03,0,.04c0,.03,0,.06-.02,.08-.03,.06-.08,.09-.15,.09s-.12-.03-.15-.09c0-.02-.01-.05-.02-.08,0-.01,0-.02,0-.04v-1.67l-.08,.11s-.06,.08-.08,.1c-.06,.07-.1,.11-.13,.11-.05,0-.08-.03-.08-.08,0,0,0-.03,.03-.06l.15-.32s.01-.03,.02-.04c.15-.34,.27-.7,.33-1.06v-.07s.03-.05,.04-.07c.03-.05,.08-.07,.15-.07,.14,0,.21,.06,.22,.18,.01-.04,.04-.06,.09-.06h2.08s.02,0,.03,0c.01,0,.02,0,.03,.01,.02,.01,.03,.03,.03,.06s-.01,.05-.03,.06c0,0-.02,.01-.03,.01,0,0-.02,0-.03,0h-.58v.26Zm-.83,2.19c.05,.02,.09,.06,.12,.1,0,.02,.01,.03,.02,.05,0,.01,0,.02,0,.03,0,.05-.03,.1-.08,.14-.04,.02-.1,.05-.18,.08-.09,.04-.2,.07-.33,.11-.05,.02-.1,.03-.14,.04-.04,0-.06,.01-.07,.01-.05,0-.08-.03-.08-.08,0-.04,.02-.06,.07-.08l.05-.02,.1-.06c.05-.03,.1-.07,.15-.11,.06-.05,.13-.1,.19-.16,.02-.02,.05-.03,.07-.05h-.12c-.12,0-.2-.03-.25-.08-.04-.04-.06-.11-.06-.2v-.73c0-.19,.1-.28,.31-.28h1.15c.21,0,.31,.09,.31,.28v.73c0,.19-.1,.28-.31,.28h-.08l.04,.03s.03,.02,.05,.04c.02,.01,.04,.03,.05,.04,.02,.01,.03,.02,.03,.03,.12,.09,.26,.18,.42,.27,.01,0,.03,.01,.03,.02,0,.01,.01,.03,.01,.05,0,.06-.03,.09-.08,.09,0,0-.04,0-.08-.01-.05-.01-.1-.03-.16-.04-.07-.02-.15-.05-.22-.07-.08-.03-.16-.06-.24-.1-.09-.04-.13-.09-.13-.16,0-.08,.04-.14,.13-.18h-.7Zm-.12-2.03h-.16c-.08,0-.13,.04-.13,.12v.13c0,.05,.01,.09,.04,.1,.02,0,.04,.01,.09,.01h.16v-.36Zm1,1.1v-.06c0-.1-.05-.15-.14-.15h-.77c-.1,0-.14,.05-.14,.15v.06h1.06Zm-1.06,.17v.21h1.06v-.21h-1.06Zm0,.37v.08c0,.1,.05,.15,.14,.15h.77c.1,0,.14-.05,.14-.15v-.08h-1.06Zm.68-2.07h-.3v.26h.3v-.26Zm0,.43h-.3v.36h.3v-.36Zm.31,.36h.18s.07,0,.09-.01c.03-.02,.04-.05,.04-.1v-.13c0-.08-.04-.12-.13-.12h-.18v.36Z"/>
      <path class="cls-1" d="M18.19,7.82c0-.07,.01-.13,.03-.17,.03-.06,.09-.09,.16-.09,.13,0,.2,.08,.2,.25v.67c0,.21,.03,.43,.08,.66,.06,.25,.13,.46,.23,.63,.1,.17,.23,.33,.38,.48,.18,.17,.38,.31,.61,.42,.06,.03,.09,.06,.09,.09,0,.05-.03,.08-.08,.08,0,0-.02,0-.06-.02-.04-.01-.09-.03-.14-.05-.07-.03-.13-.06-.2-.09-.08-.04-.16-.09-.23-.14-.09-.06-.17-.12-.25-.19-.09-.08-.17-.16-.24-.24-.08-.09-.15-.19-.21-.3-.07-.12-.12-.24-.17-.37-.05,.12-.1,.24-.18,.35-.06,.1-.14,.2-.22,.3-.07,.09-.15,.17-.24,.24-.08,.07-.16,.13-.25,.19-.08,.05-.15,.1-.23,.14-.06,.04-.13,.07-.19,.1-.05,.02-.1,.04-.14,.05-.03,.01-.05,.02-.06,.02-.05,0-.08-.03-.08-.08,0-.04,.03-.07,.1-.1,.09-.05,.18-.1,.27-.15,.1-.06,.19-.14,.28-.21,.1-.09,.19-.18,.27-.28,.09-.11,.17-.23,.23-.36l.06-.14c.03-.08,.06-.16,.08-.25,.03-.12,.06-.24,.07-.38,.02-.16,.03-.34,.03-.53v-.54Z"/>
      <path class="cls-1" d="M26.6,8.27v-.47s0-.02,0-.03c0-.03,0-.06,.02-.08,.03-.07,.08-.1,.17-.1s.14,.03,.17,.1c0,.02,.02,.05,.02,.08,0,.01,0,.02,0,.04v.47h1.09s.02,0,.03,0c.01,0,.02,0,.03,.01,.02,.01,.03,.04,.03,.07,0,.03-.01,.06-.04,.07,0,0-.02,0-.03,.01,0,0-.02,0-.03,0h-1.09v.94h.92s.02,0,.03,0c.01,0,.02,0,.03,.01,.02,.01,.04,.04,.04,.07,0,.03-.01,.06-.04,.07,0,0-.02,0-.03,.01,0,0-.02,0-.03,0h-.92v1.06h1.3s.02,0,.03,0c.01,0,.02,0,.03,.01,.02,.01,.03,.03,.03,.07,0,.03-.01,.05-.04,.06,0,0-.02,.01-.03,.01,0,0-.02,0-.03,0h-2.98s-.02,0-.03,0c-.01,0-.02,0-.03-.01-.03-.01-.04-.03-.04-.06,0-.03,.01-.06,.04-.07,0,0,.02,0,.03-.01h1.33v-1.06h-.93s-.02,0-.03,0c-.01,0-.02,0-.03-.01-.03-.01-.04-.03-.04-.07s.01-.06,.04-.07c0,0,.02,0,.03-.01,0,0,.02,0,.03,0h.93v-.94h-.78c-.09,.16-.2,.31-.3,.45-.12,.15-.2,.22-.23,.22-.05,0-.08-.03-.08-.08,0,0,0-.02,0-.03l.03-.05c.11-.18,.2-.36,.27-.56,.06-.17,.11-.33,.13-.5,.03-.15,.09-.22,.2-.22,.06,0,.1,.02,.15,.05,.05,.04,.08,.08,.08,.14,0,.05-.02,.13-.07,.24l-.05,.11-.04,.07h.69Z"/>
      <path class="cls-1" d="M36.03,7.72c.26,0,.39,.11,.39,.32l-.03,.77c0,.12,0,.23,0,.33v.11c0,.05,0,.11,0,.16v.21c0,.08,.01,.15,.02,.22,.01,.17,.03,.3,.04,.39,.02,.11,.05,.17,.09,.17,.02,0,.04-.02,.05-.05v-.04s.02-.04,.02-.04c.02-.13,.07-.2,.13-.2,.09,0,.13,.04,.13,.13,0,.03,0,.07-.02,.13-.02,.07-.04,.14-.06,.21-.04,.1-.07,.17-.11,.21-.05,.06-.11,.08-.18,.08-.1,0-.18-.05-.25-.16-.02-.04-.04-.08-.06-.12l-.04-.15s-.02-.06-.02-.09c-.02-.08-.03-.17-.04-.26-.01-.12-.03-.25-.03-.39,0-.17-.01-.35-.01-.55l.02-1.11c0-.06-.02-.1-.06-.11-.01,0-.03-.01-.05-.01,0,0-.01,0-.02,0h-1.5c-.06,0-.11,.02-.12,.06-.01,.03-.02,.08-.02,.16v.24c0,.09,0,.16,0,.22v.39c-.02,.26-.03,.47-.05,.64-.05,.36-.16,.69-.34,.97-.02,.03-.03,.05-.05,.08l-.07,.1c-.06,.07-.11,.11-.13,.11-.05,0-.08-.03-.08-.08,0,0,0-.02,.01-.04,0-.02,.02-.04,.03-.06l.05-.09c.11-.23,.19-.51,.23-.84,.02-.17,.04-.37,.04-.6,0-.21,.01-.48,.01-.79v-.29c0-.15,.05-.25,.15-.3,.04-.02,.08-.03,.13-.04h.06s1.77,0,1.77,0Zm-.51,1c.22,0,.33,.1,.33,.3v.42c0,.2-.11,.3-.33,.3h-.2v.51l.28-.03-.1-.25s-.01-.04-.01-.05c0-.05,.03-.08,.08-.08,.03,0,.07,.04,.14,.11,.03,.03,.05,.06,.08,.1l.11,.15s.05,.07,.07,.11c.06,.1,.1,.18,.1,.23,0,.12-.07,.19-.2,.19-.08,0-.13-.05-.16-.14l-.05-.19-.58,.1-.4,.06c-.09,.01-.17,.02-.23,.03h-.09c-.09,0-.13-.04-.13-.14,0-.09,.04-.13,.13-.14,.02,0,.06,0,.12,0l.37-.02c.07,0,.12,0,.15,0v-.54h-.2c-.22,0-.33-.1-.33-.3v-.42c0-.2,.11-.3,.33-.3h.2v-.35c-.12,0-.24,.01-.37,.01-.15,0-.22-.03-.22-.09,0-.05,.07-.08,.22-.09,.11,0,.22-.02,.32-.02l.25-.04c.07-.01,.13-.03,.19-.04,.05,0,.1-.02,.14-.04l.16-.05s.03,0,.04,0c.09,0,.13,.05,.13,.15,0,.06-.03,.1-.09,.11-.06,.02-.2,.04-.44,.06v.38h.2Zm-.53,.85v-.68h-.12c-.1,0-.14,.05-.14,.15v.39c0,.1,.05,.15,.14,.15h.12Zm.31-.68v.68h.13c.1,0,.15-.05,.15-.15v-.39c0-.1-.05-.15-.15-.15h-.13Z"/>
      <path class="cls-1" d="M43.78,8.9h1.3s.02,0,.03,0c.01,0,.02,0,.03,.01,.03,.01,.04,.04,.04,.07,0,.03-.01,.06-.04,.07,0,0-.02,0-.03,.01,0,0-.02,0-.03,0h-2.98s-.02,0-.03,0c-.01,0-.02,0-.03-.01-.02-.01-.03-.04-.03-.07,0-.03,.01-.06,.04-.07,0,0,.02,0,.03-.01,0,0,.02,0,.03,0h1.31v-.24h-.72c-.21,0-.31-.09-.31-.28v-.4c0-.19,.1-.28,.31-.28h1.8c.21,0,.31,.09,.31,.28v.4c0,.19-.1,.28-.31,.28h-.71v.24Zm-.71,1.37s0,.03,0,.04c0,.02-.01,.03-.03,.05-.04,.04-.11,.1-.21,.16-.06,.04-.13,.07-.21,.11-.07,.03-.14,.06-.21,.09-.14,.05-.23,.08-.26,.08-.05,0-.08-.03-.08-.08,0-.04,.03-.07,.08-.09,.14-.07,.25-.14,.34-.22,.04-.03,.08-.07,.11-.12,.03-.03,.07-.08,.12-.15,.04-.05,.08-.07,.13-.07,.14,0,.21,.06,.21,.19Zm.73,.31c0,.19-.1,.28-.31,.28h-.44s-.02,0-.03,0c-.01,0-.02,0-.03-.01-.02-.01-.04-.03-.04-.07,0-.03,.01-.05,.04-.07,0,0,.02,0,.03-.01,0,0,.02,0,.03,0h.24c.1,0,.15-.05,.15-.15v-.54h-.68c-.21,0-.31-.09-.31-.28v-.16c0-.19,.1-.28,.31-.28h1.67c.12,0,.2,.03,.25,.08,.04,.04,.06,.11,.06,.2v.16c0,.19-.1,.28-.31,.28h-.63v.57Zm.64-2.51v-.1c0-.08-.04-.12-.11-.12h-1.47c-.07,0-.11,.04-.11,.12v.1h1.69Zm-1.69,.16v.14c0,.08,.04,.11,.11,.11h1.47c.07,0,.11-.04,.11-.11v-.14h-1.69Zm1.62,1.32c0-.07-.04-.11-.11-.11h-1.32c-.08,0-.11,.04-.11,.11v.18c0,.07,.04,.11,.11,.11h1.32c.08,0,.11-.04,.11-.11v-.18Zm-.12,.54s.08,.03,.13,.05c.06,.02,.12,.05,.19,.08,.08,.04,.15,.08,.22,.12,.14,.09,.22,.17,.22,.24,0,.13-.07,.2-.2,.2-.03,0-.06,0-.09-.03-.01,0-.02-.01-.03-.02l-.02-.02c-.15-.16-.32-.32-.52-.48-.01-.01-.02-.02-.03-.04,0,0,0-.02,0-.03,0-.05,.02-.08,.08-.09,0,0,.03,0,.06,.01Z"/>
    </g>
  </g>
</svg>