<?xml version="1.0" encoding="UTF-8"?>
<svg id="_圖層_2" data-name="圖層 2" xmlns="http://www.w3.org/2000/svg" viewBox="0 0 107.52 6.98">
  <defs>
    <style>
      .cls-1 {
        fill: #9d9e9e;
      }

      .cls-2, .cls-3 {
        fill: #fff;
      }

      .cls-4, .cls-3 {
        opacity: .5;
      }
    </style>
  </defs>
  <g id="_圖層_1-2" data-name="圖層 1">
    <g class="cls-4">
      <path class="cls-2" d="M79.21,1.82h-.06c-.04-.26-.16-.49-.36-.69s-.48-.3-.81-.3c-.22,0-.41,.05-.58,.15-.17,.1-.3,.23-.39,.4-.09,.17-.14,.36-.14,.58,0,.17,.03,.32,.08,.45,.06,.13,.14,.25,.25,.35s.24,.19,.38,.28c.15,.09,.35,.2,.6,.33,.42,.22,.74,.44,.97,.65,.23,.22,.35,.51,.35,.89,0,.23-.06,.45-.19,.67s-.31,.39-.57,.53-.57,.21-.94,.21c-.24,0-.44-.02-.62-.07-.18-.05-.36-.11-.55-.2-.08-.02-.13-.04-.16-.04-.05,0-.09,.02-.11,.06-.02,.04-.04,.12-.07,.24h-.07v-1.36h.07c.09,.4,.27,.7,.54,.9,.27,.2,.59,.31,.98,.31,.29,0,.52-.05,.7-.15,.17-.1,.29-.23,.36-.38s.1-.29,.1-.44c0-.3-.1-.55-.29-.74-.19-.19-.49-.39-.89-.59-.27-.14-.48-.25-.61-.33-.13-.08-.27-.18-.4-.31-.13-.12-.24-.27-.32-.44-.08-.17-.12-.37-.12-.59,0-.25,.07-.5,.21-.73,.14-.23,.34-.42,.6-.56,.26-.14,.56-.21,.89-.21,.25,0,.51,.04,.77,.12,.04,.02,.1,.03,.17,.03,.08,0,.14-.06,.17-.17h.06V1.82Z"/>
      <path class="cls-2" d="M84.75,1.99h-.07c-.05-.26-.18-.49-.39-.67-.21-.18-.46-.32-.73-.4s-.53-.13-.77-.13c-.33,0-.63,.07-.92,.2-.29,.13-.54,.32-.74,.56s-.37,.53-.49,.86-.17,.7-.17,1.09,.06,.73,.17,1.06,.28,.61,.49,.85c.21,.24,.46,.42,.75,.54,.28,.12,.6,.18,.94,.18,.29,0,.61-.06,.95-.17s.66-.3,.94-.56v.21c-.34,.25-.66,.44-.94,.55s-.64,.18-1.07,.18c-.45,0-.86-.08-1.23-.23-.37-.16-.68-.37-.94-.63-.25-.26-.45-.56-.58-.89-.13-.33-.2-.67-.2-1.02,0-.53,.14-1.02,.41-1.47,.27-.45,.64-.81,1.11-1.07,.47-.26,.97-.4,1.52-.4,.34,0,.7,.05,1.08,.14l.4,.11c.08,.01,.14,.02,.2,.02,.1,0,.17-.01,.2-.04s.06-.08,.08-.15h.06l-.05,1.29Z"/>
      <path class="cls-2" d="M84.9,.84v-.06h3.4v.85h-.05c0-.46-.32-.68-.96-.68h-1.19V3.41h1.04c.21,0,.39-.03,.55-.1,.16-.06,.26-.21,.28-.44h.06v1.23h-.06c-.02-.14-.07-.25-.13-.32s-.13-.12-.19-.15c-.06-.02-.12-.04-.17-.04-.09-.02-.19-.02-.29-.02h-1.09v1.92c0,.14,.03,.27,.09,.38,.06,.1,.19,.16,.4,.16h.85c.2,0,.37-.03,.5-.08,.13-.06,.24-.13,.31-.24,.08-.1,.14-.22,.19-.36h.05l-.2,.85h-3.4v-.06h.08c.12,0,.24-.05,.36-.14,.12-.09,.17-.25,.17-.46V1.46c0-.17-.04-.31-.12-.43-.08-.12-.22-.18-.41-.18h-.08Z"/>
      <path class="cls-2" d="M94.45,.78v.06c-.14,.02-.26,.04-.34,.08s-.15,.11-.2,.21c-.05,.1-.07,.25-.07,.45V6.33h-.04l-4.38-4.64v3.33c0,.28,.01,.48,.03,.62,.02,.13,.06,.23,.1,.29,.1,.13,.26,.2,.5,.21v.06h-1.43v-.06c.16,0,.29-.04,.37-.1s.15-.16,.19-.32c.04-.15,.06-.38,.06-.69V1.49l-.19-.2c-.17-.18-.3-.3-.4-.34s-.23-.08-.38-.11v-.06h1.07l4.31,4.59V1.87c0-.26-.01-.46-.03-.59-.02-.13-.08-.23-.17-.31-.09-.08-.24-.12-.44-.13v-.06h1.43Z"/>
      <path class="cls-2" d="M94.59,.84v-.06h3.4v.85h-.05c0-.46-.32-.68-.96-.68h-1.19V3.41h1.04c.21,0,.39-.03,.55-.1,.16-.06,.26-.21,.28-.44h.06v1.23h-.06c-.02-.14-.07-.25-.13-.32s-.13-.12-.19-.15c-.06-.02-.12-.04-.17-.04-.09-.02-.19-.02-.29-.02h-1.09v1.92c0,.14,.03,.27,.09,.38,.06,.1,.19,.16,.4,.16h.85c.2,0,.37-.03,.5-.08,.13-.06,.24-.13,.31-.24,.08-.1,.14-.22,.19-.36h.05l-.2,.85h-3.4v-.06h.08c.12,0,.24-.05,.36-.14,.12-.09,.17-.25,.17-.46V1.46c0-.17-.04-.31-.12-.43-.08-.12-.22-.18-.41-.18h-.08Z"/>
      <path class="cls-2" d="M98.3,.85h-.08v-.08h1.97c.32,0,.59,.05,.81,.14,.22,.09,.39,.21,.51,.35,.12,.14,.21,.29,.26,.45s.08,.32,.08,.47c0,.2-.04,.38-.13,.56-.09,.18-.22,.33-.4,.46-.18,.13-.4,.22-.67,.26h0c.34,.17,.66,.48,.94,.95l.51,.83c.23,.37,.42,.6,.56,.7s.28,.15,.42,.17v.06h-1.04c-.04-.05-.08-.11-.12-.16-.04-.05-.08-.1-.12-.16-.03-.04-.06-.09-.11-.17-.05-.07-.08-.12-.09-.13l-.68-1.07c-.14-.22-.28-.4-.42-.53-.14-.14-.28-.23-.4-.29-.12-.06-.24-.1-.33-.11-.1-.01-.22-.02-.35-.02v1.98c0,.38,.21,.58,.62,.6v.06h-1.82v-.06c.11,0,.21-.03,.3-.06,.09-.04,.16-.1,.22-.18,.06-.09,.09-.2,.09-.35V1.44c0-.22-.05-.37-.17-.46s-.23-.13-.36-.13Zm1.12,2.56h.33c.34,0,.62-.05,.84-.14,.22-.09,.38-.23,.47-.4,.1-.17,.15-.38,.15-.63,0-.21-.04-.41-.13-.61s-.24-.37-.45-.5c-.21-.14-.49-.2-.85-.2-.14,0-.26,.01-.36,.03V3.41Z"/>
      <path class="cls-2" d="M107.52,.78v.06c-.17,0-.32,.04-.46,.11-.13,.07-.24,.15-.31,.23-.07,.08-.15,.18-.24,.29l-1.33,1.9v2.17c0,.19,.06,.34,.18,.44,.12,.1,.27,.15,.44,.15v.06h-1.81v-.06c.18,0,.33-.05,.44-.15,.11-.09,.16-.24,.16-.44V3.47l-1.45-2.07c-.15-.22-.29-.37-.42-.44-.12-.07-.29-.11-.5-.12v-.06h2.02v.06c-.21,0-.34,.05-.4,.13-.06,.08-.09,.15-.09,.22,0,.08,.05,.19,.15,.33l1.19,1.67,1.05-1.51c.16-.23,.24-.4,.24-.52,0-.08-.02-.15-.06-.19-.04-.05-.08-.08-.13-.09s-.09-.03-.14-.04v-.06h1.45Z"/>
    </g>
    <g class="cls-4">
      <path class="cls-2" d="M5.01,2.18h-.07c-.05-.26-.18-.49-.39-.67-.21-.18-.46-.32-.73-.4s-.53-.13-.77-.13c-.33,0-.63,.07-.92,.2-.29,.13-.54,.32-.74,.56s-.37,.53-.49,.86-.17,.7-.17,1.09,.06,.73,.17,1.06,.28,.61,.49,.85c.21,.24,.46,.42,.75,.54,.28,.12,.6,.18,.94,.18,.29,0,.61-.06,.95-.17s.66-.3,.94-.56v.21c-.34,.25-.66,.44-.94,.55s-.64,.18-1.07,.18c-.45,0-.86-.08-1.23-.23-.37-.16-.68-.37-.94-.63-.25-.26-.45-.56-.58-.89-.13-.33-.2-.67-.2-1.02,0-.53,.14-1.02,.41-1.47,.27-.45,.64-.81,1.11-1.07,.47-.26,.97-.4,1.52-.4,.34,0,.7,.05,1.08,.14l.4,.11c.08,.01,.14,.02,.2,.02,.1,0,.17-.01,.2-.04s.06-.08,.08-.15h.06l-.05,1.29Z"/>
      <path class="cls-2" d="M11.32,3.68c0,.51-.13,.98-.4,1.42-.26,.44-.62,.78-1.08,1.04-.46,.26-.96,.39-1.52,.39s-1.07-.13-1.53-.39c-.46-.26-.83-.61-1.1-1.05-.27-.44-.4-.92-.4-1.43,0-.4,.08-.77,.24-1.12,.16-.35,.38-.65,.67-.91,.29-.26,.61-.46,.98-.6s.75-.21,1.14-.21,.76,.07,1.12,.2c.36,.14,.68,.33,.96,.59,.29,.26,.51,.56,.67,.92,.16,.35,.24,.74,.24,1.16Zm-.68,.01c0-.72-.13-1.28-.4-1.69s-.58-.68-.93-.82-.68-.21-.99-.21c-.24,0-.49,.04-.75,.11s-.51,.21-.75,.41c-.24,.2-.44,.48-.6,.84-.16,.36-.24,.8-.24,1.33,0,.47,.07,.87,.2,1.22,.13,.35,.31,.63,.54,.85s.48,.38,.75,.47c.27,.1,.56,.15,.86,.15,.27,0,.53-.04,.81-.13,.27-.09,.52-.24,.75-.44,.23-.2,.41-.48,.55-.82,.14-.35,.21-.77,.21-1.27Z"/>
      <path class="cls-2" d="M11.64,6.33h.08c.14,0,.26-.05,.37-.16,.11-.1,.16-.25,.16-.44V1.64c0-.23-.06-.38-.18-.47s-.26-.13-.43-.14v-.06h1.82v.06c-.16,0-.3,.05-.42,.14-.12,.09-.19,.24-.19,.47v3.95c0,.23,.06,.4,.19,.49,.12,.09,.33,.14,.61,.14h.49c.21,0,.38-.02,.51-.07,.13-.05,.23-.12,.3-.22,.08-.1,.15-.24,.23-.43h.07l-.22,.89h-3.39v-.06Z"/>
      <path class="cls-2" d="M15.2,6.33h.08c.14,0,.26-.05,.37-.16,.11-.1,.16-.25,.16-.44V1.64c0-.23-.06-.38-.18-.47s-.26-.13-.43-.14v-.06h1.82v.06c-.16,0-.3,.05-.42,.14-.12,.09-.19,.24-.19,.47v3.95c0,.23,.06,.4,.19,.49,.12,.09,.33,.14,.61,.14h.49c.21,0,.38-.02,.51-.07,.13-.05,.23-.12,.3-.22,.08-.1,.15-.24,.23-.43h.07l-.22,.89h-3.39v-.06Z"/>
      <path class="cls-2" d="M18.75,1.03v-.06h3.4v.85h-.05c0-.46-.32-.68-.96-.68h-1.19V3.6h1.04c.21,0,.39-.03,.55-.1,.16-.06,.26-.21,.28-.44h.06v1.23h-.06c-.02-.14-.07-.25-.13-.32s-.13-.12-.19-.15c-.06-.02-.12-.04-.17-.04-.09-.02-.19-.02-.29-.02h-1.09v1.92c0,.14,.03,.27,.09,.38,.06,.1,.19,.16,.4,.16h.85c.2,0,.37-.03,.5-.08,.13-.06,.24-.13,.31-.24,.08-.1,.14-.22,.19-.36h.05l-.2,.85h-3.4v-.06h.08c.12,0,.24-.05,.36-.14,.12-.09,.17-.25,.17-.46V1.65c0-.17-.04-.31-.12-.43-.08-.12-.22-.18-.41-.18h-.08Z"/>
      <path class="cls-2" d="M27.55,2.18h-.07c-.05-.26-.18-.49-.39-.67-.21-.18-.46-.32-.73-.4s-.53-.13-.77-.13c-.33,0-.63,.07-.92,.2-.29,.13-.54,.32-.74,.56s-.37,.53-.49,.86-.17,.7-.17,1.09,.06,.73,.17,1.06,.28,.61,.49,.85c.21,.24,.46,.42,.75,.54,.28,.12,.6,.18,.94,.18,.29,0,.61-.06,.95-.17s.66-.3,.94-.56v.21c-.34,.25-.66,.44-.94,.55s-.64,.18-1.07,.18c-.45,0-.86-.08-1.23-.23-.37-.16-.68-.37-.94-.63-.25-.26-.45-.56-.58-.89-.13-.33-.2-.67-.2-1.02,0-.53,.14-1.02,.41-1.47,.27-.45,.64-.81,1.11-1.07,.47-.26,.97-.4,1.52-.4,.34,0,.7,.05,1.08,.14l.4,.11c.08,.01,.14,.02,.2,.02,.1,0,.17-.01,.2-.04s.06-.08,.08-.15h.06l-.05,1.29Z"/>
      <path class="cls-2" d="M32.57,2.03h-.06c-.03-.35-.14-.58-.33-.69-.19-.1-.42-.16-.7-.16h-1.13V5.73c0,.38,.21,.58,.62,.6v.06h-1.82v-.06c.17,0,.31-.05,.43-.14s.18-.24,.18-.45V1.18h-1.13c-.28,0-.51,.05-.69,.16-.19,.1-.3,.33-.33,.69h-.06V.7h.06c.04,.06,.08,.11,.11,.14s.07,.05,.12,.08c.05,.02,.11,.04,.17,.04,.07,0,.14,.01,.23,.01h3.69c.25,0,.44-.09,.57-.27h.06v1.32Z"/>
      <path class="cls-2" d="M34.86,1.03v-.06h1.87c.31,0,.59,.04,.83,.12,.24,.08,.44,.19,.6,.33,.16,.14,.28,.3,.36,.47,.08,.18,.12,.36,.12,.55s-.04,.37-.11,.55c-.07,.17-.19,.33-.35,.47-.16,.14-.36,.24-.62,.33-.26,.08-.55,.12-.88,.12-.11,0-.31-.01-.61-.04v1.87c0,.38,.21,.58,.62,.6v.06h-1.81v-.06c.18,0,.32-.05,.44-.15,.11-.09,.17-.24,.17-.45V1.64c0-.12-.02-.23-.06-.31-.04-.08-.09-.14-.15-.18-.06-.04-.12-.06-.19-.08s-.12-.03-.14-.03h-.08Zm1.2,.13V3.71c.2,.03,.4,.05,.59,.05,.37,0,.68-.09,.94-.27,.26-.18,.38-.51,.38-1,0-.4-.11-.73-.34-.99-.23-.26-.57-.39-1.03-.39-.18,0-.36,.02-.55,.05Z"/>
      <path class="cls-2" d="M38.81,1.05h-.08v-.08h1.97c.32,0,.59,.05,.81,.14,.22,.09,.39,.21,.51,.35,.12,.14,.21,.29,.26,.45s.08,.32,.08,.47c0,.2-.04,.38-.13,.56-.09,.18-.22,.33-.4,.46-.18,.13-.4,.22-.67,.26h0c.34,.17,.66,.48,.94,.95l.51,.83c.23,.37,.42,.6,.56,.7s.28,.15,.42,.17v.06h-1.04c-.04-.05-.08-.11-.12-.16-.04-.05-.08-.1-.12-.16-.03-.04-.06-.09-.11-.17-.05-.07-.08-.12-.09-.13l-.68-1.07c-.14-.22-.28-.4-.42-.53-.14-.14-.28-.23-.4-.29-.12-.06-.24-.1-.33-.11-.1-.01-.22-.02-.35-.02v1.98c0,.38,.21,.58,.62,.6v.06h-1.82v-.06c.11,0,.21-.03,.3-.06,.09-.04,.16-.1,.22-.18,.06-.09,.09-.2,.09-.35V1.64c0-.22-.05-.37-.17-.46s-.23-.13-.36-.13Zm1.12,2.56h.33c.34,0,.62-.05,.84-.14,.22-.09,.38-.23,.47-.4,.1-.17,.15-.38,.15-.63,0-.21-.04-.41-.13-.61s-.24-.37-.45-.5c-.21-.14-.49-.2-.85-.2-.14,0-.26,.01-.36,.03V3.61Z"/>
      <path class="cls-2" d="M45.36,.97v.06c-.17,0-.32,.05-.43,.14-.12,.09-.18,.24-.18,.45V5.73c0,.21,.06,.36,.19,.45,.13,.09,.27,.14,.42,.14v.06h-1.81v-.06c.17,0,.31-.05,.43-.14s.18-.24,.18-.46V1.62c0-.23-.06-.38-.18-.46s-.26-.12-.43-.12v-.06h1.81Z"/>
      <path class="cls-2" d="M50.68,2.18h-.07c-.05-.26-.18-.49-.39-.67-.21-.18-.46-.32-.73-.4s-.53-.13-.77-.13c-.33,0-.63,.07-.92,.2-.29,.13-.54,.32-.74,.56s-.37,.53-.49,.86-.17,.7-.17,1.09,.06,.73,.17,1.06,.28,.61,.49,.85c.21,.24,.46,.42,.75,.54,.28,.12,.6,.18,.94,.18,.29,0,.61-.06,.95-.17s.66-.3,.94-.56v.21c-.34,.25-.66,.44-.94,.55s-.64,.18-1.07,.18c-.45,0-.86-.08-1.23-.23-.37-.16-.68-.37-.94-.63-.25-.26-.45-.56-.58-.89-.13-.33-.2-.67-.2-1.02,0-.53,.14-1.02,.41-1.47,.27-.45,.64-.81,1.11-1.07,.47-.26,.97-.4,1.52-.4,.34,0,.7,.05,1.08,.14l.4,.11c.08,.01,.14,.02,.2,.02,.1,0,.17-.01,.2-.04s.06-.08,.08-.15h.06l-.05,1.29Z"/>
      <path class="cls-2" d="M50.84,1.03v-.06h3.4v.85h-.05c0-.46-.32-.68-.96-.68h-1.19V3.6h1.04c.21,0,.39-.03,.55-.1,.16-.06,.26-.21,.28-.44h.06v1.23h-.06c-.02-.14-.07-.25-.13-.32s-.13-.12-.19-.15c-.06-.02-.12-.04-.17-.04-.09-.02-.19-.02-.29-.02h-1.09v1.92c0,.14,.03,.27,.09,.38,.06,.1,.19,.16,.4,.16h.85c.2,0,.37-.03,.5-.08,.13-.06,.24-.13,.31-.24,.08-.1,.14-.22,.19-.36h.05l-.2,.85h-3.4v-.06h.08c.12,0,.24-.05,.36-.14,.12-.09,.17-.25,.17-.46V1.65c0-.17-.04-.31-.12-.43-.08-.12-.22-.18-.41-.18h-.08Z"/>
      <path class="cls-2" d="M54.5,6.33h.08c.14,0,.26-.05,.37-.16,.11-.1,.16-.25,.16-.44V1.64c0-.23-.06-.38-.18-.47s-.26-.13-.43-.14v-.06h1.82v.06c-.16,0-.3,.05-.42,.14-.12,.09-.19,.24-.19,.47v3.95c0,.23,.06,.4,.19,.49,.12,.09,.33,.14,.61,.14h.49c.21,0,.38-.02,.51-.07,.13-.05,.23-.12,.3-.22,.08-.1,.15-.24,.23-.43h.07l-.22,.89h-3.39v-.06Z"/>
      <path class="cls-2" d="M58.05,1.03v-.06h3.4v.85h-.05c0-.46-.32-.68-.96-.68h-1.19V3.6h1.04c.21,0,.39-.03,.55-.1,.16-.06,.26-.21,.28-.44h.06v1.23h-.06c-.02-.14-.07-.25-.13-.32s-.13-.12-.19-.15c-.06-.02-.12-.04-.17-.04-.09-.02-.19-.02-.29-.02h-1.09v1.92c0,.14,.03,.27,.09,.38,.06,.1,.19,.16,.4,.16h.85c.2,0,.37-.03,.5-.08,.13-.06,.24-.13,.31-.24,.08-.1,.14-.22,.19-.36h.05l-.2,.85h-3.4v-.06h.08c.12,0,.24-.05,.36-.14,.12-.09,.17-.25,.17-.46V1.65c0-.17-.04-.31-.12-.43-.08-.12-.22-.18-.41-.18h-.08Z"/>
      <path class="cls-2" d="M64.63,2.01h-.06c-.04-.26-.16-.49-.36-.69s-.48-.3-.81-.3c-.22,0-.41,.05-.58,.15-.17,.1-.3,.23-.39,.4-.09,.17-.14,.36-.14,.58,0,.17,.03,.32,.08,.45,.06,.13,.14,.25,.25,.35s.24,.19,.38,.28c.15,.09,.35,.2,.6,.33,.42,.22,.74,.44,.97,.65,.23,.22,.35,.51,.35,.89,0,.23-.06,.45-.19,.67s-.31,.39-.57,.53-.57,.21-.94,.21c-.24,0-.44-.02-.62-.07-.18-.05-.36-.11-.55-.2-.08-.02-.13-.04-.16-.04-.05,0-.09,.02-.11,.06-.02,.04-.04,.12-.07,.24h-.07v-1.36h.07c.09,.4,.27,.7,.54,.9,.27,.2,.59,.31,.98,.31,.29,0,.52-.05,.7-.15,.17-.1,.29-.23,.36-.38s.1-.29,.1-.44c0-.3-.1-.55-.29-.74-.19-.19-.49-.39-.89-.59-.27-.14-.48-.25-.61-.33-.13-.08-.27-.18-.4-.31-.13-.12-.24-.27-.32-.44-.08-.17-.12-.37-.12-.59,0-.25,.07-.5,.21-.73,.14-.23,.34-.42,.6-.56,.26-.14,.56-.21,.89-.21,.25,0,.51,.04,.77,.12,.04,.02,.1,.03,.17,.03,.08,0,.14-.06,.17-.17h.06v1.16Z"/>
      <path class="cls-2" d="M67.95,2.01h-.06c-.04-.26-.16-.49-.36-.69s-.48-.3-.81-.3c-.22,0-.41,.05-.58,.15-.17,.1-.3,.23-.39,.4-.09,.17-.14,.36-.14,.58,0,.17,.03,.32,.08,.45,.06,.13,.14,.25,.25,.35,.11,.1,.24,.19,.38,.28,.15,.09,.35,.2,.6,.33,.42,.22,.74,.44,.97,.65,.23,.22,.35,.51,.35,.89,0,.23-.06,.45-.19,.67s-.31,.39-.57,.53-.57,.21-.94,.21c-.24,0-.44-.02-.62-.07-.18-.05-.36-.11-.55-.2-.08-.02-.13-.04-.16-.04-.05,0-.09,.02-.11,.06-.02,.04-.04,.12-.07,.24h-.07v-1.36h.07c.09,.4,.27,.7,.54,.9,.27,.2,.59,.31,.98,.31,.29,0,.52-.05,.7-.15,.17-.1,.29-.23,.36-.38s.1-.29,.1-.44c0-.3-.1-.55-.29-.74-.19-.19-.49-.39-.89-.59-.27-.14-.48-.25-.61-.33-.13-.08-.27-.18-.4-.31-.13-.12-.24-.27-.32-.44-.08-.17-.12-.37-.12-.59,0-.25,.07-.5,.21-.73,.14-.23,.34-.42,.6-.56,.26-.14,.56-.21,.89-.21,.25,0,.51,.04,.77,.12,.04,.02,.1,.03,.17,.03,.08,0,.14-.06,.17-.17h.06v1.16Z"/>
    </g>
    <circle class="cls-3" cx="71.95" cy="3.49" r="3.49"/>
    <g>
      <path class="cls-1" d="M70.78,.6v.04c0,.06,.02,.12,.07,.17,.05,.05,.11,.07,.2,.07h1.84c.1,0,.17-.03,.21-.08,.04-.05,.06-.12,.06-.19h.03v.82h-.03c0-.07-.02-.14-.06-.19-.04-.06-.11-.08-.21-.08h-1.78c-.11,0-.18,.03-.22,.08s-.06,.15-.06,.27v.22c0,.1,.01,.17,.03,.23,.02,.06,.06,.1,.1,.14,.04,.03,.11,.07,.19,.1v.03l-.4-.1V.6h.03Z"/>
      <path class="cls-1" d="M73.19,3.02h-.03c0-.08-.02-.14-.06-.2-.04-.05-.11-.08-.2-.08h-1.85c-.09,0-.16,.03-.21,.09-.04,.06-.06,.12-.06,.19h-.03v-.81h.03c0,.07,.02,.14,.06,.19,.04,.05,.11,.08,.21,.08h1.85c.1,0,.17-.03,.21-.08,.04-.05,.06-.12,.06-.19h.03v.81Z"/>
      <path class="cls-1" d="M73.16,3.09h.03v1.54h-.37v-.03c.08,0,.14-.04,.21-.09,.06-.05,.09-.14,.09-.27v-.62h-1.1v.58c0,.11,.02,.18,.06,.22,.04,.04,.1,.06,.18,.08v.03h-.55v-.03c.07,0,.13-.03,.17-.07,.04-.04,.07-.12,.07-.23v-.58h-.89c-.08,0-.15,.02-.19,.07-.05,.05-.07,.11-.07,.18v.04h-.03v-.83h.03v.03c0,.07,.03,.13,.07,.17,.05,.05,.11,.07,.19,.07h1.84c.1,0,.18-.02,.21-.07s.06-.11,.06-.17v-.03Z"/>
      <path class="cls-1" d="M73.16,4.73h.03v1.53h-.38v-.02c.21,0,.31-.14,.31-.43v-.54h-1.11v.47c0,.09,.01,.18,.04,.25s.09,.12,.2,.13v.03h-.55v-.03c.06-.01,.11-.03,.14-.06,.03-.03,.06-.06,.07-.09,.01-.03,.02-.05,.02-.08,0-.04,.01-.09,.01-.13v-.49h-.87c-.07,0-.12,.01-.17,.04-.05,.03-.07,.09-.07,.18v.38c0,.09,.01,.17,.04,.23s.06,.11,.11,.14c.04,.03,.1,.06,.16,.09v.02l-.38-.09v-1.53h.03v.03c0,.05,.02,.11,.06,.16,.04,.05,.11,.08,.21,.08h1.84c.08,0,.14-.02,.2-.05,.06-.04,.08-.1,.08-.19v-.03Z"/>
    </g>
  </g>
</svg>