<?xml version="1.0" encoding="UTF-8"?>
<svg id="_圖層_2" data-name="圖層 2" xmlns="http://www.w3.org/2000/svg" viewBox="0 0 45.21 10.61">
  <defs>
    <style>
      .cls-1 {
        fill: #231815;
      }
    </style>
  </defs>
  <g id="_圖層_1-2" data-name="圖層 1">
    <g>
      <path class="cls-1" d="M15.13,1.49c-.08-.03-.12-.06-.12-.08,0-.03,.05-.05,.15-.05h2.16V.79c-.44,.04-.96,.06-1.56,.06h-.24s-.03-.02-.04-.03c0,0-.01-.02-.01-.02,.02-.01,.03-.02,.04-.02,.04-.02,.08-.04,.12-.04,.78-.1,1.42-.2,1.92-.29,.5-.09,.89-.19,1.17-.29l.59,.33s.02,.02,.02,.03c0,0,0,.02,.01,.03,0,.06-.1,.09-.32,.09l-1.25,.09v.63h1.65l.24-.31,.05-.02,.07,.02,.32,.29s.04,.07,.04,.1-.01,.05-.04,.05h-2.33v.48h1.25l.2-.14,.07-.02,.09,.02,.35,.2s0,.01,0,.02c0,.01,0,.02,0,.04v.03c-.15,.15-.22,.27-.22,.37v1.23c-.07,.04-.11,.07-.14,.08-.08,.04-.15,.06-.2,.06-.05,0-.09-.03-.11-.08v-.1h-1.32v.7h1.25l.35-.32s.05-.03,.07-.03l.05,.03,.35,.32s.02,.05,.02,.08c0,.02-.02,.04-.02,.04h-2.07v.63h1.87l.29-.35h.05s.08,0,.08,0l.36,.33s.04,.08,.04,.1c0,.01,0,.02-.01,.03,0,0-.01,.02-.02,.02h-5.37s-.06-.03-.08-.04c-.02-.01-.03-.03-.05-.04,0-.04,.05-.06,.16-.06h2.23v-.63h-1.75s-.06-.03-.09-.05c0,0-.02-.01-.04-.03,0-.02,.03-.03,.08-.05h1.8v-.7h-1.19v.15c-.13,.07-.24,.1-.32,.1-.1,0-.14-.04-.14-.14V1.82c.13,0,.29,.05,.5,.15h1.15v-.48h-2.19Zm1,.62v.66h1.19v-.66h-1.19Zm0,.78v.71h1.19v-.71h-1.19Zm1.65-.79v.68h1.32v-.68h-1.32Zm0,.81v.69h1.32v-.69h-1.32Z"/>
      <path class="cls-1" d="M27.31,1.76h.09l.32,.28,.02,.06s-.01,.05-.04,.06h-1.27v.43h.85l.24-.33h.04s.07,0,.07,0l.35,.33v.05s-.01,.06-.06,.07h-3.41l-.05-.04-.02-.04,.02-.03h1.48v-.43h-1.13c-.05-.04-.08-.07-.08-.1l.02-.02h1.19v-.38h-1.06s-.06-.07-.07-.1l.06-.04h1.06v-.38h-1.34l-.04-.05-.02-.05,.02-.03h1.38v-.38h-1.04l-.05-.06-.02-.03s.02-.03,.05-.03h1.06V0l.48,.06c.09,.02,.14,.05,.14,.09,0,.03-.05,.07-.14,.11v.27h.52l.16-.18h.14l.26,.18s.04,.04,.04,.07c0,.03-.01,.06-.04,.08l-.04,.06v.28h.1l.22-.27h.12l.29,.29v.05s0,.04-.04,.05h-.68v.45c-.12,.11-.22,.16-.3,.16-.06,0-.12-.03-.17-.09h-.57v.38h.67l.21-.28Zm-2.86,3.04c.16,0,.29,0,.38,0,.39-.02,.61-.02,.65-.02,.19,0,.41-.01,.64-.03,.23-.02,.4-.04,.51-.05l1.24-.11h.04s.05,0,.05,.01h.02s-.04,.04-.04,.04l-.07,.02-2.99,.61c-.06,.07-.11,.11-.16,.11-.05,0-.09-.04-.12-.11l-.16-.46Zm3.09-1.68s.02,.03,.02,.07c0,.04-.02,.06-.02,.07-.05,.03-.08,.13-.08,.32v.06s0,.71,0,.71c-.13,.11-.24,.17-.33,.17-.04,0-.08-.02-.11-.05v-.14h-1.77v.1c-.11,.11-.21,.16-.3,.16-.06,0-.1-.02-.14-.07v-1.5c0-.06,.05-.08,.12-.08,.08,0,.19,.03,.32,.1h1.77l.14-.1h.05s.09,0,.09,0l.23,.19Zm-2.28,.04v.45h.7v-.45h-.7Zm0,1.04h.7v-.46h-.7v.46Zm1.14-.59h.63v-.45h-.63v.45Zm0,.59h.63v-.46h-.63v.46Zm.04-3.56v.38h.58v-.38h-.58Zm0,.88h.58v-.38h-.58v.38Zm1.89-1.05l.47,.1c.07,.02,.1,.06,.1,.11,0,.03-.02,.07-.07,.11-.03,.04-.05,.09-.06,.16l.02,.07V3.65c-.12,.15-.22,.23-.32,.23-.05,0-.1-.02-.14-.07V.47Zm.71,4.32h.04c.08,0,.14-.02,.19-.08,.05-.06,.07-.13,.07-.23V0l.48,.12c.09,.03,.14,.06,.15,.1,0,.03-.04,.07-.11,.11-.04,.05-.06,.12-.06,.2v.03s0,4.1,0,4.1c0,.24-.06,.43-.17,.56-.1,.13-.27,.21-.51,.23-.11,0-.16-.05-.16-.14v-.04c-.14-.23-.33-.39-.55-.48l-.05-.03s.05-.03,.08-.03l.61,.07Z"/>
    </g>
    <g>
      <path class="cls-1" d="M1.4,7.99v-.47s0-.02,0-.03c0-.03,0-.06,.02-.08,.03-.07,.08-.1,.17-.1s.14,.03,.17,.1c0,.02,.02,.05,.02,.08,0,.01,0,.02,0,.04v.47h1.09s.02,0,.03,0c.01,0,.02,0,.03,.01,.02,.01,.03,.04,.03,.07,0,.03-.01,.06-.04,.07,0,0-.02,0-.03,.01,0,0-.02,0-.03,0H1.78v.94h.92s.02,0,.03,0c.01,0,.02,0,.03,.01,.02,.01,.03,.04,.03,.07,0,.03-.01,.06-.04,.07,0,0-.02,0-.03,.01,0,0-.02,0-.03,0h-.92v1.06h1.3s.02,0,.03,0c.01,0,.02,0,.03,.01,.02,.01,.03,.03,.03,.07,0,.03-.01,.05-.04,.06,0,0-.02,.01-.03,.01,0,0-.02,0-.03,0H.1s-.02,0-.03,0c-.01,0-.02,0-.03-.01-.03-.01-.04-.03-.04-.06,0-.03,.01-.06,.04-.07,0,0,.02,0,.03-.01H1.4v-1.06H.47s-.02,0-.03,0c-.01,0-.02,0-.03-.01-.03-.01-.04-.03-.04-.07s.01-.06,.04-.07c0,0,.02,0,.03-.01,0,0,.02,0,.03,0h.93v-.94H.62c-.09,.16-.2,.31-.3,.45-.12,.15-.2,.22-.23,.22-.05,0-.08-.03-.08-.08,0,0,0-.02,0-.03l.03-.05c.11-.18,.2-.36,.27-.56,.06-.17,.11-.33,.13-.5,.03-.15,.09-.22,.2-.22,.05,0,.1,.02,.15,.05,.05,.04,.08,.08,.08,.14,0,.05-.02,.13-.07,.24l-.05,.11-.04,.07h.69Z"/>
      <path class="cls-1" d="M8.92,8.94s-.07,0-.09-.03-.07-.08-.14-.18c-.04-.05-.08-.1-.14-.16-.04-.04-.08-.09-.13-.13-.03-.03-.04-.05-.04-.08,0-.06,.03-.08,.08-.08,.01,0,.03,0,.06,.01,.03,0,.06,.02,.1,.04,.08,.04,.16,.08,.24,.12,.12,.06,.19,.12,.22,.15,.03,.03,.04,.07,.04,.11,0,.14-.07,.21-.2,.21Zm.39,.16s-.03,.13-.09,.31c-.03,.1-.07,.21-.11,.31-.04,.13-.09,.25-.14,.37-.08,.19-.13,.31-.18,.37-.03,.05-.08,.07-.13,.07-.06,0-.11-.02-.15-.07-.04-.04-.06-.09-.06-.14,0-.02,0-.05,.02-.08,.01-.02,.05-.09,.12-.19,.11-.16,.21-.32,.29-.48,.04-.07,.08-.15,.12-.24l.13-.27s.05-.06,.08-.06c.05,0,.08,.03,.08,.08Zm-.24-1.15s-.07,0-.09-.03c-.02-.02-.06-.07-.13-.16-.03-.05-.07-.1-.12-.14l-.17-.17s-.03-.03-.03-.06c0-.05,.03-.08,.08-.08,.05,0,.17,.06,.37,.17,.12,.07,.19,.12,.23,.16,.03,.03,.04,.06,.04,.11,0,.14-.06,.2-.19,.2Zm1.56,.38h.86s.02,0,.03,0c.01,0,.02,0,.03,.01,.03,.01,.04,.03,.04,.07s-.01,.06-.04,.07c0,0-.02,0-.03,.01,0,0-.02,0-.03,0h-.86v.63h.43c.24,0,.37,.11,.37,.34v.73c0,.13-.03,.22-.1,.28-.06,.04-.14,.06-.26,.06h-1.23c-.24,0-.36-.11-.36-.34v-.73c0-.13,.03-.22,.1-.27,.06-.05,.14-.07,.27-.07h.43v-.63h-.88s-.02,0-.03,0c-.01,0-.02,0-.03-.01-.02-.01-.03-.04-.03-.07,0-.03,.01-.06,.04-.07,0,0,.02,0,.03-.01,0,0,.02,0,.03,0h.88v-.61h-.31c-.11,.01-.2,.01-.28,.01h-.11s-.05,0-.06,0c-.02,0-.03,0-.04,0-.03-.02-.04-.04-.04-.07,0-.06,.04-.08,.11-.09,.19,0,.37-.02,.53-.04,.15-.01,.29-.03,.41-.06,.12-.02,.22-.04,.32-.07,.09-.02,.17-.05,.25-.08,.05-.02,.08-.03,.1-.03,.12,0,.17,.06,.17,.19,0,.05-.02,.08-.06,.11-.02,.01-.05,.03-.1,.04-.1,.02-.28,.05-.54,.07v.64Zm.42,1.13c0-.11-.05-.16-.16-.16h-.89c-.11,0-.16,.05-.16,.16v.75c0,.11,.05,.17,.16,.17h.89c.11,0,.16-.06,.16-.17v-.75Z"/>
      <path class="cls-1" d="M16.89,8.18c0-.13,.03-.21,.1-.25,.05-.03,.14-.05,.26-.05l.06-.21c.01-.06,.03-.1,.03-.13l.02-.09c.02-.08,.08-.13,.17-.13,.05,0,.1,.01,.14,.04,.05,.03,.08,.07,.08,.13,0,.04-.03,.1-.08,.19-.02,.03-.05,.07-.08,.1l-.07,.09h.28c.22,0,.33,.1,.33,.3v1.91c0,.2-.11,.3-.33,.3h-.57c-.23,0-.34-.1-.34-.3v-1.91Zm.37,.85h.52v-.83c0-.11-.05-.17-.16-.17h-.2c-.11,0-.16,.06-.16,.17v.83Zm.52,.16h-.52v.87c0,.11,.05,.16,.16,.16h.2c.11,0,.16-.05,.16-.16v-.87Zm1.75-1.24c.16,0,.27,.04,.32,.12,.02,.03,.04,.08,.04,.13,0,.03,0,.08,0,.14,0,.14,0,.29,0,.44,0,.19-.01,.37-.02,.53-.01,.2-.03,.37-.05,.52-.02,.17-.05,.31-.08,.4-.05,.15-.13,.25-.24,.3-.04,.02-.1,.03-.16,.04h-.08s-.54,0-.54,0c-.01,0-.02,0-.03,0-.01,0-.02,0-.03-.01-.02-.01-.03-.03-.03-.06,0-.03,.01-.06,.04-.07,0,0,.02,0,.03-.01,0,0,.02,0,.03,0h.28c.17,0,.28-.06,.33-.17,.04-.08,.08-.2,.1-.37,.02-.14,.04-.31,.06-.51,.01-.16,.02-.34,.02-.53v-.43c0-.07,0-.12,0-.15,0-.04,0-.07-.01-.09-.02-.04-.06-.07-.13-.07h-.6c-.07,.12-.14,.22-.21,.32-.06,.09-.13,.18-.22,.28-.03,.03-.06,.05-.08,.05-.05,0-.08-.03-.08-.08,0,0,0-.02,.01-.04l.02-.04c.11-.19,.19-.38,.25-.57,.02-.08,.04-.16,.07-.25l.05-.28s0-.03,.01-.04c0-.03,.02-.06,.03-.08,.03-.05,.08-.08,.16-.08,.06,0,.11,.02,.16,.05,.05,.04,.08,.09,.08,.15,0,.04-.02,.11-.06,.2l-.11,.23h.65Zm-.56,1.81c-.09,0-.16-.1-.21-.3-.03-.11-.05-.21-.08-.28-.03-.1-.08-.2-.13-.32-.01-.02-.02-.03-.02-.05,0-.05,.03-.08,.08-.08,.02,0,.07,.03,.13,.1l.1,.12,.12,.15c.04,.05,.07,.11,.1,.15,.08,.12,.11,.22,.11,.28,0,.14-.07,.21-.21,.21Z"/>
      <path class="cls-1" d="M25.3,8.27s-.02,0-.03,0c-.01,0-.02,0-.03-.01-.02-.01-.03-.03-.03-.06,0-.03,.01-.06,.04-.07,0,0,.02,0,.03-.01,0,0,.02,0,.03,0h.93c.1,0,.17,.02,.22,.08,.04,.04,.05,.08,.05,.14,0,.04,0,.1-.03,.18-.02,.1-.05,.2-.09,.31-.04,.13-.1,.26-.16,.38-.07,.15-.16,.28-.25,.4-.08,.1-.16,.19-.24,.28-.07,.07-.15,.14-.22,.2-.14,.11-.22,.17-.26,.17-.05,0-.08-.03-.08-.08,0-.03,.02-.05,.05-.08,.17-.14,.32-.31,.44-.51,.1-.16,.19-.34,.26-.54,.03-.08,.06-.16,.08-.24,.02-.07,.04-.14,.05-.21,.01-.06,.02-.11,.03-.16,0-.04,0-.07,0-.09,0-.05-.03-.07-.08-.07h-.72Zm1.67,1.99c0,.12-.04,.21-.1,.26-.06,.04-.14,.06-.26,.06h-.47s-.03,0-.03-.01c-.01,0-.02-.01-.03-.02,0-.01-.01-.03-.01-.05s0-.03,.01-.05c0-.01,.02-.02,.03-.02,0,0,.02,0,.03-.01h.29c.12,0,.18-.06,.18-.19v-2.72s0-.02,0-.04c0-.03,0-.06,.02-.08,.03-.06,.08-.1,.16-.1s.13,.03,.16,.1c.01,.02,.02,.05,.02,.08,0,.01,0,.02,0,.04v.36c.04,.16,.07,.3,.11,.41,.01,.04,.03,.09,.05,.14l.04,.1s.01,.03,.01,.04c.1-.07,.21-.16,.32-.27,.12-.11,.21-.22,.3-.34,.07-.1,.13-.14,.2-.14,.05,0,.11,.02,.15,.07s.07,.1,.07,.16c0,.04-.02,.08-.04,.11-.04,.05-.13,.11-.27,.21-.12,.08-.22,.14-.32,.2l-.32,.17c.26,.56,.63,1.01,1.1,1.35,.04,.02,.05,.05,.05,.08,0,.06-.03,.09-.08,.09-.01,0-.05-.02-.1-.05-.05-.03-.12-.07-.19-.12-.08-.06-.16-.11-.24-.18-.09-.07-.17-.14-.24-.21-.08-.07-.15-.15-.22-.23-.06-.07-.12-.14-.17-.22-.04-.06-.08-.12-.12-.19l-.04-.08s-.02-.04-.03-.06v1.34Z"/>
      <path class="cls-1" d="M35.38,9.12h1.3s.02,0,.03,0c.01,0,.02,0,.03,.01,.02,.01,.03,.03,.03,.06,0,.03-.01,.06-.04,.07,0,0-.02,0-.03,.01,0,0-.02,0-.03,0h-1.3v1.11s0,.03,0,.04c0,.03,0,.06-.02,.08-.03,.07-.09,.1-.17,.1s-.14-.03-.17-.1c0-.02-.02-.05-.02-.08,0-.01,0-.02,0-.04v-1.11h-1.3s-.02,0-.03,0c-.01,0-.02,0-.03-.01-.02-.01-.04-.03-.04-.06,0-.03,.01-.06,.04-.07,0,0,.02,0,.03-.01,0,0,.02,0,.03,0h1.3v-1.46h-1.15s-.02,0-.03,0c-.01,0-.02,0-.03-.01-.03-.01-.04-.04-.04-.07,0-.03,.01-.06,.04-.07,0,0,.02,0,.03-.01h2.72s.02,0,.03,0c.01,0,.02,0,.03,.01,.02,.01,.04,.03,.04,.07,0,.03-.01,.05-.04,.07,0,0-.02,0-.03,.01,0,0-.02,0-.03,0h-1.16v1.46Zm-.93-.21c-.06,0-.11-.02-.14-.06-.02-.03-.05-.11-.08-.23-.02-.09-.05-.18-.09-.27-.04-.11-.09-.21-.15-.31-.01-.02-.02-.04-.02-.06,0-.05,.03-.08,.08-.08,.02,0,.07,.03,.13,.1,.07,.06,.14,.14,.21,.23,.08,.1,.14,.18,.19,.26,.06,.09,.09,.16,.09,.2,0,.15-.07,.22-.22,.22Zm1.96-.94s.07,.09,.07,.14c0,.05-.03,.12-.1,.21-.06,.08-.13,.17-.23,.27-.08,.09-.17,.16-.25,.23-.08,.06-.13,.1-.15,.1-.05,0-.08-.03-.08-.08,0,0,0-.03,.03-.06,.01-.03,.03-.05,.04-.07,.06-.08,.12-.18,.17-.31,.02-.05,.04-.1,.07-.17l.08-.18c.04-.1,.1-.14,.19-.14,.06,0,.11,.02,.16,.06Z"/>
      <path class="cls-1" d="M42.53,9.12s-.02,0-.04,0l-.32,.06s-.06,.01-.08,.01c-.09,0-.13-.05-.13-.16,0-.07,.02-.12,.07-.14,.02,0,.06-.01,.1-.02h.14c.05-.06,.1-.13,.17-.21l.1-.13s-.07-.04-.1-.1l-.03-.06s-.04-.07-.07-.11c-.07-.1-.14-.2-.23-.3-.06-.07-.09-.12-.09-.14,0-.06,.03-.08,.08-.08,0,0,.03,0,.05,.02,.02,.01,.05,.03,.08,.05l.08,.06s.02,.02,.03,.02l.02,.02c.04-.07,.07-.13,.09-.17,.03-.07,.07-.16,.11-.27,.02-.06,.04-.1,.06-.11,.03-.03,.07-.05,.11-.05,.05,0,.09,.01,.13,.04,.05,.04,.07,.08,.07,.13,0,.03-.01,.06-.04,.11-.03,.04-.06,.09-.11,.15-.04,.05-.08,.1-.14,.16-.04,.04-.08,.09-.12,.13l.09,.09c.05,.05,.09,.09,.11,.13l.12-.2s.05-.09,.09-.15c.04-.07,.08-.1,.15-.1,.13,0,.2,.06,.2,.18,0,.03-.01,.07-.03,.11-.03,.05-.1,.14-.2,.25l-.21,.24c-.1,.1-.19,.2-.27,.29,.13,0,.23-.01,.28-.02,.04,0,.11,0,.2-.02-.02-.07-.04-.13-.07-.19l-.02-.04s-.01-.03-.01-.04c0-.05,.03-.08,.08-.08,.02,0,.05,.02,.09,.07,.04,.04,.08,.1,.12,.16,.11,.16,.16,.26,.16,.32,0,.11-.05,.16-.17,.16-.06,0-.11-.07-.15-.22l-.22,.06v1.37s0,.02,0,.03c0,.03,0,.05-.02,.08-.03,.06-.07,.09-.14,.09s-.12-.03-.14-.09c0-.02-.02-.05-.02-.08,0,0,0-.02,0-.03v-1.29Zm-.54,1.23s0-.03,.01-.06l.06-.26,.03-.21c0-.07,.02-.18,.03-.32,0,0,0-.02,0-.02,0,0,0-.02,0-.03,0-.02,.01-.04,.02-.06,.03-.04,.07-.06,.13-.06,.01,0,.03,0,.05,0,.02,0,.04,.01,.06,.02,.05,.03,.07,.07,.07,.13,0,.14-.06,.35-.19,.63-.03,.08-.06,.14-.09,.19-.04,.07-.08,.11-.11,.11-.05,0-.07-.03-.07-.08Zm1.08-.35s-.02-.1-.03-.21c0-.05-.01-.1-.02-.16-.01-.07-.03-.13-.04-.18-.01-.04-.02-.06-.02-.08,0-.05,.02-.07,.08-.07,.02,0,.04,.02,.08,.08,.03,.05,.07,.1,.1,.17,.08,.16,.12,.28,.12,.35,0,.1-.05,.15-.16,.15-.05,0-.09-.02-.11-.05Zm.31-.55s-.02,0-.03,0c-.01,0-.02,0-.03-.01-.02-.01-.03-.04-.03-.07,0-.03,.01-.06,.03-.07,0,0,.02,0,.03-.01,0,0,.02,0,.03,0h.41c.13,0,.2,.05,.2,.16,0,.06-.03,.16-.08,.29-.03,.08-.07,.16-.11,.23-.05,.09-.11,.17-.17,.25-.07,.08-.14,.16-.22,.23s-.14,.11-.17,.11c-.05,0-.08-.03-.08-.08,0-.02,.02-.05,.05-.09,.09-.09,.16-.19,.23-.3,.05-.09,.1-.18,.13-.28,.03-.07,.04-.14,.06-.21v-.1s0-.03,0-.04h-.02s-.21,0-.21,0Zm1.03-.43c.03,.11,.07,.22,.11,.32,0,.02,.01,.04,.02,.06l.04,.09s0,0,0,0l.09-.08s.02-.02,.03-.03c.06-.05,.11-.11,.16-.18l.05-.06s.05-.03,.09-.03c.12,0,.18,.06,.18,.18,0,.03,0,.06-.02,.08l-.02,.03-.02,.02c-.05,.04-.13,.09-.23,.15-.03,.02-.07,.04-.11,.06l-.08,.05c.14,.23,.29,.44,.48,.62,.03,.03,.05,.06,.05,.08,0,.05-.03,.08-.08,.08-.04,0-.14-.07-.29-.22-.08-.07-.15-.15-.22-.24-.08-.1-.15-.2-.21-.29v.58c0,.09-.02,.16-.05,.2-.05,.06-.13,.09-.25,.09h-.35s-.03,0-.03-.01c-.01,0-.02-.01-.03-.03,0-.01-.01-.03-.01-.05,0-.02,0-.03,.01-.04,0-.01,.02-.02,.03-.02,0,0,.02,0,.03-.01,0,0,.02,0,.03,0h.13c.1,0,.14-.05,.14-.15v-1.32h-.28c-.21,0-.31-.09-.31-.28v-.73c0-.19,.1-.28,.31-.28h.16l.11-.27s.02-.03,.03-.04c.03-.03,.07-.04,.12-.04,.05,0,.09,.01,.13,.04,.05,.03,.07,.07,.07,.11,0,.05-.05,.12-.14,.2h.45c.21,0,.31,.09,.31,.28v.73c0,.19-.1,.28-.31,.28h-.31v.06Zm-.6-.8h.86v-.25c0-.1-.05-.15-.14-.15h-.57c-.1,0-.14,.05-.14,.15v.25Zm.86,.16h-.86v.25c0,.1,.05,.15,.14,.15h.57c.1,0,.14-.05,.14-.15v-.25Z"/>
    </g>
  </g>
</svg>