<?xml version="1.0" encoding="UTF-8"?>
<svg id="_圖層_2" data-name="圖層 2" xmlns="http://www.w3.org/2000/svg" viewBox="0 0 99.44 6.98">
  <defs>
    <style>
      .cls-1, .cls-2 {
        fill: #fff;
      }

      .cls-3, .cls-2 {
        opacity: .5;
      }

      .cls-4 {
        fill: #878787;
      }
    </style>
  </defs>
  <g id="_圖層_1-2" data-name="圖層 1">
    <circle class="cls-2" cx="81.19" cy="3.49" r="3.49"/>
    <g class="cls-3">
      <path class="cls-1" d="M.08,.85h-.08v-.08H1.97c.32,0,.59,.05,.81,.14s.39,.21,.51,.35c.12,.14,.21,.29,.26,.45,.05,.16,.08,.32,.08,.47,0,.2-.04,.38-.13,.56s-.22,.33-.4,.46c-.18,.13-.4,.22-.67,.26h0c.34,.17,.66,.48,.94,.95l.51,.83c.23,.37,.42,.6,.56,.7s.28,.15,.42,.17v.06h-1.04c-.04-.05-.08-.11-.12-.16-.04-.05-.08-.1-.12-.16-.03-.04-.06-.09-.11-.17s-.08-.12-.09-.13l-.68-1.07c-.14-.22-.28-.4-.42-.53-.14-.14-.28-.23-.4-.29-.12-.06-.24-.1-.33-.11-.1-.01-.22-.02-.35-.02v1.98c0,.38,.21,.58,.62,.6v.06H0v-.06c.11,0,.21-.03,.3-.06,.09-.04,.16-.1,.22-.18s.09-.2,.09-.35V1.44c0-.22-.06-.37-.17-.46s-.23-.13-.36-.13ZM1.2,3.41h.32c.34,0,.62-.05,.84-.14,.22-.09,.38-.23,.47-.4,.1-.17,.15-.38,.15-.63,0-.21-.04-.41-.13-.61-.09-.2-.24-.37-.45-.5-.21-.14-.49-.2-.85-.2-.14,0-.26,.01-.36,.03V3.41Z"/>
      <path class="cls-1" d="M4.81,.83v-.06h3.4v.85h-.05c0-.46-.32-.68-.96-.68h-1.19V3.4h1.04c.21,0,.39-.03,.55-.1,.16-.06,.26-.21,.28-.44h.06v1.23h-.06c-.02-.14-.07-.25-.13-.32-.06-.07-.13-.12-.19-.15-.06-.02-.12-.04-.17-.04-.09-.02-.19-.02-.29-.02h-1.1v1.92c0,.14,.03,.27,.09,.38,.06,.1,.19,.16,.4,.16h.85c.2,0,.37-.03,.5-.08,.13-.06,.24-.13,.31-.24,.08-.1,.14-.22,.19-.36h.05l-.2,.85h-3.4v-.06h.08c.12,0,.24-.05,.36-.14,.12-.09,.17-.25,.17-.46V1.45c0-.17-.04-.31-.12-.43-.08-.12-.22-.18-.41-.18h-.08Z"/>
      <path class="cls-1" d="M11.39,1.81h-.06c-.04-.26-.16-.49-.36-.69s-.48-.3-.81-.3c-.22,0-.41,.05-.58,.15s-.3,.23-.39,.4c-.09,.17-.14,.36-.14,.58,0,.17,.03,.32,.08,.45,.06,.13,.14,.25,.25,.35s.24,.19,.38,.28c.15,.09,.35,.2,.6,.33,.42,.22,.74,.44,.98,.65,.23,.22,.35,.51,.35,.89,0,.23-.06,.45-.19,.67s-.31,.39-.57,.53-.57,.21-.94,.21c-.23,0-.44-.02-.62-.07-.18-.05-.36-.11-.55-.2-.08-.02-.13-.04-.16-.04-.05,0-.09,.02-.11,.06s-.04,.12-.07,.24h-.07v-1.36h.07c.09,.4,.27,.7,.54,.9,.27,.2,.59,.31,.98,.31,.29,0,.52-.05,.69-.15,.17-.1,.29-.23,.36-.38,.07-.15,.1-.29,.1-.44,0-.3-.1-.55-.29-.74-.19-.19-.49-.39-.89-.59-.27-.14-.48-.25-.61-.33s-.27-.18-.4-.31c-.14-.12-.24-.27-.32-.44-.08-.17-.12-.37-.12-.59,0-.25,.07-.5,.21-.73,.14-.23,.34-.42,.6-.56,.26-.14,.56-.21,.89-.21,.25,0,.51,.04,.77,.12,.04,.02,.1,.03,.17,.03,.09,0,.14-.06,.17-.17h.06V1.81Z"/>
      <path class="cls-1" d="M11.77,.83v-.06h3.4v.85h-.05c0-.46-.32-.68-.96-.68h-1.19V3.4h1.04c.21,0,.39-.03,.55-.1,.16-.06,.26-.21,.28-.44h.06v1.23h-.06c-.02-.14-.07-.25-.13-.32-.06-.07-.13-.12-.19-.15-.06-.02-.12-.04-.17-.04-.09-.02-.19-.02-.29-.02h-1.1v1.92c0,.14,.03,.27,.09,.38,.06,.1,.19,.16,.4,.16h.85c.2,0,.37-.03,.5-.08,.13-.06,.24-.13,.31-.24,.08-.1,.14-.22,.19-.36h.05l-.2,.85h-3.4v-.06h.08c.12,0,.24-.05,.36-.14,.12-.09,.17-.25,.17-.46V1.45c0-.17-.04-.31-.12-.43-.08-.12-.22-.18-.41-.18h-.08Z"/>
      <path class="cls-1" d="M20.29,1.83h-.06c-.03-.35-.14-.58-.32-.69-.19-.1-.42-.16-.7-.16h-1.13V5.53c0,.38,.21,.58,.62,.6v.06h-1.81v-.06c.17,0,.31-.05,.43-.14,.12-.09,.18-.24,.18-.45V.98h-1.13c-.28,0-.51,.05-.69,.16-.19,.1-.3,.33-.33,.69h-.06V.5h.06c.04,.06,.08,.11,.11,.14,.03,.03,.07,.05,.12,.08,.05,.02,.11,.04,.17,.04,.07,0,.14,.01,.23,.01h3.69c.25,0,.44-.09,.57-.27h.06V1.83Z"/>
      <path class="cls-1" d="M27.43,1.83h-.06c-.03-.35-.14-.58-.32-.69-.19-.1-.42-.16-.7-.16h-1.13V5.53c0,.38,.21,.58,.62,.6v.06h-1.81v-.06c.17,0,.31-.05,.43-.14,.12-.09,.18-.24,.18-.45V.98h-1.13c-.28,0-.51,.05-.69,.16-.19,.1-.3,.33-.33,.69h-.06V.5h.06c.04,.06,.08,.11,.11,.14,.03,.03,.07,.05,.12,.08,.05,.02,.11,.04,.17,.04,.07,0,.14,.01,.23,.01h3.69c.25,0,.44-.09,.57-.27h.06V1.83Z"/>
      <path class="cls-1" d="M31.9,3.25V1.44c0-.18-.05-.32-.15-.43-.1-.11-.26-.17-.47-.17v-.06h1.81v.06c-.21,0-.37,.06-.46,.17-.1,.11-.15,.26-.15,.44V5.53c0,.4,.2,.6,.61,.6v.06h-1.81v-.06c.19,0,.35-.05,.45-.15,.11-.1,.16-.25,.16-.44V3.41h-3.27v2.12c0,.19,.06,.33,.17,.44,.11,.1,.26,.16,.45,.16v.06h-1.81v-.06c.2,0,.35-.05,.45-.16,.1-.1,.16-.25,.16-.44V1.44c0-.4-.2-.6-.61-.6v-.06h1.81v.06c-.21,0-.37,.06-.47,.17-.1,.11-.15,.26-.15,.44v1.81h3.27Z"/>
      <path class="cls-1" d="M33.24,.83v-.06h3.4v.85h-.05c0-.46-.32-.68-.96-.68h-1.19V3.4h1.04c.21,0,.39-.03,.55-.1,.16-.06,.26-.21,.28-.44h.06v1.23h-.06c-.02-.14-.07-.25-.13-.32-.06-.07-.13-.12-.19-.15-.06-.02-.12-.04-.17-.04-.09-.02-.19-.02-.29-.02h-1.1v1.92c0,.14,.03,.27,.09,.38,.06,.1,.19,.16,.4,.16h.85c.2,0,.37-.03,.5-.08,.13-.06,.24-.13,.31-.24,.08-.1,.14-.22,.19-.36h.05l-.2,.85h-3.4v-.06h.08c.12,0,.24-.05,.36-.14,.12-.09,.17-.25,.17-.46V1.45c0-.17-.04-.31-.12-.43-.08-.12-.22-.18-.41-.18h-.08Z"/>
      <path class="cls-1" d="M43.58,3.25V1.44c0-.18-.05-.32-.15-.43-.1-.11-.26-.17-.47-.17v-.06h1.81v.06c-.21,0-.37,.06-.46,.17-.1,.11-.15,.26-.15,.44V5.53c0,.4,.2,.6,.61,.6v.06h-1.81v-.06c.19,0,.35-.05,.45-.15,.11-.1,.16-.25,.16-.44V3.41h-3.27v2.12c0,.19,.06,.33,.17,.44,.11,.1,.26,.16,.45,.16v.06h-1.81v-.06c.2,0,.35-.05,.45-.16,.1-.1,.16-.25,.16-.44V1.44c0-.4-.2-.6-.61-.6v-.06h1.81v.06c-.21,0-.37,.06-.47,.17-.1,.11-.15,.26-.15,.44v1.81h3.27Z"/>
      <path class="cls-1" d="M51.07,3.48c0,.51-.13,.98-.4,1.42s-.62,.78-1.08,1.04c-.46,.26-.96,.39-1.52,.39s-1.07-.13-1.53-.39c-.46-.26-.83-.61-1.1-1.05s-.4-.92-.4-1.43c0-.4,.08-.77,.24-1.12,.16-.35,.38-.65,.67-.91,.28-.26,.61-.46,.98-.6,.36-.14,.75-.21,1.14-.21s.76,.07,1.12,.2c.36,.14,.68,.33,.97,.59s.51,.56,.67,.92c.16,.35,.24,.74,.24,1.16Zm-.68,.01c0-.72-.13-1.28-.4-1.69-.27-.41-.58-.68-.93-.82-.35-.14-.68-.21-.99-.21-.24,0-.49,.04-.75,.11s-.51,.21-.75,.41c-.24,.2-.44,.48-.6,.84-.16,.36-.24,.8-.24,1.33,0,.47,.06,.87,.2,1.22s.31,.63,.54,.85c.23,.22,.48,.38,.75,.47,.27,.1,.56,.15,.86,.15,.27,0,.53-.04,.81-.13,.27-.09,.52-.24,.75-.44s.41-.48,.55-.82c.14-.35,.21-.77,.21-1.27Z"/>
      <path class="cls-1" d="M51.45,.85h-.08v-.08h1.97c.32,0,.59,.05,.81,.14s.39,.21,.51,.35c.12,.14,.21,.29,.26,.45,.05,.16,.08,.32,.08,.47,0,.2-.04,.38-.13,.56-.09,.18-.22,.33-.4,.46s-.4,.22-.67,.26h0c.34,.17,.66,.48,.94,.95l.51,.83c.23,.37,.42,.6,.56,.7s.28,.15,.42,.17v.06h-1.04c-.04-.05-.08-.11-.12-.16s-.08-.1-.12-.16c-.03-.04-.06-.09-.11-.17-.05-.07-.08-.12-.09-.13l-.68-1.07c-.14-.22-.28-.4-.42-.53-.14-.14-.28-.23-.4-.29-.12-.06-.24-.1-.33-.11-.1-.01-.22-.02-.35-.02v1.98c0,.38,.21,.58,.62,.6v.06h-1.82v-.06c.11,0,.21-.03,.3-.06,.09-.04,.16-.1,.22-.18,.06-.09,.09-.2,.09-.35V1.44c0-.22-.06-.37-.17-.46-.11-.09-.23-.13-.36-.13Zm1.12,2.56h.32c.34,0,.62-.05,.84-.14s.38-.23,.47-.4c.1-.17,.15-.38,.15-.63,0-.21-.04-.41-.13-.61-.09-.2-.24-.37-.45-.5-.21-.14-.49-.2-.85-.2-.14,0-.26,.01-.36,.03V3.41Z"/>
      <path class="cls-1" d="M58,.77v.06c-.17,0-.31,.05-.43,.14-.12,.09-.18,.24-.18,.45V5.53c0,.21,.06,.36,.19,.45,.13,.09,.27,.14,.42,.14v.06h-1.81v-.06c.17,0,.31-.05,.43-.14s.18-.24,.18-.46V1.42c0-.23-.06-.38-.18-.46s-.26-.12-.43-.12v-.06h1.81Z"/>
      <path class="cls-1" d="M61.95,.98h-2.73c-.23,0-.41,.02-.55,.07-.14,.05-.25,.13-.34,.24-.09,.11-.15,.27-.19,.47h-.06V.77h4.67v.11l-3.95,5.1h2.74c.3,0,.54-.03,.71-.09,.17-.06,.29-.14,.37-.23,.08-.09,.15-.22,.23-.38h.06l-.27,.9h-4.64v-.11l3.94-5.09Z"/>
      <path class="cls-1" d="M69.05,3.48c0,.51-.13,.98-.4,1.42-.26,.44-.62,.78-1.08,1.04-.46,.26-.96,.39-1.52,.39s-1.07-.13-1.53-.39c-.46-.26-.83-.61-1.1-1.05-.27-.44-.4-.92-.4-1.43,0-.4,.08-.77,.24-1.12s.38-.65,.67-.91c.28-.26,.61-.46,.97-.6s.75-.21,1.14-.21,.76,.07,1.12,.2c.36,.14,.68,.33,.97,.59s.51,.56,.67,.92c.16,.35,.24,.74,.24,1.16Zm-.68,.01c0-.72-.13-1.28-.4-1.69-.27-.41-.58-.68-.93-.82-.35-.14-.68-.21-.99-.21-.24,0-.49,.04-.75,.11s-.51,.21-.75,.41c-.24,.2-.44,.48-.6,.84-.16,.36-.24,.8-.24,1.33,0,.47,.06,.87,.2,1.22,.13,.35,.31,.63,.54,.85,.23,.22,.48,.38,.75,.47,.28,.1,.56,.15,.86,.15,.27,0,.53-.04,.81-.13s.52-.24,.75-.44,.41-.48,.55-.82c.14-.35,.21-.77,.21-1.27Z"/>
      <path class="cls-1" d="M75.27,.77v.06c-.14,.02-.26,.04-.34,.08-.08,.04-.15,.11-.2,.21-.05,.1-.07,.25-.07,.45V6.32h-.04l-4.38-4.64v3.33c0,.28,.01,.48,.04,.62,.02,.13,.06,.23,.1,.29,.09,.13,.26,.2,.5,.21v.06h-1.43v-.06c.16,0,.28-.04,.37-.1s.15-.16,.19-.32c.04-.15,.06-.38,.06-.69V1.49l-.19-.2c-.17-.18-.3-.3-.4-.34s-.23-.08-.38-.11v-.06h1.07l4.31,4.59V1.86c0-.26-.01-.46-.03-.59-.02-.13-.08-.23-.17-.31-.09-.08-.24-.12-.44-.13v-.06h1.43Z"/>
      <path class="cls-1" d="M86.65,6.13h.08c.14,0,.26-.05,.37-.16,.11-.1,.16-.25,.16-.44V1.44c0-.23-.06-.38-.18-.47s-.26-.13-.43-.14v-.06h1.82v.06c-.16,0-.3,.05-.43,.14-.12,.09-.19,.24-.19,.47v3.95c0,.23,.06,.4,.19,.49,.12,.09,.33,.14,.61,.14h.49c.21,0,.38-.02,.51-.07,.13-.05,.23-.12,.3-.22,.07-.1,.15-.24,.23-.43h.07l-.22,.89h-3.39v-.06Z"/>
      <path class="cls-1" d="M92.03,.77v.06c-.17,0-.31,.05-.43,.14-.12,.09-.18,.24-.18,.45V5.53c0,.21,.06,.36,.19,.45,.13,.09,.27,.14,.42,.14v.06h-1.81v-.06c.17,0,.31-.05,.43-.14s.18-.24,.18-.46V1.42c0-.23-.06-.38-.18-.46s-.26-.12-.43-.12v-.06h1.81Z"/>
      <path class="cls-1" d="M92.19,.83v-.06h3.42v.82h-.06c-.02-.17-.08-.32-.2-.45-.11-.13-.31-.2-.59-.2h-1.37V3.39h1.28c.24,0,.41-.05,.5-.14s.14-.22,.17-.39h.06v1.23h-.06c-.02-.15-.07-.28-.16-.38s-.26-.15-.5-.15h-1.28v1.97c0,.18,.05,.32,.16,.43,.11,.11,.24,.16,.39,.16h.08v.06h-1.84v-.06h.08c.16,0,.28-.06,.39-.17,.1-.11,.15-.25,.15-.43V1.44c0-.23-.06-.39-.17-.48-.11-.08-.24-.13-.37-.13h-.08Z"/>
      <path class="cls-1" d="M95.84,.83v-.06h3.4v.85h-.05c0-.46-.32-.68-.96-.68h-1.19V3.4h1.04c.21,0,.39-.03,.55-.1,.16-.06,.25-.21,.28-.44h.06v1.23h-.06c-.02-.14-.07-.25-.13-.32-.07-.07-.13-.12-.19-.15-.06-.02-.12-.04-.17-.04-.09-.02-.19-.02-.29-.02h-1.1v1.92c0,.14,.03,.27,.09,.38,.06,.1,.19,.16,.4,.16h.85c.2,0,.37-.03,.5-.08,.13-.06,.24-.13,.31-.24,.08-.1,.14-.22,.19-.36h.05l-.2,.85h-3.4v-.06h.08c.12,0,.24-.05,.36-.14,.12-.09,.17-.25,.17-.46V1.45c0-.17-.04-.31-.12-.43-.08-.12-.22-.18-.41-.18h-.08Z"/>
    </g>
    <g>
      <path class="cls-4" d="M81.58,3.63c0,.29-.08,.55-.22,.8-.15,.25-.35,.44-.61,.59-.26,.15-.54,.22-.86,.22s-.6-.07-.87-.22-.47-.34-.62-.59c-.15-.25-.23-.52-.23-.81,0-.22,.04-.44,.13-.63s.21-.37,.38-.52,.34-.26,.55-.34c.21-.08,.42-.12,.65-.12s.43,.04,.63,.12c.2,.08,.38,.19,.54,.33,.16,.15,.29,.32,.38,.52,.09,.2,.14,.42,.14,.66Zm-.38,0c0-.41-.08-.73-.23-.96s-.33-.38-.53-.46-.38-.12-.56-.12c-.14,0-.28,.02-.42,.06-.15,.04-.29,.12-.42,.23-.14,.11-.25,.27-.34,.47s-.13,.46-.13,.75c0,.26,.04,.49,.11,.69,.07,.2,.17,.36,.3,.48s.27,.21,.43,.27c.16,.06,.32,.08,.48,.08,.15,0,.3-.02,.46-.08,.15-.05,.29-.13,.42-.25,.13-.11,.23-.27,.31-.47,.08-.2,.12-.44,.12-.72Z"/>
      <path class="cls-4" d="M81.75,2.14v-.04h1.93v.46h-.04c0-.1-.04-.18-.11-.26-.06-.08-.18-.11-.33-.11h-.77v1.39h.72c.14,0,.23-.03,.28-.08,.05-.05,.08-.13,.1-.22h.04v.69h-.04c0-.09-.04-.16-.09-.21s-.15-.08-.29-.08h-.72v1.12c0,.1,.03,.18,.09,.24,.06,.06,.13,.09,.22,.09h.05v.03h-1.04v-.03h.04c.09,0,.16-.03,.22-.09,.06-.06,.09-.14,.09-.24V2.48c0-.13-.03-.22-.09-.27-.06-.05-.13-.07-.21-.07h-.04Z"/>
    </g>
  </g>
</svg>