<?xml version="1.0" encoding="UTF-8"?>
<svg xmlns="http://www.w3.org/2000/svg" viewBox="0 0 46.15 23.59">
  <defs>
    <style>
      .cls-1 {
        fill: #fff;
      }

      .cls-2 {
        isolation: isolate;
      }

      .cls-3 {
        fill: #040000;
      }

      .cls-4 {
        fill: #946134;
      }

      .cls-5 {
        mix-blend-mode: multiply;
        opacity: .8;
      }
    </style>
  </defs>
  <g class="cls-2">
    <g id="_圖層_2" data-name="圖層 2">
      <g id="_圖層_1-2" data-name="圖層 1">
        <polygon class="cls-1" points="22.19 20.56 22.19 23.59 4.13 23.59 4.13 20.45 5.03 20.45 5.03 22.69 21.29 22.69 21.29 20.56 22.19 20.56"/>
        <polygon class="cls-1" points="21.56 0 21.56 2.68 20.66 2.68 20.66 .9 4.39 .9 4.39 2.76 3.49 2.76 3.49 0 21.56 0"/>
        <g class="cls-5">
          <g>
            <path class="cls-4" d="M1.32,5.42c.32-.21,.72-.31,1.18-.31,.29,0,.56,.04,.82,.13,.26,.09,.48,.23,.67,.42,.19,.19,.34,.43,.45,.72,.11,.29,.17,.63,.17,1.04,0,.3-.03,.57-.09,.83-.06,.26-.15,.51-.26,.75-.11,.24-.26,.49-.43,.74-.17,.25-.38,.51-.61,.79-.14,.17-.3,.36-.49,.57-.18,.22-.37,.44-.56,.67-.19,.23-.37,.46-.54,.68-.17,.23-.31,.43-.43,.62h1.05c.53,0,1-.01,1.41-.03,.41-.02,.77-.05,1.08-.07-.04,.19-.06,.35-.06,.48,0,.12,.02,.27,.06,.44-.4-.02-.79-.03-1.18-.03H1.19c-.39,0-.79,0-1.19,.03v-.16c.51-.6,.96-1.13,1.34-1.58,.38-.46,.7-.87,.97-1.23,.26-.36,.48-.69,.65-.99,.17-.3,.3-.57,.39-.84,.1-.26,.16-.52,.19-.78,.03-.26,.05-.53,.05-.83,0-.64-.12-1.12-.37-1.43-.25-.31-.54-.46-.87-.46-.24,0-.44,.05-.61,.15-.17,.1-.31,.22-.42,.36-.11,.14-.19,.3-.25,.46-.06,.17-.1,.31-.12,.44l-.08,.03-.39-.64c.24-.44,.51-.77,.84-.98Z"/>
            <path class="cls-4" d="M6.53,7.85c.09-.54,.23-1.02,.44-1.42,.2-.4,.47-.72,.8-.96,.33-.24,.74-.36,1.21-.36,.53,0,.96,.12,1.3,.36,.33,.24,.6,.56,.79,.96,.19,.4,.32,.88,.39,1.42,.07,.54,.1,1.12,.1,1.74s-.05,1.17-.15,1.71c-.1,.54-.26,1.01-.47,1.42-.21,.41-.48,.73-.8,.96-.32,.23-.71,.35-1.16,.35-.53,0-.96-.11-1.3-.34-.33-.23-.6-.54-.79-.94-.19-.4-.32-.88-.39-1.42-.07-.54-.1-1.12-.1-1.74s.04-1.2,.13-1.74Zm.85,3.34c.06,.49,.15,.92,.28,1.29,.13,.36,.31,.65,.52,.86,.21,.21,.48,.31,.79,.31s.58-.1,.79-.31c.21-.21,.39-.49,.52-.86,.13-.36,.23-.79,.28-1.29,.06-.49,.08-1.03,.08-1.6s-.03-1.11-.08-1.6c-.06-.49-.15-.92-.28-1.29-.13-.36-.31-.65-.52-.86-.21-.21-.48-.31-.79-.31s-.58,.1-.79,.29c-.21,.19-.39,.46-.52,.82-.13,.36-.23,.78-.28,1.28-.06,.5-.08,1.06-.08,1.67,0,.57,.03,1.11,.08,1.6Z"/>
            <path class="cls-4" d="M12.66,7.85c.09-.54,.23-1.02,.44-1.42,.2-.4,.47-.72,.8-.96,.33-.24,.74-.36,1.21-.36,.53,0,.96,.12,1.3,.36,.33,.24,.6,.56,.79,.96,.19,.4,.32,.88,.39,1.42,.07,.54,.1,1.12,.1,1.74s-.05,1.17-.15,1.71c-.1,.54-.26,1.01-.47,1.42-.21,.41-.48,.73-.8,.96-.32,.23-.71,.35-1.16,.35-.53,0-.96-.11-1.3-.34-.33-.23-.6-.54-.79-.94-.19-.4-.32-.88-.39-1.42-.07-.54-.1-1.12-.1-1.74s.04-1.2,.13-1.74Zm.85,3.34c.06,.49,.15,.92,.28,1.29,.13,.36,.31,.65,.52,.86,.21,.21,.48,.31,.79,.31s.58-.1,.79-.31c.21-.21,.39-.49,.52-.86,.13-.36,.23-.79,.28-1.29,.06-.49,.08-1.03,.08-1.6s-.03-1.11-.08-1.6c-.06-.49-.15-.92-.28-1.29-.13-.36-.31-.65-.52-.86-.21-.21-.48-.31-.79-.31s-.58,.1-.79,.29c-.21,.19-.39,.46-.52,.82-.13,.36-.23,.78-.28,1.28-.06,.5-.08,1.06-.08,1.67,0,.57,.03,1.11,.08,1.6Z"/>
            <path class="cls-4" d="M18.8,7.85c.09-.54,.23-1.02,.44-1.42,.2-.4,.47-.72,.8-.96,.33-.24,.74-.36,1.21-.36,.53,0,.96,.12,1.3,.36,.33,.24,.6,.56,.79,.96,.19,.4,.32,.88,.39,1.42,.07,.54,.1,1.12,.1,1.74s-.05,1.17-.15,1.71c-.1,.54-.26,1.01-.47,1.42-.21,.41-.48,.73-.8,.96-.32,.23-.71,.35-1.16,.35-.53,0-.96-.11-1.3-.34-.33-.23-.6-.54-.79-.94-.19-.4-.32-.88-.39-1.42-.07-.54-.1-1.12-.1-1.74s.04-1.2,.13-1.74Zm.85,3.34c.06,.49,.15,.92,.28,1.29,.13,.36,.31,.65,.52,.86,.21,.21,.48,.31,.79,.31s.58-.1,.79-.31c.21-.21,.39-.49,.52-.86,.13-.36,.23-.79,.28-1.29,.06-.49,.08-1.03,.08-1.6s-.03-1.11-.08-1.6c-.06-.49-.15-.92-.28-1.29-.13-.36-.31-.65-.52-.86-.21-.21-.48-.31-.79-.31s-.58,.1-.79,.29c-.21,.19-.39,.46-.52,.82-.13,.36-.23,.78-.28,1.28-.06,.5-.08,1.06-.08,1.67,0,.57,.03,1.11,.08,1.6Z"/>
          </g>
        </g>
        <g>
          <path d="M27.27,9.46c.14-.16,.18-.21,.32-.37,.21,.18,.28,.23,.48,.42l.02,.02c.11-.26,.15-.41,.2-.7,.16,.04,.29,.06,.37,.08,.34,.07,.4,.09,.4,.14,0,.05-.07,.08-.24,.12-.08,.15-.12,.2-.18,.3h.87c.12-.15,.25-.3,.37-.44,.24,.2,.31,.26,.54,.47,.02,.02,.03,.03,.03,.04,0,.02-.02,.03-.05,.03h-1.58c.4,.16,.54,.27,.54,.41,0,.15-.18,.36-.31,.36-.06,0-.1-.05-.12-.15-.05-.27-.09-.4-.21-.62h-.17c-.24,.3-.43,.47-.82,.74l-.05-.03c.18-.29,.25-.41,.38-.72h-.02s-1.22,0-1.22,0c.44,.2,.55,.28,.55,.44s-.18,.34-.33,.34c-.07,0-.1-.05-.13-.17-.05-.3-.07-.36-.2-.6h-.16c-.38,.45-.55,.61-1.02,.93l-.04-.04c.27-.36,.42-.63,.6-1.04,.12-.29,.16-.41,.19-.62,.16,.04,.29,.06,.37,.08,.36,.07,.43,.1,.43,.15,0,.05-.04,.07-.22,.11-.09,.15-.13,.2-.21,.31h.63Zm-.82,2.63c-.03,.11-.04,.15-.08,.26-.04,.07-.08,.09-.2,.09-.24,0-.38-.04-.38-.1,0-.02,0-.04,.02-.07,.2-.56,.33-1,.4-1.44,.25,.13,.32,.18,.54,.34h.93v-.68h-1.29c-.1,0-.17,0-.3,.03l-.03-.19c.12,.03,.22,.04,.33,.04h2.89q.15-.15,.28-.29c.17,.13,.22,.17,.39,.31,.04,.03,.06,.05,.06,.08,0,.04-.04,.08-.17,.14v.14c0,.12,0,.26,.01,.64,0,.06-.01,.09-.04,.11-.04,.03-.18,.05-.36,.05-.15,0-.18-.02-.18-.11v-.15h-1.05v.7h1.27c.13-.14,.17-.18,.3-.3,.17,.13,.23,.18,.4,.32,.04,.04,.06,.06,.06,.09,0,.04-.04,.07-.17,.14-.08,.78-.13,.96-.29,1.12-.09,.1-.22,.16-.43,.19-.07,0-.12,.01-.15,.01-.06,0-.08-.02-.08-.08,0-.09-.03-.16-.07-.21-.09-.12-.16-.15-.62-.31v-.06c.49,.04,.68,.05,.83,.05,.09,0,.14-.04,.17-.17,.04-.17,.06-.34,.08-.66h-1.29v.57q.02,.61,.04,1.13c0,.13-.07,.15-.36,.15-.21,0-.24-.01-.24-.11,.01-.57,.01-.7,.01-.99v-.31c-.35,.36-.63,.58-1.05,.82-.36,.2-.63,.31-1.06,.44l-.03-.06c.47-.29,.85-.58,1.24-.96,.25-.25,.38-.4,.59-.7h-.93Zm1.22-.82h-.98c-.07,.26-.08,.3-.21,.7h1.2v-.7Zm.54-.12h1.05v-.68h-1.06v.68Z"/>
          <path d="M30.8,11.26c.18,.04,.4,.06,.66,.06h2.98c.18-.24,.24-.32,.43-.56,.31,.25,.41,.33,.71,.59,.02,.02,.03,.03,.03,.04,0,.02-.02,.03-.06,.03h-4.08c-.24,0-.43,.01-.62,.04l-.04-.21Z"/>
          <path d="M35.94,13.87c.65-.51,1-.93,1.33-1.6,.3-.6,.48-1.22,.55-1.98,.03-.29,.06-.69,.06-.94,0-.11,0-.17-.02-.31,.18,.02,.33,.04,.42,.04,.37,.04,.48,.07,.48,.14,0,.04-.05,.08-.22,.14,0,.08,0,.15,0,.19,0,.37,.07,.83,.21,1.29,.22,.75,.59,1.32,1.13,1.75,.31,.25,.56,.37,.99,.53v.06c-.27,.09-.39,.23-.54,.58-.02,.06-.04,.07-.07,.07-.1,0-.55-.41-.79-.72-.36-.46-.62-1.04-.8-1.76-.12-.47-.16-.8-.2-1.45-.06,.91-.17,1.43-.43,2.02-.31,.69-.79,1.26-1.41,1.65-.17,.12-.33,.19-.67,.36l-.03-.06Z"/>
          <path d="M44.05,10.79c0-.26,0-.3-.03-.44,.15,.02,.26,.03,.34,.03,.33,.03,.4,.05,.4,.12,0,.04-.05,.08-.2,.13v.2h.52c.12-.14,.16-.18,.28-.3,.17,.13,.21,.17,.37,.29,.05,.03,.07,.06,.07,.09,0,.04-.05,.08-.16,.13v1.35c.09-.13,.11-.16,.21-.3,.12,.14,.16,.19,.27,.34,.01,.02,.02,.04,.02,.05,0,.03-.03,.04-.06,.04h-.44v.83c.01,.2-.04,.29-.18,.39-.12,.08-.31,.14-.45,.14-.07,0-.08-.02-.09-.12s-.05-.19-.13-.26c-.09-.08-.2-.12-.53-.21v-.06q.18,0,.42,.02t.31,.01c.07,0,.09-.02,.09-.08v-.66h-1.56v1.25s-.01,.07-.04,.09c-.05,.03-.17,.05-.31,.05-.17,0-.2-.02-.2-.12,.02-.5,.03-.69,.03-1v-.27h-.07c-.07,0-.21,.01-.29,.02l-.03-.19c.11,.03,.22,.05,.33,.05h.06c0-.87,0-1.34,0-1.42,0,0,0-.14-.02-.4-.12,.12-.17,.17-.34,.29l-.04-.02c.08-.16,.11-.21,.16-.34h-.45v.44c.45,.29,.6,.46,.6,.66,0,.22-.14,.45-.26,.45-.03,0-.06-.02-.07-.03t-.05-.23c-.04-.31-.11-.56-.22-.75v.82c0,.48,0,1.24,.01,1.87h0c0,.08-.01,.09-.06,.11-.04,.02-.24,.05-.35,.05-.1,0-.14-.03-.15-.13,0-.31,0-.45,0-.67,0-.53,0-.8,0-.84l.02-.66c-.13,.28-.18,.39-.33,.62-.15,.22-.22,.3-.4,.47l-.04-.04c.25-.53,.34-.77,.49-1.26,.12-.38,.15-.53,.21-.88h-.31c-.07,0-.17,.01-.28,.03l-.04-.18c.14,.03,.2,.04,.32,.04h.35v-.8c-.25,.05-.36,.06-.65,.08l-.02-.06c.36-.13,.67-.28,1-.5,.15-.09,.21-.14,.38-.31q.21,.14,.51,.36c.05,.04,.07,.06,.07,.09,0,.03-.04,.06-.09,.06-.03,0-.08,0-.17-.02-.21,.09-.3,.12-.49,.18v.93h.04c.1-.14,.13-.18,.23-.31,.12,.14,.16,.18,.24,.28,.17-.44,.27-.85,.35-1.34,.24,.13,.3,.17,.52,.31,.6-.13,1.07-.31,1.45-.56,.53,.36,.64,.44,.64,.51,0,.03-.04,.05-.08,.05-.04,0-.1-.01-.25-.04-.2,.04-.26,.05-.44,.08,.18,.08,.25,.12,.46,.25,.34,.21,.43,.31,.43,.5,0,.1-.04,.21-.1,.32-.06,.09-.11,.12-.18,.12-.09,0-.13-.04-.18-.19-.13-.42-.26-.68-.49-.98l.02-.02c-.56,.07-.86,.09-1.28,.09-.22,.49-.4,.75-.67,1.06,.21,.1,.29,.14,.52,.28h.5v-.05Zm-.51,.17v.63h.51v-.63h-.51Zm.51,1.46v-.72h-.51v.72h.51Zm.03-2.92c.17,.08,.26,.12,.39,.21,.13,.09,.18,.16,.18,.26,0,.17-.19,.39-.35,.39-.08,0-.12-.06-.13-.24,0-.24-.05-.41-.14-.61h.04Zm.49,2.08h.54v-.63h-.54v.63Zm0,.12v.72h.54v-.72h-.54Z"/>
        </g>
        <g>
          <path class="cls-3" d="M26.97,4.71s.09,0,.12,.01c.04,.01,.07,.03,.1,.05,.03,.02,.05,.04,.08,.07s.04,.06,.07,.09c.02,.03,.04,.06,.06,.09,.02,.03,.04,.06,.05,.09s.04,.05,.06,.08c.02,.02,.04,.04,.06,.05,.02-.03,.04-.07,.06-.1,.02-.03,.04-.07,.07-.1s.05-.06,.08-.09c.03-.03,.06-.05,.08-.08,.03-.02,.06-.05,.09-.07,.03-.02,.06-.04,.09-.05,.03-.01,.06-.02,.09-.03s.06,0,.08,0c.02,0,.04,0,.06,0s.04,.02,.05,.03,.03,.03,.04,.04c0,.02,.01,.04,.01,.06,0,.03,0,.06-.02,.09-.01,.03-.03,.06-.05,.08-.02,.03-.05,.05-.08,.07s-.06,.04-.09,.06c-.03,.02-.06,.04-.1,.05s-.07,.03-.1,.04-.06,.02-.09,.03-.06,.01-.08,.01c-.02,.08-.04,.15-.06,.23-.02,.08-.05,.15-.08,.23-.03,.07-.06,.15-.09,.22-.03,.07-.07,.14-.1,.22s-.07,.14-.11,.21-.08,.13-.12,.19c-.04,.06-.08,.12-.12,.18-.04,.06-.08,.11-.12,.16,.07-.06,.15-.13,.23-.21,.08-.08,.16-.16,.25-.25s.17-.18,.25-.27c.08-.09,.17-.19,.25-.28,.08-.09,.17-.19,.25-.28,.08-.09,.16-.17,.23-.25,.07-.08,.14-.15,.21-.22,.07-.06,.13-.12,.18-.16,.02-.01,.03-.03,.04-.04,.01-.02,.02-.04,.03-.05,0-.02,.02-.04,.03-.06,0-.02,.02-.04,.04-.05,0,0,.01-.01,.02-.02,0,0,.01-.02,.02-.02,0,0,.02-.01,.03-.02s.02,0,.03,0c0,0,.01,0,.02,0s.02,0,.02,.01c0,0,.01,.01,.02,.02,0,0,0,.01,0,.02-.01,.02-.03,.05-.05,.07-.02,.02-.04,.04-.06,.06-.02,.02-.04,.04-.06,.06-.02,.02-.04,.04-.05,.07-.02,.04-.04,.08-.06,.14-.02,.05-.05,.12-.07,.19-.03,.07-.06,.15-.09,.23s-.07,.17-.11,.26c-.04,.09-.08,.18-.13,.28-.05,.1-.1,.19-.16,.29-.06,.1-.12,.19-.18,.28s-.13,.18-.21,.27c.08-.06,.16-.12,.24-.19,.08-.07,.17-.15,.25-.23,.08-.08,.17-.17,.26-.26,.09-.09,.17-.18,.26-.28,.09-.1,.18-.19,.27-.29s.18-.19,.27-.29c.09-.1,.18-.19,.27-.28,.09-.09,.18-.18,.27-.27,.02-.02,.04-.03,.06-.05,.02-.02,.04-.03,.07-.05,.02-.01,.05-.03,.07-.03,.03,0,.05-.01,.08-.01,.02,0,.03,0,.05,0s.03,.02,.04,.03,.02,.03,.03,.04c0,.01,.01,.03,.01,.04,0,.01,0,.03-.01,.04,0,.01-.02,.03-.03,.04s-.03,.02-.04,.03c-.02,0-.03,.01-.05,.02-.01,0-.03,0-.04,0-.02,0-.03-.02-.05-.03-.02,0-.03-.02-.05-.02s-.03,0-.04,0c-.02,.01-.05,.03-.08,.05s-.06,.05-.09,.08c-.03,.03-.07,.06-.11,.1-.04,.04-.08,.08-.12,.12s-.09,.09-.13,.14-.09,.1-.14,.15c-.05,.05-.1,.11-.15,.17-.05,.06-.1,.11-.16,.17s-.11,.12-.16,.18c-.06,.06-.11,.12-.17,.18-.06,.06-.12,.12-.17,.18-.06,.06-.12,.11-.17,.17s-.12,.11-.18,.16-.12,.1-.18,.15c-.06,.05-.12,.09-.17,.13-.06,.04-.12,.08-.17,.11,0,0,0,0-.02,0,0,0-.01,0-.02-.01s-.01-.01-.01-.02c0,0,0-.01,0-.01,.05-.06,.09-.12,.14-.19,.04-.07,.08-.14,.12-.21,.04-.07,.08-.15,.11-.23,.04-.08,.07-.16,.11-.24s.07-.17,.1-.25c.03-.08,.07-.16,.11-.24,.04-.08,.08-.16,.12-.24s.08-.15,.13-.22c-.08,.08-.15,.16-.22,.24s-.14,.16-.21,.24-.14,.17-.21,.25c-.07,.08-.14,.16-.21,.25s-.14,.16-.22,.24c-.07,.08-.15,.16-.23,.23-.08,.08-.16,.15-.25,.22-.09,.07-.17,.14-.27,.2,0,0-.01,0-.02,0s-.01,0-.02,0c0,0,0,0-.01-.01s0,0,0,0c.05-.06,.09-.12,.14-.19,.04-.07,.08-.14,.12-.21,.04-.07,.07-.15,.11-.23,.03-.08,.06-.16,.09-.23,.03-.08,.06-.16,.09-.24s.06-.16,.09-.24c.03-.08,.06-.16,.09-.24s.06-.15,.1-.23c-.06,0-.11-.02-.16-.03s-.08-.04-.12-.06c-.03-.03-.06-.05-.08-.09s-.04-.06-.06-.1c-.02-.03-.04-.06-.05-.1s-.04-.06-.06-.08c-.02-.02-.04-.04-.07-.06-.03-.01-.06-.02-.09-.02-.07,0-.13,.01-.19,.03-.06,.02-.12,.04-.18,.07s-.11,.06-.16,.1c-.05,.04-.1,.08-.14,.12-.04,.04-.08,.09-.11,.13-.03,.04-.06,.09-.08,.13-.02,.05-.04,.09-.05,.13,0,.04-.01,.08-.01,.12,0,.03,.01,.06,.02,.09s.03,.06,.06,.09c.02,.03,.05,.05,.08,.07,.03,.02,.06,.03,.1,.03,.04,0,.08,0,.12,0,.04,0,.08-.02,.12-.04,.04-.02,.08-.04,.12-.07,.04-.03,.07-.06,.11-.09s.07-.07,.1-.11c.03-.04,.06-.08,.09-.13,.03-.04,.05-.09,.07-.14,.02-.05,.04-.1,.05-.16,0,0,0,0,.01,0,0,0,.01,0,.02,0,0,0,.01,0,.02,.01s0,.01,0,.01c0,.05,0,.1,0,.15,0,.05-.02,.1-.04,.15s-.04,.1-.07,.14c-.03,.05-.06,.09-.09,.13s-.07,.08-.11,.11c-.04,.03-.08,.06-.13,.09-.04,.02-.09,.04-.14,.05s-.09,.02-.14,.01c-.08,0-.15-.02-.21-.05-.05-.02-.09-.06-.12-.09-.03-.04-.05-.08-.06-.12s-.02-.09-.02-.14c0-.04,0-.09,.01-.14,.01-.05,.03-.1,.06-.15s.06-.1,.1-.15,.08-.1,.14-.14c.05-.04,.11-.09,.17-.13,.06-.04,.12-.07,.19-.1,.07-.03,.14-.05,.21-.07,.07-.02,.15-.03,.23-.03Zm.81,.55c.07,0,.13-.02,.19-.04,.06-.02,.11-.05,.16-.08s.09-.07,.12-.11c.03-.04,.06-.09,.07-.13,0-.01,0-.03,0-.04,0-.01,0-.03-.02-.04,0-.01-.02-.02-.04-.03-.01,0-.03-.01-.04,0-.03,0-.06,0-.09,.02-.03,.01-.05,.03-.08,.05-.02,.02-.05,.04-.07,.06-.02,.02-.04,.05-.06,.07-.02,.03-.03,.05-.05,.08-.02,.03-.03,.05-.04,.08-.01,.03-.02,.05-.03,.07,0,.02-.02,.04-.03,.06Z"/>
          <path class="cls-3" d="M30.54,6.23c0-.07,0-.14,0-.2,.05,0,.1,0,.15,0,.05,0,.1,0,.15,0,.08,0,.15,0,.22,0,.06,0,.11,0,.13,0,0,.02,0,.04,0,.07,0,.02,0,.03,0,.04,0,0,0,.02,0,.03-.03,0-.07,0-.11,0-.04,0-.08,0-.11,0-.04,0-.07,0-.1,0-.03,0-.05,0-.06,0,0,.06,0,.11,0,.17,0,.06,0,.11,0,.17,.07,0,.14,0,.2,0,.06,0,.12,0,.18,0,0,.02,0,.03,0,.04s0,.02,0,.03c0,0,0,.02,0,.03,0,0,0,.02,0,.04-.13,0-.25-.01-.38-.01,0,.03,0,.07,0,.1v.1c0,.07,0,.13,0,.2,.06,0,.13,0,.19,0s.13,0,.19-.02c0,.01,0,.02,0,.03,0,0,0,.02,0,.04s0,.03,0,.04,0,.02,0,.02c-.03,0-.07,0-.11,0-.04,0-.1,0-.18,0h-.26s-.04,0-.06,0-.02,0-.03,0c0-.06,0-.13,0-.2,0-.07,0-.14,0-.23v-.21c0-.09,0-.16,0-.23Z"/>
          <path class="cls-3" d="M33.06,6.23c0-.07,0-.14,0-.2,.02,0,.04,0,.06,0s.05,0,.08,0,.05,0,.07,0c.02,0,.04,0,.06,0,0,.07,0,.14,0,.2,0,.07,0,.14,0,.23v.21c0,.06,0,.12,0,.17,0,.06,0,.1,0,.14,.06,0,.13,0,.19,0,.06,0,.13,0,.19-.02,0,.01,0,.02,0,.03,0,0,0,.02,0,.04s0,.03,0,.04,0,.02,0,.02c-.03,0-.07,0-.11,0s-.1,0-.18,0h-.26s-.04,0-.06,0-.02,0-.03,0c0-.06,0-.13,0-.2,0-.07,0-.14,0-.23v-.21c0-.09,0-.16,0-.23Z"/>
          <path class="cls-3" d="M36.45,7s-.01,.04-.01,.07c-.09,.04-.2,.06-.34,.06-.1,0-.18-.01-.26-.04-.08-.03-.14-.06-.19-.11-.05-.05-.09-.1-.12-.17-.03-.06-.04-.13-.04-.21,0-.11,.02-.2,.05-.28,.04-.08,.08-.14,.14-.19,.06-.05,.13-.08,.21-.1,.08-.02,.16-.03,.25-.03,.03,0,.06,0,.09,0,.03,0,.06,0,.09,.02s.06,.01,.09,.02c.03,0,.05,.02,.07,.03-.01,.03-.02,.05-.03,.08,0,.03-.01,.05-.01,.08h-.02c-.04-.05-.08-.09-.13-.11-.04-.02-.1-.03-.16-.03-.04,0-.09,0-.13,.03-.04,.02-.09,.05-.12,.09-.04,.04-.07,.09-.09,.15-.02,.06-.03,.13-.03,.22s.01,.15,.04,.21,.05,.1,.09,.14c.04,.04,.08,.06,.13,.08s.09,.02,.14,.02c.03,0,.05,0,.08,0,.03,0,.05-.01,.08-.02,.03,0,.05-.02,.08-.04s.04-.03,.06-.05h.02s-.02,.06-.02,.08Z"/>
          <path class="cls-3" d="M38.31,6.35c.03-.07,.07-.13,.13-.18,.06-.05,.12-.09,.2-.12,.08-.03,.17-.04,.26-.04,.09,0,.17,.01,.25,.03,.08,.02,.14,.06,.2,.1,.06,.05,.1,.1,.13,.18,.03,.07,.05,.15,.05,.25,0,.08-.02,.15-.05,.22-.03,.07-.08,.13-.13,.18s-.12,.09-.2,.12c-.08,.03-.16,.04-.26,.04-.09,0-.17-.01-.25-.03-.08-.02-.14-.05-.2-.1-.06-.05-.1-.1-.14-.17-.03-.07-.05-.16-.05-.25,0-.08,.01-.15,.04-.22Zm.92,0c-.02-.05-.04-.1-.07-.14-.03-.04-.07-.07-.12-.09s-.09-.03-.15-.03c-.06,0-.11,.01-.15,.04-.04,.03-.08,.06-.11,.1-.03,.04-.05,.1-.07,.16-.02,.06-.02,.12-.02,.19,0,.08,0,.15,.03,.21s.04,.1,.08,.14,.07,.06,.11,.08c.04,.02,.09,.02,.13,.02,.05,0,.1,0,.14-.03,.05-.02,.08-.05,.12-.09,.03-.04,.06-.09,.08-.16s.03-.14,.03-.22c0-.07,0-.13-.03-.18Z"/>
          <path class="cls-3" d="M41.51,6.76c0,.12-.02,.23-.03,.35-.01,0-.03,0-.04,0h-.08s-.03,0-.04,0c.04-.18,.07-.36,.09-.54,.03-.18,.05-.36,.08-.54,.01,0,.02,0,.03,0s.02,0,.03,0c0,0,.02,0,.03,0,.01,0,.02,0,.04,0,.03,.06,.06,.13,.09,.19,.03,.06,.07,.13,.1,.19,.03,.06,.07,.13,.1,.19,.03,.06,.06,.12,.09,.18,.07-.12,.13-.24,.2-.37s.13-.26,.19-.38c.03,0,.05,0,.07,0,.02,0,.04,0,.07,0,.01,.09,.02,.19,.04,.29,.01,.1,.03,.21,.04,.3,.01,.1,.02,.19,.04,.28,.01,.09,.02,.15,.03,.21-.02,0-.04,0-.07,0h-.14s-.05,0-.07,0c0-.11-.01-.22-.03-.35-.01-.13-.03-.25-.04-.37h0c-.06,.12-.13,.25-.19,.36-.06,.12-.12,.24-.18,.36,0,0-.01,0-.02,0s0,0-.02,0-.01,0-.02,0-.01,0-.02,0c-.06-.12-.12-.23-.18-.35-.06-.12-.12-.24-.18-.36h0c-.02,.12-.03,.24-.04,.36Z"/>
          <path class="cls-3" d="M44.55,6.23c0-.07,0-.14,0-.2,.05,0,.1,0,.15,0,.05,0,.1,0,.15,0,.08,0,.15,0,.22,0,.06,0,.11,0,.13,0,0,.02,0,.04,0,.07,0,.02,0,.03,0,.04,0,0,0,.02,0,.03-.03,0-.07,0-.11,0-.04,0-.08,0-.11,0-.04,0-.07,0-.1,0-.03,0-.05,0-.06,0,0,.06,0,.11,0,.17,0,.06,0,.11,0,.17,.07,0,.14,0,.2,0,.06,0,.12,0,.18,0,0,.02,0,.03,0,.04s0,.02,0,.03c0,0,0,.02,0,.03,0,0,0,.02,0,.04-.13,0-.25-.01-.38-.01,0,.03,0,.07,0,.1v.1c0,.07,0,.13,0,.2,.06,0,.13,0,.19,0s.13,0,.19-.02c0,.01,0,.02,0,.03,0,0,0,.02,0,.04s0,.03,0,.04,0,.02,0,.02c-.03,0-.07,0-.11,0-.04,0-.1,0-.18,0h-.26s-.04,0-.06,0-.02,0-.03,0c0-.06,0-.13,0-.2,0-.07,0-.14,0-.23v-.21c0-.09,0-.16,0-.23Z"/>
        </g>
        <g>
          <path class="cls-4" d="M2.22,17.3c-.13,.24-.33,.44-.58,.59l-.16-.16c.4-.19,.61-.52,.65-.98h-.68s-.02,.01-.02,.02v1.67h-.23v-1.83s.03-.08,.08-.08h.85v-.25h.23v.25h.9c.05,0,.08,.03,.08,.08v1.6c0,.1-.03,.17-.11,.22-.1,.07-.3,.07-.6,.02l-.02-.23c.15,.04,.27,.06,.34,.06,.04,0,.07,0,.1-.03,.04-.02,.06-.06,.06-.1v-1.37s0-.02-.02-.02h-.73c-.02,.13-.04,.25-.07,.37,.26,.19,.52,.39,.76,.6l-.15,.17c-.19-.18-.42-.38-.68-.58Z"/>
          <path class="cls-4" d="M8.23,16.89c.12,.06,.25,.14,.39,.25l-.13,.17c-.15-.12-.28-.2-.38-.24l.12-.18Zm.39,.63c-.03,.38-.13,.68-.29,.91l-.21-.08c.17-.26,.27-.55,.3-.85l.2,.02Zm-.33-1.21c.12,.07,.24,.17,.37,.3l-.15,.15c-.14-.13-.26-.23-.36-.29l.14-.16Zm1.37,2.17l-.21-.05s.02-.06,.03-.08h-.2v-.1h-.36v.1h-.21v-1.21s.01-.04,.04-.04h.24v-.35h-.3v-.2h.3v-.29h.21v.29h.3v.2h-.3v.35h.25s.04,.02,.04,.05v1.16c.09-.29,.14-.56,.15-.79v-1.15s.02-.06,.06-.06h.62s.07,.02,.07,.06v1.86c0,.08-.03,.14-.07,.18-.05,.04-.18,.05-.38,.03v-.22c.07,.03,.13,.05,.17,.05,.03,0,.04,0,.05,0,.02-.01,.03-.04,.03-.08v-.49h-.37c-.01,.26-.07,.52-.17,.79Zm-.38-.42v-.72s0-.03-.03-.03h-.3s-.03,0-.03,.03v.72h.36Zm.91-1.14v-.38s0-.02-.03-.02h-.31s-.02,0-.02,.02v.38h.36Zm0,.59v-.4h-.36v.4h.36Z"/>
          <path class="cls-4" d="M15.47,18.45h-.22v-2.04s.02-.07,.07-.07h2.01c.05,0,.08,.02,.08,.07v2.04h-.22v-.09h-1.73v.09Zm1.06-1.9h-.37v.53c0,.22-.04,.39-.1,.51-.08,.14-.21,.23-.38,.27l-.15-.17c.07-.01,.14-.04,.21-.07,.13-.09,.2-.27,.21-.53v-.53h-.44s-.04,0-.03,.03v1.58h1.73v-.36h-.57c-.07,0-.1-.04-.1-.1v-1.14Zm.67,1.04v-1.01s0-.03-.03-.03h-.42v.98s.02,.06,.05,.06h.4Z"/>
          <path class="cls-4" d="M22.67,18.09c-.11,.17-.24,.31-.38,.4-.03-.07-.07-.12-.12-.16,.13-.09,.24-.21,.32-.36l.18,.11Zm-.3-1.43h-.18v-.19h.18v-.2h.21v.2h.51v-.2h.21v.2h.15v.19h-.15v1.07h.18v.19h-1.29v-.19h.19v-1.07Zm.72,.23v-.23h-.51v.23h.51Zm0,.42v-.23h-.51v.23h.51Zm0,.41v-.23h-.51v.23h.51Zm.02,.25c.08,.1,.14,.21,.19,.33l-.18,.07c-.05-.09-.11-.2-.18-.31l.17-.08Zm.41,.48l-.21-.07c.16-.34,.25-.65,.25-.92v-1.1s.02-.06,.06-.06h.76s.06,.02,.06,.06v1.85c0,.08-.02,.14-.07,.18-.06,.05-.2,.07-.41,.05v-.23c.14,.04,.23,.05,.25,.03,.02-.02,.03-.05,.03-.09v-.47h-.47c-.03,.27-.11,.53-.24,.77Zm.71-1.54v-.39s-.01-.02-.02-.02h-.41s-.03,.01-.03,.02v.39h.46Zm0,.58v-.39h-.46v.39h.46Z"/>
          <path class="cls-4" d="M30.28,18.15h-.92v-.19h.92v-.13h-.81s-.03,0-.03-.03v-.8s.01-.03,.03-.03h.81v-.12h-1.06v-.19h1.06v-.11c-.32,.01-.59,.02-.81,0l-.02-.21c.28,0,.59,0,.96-.02,.38-.02,.65-.05,.84-.07l.03,.2c-.15,.03-.39,.06-.72,.08-.02,0-.04,0-.06,0v.12h1.05v.19h-1.05v.12h.8s.03,0,.03,.03v.8s0,.03-.03,.03h-.8v.13h.91v.19h-.91v.11h1.03v.19h-2.28v-.19h1.04v-.11Zm0-.98h-.63v.15h.63v-.15Zm0,.34h-.63v.13s0,0,0,0h.62v-.14Zm.22-.19h.62v-.15h-.62v.15Zm0,.33h.62v-.14h-.62v.14Z"/>
          <path class="cls-4" d="M36.88,17.23h-.6v-.14h.6v-.07h-.53v-.15h.53v-.1h-.64v-.14h.64v-.07h-.52v-.15h.52v-.14h.21v.14h.51s.06,.02,.06,.05v.18h.19v.14h-.19v.2s-.02,.06-.06,.06h-.51v.07h.64v.14h-.64v.08h.7v.15h-1.55v-.15h.64v-.08Zm.83,1v.17s-1.44,.06-1.44,.06l-.02-.17,1.46-.06Zm-.07-.07h-1.3s-.02,0-.02-.03v-.58s.01-.02,.02-.02h1.3s.03,.01,.03,.02v.58s0,.03-.03,.03Zm-.75-.48h-.38s0,0,0,0v.09h.38v-.09Zm0,.23h-.38v.08h0s.38,0,.38,0v-.09Zm.2-1.3h.38v-.07s-.01,0-.02,0h-.36v.07Zm0,.24h.36s.02-.01,.02-.02v-.08h-.38v.1Zm0,.92h.38v-.09h-.38v.09Zm0,.23h.38v-.09h-.38v.09Zm1.01-1.6v1.58h-.2v-1.58h.2Zm.41-.15v1.96c0,.09-.04,.16-.11,.2-.08,.06-.25,.06-.48,0v-.21c.2,.04,.33,.05,.37,.03,.01-.02,.02-.04,.02-.07v-1.91h.21Z"/>
          <path class="cls-4" d="M43.3,16.54v-.19h2.28v.19h-1.96v1.62s.02,.05,.05,.05h1.89v.2h-2.05c-.07,0-.1-.03-.1-.09v-1.77h-.1Zm1.22,1.57h-.74s-.03,0-.03-.03v-.7s0-.03,.03-.03h.74s.03,0,.03,.03v.7s0,.03-.03,.03Zm.75-.89h-1.39s-.03,0-.03-.03v-.51s0-.03,.03-.03h1.39s.03,0,.03,.03v.51s0,.03-.03,.03Zm-1.32,.31s0,0,0,0v.38h0s.4,0,.4,0c0,0,0,0,0,0v-.38s0,0,0,0h-.4Zm.12-.69s0,0,0,0v.19s0,0,0,0h1.02s0,0,0,0v-.19s0,0,0,0h-1.02Zm1.38,1.27h-.73s-.03,0-.03-.03v-.69s.01-.03,.03-.03h.73s.03,0,.03,.03v.69s0,.03-.03,.03Zm-.56-.57s0,0,0,0v.38h0s.38,0,.38,0c0,0,0,0,0,0v-.38s0,0,0,0h-.38Z"/>
        </g>
      </g>
    </g>
  </g>
</svg>