<?xml version="1.0" encoding="UTF-8"?>
<svg id="_圖層_2" data-name="圖層 2" xmlns="http://www.w3.org/2000/svg" viewBox="0 0 42.59 23.59">
  <defs>
    <style>
      .cls-1 {
        fill: #fff;
      }

      .cls-2 {
        fill: #040000;
      }

      .cls-3 {
        fill: #946134;
      }

      .cls-4 {
        opacity: .8;
      }
    </style>
  </defs>
  <g id="_圖層_1-2" data-name="圖層 1">
    <polygon class="cls-1" points="21.47 20.56 21.47 23.59 3.4 23.59 3.4 20.45 4.3 20.45 4.3 22.69 20.57 22.69 20.57 20.56 21.47 20.56"/>
    <polygon class="cls-1" points="20.83 0 20.83 2.68 19.93 2.68 19.93 .9 3.67 .9 3.67 2.76 2.77 2.76 2.77 0 20.83 0"/>
    <g class="cls-4">
      <path class="cls-3" d="M1.3,5.9c.32-.19,.7-.29,1.16-.29,.28,0,.55,.04,.8,.12,.25,.08,.47,.21,.65,.38,.18,.18,.33,.4,.44,.66,.11,.26,.16,.58,.16,.96,0,.27-.03,.53-.09,.76-.06,.24-.14,.47-.25,.69s-.25,.45-.42,.68c-.17,.23-.37,.47-.6,.72-.14,.15-.3,.33-.48,.53-.18,.2-.36,.41-.55,.62-.18,.21-.36,.42-.52,.63-.17,.21-.31,.4-.42,.58h1.03c.52,0,.98,0,1.38-.03,.4-.02,.75-.04,1.05-.07-.04,.18-.05,.32-.05,.44,0,.11,.02,.25,.05,.41-.39-.02-.77-.02-1.16-.02H1.16c-.39,0-.77,0-1.16,.02v-.14c.5-.55,.94-1.04,1.31-1.46s.69-.8,.95-1.13c.26-.34,.47-.64,.63-.91s.29-.53,.38-.77,.16-.48,.19-.72c.03-.24,.05-.49,.05-.76,0-.59-.12-1.03-.36-1.31-.24-.28-.52-.43-.85-.43-.23,0-.43,.05-.59,.14-.17,.09-.3,.2-.41,.34-.11,.13-.19,.27-.25,.43s-.1,.29-.12,.41l-.08,.02-.38-.59c.23-.41,.5-.71,.82-.9Z"/>
      <path class="cls-3" d="M6.4,8.13c.09-.5,.23-.93,.43-1.31s.46-.67,.78-.89,.72-.33,1.19-.33c.52,0,.94,.11,1.27,.33s.59,.52,.77,.89c.19,.37,.31,.81,.38,1.31,.07,.5,.1,1.03,.1,1.6s-.05,1.07-.15,1.57c-.1,.5-.25,.93-.46,1.31-.21,.38-.47,.67-.78,.89-.32,.22-.7,.32-1.13,.32-.52,0-.94-.1-1.27-.31-.33-.21-.58-.5-.77-.87-.19-.37-.32-.81-.38-1.31-.07-.5-.1-1.03-.1-1.6s.04-1.1,.13-1.6Zm.84,3.07c.05,.46,.15,.85,.28,1.19,.13,.34,.3,.6,.51,.79,.21,.19,.47,.29,.78,.29s.57-.1,.78-.29c.21-.19,.38-.46,.51-.79,.13-.34,.22-.73,.28-1.19,.05-.46,.08-.95,.08-1.47s-.03-1.02-.08-1.47c-.05-.46-.15-.85-.28-1.19s-.3-.6-.51-.79c-.21-.19-.47-.29-.78-.29s-.57,.09-.78,.26c-.21,.18-.38,.43-.51,.76s-.22,.72-.28,1.18c-.05,.46-.08,.97-.08,1.54,0,.53,.03,1.02,.08,1.47Z"/>
      <path class="cls-3" d="M13.32,5.9c.32-.19,.7-.29,1.16-.29,.28,0,.55,.04,.8,.12,.25,.08,.47,.21,.65,.38,.18,.18,.33,.4,.44,.66,.11,.26,.16,.58,.16,.96,0,.27-.03,.53-.09,.76-.06,.24-.14,.47-.25,.69s-.25,.45-.42,.68c-.17,.23-.37,.47-.6,.72-.14,.15-.3,.33-.48,.53-.18,.2-.36,.41-.55,.62-.18,.21-.36,.42-.52,.63-.17,.21-.31,.4-.42,.58h1.03c.52,0,.98,0,1.38-.03,.4-.02,.75-.04,1.05-.07-.04,.18-.05,.32-.05,.44,0,.11,.02,.25,.05,.41-.39-.02-.77-.02-1.16-.02h-2.32c-.39,0-.77,0-1.16,.02v-.14c.5-.55,.94-1.04,1.31-1.46s.69-.8,.95-1.13c.26-.34,.47-.64,.63-.91s.29-.53,.38-.77,.16-.48,.19-.72c.03-.24,.05-.49,.05-.76,0-.59-.12-1.03-.36-1.31-.24-.28-.52-.43-.85-.43-.23,0-.43,.05-.59,.14-.17,.09-.3,.2-.41,.34-.11,.13-.19,.27-.25,.43s-.1,.29-.12,.41l-.08,.02-.38-.59c.23-.41,.5-.71,.82-.9Z"/>
      <path class="cls-3" d="M19.33,5.9c.32-.19,.7-.29,1.16-.29,.28,0,.55,.04,.8,.12,.25,.08,.47,.21,.65,.38,.18,.18,.33,.4,.44,.66,.11,.26,.16,.58,.16,.96,0,.27-.03,.53-.09,.76-.06,.24-.14,.47-.25,.69s-.25,.45-.42,.68c-.17,.23-.37,.47-.6,.72-.14,.15-.3,.33-.48,.53-.18,.2-.36,.41-.55,.62-.18,.21-.36,.42-.52,.63-.17,.21-.31,.4-.42,.58h1.03c.52,0,.98,0,1.38-.03,.4-.02,.75-.04,1.05-.07-.04,.18-.05,.32-.05,.44,0,.11,.02,.25,.05,.41-.39-.02-.77-.02-1.16-.02h-2.32c-.39,0-.77,0-1.16,.02v-.14c.5-.55,.94-1.04,1.31-1.46s.69-.8,.95-1.13c.26-.34,.47-.64,.63-.91s.29-.53,.38-.77,.16-.48,.19-.72c.03-.24,.05-.49,.05-.76,0-.59-.12-1.03-.36-1.31-.24-.28-.52-.43-.85-.43-.23,0-.43,.05-.59,.14-.17,.09-.3,.2-.41,.34-.11,.13-.19,.27-.25,.43s-.1,.29-.12,.41l-.08,.02-.38-.59c.23-.41,.5-.71,.82-.9Z"/>
    </g>
    <g>
      <path d="M25.91,13.88c0,.07-.01,.09-.05,.12-.06,.03-.19,.05-.34,.05s-.19-.03-.19-.13c.02-.64,.02-.79,.02-1,0-1.06,0-1.2-.02-1.49,.28,.14,.36,.19,.62,.35h.73c.12-.15,.16-.2,.29-.34,.18,.14,.24,.19,.39,.32,.05,.04,.07,.07,.07,.1,0,.04-.04,.08-.17,.15,0,.43,0,1.27,.02,1.8,0,.13-.09,.17-.38,.17-.14,0-.18-.03-.18-.11v-.27h-.81v.28Zm0-.4h.81v-1.59h-.81v1.59Zm.77-2.31c0,.06-.01,.09-.04,.11-.04,.03-.18,.05-.35,.05s-.2-.02-.2-.12c.01-.46,.02-.69,.02-1.25,0-.45,0-.57-.02-.89,.3,.13,.39,.18,.67,.34h1.55c.13-.15,.17-.19,.31-.33,.2,.15,.26,.19,.43,.35,.05,.04,.06,.07,.06,.1,0,.05-.03,.08-.19,.17v.28c0,.2,0,.45,.02,1.17,0,.08-.02,.11-.08,.13-.05,.02-.23,.04-.35,.04s-.17-.03-.17-.12v-.27h-1.67v.24Zm0-.36h1.67v-1.28h-1.67v1.28Zm1.59,3.04c0,.07-.02,.09-.08,.12-.04,.02-.21,.03-.31,.03-.12,0-.16-.03-.17-.12,.02-.66,.02-.79,.02-1.06,0-.82,0-1.1-.02-1.39,.28,.14,.36,.19,.61,.35h.74c.12-.15,.17-.2,.29-.34,.19,.15,.25,.2,.42,.35,.05,.04,.06,.07,.06,.09,0,.04-.04,.08-.17,.15,0,.78,0,1.51,.02,1.82,0,.05-.02,.08-.04,.1-.05,.04-.18,.06-.33,.06-.16,0-.2-.02-.2-.11v-.31h-.85v.25Zm0-.37h.85v-1.59h-.85v1.59Z"/>
      <path d="M33.32,10.63q0-1.22-.03-1.48c.62,.06,.67,.06,.73,.09,.05,.01,.07,.04,.07,.07,0,.04-.05,.08-.19,.13v1.2h.82v-.88c0-.21-.02-.42-.04-.61,.62,.06,.66,.07,.74,.09,.04,.02,.06,.04,.06,.07,0,.04-.06,.08-.19,.13,0,.36,0,.59,0,.83v.36h.15c.14-.2,.19-.26,.34-.45,.23,.2,.3,.26,.52,.48,.02,.03,.03,.04,.03,.06,0,.02-.02,.03-.06,.03h-.98q.01,1.38,.03,1.9c0,.06,0,.09-.03,.11-.04,.04-.2,.07-.38,.07-.15,0-.19-.03-.19-.15h0v-.31h-.82v.34c0,.06,0,.08-.02,.1-.04,.05-.16,.08-.39,.08-.15,0-.19-.03-.19-.12v-.02q.02-1.29,.02-1.52c0-.08,0-.19,0-.28v-.07s0-.06,0-.12h-.73v2.87h2.5c.17-.22,.22-.29,.4-.51,.26,.23,.34,.3,.6,.53,.02,.03,.03,.04,.03,.06,0,.02-.02,.03-.06,.03h-3.46v.25c0,.12-.1,.15-.46,.15-.13,0-.16-.03-.16-.13h0c.02-.9,.03-1.27,.03-2.12v-1.13h-.21c-.19,0-.29,0-.43,.03l-.03-.19c.14,.03,.32,.04,.47,.04h.21q0-1.11-.04-1.48c.76,.07,.83,.08,.83,.16,0,.04-.05,.08-.2,.13v1.19h.73Zm.58,1.61h.82v-1.49h-.82v1.49Z"/>
      <path d="M38.82,11.24v.14s0,.08-.04,.09c-.05,.03-.18,.06-.34,.06s-.2-.02-.2-.12c.02-.43,.02-.62,.02-1.11,0-.6,0-.86-.03-1.27,.29,.13,.38,.18,.67,.33h2.35c.12-.14,.17-.18,.3-.32,.19,.14,.25,.19,.44,.33,.04,.04,.06,.06,.06,.09,0,.05-.05,.09-.19,.15v.42c0,.49,0,.91,.02,1.31,0,.05-.01,.08-.03,.1-.04,.04-.2,.07-.37,.07-.14,0-.17-.02-.18-.11v-.17h-.94c.15,.18,.3,.3,.57,.44,.41,.23,.95,.36,1.67,.4v.06c-.2,.08-.31,.22-.38,.46-.03,.08-.04,.1-.08,.1-.15,0-.64-.23-.96-.45-.03,.01-.04,.02-.08,.03v.5c0,.05,0,.44,.02,1.16,0,.13-.08,.16-.38,.16-.19,0-.22-.02-.22-.12,.02-.64,.02-.76,.02-.88,0-.85,0-.9-.02-1.11,.19,.02,.28,.03,.39,.05-.23-.19-.33-.31-.48-.53-.09-.15-.12-.19-.16-.28h-.25c-.25,.37-.37,.5-.69,.75,.42,.07,.47,.08,.47,.14,0,.04-.05,.08-.18,.13-.03,.47-.07,.67-.17,.9-.15,.35-.47,.64-.87,.79-.25,.09-.43,.14-.84,.21l-.02-.07c.57-.24,.78-.39,1-.68,.21-.28,.3-.64,.3-1.15v-.06c-.43,.28-.77,.41-1.42,.56l-.03-.07c.56-.26,.87-.46,1.21-.77,.25-.23,.38-.4,.55-.68h-.51Zm.94-1.01v-.75h-.94v.75h.94Zm0,.12h-.94v.77h.94v-.77Zm1.54-.87h-.99v.75h.99v-.75Zm-.99,.87v.77h.99v-.77h-.99Z"/>
    </g>
    <g>
      <path class="cls-2" d="M26.27,5.58c.11,0,.21,.01,.31,.04,.1,.03,.2,.07,.29,.14,.04-.01,.08-.03,.13-.04,.04-.01,.09-.03,.14-.04s.09-.02,.14-.03c.05,0,.09-.01,.14-.01,.02,0,.05,0,.08,0,.03,0,.05,.01,.08,.02,.02,.01,.04,.02,.06,.04,.01,.02,.02,.04,.02,.06,0,.04-.02,.08-.04,.11-.02,.04-.06,.07-.09,.1-.04,.03-.08,.06-.14,.1-.05,.03-.1,.06-.16,.08-.06,.03-.11,.05-.17,.07s-.11,.04-.17,.06-.1,.03-.15,.04c-.05,.01-.08,.02-.11,.02,.01,.02,.02,.03,.03,.04,.01,.01,.03,.02,.04,.03,.01,0,.03,.02,.05,.02,.02,0,.04,0,.06,0,.02,0,.04,0,.06,0s.04,0,.06,0c0,0,.01,0,.02,0s.02,0,.03,.01c0,0,.02,0,.02,.01,0,0,0,.01,0,.02,0,0,0,.01,0,.02,0,0-.01,0-.02,.01,0,0-.02,0-.03,0-.01,0-.02,0-.03,0-.02,0-.03,0-.05,0-.02,0-.03,0-.05,0-.02,0-.03,0-.05-.01s-.03,0-.05-.01c-.06,.01-.12,.02-.17,.04-.05,.02-.11,.04-.15,.06-.05,.02-.09,.05-.13,.08-.04,.03-.08,.06-.11,.09-.03,.03-.06,.07-.09,.1-.03,.04-.05,.07-.07,.11-.02,.04-.03,.08-.04,.12,0,.04-.02,.08-.02,.12,0,.04,0,.08,.03,.11,.02,.04,.04,.07,.07,.1,.03,.03,.07,.05,.1,.07,.04,.02,.08,.03,.12,.03,0-.05,0-.1,0-.15,0-.05,.01-.1,.02-.14,.01-.05,.03-.09,.05-.14s.04-.08,.07-.12c.03-.04,.06-.07,.1-.11s.07-.06,.12-.08c.04-.02,.08-.04,.13-.06s.09-.02,.15-.02c.04,0,.08,0,.12,.02,.03,.01,.06,.03,.09,.06,.02,.02,.04,.05,.05,.08s.02,.06,.01,.08c0,.03,0,.06-.01,.09,0,.03-.02,.07-.04,.1-.02,.03-.04,.07-.07,.1-.03,.03-.06,.06-.09,.1-.03,.03-.07,.06-.12,.09-.04,.03-.09,.05-.14,.07-.05,.02-.11,.04-.17,.05-.06,.01-.12,.03-.19,.03,0,.03,.01,.07,.02,.11,0,.04,.02,.07,.02,.11,0,0,0,0,0,.01s0,0,0,.01,0,0,0,.01c0,0,0,0,0,.01,0,0,0,0,0,0,0,0,0,0-.01,0,0,0,0,0,0,0,0,0,0,0,0,0-.01-.04-.03-.08-.04-.12,0-.04-.02-.08-.03-.12-.05,0-.1,0-.15-.01-.05,0-.09-.01-.12-.02-.04-.01-.07-.02-.1-.04-.03-.02-.05-.03-.08-.05-.02-.02-.04-.04-.06-.06-.02-.02-.03-.04-.04-.07s-.02-.05-.02-.07c0-.02,0-.05,0-.07,0-.04,0-.07,.01-.11,0-.04,.03-.07,.04-.11s.04-.07,.08-.11c.03-.04,.07-.07,.1-.1s.08-.06,.13-.09,.1-.06,.16-.08c.06-.02,.12-.05,.19-.06,.07-.02,.14-.03,.21-.05-.02-.02-.04-.03-.07-.05-.02-.02-.04-.03-.07-.05h-.12s-.08,.02-.12,.02c-.1,0-.18,0-.26-.03-.08-.02-.15-.05-.2-.08-.06-.03-.1-.08-.13-.12-.03-.05-.04-.1-.04-.15,0-.06,.02-.11,.05-.16,.03-.05,.08-.1,.14-.14,.06-.04,.13-.07,.21-.1,.08-.02,.17-.04,.26-.04Zm.01,.04s-.07,0-.11,0-.07,.01-.1,.02c-.03,0-.07,.02-.1,.03s-.06,.03-.09,.04-.05,.03-.07,.05c-.02,.02-.04,.04-.06,.06-.02,.02-.03,.04-.04,.07,0,.02-.01,.05-.01,.07,0,.02,0,.05,.01,.07,0,.02,.02,.04,.04,.06s.04,.04,.06,.06c.02,.02,.05,.04,.08,.05s.06,.03,.09,.04c.03,.01,.06,.02,.1,.03,.03,0,.07,.02,.1,.02,.03,0,.06,0,.09,0,.02,0,.05,0,.07,0,.03,0,.05,0,.08,0,0-.02,0-.03-.02-.05s-.01-.03,0-.05c0-.03,0-.05,.02-.08s.02-.05,.04-.07c.01-.02,.03-.04,.05-.06,.02-.02,.04-.04,.06-.05s.04-.03,.07-.05c.02-.01,.04-.03,.07-.04,.02-.01,.04-.02,.07-.04,.02-.01,.04-.02,.06-.04-.03-.02-.06-.04-.1-.06-.04-.02-.09-.04-.13-.05-.05-.02-.1-.03-.15-.04-.05,0-.11-.01-.16-.02Zm.04,1.93c.05,0,.11,0,.16-.02,.05,0,.1-.02,.14-.04,.05-.02,.09-.04,.13-.06,.04-.02,.08-.05,.11-.08,.03-.03,.06-.06,.09-.09s.05-.07,.07-.1,.04-.07,.05-.1c.01-.03,.02-.07,.03-.1,0-.02,0-.04,0-.06-.01-.02-.02-.04-.04-.06-.02-.02-.04-.03-.06-.04-.02-.01-.05-.02-.07-.01-.04,0-.08,0-.12,.02-.04,.01-.08,.03-.12,.06-.04,.02-.07,.05-.11,.08s-.07,.07-.1,.11c-.03,.04-.06,.08-.08,.12-.02,.04-.04,.08-.06,.13-.02,.04-.03,.09-.03,.13,0,.04,0,.09,0,.13Zm.62-1.69c-.06,.03-.11,.06-.15,.09-.04,.03-.08,.07-.11,.11-.03,.04-.05,.08-.06,.12-.01,.04-.02,.08-.02,.11,.06,0,.12-.02,.18-.03,.06-.01,.12-.03,.17-.05,.06-.02,.11-.04,.16-.06,.05-.02,.1-.04,.14-.07s.08-.05,.12-.07c.04-.02,.07-.05,.09-.08,.03-.03,.05-.05,.07-.08,.02-.03,.03-.05,.03-.08,0-.01,0-.02-.01-.04s-.02-.02-.04-.03-.03-.02-.05-.02-.04,0-.05,0c-.04,0-.08,.01-.12,.02-.04,.01-.08,.02-.12,.04-.04,.01-.08,.03-.11,.04-.04,.02-.07,.03-.11,.05,.02,.02,.04,.04,.07,.06,.02,.02,.04,.04,.06,.06,0,0,0,0,0,.01,0,0,0,0,0,.01s0,0,0,.01,0,0,0,0c0,0,0,0-.01,0,0,0-.01,0-.02,0,0,0,0,0-.01-.01,0,0,0,0-.01-.01-.02-.02-.04-.03-.06-.05-.02-.02-.04-.04-.06-.06Z"/>
      <path class="cls-2" d="M27.38,6.86c0-.05,0-.11,0-.17,.02,0,.03,0,.05,0,.02,0,.04,0,.06,0s.04,0,.06,0c.02,0,.03,0,.05,0,0,.06,0,.11,0,.17,0,.06,0,.12,0,.19v.17s0,.1,0,.14c0,.05,0,.08,0,.12,.05,0,.1,0,.15,0,.05,0,.1,0,.16-.01,0,0,0,.02,0,.03,0,0,0,.02,0,.03s0,.02,0,.03c0,0,0,.01,0,.02-.02,0-.05,0-.09,0-.04,0-.08,0-.15,0h-.21s-.04,0-.05,0-.02,0-.03,0c0-.05,0-.11,0-.16,0-.05,0-.12,0-.19v-.17c0-.07,0-.13,0-.19Z"/>
      <path class="cls-2" d="M28.31,6.86c0-.05,0-.11,0-.17,.04,0,.08,0,.12,0,.04,0,.08,0,.12,0,.07,0,.13,0,.18,0,.05,0,.09,0,.1,0,0,.01,0,.03,0,.05,0,.01,0,.02,0,.03,0,0,0,.02,0,.03-.03,0-.05,0-.09,0-.03,0-.06,0-.09,0-.03,0-.06,0-.08,0s-.04,0-.05,0c0,.05,0,.09,0,.14v.14c.06,0,.11,0,.16,0,.05,0,.1,0,.15,0,0,.01,0,.03,0,.03,0,0,0,.02,0,.02,0,0,0,.01,0,.02,0,0,0,.02,0,.03-.1,0-.21-.01-.31-.01,0,.03,0,.05,0,.08,0,.03,0,.05,0,.08,0,.06,0,.11,0,.16,.05,0,.1,0,.15,0s.1,0,.16-.01c0,0,0,.02,0,.03,0,0,0,.02,0,.03s0,.02,0,.03,0,.01,0,.02c-.02,0-.05,0-.09,0-.04,0-.08,0-.15,0h-.21s-.04,0-.05,0c-.01,0-.02,0-.03,0,0-.05,0-.11,0-.16,0-.05,0-.12,0-.19v-.17c0-.07,0-.13,0-.19Z"/>
      <path class="cls-2" d="M29.94,6.79s-.1-.04-.16-.04c-.04,0-.08,0-.12,.02s-.08,.04-.11,.08c-.03,.03-.06,.07-.08,.12-.02,.05-.03,.11-.03,.18,0,.05,0,.1,.02,.14,.01,.04,.04,.08,.06,.11,.03,.03,.06,.06,.1,.07,.04,.02,.09,.03,.14,.03,.01,0,.03,0,.04,0s.03,0,.04,0c.01,0,.03,0,.04,0,.01,0,.02,0,.03,0,0-.01,0-.02,0-.04v-.05c0-.07,0-.12,0-.15s0-.06,0-.07c0,0,.02,0,.04,0,.02,0,.04,0,.06,0,.03,0,.06,0,.07,0s.03,0,.04,0c0,0,0,.02,0,.03,0,.02,0,.03,0,.05s0,.04,0,.06c0,.02,0,.04,0,.06v.04s0,.04,0,.06c0,.02,0,.03,0,.04-.06,.02-.12,.03-.18,.04-.06,0-.12,.01-.18,.01-.08,0-.15,0-.21-.03-.07-.02-.12-.05-.17-.08-.05-.04-.08-.08-.11-.13s-.04-.11-.04-.18c0-.08,.01-.15,.04-.21,.03-.06,.07-.11,.12-.15s.11-.07,.18-.09,.14-.03,.22-.03c.07,0,.13,0,.18,.02s.1,.03,.15,.06c0,.02-.01,.04-.02,.07,0,.02-.01,.04-.02,.06h-.02s-.06-.07-.11-.09Z"/>
      <path class="cls-2" d="M31.36,7.57s-.04,0-.06,0h-.12s-.04,0-.06,0c-.01-.04-.03-.08-.04-.13-.02-.04-.03-.09-.05-.13-.03,0-.06,0-.09,0-.03,0-.06,0-.09,0-.02,0-.05,0-.07,0s-.05,0-.07,0c-.02,.04-.04,.09-.05,.13-.02,.04-.03,.09-.04,.13-.01,0-.02,0-.03,0h-.06s-.02,0-.04,0c.01-.02,.03-.05,.04-.09,.02-.04,.04-.08,.06-.13,.02-.05,.04-.1,.07-.16,.02-.06,.05-.11,.07-.17,.02-.06,.05-.11,.07-.17,.02-.06,.04-.11,.07-.16,0,0,.02,0,.03,0,0,0,.02,0,.03,0,0,0,.02,0,.03,0,0,0,.02,0,.03,0,.03,.07,.06,.15,.09,.23,.03,.08,.07,.16,.1,.24,.03,.08,.07,.15,.1,.23,.03,.07,.06,.13,.09,.18Zm-.48-.64c-.02,.05-.05,.1-.07,.15s-.04,.1-.06,.15h.25c-.02-.05-.04-.1-.06-.15s-.04-.1-.06-.15Z"/>
      <path class="cls-2" d="M31.78,6.8s0-.08,0-.11c.03,0,.04,0,.06,0s.04,0,.06,0c.1,.1,.2,.2,.29,.3,.1,.1,.2,.2,.3,.3v-.23s0-.08,0-.12c0-.04,0-.08,0-.11,0-.03,0-.06,0-.09,0-.02,0-.04,0-.05,.03,0,.05,0,.06,0,.02,0,.04,0,.06,0,0,.08,0,.15-.01,.21,0,.06,0,.12,0,.18s0,.11,0,.16v.33s-.04,0-.06,0c-.02,0-.04,0-.05,0-.19-.2-.38-.41-.59-.62,0,.02,0,.05,0,.07s0,.05,0,.08v.15c0,.05,0,.09,0,.13s0,.07,0,.09c0,.02,0,.04,0,.06s0,.03,0,.04c-.01,0-.02,0-.03,0h-.03s-.04,0-.06,0c0,0,0-.03,0-.07,0-.04,0-.09,0-.15s0-.13,0-.2c0-.07,0-.14,0-.2,0-.06,0-.11,0-.15Z"/>
      <path class="cls-2" d="M33.25,6.83s0-.04,0-.04c-.01,0-.03,0-.05,0s-.04,0-.06,0c-.02,0-.05,0-.07,0s-.04,0-.06,0c0,0,0-.02,0-.03s0-.02,0-.03,0-.02,0-.03,0-.02,0-.03c.03,0,.06,0,.08,0,.03,0,.05,0,.08,0,.03,0,.05,0,.08,0,.03,0,.07,0,.11,0s.08,0,.11,0,.06,0,.08,0c.03,0,.05,0,.07,0,.02,0,.05,0,.08,0,0,0,0,.02,0,.03,0,0,0,.02,0,.03,0,0,0,.02,0,.03,0,0,0,.02,0,.03-.02,0-.04,0-.06,0s-.04,0-.07,0c-.02,0-.04,0-.06,0-.02,0-.04,0-.05,0,0,0,0,.01,0,.02s0,.02,0,.03v.39c0,.07,0,.13,0,.19,0,.06,0,.11,0,.16-.01,0-.03,0-.05,0h-.12s-.04,0-.05,0c0-.05,0-.11,0-.16,0-.05,0-.12,0-.19v-.39Z"/>
      <path class="cls-2" d="M34.63,6.83h.15l.16,.56,.16-.56h.15v.73h-.11v-.55l-.16,.55h-.09l-.16-.55v.55h-.11v-.73Z"/>
      <path class="cls-2" d="M36.13,6.83h.09l.25,.73h-.12l-.07-.19h-.21l-.07,.19h-.12l.25-.73Zm.11,.41l-.06-.22-.06,.22h.13Z"/>
      <path class="cls-2" d="M37.21,6.83h.12l.25,.54v-.54h.11v.73h-.12l-.25-.53v.53h-.11v-.73Z"/>
      <path class="cls-2" d="M38.46,7.36s0,.05,.03,.07c.02,.02,.04,.02,.06,.02,.01,0,.02,0,.03,0s.02-.01,.03-.02c.02-.02,.02-.04,.02-.07,0-.04,0-.06-.03-.08-.02-.02-.04-.03-.06-.04h0s0,0,0,0c0,0,0,0,0,0h0s-.03-.02-.05-.03c-.02,0-.03-.02-.05-.04-.01-.01-.02-.03-.03-.05,0-.02-.01-.04-.01-.06h0v-.02c0-.06,.02-.11,.05-.15,.04-.04,.08-.06,.12-.06s.09,.02,.12,.06c.04,.04,.05,.09,.05,.15h-.12s0-.04-.02-.06c-.01-.01-.03-.02-.05-.02-.02,0-.03,0-.04,.02-.01,.01-.02,.03-.02,.05h0s0,.04,.02,.06c.01,.01,.03,.02,.04,.03h0s0,0,0,0h0s0,0,0,0c.02,0,.04,.02,.05,.02,.02,0,.03,.02,.05,.04,.02,.02,.04,.04,.05,.07s.02,.06,.02,.09c0,.07-.02,.12-.06,.17-.04,.04-.08,.07-.14,.07s-.1-.02-.13-.06c-.04-.04-.06-.1-.06-.16h.12Z"/>
      <path class="cls-2" d="M39.48,6.83h.11v.73h-.11v-.73Z"/>
      <path class="cls-2" d="M40.81,6.93c.06,.08,.09,.17,.09,.27s-.03,.19-.09,.27c-.06,.07-.13,.11-.22,.11s-.16-.04-.22-.11c-.06-.07-.09-.16-.09-.27s.03-.2,.09-.27c.06-.07,.13-.11,.22-.11s.16,.04,.22,.11Zm-.36,.09s-.06,.11-.06,.18,.02,.13,.06,.18,.09,.08,.14,.08,.1-.02,.14-.08c.04-.05,.06-.11,.06-.18s-.02-.13-.06-.18c-.04-.05-.09-.07-.14-.07-.05,0-.1,.02-.14,.07Z"/>
      <path class="cls-2" d="M41.64,6.83h.12l.25,.54v-.54h.11v.73h-.12l-.25-.53v.53h-.11v-.73Z"/>
    </g>
    <g>
      <path class="cls-3" d="M1.54,18.05H.62v-.19h.92v-.13H.73s-.03,0-.03-.03v-.8s0-.03,.03-.03h.81v-.12H.48v-.19H1.54v-.11c-.32,.01-.59,.02-.81,0l-.02-.21c.28,0,.6,0,.96-.02,.37-.02,.65-.05,.84-.07l.03,.2c-.14,.03-.38,.06-.72,.08-.02,0-.04,0-.06,0v.12h1.05v.19H1.76v.12h.8s.03,0,.03,.03v.8s0,.03-.03,.03h-.8v.13h.91v.19h-.91v.11h1.03v.19H.5v-.19H1.54v-.11Zm0-.98H.91v.15h.63v-.15Zm0,.34H.91v.13s0,0,.01,0h.62v-.14Zm.22-.19h.62v-.15h-.62v.15Zm0,.33h.62v-.14h-.62v.14Z"/>
      <path class="cls-3" d="M5.66,18.38h-.21v-2.13s0-.02,0-.03h.55l.15,.08-.16,.55s0,.07,0,.08c.07,.11,.12,.21,.15,.3,.03,.15,0,.27-.06,.38-.04,.06-.08,.09-.13,.09-.09,.02-.19,.02-.31,0v.67Zm.02-1.97h-.02v1.11c.08,.02,.15,.03,.21,.03,.03-.01,.05-.03,.06-.05,.07-.11,.02-.3-.14-.57h0s.13-.47,.13-.47c.01-.04,0-.05-.05-.05h-.19Zm1.23,1.2l-.14,.19c-.18,.22-.45,.39-.83,.51l-.11-.17c.17-.06,.32-.12,.45-.18,.15-.09,.28-.21,.38-.35h-.21c-.12,.12-.27,.22-.44,.32l-.14-.15c.07-.04,.14-.07,.21-.11,.18-.12,.3-.25,.37-.38h-.28v-.19h1.5v.19h-1.01s-.05,.1-.08,.14h1.01s.03,0,.04,0c.01,.01,.02,.02,.02,.03,0,0,0,.01,0,.02,0,.42-.03,.67-.08,.75-.04,.06-.09,.1-.16,.12-.09,.03-.23,.03-.41,0v-.2c.07,.02,.14,.03,.2,.04,.09,0,.15-.02,.19-.07,.03-.03,.04-.1,.05-.2,0-.2,0-.3,0-.31h-.17c-.17,.42-.45,.68-.83,.78l-.1-.18c.34-.06,.58-.26,.72-.6h-.17Zm.63-.61h-1.25s-.03,0-.03-.03v-.72s0-.03,.03-.03h1.25s.03,0,.03,.03v.72s0,.03-.03,.03Zm-.18-.48v-.13h-.9v.13h.9Zm-.9,.17v.13s0,0,0,0h.89v-.14h-.9Z"/>
      <path class="cls-3" d="M11.33,18.05h-.92v-.19h.92v-.13h-.81s-.03,0-.03-.03v-.8s0-.03,.03-.03h.81v-.12h-1.06v-.19h1.06v-.11c-.32,.01-.59,.02-.81,0l-.02-.21c.28,0,.6,0,.96-.02,.38-.02,.66-.05,.84-.07l.03,.2c-.15,.03-.38,.06-.72,.08-.02,0-.04,0-.06,0v.12h1.05v.19h-1.05v.12h.8s.03,0,.03,.03v.8s0,.03-.03,.03h-.8v.13h.91v.19h-.91v.11h1.03v.19h-2.28v-.19h1.04v-.11Zm0-.98h-.63v.15h.63v-.15Zm0,.34h-.63v.13s0,0,0,0h.62v-.14Zm.22-.19h.62v-.15h-.62v.15Zm0,.33h.62v-.14h-.62v.14Z"/>
      <path class="cls-3" d="M15.8,17.13h-.6v-.14h.6v-.07h-.53v-.15h.53v-.1h-.64v-.14h.64v-.07h-.52v-.15h.52v-.14h.21v.14h.51s.06,.02,.06,.05v.18h.19v.14h-.19v.2s-.02,.06-.06,.06h-.51v.07h.64v.14h-.64v.08h.7v.15h-1.55v-.15h.64v-.08Zm.83,1v.17s-1.44,.06-1.44,.06l-.02-.17,1.46-.06Zm-.07-.07h-1.3s-.02,0-.02-.03v-.58s.01-.02,.02-.02h1.3s.03,.01,.03,.02v.58s0,.03-.03,.03Zm-.75-.48h-.38s0,0,0,0v.09h.38v-.09Zm0,.23h-.38v.08h0s.38,0,.38,0v-.09Zm.2-1.3h.38v-.07s-.01,0-.02,0h-.36v.07Zm0,.24h.36s.02-.01,.02-.02v-.08h-.38v.1Zm0,.92h.38v-.09h-.38v.09Zm0,.23h.38v-.09h-.38v.09Zm1.01-1.6v1.58h-.2v-1.58h.2Zm.4-.15v1.96c0,.09-.04,.16-.11,.2-.09,.06-.25,.06-.48,0v-.21c.2,.04,.33,.05,.37,.03,.01-.02,.02-.04,.02-.07v-1.91h.21Z"/>
      <path class="cls-3" d="M20.09,16.44v-.19h2.28v.19h-1.96v1.62s.02,.05,.05,.05h1.88v.2h-2.05c-.07,0-.1-.03-.1-.09v-1.77h-.1Zm1.22,1.57h-.74s-.03,0-.03-.03v-.7s0-.03,.03-.03h.74s.03,0,.03,.03v.7s0,.03-.03,.03Zm.75-.89h-1.39s-.03,0-.03-.03v-.51s0-.03,.03-.03h1.39s.03,0,.03,.03v.51s0,.03-.03,.03Zm-1.32,.31s0,0,0,0v.38h0s.39,0,.39,0c0,0,0,0,0,0v-.38s0,0,0,0h-.39Zm.12-.69s0,0,0,0v.19s0,0,0,0h1.02s0,0,0,0v-.19s0,0,0,0h-1.02Zm1.38,1.27h-.73s-.03,0-.03-.03v-.69s0-.03,.03-.03h.73s.03,0,.03,.03v.69s0,.03-.03,.03Zm-.56-.57s0,0,0,0v.38h0s.38,0,.38,0c0,0,0,0,0,0v-.38s0,0,0,0h-.38Z"/>
      <path class="cls-3" d="M25.73,17.98c-.17,.12-.38,.23-.64,.33l-.1-.18c.28-.11,.5-.22,.64-.32l.1,.17Zm.3-1.05h-.77s-.03,0-.03-.03v-.66s0-.03,.03-.03h1.76s.03,0,.03,.03v.66s0,.03-.03,.03h-.77v.08h1.02v.19h-2.26v-.19h1.03v-.08Zm-.78,.85s-.03,0-.03-.03v-.41s0-.03,.03-.03h1.78s.03,0,.03,.03v.41s0,.03-.03,.03h-.76v.37c0,.09-.04,.16-.12,.21-.08,.05-.23,.05-.44,0v-.21c.17,.05,.28,.06,.33,.02,.01-.02,.02-.04,.02-.07v-.31h-.8Zm.19-.3h0v.12s0,0,0,0h1.41v-.13h-1.41Zm1.4-1v-.09h-1.4v.09h1.4Zm-1.4,.16v.11s0,0,0,0h1.39v-.12h-1.4Zm1.25,1.18c.26,.14,.46,.25,.58,.35l-.12,.16c-.18-.12-.38-.23-.57-.33l.11-.18Z"/>
      <path class="cls-3" d="M31.15,18.18v.17h-1.05s-.07-.03-.07-.07v-.7s-.03,.03-.04,.05c-.05-.05-.1-.09-.15-.11,.1-.11,.17-.25,.21-.42l.19,.05s-.02,.08-.04,.12h.33c.05-.07,.07-.12,.08-.17l.18,.07s-.03,.07-.04,.1h.4l-.02,.17h-.42v.13h.4v.17h-.4v.14h.4v.17h-.4v.14h.43Zm-.78-1.73v.08h-.2v-.08h-.29v-.17h.29v-.11h.2v.11h.31v-.11h.2v.11h.28v.17h-.28v.09h-.2v-.09h-.31Zm.08,.62h-.51s-.02-.01-.02-.02v-.43s.01-.03,.02-.03h.51s.03,0,.03,.03v.43s0,.02-.03,.02Zm-.35-.32s0,0,0,0v.14h0s.2,0,.2,0c0,0,0,0,0,0v-.14s0,0,0,0h-.2Zm.42,.68h-.27s-.02,.01-.02,.02v.11h.29v-.13Zm0,.3h-.29v.14h.29v-.14Zm0,.31h-.29v.11s.01,.03,.02,.03h.27v-.14Zm.57-.98h-.51s-.02-.01-.02-.02v-.43s.01-.03,.02-.03h.51s.03,0,.03,.03v.43s0,.02-.03,.02Zm-.35-.32s0,0,0,0v.14h0s.2,0,.2,0c0,0,0,0,0,0v-.14s0,0,0,0h-.2Zm.86,.87c-.02,.25-.1,.51-.25,.77l-.19-.07c.16-.22,.24-.45,.25-.69h-.13s-.03,0-.03-.03v-1.34s0-.03,.03-.03h.79s.03,0,.03,.03v1.34s0,.03-.03,.03h-.2v.52s.02,.06,.06,.06h.06s.01,0,.02-.05c0-.03,.01-.1,.01-.2l.19,.06c-.01,.2-.04,.31-.08,.33-.03,.02-.07,.04-.12,.04h-.23c-.07,0-.1-.03-.1-.08v-.67h-.09Zm.31-.99v-.22h-.45v.22h.45Zm0,.41v-.22h-.45v.22h.45Zm-.45,.19v.2h0s.44,0,.44,0c0,0,0,0,0,0v-.2h-.45Z"/>
      <path class="cls-3" d="M34.79,17.03s.01-.04,.04-.04h2.09l.18,.08c0,.12-.03,.26-.09,.41l-.19-.06c.04-.13,.06-.21,.05-.23,0-.02,0-.03-.03-.03h-1.84s-.02,0-.02,.02v.24h-.2v-.41Zm1.38,1.17c-.03,.09-.08,.14-.15,.17-.05,.02-.09,.03-.14,.03-.05,0-.14-.02-.27-.05v-.2c-.3,.11-.55,.17-.73,.19l-.07-.19c.44-.06,.84-.18,1.19-.38,0-.04-.01-.07-.02-.09-.41,.22-.77,.34-1.09,.37l-.07-.19c.38-.04,.73-.14,1.06-.32-.03-.02-.05-.05-.08-.07-.34,.17-.63,.27-.89,.27l-.06-.18c.24-.02,.49-.08,.73-.17h-.5v-.15h1.65v.15h-.73s.08,.08,.11,.12c.07,.09,.11,.15,.12,.17,.18,.23,.44,.39,.78,.51l-.13,.18c-.26-.11-.48-.25-.66-.42,0,.1-.02,.18-.06,.24Zm-.35-2.05h.22v.12h.99v.19h-2.19v-.19h.99v-.12Zm.91,.77h-1.63s-.02,0-.02-.03v-.35s.01-.02,.02-.02h1.63s.03,.01,.03,.02v.35s0,.03-.03,.03Zm-1.45-.24s0,0,0,0v.08h0s1.27,0,1.27,0h0v-.09h-1.28Zm.74,1.29c-.15,.07-.27,.13-.38,.19,.14,.03,.24,.04,.28,.02,.03-.02,.06-.05,.08-.09,.01-.04,.02-.08,.02-.11Zm.85-.35c-.11,.08-.23,.16-.38,.24l-.11-.16c.16-.09,.29-.17,.38-.23l.11,.15Z"/>
      <path class="cls-3" d="M39.99,17.05v.71s.03-.01,.05-.02c.15-.04,.26-.08,.33-.12l.09,.2c-.18,.09-.42,.17-.72,.24l-.09-.2s.08-.03,.13-.04v-1.5s.01-.06,.06-.06c.38,0,.71-.04,1.02-.11l.09,.2c-.14,.03-.28,.06-.42,.07,0,.14,0,.28,.02,.41h.44v.21h-.42c.04,.27,.11,.5,.21,.67,.02,.04,.04,.06,.06,.06,0,0,0,0,0-.02,.01-.03,.02-.12,.02-.27l.21,.06c-.03,.29-.06,.45-.11,.49-.03,.02-.06,.03-.09,.03-.04,0-.08-.02-.12-.05-.02-.02-.03-.03-.04-.04-.18-.21-.3-.52-.35-.93h-.36Zm.86,1.06v.21h-1.1v-.21h1.1Zm-.54-1.65c-.11,0-.21,0-.31,0-.01,0-.02,.01,0,.02v.36h.33c-.01-.12-.02-.25-.02-.38Zm1.04-.03s-.03,0-.03,.03v1.9h-.23v-2.1s.02-.04,.04-.04h.69l.15,.1-.24,.71s0,.04,0,.06c.12,.14,.19,.27,.22,.38,.06,.21,.05,.38-.03,.51-.04,.06-.08,.09-.13,.11-.04,.02-.09,.04-.16,.04s-.15-.02-.26-.07v-.23c.14,.07,.24,.09,.31,.08,.08-.02,.11-.12,.09-.3-.01-.11-.1-.28-.26-.49-.02-.02-.03-.04-.02-.06l.2-.61s0-.03,0-.03h-.36Z"/>
    </g>
  </g>
</svg>