<?xml version="1.0" encoding="UTF-8"?>
<svg xmlns="http://www.w3.org/2000/svg" xmlns:xlink="http://www.w3.org/1999/xlink" viewBox="0 0 20.54 18.16">
  <defs>
    <style>
      .cls-1 {
        fill: #fff;
      }

      .cls-2 {
        isolation: isolate;
      }

      .cls-3 {
        fill: url(#_未命名漸層_1049);
      }

      .cls-4 {
        fill: #beb292;
      }

      .cls-5 {
        fill: url(#_新增漸層色票_20-2);
      }

      .cls-6 {
        mix-blend-mode: overlay;
      }

      .cls-7 {
        fill: #c7ba9a;
      }

      .cls-8 {
        fill: url(#_新增漸層色票_20);
      }
    </style>
    <linearGradient id="_新增漸層色票_20" data-name="新增漸層色票 20" x1="13.33" y1="-.08" x2="13.41" y2="10.51" gradientUnits="userSpaceOnUse">
      <stop offset="0" stop-color="#fff"/>
      <stop offset=".07" stop-color="#dbd4d2"/>
      <stop offset=".17" stop-color="#b0a29f"/>
      <stop offset=".26" stop-color="#8f7a76"/>
      <stop offset=".34" stop-color="#775e59"/>
      <stop offset=".41" stop-color="#694d47"/>
      <stop offset=".47" stop-color="#644741"/>
      <stop offset=".86" stop-color="#a88d81"/>
      <stop offset=".99" stop-color="#bfa597"/>
    </linearGradient>
    <linearGradient id="_新增漸層色票_20-2" data-name="新增漸層色票 20" x1="7.23" y1="-.04" x2="7.31" y2="10.55" xlink:href="#_新增漸層色票_20"/>
    <linearGradient id="_未命名漸層_1049" data-name="未命名漸層 1049" x1="10.33" y1="-1.6" x2="10.41" y2="8.99" gradientUnits="userSpaceOnUse">
      <stop offset=".1" stop-color="#fff"/>
      <stop offset=".16" stop-color="#dbd4d2"/>
      <stop offset=".23" stop-color="#b0a29f"/>
      <stop offset=".3" stop-color="#8f7a76"/>
      <stop offset=".37" stop-color="#775e59"/>
      <stop offset=".43" stop-color="#694d47"/>
      <stop offset=".47" stop-color="#644741"/>
      <stop offset=".86" stop-color="#a88d81"/>
      <stop offset=".99" stop-color="#bfa597"/>
    </linearGradient>
  </defs>
  <g class="cls-2">
    <g id="_圖層_2" data-name="圖層 2">
      <g id="_圖層_1-2" data-name="圖層 1">
        <g>
          <path class="cls-7" d="M4.44,11.32s0,0,0-.01c0,0,0,0,.01,0,0,0,.01,0,.02,0s.02,0,.03,0c0,0,.02,0,.03,0,.01,0,.02,0,.03,0,.01,0,.02,0,.04,0,.01,0,.02,0,.04,0,0,.01,0,.02,0,.02,0,.02,0,.03-.01,.03-.03,0-.05,.01-.06,.02,0,0-.01,.02-.01,.03,0,0,0,.01,0,.04s0,.07,0,.13c0,.06,0,.14,0,.24,0,.1,0,.23,.01,.38,0,.02,0,.03,.02,.04,0,0,.03,.02,.06,.02,0,0,0,0,0,0,0,0,0,.01,0,.02s0,.01,0,.02c-.03,0-.05,0-.08,0-.02,0-.04,0-.06,0,0,0-.02,0-.03,0-.01,0-.03,0-.04,0-.01,0-.03,0-.04,0-.01,0-.02,0-.03,0,0-.01,0-.02,0-.02,0-.02,0-.02,.01-.02,.03,0,.06-.02,.07-.02,.01,0,.02-.02,.02-.04,0,0,0-.02,0-.06,0-.03,0-.08,0-.13,0-.05,0-.1,0-.16,0-.06,0-.11,0-.17,0-.05,0-.1,0-.13,0-.04,0-.06,0-.07l-.27,.81s0,.02,0,.02c0,0,0,0-.01,0,0,0,0,0-.01,0l-.3-.87s0,.04,0,.07c0,.04,0,.09,0,.14,0,.05,0,.11,0,.17,0,.06,0,.12,0,.17,0,.05,0,.09,0,.13,0,.03,0,.05,0,.06,0,.03,.03,.05,.08,.07,0,0,.01,0,.01,.02,0,0,0,.01,0,.02-.02,0-.04,0-.07,0-.02,0-.04,0-.06,0-.01,0-.03,0-.05,0-.02,0-.04,0-.06,0,0-.01,0-.02,0-.02,0-.01,0-.02,.01-.02,.02,0,.04-.01,.05-.02,.01,0,.02-.02,.02-.04,0,0,0-.04,0-.08,0-.04,0-.09,0-.15s0-.12,0-.19c0-.07,0-.13,0-.18,0-.06,0-.1,0-.14,0-.04,0-.06,0-.06,0-.02,0-.03-.02-.04-.01,0-.03-.01-.06-.02,0,0-.01,0-.01-.03,0,0,0-.01,0-.02,.01,0,.02,0,.04,0,.01,0,.03,0,.04,0,.01,0,.03,0,.04,0,.01,0,.02,0,.03,0,.01,0,.03,0,.03,0s.01,0,.02,0c0,0,0,0,.01,0,0,0,0,0,0,.01l.26,.77,.25-.77Z"/>
          <path class="cls-7" d="M6.22,11.35v.39h.19s.03-.01,.04-.03c0-.02,.01-.04,.02-.07,0-.01,0-.02,.02-.02,0,0,0,0,0,0,0,0,0,0,0,0,0,.02,0,.05,0,.08,0,.03,0,.05,0,.08,0,.02,0,.04,0,.06,0,.03,0,.05,0,.09,0,0-.01,0-.02,0-.01,0-.02,0-.02-.02,0-.03,0-.05-.02-.07,0-.02-.02-.03-.04-.03h-.19v.36s.01,.04,.03,.04c.02,0,.06,.01,.11,.01h.07s.04,0,.06-.01c.02,0,.03-.02,.05-.04,.01-.01,.03-.03,.04-.05,.01-.02,.02-.04,.03-.07,0,0,0-.01,.02-.01,0,0,0,0,.01,0s0,0,.01,0c0,.02-.01,.04-.02,.07,0,.03-.01,.05-.02,.08,0,.02-.01,.05-.02,.06,0,.02-.01,.03-.02,.03,0,0-.02,0-.03,0-.01,0-.03,0-.04,0-.01,0-.03,0-.04,0-.01,0-.03,0-.04,0h-.27s-.05,0-.08,0c-.03,0-.05,0-.08,0,0-.01,0-.02,0-.02,0-.01,0-.02,.01-.02,.03,0,.05-.01,.07-.02,.01,0,.02-.02,.02-.04v-.78s0-.03-.02-.04c-.01,0-.04-.02-.07-.02,0,0-.01-.01-.01-.03,0,0,0,0,0-.01,0,0,0,0,0-.01,.04,0,.06,0,.09,0,.02,0,.05,0,.06,0h.24s.07,0,.1,0c.03,0,.05,0,.05,0,.01,0,.02,0,.02,.03,0,.02,0,.04,0,.06,0,.02,0,.05,0,.08,0,.03,0,.05,.02,.07,0,0-.01,0-.02,0-.01,0-.02,0-.02-.01,0-.03-.02-.05-.03-.07,0-.02-.02-.03-.03-.05-.01-.01-.03-.02-.04-.03-.02,0-.04,0-.06,0h-.18Z"/>
          <path class="cls-7" d="M8.81,11.84h-.09v.34s0,.04,.03,.05,.04,.01,.08,.02c0,0,.01,.01,.01,.03,0,0,0,.02,0,.03-.02,0-.05,0-.08,0-.03,0-.06,0-.09,0-.02,0-.05,0-.07,0-.03,0-.05,0-.08,0,0-.01,0-.02,0-.02,0-.01,0-.02,.01-.02,.03,0,.05-.01,.07-.02,.01,0,.02-.02,.02-.04v-.78s0-.03-.02-.04c-.01,0-.04-.02-.07-.02,0,0-.01,0-.01-.03,0,0,0-.01,0-.02,.02,0,.05,0,.08,0s.05,0,.08,0h.17c.09,0,.16,.02,.2,.07,.05,.05,.07,.11,.07,.2,0,.02,0,.05,0,.07s-.02,.05-.03,.07c-.01,.02-.03,.05-.05,.07-.02,.02-.04,.04-.07,.05l.21,.36s.03,.05,.05,.06c.02,.01,.04,.02,.05,.02,0,0,.01,0,.01,.02,0,0,0,.02,0,.03-.02,0-.04,0-.07,0-.03,0-.05,0-.08,0-.02,0-.03,0-.05-.03-.02-.02-.03-.04-.05-.07l-.2-.36Zm-.03-.06c.06,0,.1-.02,.13-.05,.03-.03,.05-.08,.05-.16,0-.03,0-.06,0-.09,0-.03-.02-.05-.03-.07-.01-.02-.03-.03-.06-.05-.02-.01-.05-.02-.09-.02h-.06v.42h.07Z"/>
          <path class="cls-7" d="M10.73,12.18s0,.03,.02,.04c.01,0,.03,.02,.06,.02,0,0,.01,.01,.01,.02,0,0,0,.01,0,.02-.03,0-.05,0-.08,0-.03,0-.05,0-.07,0s-.05,0-.07,0c-.03,0-.05,0-.08,0,0-.01,0-.02,0-.02,0-.01,0-.02,.01-.02,.03,0,.05-.01,.06-.02s.02-.02,.02-.04v-.78s0-.04-.02-.04c-.01,0-.03-.02-.06-.02,0,0,0,0,0,0,0,0,0-.01,0-.02s0-.01,0-.02c.02,0,.05,0,.08,0,.03,0,.05,0,.07,0s.04,0,.07,0c.03,0,.05,0,.08,0,0,.01,0,.02,0,.02,0,.02,0,.02-.01,.03-.03,0-.05,.01-.06,.02-.01,0-.02,.02-.02,.04v.78Z"/>
          <path class="cls-7" d="M12.76,11.41s0-.02,0-.03c0-.01,0-.03-.02-.03-.01,0-.03-.01-.06-.02,0,0-.01,0-.01-.03,0,0,0,0,0-.01,0,0,0,0,0-.01,0,0,0,0,.02,0,0,0,.02,0,.03,0,.01,0,.03,0,.04,0,.01,0,.03,0,.04,0,.03,0,.05,0,.07,0,.02,0,.04,0,.04,0,0,0,0,0,0,.01,0,0,0,0,0,0s0,0,0,0c0,.02,0,.03-.01,.03-.03,0-.05,0-.06,.02-.01,0-.02,.02-.03,.04l-.3,.91s0,0,0,0,0,0,0,0c0,0-.02,0-.02-.03l-.29-.9s-.01-.03-.02-.03c-.01,0-.03-.01-.06-.02,0,0-.01-.01-.01-.03,0,0,0-.02,0-.02,.02,0,.05,0,.08,0,.03,0,.05,0,.08,0s.05,0,.08,0,.06,0,.08,0c0,.01,0,.02,0,.02,0,.02,0,.02-.01,.03-.05,0-.07,.02-.07,.05,0,0,0,.01,0,.02l.21,.67,.22-.66Z"/>
          <path class="cls-7" d="M14.42,11.35v.39h.19s.03-.01,.04-.03c0-.02,.01-.04,.02-.07,0-.01,0-.02,.02-.02,0,0,0,0,0,0,0,0,0,0,0,0,0,.02,0,.05,0,.08,0,.03,0,.05,0,.08,0,.02,0,.04,0,.06,0,.03,0,.05,0,.09,0,0-.01,0-.02,0-.01,0-.02,0-.02-.02,0-.03,0-.05-.02-.07,0-.02-.02-.03-.04-.03h-.19v.36s.01,.04,.03,.04c.02,0,.06,.01,.11,.01h.07s.04,0,.06-.01c.02,0,.03-.02,.05-.04,.01-.01,.03-.03,.04-.05,.01-.02,.02-.04,.03-.07,0,0,0-.01,.02-.01,0,0,0,0,.01,0s0,0,.01,0c0,.02-.01,.04-.02,.07,0,.03-.01,.05-.02,.08,0,.02-.01,.05-.02,.06,0,.02-.01,.03-.02,.03,0,0-.02,0-.03,0-.01,0-.03,0-.04,0-.01,0-.03,0-.04,0-.01,0-.03,0-.04,0h-.27s-.05,0-.08,0c-.03,0-.05,0-.08,0,0-.01,0-.02,0-.02,0-.01,0-.02,.01-.02,.03,0,.05-.01,.07-.02,.01,0,.02-.02,.02-.04v-.78s0-.03-.02-.04c-.01,0-.04-.02-.07-.02,0,0-.01-.01-.01-.03,0,0,0,0,0-.01,0,0,0,0,0-.01,.04,0,.06,0,.09,0,.02,0,.05,0,.06,0h.24s.07,0,.1,0c.03,0,.05,0,.05,0,.01,0,.02,0,.02,.03,0,.02,0,.04,0,.06,0,.02,0,.05,0,.08,0,.03,0,.05,.02,.07,0,0-.01,0-.02,0-.01,0-.02,0-.02-.01,0-.03-.02-.05-.03-.07,0-.02-.02-.03-.03-.05-.01-.01-.03-.02-.04-.03-.02,0-.04,0-.06,0h-.18Z"/>
          <path class="cls-7" d="M16.48,11.84h-.09v.34s0,.04,.03,.05,.04,.01,.08,.02c0,0,.01,.01,.01,.03,0,0,0,.02,0,.03-.02,0-.05,0-.08,0-.03,0-.06,0-.09,0-.02,0-.05,0-.07,0-.03,0-.05,0-.08,0,0-.01,0-.02,0-.02,0-.01,0-.02,.01-.02,.03,0,.05-.01,.07-.02,.01,0,.02-.02,.02-.04v-.78s0-.03-.02-.04c-.01,0-.04-.02-.07-.02,0,0-.01,0-.01-.03,0,0,0-.01,0-.02,.02,0,.05,0,.08,0s.05,0,.08,0h.17c.09,0,.16,.02,.2,.07,.05,.05,.07,.11,.07,.2,0,.02,0,.05,0,.07s-.02,.05-.03,.07c-.01,.02-.03,.05-.05,.07-.02,.02-.04,.04-.07,.05l.21,.36s.03,.05,.05,.06c.02,.01,.04,.02,.05,.02,0,0,.01,0,.01,.02,0,0,0,.02,0,.03-.02,0-.04,0-.07,0-.03,0-.05,0-.08,0-.02,0-.03,0-.05-.03-.02-.02-.03-.04-.05-.07l-.2-.36Zm-.03-.06c.06,0,.1-.02,.13-.05,.03-.03,.05-.08,.05-.16,0-.03,0-.06,0-.09,0-.03-.02-.05-.03-.07-.01-.02-.03-.03-.06-.05-.02-.01-.05-.02-.09-.02h-.06v.42h.07Z"/>
        </g>
        <g>
          <path class="cls-8" d="M13.25,10.71h0s.05,0,.05,0c.09-.05,.18-.11,.27-.17h-.04c-.09,.06-.19,.11-.28,.16Z"/>
          <path class="cls-5" d="M7.18,10.54c.08,.06,.17,.11,.25,.16v-.04c-.07-.04-.14-.08-.22-.12h-.04Z"/>
          <path class="cls-3" d="M16.19,5.71c0-1.18-.35-2.27-.96-3.18-.83-1.17-2.08-2.01-3.58-2.26-1.93-.32-4.02,.09-5.47,1.48-.1,.1-.2,.2-.29,.3-.82,1-1.31,2.27-1.31,3.66,0,2.01,1.03,3.79,2.59,4.83h.04c.07,.04,.15,.08,.22,.12,0,0,0,0,0,0l.07-.57s0-.06,0-.09l.44-4.77,2.28,4.81c.04,.08,.07,.15,.1,.21v.03c.03-.06,.06-.13,.1-.22l2.28-4.81,.44,4.77s0,0,0,0l.1,.69c.1-.05,.19-.1,.28-.16h.04c1.57-1.04,2.62-2.82,2.62-4.85Zm-2.32,3.67l-.62-5.62c-.02-.17-.05-.25-.11-.25s-.1,.06-.14,.15l-2.67,5.68h0S7.66,3.64,7.66,3.64c-.04-.08-.07-.15-.14-.15s-.09,.07-.11,.25l-.62,5.62c-.01,.09-.02,.2-.05,.32-.17-.17-.33-.35-.47-.55-1.3-1.71-1.49-4.09-.47-5.98C6.87,1.14,9.26-.24,11.53,.39c2.43,.67,4.04,2.89,4.09,5.37-.03,1.52-.64,2.96-1.69,3.99-.03-.13-.05-.26-.06-.38Z"/>
        </g>
        <g class="cls-6">
          <path class="cls-4" d="M13.25,10.55h0s.05,0,.05,0c.09-.05,.18-.11,.27-.17h-.04c-.09,.06-.19,.11-.28,.16Z"/>
          <path class="cls-4" d="M7.18,10.38c.08,.06,.17,.11,.25,.16v-.04c-.07-.04-.14-.08-.22-.12h-.04Z"/>
          <path class="cls-4" d="M16.19,5.55c0-1.18-.35-2.27-.96-3.18C14.41,1.2,13.15,.35,11.65,.1c-1.93-.32-4.02,.09-5.47,1.48-.1,.1-.2,.2-.29,.3-.82,1-1.31,2.27-1.31,3.66,0,2.01,1.03,3.79,2.59,4.83h.04c.07,.04,.15,.08,.22,.12,0,0,0,0,0,0l.07-.57s0-.06,0-.09l.44-4.77,2.28,4.81c.04,.08,.07,.15,.1,.21v.03c.03-.06,.06-.13,.1-.22l2.28-4.81,.44,4.77s0,0,0,0l.1,.69c.1-.05,.19-.1,.28-.16h.04c1.57-1.04,2.62-2.82,2.62-4.85Zm-2.32,3.67l-.62-5.62c-.02-.17-.05-.25-.11-.25s-.1,.06-.14,.15l-2.67,5.68h0S7.66,3.48,7.66,3.48c-.04-.08-.07-.15-.14-.15s-.09,.07-.11,.25l-.62,5.62c-.01,.09-.02,.2-.05,.32-.17-.17-.33-.35-.47-.55-1.3-1.71-1.49-4.09-.47-5.98C6.87,.98,9.26-.4,11.53,.23c2.43,.67,4.04,2.89,4.09,5.37-.03,1.52-.64,2.96-1.69,3.99-.03-.13-.05-.26-.06-.38Z"/>
        </g>
        <g>
          <path class="cls-1" d="M1.02,14.92h-.2s-.07-.03-.07-.06v-.78s-.03-.06-.07-.06h-.12s-.07,.03-.07,.06v.78s-.03,.06-.07,.06H.07s-.07,.03-.07,.06,.03,.06,.07,.06H.35s0,0,0,0c-.03,.42-.07,.67-.14,.95-.06,.25-.1,.43-.2,.62,.15-.2,.32-.45,.41-.78l.08-.3v2.6s.02,0,.02,0c.02-.03,.09-.15,.17-.51,.04-.16,.05-.46,.07-.81,0-.32,0-1.06,0-1.46v-.25s.08,.24,.08,.24c.07,.23,.13,.5,.17,.66,0,.03,.01,.06,.02,.08h.02c-.01-.45-.04-.8-.08-.97v-.06s.06,0,.06,0c.04,0,.07-.03,.07-.06h0s-.03-.06-.07-.06Z"/>
          <path class="cls-1" d="M1.28,14.57h.35s.08,.03,.08,.07v.25s.03,.07,.08,.07h.11s.08-.03,.08-.07v-.25s.03-.07,.08-.07h.67s.08,.03,.08,.07v.24s.03,.07,.08,.07h.11s.08-.03,.08-.07v-.24s.03-.07,.08-.07h.37s.08-.03,.08-.07-.03-.07-.08-.07h-.37s-.08-.03-.08-.07v-.26s-.03-.07-.08-.07h-.11s-.08,.03-.08,.07v.26s-.03,.07-.08,.07h-.67s-.08-.03-.08-.07v-.25s-.03-.07-.08-.07h-.11s-.08,.03-.08,.07v.25s-.03,.07-.08,.07h-.35s-.08,.03-.08,.07,.03,.07,.08,.07Z"/>
          <path class="cls-1" d="M3.58,17.37h-1s-.07-.03-.07-.06v-.46s.03-.06,.07-.06h.87s.07-.03,.07-.06h0s-.03-.06-.07-.06h-.13s-.07-.03-.07-.06v-.5s.03-.06,.07-.06h.25s.07-.03,.07-.06v-.03s-.03-.06-.07-.06h-.25s-.07-.03-.07-.06v-.53s.03-.06,.07-.06h.13s.07-.03,.07-.06h0s-.03-.06-.07-.06H1.38s-.07,.03-.07,.06h0s.03,.06,.07,.06h.09s.07,.03,.07,.06v.52s-.03,.06-.07,.06h-.19s-.07,.03-.07,.06v.02s.03,.06,.07,.06h.19s.07,.03,.07,.06v.51s-.03,.06-.07,.06h-.12s-.07,.03-.07,.06,.03,.06,.07,.06h.83s.07,.03,.07,.06v.45s-.03,.06-.07,.06h-.98s-.07,.03-.07,.06h0s.03,.07,.07,.07h.98s.07,.03,.07,.06v.5s.03,.06,.07,.06h.13s.07-.03,.07-.06v-.5s.03-.06,.07-.06h1s.07-.03,.07-.06h0s-.03-.06-.07-.06Zm-1.07-2.05s.03-.06,.07-.06h.33s.07,.03,.07,.06v.53s-.03,.06-.07,.06h-.33s-.07-.03-.07-.06v-.53Zm0,.79s.03-.06,.07-.06h.33s.07,.03,.07,.06v.51s-.03,.06-.07,.06h-.33s-.07-.03-.07-.06v-.51Zm-.26,.51s-.03,.06-.07,.06h-.32s-.07-.03-.07-.06v-.51s.03-.06,.07-.06h.32s.07,.03,.07,.06v.51Zm0-.77s-.03,.06-.07,.06h-.32s-.07-.03-.07-.06v-.53s.03-.06,.07-.06h.32s.07,.03,.07,.06v.53Z"/>
        </g>
        <path class="cls-1" d="M9.18,17.44h-.78s-.07-.03-.07-.06v-.27s.03-.06,.07-.06h.65s.07-.03,.07-.06v-1.47s-.03-.06-.07-.06h-.65s-.07-.03-.07-.06v-.23s.03-.06,.07-.06h.46s.07-.03,.07-.06h0s-.03-.07-.07-.07h-.46s-.07-.03-.07-.06v-.25s-.03-.06-.07-.06h-.12s-.07,.03-.07,.06v.25s-.03,.06-.07,.06h-.55s-.07,.03-.07,.06h0s.03,.06,.07,.06h.55s.07,.03,.07,.06v.23s-.03,.06-.07,.06h-.65s-.07,.03-.07,.06v1.47s.04,.06,.08,.06h.64s.07,.03,.07,.06v.28s-.03,.06-.07,.06h-.79s-.07,.03-.07,.06,.03,.06,.07,.06h.79s.07,.03,.07,.06v.46s.03,.06,.07,.06h.12s.07-.03,.07-.06v-.46s.03-.06,.07-.06h.78s.07-.03,.07-.06-.03-.06-.07-.06Zm-.85-1.78s.03-.06,.07-.06h.39s.07,.03,.07,.06v.43s-.03,.06-.07,.06h-.39s-.07-.03-.07-.06v-.43Zm0,.69s.03-.06,.07-.06h.39s.07,.03,.07,.06v.5s-.03,.06-.07,.06h-.39s-.07-.03-.07-.06v-.5Zm-.26,.49s-.03,.06-.07,.06h-.39s-.07-.03-.07-.06v-.48s.03-.06,.07-.06h.39s.07,.03,.07,.06v.48Zm0-.75s-.03,.06-.07,.06h-.39s-.07-.03-.07-.06v-.43s.03-.06,.07-.06h.39s.07,.03,.07,.06v.43Z"/>
        <path class="cls-1" d="M6.76,15.47h.11s.07-.03,.07-.06v-1.12s0,0,0,0c-.02,.01-.08,.06-.15,.23-.03,.07-.06,.21-.08,.37,0,0,0,0,0,0,0,.24,0,.41,0,.51,0,.03,.03,.06,.07,.06Z"/>
        <path class="cls-1" d="M5.87,15.5h.1s.07-.03,.07-.06c0-.1,0-.27,0-.51,0,0,0,0,0,0-.02-.16-.05-.3-.08-.37-.07-.17-.14-.22-.15-.23h-.01s.01,1.12,.01,1.12c0,.03,.03,.06,.07,.06Z"/>
        <path class="cls-1" d="M7.33,15c.03-.07,.06-.21,.08-.37,0,0,0,0,0,0,0-.07,0-.13,0-.19v-.04h1.52s.07,.03,.07,.06v.77s.01,0,.01,0c.02-.01,.08-.06,.15-.23,.03-.07,.06-.21,.08-.37,0,0,0,0,0,0,0-.18,0-.32,0-.41,0-.03-.03-.06-.07-.06h-.11s-.07,.03-.07,.06v.03s-.03,.06-.07,.06h-1.53v-.04s0-.07,0-.1h-.17s-.07,.03-.07,.06v1.03s0,0,0,0c.02-.01,.08-.06,.15-.23Z"/>
        <path class="cls-1" d="M6.77,17.1v-.11c0-.46,0-1.03,0-1.1v-.04h.15s.07-.03,.07-.07v-.02s-.03-.06-.07-.06h-.37s-.07-.03-.07-.06v-1.46s-.03-.06-.07-.06h-.11s-.07,.03-.07,.06v1.47s-.03,.06-.07,.06h-.4s-.07,.03-.07,.06h0s.03,.07,.07,.07h.18s.07,.03,.07,.06h0s0,0,0,0c0,0,0,.02,0,.03,0,.22-.02,.79-.08,1.21-.05,.35-.26,.76-.36,.93h.01c.05-.04,.19-.19,.33-.39,.21-.29,.27-.68,.29-1.77,0,0,0,0,0,0,0-.02,0-.03,0-.03v-.05s.28,0,.28,0c.04,0,.07,.03,.07,.06v1.5s0,.03-.02,.04l-.04,.04s-.04,.05-.04,.09v.22c0,.06,.08,.09,.12,.04,.06-.07,.23-.36,.23-.36,.08-.14,.11-.24,.14-.31,.1-.24,.11-.41,.11-.44l-.29,.39Z"/>
        <path class="cls-1" d="M14.51,15.8v-.66s.03-.08,.08-.08h.15s.08-.04,.08-.08-.04-.08-.08-.08h-.95s-.08-.04-.08-.08v-.76s-.04-.08-.08-.08h-.12s-.08,.04-.08,.08v.77s-.04,.08-.08,.08h-.87s-.08,.04-.08,.08h0s.04,.08,.08,.08h.09s.08,.04,.08,.08v.59c0,1.48-.32,2.17-.38,2.35l.02,.02c.08-.12,.4-.67,.51-1.01,.13-.39,.15-1.61,.15-1.97v-.04h.4s.08,.04,.08,.08v2.93s.04,.08,.08,.08h.12s.08-.04,.08-.08v-2.94s.04-.08,.08-.08h.42v.04c0,.38,.03,1.63,.15,2.02,.11,.34,.43,.89,.51,1.01l.02-.02c-.06-.18-.38-.82-.38-2.31Z"/>
        <path class="cls-1" d="M11.96,15.9h-.11s-.09,.03-.09,.08c0,.23-.02,.77-.08,1.19-.05,.36-.25,.8-.3,.97h.01c.05-.04,.21-.19,.33-.39,.19-.31,.26-.62,.31-1.76,0-.04-.04-.08-.08-.08Z"/>
        <path class="cls-1" d="M11.71,14.64s0,0,0,0c.08,.05,.15,.09,.23,.14,.06,.03,.13,0,.13-.07v-.16s-.01-.05-.04-.07l-.72-.43-.02,.04s.01,.11,.13,.28c.05,.07,.15,.16,.28,.26Z"/>
        <path class="cls-1" d="M12.07,15.27l-.77-.46-.02,.04s.01,.11,.13,.28c.05,.07,.15,.16,.28,.26,0,0,0,0,0,0,.1,.06,.19,.12,.28,.17,.06,.03,.13,0,.13-.07v-.17s-.01-.05-.04-.07Z"/>
        <path class="cls-1" d="M18.48,14.27h-1.4c-.06,0-.11,.05-.11,.1v3.49c0,.06,.05,.1,.11,.1h1.2s.2,0,.2,0c.06,0,.11-.04,.11-.1v-3.5c0-.06-.05-.1-.11-.1Zm-.56,.29c0-.06,.05-.1,.11-.1h.17c.06,0,.11,.04,.11,.1v1.43c0,.06-.05,.1-.11,.1h-.17c-.06,0-.11-.04-.11-.1v-1.43Zm-.27,3.12c0,.06-.05,.1-.11,.1h-.2c-.06,0-.11-.04-.11-.1v-1.33c0-.06,.05-.1,.11-.1h.2c.06,0,.11,.04,.11,.1v1.33Zm0-1.69c0,.06-.05,.1-.11,.1h-.2c-.06,0-.11-.04-.11-.1v-1.43c0-.06,.05-.1,.11-.1h.2c.06,0,.11,.04,.11,.1v1.43Zm.66,1.68c0,.06-.05,.1-.11,.1h-.18c-.06,0-.11-.04-.11-.1v-1.33c0-.06,.05-.1,.11-.1h.18c.06,0,.11,.04,.11,.1v1.33Z"/>
        <path class="cls-1" d="M20.01,16.81s.03-.04,.03-.07v-.12c0-.09-.12-.14-.18-.07-.07,.07-.15,.15-.25,.24-.23,.22-.73,.57-.85,.65h0c.07,0,.27-.02,.65-.2,.28-.13,.4-.23,.6-.44Z"/>
        <path class="cls-1" d="M19.16,16.02c.07,.14,.14,.25,.19,.3,.13,.12,.2,.14,.22,.14l.02-.02-.34-.96s-.06-.07-.11-.07h-.06c-.07,0-.12,.07-.1,.13,.04,.13,.09,.28,.16,.46,0,0,0,0,0,0Z"/>
        <path class="cls-1" d="M20.44,14.57h-1.28s0-.06,0-.06c.03-.16,.04-.29,.05-.39,0-.06-.04-.11-.1-.11h-.09c-.06,0-.11,.04-.11,.09,0,.14,0,.36-.02,.54-.02,.24-.14,.69-.18,.87h.03c.04-.06,.25-.35,.37-.75v-.03h1.06c.06,0,.11,.04,.11,.1v2.38s0,0,0,0c-.03,.44-.2,.69-.48,.69h-.52c-.06,0-.11,.04-.11,.1,0,.06,.05,.1,.11,.1h.52c.2,0,.38-.09,.52-.26,.14-.17,.22-.4,.22-.64v-2.55c0-.06-.05-.1-.11-.1Z"/>
      </g>
    </g>
  </g>
</svg>