<?xml version="1.0" encoding="UTF-8"?>
<svg id="_圖層_2" data-name="圖層 2" xmlns="http://www.w3.org/2000/svg" viewBox="0 0 19.31 24.6">
  <defs>
    <style>
      .cls-1 {
        opacity: .7;
      }

      .cls-2 {
        fill: #fff;
      }
    </style>
  </defs>
  <g id="_圖層_1-2" data-name="圖層 1">
    <polygon class="cls-2" points="18.39 21.62 18.39 24.6 .6 24.6 .6 21.51 1.48 21.51 1.48 23.71 17.5 23.71 17.5 21.62 18.39 21.62"/>
    <polygon class="cls-2" points="17.96 0 17.96 2.63 17.07 2.63 17.07 .89 1.06 .89 1.06 2.72 .17 2.72 .17 0 17.96 0"/>
    <g class="cls-1">
      <path class="cls-2" d="M1.61,5.84c.24-.14,.54-.21,.89-.21,.22,0,.42,.03,.62,.09,.19,.06,.36,.15,.5,.28,.14,.13,.25,.29,.34,.48,.08,.19,.12,.42,.12,.7,0,.2-.02,.38-.07,.55s-.11,.34-.2,.5c-.09,.16-.19,.33-.32,.49-.13,.17-.28,.34-.46,.53-.11,.11-.23,.24-.37,.38-.14,.15-.28,.3-.42,.45-.14,.15-.28,.31-.4,.46-.13,.15-.24,.29-.32,.42h.79c.4,0,.75,0,1.06-.02,.31-.01,.58-.03,.81-.05-.03,.13-.04,.24-.04,.32,0,.08,.01,.18,.04,.3-.3-.01-.6-.02-.89-.02H1.5c-.3,0-.6,0-.9,.02v-.1c.39-.4,.73-.75,1.01-1.06,.29-.31,.53-.58,.73-.82,.2-.24,.36-.47,.49-.66,.12-.2,.22-.39,.3-.56,.07-.18,.12-.35,.15-.52s.04-.36,.04-.55c0-.43-.09-.75-.28-.96-.19-.21-.4-.31-.65-.31-.18,0-.33,.03-.46,.1s-.23,.15-.32,.24c-.08,.1-.15,.2-.19,.31s-.07,.21-.09,.3l-.06,.02-.29-.43c.18-.3,.39-.52,.63-.65Z"/>
      <path class="cls-2" d="M5.54,7.47c.07-.36,.18-.68,.33-.95s.35-.49,.6-.65c.25-.16,.55-.24,.92-.24,.4,0,.73,.08,.98,.24,.25,.16,.45,.38,.6,.65s.24,.59,.3,.95c.05,.36,.08,.75,.08,1.17s-.04,.78-.12,1.14c-.08,.36-.2,.68-.35,.95-.16,.27-.36,.49-.6,.65s-.54,.24-.87,.24c-.4,0-.73-.08-.98-.23-.25-.15-.45-.36-.6-.63-.15-.27-.24-.59-.3-.95-.05-.36-.08-.75-.08-1.17s.03-.8,.1-1.17Zm.65,2.24c.04,.33,.11,.62,.21,.86,.1,.24,.23,.44,.39,.58,.16,.14,.36,.21,.6,.21s.44-.07,.6-.21c.16-.14,.29-.33,.39-.58,.1-.24,.17-.53,.21-.86,.04-.33,.06-.69,.06-1.07s-.02-.74-.06-1.07c-.04-.33-.11-.62-.21-.86-.1-.24-.23-.44-.39-.58-.16-.14-.36-.21-.6-.21s-.44,.06-.6,.19c-.16,.13-.29,.31-.39,.55-.1,.24-.17,.52-.21,.86s-.06,.71-.06,1.12c0,.38,.02,.74,.06,1.07Z"/>
      <path class="cls-2" d="M10.87,5.84c.24-.14,.54-.21,.89-.21,.22,0,.42,.03,.62,.09,.19,.06,.36,.15,.5,.28,.14,.13,.25,.29,.34,.48,.08,.19,.12,.42,.12,.7,0,.2-.02,.38-.07,.55s-.11,.34-.2,.5c-.09,.16-.19,.33-.32,.49-.13,.17-.28,.34-.46,.53-.11,.11-.23,.24-.37,.38-.14,.15-.28,.3-.42,.45-.14,.15-.28,.31-.4,.46-.13,.15-.24,.29-.32,.42h.79c.4,0,.75,0,1.06-.02,.31-.01,.58-.03,.81-.05-.03,.13-.04,.24-.04,.32,0,.08,.01,.18,.04,.3-.3-.01-.6-.02-.89-.02h-1.79c-.3,0-.6,0-.9,.02v-.1c.39-.4,.73-.75,1.01-1.06,.29-.31,.53-.58,.73-.82,.2-.24,.36-.47,.49-.66,.12-.2,.22-.39,.3-.56,.07-.18,.12-.35,.15-.52s.04-.36,.04-.55c0-.43-.09-.75-.28-.96-.19-.21-.4-.31-.65-.31-.18,0-.33,.03-.46,.1s-.23,.15-.32,.24c-.08,.1-.15,.2-.19,.31s-.07,.21-.09,.3l-.06,.02-.29-.43c.18-.3,.39-.52,.63-.65Z"/>
      <path class="cls-2" d="M15.27,8.65c.26-.39,.52-.77,.77-1.14,.25-.37,.47-.71,.68-1.03,.21-.32,.38-.59,.51-.81,.11,.03,.21,.04,.28,.04s.17-.01,.27-.04c-.02,.38-.03,.82-.04,1.3-.01,.48-.02,.97-.02,1.48v.96c.16,0,.31,0,.46-.02,.14-.01,.26-.03,.36-.05-.03,.12-.04,.21-.04,.29s.01,.17,.04,.29c-.09-.02-.21-.03-.36-.04-.15,0-.3-.01-.46-.01v.37c0,.23,0,.46,.02,.7,.01,.24,.02,.43,.03,.57-.11-.01-.23-.02-.37-.02s-.25,0-.37,.02c.01-.15,.02-.35,.04-.58,.02-.24,.03-.47,.03-.69v-.37c-.13,0-.31,0-.55,0s-.49,0-.76,.01c-.26,0-.52,.01-.75,.02-.24,0-.42,.02-.53,.02v-.16c.24-.36,.5-.74,.76-1.13Zm1.82-2.16c-.12,.17-.26,.39-.44,.65-.18,.26-.36,.54-.55,.82-.19,.28-.37,.55-.54,.82s-.3,.48-.4,.65h1.94v-2.93h-.02Z"/>
    </g>
    <g>
      <path class="cls-2" d="M.76,13.84H.1s-.01,0-.02,0c0,0-.02,0-.02,0-.02,0-.03-.03-.03-.05,0-.02,0-.04,.03-.05,0,0,.01,0,.02,0,0,0,.01,0,.02,0H.76v-.53s0-.02,0-.03c0-.02,0-.04,.02-.06,.02-.04,.06-.07,.12-.07s.1,.02,.12,.07c0,.02,.01,.04,.02,.06,0,0,0,.02,0,.03v2.23s0,.02,0,.03c0,.02,0,.04-.02,.06-.02,.04-.06,.07-.12,.07s-.1-.02-.12-.07c0-.02-.01-.04-.02-.06,0,0,0-.02,0-.03v-.58l-.15,.08c-.07,.04-.14,.08-.2,.11-.07,.04-.14,.07-.19,.09-.06,.03-.1,.04-.12,.04-.03,0-.06-.02-.08-.05-.02-.03-.02-.05-.02-.09,0-.04,.01-.07,.04-.09,.01,0,.03-.01,.04-.02,0,0,.02,0,.03,0l.24-.07c.06-.02,.12-.04,.18-.06,.05-.02,.09-.03,.14-.05l.09-.04v-.85Zm.86,1.43c0,.09,.04,.13,.12,.13h.21c.05,0,.09-.03,.12-.09,0-.02,.02-.05,.03-.08l.03-.17s.01-.05,.02-.06c.02-.04,.06-.05,.1-.05,.1,0,.15,.04,.15,.13v.05s-.01,.05-.02,.08c-.02,.08-.05,.15-.08,.2-.02,.04-.05,.06-.08,.08-.04,.02-.1,.03-.17,.03h-.42c-.19,0-.29-.09-.29-.27v-2.07s0-.02,0-.03c0-.02,0-.04,.02-.06,.02-.04,.06-.06,.12-.06s.1,.02,.12,.06c0,.02,.01,.04,.02,.06,0,0,0,.02,0,.03v.87s.01,0,.02-.01l.06-.04s.07-.06,.11-.09c.04-.04,.09-.08,.13-.12,.05-.05,.1-.1,.14-.15,.06-.07,.11-.11,.15-.11,.1,0,.15,.05,.15,.16,0,.06-.06,.12-.17,.19-.05,.04-.11,.07-.17,.1-.05,.03-.11,.06-.16,.09l-.25,.12v1.06Z"/>
      <path class="cls-2" d="M3.89,13.19s0-.02,0-.03c0-.02,0-.05,.02-.06,.02-.05,.06-.07,.12-.07s.1,.02,.12,.07c0,.02,.01,.04,.02,.06,0,0,0,.02,0,.03v.82h.97s.01,0,.02,0c0,0,.02,0,.02,0,.02,.01,.03,.03,.03,.05,0,.03,0,.04-.03,.05,0,0-.01,0-.02,0,0,0-.01,0-.02,0h-.97v1.22h.81s.01,0,.02,0c0,0,.02,0,.02,0,.02,.01,.03,.03,.03,.05,0,.03,0,.04-.03,.05,0,0-.01,0-.02,0,0,0-.01,0-.02,0h-1.9s-.01,0-.02,0c0,0-.02,0-.02,0-.02-.01-.03-.03-.03-.05,0-.03,0-.04,.03-.05,0,0,.01,0,.02,0,0,0,.01,0,.02,0h.81v-1.22h-.97s-.02,0-.02,0c0,0-.02,0-.02,0-.02-.01-.02-.03-.02-.05s0-.04,.03-.05c0,0,.01,0,.02,0,0,0,.01,0,.02,0h.97v-.82Z"/>
      <path class="cls-2" d="M6.37,15.42s0,.02,0,.03c0,.02,0,.05-.01,.06-.02,.05-.06,.07-.12,.07s-.1-.02-.12-.07c0-.02-.01-.04-.02-.06,0,0,0-.02,0-.03v-.93c-.04,.07-.08,.15-.13,.21-.04,.06-.08,.11-.12,.16-.08,.1-.14,.14-.16,.14-.04,0-.06-.02-.06-.06,0-.01,0-.03,.03-.06,.1-.13,.18-.27,.25-.42,.08-.19,.14-.39,.18-.59h-.35s-.02,0-.02,0c0,0-.02,0-.02,0-.02-.01-.03-.03-.03-.05s0-.04,.03-.05c0,0,.01,0,.02,0,0,0,.01,0,.02,0h.36v-.42c-.06,0-.13,.01-.22,.01-.07,0-.12,0-.14,0-.05,0-.07-.02-.07-.06,0-.02,0-.04,.03-.05h.02s.02-.01,.03-.01c0,0,.01,0,.02,0l.15-.02c.06,0,.12-.02,.16-.02,.11-.02,.21-.05,.31-.08l.08-.03h.05s.03-.02,.03-.02c.08,0,.12,.04,.12,.13,0,.04-.02,.07-.06,.09-.04,.02-.12,.03-.25,.05v.45h.27s.02,0,.02,0c0,0,.02,0,.02,0,.02,.01,.03,.03,.03,.05,0,.03,0,.04-.03,.05,0,0-.01,0-.02,0,0,0-.01,0-.02,0h-.27v.02s.02,.07,.03,.11c.02,.06,.04,.11,.06,.17,.03,.07,.06,.14,.1,.2,.04,.08,.09,.15,.14,.21,0,0,.01,.01,.02,.02,0,0,0,.02,0,.03,0,.04-.02,.06-.06,.06-.02,0-.04-.01-.07-.04-.02-.02-.05-.06-.08-.1-.02-.03-.05-.07-.08-.11l-.05-.08v1.05Zm1.35,0s0,.02,0,.03c0,.02,0,.04-.01,.06-.02,.05-.06,.07-.12,.07s-.1-.02-.12-.07c0-.02-.01-.04-.02-.06,0,0,0-.02,0-.03v-.72l-.68,.22s-.03,0-.04,0c-.04,0-.05-.02-.05-.06,0-.04,.02-.06,.06-.07l.72-.23v-1.38s0-.02,0-.03c0-.02,0-.04,.01-.06,.02-.05,.06-.07,.12-.07,.06,0,.1,.02,.12,.07,0,.02,.01,.04,.02,.06,0,0,0,.02,0,.03v1.3l.24-.08h.02s.01,0,.02,0c.03,0,.05,.02,.05,.06,0,.03-.02,.06-.05,.07l-.27,.09v.81Zm-.82-1.57s.04,.02,.07,.04c.02,.01,.04,.03,.07,.05l.12,.09s.05,.05,.07,.07c.05,.05,.08,.1,.08,.14,0,.11-.05,.16-.15,.16-.05,0-.09-.03-.12-.1-.05-.11-.12-.23-.23-.35,0,0-.01-.02-.01-.02,0,0,0-.02,0-.03,0-.04,.02-.06,.06-.06,0,0,.02,0,.05,.02Zm.05-.64l.06,.04,.06,.04s.03,.02,.05,.03c.09,.06,.15,.11,.18,.15,.02,.03,.03,.06,.03,.09,0,.1-.05,.15-.14,.15-.03,0-.05,0-.06-.02-.02-.02-.05-.06-.1-.14-.02-.04-.05-.08-.08-.12l-.1-.13s0-.02,0-.02c0-.04,.02-.06,.06-.06,0,0,.02,0,.04,.01Z"/>
      <path class="cls-2" d="M10.47,14h.31s.01,0,.02,0c0,0,.02,0,.02,0,.02,.01,.03,.03,.03,.05,0,.01,0,.03,0,.04,0,0-.01,.01-.02,.02,0,0-.02,0-.02,0,0,0-.01,0-.02,0h-.31v.57h.2s.02,0,.02,0c0,0,.02,0,.02,0,.02,.01,.03,.03,.03,.05s0,.04-.03,.05c0,0-.02,0-.02,0s-.01,0-.02,0h-2.01s-.02,0-.02,0c0,0-.02,0-.02,0-.02-.01-.03-.03-.03-.05s0-.04,.03-.05c0,0,.01,0,.02,0,0,0,.01,0,.02,0h.2v-.57h-.3s-.01,0-.02,0c0,0-.02,0-.02,0-.02,0-.03-.03-.03-.05,0-.02,0-.04,.02-.05,0,0,.01,0,.02,0,0,0,.01,0,.02,0h.3v-.37l-.06,.06s-.06,.05-.08,.07c-.03,.03-.06,.05-.08,.06-.03,.02-.05,.03-.06,.03-.04,0-.06-.02-.06-.06,0-.02,.01-.04,.03-.06l.06-.07s.06-.08,.09-.12c.04-.06,.07-.11,.11-.17,.04-.07,.07-.15,.1-.22l.02-.04s.02-.03,.03-.04c.02-.03,.06-.04,.1-.04s.08,.01,.12,.04c.04,.03,.06,.06,.06,.1,0,.04-.02,.09-.07,.15h1.49s.01,0,.02,0c0,0,.02,0,.02,0,.02,.01,.03,.03,.03,.05,0,.03,0,.04-.03,.05,0,0-.01,0-.02,0,0,0-.01,0-.02,0h-.15v.56Zm-1.91,1.53s-.05-.07-.05-.11c0-.03,0-.05,.02-.07s.06-.06,.12-.13l.07-.07c.04-.05,.09-.12,.14-.19,.02-.03,.04-.04,.05-.04,.04,0,.06,.02,.06,.06,0,0,0,.02,0,.03l-.02,.07s-.02,.08-.04,.12c-.02,.05-.04,.11-.07,.16-.06,.13-.12,.2-.18,.2-.03,0-.07-.01-.1-.04Zm.75-2.1h-.21v.56h.21v-.56Zm0,.69h-.21v.57h.21v-.57Zm.12,1.43s-.08-.02-.1-.06c0-.02-.02-.04-.02-.07l-.02-.11s-.02-.09-.03-.14c0-.02,0-.04-.02-.06l-.02-.08s0-.02,0-.02c0-.04,.02-.06,.06-.06,.02,0,.04,.02,.08,.06,.03,.04,.06,.08,.1,.13,.09,.13,.13,.22,.13,.27,0,.09-.05,.14-.15,.14Zm.34-2.12h-.22v.56h.22v-.56Zm0,.69h-.22v.57h.22v-.57Zm.37,1.38s-.06,.04-.1,.04c-.06,0-.11-.06-.14-.19-.03-.11-.06-.2-.11-.29v-.02s-.02-.02-.02-.02c0-.04,.02-.06,.06-.06,.01,0,.04,.02,.08,.05,.04,.04,.08,.08,.12,.13,.05,.05,.08,.1,.11,.15,.03,.05,.05,.09,.05,.12,0,.04-.02,.08-.05,.11Zm.08-2.07h-.21v.56h.21v-.56Zm0,.69h-.21v.57h.21v-.57Zm.19,.82s.05,.02,.09,.06c.04,.04,.09,.08,.13,.13,.05,.06,.09,.11,.12,.15,.04,.05,.05,.09,.05,.12,0,.11-.05,.16-.16,.16-.06,0-.11-.05-.14-.16-.04-.13-.09-.25-.14-.33-.01-.02-.02-.04-.02-.05,0-.04,.02-.06,.06-.06Z"/>
      <path class="cls-2" d="M11.63,13.18s0-.02,0-.03c0-.02,0-.04,.02-.06,.02-.04,.06-.07,.12-.07,.06,0,.1,.02,.12,.07,0,.02,.01,.04,.02,.06,0,0,0,.02,0,.02v.59h.2s.01,0,.02,0c0,0,.02,0,.02,0,.02,.01,.03,.03,.03,.05s0,.04-.03,.05c0,0-.02,0-.02,0s-.01,0-.02,0h-.2v.95s.01,0,.03-.01c0,0,.02,0,.03-.01l.05-.02s0,0,0,0l.07-.03s.02,0,.03,0c.04,0,.06,.02,.06,.06,0,.03-.02,.05-.05,.07-.03,.02-.08,.05-.15,.08l-.22,.12c-.09,.05-.16,.08-.22,.11-.03,.02-.06,.03-.08,.04-.02,0-.04,.01-.05,.01-.07,0-.11-.04-.11-.13,0-.05,.02-.09,.06-.11,.02,0,.06-.02,.13-.04l.13-.04v-1.04h-.24s-.02,0-.02,0c0,0-.02,0-.02,0-.02-.01-.03-.03-.03-.05,0-.03,0-.04,.03-.05,0,0,.01,0,.02,0,0,0,.01,0,.02,0h.24v-.59Zm2,2.21s.01,0,.02,0,.02,0,.02,0c.02,0,.03,.03,.03,.05,0,.02,0,.04-.03,.05,0,0-.02,0-.02,0,0,0-.01,0-.02,0h-.52c-.21,0-.36-.03-.47-.09-.1-.05-.18-.14-.24-.26-.04,.06-.09,.12-.16,.18-.05,.05-.11,.09-.17,.13-.05,.03-.1,.05-.15,.07-.04,.02-.07,.02-.08,.02-.04,0-.06-.02-.06-.06,0-.03,.02-.05,.05-.07,.18-.1,.3-.22,.36-.37,.02-.06,.04-.13,.06-.21,0-.03,0-.07,.01-.11v-.12c.01-.1,.06-.15,.14-.15,.09,0,.14,.05,.14,.15,0,.08-.01,.16-.03,.24,.05,.2,.13,.34,.25,.42v-.94h-.57s-.01,0-.02,0c0,0-.02,0-.02,0-.02,0-.03-.03-.03-.05,0-.03,0-.04,.03-.05,0,0,.01,0,.02,0,0,0,.01,0,.02,0h1.41s.02,0,.02,0c0,0,.02,0,.02,0,.02,.01,.03,.03,.03,.05,0,.03,0,.04-.03,.05,0,0-.02,0-.02,0s-.01,0-.02,0h-.56v.36h.44s.02,0,.02,0c0,0,.02,0,.02,0,.02,.01,.03,.03,.03,.05,0,.03,0,.04-.03,.05,0,0-.01,0-.02,0,0,0-.01,0-.02,0h-.44v.54s.06,0,.09,0c.01,0,.03,0,.04,0h.45Zm-.11-1.57c0,.15-.08,.22-.23,.22h-.77c-.16,0-.23-.07-.23-.22v-.5c0-.15,.08-.22,.23-.22h.77c.16,0,.23,.07,.23,.22v.5Zm-.27-.32v-.17c0-.07-.03-.11-.1-.11h-.49c-.07,0-.1,.04-.1,.11v.17h.69Zm-.69,.12v.18c0,.07,.03,.11,.1,.11h.49c.07,0,.1-.04,.1-.11v-.18h-.69Z"/>
      <path class="cls-2" d="M14.21,13.77s-.02,0-.02,0c0,0-.02,0-.02,0-.02,0-.03-.03-.03-.05,0-.03,0-.04,.03-.05,0,0,.01,0,.02,0,0,0,.01,0,.02,0h.69c.07,0,.12,.02,.16,.06,.02,.03,.04,.07,.04,.11,0,.03,0,.08-.02,.14-.02,.08-.04,.16-.06,.24-.03,.1-.07,.2-.12,.3-.05,.11-.12,.22-.18,.31-.06,.08-.12,.15-.18,.22-.05,.06-.11,.11-.16,.16-.1,.09-.17,.13-.2,.13-.04,0-.06-.02-.06-.06,0-.02,.01-.04,.04-.06,.12-.11,.23-.24,.33-.39,.08-.13,.14-.26,.2-.42,.02-.06,.04-.13,.06-.19,.01-.06,.03-.11,.04-.16,0-.04,.02-.08,.02-.12,0-.03,0-.05,0-.07,0-.04-.02-.06-.06-.06h-.53Zm1.24,1.54c0,.1-.02,.16-.08,.2-.04,.03-.11,.05-.2,.05h-.35s-.02,0-.02,0c-.01,0-.02,0-.02-.02,0,0-.01-.02-.01-.04s0-.03,.01-.04c0,0,.01-.02,.02-.02,0,0,.02,0,.02,0h.21c.09,0,.13-.05,.13-.14v-2.1s0-.02,0-.03c0-.02,0-.05,.02-.06,.02-.05,.06-.07,.12-.07s.1,.02,.12,.07c0,.02,.01,.04,.02,.06,0,0,0,.02,0,.03v.28c.03,.13,.05,.23,.08,.32,.01,.03,.02,.07,.04,.11l.03,.08s0,.02,0,.03c.08-.06,.16-.13,.24-.21,.09-.09,.16-.17,.22-.26,.05-.07,.1-.11,.15-.11,.04,0,.08,.02,.11,.06s.05,.08,.05,.12c0,.03-.01,.06-.03,.09-.03,.04-.1,.09-.2,.16-.09,.06-.17,.11-.24,.15l-.24,.13c.2,.44,.47,.78,.82,1.04,.03,.02,.04,.04,.04,.06,0,.04-.02,.07-.06,.07,0,0-.03-.01-.07-.04-.04-.02-.09-.06-.14-.09-.06-.04-.12-.09-.18-.14-.07-.06-.13-.11-.18-.16-.06-.06-.11-.12-.16-.18-.04-.05-.09-.11-.12-.17-.03-.05-.06-.1-.09-.15l-.03-.06s-.02-.03-.03-.05v1.04Z"/>
      <path class="cls-2" d="M17.14,14.19c0-.1,.02-.17,.07-.21,.04-.03,.11-.05,.2-.05h1.83s.02,0,.02,0c0,0,.02,0,.02,0,.02,.01,.03,.03,.03,.05,0,.03,0,.04-.03,.05,0,0-.01,0-.02,0,0,0-.01,0-.02,0h-1.7c-.08,0-.12,.04-.12,.13v.25c0,.2-.02,.37-.05,.51-.03,.13-.09,.25-.16,.37-.03,.05-.07,.1-.11,.15-.05,.06-.09,.09-.11,.09-.04,0-.06-.02-.06-.06,0,0,0-.02,.01-.03l.07-.11c.06-.1,.1-.24,.12-.4,0-.06,.01-.14,.02-.21,0-.06,0-.13,0-.21v-.36Zm.87-1s0-.02,0-.03c0-.02,0-.05,.02-.06,.02-.05,.06-.08,.12-.08s.1,.03,.12,.08c0,.02,.01,.04,.02,.06,0,0,0,.02,0,.02v.43h.44c.07,0,.11-.04,.11-.12v-.21c0-.05,0-.09,.03-.12,.02-.04,.06-.06,.11-.06s.09,.02,.11,.06c.02,.03,.03,.07,.03,.12v.21c0,.16-.08,.25-.25,.25h-1.42c-.17,0-.25-.08-.25-.25v-.22s0-.02,0-.03c0-.02,0-.05,.02-.06,.02-.05,.06-.07,.12-.07,.06,0,.1,.02,.12,.07,0,.02,.01,.04,.02,.06,0,0,0,.02,0,.03v.23c0,.08,.04,.12,.11,.12h.43v-.43Zm.44,1.65h.77s.02,0,.02,0c0,0,.02,0,.02,0,.02,.01,.03,.03,.03,.05s0,.04-.03,.05c0,0-.01,0-.02,0,0,0-.01,0-.02,0h-.77v.44s0,.02,0,.03c0,.02,0,.05-.02,.06-.02,.05-.06,.08-.12,.08s-.1-.02-.12-.07c0-.02-.01-.04-.02-.07,0,0,0-.02,0-.03v-.44h-.65s-.02,0-.02,0c0,0-.02,0-.02,0-.02-.01-.03-.03-.03-.05,0-.03,0-.04,.03-.05,0,0,.02,0,.02,0s.01,0,.02,0h.65v-.44h-.51s-.01,0-.02,0c0,0-.02,0-.02,0-.02,0-.03-.03-.03-.05s0-.04,.03-.05c0,0,.01,0,.02,0,0,0,.01,0,.02,0h1.32s.02,0,.02,0c0,0,.02,0,.02,0,.02,.01,.03,.03,.03,.05,0,.03,0,.04-.03,.05,0,0-.01,0-.02,0,0,0-.01,0-.02,0h-.53v.44Z"/>
    </g>
    <g>
      <path d="M2.3,19.17h-.23v-1.89s.02-.06,.07-.06h.59c.06,0,.08,.02,.08,.06v1.66s-.04,.07-.08,.07h-.43v.16Zm.03-1.76s-.03,0-.03,.03v.58h.28v-.58s-.01-.03-.04-.03h-.21Zm.25,.8h-.28v.59h.23s.05-.02,.05-.05v-.55Zm.33,.19v-.2h1.06v-.23h-1.06v-.19h.67v-.26h-.6v-.19h.6v-.22h.23v.22h.6v.19h-.6v.26h.66v.19h-.27v.23h.25v.2h-.25v.63c0,.09-.04,.16-.13,.2-.1,.06-.29,.05-.57-.02v-.21c.1,.03,.17,.05,.21,.05,.05,0,.09,.01,.14,.02,.03,0,.07-.01,.09-.04,.01-.02,.02-.04,.02-.06v-.58h-1.06Zm.35,.06c.1,.11,.19,.25,.27,.41l-.21,.09c-.09-.17-.18-.31-.26-.41l.2-.1Z"/>
      <path d="M6.44,18.34l-.23-.08c.15-.18,.27-.39,.38-.63h0c.07-.16,.12-.32,.14-.5l.24,.03c-.04,.18-.09,.34-.14,.49v1.61h-.24v-1.13c-.05,.08-.1,.16-.15,.22Zm.54-.38l-.03-.2,.62-.04c-.02-.19-.04-.38-.04-.59h.23c0,.21,.01,.4,.03,.58l.85-.05v.2s-.82,.05-.82,.05c.08,.44,.23,.76,.44,.96,.07,.08,.12,.12,.15,.12,.02,0,.03-.02,.03-.04,.02-.07,.04-.18,.04-.34l.22,.05c0,.29-.05,.47-.14,.54-.03,.02-.07,.04-.09,.05-.08,0-.16-.04-.24-.11-.02,0-.04-.02-.04-.04-.31-.28-.5-.67-.59-1.17l-.62,.03Zm1.11-.84c.16,.07,.34,.18,.54,.32l-.14,.16c-.2-.15-.38-.26-.52-.32l.13-.17Z"/>
      <path d="M10.71,17.42h-.2v-.2h2.32v.2h-1.88v.32h1.62s.07,.02,.07,.06v.78s-.02,.07-.07,.07h-1.62v.35h1.92v.2h-2.41v-.2h.24v-1.59Zm.24,.51v.52h1.43s.02-.01,.02-.02v-.49s0-.02-.02-.02h-1.43Z"/>
      <path d="M15.14,17.39c-.08,.08-.19,.16-.33,.25l-.2-.12c.24-.13,.39-.25,.45-.36h.21s-.01,.03-.01,.04c.1,.07,.22,.14,.35,.19l-.16,.15c-.1-.06-.2-.13-.28-.2-.01,.01-.02,.03-.03,.04Zm-.17,.87h-.3v-.18h.3v-.23h-.23v-.18h.69v.18h-.25v.23h.28v.18h-.28v.66c.11-.02,.19-.04,.25-.06l.07,.17c-.19,.07-.46,.13-.82,.18l-.06-.18c.11-.02,.22-.04,.35-.06v-.7Zm-.13,.15c.04,.16,.06,.31,.06,.43h-.18c-.01-.15-.04-.3-.06-.42h.18Zm.62,0c-.01,.11-.03,.23-.06,.34l-.17-.04c.02-.08,.04-.19,.06-.33l.17,.03Zm.79,.3v-.15h.46v-.12h-1.17v-.16h1.56v.16h-.19v.12h.19v.15h-.19v.34c0,.08-.05,.14-.12,.18-.07,.04-.2,.04-.39,0v-.18c.15,.03,.25,.03,.27,0,.01-.01,.02-.03,.02-.05v-.3h-.46Zm.58-.75h-.42v.09h.59v.14h-1.41v-.14h.61v-.09h-.55v-.13h1.18v.08l.05-.1s0-.03,0-.04c0,0,0,0-.01,0h-1.31v-.16h1.47l.1,.07c-.04,.1-.09,.2-.14,.3-.06-.02-.12-.04-.17-.05v.04Zm-1.06,1.24h-.2v-.66s.01-.03,.03-.03h.56s.04,.02,.04,.04v.65h-.2v-.09h-.23v.09Zm.44-1.87h-.62v-.14h.62v-.08h.21v.08h.64v.14h-.64v.09h.56v.13h-1.3v-.13h.54v-.09Zm-.21,1.63v-.26s-.01-.03-.02-.03h-.18s-.03,0-.03,.03v.26h.23Zm.39-.22c.08,.04,.15,.09,.22,.16l-.13,.12c-.09-.07-.16-.13-.21-.16l.12-.12Z"/>
    </g>
  </g>
</svg>