<?xml version="1.0" encoding="UTF-8"?>
<svg id="_圖層_2" data-name="圖層 2" xmlns="http://www.w3.org/2000/svg" viewBox="0 0 30.8 12.98">
  <defs>
    <style>
      .cls-1 {
        fill: #000;
      }

      .cls-1, .cls-2 {
        stroke-width: 0px;
      }

      .cls-3 {
        opacity: .22;
      }

      .cls-2 {
        fill: #fff;
      }
    </style>
  </defs>
  <g id="_圖層_7" data-name="圖層 7">
    <g>
      <g class="cls-3">
        <path class="cls-2" d="M3.66.31c.36-.21.8-.31,1.31-.31.32,0,.62.04.91.13.29.09.53.22.74.41.21.19.37.42.5.71.12.28.18.63.18,1.03,0,.29-.03.56-.1.82s-.16.5-.29.74c-.13.24-.29.48-.48.73-.19.24-.42.5-.68.78-.16.16-.34.35-.54.57-.2.21-.41.44-.62.66-.21.23-.41.45-.6.68-.19.22-.35.43-.48.62h1.17c.59,0,1.11-.01,1.57-.03.45-.02.85-.05,1.2-.07-.04.19-.06.35-.06.48,0,.12.02.27.06.44-.44-.02-.88-.03-1.31-.03h-2.63c-.44,0-.88,0-1.32.03v-.15c.57-.59,1.07-1.11,1.49-1.56.42-.45.78-.86,1.07-1.22.29-.36.53-.69.72-.98.18-.29.33-.57.44-.83.11-.26.18-.52.21-.77s.06-.53.06-.82c0-.64-.14-1.11-.41-1.41-.27-.3-.6-.46-.96-.46-.26,0-.49.05-.68.15s-.34.22-.47.36c-.12.14-.22.29-.28.46s-.11.31-.13.44l-.09.03-.43-.63c.26-.44.57-.76.93-.97Z"/>
        <path class="cls-2" d="M9.45,2.71c.1-.54.26-1,.48-1.4s.52-.72.89-.95c.37-.24.82-.35,1.35-.35.59,0,1.07.12,1.44.35.37.24.66.55.88.95s.36.87.44,1.4c.08.54.12,1.11.12,1.72s-.06,1.15-.17,1.69c-.11.53-.29,1-.52,1.4-.23.4-.53.72-.89.95s-.79.35-1.29.35c-.59,0-1.07-.11-1.44-.33-.37-.22-.66-.53-.88-.93-.21-.4-.36-.87-.44-1.4-.08-.54-.12-1.11-.12-1.72s.05-1.18.15-1.72ZM10.4,6.01c.06.49.17.91.31,1.27.15.36.34.64.58.85.24.21.53.31.88.31s.65-.1.88-.31c.24-.21.43-.49.58-.85.15-.36.25-.78.31-1.27.06-.49.09-1.02.09-1.58s-.03-1.09-.09-1.58c-.06-.49-.17-.91-.31-1.27-.15-.36-.34-.64-.58-.85-.24-.21-.53-.31-.88-.31s-.65.09-.88.28c-.24.19-.43.46-.58.81-.15.35-.25.77-.31,1.27s-.09,1.04-.09,1.65c0,.57.03,1.09.09,1.58Z"/>
        <path class="cls-2" d="M17.31.31c.36-.21.8-.31,1.31-.31.32,0,.62.04.91.13.29.09.53.22.74.41.21.19.37.42.5.71.12.28.18.63.18,1.03,0,.29-.03.56-.1.82s-.16.5-.29.74c-.13.24-.29.48-.48.73-.19.24-.42.5-.68.78-.16.16-.34.35-.54.57-.2.21-.41.44-.62.66-.21.23-.41.45-.6.68-.19.22-.35.43-.48.62h1.17c.59,0,1.11-.01,1.57-.03.45-.02.85-.05,1.2-.07-.04.19-.06.35-.06.48,0,.12.02.27.06.44-.44-.02-.88-.03-1.31-.03h-2.63c-.44,0-.88,0-1.32.03v-.15c.57-.59,1.07-1.11,1.49-1.56.42-.45.78-.86,1.07-1.22.29-.36.53-.69.72-.98.18-.29.33-.57.44-.83.11-.26.18-.52.21-.77s.06-.53.06-.82c0-.64-.14-1.11-.41-1.41-.27-.3-.6-.46-.96-.46-.26,0-.49.05-.68.15s-.34.22-.47.36c-.12.14-.22.29-.28.46s-.11.31-.13.44l-.09.03-.43-.63c.26-.44.57-.76.93-.97Z"/>
        <path class="cls-2" d="M23.8,4.45c.39-.57.77-1.13,1.13-1.67.36-.54.7-1.04,1.01-1.51.31-.47.56-.86.75-1.19.16.04.3.06.42.06s.25-.02.39-.06c-.02.57-.05,1.2-.06,1.91-.02.71-.03,1.44-.03,2.18v1.42c.24,0,.46-.01.68-.03.21-.02.39-.04.53-.07-.04.17-.06.31-.06.42s.02.25.06.43c-.14-.03-.31-.05-.53-.06-.21-.01-.44-.02-.68-.02v.54c0,.33,0,.68.03,1.04.02.36.03.64.05.84-.16-.02-.34-.03-.54-.03s-.38,0-.54.03c.02-.22.04-.51.06-.86.02-.35.04-.69.04-1.02v-.54c-.19,0-.46,0-.82,0s-.73.01-1.12.02c-.39,0-.76.02-1.11.03-.35.01-.61.02-.79.03v-.23c.36-.53.73-1.09,1.12-1.66ZM26.48,1.26c-.17.25-.39.57-.65.96-.26.39-.53.79-.81,1.21-.28.42-.54.82-.79,1.2s-.44.7-.58.95h2.86V1.26h-.03Z"/>
      </g>
      <g>
        <path class="cls-2" d="M.67,5.89H.08s-.01,0-.02,0c0,0-.02,0-.02,0-.02,0-.03-.02-.03-.05,0-.02,0-.04.03-.05,0,0,.01,0,.02,0,0,0,.01,0,.02,0h.59v-.47s0-.02,0-.03c0-.02,0-.04.01-.05.02-.04.05-.06.11-.06s.09.02.11.06c0,.01.01.03.01.05,0,0,0,.02,0,.03v1.98s0,.02,0,.03c0,.02,0,.04-.01.05-.02.04-.05.06-.11.06s-.09-.02-.11-.06c0-.01-.01-.03-.01-.05,0,0,0-.02,0-.03v-.51l-.13.07c-.06.04-.12.07-.18.1-.07.03-.12.06-.17.08-.05.02-.09.03-.1.03-.03,0-.05-.01-.07-.04-.01-.02-.02-.05-.02-.08,0-.04.01-.07.04-.08.01,0,.02-.01.04-.02,0,0,.01,0,.02,0l.22-.06c.05-.02.11-.03.16-.05.04-.01.08-.03.12-.04l.08-.03v-.75ZM1.43,7.15c0,.08.03.12.1.12h.18s.08-.03.11-.08c0-.02.02-.04.02-.07l.03-.15s.01-.04.02-.05c.02-.03.05-.05.09-.05.09,0,.13.04.13.12v.04s0,.05-.02.07c-.02.07-.04.13-.07.18-.02.03-.05.06-.07.07-.04.02-.09.03-.15.03h-.38c-.17,0-.25-.08-.25-.24v-1.83s0-.02,0-.03c0-.02,0-.04.01-.05.02-.04.05-.06.1-.06s.09.02.11.06c0,.01.01.03.01.05,0,0,0,.02,0,.03v.77s.01,0,.01,0l.05-.04s.07-.05.1-.08c.04-.03.08-.07.11-.1.04-.04.09-.08.13-.13.06-.07.1-.1.14-.1.09,0,.13.05.13.14,0,.05-.05.11-.15.17-.05.03-.1.06-.15.09-.05.03-.09.05-.14.08l-.23.11v.94Z"/>
        <path class="cls-2" d="M5.71,5.33s0-.02,0-.02c0-.02,0-.04.01-.06.02-.04.05-.07.11-.07s.09.02.11.07c0,.01.01.03.01.05,0,0,0,.02,0,.02v.73h.86s.01,0,.02,0c0,0,.01,0,.02,0,.02,0,.02.03.02.05,0,.02,0,.04-.02.05,0,0-.01,0-.02,0,0,0-.01,0-.02,0h-.86v1.08h.71s.01,0,.02,0c0,0,.01,0,.02,0,.02,0,.03.03.03.05,0,.02,0,.04-.03.05,0,0-.01,0-.02,0,0,0-.01,0-.02,0h-1.68s-.01,0-.02,0c0,0-.01,0-.02,0-.02,0-.03-.03-.03-.05,0-.02,0-.04.03-.05,0,0,.01,0,.02,0,0,0,.01,0,.02,0h.72v-1.08h-.86s-.01,0-.02,0c0,0-.01,0-.02,0-.02,0-.02-.03-.02-.05s0-.04.02-.05c0,0,.01,0,.02,0,0,0,.01,0,.02,0h.86v-.72Z"/>
        <path class="cls-2" d="M10.19,7.29s0,.02,0,.02c0,.02,0,.04-.01.06-.02.04-.05.06-.1.06s-.09-.02-.1-.06c0-.01-.01-.03-.01-.05,0,0,0-.02,0-.02v-.83c-.03.07-.07.13-.12.19-.04.05-.07.1-.11.14-.07.08-.12.13-.14.13-.04,0-.05-.02-.05-.06,0-.01,0-.03.03-.05.08-.11.16-.24.22-.38.07-.17.13-.34.16-.53h-.31s-.01,0-.02,0c0,0-.01,0-.02,0-.02,0-.02-.03-.02-.05s0-.04.02-.05c0,0,.01,0,.02,0,0,0,.01,0,.02,0h.32v-.37c-.05,0-.12,0-.19.01-.07,0-.11,0-.13,0-.04,0-.06-.02-.06-.06,0-.02,0-.04.03-.05h.02s.01-.01.02-.01c0,0,.01,0,.02,0l.13-.02c.05,0,.1-.01.14-.02.1-.02.19-.04.28-.07l.07-.03h.04s.02-.02.03-.02c.07,0,.11.04.11.12,0,.04-.02.06-.05.08-.03.01-.11.03-.22.04v.4h.24s.01,0,.02,0c0,0,.01,0,.02,0,.02,0,.02.03.02.05,0,.02,0,.04-.02.05,0,0-.01,0-.02,0,0,0-.01,0-.02,0h-.24v.02s.02.06.03.1c.02.05.03.1.05.15.03.06.05.12.09.18.04.07.08.13.12.19,0,0,.01.01.01.02,0,0,0,.02,0,.02,0,.04-.02.06-.05.06-.01,0-.03-.01-.06-.04-.02-.02-.05-.05-.08-.09-.02-.03-.05-.06-.07-.1l-.05-.07v.94ZM11.39,7.29s0,.02,0,.02c0,.02,0,.04-.01.05-.02.04-.05.06-.1.06s-.09-.02-.1-.06c0-.01-.01-.03-.01-.05,0,0,0-.01,0-.02v-.64l-.61.2s-.02,0-.03,0c-.03,0-.05-.02-.05-.06,0-.03.02-.05.05-.06l.64-.21v-1.23s0-.02,0-.02c0-.02,0-.04.01-.05.02-.04.05-.06.1-.06.05,0,.09.02.1.06,0,.01.01.03.01.05,0,0,0,.01,0,.02v1.15l.21-.07h.02s.01,0,.02,0c.03,0,.05.02.05.05,0,.03-.02.05-.05.06l-.24.08v.72ZM10.66,5.89s.04.02.06.04c.02.01.04.03.06.04l.1.08s.05.04.06.06c.05.05.07.09.07.12,0,.1-.04.14-.13.14-.05,0-.08-.03-.11-.09-.04-.1-.11-.2-.2-.31,0,0-.01-.01-.01-.02,0,0,0-.02,0-.02,0-.04.02-.06.05-.06,0,0,.02,0,.04.02ZM10.7,5.32l.05.03.05.04s.03.02.04.03c.08.06.13.1.16.13.02.02.03.05.03.08,0,.09-.04.13-.12.13-.02,0-.04,0-.06-.02-.01-.01-.04-.06-.08-.12-.02-.03-.05-.07-.07-.11l-.09-.12s0-.02,0-.02c0-.04.02-.06.05-.06,0,0,.02,0,.04.01Z"/>
        <path class="cls-2" d="M16.1,6.01h.27s.01,0,.02,0c0,0,.01,0,.02,0,.02,0,.03.03.03.05,0,.01,0,.02,0,.03,0,0-.01.01-.02.02,0,0-.01,0-.02,0,0,0-.01,0-.02,0h-.27v.5h.17s.01,0,.02,0c0,0,.01,0,.02,0,.02,0,.02.03.02.05s0,.04-.02.05c0,0-.01,0-.02,0s-.01,0-.02,0h-1.79s-.01,0-.02,0c0,0-.01,0-.02,0-.02,0-.02-.03-.02-.05s0-.04.02-.05c0,0,.01,0,.02,0,0,0,.01,0,.02,0h.17v-.5h-.26s-.01,0-.02,0c0,0-.01,0-.02,0-.02,0-.02-.02-.02-.05,0-.02,0-.04.02-.05,0,0,.01,0,.02,0,0,0,.01,0,.02,0h.26v-.32l-.05.05s-.05.05-.08.06c-.03.02-.05.04-.07.05-.02.02-.04.02-.05.02-.03,0-.05-.02-.05-.06,0-.01,0-.03.03-.05l.05-.06s.05-.07.08-.11c.03-.05.07-.1.09-.15.03-.06.06-.13.09-.19l.02-.04s.02-.03.02-.04c.02-.03.05-.04.09-.04s.07.01.1.03c.03.02.05.06.05.09,0,.03-.02.08-.06.14h1.32s.01,0,.02,0c0,0,.01,0,.02,0,.02,0,.02.03.02.05,0,.02,0,.04-.02.05,0,0-.01,0-.02,0,0,0-.01,0-.02,0h-.14v.5ZM14.41,7.37s-.04-.06-.04-.1c0-.02,0-.05.02-.06s.05-.06.11-.11l.06-.07s.08-.1.12-.16c.02-.02.03-.03.05-.03.03,0,.05.02.05.05,0,0,0,.01,0,.03l-.02.07s-.02.07-.03.11c-.02.05-.04.09-.06.14-.05.12-.11.18-.16.18-.03,0-.06-.01-.08-.03ZM15.07,5.51h-.19v.5h.19v-.5ZM15.07,6.13h-.19v.5h.19v-.5ZM15.18,7.39s-.08-.02-.09-.05c0-.01-.01-.04-.02-.06l-.02-.1s-.01-.08-.02-.12c0-.02,0-.03-.01-.05l-.02-.07s0-.02,0-.02c0-.04.02-.05.05-.05.01,0,.04.02.07.05.03.03.06.07.09.12.08.11.11.19.11.24,0,.08-.04.13-.13.13ZM15.48,5.51h-.19v.5h.19v-.5ZM15.48,6.13h-.19v.5h.19v-.5ZM15.81,7.35s-.05.03-.09.03c-.05,0-.1-.06-.13-.17-.02-.1-.06-.18-.1-.26v-.02s-.01-.02-.01-.02c0-.04.02-.06.05-.06.01,0,.03.02.07.05.03.03.07.07.1.11.04.05.07.09.1.13.03.05.04.08.04.1,0,.04-.02.07-.05.1ZM15.88,5.51h-.19v.5h.19v-.5ZM15.88,6.13h-.19v.5h.19v-.5ZM16.05,6.85s.04.02.08.05c.04.03.08.07.12.11.04.05.08.09.11.14.03.05.05.08.05.11,0,.09-.05.14-.14.14-.05,0-.1-.05-.13-.14-.04-.12-.08-.22-.12-.29-.01-.02-.02-.03-.02-.05,0-.04.02-.06.05-.06Z"/>
        <path class="cls-2" d="M19.39,5.31s0-.02,0-.03c0-.02,0-.04.01-.05.02-.04.05-.06.1-.06.05,0,.09.02.11.07,0,.01.01.03.01.05,0,0,0,.01,0,.02v.52h.18s.01,0,.02,0c0,0,.01,0,.02,0,.02,0,.02.03.02.05s0,.04-.02.05c0,0-.01,0-.02,0s-.01,0-.02,0h-.18v.85s.01,0,.03-.01c0,0,.01,0,.02,0l.05-.02s0,0,0,0l.06-.02s.02,0,.03,0c.03,0,.05.02.05.06,0,.02-.01.04-.04.06-.03.02-.07.04-.13.07l-.2.11c-.08.04-.14.08-.2.1-.03.01-.05.03-.07.03-.02,0-.04.01-.04.01-.07,0-.1-.04-.1-.12,0-.05.02-.08.06-.1.02,0,.05-.02.12-.04l.12-.03v-.93h-.21s-.01,0-.02,0c0,0-.01,0-.02,0-.02,0-.02-.03-.02-.05,0-.02,0-.04.02-.05,0,0,.01,0,.02,0,0,0,.01,0,.02,0h.21v-.52ZM21.16,7.27s.01,0,.02,0,.01,0,.02,0c.02,0,.02.02.02.05,0,.02,0,.04-.02.05,0,0-.01,0-.02,0,0,0-.01,0-.02,0h-.46c-.18,0-.32-.03-.42-.08-.09-.05-.16-.12-.22-.23-.04.06-.08.11-.14.16-.05.04-.1.08-.15.11-.05.03-.09.05-.13.07-.04.01-.06.02-.07.02-.03,0-.05-.02-.05-.06,0-.02.02-.04.05-.06.16-.09.27-.2.32-.33.02-.05.04-.12.05-.19,0-.03,0-.06.01-.1v-.1c.01-.09.05-.13.13-.13.08,0,.13.04.13.13,0,.07-.01.14-.03.21.05.18.12.3.22.37v-.84h-.51s-.01,0-.02,0c0,0-.01,0-.02,0-.02,0-.02-.02-.02-.04,0-.02,0-.04.02-.05,0,0,.01,0,.02,0,0,0,.01,0,.02,0h1.25s.01,0,.02,0c0,0,.01,0,.02,0,.02,0,.02.03.02.05,0,.02,0,.04-.02.05,0,0-.01,0-.02,0s-.01,0-.02,0h-.5v.32h.39s.01,0,.02,0c0,0,.01,0,.02,0,.02,0,.02.03.02.05,0,.02,0,.04-.03.05,0,0-.01,0-.02,0,0,0-.01,0-.02,0h-.39v.48s.05,0,.08,0c.01,0,.03,0,.04,0h.4ZM21.07,5.88c0,.13-.07.19-.21.19h-.68c-.14,0-.21-.06-.21-.19v-.45c0-.13.07-.19.21-.19h.68c.14,0,.21.06.21.19v.45ZM20.82,5.6v-.15c0-.06-.03-.09-.09-.09h-.43c-.06,0-.09.03-.09.09v.15h.61ZM20.21,5.71v.16c0,.06.03.09.09.09h.43c.06,0,.09-.03.09-.09v-.16h-.61Z"/>
        <path class="cls-2" d="M23.96,5.77s-.01,0-.02,0c0,0-.01,0-.02,0-.02,0-.02-.02-.02-.04,0-.02,0-.04.02-.05,0,0,.01,0,.02,0,0,0,.01,0,.02,0h.61c.06,0,.11.02.14.05.02.03.03.06.03.1,0,.03,0,.07-.02.13-.01.07-.03.14-.06.21-.03.09-.06.18-.1.26-.05.1-.1.19-.16.27-.05.07-.1.13-.16.19-.05.05-.1.1-.14.14-.09.08-.15.12-.17.12-.03,0-.05-.02-.05-.06,0-.02.01-.04.03-.06.11-.09.21-.21.29-.35.07-.11.13-.23.18-.37.02-.06.04-.11.05-.17.01-.05.02-.1.03-.14,0-.04.01-.07.02-.11,0-.03,0-.05,0-.06,0-.03-.02-.05-.05-.05h-.47ZM25.07,7.14c0,.08-.02.14-.07.18-.04.03-.1.04-.17.04h-.31s-.02,0-.02,0c0,0-.02,0-.02-.01,0,0,0-.02,0-.03s0-.02,0-.03c0,0,.01-.01.02-.02,0,0,.01,0,.02,0h.19c.08,0,.12-.04.12-.13v-1.87s0-.02,0-.02c0-.02,0-.04.01-.06.02-.04.05-.07.11-.07s.09.02.11.07c0,.02.01.04.01.06,0,0,0,.02,0,.02v.25c.02.11.05.21.07.28,0,.03.02.06.03.1l.03.07s0,.02,0,.02c.07-.05.14-.11.21-.19.08-.08.14-.15.2-.23.05-.07.09-.1.13-.1.04,0,.07.02.1.05s.05.07.05.11c0,.03,0,.06-.03.08-.03.03-.09.08-.18.14-.08.05-.15.1-.21.14l-.21.12c.17.39.42.7.72.93.02.01.03.03.03.05,0,.04-.02.06-.05.06,0,0-.03-.01-.07-.03-.04-.02-.08-.05-.13-.08-.05-.04-.1-.08-.16-.12-.06-.05-.11-.1-.16-.14-.05-.05-.1-.1-.14-.16-.04-.05-.08-.1-.11-.15-.03-.04-.05-.08-.08-.13l-.03-.05s-.02-.03-.02-.04v.92Z"/>
        <path class="cls-2" d="M28.87,6.29c0-.09.02-.15.06-.19.04-.03.1-.04.18-.04h1.62s.01,0,.02,0c0,0,.01,0,.02,0,.02,0,.02.03.02.05,0,.02,0,.04-.02.05,0,0-.01,0-.02,0,0,0-.01,0-.02,0h-1.51c-.07,0-.11.04-.11.12v.23c0,.18-.02.33-.05.45-.03.11-.08.22-.14.33-.03.04-.06.09-.1.13-.05.05-.08.08-.1.08-.04,0-.06-.02-.06-.06,0,0,0-.01,0-.03l.06-.1c.05-.09.09-.21.11-.35,0-.06.01-.12.02-.19,0-.05,0-.11,0-.18v-.32ZM29.64,5.41s0-.02,0-.02c0-.02,0-.04.01-.06.02-.05.05-.07.11-.07s.09.02.11.07c0,.02.01.04.01.06,0,0,0,.01,0,.02v.38h.39c.07,0,.1-.04.1-.11v-.18s0-.08.02-.11c.02-.03.05-.05.1-.05s.08.02.1.05c.02.03.03.06.03.11v.18c0,.15-.08.22-.23.22h-1.26c-.15,0-.23-.07-.23-.22v-.2s0-.02,0-.02c0-.02,0-.04.01-.06.02-.04.05-.06.1-.06.05,0,.09.02.11.06,0,.01.01.03.01.05,0,0,0,.02,0,.02v.2c0,.07.03.11.1.11h.38v-.38ZM30.03,6.88h.69s.01,0,.02,0c0,0,.01,0,.02,0,.02,0,.02.03.02.05s0,.04-.03.05c0,0-.01,0-.02,0,0,0-.01,0-.02,0h-.69v.39s0,.02,0,.03c0,.02,0,.04-.01.06-.02.05-.05.07-.11.07s-.09-.02-.11-.07c0-.02-.01-.04-.01-.06,0,0,0-.02,0-.03v-.39h-.58s-.01,0-.02,0c0,0-.01,0-.02,0-.02,0-.02-.03-.02-.05,0-.02,0-.04.02-.05,0,0,.01,0,.02,0s.01,0,.02,0h.58v-.39h-.45s-.01,0-.02,0c0,0-.01,0-.02,0-.02,0-.03-.02-.03-.05s0-.04.03-.05c0,0,.01,0,.02,0,0,0,.01,0,.02,0h1.17s.01,0,.02,0c0,0,.01,0,.02,0,.02,0,.02.03.02.05,0,.02,0,.04-.03.05,0,0-.01,0-.02,0,0,0-.01,0-.02,0h-.47v.39Z"/>
      </g>
      <g>
        <path class="cls-1" d="M5.75,12.87h-.21v-2.05s.02-.07.07-.07h.54c.05,0,.08.02.08.07v1.8c0,.05-.03.08-.08.08h-.39v.18ZM5.78,10.97s-.03,0-.03.03v.62h.26v-.62s-.01-.03-.04-.03h-.19ZM6.01,11.84h-.26v.64h.21s.05-.02.05-.05v-.6ZM6.3,12.04v-.21h.97v-.24h-.97v-.2h.61v-.28h-.55v-.2h.55v-.23h.21v.23h.55v.2h-.55v.28h.61v.2h-.25v.24h.23v.21h-.23v.68c0,.1-.04.17-.12.21-.1.07-.27.06-.52-.02v-.22c.09.03.15.05.19.06.04,0,.09.01.12.02.03,0,.06-.01.09-.04.01-.02.02-.04.02-.07v-.62h-.97ZM6.62,12.11c.09.12.17.27.25.45l-.19.1c-.08-.19-.16-.33-.24-.44l.18-.11Z"/>
        <path class="cls-1" d="M11.53,11.97l-.21-.09c.13-.19.25-.42.35-.68h0c.06-.17.11-.35.12-.55l.22.03c-.04.2-.08.37-.12.53v1.75h-.22v-1.22c-.04.09-.09.17-.13.23ZM12.02,11.56l-.03-.21.57-.04c-.02-.2-.03-.41-.04-.63h.21c0,.22,0,.43.03.62l.78-.05v.21s-.75.05-.75.05c.08.47.21.82.4,1.04.06.08.11.13.13.13.02,0,.03-.02.03-.04.02-.07.03-.2.04-.37l.2.05c0,.31-.05.51-.12.59-.03.03-.06.04-.09.05-.07,0-.14-.04-.22-.12-.02,0-.03-.02-.04-.04-.28-.3-.46-.72-.54-1.27l-.57.03ZM13.04,10.65c.15.08.31.2.49.35l-.12.18c-.19-.16-.35-.28-.48-.34l.12-.19Z"/>
        <path class="cls-1" d="M17.4,10.97h-.18v-.22h2.12v.22h-1.72v.34h1.48s.07.02.07.07v.85c0,.05-.02.08-.07.08h-1.48v.38h1.76v.21h-2.2v-.21h.22v-1.72ZM17.62,11.52v.57h1.3s.02-.01.02-.02v-.53s0-.02-.02-.02h-1.3Z"/>
        <path class="cls-1" d="M23.44,10.94c-.08.08-.18.18-.3.27l-.18-.13c.22-.14.36-.27.41-.39h.19s0,.03,0,.04c.1.08.2.15.32.2l-.14.17c-.1-.07-.18-.14-.26-.21-.01.01-.02.03-.03.05ZM23.29,11.88h-.28v-.19h.28v-.24h-.21v-.2h.63v.2h-.23v.24h.26v.19h-.26v.71c.1-.03.17-.05.23-.07l.07.19c-.17.07-.42.14-.75.2l-.06-.2c.1-.02.2-.04.32-.07v-.76ZM23.17,12.05c.04.18.06.33.06.47h-.16c-.01-.17-.03-.32-.06-.46h.16ZM23.74,12.06c-.01.12-.03.25-.06.37l-.15-.04c.02-.08.04-.21.06-.36l.15.03ZM24.46,12.38v-.17h.42v-.13h-1.07v-.18h1.43v.18h-.17v.13h.17v.17h-.17v.37c0,.08-.04.15-.11.2-.06.04-.18.04-.36,0v-.2c.14.03.22.04.25,0,.01-.01.02-.03.02-.06v-.32h-.42ZM24.98,11.57h-.38v.1h.54v.16h-1.29v-.16h.56v-.1h-.5v-.14h1.08v.09l.05-.11s0-.03,0-.04c0,0,0,0,0,0h-1.2v-.18h1.34l.1.08c-.04.11-.08.22-.12.32-.06-.02-.11-.04-.15-.06v.04ZM24.01,12.92h-.18v-.71s0-.03.03-.03h.51s.04.02.04.04v.7h-.18v-.1h-.21v.1ZM24.42,10.89h-.57v-.16h.57v-.09h.19v.09h.59v.16h-.59v.1h.51v.14h-1.19v-.14h.49v-.1ZM24.23,12.65v-.28s-.01-.03-.02-.03h-.16s-.03,0-.03.03v.28h.21ZM24.58,12.42c.07.04.14.1.2.18l-.12.13c-.08-.08-.15-.14-.19-.18l.11-.13Z"/>
      </g>
    </g>
  </g>
</svg>