<?xml version="1.0" encoding="UTF-8"?>
<svg id="_圖層_2" data-name="圖層 2" xmlns="http://www.w3.org/2000/svg" viewBox="0 0 45.17 10.73">
  <defs>
    <style>
      .cls-1 {
        fill: #231815;
      }
    </style>
  </defs>
  <g id="_圖層_1-2" data-name="圖層 1">
    <g>
      <path class="cls-1" d="M1.38,7.6s0-.03,0-.04c0-.03,0-.05,.02-.08,.03-.06,.08-.09,.17-.09s.14,.03,.17,.09c.01,.02,.02,.05,.02,.08,0,0,0,.02,0,.04v.84h1.3s.02,0,.03,0c.01,0,.02,0,.03,.01,.02,.01,.03,.04,.03,.07,0,.03-.01,.06-.03,.07,0,0-.02,0-.03,.01,0,0-.02,0-.03,0H1.78c.04,.42,.17,.8,.39,1.13,.23,.34,.53,.6,.9,.78,.06,.03,.09,.06,.09,.1,0,.05-.03,.08-.08,.08,0,0-.03,0-.06-.02-.04-.01-.08-.03-.13-.05-.06-.03-.13-.06-.19-.09-.08-.04-.15-.09-.22-.14-.08-.06-.17-.12-.24-.18-.09-.07-.17-.15-.24-.24-.17-.2-.31-.41-.41-.64-.12,.25-.25,.45-.39,.62-.16,.19-.37,.36-.61,.51-.1,.06-.21,.12-.31,.17-.1,.05-.17,.07-.19,.07-.05,0-.08-.03-.08-.08,0-.02,0-.04,.02-.06l.11-.06s.05-.02,.07-.04c.06-.03,.11-.07,.17-.1,.07-.05,.14-.09,.2-.15,.07-.06,.14-.13,.21-.2,.07-.08,.14-.16,.2-.25,.07-.1,.13-.21,.18-.32,.12-.25,.19-.53,.22-.83H.1s-.02,0-.03,0c-.01,0-.02,0-.03-.01-.02-.01-.03-.04-.03-.07s.01-.05,.04-.07c0,0,.02,0,.03-.01,0,0,.02,0,.03,0H1.38s0-.08,0-.18v-.66Z"/>
      <path class="cls-1" d="M8.52,8.1c0-.08,.01-.14,.04-.18,.04-.06,.12-.09,.23-.1,.03-.05,.05-.11,.08-.17,0-.02,.02-.04,.03-.06v-.04c.05-.1,.11-.15,.18-.15,.13,0,.19,.05,.19,.16,0,.06-.06,.14-.18,.26h.26c.21,0,.31,.09,.31,.28v.54c0,.19-.1,.28-.31,.28h-.48v.42h.51c.21,0,.31,.09,.31,.28v.71c0,.19-.1,.28-.31,.28h-.55c-.21,0-.31-.09-.31-.28v-2.23Zm.35,.66h.32c.09,0,.14-.05,.14-.15v-.48c0-.1-.05-.15-.14-.15h-.17c-.1,0-.14,.05-.14,.15v.63Zm0,.74v.8c0,.1,.05,.15,.14,.15h.19c.1,0,.14-.05,.14-.15v-.65c0-.1-.05-.15-.14-.15h-.33Zm1.99-1.16h.27c.23,0,.34,.11,.34,.32v1.34c0,.21-.11,.32-.34,.32h-.15c-.06,0-.09-.03-.09-.08,0-.06,.04-.08,.13-.08,.09,0,.14-.05,.14-.15v-1.35c0-.1-.05-.15-.15-.15h-.15v2c0,.06-.01,.11-.03,.14-.03,.05-.08,.07-.14,.07-.12,0-.18-.07-.18-.21v-2h-.15c-.1,0-.15,.05-.15,.15v1.52c0,.06,0,.1-.03,.13-.03,.04-.07,.06-.13,.06-.1,0-.16-.06-.16-.19v-1.52c0-.21,.11-.32,.34-.32h.27v-.57h-.62s-.02,0-.03,0c-.01,0-.02,0-.03-.01-.02-.01-.03-.04-.03-.07,0-.03,.01-.06,.04-.07,0,0,.02,0,.03-.01,0,0,.02,0,.03,0h1.6s.02,0,.03,0c.01,0,.02,0,.03,.01,.02,.01,.03,.04,.03,.07s-.01,.05-.03,.07c0,0-.02,0-.03,.01,0,0-.02,0-.03,0h-.61v.57Z"/>
      <path class="cls-1" d="M19.87,10.24c0,.25-.13,.38-.39,.38h-2.18c-.15,0-.26-.04-.32-.11-.05-.06-.07-.15-.07-.27v-2.37c0-.25,.13-.38,.4-.38h2.18c.15,0,.26,.04,.32,.12,.05,.06,.07,.15,.07,.26v2.37Zm-.36-2.4c0-.13-.06-.19-.18-.19h-1.88c-.12,0-.18,.06-.18,.19v2.42c0,.13,.06,.19,.18,.19h1.88c.12,0,.18-.06,.18-.19v-2.42Zm-.2,1.84s.02,0,.02,0c.01,0,.02,0,.03,0,.02,.01,.03,.04,.03,.07,0,.03-.01,.05-.03,.06,0,0-.02,0-.03,0,0,0-.02,0-.02,0h-.35v.27c0,.17-.09,.25-.28,.25h-.31s-.02,0-.03,0c-.01,0-.02,0-.03-.01-.02-.01-.03-.03-.03-.06,0-.03,.01-.06,.03-.07,0,0,.02,0,.03-.01,0,0,.02,0,.03,0h.13c.08,0,.13-.04,.13-.13v-.23h-.85c.08,.02,.18,.06,.28,.12,.11,.06,.16,.12,.16,.18,0,.12-.06,.18-.17,.18-.05,0-.11-.05-.19-.16l-.16-.19s-.02-.03-.02-.05v-.02s0-.02,.01-.03c.01-.02,.03-.03,.06-.04h-.31s-.02,0-.03,0c-.01,0-.02,0-.03,0-.02-.01-.03-.04-.03-.06,0-.03,.01-.05,.03-.07,0,0,.02,0,.03,0,0,0,.02,0,.02,0h1.19v-.03s0-.02,0-.04c0-.03,0-.06,.02-.08,.03-.06,.07-.09,.14-.09s.12,.03,.15,.09c0,.02,.01,.05,.02,.08,0,.01,0,.02,0,.04v.03h.35Zm-.03-1.78s.02,0,.03,0c.01,0,.02,0,.03,0,.02,.01,.03,.04,.03,.07s-.01,.05-.03,.06c0,0-.02,0-.03,.01h-.75v.18h.38c.19,0,.28,.08,.28,.25v.31c0,.06-.01,.11-.03,.15-.03,.05-.08,.08-.16,.1l.08,.05s.09,.07,.13,.11c.13,.11,.19,.19,.19,.25,0,.11-.06,.16-.17,.16-.03,0-.06-.01-.09-.03l-.02-.03-.08-.16-.35,.03c-.15,.01-.3,.03-.44,.04-.17,.01-.31,.02-.44,.03-.14,0-.26,.01-.34,.01-.05,0-.09-.02-.11-.06,0-.01-.01-.03-.01-.04,0,0,0-.02,0-.02,0-.05,.02-.08,.05-.1,.02,0,.06-.01,.1-.01h.35c.13,0,.24,0,.33,0v-.22h-.37c-.19,0-.28-.08-.28-.25v-.31c0-.17,.09-.25,.28-.25h.37v-.18h-.72s-.02,0-.03,0c-.01,0-.02,0-.03,0-.02-.01-.03-.04-.03-.06,0-.03,.01-.05,.04-.07,0,0,.02,0,.03,0,0,0,.02,0,.03,0h.72v-.03s0-.02,0-.04c0-.03,0-.05,.02-.07,.02-.05,.07-.08,.14-.08s.12,.03,.14,.08c0,.02,.02,.04,.02,.07v.07h.73Zm-1.06,.48h-.23c-.06,0-.1,.01-.11,.03-.01,.02-.02,.07-.02,.15h.36v-.19Zm0,.33h-.36v.06c0,.09,.04,.14,.13,.14h.23v-.2Zm.33-.14h.37c0-.08,0-.13-.02-.15-.01-.02-.05-.03-.11-.03h-.24v.19Zm0,.34h.24c.08,0,.13-.05,.13-.14v-.06h-.37v.2Zm0,.35c.15,0,.29-.01,.42-.02-.03-.04-.04-.06-.05-.08,0-.01-.01-.03-.01-.04,0-.02,0-.03,.01-.04,0,0,.02-.02,.03-.02h-.39v.21Z"/>
      <path class="cls-1" d="M27.37,8.29c-.05,.07-.1,.14-.17,.21l-.07,.08-.06,.06c.18,.18,.33,.4,.43,.64,.11,.27,.17,.54,.17,.83,0,.21-.03,.37-.1,.45-.06,.09-.18,.13-.34,.13h-.39s-.02,0-.03,0c-.01,0-.02,0-.03-.01-.02-.01-.03-.04-.03-.07,0-.03,.01-.06,.04-.07,0,0,.02,0,.03-.01,0,0,.02,0,.03,0h.21s.07,0,.09-.01c.04-.01,.07-.04,.09-.08,.03-.05,.05-.12,.06-.21,.01-.1,.02-.24,0-.4-.09,.08-.21,.16-.34,.25-.11,.07-.23,.14-.35,.2-.1,.06-.2,.1-.28,.14-.08,.03-.12,.05-.14,.05-.05,0-.08-.03-.08-.08,0-.03,.03-.07,.09-.1,.2-.1,.41-.23,.62-.4,.2-.16,.34-.3,.44-.43-.03-.11-.05-.2-.07-.25-.09,.08-.19,.16-.29,.24-.08,.06-.17,.11-.26,.16-.07,.04-.13,.07-.19,.09-.05,.02-.07,.03-.08,.03-.01,0-.03,0-.04-.01,0,0-.02-.02-.02-.02-.02,.27-.13,.4-.34,.4h-.21s-.02,0-.03,0c-.01,0-.02,0-.03-.01-.02-.01-.04-.03-.04-.07,0-.05,.05-.08,.15-.08,.07,0,.12-.05,.14-.15,0-.04,.02-.08,.02-.12,0-.02,0-.03,0-.05v-.04c0-.1,0-.19-.03-.28-.02-.08-.04-.15-.07-.23-.03-.06-.05-.12-.09-.17-.01-.02-.02-.04-.04-.06,0,0-.01-.02-.02-.03v-.02s-.04-.04-.04-.06c0-.02-.01-.03-.01-.05,0-.02,0-.04,.01-.05l.28-.82s0-.02,0-.03c0-.02,0-.04-.03-.05h-.02s-.17,0-.17,0c-.1,0-.14,.05-.14,.15v2.66s0,.02,0,.04c0,.03,0,.05-.02,.08-.03,.06-.07,.09-.15,.09s-.12-.03-.14-.09c0-.02-.01-.05-.02-.08,0-.01,0-.02,0-.04v-2.69c0-.19,.1-.28,.31-.28h.53c.08,0,.13,.02,.17,.07,.03,.04,.04,.08,.04,.12,0,.04,0,.07-.02,.11l-.37,.82v.02s0,.01,0,.03c0,0,.01,.02,.02,.02,.07,.09,.13,.19,.19,.28,.04,.08,.08,.16,.1,.24,.02,.06,.03,.13,.04,.2,0,.04,0,.09,0,.15l.27-.18,.15-.12s.08-.07,.11-.1c.09-.09,.17-.18,.22-.27-.05-.08-.09-.15-.13-.19-.07,.06-.15,.11-.22,.16-.06,.04-.12,.08-.18,.11-.05,.03-.09,.05-.13,.06-.03,.01-.05,.02-.06,.02-.05,0-.08-.03-.08-.08,0-.03,.02-.06,.06-.09,.1-.07,.2-.14,.28-.22,.07-.06,.14-.13,.19-.2,.04-.05,.08-.1,.11-.15l.05-.08h-.59s-.02,0-.03,0c-.01,0-.02,0-.03-.01-.03-.01-.04-.03-.04-.07,0-.03,.01-.05,.04-.07,0,0,.02,0,.03,0,0,0,.02,0,.03,0h.54c-.07,0-.12-.07-.16-.17-.05-.15-.1-.29-.15-.4-.01-.02-.02-.04-.02-.06,0-.05,.02-.08,.08-.08,.03,0,.08,.04,.17,.12,.04,.03,.07,.06,.09,.09,.04,.04,.07,.07,.1,.1,.07,.09,.11,.15,.11,.2,0,.1-.06,.17-.17,.2h1.32s.02,0,.03,0c.01,0,.02,0,.03,0,.02,.01,.03,.04,.03,.07,0,.03-.01,.06-.04,.07,0,0-.02,0-.03,.01,0,0-.02,0-.03,0h-.55v.23c.01,.1,.03,.21,.04,.33,.1-.09,.18-.17,.22-.24,.05-.07,.09-.1,.14-.1,.12,0,.18,.06,.18,.19,0,.06-.03,.11-.1,.15-.06,.04-.13,.08-.21,.11-.05,.02-.12,.05-.2,.09,.05,.24,.11,.45,.19,.64,.09,.21,.19,.4,.32,.56,.03,.03,.04,.06,.04,.08,0,.05-.03,.08-.08,.08-.02,0-.05-.02-.09-.06-.03-.03-.07-.08-.12-.13-.08-.1-.14-.18-.19-.26-.1-.15-.18-.32-.25-.51-.06-.16-.11-.32-.15-.5-.03-.14-.05-.27-.07-.41v-.15s-.02-.07-.02-.1h-.01Zm.67-.68s-.03,.11-.1,.19c-.05,.06-.11,.13-.2,.2-.08,.08-.14,.11-.17,.11-.05,0-.08-.02-.08-.08l.09-.28s.02-.06,.02-.08c.03-.12,.06-.19,.08-.22,.03-.03,.07-.05,.13-.05,.14,0,.21,.06,.21,.19Z"/>
      <path class="cls-1" d="M36,8.45c.24,0,.36,.11,.36,.34v.48c0,.13-.03,.22-.1,.27-.05,.05-.14,.07-.26,.07h-1.88v.62c0,.12,.06,.19,.18,.19h2.34s.02,0,.03,0c.01,0,.02,0,.03,.01,.02,.01,.04,.04,.04,.07,0,.03-.01,.06-.04,.07,0,0-.02,0-.03,.01,0,0-.02,0-.03,0h-2.53c-.24,0-.37-.12-.37-.35v-2.33c0-.23,.12-.35,.37-.35h2.45s.02,0,.03,0c.01,0,.02,0,.03,.01,.02,.01,.03,.03,.03,.06,0,.03-.01,.06-.04,.07,0,0-.02,0-.03,.01,0,0-.02,0-.03,0h-2.26c-.12,0-.18,.06-.18,.19v.55h1.88Zm-1.88,.17v.83h1.7c.11,0,.16-.06,.16-.17v-.5c0-.11-.05-.17-.16-.17h-1.7Z"/>
      <path class="cls-1" d="M43.5,9.53c-.09,.08-.19,.17-.32,.26v.51c.08-.01,.17-.03,.27-.05l.26-.05h.05s.07-.03,.08-.03c.05,0,.07,.03,.07,.08,0,.03-.02,.06-.06,.08-.03,.02-.14,.05-.31,.1l-.93,.25s-.08,.02-.11,.03c-.03,0-.04,.01-.05,.01-.03,0-.06-.01-.08-.04-.03-.03-.04-.06-.04-.11,0-.01,0-.02,0-.03,0-.02,0-.03,.01-.04,.02-.03,.05-.05,.1-.06l.38-.06v-.37c-.09,.04-.18,.08-.27,.11-.07,.03-.15,.05-.22,.08-.06,.02-.11,.03-.16,.04-.03,0-.06,.01-.07,.01-.05,0-.08-.03-.08-.08,0-.03,.01-.05,.03-.06,0,0,.02-.01,.03-.02,0,0,.02,0,.04-.01l.08-.03s.06-.02,.1-.04c.08-.03,.15-.07,.22-.1,.09-.05,.17-.1,.25-.15,.09-.06,.18-.13,.25-.21h-.93s-.02,0-.03,0c-.01,0-.02,0-.03-.01-.02-.01-.03-.04-.03-.07,0-.03,.01-.06,.03-.07,0,0,.02,0,.03-.01,0,0,.02,0,.03,0h1.41v-.19s0-.04,0-.06c-.02,0-.03,0-.04,0h-.24s-.03,0-.03-.01c-.01,0-.02-.01-.03-.02,0-.01-.01-.03-.01-.05,0-.06,.03-.09,.1-.09h.06c.05,0,.08-.03,.08-.08v-.14c0-.06-.03-.08-.08-.08h-.24v.46s0,.02,0,.03c0,.02,0,.04-.01,.06-.02,.05-.07,.07-.13,.07s-.11-.02-.13-.07c0-.02-.02-.04-.02-.06,0,0,0-.02,0-.03v-.46h-.2c-.05,0-.08,.03-.08,.08v.28s0,.02,0,.04c0,.02,0,.05-.02,.06-.02,.05-.07,.07-.13,.07s-.11-.02-.13-.07c-.02-.03-.02-.07-.02-.13v-.26c0-.16,.09-.24,.27-.24h.33v-.21h-.68s-.02,0-.03,0c-.01,0-.02,0-.03-.01-.02-.01-.04-.04-.04-.07s.01-.05,.04-.07c0,0,.02,0,.03-.01,0,0,.02,0,.03,0h.68v-.27h-.33c-.14,.14-.22,.21-.27,.21-.05,0-.08-.03-.08-.08,0,0,0-.03,.02-.05,0,0,.01-.02,.02-.04l.04-.09,.02-.04s.03-.05,.03-.05c0,0,.01-.02,.02-.05,0,0,0-.02,.01-.03l.04-.1s.01-.04,.02-.04c.03-.05,.07-.07,.13-.07,.12,0,.18,.05,.18,.14,0,.04-.01,.08-.04,.12h.2v-.11s0-.02,0-.03c0-.03,0-.05,.02-.06,.02-.05,.06-.07,.13-.07s.11,.02,.13,.07c0,.02,.01,.04,.01,.06,0,0,0,.02,0,.03v.11h.54s.02,0,.03,0c.01,0,.02,0,.03,.01,.02,.01,.03,.04,.03,.07,0,.03-.01,.06-.04,.07,0,0-.02,0-.03,.01,0,0-.02,0-.03,0h-.54v.27h.68s.02,0,.03,0c.01,0,.02,0,.03,.01,.02,.01,.04,.04,.04,.07,0,.03-.01,.06-.04,.07,0,0-.02,0-.03,.01,0,0-.02,0-.03,0h-.68v.21h.39c.17,0,.25,.08,.25,.23v.16s0,.07-.01,.12c.07,0,.12,.03,.14,.08,0,.02,.01,.04,.02,.07,0,.01,0,.02,0,.04v.18h1.21s.02,0,.03,0c.01,0,.02,0,.03,.01,.03,.01,.04,.04,.04,.07,0,.03-.01,.06-.04,.07,0,0-.02,0-.03,.01,0,0-.02,0-.03,0h-1.04c.03,.08,.06,.14,.09,.2,.04,.07,.09,.15,.15,.23,.14-.11,.25-.21,.33-.31,.05-.06,.1-.09,.15-.09,.13,0,.19,.06,.19,.19,0,.06-.04,.11-.12,.15-.07,.04-.22,.11-.44,.19,.11,.11,.23,.21,.35,.28,.05,.03,.1,.06,.16,.08l.17,.07h.02s.03,.05,.03,.08c0,.05-.03,.08-.08,.08,0,0-.03,0-.06-.01-.04,0-.08-.02-.13-.04-.06-.02-.12-.05-.18-.08-.07-.03-.14-.07-.21-.11-.08-.05-.16-.1-.23-.15-.08-.06-.16-.13-.23-.2-.17-.17-.3-.35-.39-.55h-.1Zm.82-.91s0,.02,0,.03c0,.03,0,.05-.01,.06-.02,.05-.07,.07-.13,.07s-.11-.02-.13-.07c0-.02-.02-.04-.02-.06,0-.01,0-.02,0-.04v-.94s0-.02,0-.04c0-.02,0-.05,.02-.06,.02-.05,.06-.07,.13-.07s.11,.02,.13,.07c0,.02,.02,.04,.02,.06,0,.01,0,.02,0,.04v.94Zm.16,.44c.1,0,.14-.05,.14-.15v-1.31s0-.02,0-.04c0-.03,0-.05,.02-.07,.03-.05,.08-.08,.15-.08s.13,.03,.15,.08c0,.02,.01,.04,.02,.07,0,.01,0,.02,0,.04v1.34c0,.1-.02,.17-.06,.21-.05,.05-.13,.08-.25,.08h-.39s-.03,0-.03-.01c-.01,0-.02-.01-.03-.02,0-.01-.01-.03-.01-.05s0-.03,.01-.05c0-.01,.02-.02,.03-.02,0,0,.02,0,.03-.01h.21Z"/>
    </g>
    <g>
      <path class="cls-1" d="M16.07,1.33l.02,.05v.04s-.02,.04-.02,.04h-.73v1.14l.55-.19,.05,.05v.02s-.6,.4-.6,.4v1.82c0,.31-.15,.53-.44,.65h-.05s-.07-.03-.07-.1c-.04-.08-.09-.15-.16-.21-.07-.06-.15-.11-.25-.15v-.03s-.03-.03-.03-.03l.02-.03h.45c.07,0,.11-.08,.11-.24v-1.48l-.26,.23c-.02,.14-.07,.2-.13,.2l-.03-.02-.06-.05-.23-.46,.71-.23V1.45h-.58l-.02-.02v-.03s0-.06,0-.06h.6V.02l.5,.1c.09,.06,.14,.11,.15,.15-.02,.07-.1,.14-.23,.22v.85h.12l.23-.27h.1l.28,.25Zm2.23-.03l.04,.1s-.03,.06-.08,.07c-.14,.08-.23,.15-.28,.22h.98l.22-.25h.12l.26,.25s.04,.07,.04,.1l-.04,.04h-1.53v.28h.81l.24-.23h.08l.27,.23s.04,.06,.04,.1c0,.02-.01,.03-.04,.05h-1.41v.31h.89l.2-.23h.02s.06,0,.06,0l.23,.21s.02,.05,.03,.09c-.01,.02-.02,.04-.03,.04h-1.39v.38h1.06l.26-.32,.03-.02,.07,.02,.34,.29,.04,.1-.04,.03h-3.01v.1s-.08,.05-.14,.08l-.13,.03c-.06,0-.11-.02-.17-.05v-1.25c-.14,.08-.28,.13-.42,.15h-.05s-.02,0-.02,0l.04-.05c.39-.3,.72-.65,.99-1.05l.45,.22s.04,.07,.04,.1c0,.08-.08,.12-.24,.15l-.17,.12h.78l.1-.5,.48,.1Zm-2.19,2.05l.46,.19h2.58l.12-.15h.02s.06,0,.06,0l.41,.25,.02,.05s0,.03-.02,.05c-.12,.09-.18,.17-.18,.26v.91c0,.12-.03,.22-.1,.29-.07,.08-.18,.14-.33,.17-.06,0-.09-.02-.1-.07v-.03c-.1-.15-.23-.26-.39-.31v.1c-.06,.03-.11,.06-.14,.07-.04,.01-.08,.02-.12,.02-.04,0-.07-.01-.11-.03v-.26h-.77v.19c-.09,.07-.17,.1-.24,.1-.04,0-.09-.02-.15-.07v-.87l-.3,.1-.23,.04h-.01s-.07-.03-.07-.03v.9c-.09,.09-.18,.14-.27,.14-.04,0-.09-.02-.15-.05v-1.95Zm.6-3.08v.04s-.01,.06-.01,.06c-.08,.05-.13,.18-.13,.41v.1h1.06V0l.54,.12v.06s0,.04,0,.04c-.08,.06-.13,.12-.13,.2v.02s0,.43,0,.43h.98V.08l.57,.16,.02,.05s-.01,.04-.03,.06c-.08,.02-.12,.08-.12,.19v.55c-.08,.07-.17,.1-.27,.1-.03,0-.08-.01-.15-.03v-.19h-2.43v.19c-.11,.07-.2,.11-.27,.11h-.06s-.04-.03-.06-.06V.12l.5,.14Zm.52,3.39h-.69v.54c.37-.13,.6-.31,.69-.54Zm.41-1.55v-.28h-.88v.28h.88Zm0,.45v-.31h-.88v.31h.88Zm0,.49v-.38h-.88v.38h.88Zm-.14,1.19h.73l.18-.14h-.07c-.2,0-.3-.11-.3-.36v-.09s-.41,0-.41,0c-.02,.08-.07,.16-.12,.24-.05,.08-.11,.15-.19,.21l.18,.14Zm.8,.49v-.37h-.77v.37h.77Zm.16-1.1l-.02,.19s.03,.06,.07,.07h.26c.07-.03,.12-.12,.17-.27h-.48Zm.05,.49l.29,.2v.05s0,.05-.02,.07c-.02,.01-.05,.03-.07,.06-.02,.03-.04,.07-.04,.11v.19h.42c.07,0,.11-.04,.11-.15v-1.03h-.13v.04c0,.09,.02,.16,.07,.21v.05c.01,.09-.08,.15-.26,.19h-.36Z"/>
      <path class="cls-1" d="M28.41,1.3h.04s.07,0,.07,0l.4,.38,.02,.07-.02,.07h-2.2v1.07h1.58l.33-.35,.04-.02,.08,.02,.46,.35s.04,.04,.04,.07v.06h-2.52v1.34c0,.47-.19,.78-.57,.93h-.09c-.1,0-.15-.03-.15-.11-.08-.21-.39-.38-.94-.52-.03,0-.05-.02-.06-.02,0,0-.02-.02-.02-.02,.02,0,.03-.02,.05-.02,.02,0,.05-.01,.09-.01l1,.08c.15,0,.22-.07,.22-.2v-1.44h-2.31c-.09-.03-.14-.06-.14-.09,.02-.03,.03-.04,.04-.04h2.42V1.82h-2.12c-.08-.03-.12-.07-.12-.1v-.04h2.24V.69c-.23,0-.46,0-.69,.02-.67,.03-1.02,.05-1.05,.05h-.17s-.08,0-.1-.01c-.03,0-.05-.02-.06-.02,.02-.01,.03-.02,.04-.02,.03-.02,.07-.03,.11-.04,.74-.08,1.38-.17,1.93-.27,.55-.1,1.06-.21,1.52-.34h.07c.05,0,.1,0,.14,.02l.48,.31s.04,.05,.04,.08c0,.03-.04,.04-.13,.04h-.14c-.23,.03-.48,.06-.75,.1-.27,.03-.53,.05-.79,.05V1.68h1.36l.32-.38Z"/>
    </g>
  </g>
</svg>