<?xml version="1.0" encoding="UTF-8"?>
<svg xmlns="http://www.w3.org/2000/svg" viewBox="0 0 67.52 67.52">
  <defs>
    <style>
      .cls-1 {
        isolation: isolate;
      }

      .cls-2 {
        fill: #1d2086;
      }

      .cls-3 {
        mix-blend-mode: overlay;
      }
    </style>
  </defs>
  <g class="cls-1">
    <g id="_圖層_2" data-name="圖層 2">
      <g id="_圖層_1-2" data-name="圖層 1">
        <g class="cls-3">
          <path class="cls-2" d="M33.76,67.52c-9.02,0-17.5-3.51-23.87-9.89S0,42.78,0,33.76,3.51,16.26,9.89,9.89,24.74,0,33.76,0s17.49,3.51,23.87,9.89c6.38,6.38,9.89,14.85,9.89,23.87s-3.51,17.5-9.89,23.87c-6.38,6.38-14.85,9.89-23.87,9.89ZM33.76,.1C24.77,.1,16.32,3.6,9.96,9.96S.1,24.77,.1,33.76s3.5,17.44,9.86,23.8,14.81,9.86,23.8,9.86,17.44-3.5,23.8-9.86c6.36-6.36,9.86-14.81,9.86-23.8s-3.5-17.44-9.86-23.8C51.2,3.6,42.75,.1,33.76,.1Z"/>
        </g>
      </g>
    </g>
  </g>
</svg>