<?xml version="1.0" encoding="UTF-8"?>
<svg xmlns="http://www.w3.org/2000/svg" viewBox="0 0 143.7 25.72">
  <defs>
    <style>
      .cls-1 {
        isolation: isolate;
      }

      .cls-2 {
        fill: #c7b4a1;
      }

      .cls-2, .cls-3, .cls-4 {
        stroke-width: 0px;
      }

      .cls-3 {
        fill: #65534b;
      }

      .cls-5 {
        mix-blend-mode: multiply;
        opacity: .5;
      }

      .cls-6 {
        fill: #231815;
        stroke: #231815;
        stroke-miterlimit: 10;
        stroke-width: .5px;
      }

      .cls-4 {
        fill: #727171;
      }
    </style>
  </defs>
  <g class="cls-1">
    <g id="_圖層_2" data-name="圖層 2">
      <g id="_圖層_1-2" data-name="圖層 1">
        <g>
          <g class="cls-5">
            <path class="cls-4" d="M43.56,21.56h.72s0,1.25,0,1.25h1.38s0-1.24,0-1.24h.72s0,3.11,0,3.11h-.72s0-1.3,0-1.3h-1.38s0,1.3,0,1.3h-.72s0-3.11,0-3.11Z"/>
            <path class="cls-4" d="M48.52,21.57v1.94s0,.03,0,.03v.02s0,.03,0,.03v.02s0,.05,0,.08,0,.06.01.09c0,.05.02.11.07.17.05.07.11.13.2.18.09.05.19.07.3.07h.03s.09,0,.13-.01c.04,0,.08-.03.13-.05.08-.04.15-.09.2-.15.05-.06.08-.14.09-.22l.02-.23v-.02s0-1.94,0-1.94h.72s0,1.94,0,1.94c0,.15-.02.3-.05.44-.03.14-.11.28-.24.4-.13.12-.28.22-.46.29-.18.07-.37.11-.56.11h-.06s-.05,0-.05,0c-.17-.01-.34-.06-.49-.12-.15-.07-.28-.15-.39-.25-.13-.12-.22-.26-.26-.41-.01-.07-.03-.14-.04-.22-.01-.08-.02-.16-.02-.24v-1.94s.72,0,.72,0Z"/>
            <path class="cls-4" d="M52.81,21.57h.56s1.62,3.11,1.62,3.11h-.79s-.42-.8-.42-.8h-1.37s-.43.8-.43.8h-.79s1.61-3.11,1.61-3.11ZM53.5,23.32l-.41-.94-.41.94h.83Z"/>
            <path class="cls-4" d="M58.64,21.58h.72s0,1.25,0,1.25h1.38s0-1.24,0-1.24h.72s0,3.11,0,3.11h-.72s0-1.3,0-1.3h-1.38s0,1.3,0,1.3h-.72s0-3.11,0-3.11Z"/>
            <path class="cls-4" d="M63.6,21.59v1.94s0,.03,0,.03v.02s0,.03,0,.03v.02s0,.05,0,.08,0,.06.01.09c0,.05.02.11.07.17.05.07.11.13.2.18.09.05.19.07.3.07h.03s.09,0,.13-.01c.04,0,.08-.03.13-.05.08-.04.15-.09.2-.15.05-.06.08-.14.09-.22l.02-.23v-.02s0-1.94,0-1.94h.72s0,1.94,0,1.94c0,.15-.02.3-.05.44-.03.14-.11.28-.24.4-.13.12-.28.22-.46.29-.18.07-.37.11-.56.11h-.06s-.05,0-.05,0c-.17-.01-.34-.06-.49-.12-.15-.07-.28-.15-.39-.25-.13-.12-.22-.26-.26-.41-.01-.07-.03-.14-.04-.22-.01-.08-.02-.16-.02-.24v-1.94s.72,0,.72,0Z"/>
            <path class="cls-4" d="M66.91,21.59h.72s0,3.11,0,3.11h-.72s0-3.11,0-3.11Z"/>
            <path class="cls-4" d="M74.71,23.86c-.15.28-.39.5-.72.67-.33.17-.68.25-1.05.25h-.03c-.55,0-1.02-.16-1.41-.48-.39-.32-.59-.7-.59-1.15s.2-.82.59-1.13c.39-.32.86-.47,1.39-.47.39,0,.75.09,1.09.26.34.17.59.4.74.69h-.82c-.12-.12-.27-.21-.45-.28-.18-.07-.37-.11-.56-.11-.35,0-.65.11-.9.32-.25.21-.37.46-.37.75,0,.27.13.51.38.73.25.21.55.32.9.32.2,0,.37-.03.54-.1.16-.06.31-.15.44-.26h.83Z"/>
            <path class="cls-4" d="M79.12,22.02c.39.32.59.7.59,1.15s-.2.82-.59,1.14c-.4.31-.87.47-1.42.47s-1.01-.16-1.41-.47c-.4-.31-.6-.69-.6-1.14s.2-.83.59-1.15c.39-.32.87-.47,1.42-.47s1.03.16,1.42.48ZM76.77,22.42c-.25.2-.38.45-.38.74s.13.54.38.75c.26.21.56.32.91.32s.65-.11.91-.32c.26-.21.39-.46.39-.75s-.13-.54-.38-.74c-.25-.21-.56-.31-.92-.31-.35,0-.66.1-.92.31Z"/>
            <path class="cls-4" d="M81.16,21.61h.8s1.61,2.27,1.61,2.27v-2.27s.72,0,.72,0v3.11s-.8,0-.8,0l-1.62-2.26v2.26s-.72,0-.72,0v-3.11Z"/>
            <path class="cls-4" d="M85.89,23.84c0,.13.05.22.16.29.11.07.23.1.38.1.07,0,.13,0,.19-.02.06-.02.11-.04.16-.08.1-.08.15-.17.15-.28,0-.15-.06-.26-.18-.33-.12-.07-.26-.13-.4-.17h-.05s-.04-.02-.04-.02c-.02,0-.03,0-.03,0h-.03c-.1-.03-.21-.07-.31-.11-.1-.04-.2-.1-.3-.17-.07-.06-.14-.14-.2-.23-.05-.08-.08-.17-.1-.27v-.05s0-.05,0-.05c0-.25.11-.47.34-.63.23-.17.49-.25.8-.25s.56.09.79.26c.23.17.34.38.34.63h-.74c0-.1-.04-.17-.13-.23-.09-.06-.19-.09-.3-.09s-.2.03-.27.09c-.07.06-.11.14-.11.23h0s0,0,0,0c0,.1.04.18.13.23.09.05.18.09.29.13h.04s.04.02.04.02l.05.02h.05c.11.04.23.08.34.12.1.03.21.08.31.15.13.08.23.18.3.3.07.12.1.26.1.4,0,.28-.13.51-.37.7-.25.19-.54.28-.88.28s-.61-.09-.87-.27-.38-.41-.38-.68h.75Z"/>
            <path class="cls-4" d="M89.19,22.17h-.71s0-.56,0-.56h2.15s0,.56,0,.56h-.72s0,2.55,0,2.55h-.72s0-2.55,0-2.55Z"/>
            <path class="cls-4" d="M92,21.62h1.12c.16,0,.33.01.51.04.18.03.34.09.48.18.14.1.25.21.34.35.08.14.12.28.12.42,0,.05,0,.09-.01.11l-.03.12c-.03.09-.07.17-.12.25-.05.08-.11.14-.17.2-.09.08-.2.14-.31.19-.11.04-.23.08-.37.1l1.04,1.14h-.88s-1-1.19-1-1.19v1.19s-.73,0-.73,0v-3.11ZM93.1,23.1h.1s.08,0,.11,0l.19-.04c.06-.02.12-.04.17-.08.05-.04.09-.09.13-.15.03-.06.05-.12.05-.19,0-.07-.02-.13-.05-.2-.03-.06-.09-.11-.16-.15-.08-.05-.17-.08-.26-.09l-.28-.02h-.4s0,.92,0,.92h.39Z"/>
            <path class="cls-4" d="M96.43,21.62v1.94s0,.03,0,.03v.02s0,.03,0,.03v.02s0,.05,0,.08,0,.06.01.09c0,.05.02.11.07.17.05.07.11.13.2.18.09.05.19.07.3.07h.03s.09,0,.13-.01c.04,0,.08-.03.13-.05.08-.04.15-.09.2-.15.05-.06.08-.14.09-.22l.02-.23v-.02s0-1.94,0-1.94h.72s0,1.94,0,1.94c0,.15-.02.3-.05.44-.03.14-.11.28-.24.4-.13.12-.28.22-.46.29-.18.07-.37.11-.56.11h-.06s-.05,0-.05,0c-.17-.01-.34-.06-.49-.12-.15-.07-.28-.15-.39-.25-.13-.12-.22-.26-.26-.41-.01-.07-.03-.14-.04-.22-.01-.08-.02-.16-.02-.24v-1.94s.72,0,.72,0Z"/>
            <path class="cls-4" d="M103.14,23.89c-.15.28-.39.5-.72.67-.33.17-.68.25-1.05.25h-.03c-.55,0-1.02-.16-1.41-.48-.39-.32-.59-.7-.59-1.15s.2-.82.59-1.13c.39-.32.86-.47,1.39-.47.39,0,.75.09,1.09.26.34.17.59.4.74.69h-.82c-.12-.12-.27-.21-.45-.28-.18-.07-.37-.11-.56-.11-.35,0-.65.11-.9.32-.25.21-.37.46-.37.75,0,.27.13.51.38.73.25.21.55.32.9.32.2,0,.37-.03.54-.1.16-.06.31-.15.44-.26h.83Z"/>
            <path class="cls-4" d="M104.58,22.19h-.71s0-.56,0-.56h2.15s0,.56,0,.56h-.72s0,2.55,0,2.55h-.72s0-2.55,0-2.55Z"/>
            <path class="cls-4" d="M107.39,21.63h.72s0,3.11,0,3.11h-.72s0-3.11,0-3.11Z"/>
            <path class="cls-4" d="M112.57,22.06c.39.32.59.7.59,1.15s-.2.82-.59,1.14c-.4.31-.87.47-1.42.47s-1.01-.16-1.41-.47c-.4-.31-.6-.69-.6-1.14s.2-.83.59-1.15c.39-.32.87-.47,1.43-.47s1.03.16,1.42.48ZM110.23,22.45c-.25.2-.38.45-.38.74s.13.54.38.75c.26.21.56.32.91.32s.65-.11.91-.32c.26-.21.39-.46.39-.75s-.13-.54-.38-.74c-.25-.21-.56-.31-.92-.31-.35,0-.66.1-.92.31Z"/>
            <path class="cls-4" d="M114.61,21.64h.8s1.61,2.27,1.61,2.27v-2.27s.72,0,.72,0v3.11s-.8,0-.8,0l-1.62-2.26v2.26s-.72,0-.72,0v-3.11Z"/>
            <path class="cls-4" d="M124.82,23.92c-.15.28-.39.5-.72.67-.34.17-.68.25-1.05.25h-.03c-.55,0-1.02-.16-1.41-.48-.39-.32-.59-.7-.59-1.15,0-.44.2-.82.59-1.13.39-.32.86-.47,1.39-.47.39,0,.75.09,1.09.26.34.17.59.4.74.69h-.82c-.12-.12-.27-.21-.45-.28-.18-.07-.37-.11-.56-.11-.35,0-.65.11-.9.32-.25.21-.37.46-.37.75,0,.27.13.51.38.73.25.21.55.32.9.32.19,0,.37-.03.54-.1.16-.06.31-.15.44-.26h.83Z"/>
            <path class="cls-4" d="M129.22,22.08c.39.32.59.7.59,1.15s-.2.82-.59,1.14c-.4.31-.87.47-1.42.47s-1.01-.16-1.41-.47c-.4-.31-.6-.69-.6-1.14s.2-.83.59-1.15c.39-.32.87-.47,1.42-.47s1.03.16,1.42.48ZM126.88,22.47c-.25.2-.38.45-.38.74s.13.54.38.75c.26.21.56.32.91.32s.65-.11.91-.32c.26-.21.39-.46.39-.75s-.12-.54-.38-.74c-.25-.21-.56-.31-.92-.31-.35,0-.66.1-.92.31Z"/>
            <path class="cls-4" d="M131.3,24.21h.7s0,.56,0,.56h-.7s0-.56,0-.56Z"/>
            <path class="cls-4" d="M132.38,24.21h.7s0,.54,0,.54c0,.09,0,.16-.02.22-.01.06-.05.13-.11.19l-.03.02-.03.03c-.06.04-.12.08-.18.1-.05.02-.12.04-.2.05h-.04s-.04,0-.04,0h-.02s-.02-.28-.02-.28c.08,0,.16-.03.21-.07.06-.03.09-.09.09-.16v-.07s-.31,0-.31,0v-.56Z"/>
            <path class="cls-4" d="M134.49,21.66h.72s0,2.55,0,2.55h1.18s0,.56,0,.56h-1.9s0-3.11,0-3.11Z"/>
            <path class="cls-4" d="M137.55,22.23h-.71s0-.56,0-.56h2.15s0,.56,0,.56h-.72s0,2.55,0,2.55h-.72s0-2.55,0-2.55Z"/>
            <path class="cls-4" d="M140.36,21.67h.81s.09,0,.09,0h.09c.12,0,.25.01.37.02.13.01.26.03.39.06.25.04.47.14.68.28.18.12.32.27.43.45.06.09.1.17.13.26.03.09.06.18.08.28l.02.11v.11s0,.09,0,.09c0,.04,0,.07-.01.09-.01.1-.04.19-.07.28-.03.08-.08.17-.15.27-.11.18-.25.33-.43.45-.23.16-.48.26-.76.3-.11.01-.25.03-.41.04-.16.01-.31.02-.44.02h-.83s0-3.11,0-3.11ZM141.16,24.22c.2,0,.39,0,.58-.03.19-.02.36-.08.52-.17.16-.1.28-.21.36-.35.08-.14.12-.28.12-.43,0-.16-.04-.31-.13-.46-.09-.15-.21-.27-.38-.36-.13-.07-.26-.11-.41-.14-.06-.01-.13-.02-.21-.03s-.16-.01-.23-.01h-.13s-.13,0-.13,0h-.05s0,1.98,0,1.98h.09Z"/>
          </g>
          <g>
            <g>
              <g>
                <polygon class="cls-3" points="37.79 13.19 34.68 16.29 25.25 6.82 25.26 .61 37.79 13.19"/>
                <rect class="cls-3" x="18.31" y="9" width="4.39" height="17.75" transform="translate(-6.64 19.68) rotate(-44.88)"/>
                <polygon class="cls-2" points="18.91 6.94 18.9 13.14 18.89 13.15 12.68 13.14 18.91 6.94"/>
                <polygon class="cls-2" points="31.58 13.17 37.79 13.19 25.21 25.72 25.22 19.51 31.58 13.17"/>
              </g>
              <g>
                <polygon class="cls-2" points="0 13.11 3.1 16.22 12.57 6.79 12.58 .58 0 13.11"/>
                <rect class="cls-2" x="8.39" y="15.67" width="17.75" height="4.39" transform="translate(-7.58 17.39) rotate(-44.88)"/>
                <polygon class="cls-3" points="18.91 6.94 18.89 13.14 18.9 13.15 25.11 13.16 18.91 6.94"/>
                <polygon class="cls-3" points="6.2 13.12 0 13.11 12.53 25.69 12.54 19.48 6.2 13.12"/>
              </g>
            </g>
            <g>
              <path class="cls-6" d="M42.92,3.62h2.88c-.05-.85-.1-1.64-.15-2.37,0-.66.31-1,.92-1s.92.37.92,1.12c-.07.58-.11,1.33-.13,2.25h1.45c.36,0,.68.05.97.15.26.09.38.26.38.54,0,.36-.18.54-.54.54-.85,0-1.62,0-2.3.03-.02.65-.03,1.34-.03,2.07.32.22,1.04.89,2.14,2.02.19.22.28.44.28.66,0,.36-.13.54-.38.54-.14,0-.82-.44-2.04-1.33,0,2.25.03,4.93.08,8.06,0,1.22-.31,1.84-.92,1.84s-.92-.45-.92-1.35c.2-2.47.31-5.31.33-8.52-.34.82-.79,1.67-1.35,2.55-.75,1.06-1.32,1.58-1.71,1.58-.53,0-1.03-.2-1.51-.61-.43-.34-.64-.67-.64-1,0-.19.1-.3.31-.33.94-.03,1.86-.49,2.78-1.38.8-.75,1.51-1.75,2.12-3.01-.02-.6-.03-1.17-.05-1.74-1.41.07-2.52.17-3.32.31-.48,0-.71-.24-.71-.71,0-.17.08-.36.26-.56.22-.22.51-.33.87-.33ZM52.08,4.64c.49.14.9.2,1.22.2l3.9-.1h4.29l1.51-.1c.29,0,.43.2.43.59,0,.22-.12.42-.36.59-.17.17-.36.26-.56.26-1.29-.07-2.79-.1-4.49-.1h-.13c.02.1.03.2.03.28v1.86h2.17l.08-.64c0-.61.31-.92.92-.92s.89.27.89.82l-.2.74h.2l1.56-.1c.26,0,.38.2.38.59,0,.24-.1.43-.31.59-.19.17-.39.26-.61.26-.49-.03-1.02-.05-1.58-.05l-.33,1.15c-.17.27-.38.41-.64.41-.41,0-.61-.23-.61-.69l.13-.89c-.68-.02-1.36-.03-2.04-.03.02.68.03,1.3.03,1.86,1.92-.02,3.57-.03,4.95-.03l1.56-.23c.32,0,.48.18.48.54,0,.32-.15.65-.46,1-.44.41-.9.61-1.38.61-.83-.17-1.83-.32-2.99-.43-.78-.05-1.5-.09-2.14-.13.02.54.03,1.04.03,1.48h2.86l1.56-.1c.32,0,.48.21.48.64,0,.24-.1.44-.31.61-.19.2-.39.31-.61.31-1.09-.09-2.37-.13-3.83-.13h-.1c.02.54.04,1.03.08,1.45,0,1.43-.32,2.14-.94,2.14s-.92-.55-.92-1.66c.03-.7.06-1.34.08-1.91-.46.02-.92.05-1.38.1-.78.03-1.6.14-2.45.31-.61,0-.92-.25-.92-.74,0-.2.14-.45.41-.74.2-.19.48-.28.82-.28.51.07.94.1,1.3.1l2.27-.08c.02-.6.03-1.11.05-1.53h-.23c-1.48,0-2.77.05-3.88.15-.73.03-1.6.14-2.6.33-.54,0-.82-.23-.82-.69,0-.22.14-.47.43-.74.29-.26.56-.38.82-.38.31,0,.69.02,1.15.05.7.03,1.44.05,2.22.05,1.04-.02,2.02-.03,2.93-.05v-.13c0-.51-.02-1.09-.05-1.74-.82.02-1.61.04-2.37.08l.08,1.02c-.02.39-.18.59-.48.59-.36,0-.57-.26-.64-.79l-.2-.77c-.61.05-1.22.13-1.84.23-.53,0-.79-.23-.79-.69,0-.24.13-.48.38-.74.17-.19.42-.28.74-.28.42.14.8.2,1.12.2l-.23-.74c0-.54.27-.82.82-.82.61,0,.92.27.92.82l.05.71,2.4-.05c-.03-.53-.07-1.06-.1-1.58,0-.22.02-.41.05-.56-.63.02-1.23.04-1.81.08-.87.03-1.78.13-2.73.28-.54,0-.82-.23-.82-.69,0-.24.14-.48.41-.74.19-.19.42-.28.71-.28ZM50.76,1.86h1.71l-.15-.71c0-.46.26-.69.79-.69s.82.26.82.79v.61h1.53c.34,0,.64.05.89.15.24.07.36.23.36.48,0,.32-.14.48-.43.48-.88,0-1.67,0-2.35.03v.82c-.02.39-.18.59-.48.59-.36,0-.56-.23-.61-.69l-.13-.66c-.97.05-1.74.13-2.32.23-.43,0-.64-.2-.64-.59,0-.15.08-.33.26-.54.2-.2.46-.31.77-.31ZM58.31,1.68l.94.1h1.05l-.03-.41c0-.61.27-.92.82-.92s.79.26.79.79l-.08.51c1.26-.02,2.18-.04,2.76-.08.19,0,.28.13.28.38,0,.19-.09.37-.26.56-.24.24-.49.36-.77.36-.49-.09-1.22-.14-2.17-.18l-.15,1.12c-.15.26-.37.38-.64.38-.32,0-.48-.2-.48-.59l-.05-.92c-.6.03-1.33.13-2.19.28-.49,0-.74-.16-.74-.48,0-.24.1-.46.31-.66.19-.17.39-.26.61-.26Z"/>
              <path class="cls-6" d="M72.43.56c.54,0,.82.27.82.82l-.18,5.41c1.67-.03,2.88-.08,3.65-.13.19,0,.28.18.28.54,0,.19-.09.37-.26.54-.24.26-.49.38-.77.38-.83-.05-2.04-.09-3.62-.1.05.12.08.25.08.38l-.1.54c-.51,1.94-1.06,3.59-1.63,4.95-.46,1.11-.98,2.01-1.56,2.71-.14.14-.23.2-.28.2-.44,0-.9-.26-1.38-.77-.37-.36-.56-.69-.56-1,.03-.24.27-.37.71-.38.42-.15.75-.32.97-.51.51-.41,1.01-1.18,1.51-2.32.44-1.07.84-2.34,1.2-3.8h-.54c-.65,0-1.56.1-2.73.31-.56,0-.84-.21-.84-.64,0-.24.12-.47.36-.69.2-.22.42-.33.66-.33l1.02.13h2.55l-.1-5.54c0-.46.25-.69.74-.69ZM68.04,2.9c.36.05.63.08.82.08.42,0,.96-.13,1.61-.38.14,0,.2.1.2.31,0,.19-.22.54-.66,1.07-.44.58-.83.87-1.15.87-.29,0-.52-.14-.69-.43-.22-.34-.33-.75-.33-1.22,0-.19.07-.28.2-.28ZM73.62,8.49c.56,0,.84.21.84.64,0,1.36-.07,2.61-.2,3.75,0,.2.07.31.2.31,1.22-.53,1.94-.79,2.14-.79.32,0,.48.16.48.48,0,.44-.23.69-.69.74-.82.17-1.47.39-1.97.66-.39.22-.67.44-.84.66-.14.19-.26.28-.36.28-.43,0-.64-.23-.64-.69,0-.07.07-.2.2-.41.14-.15.22-.4.26-.74.12-.7.18-1.34.18-1.94,0-.77-.07-1.54-.2-2.32,0-.42.2-.64.59-.64ZM74.57,2.27c.05,0,.14.04.28.13.41.46.93.79,1.56,1,.26.07.38.18.38.33,0,.24-.1.45-.31.64s-.47.28-.79.28c-.26,0-.57-.3-.94-.89-.32-.54-.48-.93-.48-1.15s.1-.33.31-.33ZM80.69,3.52l.89.1h1.35v-.1c0-.61.26-.92.79-.92.48,0,.71.31.71.92v.08c1.12-.02,1.94-.04,2.45-.08.22,0,.33.14.33.41,0,.19-.1.37-.31.54-.22.26-.46.38-.71.38-.44-.09-1.04-.14-1.79-.18-.02.51-.03,1.01-.03,1.51.71,0,1.55.03,2.5.08.22,0,.49-.03.82-.08.49,0,.74.2.74.61,0,.02-.03.08-.08.18-.07.17-.13.49-.18.97-.05.61-.08,1.28-.08,1.99,0,.48.04,1.12.13,1.94,0,.42-.2.64-.61.64-1.17-.1-2.24-.17-3.19-.2l.03,1.66c.53.03,1.07.08,1.63.13,1.04.09,1.92.13,2.65.13.56,0,1.24-.1,2.04-.31.12,0,.18.18.18.54,0,.48-.24.99-.71,1.53-.34.41-.64.61-.89.61-.34,0-.74-.14-1.2-.43-.73-.41-1.55-.7-2.45-.87-.39-.07-.8-.13-1.22-.18l.05,2.07c0,1.04-.27,1.56-.82,1.56-.46,0-.69-.52-.69-1.56v-2.14h-.54c-.95,0-1.89.05-2.81.15-.54.07-1.38.36-2.5.87-.53,0-.79-.2-.79-.59,0-.27.11-.5.33-.69.26-.31.62-.46,1.1-.46,2.09-.27,3.68-.41,4.77-.41h.43v-1.61c-1.21,0-1.98.03-2.32.08-.36.03-.78.11-1.28.23-.39,0-.59-.21-.59-.64.12-.99.18-1.85.18-2.6s-.06-1.57-.18-2.58c0-.48.24-.71.71-.71.22,0,.43.02.64.05.22.03.54.05.97.05h1.84c0-.51,0-1.02-.03-1.53-.65.02-1.49.12-2.53.31-.46,0-.69-.18-.69-.54,0-.22.09-.42.28-.61.19-.19.4-.28.64-.28ZM78.12.56c.32,0,.56.04.71.13.24.1.44.15.61.15.75-.07,1.74-.1,2.96-.1,2.31,0,4.3.1,5.95.31l.89-.2c.41,0,.61.18.61.54,0,.12-.04.25-.13.38-.2.51-.37,1.29-.48,2.35,0,.42-.2.64-.59.64-.36,0-.54-.18-.54-.54,0-.75.04-1.43.13-2.04-1.17-.2-2.65-.31-4.42-.31s-3.4.14-4.7.41c0,1.26-.09,2.01-.28,2.25-.09.22-.3.33-.64.33-.26,0-.38-.11-.38-.33,0-1.28-.1-2.4-.31-3.37,0-.39.2-.59.59-.59ZM83.04,11.38v-1.61c-1.04.03-1.93.09-2.68.15-.02.41-.05.78-.1,1.12,0,.29.18.43.54.43.66-.05,1.41-.09,2.25-.1ZM80.44,8.8h2.6v-1.61h-2.14c-.29,0-.43.13-.43.38,0,.42,0,.83-.03,1.22ZM84.37,7.22v1.58h2.53v-1.33c0-.14-.07-.2-.2-.2-.63-.02-1.4-.03-2.32-.05ZM84.39,9.74l.03,1.63c.66.02,1.36.05,2.09.1.26,0,.38-.1.38-.31v-1.45c-.9,0-1.74,0-2.5.03Z"/>
              <path class="cls-6" d="M107.24,1.78h.03c0-.19,0-.37-.03-.54,0-.66.27-1,.82-1s.79.33.79,1c0,.22,0,.42-.03.61l2.71.1c.24,0,.61-.06,1.12-.18.61,0,.92.24.92.71-.1.56-.18,1.13-.23,1.71h1.35l1.4-.2c.27,0,.41.14.41.41,0,.32-.15.64-.46.94-.39.41-.81.61-1.25.61-.48-.09-1.01-.16-1.61-.23-.03.51-.05,1.02-.05,1.53-.02.56-.28.84-.79.84-.94-.12-2.09-.19-3.47-.2l.08,1.3c1.77-.02,3.06-.04,3.88-.08.2,0,.31.13.31.38,0,.2-.09.39-.28.56-.22.26-.47.38-.74.38-.77-.09-1.81-.14-3.14-.18l.05,1.3c2.43-.03,4.22-.07,5.36-.1.2,0,.31.16.31.48,0,.2-.09.39-.28.56-.24.24-.48.36-.74.36-1.14-.03-2.68-.06-4.62-.08l.03.61c0,.83-.18,1.34-.54,1.51.32.05.6.09.82.13,2.25.34,4.06.51,5.44.51.56,0,1.09-.05,1.58-.15.2-.05.36-.08.46-.08.19,0,.28.14.28.43,0,.48-.29,1.05-.87,1.71-.65.68-1.17,1.02-1.56,1.02-.43,0-.87-.09-1.33-.26-2.64-.89-7.53-2.16-14.67-3.83-.15.34-.31.65-.46.94-.48.94-.95,1.62-1.43,2.04-.37.34-.67.51-.89.51-.54,0-1.1-.15-1.66-.43-.48-.29-.71-.55-.71-.79,0-.27.18-.45.54-.54.77-.31,1.34-.61,1.71-.92.41-.27.77-.68,1.1-1.22-.85-.15-1.55-.25-2.09-.28-.61-.03-.92-.35-.92-.94,0-.26.26-.38.79-.38.17,0,.46.03.87.1.7.14,1.35.26,1.97.38.41-.85.86-2.1,1.35-3.75,0-.22-.07-.33-.2-.33-1.16,0-1.9.06-2.22.18-.24.1-.45.15-.64.15-.46,0-.69-.18-.69-.54,0-.17.08-.35.26-.54.19-.19.42-.48.71-.87.78-1.09,1.64-2.28,2.58-3.57,0-.15-.06-.23-.18-.23-.61,0-1.27.03-1.97.08-.41.02-.81.1-1.2.26-.63,0-.94-.21-.94-.64,0-.27.13-.52.38-.74.36-.19.6-.28.74-.28,1.39,0,2.55.07,3.47.2.29,0,.7-.07,1.22-.2.68,0,1.02.21,1.02.64,0,.26-.15.54-.46.87-.6.6-1.63,1.9-3.11,3.9,0,.07.07.1.2.1l1.84.1c.31-.14.55-.2.74-.2.32,0,.48.21.48.64,0,.15-.05.35-.15.59-.27.6-.55,1.36-.84,2.3-.22.82-.46,1.56-.71,2.22,3.86.77,6.7,1.29,8.52,1.58-.19-.27-.28-.73-.28-1.38v-.64h-2.42c-.66,0-1.59.1-2.78.31-.53,0-.79-.2-.79-.59,0-.26.11-.5.33-.74.19-.19.42-.28.69-.28l1,.1h3.96c0-.48,0-.92-.03-1.33h-1.07c-.61,0-1.45.09-2.53.28-.49,0-.74-.16-.74-.48,0-.24.1-.45.31-.64.19-.19.4-.28.64-.28l.92.1h2.45v-1.3c-1.26.03-2.38.13-3.37.28-.43,0-.64-.18-.64-.54,0-.42.18-.69.54-.79.8-.15,1.95-.23,3.45-.23h.03v-1.22c-1.09.02-2.07.07-2.93.15-.71.07-1.55.2-2.5.38-.48,0-.71-.25-.71-.74,0-.19.14-.41.41-.66.26-.24.49-.36.71-.36.32,0,.7.02,1.12.05.66.03,1.37.05,2.12.05.63-.02,1.22-.03,1.79-.03,0-.44,0-.88-.03-1.3-1.07.02-2.22.09-3.45.2-.36,0-.54-.16-.54-.48,0-.42.21-.67.64-.74l3.27-.18ZM108.79,2.98c-.02.46-.03.88-.03,1.28,1.14-.02,2.18-.03,3.11-.03.02-.32.03-.6.03-.84,0-.2-.13-.31-.38-.31-.54-.05-1.45-.09-2.73-.1ZM108.77,5.43l.05,1.25c.73.03,1.57.07,2.5.1.37,0,.54-.18.51-.54,0-.24,0-.46.03-.66-1.16-.09-2.19-.14-3.09-.15Z"/>
              <path class="cls-6" d="M120.3,3.72l1.02.1c3.93,0,6.58-.03,7.94-.1.29,0,.43.16.43.48,0,.26-.11.48-.33.69-.24.29-.5.43-.79.43-1.16-.14-3.04-.2-5.64-.2-.71,0-1.69.1-2.93.31-.54,0-.82-.2-.82-.59,0-.27.12-.54.36-.79.22-.22.48-.33.77-.33ZM120.91,12.07c.24,0,.48.04.71.13.26.07.62.1,1.1.1h2.35c.51,0,1.12.03,1.84.1.24,0,.55-.07.94-.2.48,0,.71.26.71.79,0,.02-.03.08-.1.18-.07.15-.12.44-.15.87-.05.58-.08,1.2-.08,1.86,0,.36.03.85.1,1.48,0,.54-.23.82-.69.82-1.26-.12-2.38-.18-3.37-.18-1.24,0-2.03.02-2.35.05-.29.02-.63.06-1.02.13-.48,0-.71-.24-.71-.71.12-.92.18-1.72.18-2.4,0-.63-.06-1.39-.18-2.3,0-.48.24-.71.71-.71ZM121.5,1.14h5.72c.36,0,.68.06.97.18.26.09.38.26.38.54,0,.36-.18.54-.54.54-3.25,0-5.56.14-6.92.41-.49,0-.74-.25-.74-.74,0-.17.09-.36.28-.56.24-.24.52-.36.84-.36ZM121.71,6.55h5.03c.34,0,.65.06.94.18.24.09.36.26.36.54,0,.34-.16.51-.48.51-2.93,0-5,.14-6.23.43-.49,0-.74-.25-.74-.74,0-.15.09-.34.28-.56.24-.24.52-.36.84-.36ZM121.71,9.44h5.03c.34,0,.65.05.94.15.24.09.36.27.36.56,0,.32-.16.48-.48.48-2.93,0-5,.14-6.23.41-.49,0-.74-.23-.74-.69,0-.17.09-.37.28-.59.24-.22.52-.33.84-.33ZM124.28,16.79c.66,0,1.41.03,2.25.1.26,0,.38-.1.38-.31v-2.78c0-.19-.06-.28-.18-.28-.99-.07-2.42-.1-4.29-.1-.36,0-.54.16-.54.48,0,.92-.07,1.77-.2,2.55,0,.29.21.43.64.43.54-.07,1.19-.1,1.94-.1ZM137.45,8.39c.53,0,.79.32.79.94-.1.36-.17.68-.2.97-.22,1.19-.6,2.25-1.12,3.16-.03.07-.08.14-.13.2.22.12.44.23.66.33,1.75,1.04,3.59,1.59,5.51,1.66.32,0,.48.1.48.31,0,.41-.47.94-1.4,1.61-.78.41-1.47.61-2.07.61-.31,0-.6-.14-.89-.41-1-.87-2.1-1.77-3.29-2.71-.48.54-1.03,1.01-1.66,1.4-1.24.82-2.19,1.22-2.83,1.22-.58,0-1.13-.25-1.66-.74-.44-.42-.66-.86-.66-1.3,0-.29.13-.43.38-.43l1.22.23c.75,0,1.45-.14,2.12-.41.7-.27,1.28-.62,1.76-1.05-1.26-1-2.59-2.06-3.98-3.16-.32-.2-.48-.4-.48-.59,0-.42.27-.64.82-.64,1.62,1.26,3.17,2.35,4.67,3.27.32-.49.6-1.02.82-1.58.24-.71.37-1.4.41-2.07,0-.56.25-.84.74-.84ZM131.71,1.04c.37,0,.64.04.79.13.31.14.56.2.77.2.27-.09.65-.13,1.12-.13,1.43,0,2.65.11,3.65.33l1.12-.2c.49,0,.74.16.74.48,0,.19-.05.4-.15.64-.27.78-.47,2.01-.59,3.67h.1l1.56-.1c.32,0,.48.2.48.59,0,.26-.1.47-.31.64-.19.19-.39.28-.61.28-1.21-.07-2.64-.1-4.29-.1-1.14,0-2.27.04-3.39.13-.82.02-1.68.12-2.6.31-.63,0-.94-.24-.94-.71,0-.22.14-.48.41-.77.22-.17.49-.26.82-.26.36.03.66.06.92.08-.02-1.74-.14-3.26-.38-4.57,0-.42.26-.64.79-.64ZM132.6,6.22l2.71-.05h2.53c0-1.24.03-2.36.1-3.37-.54-.2-1.22-.31-2.04-.31-1.24,0-2.3.14-3.16.41,0,1.63-.04,2.74-.13,3.32Z"/>
            </g>
          </g>
        </g>
      </g>
    </g>
  </g>
</svg>