<?xml version="1.0" encoding="UTF-8"?>
<svg xmlns="http://www.w3.org/2000/svg" viewBox="0 0 533.08 9.31">
  <defs>
    <style>
      .cls-1 {
        isolation: isolate;
      }

      .cls-2 {
        mix-blend-mode: lighten;
        opacity: .49;
      }

      .cls-3 {
        fill: #2ca0da;
      }
    </style>
  </defs>
  <g class="cls-1">
    <g id="_圖層_2" data-name="圖層 2">
      <g id="context">
        <g>
          <g class="cls-2">
            <path class="cls-3" d="M.08,1.81c-.02-.57-.05-1.15-.08-1.72,.16,.02,.32,.03,.51,.05s.39,.02,.62,.02c.32,0,.65-.01,1-.03,.34-.02,.68-.03,1.01-.03,.65,0,1.16,.05,1.52,.14,.37,.09,.65,.23,.87,.41,.29,.23,.51,.49,.65,.77s.21,.63,.21,1.02c0,.51-.09,.94-.26,1.3-.17,.36-.42,.66-.73,.88-.32,.23-.69,.39-1.12,.5s-.9,.16-1.41,.16h-.7c0,.67,0,1.33,.02,1.99,.01,.66,.04,1.32,.09,1.96-.16-.02-.32-.03-.51-.03H.51c-.18,0-.35,0-.51,.03,.04-.55,.06-1.11,.08-1.68,.02-.57,.03-1.23,.03-1.96v-1.81c0-.74,0-1.39-.03-1.96Zm4-.02c-.08-.23-.18-.41-.32-.55-.13-.14-.29-.24-.47-.3-.18-.06-.36-.09-.56-.09h-.45s-.09,0-.12,.01c0,.64-.02,1.27-.02,1.88,0,.62,0,1.23,0,1.86,.23,0,.46-.02,.71-.07,.24-.04,.46-.14,.67-.27s.37-.33,.49-.59c.13-.26,.19-.6,.19-1.02,0-.34-.04-.62-.12-.85Z"/>
            <path class="cls-3" d="M30.8,1.81c-.02-.57-.05-1.15-.08-1.72,.16,.02,.32,.03,.51,.05,.18,.01,.39,.02,.62,.02s.43,0,.62-.02,.35-.03,.51-.05c-.04,.58-.06,1.15-.08,1.72-.02,.57-.03,1.23-.03,1.96v1.81c0,.51,0,.99,0,1.46,0,.47,.01,.88,.02,1.22,.52,0,1.04-.01,1.57-.04,.52-.03,1.05-.07,1.58-.13-.02,.1-.03,.19-.04,.27,0,.08-.01,.19-.01,.33s0,.25,.01,.33c0,.08,.02,.15,.04,.2-.25,0-.55-.02-.91-.02-.36,0-.86,0-1.49,0h-2.18c-.21,0-.36,0-.47,0-.11,0-.19,.01-.27,.02,.04-.55,.06-1.11,.08-1.68,.02-.57,.03-1.23,.03-1.96v-1.81c0-.74,0-1.39-.03-1.96Z"/>
            <path class="cls-3" d="M69.16,9.26c-.22-.02-.43-.03-.63-.03h-1.17c-.2,0-.39,0-.58,.03-.15-.43-.3-.88-.45-1.33s-.32-.9-.49-1.36c-.29,0-.59-.02-.88-.02-.29,0-.59,0-.88,0-.24,0-.48,0-.71,0-.24,0-.48,.01-.71,.02-.18,.45-.35,.9-.51,1.36-.16,.45-.3,.9-.43,1.33-.11-.02-.22-.03-.32-.03h-.65c-.11,0-.23,0-.36,.03,.11-.23,.26-.55,.44-.96,.18-.41,.38-.87,.6-1.38,.22-.51,.46-1.07,.71-1.66,.25-.59,.5-1.19,.76-1.79,.25-.6,.5-1.2,.74-1.78,.24-.59,.46-1.13,.67-1.64,.09,.02,.18,.03,.26,.05s.17,.02,.26,.02,.18,0,.26-.02c.08-.01,.17-.03,.26-.05,.29,.75,.61,1.56,.94,2.42,.33,.86,.67,1.7,1.01,2.53,.34,.83,.67,1.62,.99,2.36,.32,.74,.61,1.37,.88,1.89Zm-4.86-6.64c-.24,.53-.46,1.06-.67,1.58s-.42,1.05-.62,1.59h2.51c-.2-.54-.4-1.07-.6-1.59-.2-.52-.41-1.04-.63-1.58Z"/>
            <path class="cls-3" d="M96.05,1.55c0-.21-.02-.37-.03-.47-.14,0-.31,0-.51,.01-.2,0-.42,.02-.65,.03-.23,.01-.46,.03-.7,.05-.24,.02-.46,.05-.66,.07,.02-.1,.03-.19,.05-.29,.01-.1,.02-.19,.02-.29s0-.19-.02-.29c-.01-.1-.03-.19-.05-.29,.31,0,.59,.02,.84,.03,.25,0,.51,.02,.77,.02,.26,0,.55,0,.85,.01,.31,0,.68,0,1.11,0s.8,0,1.11,0c.31,0,.59,0,.84-.01,.26,0,.51-.01,.75-.02,.24,0,.51-.02,.79-.03-.02,.1-.03,.2-.05,.29-.01,.1-.02,.2-.02,.29s0,.19,.02,.29c.01,.1,.03,.2,.05,.29-.18-.03-.39-.05-.62-.07-.23-.02-.46-.04-.68-.05-.22-.01-.44-.02-.64-.03-.2,0-.37-.01-.51-.01,0,.04-.02,.11-.02,.19,0,.08,0,.17,0,.28V5.58c0,.74,0,1.39,.03,1.96,.02,.57,.05,1.13,.08,1.68-.16-.02-.33-.03-.51-.03h-1.24c-.18,0-.35,0-.51,.03,.04-.55,.06-1.11,.08-1.68,.02-.57,.03-1.23,.03-1.96V2.25c0-.26,0-.49,0-.7Z"/>
            <path class="cls-3" d="M124.99,1.81c-.02-.57-.05-1.15-.08-1.72,.16,.02,.32,.03,.51,.05,.18,.01,.39,.02,.62,.02s.43,0,.62-.02,.35-.03,.51-.05c-.04,.58-.06,1.15-.08,1.72-.02,.57-.03,1.23-.03,1.96v1.81c0,.74,0,1.39,.03,1.96,.02,.57,.05,1.13,.08,1.68-.16-.02-.32-.03-.51-.03h-1.24c-.18,0-.35,0-.51,.03,.04-.55,.06-1.11,.08-1.68,.02-.57,.03-1.23,.03-1.96v-1.81c0-.74,0-1.39-.03-1.96Z"/>
            <path class="cls-3" d="M151.75,1.19c-.02-.42-.03-.78-.04-1.1,.26,.04,.46,.07,.62,.07s.36-.02,.62-.07c1,1.07,1.98,2.13,2.96,3.17,.97,1.04,1.98,2.09,3,3.17V3.97c0-.43,0-.86,0-1.28,0-.42,0-.81-.01-1.16,0-.35-.01-.66-.03-.92s-.03-.43-.05-.52c.26,.04,.46,.07,.62,.07s.36-.02,.62-.07c-.05,.81-.08,1.54-.11,2.19-.03,.65-.05,1.27-.07,1.84-.02,.58-.03,1.15-.03,1.71,0,.56,0,1.16,0,1.8v1.6c-.18-.02-.37-.03-.56-.03s-.38,0-.54,.03c-1.89-2.13-3.89-4.27-6-6.42,0,.26-.02,.51-.02,.77,0,.26,0,.52,0,.78v1.54c0,.53,0,.98,0,1.36,0,.37,.01,.69,.02,.94,0,.26,.02,.47,.03,.63,0,.16,.02,.29,.03,.39-.11-.02-.22-.03-.33-.03h-.32c-.21,0-.42,0-.63,.03,.02-.07,.04-.32,.07-.76s.06-.96,.09-1.59c.03-.63,.06-1.3,.08-2.04,.02-.73,.03-1.43,.03-2.11,0-.61,0-1.13-.03-1.54Z"/>
            <path class="cls-3" d="M186.95,9.13c-.51-.12-.95-.32-1.33-.6-.38-.28-.67-.64-.89-1.08-.22-.44-.32-.97-.32-1.6,0-.35,0-.67,0-.95,0-.28,0-.54,0-.78s0-.47,0-.69c0-.22,0-.45,0-.69,0-.72,0-1.3-.01-1.74,0-.44-.02-.78-.04-1,.18,.02,.37,.03,.56,.05,.19,.01,.38,.02,.56,.02s.37,0,.56-.02c.19-.01,.38-.03,.56-.05-.09,.86-.15,1.66-.16,2.4-.02,.74-.03,1.49-.03,2.25,0,.81,.06,1.46,.18,1.96s.3,.88,.53,1.15c.23,.27,.52,.45,.86,.54,.34,.09,.73,.13,1.18,.13,.55,0,.98-.13,1.29-.4,.31-.27,.55-.62,.71-1.06,.16-.44,.26-.95,.3-1.52,.04-.57,.05-1.17,.05-1.79s0-1.22-.03-1.83c-.02-.61-.05-1.22-.08-1.83,.13,.02,.25,.03,.37,.05s.23,.02,.33,.02c.12,0,.23,0,.34-.02s.22-.03,.34-.05c-.02,.2-.04,.46-.05,.78-.02,.33-.04,.71-.06,1.14-.02,.43-.03,.9-.05,1.42s-.02,1.07-.02,1.64c0,1.54-.34,2.65-1.03,3.32-.69,.67-1.69,1-3.02,1-.59,0-1.13-.06-1.64-.18Z"/>
            <path class="cls-3" d="M218.68,6.24c-.07,.99-.15,1.99-.22,2.98-.11-.02-.22-.03-.33-.03h-.64c-.11,0-.21,0-.32,.03,.29-1.52,.55-3.04,.78-4.55,.23-1.51,.44-3.04,.63-4.59,.1,.02,.19,.03,.28,.05,.09,.01,.18,.02,.28,.02,.08,0,.17,0,.26-.02s.19-.03,.29-.05c.25,.53,.51,1.07,.78,1.62,.27,.55,.54,1.1,.81,1.64s.54,1.08,.81,1.6c.27,.52,.53,1.02,.78,1.49,.55-.99,1.1-2.03,1.64-3.12,.55-1.09,1.06-2.17,1.56-3.24,.23,.04,.43,.07,.59,.07,.16,0,.35-.02,.58-.07,.09,.76,.19,1.58,.3,2.46,.1,.88,.21,1.74,.31,2.57,.1,.84,.2,1.62,.3,2.35,.1,.73,.19,1.31,.27,1.76-.18-.02-.37-.03-.56-.03h-1.12c-.19,0-.38,0-.58,.03-.05-.91-.12-1.9-.23-2.97-.11-1.06-.21-2.12-.32-3.17h-.03c-.52,1.05-1.04,2.07-1.54,3.09-.5,1.01-1,2.03-1.5,3.05-.05,0-.09-.02-.13-.02-.04,0-.08,0-.13,0s-.09,0-.13,0c-.04,0-.09,.01-.13,.02-.49-.99-.99-1.99-1.48-2.98-.49-.99-1-2-1.52-3.02h-.03c-.15,1.02-.26,2.03-.33,3.02Z"/>
          </g>
          <g class="cls-2">
            <path class="cls-3" d="M271.68,5.03v.55c0,.74,0,1.39,.03,1.96,.02,.57,.05,1.13,.08,1.68-.16-.02-.32-.03-.51-.03h-1.24c-.18,0-.35,0-.51,.03,.04-.55,.06-1.11,.08-1.68,.02-.57,.03-1.23,.03-1.96v-1.81c0-.74,0-1.39-.03-1.96-.02-.57-.05-1.15-.08-1.72,.16,.02,.32,.03,.51,.05,.18,.01,.39,.02,.62,.02,.25,0,.53-.01,.84-.03,.32-.02,.71-.03,1.17-.03,.35,0,.65,0,.89,.03,.25,.02,.46,.04,.64,.08,.18,.04,.33,.08,.47,.14s.26,.13,.38,.21c.27,.19,.49,.44,.65,.72,.16,.29,.24,.63,.24,1.03,0,.65-.18,1.18-.55,1.58-.37,.41-.89,.7-1.58,.86,.44,.75,.91,1.51,1.41,2.25,.5,.75,1.01,1.49,1.51,2.23-.21-.02-.42-.03-.62-.03h-1.24c-.21,0-.41,0-.62,.03l-2.46-4.19h-.12Zm2.05-3.38c-.08-.23-.21-.41-.38-.53-.17-.12-.39-.2-.66-.23-.27-.04-.59-.05-.97-.05-.03,1.21-.04,2.41-.04,3.62,.05,0,.11,.02,.16,.02,.05,0,.1,0,.14,0,.6,0,1.07-.16,1.39-.47,.32-.31,.48-.79,.48-1.43,0-.39-.04-.7-.12-.93Z"/>
            <path class="cls-3" d="M302.02,1.81c-.02-.57-.05-1.15-.08-1.72,.16,.02,.32,.03,.51,.05,.18,.01,.39,.02,.62,.02s.43,0,.62-.02,.35-.03,.51-.05c-.04,.58-.06,1.15-.08,1.72-.02,.57-.03,1.23-.03,1.96v1.81c0,.74,0,1.39,.03,1.96,.02,.57,.05,1.13,.08,1.68-.16-.02-.32-.03-.51-.03h-1.24c-.18,0-.35,0-.51,.03,.04-.55,.06-1.11,.08-1.68,.02-.57,.03-1.23,.03-1.96v-1.81c0-.74,0-1.39-.03-1.96Z"/>
            <path class="cls-3" d="M335.66,3.37c.45-1.14,.85-2.23,1.21-3.28,.23,.04,.43,.07,.6,.07s.38-.02,.6-.07c-.23,.52-.5,1.15-.82,1.89s-.65,1.52-1,2.34c-.35,.82-.69,1.66-1.03,2.51-.34,.85-.64,1.65-.91,2.39-.18-.02-.38-.03-.6-.03s-.42,0-.6,.03c-.14-.35-.3-.78-.5-1.29-.2-.51-.41-1.04-.63-1.61-.22-.57-.46-1.15-.71-1.74-.25-.59-.49-1.17-.71-1.72s-.44-1.07-.65-1.55c-.2-.48-.38-.89-.52-1.22,.21,.02,.42,.03,.63,.05s.41,.02,.61,.02,.4,0,.6-.02,.4-.03,.6-.05c.16,.5,.33,1.02,.53,1.57,.2,.55,.4,1.11,.61,1.68,.21,.57,.43,1.15,.65,1.72,.22,.58,.44,1.14,.65,1.7,.48-1.13,.94-2.26,1.39-3.4Z"/>
            <path class="cls-3" d="M363.33,1.81c-.02-.57-.04-1.15-.07-1.72,.41,0,.82,.02,1.22,.04,.4,.02,.81,.03,1.22,.03,.68,0,1.28,0,1.81-.02,.53-.01,.88-.03,1.06-.05-.04,.14-.05,.33-.05,.56,0,.14,0,.25,.01,.33,0,.08,.02,.17,.04,.27-.27-.02-.56-.04-.87-.05-.32-.02-.62-.04-.92-.05-.3-.02-.57-.03-.8-.04-.24,0-.41-.01-.51-.01-.04,.49-.06,.97-.06,1.45s0,.96,0,1.45c.6,0,1.13-.02,1.61-.04,.48-.02,.98-.04,1.5-.07-.03,.15-.05,.27-.06,.35,0,.08-.01,.16-.01,.25,0,.07,0,.14,.02,.22,.01,.08,.03,.18,.05,.33-1.04-.08-2.08-.12-3.12-.12,0,.28,0,.57,0,.85,0,.28,0,.57,0,.85,0,.58,.01,1.13,.04,1.66,.52,0,1.04-.01,1.57-.04s1.05-.07,1.58-.13c-.02,.1-.03,.19-.04,.27,0,.08-.01,.19-.01,.33s0,.25,.01,.33c0,.08,.02,.15,.04,.2-.25,0-.55-.02-.91-.02-.36,0-.86,0-1.49,0h-2.18c-.21,0-.36,0-.47,0-.11,0-.19,.01-.27,.02,.03-.55,.06-1.11,.07-1.68,.02-.57,.02-1.23,.02-1.96v-1.81c0-.74,0-1.39-.02-1.96Z"/>
            <path class="cls-3" d="M395.91,5.03v.55c0,.74,0,1.39,.03,1.96,.02,.57,.05,1.13,.08,1.68-.16-.02-.32-.03-.51-.03h-1.24c-.18,0-.35,0-.51,.03,.04-.55,.06-1.11,.08-1.68,.02-.57,.03-1.23,.03-1.96v-1.81c0-.74,0-1.39-.03-1.96-.02-.57-.05-1.15-.08-1.72,.16,.02,.32,.03,.51,.05,.18,.01,.39,.02,.62,.02,.25,0,.53-.01,.84-.03,.32-.02,.71-.03,1.17-.03,.35,0,.65,0,.89,.03,.25,.02,.46,.04,.64,.08,.18,.04,.33,.08,.47,.14s.26,.13,.38,.21c.27,.19,.49,.44,.65,.72,.16,.29,.24,.63,.24,1.03,0,.65-.18,1.18-.55,1.58-.37,.41-.89,.7-1.58,.86,.44,.75,.91,1.51,1.41,2.25,.5,.75,1.01,1.49,1.51,2.23-.21-.02-.42-.03-.62-.03h-1.24c-.21,0-.41,0-.62,.03l-2.46-4.19h-.12Zm2.05-3.38c-.08-.23-.21-.41-.38-.53-.17-.12-.39-.2-.66-.23-.27-.04-.59-.05-.97-.05-.03,1.21-.04,2.41-.04,3.62,.05,0,.11,.02,.16,.02,.05,0,.1,0,.14,0,.6,0,1.07-.16,1.39-.47,.32-.31,.48-.79,.48-1.43,0-.39-.04-.7-.12-.93Z"/>
            <path class="cls-3" d="M426.26,1.81c-.02-.57-.05-1.15-.09-1.72,.16,.02,.32,.03,.51,.05,.18,.01,.39,.02,.62,.02,.39,0,.81-.01,1.24-.03,.43-.02,.84-.03,1.24-.03s.79,.04,1.13,.12,.63,.2,.88,.37c.25,.16,.44,.38,.57,.64,.13,.26,.2,.57,.2,.94s-.08,.68-.23,.94-.35,.48-.57,.65c-.23,.17-.47,.31-.73,.41-.26,.1-.5,.16-.71,.2v.03c.21,0,.46,.06,.74,.14,.28,.08,.55,.22,.81,.39,.26,.18,.47,.41,.65,.69,.18,.28,.27,.62,.27,1.02,0,.48-.09,.89-.27,1.22-.18,.34-.42,.61-.71,.82-.3,.21-.64,.36-1.02,.45s-.78,.13-1.19,.13c-.37,0-.71,0-1.02-.01-.32,0-.65-.01-.99-.01h-.76c-.26,0-.47,0-.62,.03,.04-.55,.07-1.11,.09-1.68,.02-.57,.03-1.23,.03-1.96v-1.81c0-.74-.01-1.39-.03-1.96Zm4.17-.01c-.05-.19-.14-.35-.25-.49-.12-.14-.27-.25-.45-.33s-.41-.13-.69-.13c-.2,0-.34,0-.42,0-.08,0-.16,.02-.25,.03-.02,.33-.03,.66-.04,1,0,.34-.01,.62-.01,.85s0,.47,0,.68c0,.22,0,.44,0,.67h.62c.19,0,.38-.04,.57-.11s.35-.18,.5-.31c.15-.14,.27-.31,.36-.53s.14-.46,.14-.74c0-.21-.03-.41-.08-.61Zm-.26,3.51c-.29-.31-.71-.46-1.26-.46-.13,0-.24,0-.33,0-.09,0-.18,0-.26,0,0,.19,0,.38,0,.58,0,.2,0,.44,0,.71,0,.21,0,.43,0,.65,0,.22,0,.44,0,.65s0,.41,0,.59c0,.18,0,.32,0,.44,.13,0,.25,.02,.36,.02,.11,0,.24,0,.4,0,.2,0,.39-.04,.58-.12,.18-.08,.34-.2,.48-.35,.14-.15,.25-.34,.33-.56s.12-.48,.12-.77c0-.62-.14-1.08-.43-1.39Z"/>
            <path class="cls-3" d="M466.72,9.26c-.22-.02-.43-.03-.63-.03h-1.17c-.2,0-.39,0-.58,.03-.15-.43-.3-.88-.45-1.33s-.32-.9-.49-1.36c-.29,0-.59-.02-.88-.02-.29,0-.59,0-.88,0-.24,0-.48,0-.71,0-.24,0-.48,.01-.71,.02-.18,.45-.35,.9-.51,1.36-.16,.45-.3,.9-.43,1.33-.11-.02-.22-.03-.32-.03h-.65c-.11,0-.23,0-.36,.03,.11-.23,.26-.55,.44-.96,.18-.41,.38-.87,.6-1.38,.22-.51,.46-1.07,.71-1.66,.25-.59,.5-1.19,.76-1.79,.25-.6,.5-1.2,.74-1.78,.24-.59,.46-1.13,.67-1.64,.09,.02,.18,.03,.26,.05s.17,.02,.26,.02,.18,0,.26-.02c.08-.01,.17-.03,.26-.05,.29,.75,.61,1.56,.94,2.42,.33,.86,.67,1.7,1.01,2.53,.34,.83,.67,1.62,.99,2.36s.61,1.37,.88,1.89Zm-4.86-6.64c-.24,.53-.46,1.06-.67,1.58s-.42,1.05-.62,1.59h2.51c-.2-.54-.4-1.07-.6-1.59-.2-.52-.41-1.04-.63-1.58Z"/>
            <path class="cls-3" d="M492.16,1.19c-.02-.42-.03-.78-.04-1.1,.26,.04,.46,.07,.62,.07s.36-.02,.62-.07c1,1.07,1.98,2.13,2.96,3.17,.97,1.04,1.98,2.09,3,3.17V3.97c0-.43,0-.86,0-1.28,0-.42,0-.81-.01-1.16,0-.35-.01-.66-.03-.92-.01-.26-.03-.43-.05-.52,.26,.04,.46,.07,.62,.07s.36-.02,.62-.07c-.05,.81-.08,1.54-.11,2.19-.03,.65-.05,1.27-.07,1.84-.02,.58-.03,1.15-.03,1.71,0,.56,0,1.16,0,1.8v1.6c-.18-.02-.37-.03-.56-.03s-.38,0-.54,.03c-1.89-2.13-3.89-4.27-6-6.42,0,.26-.02,.51-.02,.77,0,.26,0,.52,0,.78v1.54c0,.53,0,.98,0,1.36,0,.37,.01,.69,.02,.94,0,.26,.02,.47,.03,.63,0,.16,.02,.29,.03,.39-.11-.02-.22-.03-.33-.03h-.32c-.21,0-.42,0-.63,.03,.02-.07,.04-.32,.07-.76s.06-.96,.09-1.59c.03-.63,.06-1.3,.08-2.04,.02-.73,.03-1.43,.03-2.11,0-.61,0-1.13-.03-1.54Z"/>
            <path class="cls-3" d="M527.8,7.57c0,.69,.04,1.24,.1,1.65-.16-.02-.32-.03-.51-.03h-1.24c-.18,0-.35,0-.51,.03,.04-.55,.06-1.11,.08-1.68,.02-.57,.03-1.23,.03-1.96v-1.81c0-.74,0-1.39-.03-1.96-.02-.57-.05-1.15-.08-1.72,.16,.02,.32,.03,.51,.05s.39,.02,.62,.02,.43,0,.62-.02,.35-.03,.51-.05c-.05,.27-.08,.67-.09,1.2s-.02,1.12-.02,1.77v1.28c.31-.35,.65-.74,1-1.16,.36-.42,.7-.83,1.03-1.23,.33-.4,.63-.77,.89-1.1,.27-.33,.46-.58,.58-.75,.13,.02,.26,.03,.38,.05,.13,.01,.26,.02,.38,.02s.26,0,.39-.02,.28-.03,.43-.05c-.16,.15-.39,.39-.71,.73-.32,.34-.66,.7-1.02,1.09s-.71,.77-1.04,1.14c-.33,.37-.59,.66-.77,.87,.29,.43,.62,.91,.98,1.44,.36,.52,.71,1.04,1.06,1.54,.35,.5,.68,.96,.98,1.38,.3,.42,.54,.74,.73,.95-.27-.02-.5-.03-.71-.03h-1.22c-.2,0-.4,0-.6,.03-.47-.67-.92-1.36-1.37-2.05-.45-.7-.91-1.39-1.37-2.08h-.03c0,.97,0,1.8,.01,2.49Z"/>
          </g>
        </g>
      </g>
    </g>
  </g>
</svg>