<?xml version="1.0" encoding="UTF-8"?>
<svg xmlns="http://www.w3.org/2000/svg" viewBox="0 0 1049.79 15.12">
  <defs>
    <style>
      .cls-1 {
        fill: #fff;
      }

      .cls-2 {
        isolation: isolate;
      }

      .cls-3 {
        mix-blend-mode: lighten;
        opacity: .3;
      }
    </style>
  </defs>
  <g class="cls-2">
    <g id="_圖層_2" data-name="圖層 2">
      <g id="_圖層_1-2" data-name="圖層 1">
        <g class="cls-3">
          <path class="cls-1" d="M.12,2.55C.09,1.75,.05,.94,0,.12c.22,.03,.46,.05,.72,.07s.55,.03,.87,.03c.45,0,.92-.02,1.41-.05,.48-.03,.96-.05,1.42-.05,.92,0,1.63,.07,2.15,.2,.52,.13,.92,.32,1.22,.57,.41,.33,.72,.69,.91,1.09,.19,.4,.29,.88,.29,1.45,0,.71-.12,1.33-.37,1.84-.25,.51-.59,.93-1.04,1.25-.45,.32-.97,.55-1.58,.7-.61,.15-1.27,.23-2,.23h-.99c0,.94,0,1.87,.03,2.81,.02,.93,.06,1.86,.13,2.77-.22-.03-.46-.04-.72-.04H.72c-.26,0-.5,.01-.72,.04,.05-.78,.09-1.57,.12-2.37,.03-.81,.04-1.73,.04-2.77v-2.55c0-1.04-.01-1.96-.04-2.77Zm5.65-.03c-.11-.33-.26-.58-.45-.78-.19-.19-.41-.33-.66-.42-.25-.09-.51-.13-.78-.13h-.64c-.06,0-.12,0-.17,.02-.01,.9-.02,1.79-.03,2.66,0,.87,0,1.74,0,2.62,.32,0,.66-.03,1-.09,.34-.06,.66-.19,.94-.38,.28-.19,.52-.47,.7-.84,.18-.36,.27-.84,.27-1.45,0-.48-.05-.88-.16-1.2Z"/>
          <path class="cls-1" d="M68.58,2.55c-.03-.81-.06-1.62-.12-2.43,.22,.03,.46,.05,.72,.07,.26,.02,.55,.03,.87,.03s.61,0,.87-.03,.5-.04,.72-.07c-.05,.81-.09,1.62-.12,2.43-.03,.81-.04,1.73-.04,2.77v2.55c0,.71,0,1.4,0,2.07,0,.66,.02,1.24,.03,1.73,.74,0,1.47-.02,2.21-.06,.74-.04,1.48-.1,2.23-.19-.03,.14-.05,.26-.06,.38-.01,.11-.02,.27-.02,.47s0,.36,.02,.47c.01,.11,.03,.21,.06,.28-.35-.01-.78-.02-1.29-.03-.51,0-1.21,0-2.1,0h-3.07c-.29,0-.51,0-.66,0-.15,0-.27,.02-.38,.03,.05-.78,.09-1.57,.12-2.37,.03-.81,.04-1.73,.04-2.77v-2.55c0-1.04-.01-1.96-.04-2.77Z"/>
          <path class="cls-1" d="M146.12,13.07c-.31-.03-.6-.04-.88-.04h-1.65c-.28,0-.55,.01-.82,.04-.21-.61-.42-1.24-.64-1.88-.22-.64-.45-1.28-.7-1.91-.41-.01-.83-.02-1.24-.03-.41,0-.83,0-1.24,0-.34,0-.67,0-1.01,0-.34,0-.67,.02-1.01,.03-.26,.64-.5,1.28-.72,1.91-.22,.64-.42,1.26-.6,1.88-.15-.03-.31-.04-.46-.04h-.92c-.15,0-.32,.01-.5,.04,.15-.33,.36-.78,.62-1.35,.26-.58,.54-1.23,.85-1.95,.31-.73,.64-1.5,1-2.34,.36-.83,.71-1.67,1.07-2.52,.35-.85,.7-1.69,1.05-2.52,.34-.83,.66-1.6,.94-2.31,.13,.02,.25,.05,.37,.07s.24,.03,.37,.03,.25,0,.37-.03c.12-.02,.24-.04,.37-.07,.41,1.06,.86,2.2,1.33,3.42,.47,1.21,.95,2.41,1.42,3.58,.48,1.17,.94,2.28,1.4,3.33,.45,1.05,.87,1.94,1.24,2.67Zm-6.86-9.37c-.34,.75-.65,1.49-.95,2.22s-.59,1.48-.87,2.24h3.55c-.28-.76-.57-1.51-.84-2.24-.28-.73-.57-1.47-.88-2.22Z"/>
          <path class="cls-1" d="M206.26,2.19c0-.3-.02-.52-.05-.66-.19,0-.43,0-.72,.02-.28,.01-.59,.03-.91,.05-.32,.02-.65,.04-.99,.08-.34,.03-.65,.07-.93,.1,.03-.14,.05-.28,.07-.41,.02-.14,.03-.28,.03-.41s0-.28-.03-.41c-.02-.14-.04-.28-.07-.41,.44,.01,.84,.03,1.19,.04,.36,.01,.72,.02,1.09,.03,.37,0,.77,.01,1.2,.02,.43,0,.95,0,1.56,0s1.13,0,1.56,0c.43,0,.83-.01,1.19-.02,.36,0,.71-.02,1.06-.03,.34-.01,.71-.02,1.11-.04-.03,.14-.05,.28-.07,.41-.02,.14-.03,.28-.03,.41s0,.28,.03,.41c.02,.14,.04,.28,.07,.41-.26-.04-.55-.07-.87-.1-.32-.03-.64-.06-.96-.08-.32-.02-.62-.03-.9-.05-.28-.01-.52-.02-.72-.02-.01,.06-.02,.15-.03,.26,0,.11,0,.24,0,.39V7.87c0,1.04,.01,1.96,.04,2.77,.03,.81,.06,1.6,.12,2.37-.22-.03-.46-.04-.72-.04h-1.74c-.26,0-.5,.01-.72,.04,.05-.78,.09-1.57,.12-2.37,.03-.81,.04-1.73,.04-2.77V3.18c0-.36,0-.69,0-.99Z"/>
          <path class="cls-1" d="M273.89,2.55c-.03-.81-.06-1.62-.12-2.43,.22,.03,.46,.05,.72,.07,.26,.02,.55,.03,.87,.03s.61,0,.87-.03,.5-.04,.72-.07c-.05,.81-.09,1.62-.12,2.43-.03,.81-.04,1.73-.04,2.77v2.55c0,1.04,.01,1.96,.04,2.77,.03,.81,.06,1.6,.12,2.37-.22-.03-.46-.04-.72-.04h-1.74c-.26,0-.5,.01-.72,.04,.05-.78,.09-1.57,.12-2.37,.03-.81,.04-1.73,.04-2.77v-2.55c0-1.04-.01-1.96-.04-2.77Z"/>
          <path class="cls-1" d="M337.4,1.68c-.03-.59-.05-1.11-.06-1.56,.36,.06,.65,.09,.87,.09s.51-.03,.87-.09c1.41,1.51,2.8,3,4.18,4.47,1.38,1.46,2.79,2.95,4.24,4.47v-3.45c0-.61,0-1.22,0-1.81,0-.59-.01-1.14-.02-1.64,0-.5-.02-.93-.04-1.29s-.04-.61-.07-.73c.36,.06,.65,.09,.87,.09s.51-.03,.87-.09c-.06,1.14-.12,2.17-.16,3.09-.04,.92-.07,1.79-.1,2.6-.03,.81-.04,1.62-.05,2.41,0,.79,0,1.64,0,2.54v2.25c-.26-.03-.52-.04-.79-.04s-.54,.01-.76,.04c-2.66-3-5.49-6.03-8.47-9.07-.01,.36-.02,.73-.03,1.09,0,.36,0,.73,0,1.11v2.18c0,.75,0,1.39,0,1.91,0,.53,.02,.97,.03,1.33,.01,.36,.03,.66,.04,.89,.01,.23,.03,.42,.04,.55-.16-.03-.31-.04-.47-.04h-.45c-.3,0-.59,.01-.89,.04,.03-.1,.06-.46,.1-1.07s.08-1.36,.13-2.24c.05-.88,.08-1.84,.12-2.87,.03-1.03,.05-2.02,.05-2.98,0-.86-.01-1.59-.04-2.18Z"/>
          <path class="cls-1" d="M408.46,12.89c-.72-.17-1.34-.45-1.87-.84-.53-.39-.95-.9-1.25-1.52s-.46-1.37-.46-2.26c0-.5,0-.95,0-1.34,0-.39,0-.76,0-1.1s0-.66,0-.98c0-.31,0-.64,0-.98,0-1.01,0-1.83-.02-2.46-.01-.63-.03-1.09-.06-1.41,.26,.03,.52,.05,.79,.07,.27,.02,.54,.03,.79,.03s.52,0,.79-.03c.27-.02,.54-.04,.79-.07-.13,1.21-.21,2.34-.23,3.39-.03,1.05-.04,2.11-.04,3.18,0,1.14,.08,2.06,.25,2.76s.42,1.24,.75,1.62c.33,.38,.73,.64,1.21,.76,.48,.13,1.03,.19,1.67,.19,.78,0,1.38-.19,1.82-.56,.44-.38,.77-.88,1-1.5,.23-.63,.36-1.34,.42-2.15,.05-.81,.08-1.65,.08-2.52s-.01-1.72-.04-2.58c-.03-.86-.06-1.72-.12-2.58,.18,.03,.35,.05,.52,.07s.32,.03,.47,.03c.17,0,.33,0,.48-.03s.32-.04,.48-.07c-.03,.28-.05,.64-.08,1.11-.03,.46-.05,1-.08,1.61-.03,.61-.05,1.28-.07,2.01s-.03,1.51-.03,2.32c0,2.18-.48,3.74-1.45,4.68s-2.39,1.42-4.26,1.42c-.83,0-1.6-.08-2.32-.25Z"/>
          <path class="cls-1" d="M472.71,8.81c-.1,1.4-.21,2.8-.31,4.21-.15-.03-.31-.04-.47-.04h-.9c-.15,0-.3,.01-.46,.04,.41-2.15,.78-4.29,1.1-6.42,.32-2.13,.62-4.29,.89-6.48,.14,.03,.27,.05,.4,.07,.12,.02,.25,.03,.4,.03,.12,0,.24,0,.37-.03s.26-.04,.41-.07c.35,.75,.71,1.51,1.09,2.29,.38,.78,.76,1.55,1.14,2.32s.76,1.52,1.14,2.26c.38,.74,.75,1.44,1.09,2.1,.78-1.4,1.55-2.87,2.32-4.4,.77-1.53,1.5-3.06,2.2-4.57,.32,.06,.6,.09,.83,.09,.22,0,.49-.03,.81-.09,.13,1.08,.27,2.23,.42,3.47,.15,1.24,.29,2.45,.44,3.63,.14,1.18,.28,2.29,.43,3.31,.14,1.03,.27,1.85,.39,2.48-.26-.03-.52-.04-.79-.04h-1.58c-.27,0-.54,.01-.81,.04-.06-1.29-.17-2.68-.32-4.19-.15-1.5-.3-2.99-.46-4.47h-.04c-.74,1.48-1.46,2.93-2.17,4.35-.71,1.43-1.41,2.86-2.11,4.3-.06-.01-.13-.02-.18-.03-.06,0-.12,0-.18,0s-.13,0-.18,0c-.06,0-.12,.02-.18,.03-.7-1.4-1.39-2.8-2.08-4.21-.69-1.4-1.41-2.82-2.14-4.26h-.04c-.21,1.44-.36,2.86-.47,4.26Z"/>
        </g>
        <g class="cls-3">
          <path class="cls-1" d="M570.03,9.21v.77c0,1.04,.01,1.96,.04,2.77,.03,.81,.06,1.6,.12,2.37-.22-.03-.46-.04-.72-.04h-1.74c-.26,0-.5,.01-.72,.04,.05-.78,.09-1.57,.12-2.37,.03-.81,.04-1.73,.04-2.77v-2.55c0-1.04-.01-1.96-.04-2.77-.03-.81-.06-1.62-.12-2.43,.22,.03,.46,.05,.72,.07,.26,.02,.55,.03,.87,.03,.35,0,.75-.02,1.19-.05,.45-.03,1-.05,1.66-.05,.49,0,.91,.01,1.26,.04,.35,.03,.65,.06,.9,.11,.25,.05,.47,.12,.66,.2s.36,.18,.53,.29c.39,.28,.69,.62,.92,1.02,.23,.41,.34,.89,.34,1.45,0,.91-.26,1.66-.77,2.23-.52,.58-1.26,.98-2.23,1.22,.62,1.06,1.29,2.12,2,3.18s1.42,2.11,2.13,3.14c-.3-.03-.59-.04-.87-.04h-1.75c-.29,0-.58,.01-.88,.04l-3.47-5.91h-.17Zm2.89-4.77c-.12-.33-.29-.57-.53-.74-.24-.17-.55-.28-.93-.33-.38-.05-.84-.08-1.37-.08-.04,1.7-.06,3.4-.06,5.11,.08,.01,.15,.02,.22,.03,.07,0,.14,0,.2,0,.85,0,1.51-.22,1.96-.67,.45-.44,.68-1.12,.68-2.02,0-.55-.06-.99-.17-1.31Z"/>
          <path class="cls-1" d="M629.68,4.66c-.03-.81-.06-1.62-.12-2.43,.22,.03,.46,.05,.72,.07,.26,.02,.55,.03,.87,.03s.61,0,.87-.03,.5-.04,.72-.07c-.05,.81-.09,1.62-.12,2.43-.03,.81-.04,1.73-.04,2.77v2.55c0,1.04,.01,1.96,.04,2.77,.03,.81,.06,1.6,.12,2.37-.22-.03-.46-.04-.72-.04h-1.74c-.26,0-.5,.01-.72,.04,.05-.78,.09-1.57,.12-2.37,.03-.81,.04-1.73,.04-2.77v-2.55c0-1.04-.01-1.96-.04-2.77Z"/>
          <path class="cls-1" d="M692.93,6.85c.63-1.61,1.2-3.15,1.71-4.63,.32,.06,.61,.09,.85,.09s.53-.03,.85-.09c-.32,.74-.71,1.63-1.16,2.67s-.92,2.14-1.41,3.3c-.49,1.16-.98,2.35-1.45,3.55-.48,1.2-.9,2.33-1.28,3.38-.26-.03-.54-.04-.85-.04s-.59,.01-.85,.04c-.19-.5-.43-1.11-.71-1.82-.28-.71-.58-1.47-.89-2.27-.32-.8-.65-1.62-1-2.46-.35-.84-.68-1.65-1.01-2.43-.32-.78-.63-1.51-.91-2.19-.28-.68-.53-1.25-.74-1.73,.3,.03,.59,.05,.88,.07s.58,.03,.86,.03,.57,0,.85-.03,.57-.04,.85-.07c.22,.7,.47,1.44,.75,2.22,.28,.78,.57,1.57,.86,2.37,.3,.81,.6,1.62,.92,2.43,.32,.81,.62,1.61,.92,2.4,.67-1.59,1.32-3.19,1.96-4.8Z"/>
          <path class="cls-1" d="M745.62,4.66c-.02-.81-.06-1.62-.1-2.43,.58,.01,1.16,.03,1.72,.06,.57,.03,1.14,.04,1.73,.04,.96,0,1.81,0,2.55-.03s1.24-.04,1.5-.07c-.05,.2-.08,.46-.08,.79,0,.2,0,.36,.02,.47,.01,.11,.03,.24,.06,.38-.37-.02-.79-.05-1.23-.08-.45-.02-.88-.05-1.3-.08-.42-.02-.8-.04-1.13-.06-.34-.01-.58-.02-.72-.02-.05,.69-.08,1.37-.09,2.05,0,.68,0,1.36,0,2.05,.84-.01,1.6-.03,2.28-.06,.68-.02,1.39-.06,2.12-.09-.04,.21-.06,.38-.08,.49-.01,.11-.02,.23-.02,.36,0,.1,0,.2,.03,.31,.02,.11,.04,.26,.07,.46-1.47-.11-2.94-.17-4.4-.17,0,.4,0,.8,0,1.2,0,.4,0,.8,0,1.2,0,.81,.02,1.6,.06,2.35,.74,0,1.47-.02,2.21-.06s1.48-.1,2.23-.19c-.03,.14-.05,.26-.06,.38-.01,.11-.02,.27-.02,.47s0,.36,.02,.47c.01,.11,.03,.21,.06,.28-.35-.01-.78-.02-1.29-.03-.51,0-1.21,0-2.1,0h-3.07c-.29,0-.51,0-.66,0-.15,0-.27,.02-.38,.03,.04-.78,.08-1.57,.1-2.37,.02-.81,.03-1.73,.03-2.77v-2.55c0-1.04-.01-1.96-.03-2.77Z"/>
          <path class="cls-1" d="M806.26,9.21v.77c0,1.04,.01,1.96,.04,2.77,.03,.81,.06,1.6,.12,2.37-.22-.03-.46-.04-.72-.04h-1.74c-.26,0-.5,.01-.72,.04,.05-.78,.09-1.57,.12-2.37,.03-.81,.04-1.73,.04-2.77v-2.55c0-1.04-.01-1.96-.04-2.77-.03-.81-.06-1.62-.12-2.43,.22,.03,.46,.05,.72,.07,.26,.02,.55,.03,.87,.03,.35,0,.75-.02,1.19-.05,.45-.03,1-.05,1.66-.05,.49,0,.91,.01,1.26,.04,.35,.03,.65,.06,.9,.11,.25,.05,.47,.12,.66,.2,.19,.08,.36,.18,.53,.29,.39,.28,.69,.62,.92,1.02,.23,.41,.34,.89,.34,1.45,0,.91-.26,1.66-.77,2.23-.52,.58-1.26,.98-2.23,1.22,.62,1.06,1.29,2.12,2,3.18,.71,1.06,1.42,2.11,2.13,3.14-.3-.03-.59-.04-.87-.04h-1.75c-.29,0-.58,.01-.88,.04l-3.47-5.91h-.17Zm2.89-4.77c-.12-.33-.29-.57-.53-.74-.24-.17-.55-.28-.93-.33-.38-.05-.84-.08-1.37-.08-.04,1.7-.06,3.4-.06,5.11,.08,.01,.15,.02,.22,.03,.07,0,.14,0,.2,0,.85,0,1.51-.22,1.96-.67,.45-.44,.68-1.12,.68-2.02,0-.55-.06-.99-.17-1.31Z"/>
          <path class="cls-1" d="M862.85,4.66c-.03-.81-.07-1.62-.13-2.43,.22,.03,.46,.05,.72,.07,.26,.02,.55,.03,.87,.03,.56,0,1.14-.02,1.74-.05,.61-.03,1.19-.05,1.74-.05s1.11,.06,1.59,.17,.89,.28,1.24,.52c.35,.23,.62,.53,.8,.9,.19,.37,.28,.81,.28,1.32s-.11,.95-.33,1.32c-.22,.37-.49,.68-.81,.92-.32,.24-.66,.43-1.03,.57-.37,.14-.7,.23-1,.28v.04c.3,.01,.64,.08,1.04,.2,.4,.12,.78,.3,1.14,.55,.36,.25,.67,.57,.92,.97,.25,.39,.38,.87,.38,1.44,0,.68-.13,1.25-.38,1.73-.25,.48-.59,.86-1.01,1.16-.42,.3-.9,.51-1.44,.63s-1.1,.18-1.68,.18c-.52,0-1,0-1.44-.02-.44-.01-.91-.02-1.4-.02h-1.07c-.37,0-.66,.01-.88,.04,.06-.78,.1-1.57,.13-2.37,.03-.81,.04-1.73,.04-2.77v-2.55c0-1.04-.01-1.96-.04-2.77Zm5.89-.02c-.07-.27-.19-.5-.36-.69-.17-.19-.38-.35-.64-.47s-.58-.18-.97-.18c-.28,0-.48,0-.59,0-.11,0-.23,.02-.36,.05-.03,.46-.05,.93-.06,1.41-.01,.48-.02,.88-.02,1.2s0,.66,0,.97c0,.31,0,.62,0,.95h.87c.27,0,.54-.05,.8-.15,.26-.1,.5-.25,.71-.44,.21-.19,.37-.44,.5-.74,.13-.3,.19-.65,.19-1.05,0-.3-.04-.58-.11-.85Zm-.37,4.96c-.41-.43-1-.65-1.77-.65-.18,0-.34,0-.47,0-.13,0-.25,0-.37,0,0,.26,0,.54,0,.82,0,.28,0,.62,0,1,0,.3,0,.61,0,.92,0,.31,0,.62,0,.92s0,.58,0,.83c0,.25,0,.46,0,.62,.18,.01,.35,.02,.5,.03,.15,0,.34,0,.56,0,.28,0,.56-.06,.81-.17,.26-.11,.48-.28,.68-.5,.19-.22,.35-.48,.46-.8s.17-.68,.17-1.09c0-.88-.2-1.53-.61-1.96Z"/>
          <path class="cls-1" d="M932.62,15.12c-.31-.03-.6-.04-.88-.04h-1.65c-.28,0-.55,.01-.82,.04-.21-.61-.42-1.24-.64-1.88-.22-.64-.45-1.28-.7-1.91-.41-.01-.83-.02-1.24-.03-.41,0-.83,0-1.24,0-.34,0-.67,0-1.01,0-.34,0-.67,.02-1.01,.03-.26,.64-.5,1.28-.72,1.91-.22,.64-.42,1.26-.6,1.88-.15-.03-.31-.04-.46-.04h-.92c-.15,0-.32,.01-.5,.04,.15-.33,.36-.78,.62-1.35,.26-.58,.54-1.23,.85-1.95,.31-.73,.64-1.5,1-2.34,.36-.83,.71-1.67,1.07-2.52,.35-.85,.7-1.69,1.05-2.52,.34-.83,.66-1.6,.94-2.31,.13,.02,.25,.05,.37,.07s.24,.03,.37,.03,.25,0,.37-.03c.12-.02,.24-.04,.37-.07,.41,1.06,.86,2.2,1.33,3.42,.47,1.21,.95,2.41,1.42,3.58,.48,1.17,.94,2.28,1.4,3.33,.45,1.05,.87,1.94,1.24,2.67Zm-6.86-9.37c-.34,.75-.65,1.49-.95,2.22-.3,.73-.59,1.48-.87,2.24h3.55c-.28-.76-.57-1.51-.84-2.24-.28-.73-.57-1.47-.88-2.22Z"/>
          <path class="cls-1" d="M979.81,3.78c-.03-.59-.05-1.11-.06-1.56,.36,.06,.65,.09,.87,.09s.51-.03,.87-.09c1.41,1.51,2.8,3,4.18,4.47,1.38,1.46,2.79,2.95,4.24,4.47v-3.45c0-.61,0-1.22,0-1.81,0-.59-.01-1.14-.02-1.64,0-.5-.02-.93-.04-1.29-.02-.36-.04-.61-.07-.73,.36,.06,.65,.09,.87,.09s.51-.03,.87-.09c-.06,1.14-.12,2.17-.16,3.09-.04,.92-.07,1.79-.1,2.6-.03,.81-.04,1.62-.05,2.41,0,.79,0,1.64,0,2.54v2.25c-.26-.03-.52-.04-.79-.04s-.54,.01-.76,.04c-2.66-3-5.49-6.03-8.47-9.07-.01,.36-.02,.73-.03,1.09,0,.36,0,.73,0,1.11v2.18c0,.75,0,1.39,0,1.91,0,.53,.02,.97,.03,1.33,.01,.36,.03,.66,.04,.89,.01,.23,.03,.42,.04,.55-.16-.03-.31-.04-.47-.04h-.45c-.3,0-.59,.01-.89,.04,.03-.1,.06-.46,.1-1.07,.04-.61,.08-1.36,.13-2.24,.05-.88,.08-1.84,.12-2.87,.03-1.03,.05-2.02,.05-2.98,0-.86-.01-1.59-.04-2.18Z"/>
          <path class="cls-1" d="M1042.33,12.79c.01,.98,.06,1.75,.14,2.33-.22-.03-.46-.04-.72-.04h-1.74c-.26,0-.5,.01-.72,.04,.05-.78,.09-1.57,.12-2.37,.03-.81,.04-1.73,.04-2.77v-2.55c0-1.04-.01-1.96-.04-2.77-.03-.81-.06-1.62-.12-2.43,.22,.03,.46,.05,.72,.07s.55,.03,.87,.03,.61,0,.87-.03,.5-.04,.72-.07c-.06,.38-.11,.94-.13,1.69s-.03,1.58-.03,2.5v1.8c.44-.5,.91-1.05,1.41-1.64,.5-.59,.99-1.17,1.45-1.74,.46-.56,.88-1.08,1.26-1.55,.37-.47,.65-.82,.81-1.06,.18,.03,.36,.05,.54,.07,.18,.02,.36,.03,.54,.03s.36,0,.55-.03,.39-.04,.61-.07c-.22,.21-.56,.56-1.01,1.03-.45,.48-.93,.99-1.44,1.54s-1,1.09-1.46,1.61c-.46,.52-.83,.93-1.09,1.23,.41,.61,.87,1.29,1.38,2.03,.5,.74,1,1.46,1.5,2.17,.5,.71,.96,1.36,1.39,1.95,.43,.59,.77,1.04,1.03,1.34-.37-.03-.71-.04-1.01-.04h-1.72c-.28,0-.56,.01-.84,.04-.66-.95-1.31-1.92-1.94-2.9-.63-.98-1.28-1.96-1.94-2.94h-.04c0,1.36,0,2.53,.02,3.51Z"/>
        </g>
      </g>
    </g>
  </g>
</svg>