<?xml version="1.0" encoding="UTF-8"?>
<svg id="_圖層_2" data-name="圖層 2" xmlns="http://www.w3.org/2000/svg" viewBox="0 0 41.15 6.2">
  <defs>
    <style>
      .cls-1 {
        fill: #fff;
      }

      .cls-2 {
        fill: #b2b2b2;
      }
    </style>
  </defs>
  <g id="_圖層_1-2" data-name="圖層 1">
    <rect class="cls-2" width="41.15" height=".1"/>
    <g>
      <g>
        <g>
          <path class="cls-1" d="M9.78,3.91c.02-.27,.11-.48,.26-.63,.15-.15,.34-.23,.58-.23s.43,.08,.58,.23c.14,.15,.22,.36,.22,.62,0,.29-.09,.5-.26,.63,.24,.11,.35,.35,.35,.73,0,.29-.09,.52-.26,.69-.17,.17-.39,.26-.66,.26-.25,0-.46-.09-.64-.27-.18-.18-.27-.4-.27-.67h.47c0,.14,.04,.27,.13,.36,.09,.1,.2,.15,.33,.15s.24-.05,.32-.16c.08-.11,.12-.24,.12-.39,0-.13-.04-.25-.13-.36-.09-.11-.18-.17-.29-.17-.01,0-.02,0-.04,0h-.1s0-.33,0-.33h.06c.11,0,.21-.04,.3-.13,.08-.09,.12-.19,.12-.32,0-.31-.13-.46-.38-.46s-.38,.15-.38,.46h-.44Z"/>
          <path class="cls-1" d="M12.2,3.56v-.43h.86v2.99h-.47V3.56h-.39Z"/>
          <path class="cls-1" d="M14.7,4.62v.45h-.89v-.45h.89Z"/>
          <path class="cls-1" d="M17.1,5.16v.39h-.33v.57h-.43v-.57h-1.25v-.22l1.23-2.26h.45v2.09h.33Zm-.76-1.38l-.71,1.38h.71v-1.38Z"/>
          <path class="cls-1" d="M18.13,3.56l-.11,.54h.21c.26,0,.48,.09,.64,.29,.16,.2,.25,.45,.25,.74,0,.32-.09,.58-.28,.78-.18,.2-.43,.3-.72,.3-.33,0-.6-.13-.81-.39l.14-.43c.17,.27,.39,.4,.64,.4,.16,0,.29-.06,.4-.18,.11-.12,.17-.28,.17-.49s-.06-.37-.17-.48c-.11-.11-.26-.17-.43-.17s-.32,.07-.43,.2h-.09l.29-1.52h1.19v.43h-.88Z"/>
        </g>
        <path class="cls-1" d="M19.89,4.62h-.21v-.14h.21v-.49h.12v.49h.21v.14h-.21v.91c.06-.05,.12-.09,.17-.13l.07,.1c-.12,.11-.29,.23-.52,.36l-.07-.11c.09-.05,.17-.1,.23-.14v-1Zm.35,.8v-.14h.59v-1.09h-.54v-.14h1.17v.14h-.5v1.09h.57v.14h-.57v.66h-.12v-.66h-.59Zm.19-1.02c.07,.17,.14,.38,.2,.63l-.12,.05c-.06-.27-.13-.48-.19-.62l.11-.05Zm1.02,.04c-.04,.19-.11,.41-.21,.66l-.11-.05c.11-.27,.18-.49,.21-.66l.11,.05Z"/>
      </g>
      <g>
        <path class="cls-1" d="M24.58,4.44h.04s.03,0,.04,0c.03,0,.06,.01,.08,.02,.05,.02,.08,.08,.08,.16v1.23c0,.12-.07,.18-.21,.18h-.46c-.14,0-.21-.06-.21-.18v-1.23c0-.08,.03-.13,.08-.16,.02,0,.05-.02,.08-.02,.02,0,.05,0,.09,0v-.32h-.25s-.01,0-.02,0-.01,0-.02,0c-.02,0-.02-.02-.02-.04,0-.02,0-.04,.03-.04,0,0,.01,0,.02,0,0,0,.01,0,.02,0h.91s.01,0,.02,0c0,0,.01,0,.02,0,.02,0,.03,.02,.03,.04,0,.02,0,.03-.02,.04,0,0-.01,0-.02,0,0,0-.01,0-.02,0h-.26v.32Zm.01,.79c-.07,0-.11-.01-.14-.04-.02-.02-.03-.06-.03-.12v-.53h-.09v.24c0,.13-.02,.25-.06,.36-.04,.1-.07,.14-.1,.14,0,0-.02,0-.03,0,0,0-.01,0-.02-.01v.23h.5v-.27h-.04Zm-.38-.69c-.05,0-.08,.04-.08,.1v.56c.03-.05,.05-.12,.06-.21,0-.03,.01-.06,.01-.1,0-.03,0-.06,0-.08v-.27Zm-.08,1.06v.23c0,.07,.03,.1,.1,.1h.3c.07,0,.1-.03,.1-.1v-.23h-.5Zm.29-1.49h-.09v.32h.09v-.32Zm.13,.93s.03,.07,.08,.07v-.48c0-.06-.03-.1-.08-.1v.5Zm.78,.43v-.03s0-.02,0-.03c0-.02,0-.04,.01-.06,.02-.04,.05-.06,.11-.06,0,0,.02,0,.02,0h.02s.06-.07,.06-.07c.02-.02,.03-.04,.03-.05,0,0,0-.02-.01-.02,0,0,0,0-.01,0h-.55s-.01,0-.02,0c0,0-.01,0-.02,0-.02,0-.02-.02-.02-.04,0-.02,0-.04,.02-.04,0,0,.01,0,.02,0,0,0,.01,0,.02,0h.82c.08,0,.12,.03,.12,.08,0,.02,0,.03-.01,.04l-.03,.03s-.07,.05-.13,.09c-.07,.04-.13,.08-.19,.11,0,.01,0,.04,0,.07h.39s.01,0,.02,0c0,0,.01,0,.02,0,.02,0,.02,.02,.02,.04s0,.04-.02,.04c0,0-.01,0-.02,0,0,0-.01,0-.02,0h-.39v.29c0,.06-.01,.11-.04,.13-.03,.03-.09,.05-.17,.05h-.29s-.01,0-.02,0c0,0-.01,0-.02,0-.02,0-.03-.02-.03-.04,0-.02,0-.04,.02-.04,.01,0,.02,0,.04,0h.16c.07,0,.1-.03,.1-.1v-.27h-.4s-.01,0-.02,0c0,0-.01,0-.02,0-.02,0-.03-.02-.03-.04,0-.02,0-.04,.02-.04,0,0,.01,0,.02,0,0,0,.01,0,.02,0h.4Zm.01-1.29v-.13c0-.05,.02-.09,.05-.11,.01,0,.02-.01,.04-.02,0,0,.02,0,.03,0,.03,0,.05,0,.07,.02,.03,.02,.04,.05,.04,.1v.14h.38s.01,0,.02,0c0,0,.01,0,.02,0,.02,0,.02,.02,.02,.04s0,.04-.02,.04c0,0-.01,0-.02,0,0,0-.01,0-.02,0h-1.02s-.01,0-.02,0c0,0-.01,0-.02,0-.02,0-.03-.02-.03-.04,0-.02,0-.04,.02-.04,0,0,.01,0,.02,0,0,0,.01,0,.02,0h.41Zm.57,.58c0,.06-.02,.11-.06,.14-.03,.02-.08,.03-.14,.03h-.51c-.13,0-.2-.06-.2-.17v-.16c0-.11,.07-.17,.2-.17h.51c.13,0,.2,.06,.2,.17v.16Zm-.23-.13c0-.06-.03-.09-.09-.09h-.28c-.06,0-.09,.03-.09,.09v.1c0,.06,.03,.09,.09,.09h.28c.06,0,.09-.03,.09-.09v-.1Z"/>
        <path class="cls-1" d="M28.76,5.67c0,.17-.09,.25-.27,.25h-1.47c-.1,0-.18-.02-.22-.07-.03-.04-.05-.09-.05-.17v-1.32c0-.17,.09-.25,.27-.25h1.47c.1,0,.18,.02,.22,.07,.03,.04,.05,.1,.05,.17v1.32Zm-1.4-1.46h-.24c-.08,0-.12,.04-.12,.12v1.36c0,.08,.04,.12,.12,.12h1.26c.08,0,.12-.04,.12-.12v-1.36c0-.08-.04-.12-.12-.12h-.31v1.05c0,.05,.02,.08,.07,.08,.03,0,.06,0,.07-.02,.02-.02,.04-.08,.05-.17,.01-.1,.05-.15,.11-.15,.08,0,.12,.03,.12,.1,0,.06-.02,.15-.07,.25-.02,.04-.05,.07-.08,.08-.02,0-.07,.01-.12,.01h-.18c-.14,0-.21-.06-.21-.18v-1.05h-.22v.43c0,.09,0,.18-.03,.26-.02,.07-.04,.13-.07,.19-.02,.05-.05,.09-.09,.13l-.07,.07s-.01,.01-.02,.02c-.04,.04-.08,.07-.12,.1-.05,.03-.08,.05-.09,.05-.04,0-.05-.02-.05-.05,0-.01,.01-.03,.03-.05,.06-.05,.11-.11,.15-.18,.03-.06,.06-.12,.08-.19,.01-.05,.02-.11,.03-.17v-.07s0-.54,0-.54Z"/>
        <path class="cls-1" d="M29.78,4.07s0-.07,.02-.09c.02-.03,.05-.05,.1-.05,.08,0,.12,.05,.12,.14v.43h.17s.01,0,.02,0c0,0,.01,0,.02,0,.02,0,.02,.02,.02,.04,0,.02,0,.04-.03,.04,0,0-.01,0-.02,0,0,0-.01,0-.02,0h-.17v.45c.06-.03,.12-.06,.15-.08,.03-.01,.04-.02,.05-.02,.04,0,.05,.02,.05,.05,0,.01,0,.02,0,.03,0,0,0,0,0,0h0s-.06,.05-.11,.09l-.1,.07s-.02,.01-.03,.02v.67c0,.06-.01,.11-.04,.14-.03,.04-.09,.05-.17,.05h-.26s-.02,0-.02,0c0,0-.02,0-.02-.02,0,0,0-.02,0-.03s0-.02,0-.03c0,0,.01-.01,.02-.02,0,0,.01,0,.02,0h.14c.06,0,.1-.03,.1-.1v-.51h-.02s-.02,.03-.03,.03l-.07,.04s-.05,.02-.06,.03c-.02,0-.03,.01-.04,.01-.06,0-.1-.04-.1-.11,0-.03,0-.05,.02-.06,0,0,.01-.01,.02-.02l.28-.12v-.56h-.23s-.01,0-.02,0c0,0-.01,0-.02,0-.02,0-.03-.02-.03-.04s0-.04,.03-.04c0,0,.01,0,.02,0,0,0,.01,0,.02,0h.23v-.43Zm1.56,.99h.23s.01,0,.02,0c0,0,.01,0,.02,0,.02,0,.03,.02,.03,.04,0,.02,0,.04-.03,.04,0,0-.01,0-.02,0,0,0-.01,0-.02,0h-.23v.78c0,.09-.04,.14-.12,.14s-.12-.05-.12-.14v-.78h-.32c0,.15-.04,.3-.1,.42-.05,.1-.11,.2-.19,.28-.03,.03-.06,.06-.1,.09-.03,.02-.06,.04-.09,.06-.01,0-.02,.01-.04,.02,0,0-.02,.01-.03,.01-.02,0-.02,.01-.03,.01-.04,0-.05-.02-.05-.05,0-.01,0-.02,0-.03,0,0,0-.01,.02-.02,.12-.11,.21-.23,.26-.36,.05-.11,.07-.26,.08-.43h-.24s-.01,0-.02,0c0,0-.01,0-.02,0-.02,0-.02-.02-.02-.04,0-.02,0-.04,.02-.04,0,0,.01,0,.02,0,0,0,.01,0,.02,0h.24v-.5h-.18s-.01,0-.02,0c0,0-.01,0-.02,0-.02,0-.02-.02-.02-.04,0-.02,0-.04,.03-.04,0,0,.01,0,.02,0,0,0,.01,0,.02,0h1.18s.01,0,.02,0c0,0,.01,0,.02,0,.02,0,.03,.02,.03,.04s0,.04-.03,.04c0,0-.01,0-.02,0,0,0-.01,0-.02,0h-.19v.5Zm-.76-.69s-.04-.06-.07-.13c0,0-.01-.02-.02-.04l-.07-.13s-.02-.03-.02-.04c0,0,0-.02,0-.03,0-.04,.02-.05,.05-.05,0,0,.02,0,.04,.01,.02,0,.03,.02,.05,.04,.02,.01,.04,.03,.05,.04l.04,.03c.07,.05,.11,.09,.13,.12,.02,.02,.03,.05,.03,.08,0,.09-.04,.13-.13,.13-.03,0-.06,0-.07-.03Zm.52,.18h-.32v.5h.32v-.5Zm.01-.24l.05-.11s.01-.03,.02-.04c0,0,0-.02,.01-.04l.03-.08s0-.02,0-.03c0-.02,.01-.03,.02-.04,.01-.02,.03-.04,.05-.04,0,0,.02,0,.03,0,0,0,.02,0,.02,0,.09,0,.14,.04,.14,.11,0,.02-.01,.06-.04,.1-.03,.04-.06,.07-.1,.11-.04,.04-.08,.07-.11,.09-.04,.03-.06,.04-.07,.04-.02,0-.03,0-.04-.02,0,0,0-.02,0-.03,0,0,0-.01,0-.03Z"/>
      </g>
      <rect class="cls-1" x="21.66" y="4.95" width="2.11" height=".09" transform="translate(7.74 22.79) rotate(-62.31)"/>
    </g>
  </g>
</svg>