<?xml version="1.0" encoding="UTF-8"?>
<svg xmlns="http://www.w3.org/2000/svg" viewBox="0 0 56.67 22.42">
  <defs>
    <style>
      .cls-1 {
        fill: #fff;
      }

      .cls-2 {
        mix-blend-mode: lighten;
        opacity: .4;
      }

      .cls-3 {
        fill: #b2b2b2;
      }

      .cls-4 {
        isolation: isolate;
      }

      .cls-5 {
        fill: #192d78;
      }

      .cls-6 {
        fill: #339ace;
      }
    </style>
  </defs>
  <g class="cls-4">
    <g id="_圖層_2" data-name="圖層 2">
      <g id="_圖層_1-2" data-name="圖層 1">
        <g>
          <path class="cls-1" d="M20.75,.75h-.16s-.05-.02-.05-.05V.09s-.02-.05-.05-.05h-.09s-.05,.02-.05,.05V.7s-.02,.05-.05,.05h-.3s-.05,.02-.05,.05,.02,.05,.05,.05h.22s0,0,0,0c-.02,.33-.06,.53-.11,.76-.05,.2-.08,.34-.16,.49,.12-.16,.26-.36,.33-.62l.06-.24V3.31s.01,0,.01,0c.02-.03,.07-.12,.13-.41,.03-.13,.04-.37,.06-.64,0-.25,0-.85,0-1.17v-.2s.06,.19,.06,.19c.06,.19,.11,.4,.13,.53,0,.03,.01,.05,.01,.06h.01c0-.36-.03-.64-.06-.78v-.04s.05,0,.05,0c.03,0,.05-.02,.05-.05h0s-.02-.05-.05-.05Z"/>
          <path class="cls-1" d="M20.96,.47h.28s.06,.02,.06,.06v.2s.03,.06,.06,.06h.09s.06-.02,.06-.06v-.2s.03-.06,.06-.06h.53s.06,.02,.06,.06v.19s.03,.06,.06,.06h.09s.06-.02,.06-.06v-.19s.03-.06,.06-.06h.3s.06-.02,.06-.06-.03-.06-.06-.06h-.3s-.06-.02-.06-.06V.1s-.03-.06-.06-.06h-.09s-.06,.02-.06,.06v.21s-.03,.06-.06,.06h-.53s-.06-.02-.06-.06V.11s-.03-.06-.06-.06h-.09s-.06,.02-.06,.06v.2s-.03,.06-.06,.06h-.28s-.06,.02-.06,.06,.03,.06,.06,.06Z"/>
          <path class="cls-1" d="M22.8,2.71h-.8s-.05-.02-.05-.05v-.36s.02-.05,.05-.05h.69s.05-.02,.05-.05h0s-.02-.05-.05-.05h-.11s-.05-.02-.05-.05v-.4s.02-.05,.05-.05h.2s.05-.02,.05-.05v-.02s-.02-.05-.05-.05h-.2s-.05-.02-.05-.05v-.42s.02-.05,.05-.05h.11s.05-.02,.05-.05h0s-.02-.05-.05-.05h-1.65s-.05,.02-.05,.05h0s.02,.05,.05,.05h.07s.05,.02,.05,.05v.42s-.02,.05-.05,.05h-.15s-.05,.02-.05,.05h0s.02,.06,.05,.06h.15s.05,.02,.05,.05v.41s-.02,.05-.05,.05h-.09s-.05,.02-.05,.05,.02,.05,.05,.05h.66s.05,.02,.05,.05v.36s-.02,.05-.05,.05h-.79s-.05,.02-.05,.05h0s.02,.05,.05,.05h.79s.05,.02,.05,.05v.4s.02,.05,.05,.05h.1s.05-.02,.05-.05v-.4s.02-.05,.05-.05h.8s.05-.02,.05-.05h0s-.02-.05-.05-.05Zm-.86-1.64s.02-.05,.05-.05h.26s.05,.02,.05,.05v.42s-.02,.05-.05,.05h-.26s-.05-.02-.05-.05v-.42Zm0,.63s.02-.05,.05-.05h.26s.05,.02,.05,.05v.41s-.02,.05-.05,.05h-.26s-.05-.02-.05-.05v-.41Zm-.21,.41s-.02,.05-.05,.05h-.25s-.05-.02-.05-.05v-.4s.02-.05,.05-.05h.25s.05,.02,.05,.05v.4Zm0-.61s-.02,.05-.05,.05h-.25s-.05-.02-.05-.05v-.42s.02-.05,.05-.05h.25s.05,.02,.05,.05v.42Z"/>
        </g>
        <path class="cls-1" d="M27.28,2.77h-.62s-.05-.02-.05-.05v-.22s.02-.05,.05-.05h.52s.05-.02,.05-.05V1.22s-.02-.05-.05-.05h-.52s-.05-.02-.05-.05v-.18s.02-.05,.05-.05h.37s.05-.02,.05-.05h0s-.02-.06-.05-.06h-.37s-.05-.02-.05-.05v-.2s-.02-.05-.05-.05h-.1s-.05,.02-.05,.05v.2s-.02,.05-.05,.05h-.44s-.05,.02-.05,.05h0s.02,.05,.05,.05h.44s.05,.02,.05,.05v.18s-.02,.05-.05,.05h-.52s-.05,.02-.05,.05v1.17s.03,.05,.06,.05h.51s.05,.02,.05,.05v.22s-.02,.05-.05,.05h-.63s-.05,.02-.05,.05,.02,.05,.05,.05h.63s.05,.02,.05,.05v.37s.02,.05,.05,.05h.1s.05-.02,.05-.05v-.37s.02-.05,.05-.05h.62s.05-.02,.05-.05-.02-.05-.05-.05Zm-.68-1.42s.02-.05,.05-.05h.31s.05,.02,.05,.05v.34s-.02,.05-.05,.05h-.31s-.05-.02-.05-.05v-.34Zm0,.55s.02-.05,.05-.05h.31s.05,.02,.05,.05v.4s-.02,.05-.05,.05h-.31s-.05-.02-.05-.05v-.4Zm-.21,.39s-.02,.05-.05,.05h-.31s-.05-.02-.05-.05v-.38s.02-.05,.05-.05h.31s.05,.02,.05,.05v.38Zm0-.6s-.02,.05-.05,.05h-.31s-.05-.02-.05-.05v-.34s.02-.05,.05-.05h.31s.05,.02,.05,.05v.34Z"/>
        <path class="cls-1" d="M25.34,1.19h.08s.05-.02,.05-.05V.24s0,0,0,0c-.01,0-.06,.05-.12,.19-.02,.06-.05,.17-.06,.3,0,0,0,0,0,0,0,.19,0,.33,0,.41,0,.03,.02,.05,.05,.05Z"/>
        <path class="cls-1" d="M24.63,1.21h.08s.05-.02,.05-.05c0-.08,0-.22,0-.41,0,0,0,0,0,0-.01-.13-.04-.24-.06-.3-.06-.13-.11-.18-.12-.19h-.01s.01,.89,.01,.89c0,.03,.02,.05,.05,.05Z"/>
        <path class="cls-1" d="M25.8,.81c.02-.06,.05-.17,.06-.3,0,0,0,0,0,0,0-.05,0-.11,0-.15v-.04h1.22s.05,.02,.05,.05V.98s0,0,0,0c.01,0,.06-.05,.12-.19,.02-.06,.05-.17,.06-.3,0,0,0,0,0,0,0-.14,0-.26,0-.33,0-.03-.02-.05-.05-.05h-.09s-.05,.02-.05,.05v.02s-.02,.05-.05,.05h-1.22v-.04s0-.06,0-.08h-.14s-.05,.02-.05,.05V1s0,0,0,0c.01,0,.06-.05,.12-.19Z"/>
        <path class="cls-1" d="M25.35,2.49v-.09c0-.37,0-.83,0-.88v-.04h.12s.05-.02,.05-.05v-.02s-.02-.05-.05-.05h-.3s-.05-.02-.05-.05V.15s-.02-.05-.05-.05h-.08s-.05,.02-.05,.05V1.32s-.02,.05-.05,.05h-.32s-.05,.02-.05,.05h0s.02,.06,.05,.06h.14s.05,.02,.05,.05h0s0,0,0,0c0,0,0,.01,0,.02,0,.18-.02,.63-.06,.97-.04,.28-.21,.61-.29,.74h0s.15-.16,.26-.31c.17-.23,.22-.55,.23-1.41,0,0,0,0,0,0,0-.02,0-.03,0-.03v-.04s.22,0,.22,0c.03,0,.05,.02,.05,.05v1.2s0,.02-.01,.03l-.03,.03s-.03,.04-.03,.07v.17s.07,.07,.1,.03c.05-.06,.18-.29,.18-.29,.06-.11,.09-.19,.11-.25,.08-.19,.09-.33,.09-.36l-.23,.31Z"/>
        <path class="cls-1" d="M31.53,1.46V.92s.03-.06,.06-.06h.12s.07-.03,.07-.06-.03-.06-.07-.06h-.76s-.07-.03-.07-.06V.06s-.03-.06-.07-.06h-.09s-.07,.03-.07,.06V.68s-.03,.06-.07,.06h-.69s-.07,.03-.07,.06h0s.03,.06,.07,.06h.07s.07,.03,.07,.06v.47c0,1.18-.26,1.74-.3,1.88h.01c.07-.09,.32-.52,.41-.8,.1-.31,.12-1.28,.12-1.58v-.04h.32s.07,.03,.07,.06V3.28s.03,.06,.07,.06h.09s.07-.03,.07-.06V.92s.03-.06,.07-.06h.34v.04c0,.3,.02,1.31,.12,1.61,.09,.27,.34,.71,.41,.81h.01c-.05-.15-.3-.67-.3-1.86Z"/>
        <path class="cls-1" d="M29.5,1.53h-.09s-.07,.03-.07,.06c0,.18-.01,.61-.06,.95-.04,.29-.2,.64-.24,.77h0s.17-.15,.26-.31c.15-.25,.21-.5,.25-1.41,0-.04-.03-.07-.07-.07Z"/>
        <path class="cls-1" d="M29.3,.53s0,0,0,0c.06,.04,.12,.07,.19,.11,.05,.03,.1,0,.1-.05v-.13s-.01-.04-.03-.05l-.58-.35v.03s0,.09,.09,.23c.04,.05,.12,.13,.22,.21Z"/>
        <path class="cls-1" d="M29.59,1.03l-.61-.37v.03s0,.09,.09,.23c.04,.05,.12,.13,.22,.21,0,0,0,0,0,0,.08,.05,.16,.09,.23,.13,.05,.03,.1,0,.1-.05v-.14s-.01-.04-.03-.05Z"/>
        <path class="cls-1" d="M34.71,.23h-1.12s-.09,.04-.09,.08V3.1s.04,.08,.09,.08h.96s.16,0,.16,0c.05,0,.09-.04,.09-.08V.31s-.04-.08-.09-.08Zm-.45,.23s.04-.08,.09-.08h.14s.09,.04,.09,.08V1.61s-.04,.08-.09,.08h-.14s-.09-.04-.09-.08V.46Zm-.22,2.5s-.04,.08-.09,.08h-.16s-.09-.04-.09-.08V1.89s.04-.08,.09-.08h.16s.09,.04,.09,.08v1.06Zm0-1.35s-.04,.08-.09,.08h-.16s-.09-.04-.09-.08V.47s.04-.08,.09-.08h.16s.09,.04,.09,.08V1.61Zm.53,1.35s-.04,.08-.09,.08h-.14s-.09-.04-.09-.08V1.89s.04-.08,.09-.08h.14s.09,.04,.09,.08v1.06Z"/>
        <path class="cls-1" d="M35.93,2.26s.02-.03,.02-.05v-.09c0-.07-.09-.11-.15-.05-.05,.05-.12,.12-.2,.19-.19,.18-.58,.45-.68,.52h0c.06,0,.21-.01,.52-.16,.22-.11,.32-.18,.48-.35Z"/>
        <path class="cls-1" d="M35.25,1.63c.06,.11,.11,.2,.15,.24,.1,.1,.16,.11,.18,.11h.02s-.27-.78-.27-.78c-.01-.03-.05-.06-.08-.05h-.05c-.06,0-.09,.05-.08,.1,.03,.11,.07,.22,.13,.36,0,0,0,0,0,0Z"/>
        <path class="cls-1" d="M36.27,.47h-1.02s0-.05,0-.05c.02-.13,.03-.23,.04-.31,0-.05-.03-.09-.08-.09h-.08s-.09,.03-.09,.07c0,.11,0,.29-.02,.43-.02,.19-.11,.55-.14,.69h.03c.03-.05,.2-.28,.29-.6v-.02h.85s.09,.04,.09,.08v1.9s0,0,0,0c-.03,.35-.16,.55-.38,.55h-.42s-.09,.03-.09,.08c0,.04,.04,.08,.08,.08h.42c.16,0,.31-.07,.42-.21,.11-.14,.17-.32,.17-.51V.55s-.04-.08-.08-.08Z"/>
        <g>
          <g class="cls-2">
            <g>
              <path class="cls-6" d="M0,6.1s0-.09,0-.13c.01,0,.02,0,.04,0s.03,0,.05,0c.02,0,.05,0,.08,0,.03,0,.05,0,.08,0,.05,0,.09,0,.12,.01,.03,0,.05,.02,.07,.03,.02,.02,.04,.04,.05,.06s.02,.05,.02,.08c0,.04,0,.07-.02,.1-.01,.03-.03,.05-.06,.07-.02,.02-.05,.03-.09,.04s-.07,.01-.11,.01h-.05c0,.05,0,.1,0,.15,0,.05,0,.1,0,.15-.01,0-.02,0-.04,0H.04s-.03,0-.04,0c0-.04,0-.08,0-.13,0-.04,0-.09,0-.15v-.14c0-.06,0-.11,0-.15Zm.3,0s-.01-.03-.02-.04c-.01-.01-.02-.02-.04-.02-.01,0-.03,0-.04,0h-.03s0,0,0,0c0,.05,0,.1,0,.14,0,.05,0,.09,0,.14,.02,0,.04,0,.05,0,.02,0,.04-.01,.05-.02s.03-.03,.04-.05c0-.02,.01-.05,.01-.08,0-.03,0-.05,0-.06Z"/>
              <path class="cls-6" d="M3.69,6.1s0-.09,0-.13c.01,0,.02,0,.04,0,.01,0,.03,0,.05,0s.03,0,.05,0,.03,0,.04,0c0,.04,0,.09,0,.13,0,.04,0,.09,0,.15v.14s0,.08,0,.11c0,.04,0,.07,0,.09,.04,0,.08,0,.12,0,.04,0,.08,0,.12-.01,0,0,0,.01,0,.02,0,0,0,.01,0,.03s0,.02,0,.03c0,0,0,.01,0,.02-.02,0-.04,0-.07,0-.03,0-.07,0-.11,0h-.17s-.03,0-.04,0c0,0-.01,0-.02,0,0-.04,0-.08,0-.13,0-.04,0-.09,0-.15v-.14c0-.06,0-.11,0-.15Z"/>
              <path class="cls-6" d="M7.87,6.67s-.03,0-.05,0h-.09s-.03,0-.04,0c-.01-.03-.02-.07-.03-.1s-.02-.07-.04-.1c-.02,0-.04,0-.07,0-.02,0-.04,0-.07,0-.02,0-.04,0-.05,0-.02,0-.04,0-.05,0-.01,.03-.03,.07-.04,.1-.01,.03-.02,.07-.03,.1,0,0-.02,0-.02,0h-.05s-.02,0-.03,0c0-.02,.02-.04,.03-.07,.01-.03,.03-.07,.05-.11,.02-.04,.03-.08,.05-.13,.02-.04,.04-.09,.06-.14,.02-.05,.04-.09,.06-.14,.02-.04,.04-.09,.05-.12,0,0,.01,0,.02,0s.01,0,.02,0,.01,0,.02,0c0,0,.01,0,.02,0,.02,.06,.05,.12,.07,.18,.03,.07,.05,.13,.08,.19,.03,.06,.05,.12,.08,.18s.05,.1,.07,.14Zm-.37-.5s-.04,.08-.05,.12-.03,.08-.05,.12h.19s-.03-.08-.05-.12c-.01-.04-.03-.08-.05-.12Z"/>
              <path class="cls-6" d="M11.11,6.08s0-.03,0-.04c-.01,0-.02,0-.04,0-.02,0-.03,0-.05,0-.02,0-.04,0-.05,0-.02,0-.03,0-.05,0,0,0,0-.01,0-.02,0,0,0-.01,0-.02s0-.01,0-.02c0,0,0-.01,0-.02,.02,0,.05,0,.06,0,.02,0,.04,0,.06,0,.02,0,.04,0,.06,0,.02,0,.05,0,.08,0s.06,0,.08,0c.02,0,.04,0,.06,0,.02,0,.04,0,.06,0,.02,0,.04,0,.06,0,0,0,0,.01,0,.02,0,0,0,.01,0,.02s0,.01,0,.02c0,0,0,.01,0,.02-.01,0-.03,0-.05,0-.02,0-.03,0-.05,0-.02,0-.03,0-.05,0-.02,0-.03,0-.04,0,0,0,0,0,0,.01,0,0,0,.01,0,.02v.31c0,.06,0,.11,0,.15,0,.04,0,.09,0,.13-.01,0-.02,0-.04,0h-.09s-.03,0-.04,0c0-.04,0-.08,0-.13s0-.09,0-.15v-.25s0-.04,0-.05Z"/>
              <path class="cls-6" d="M14.75,6.1s0-.09,0-.13c.01,0,.02,0,.04,0,.01,0,.03,0,.05,0s.03,0,.05,0,.03,0,.04,0c0,.04,0,.09,0,.13,0,.04,0,.09,0,.15v.14c0,.06,0,.11,0,.15,0,.04,0,.09,0,.13-.01,0-.02,0-.04,0h-.09s-.03,0-.04,0c0-.04,0-.08,0-.13,0-.04,0-.09,0-.15v-.14c0-.06,0-.11,0-.15Z"/>
              <path class="cls-6" d="M18.17,6.06s0-.06,0-.08c.02,0,.04,0,.05,0s.03,0,.05,0c.08,.08,.15,.16,.22,.24,.07,.08,.15,.16,.23,.24v-.19s0-.07,0-.1c0-.03,0-.06,0-.09,0-.03,0-.05,0-.07s0-.03,0-.04c.02,0,.04,0,.05,0s.03,0,.05,0c0,.06,0,.12,0,.17s0,.1,0,.14c0,.04,0,.09,0,.13,0,.04,0,.09,0,.14v.12s-.03,0-.04,0-.03,0-.04,0c-.14-.16-.3-.32-.46-.49,0,.02,0,.04,0,.06,0,.02,0,.04,0,.06v.12s0,.07,0,.1c0,.03,0,.05,0,.07,0,.02,0,.04,0,.05,0,.01,0,.02,0,.03,0,0-.02,0-.03,0h-.02s-.03,0-.05,0c0,0,0-.02,0-.06s0-.07,0-.12c0-.05,0-.1,0-.15,0-.06,0-.11,0-.16,0-.05,0-.09,0-.12Z"/>
              <path class="cls-6" d="M22,6.66s-.07-.02-.1-.05c-.03-.02-.05-.05-.07-.08s-.02-.07-.02-.12c0-.03,0-.05,0-.07,0-.02,0-.04,0-.06s0-.04,0-.05c0-.02,0-.03,0-.05,0-.05,0-.1,0-.13,0-.03,0-.06,0-.08,.01,0,.03,0,.04,0,.01,0,.03,0,.04,0s.03,0,.04,0c.01,0,.03,0,.04,0,0,.07-.01,.13-.01,.18,0,.06,0,.11,0,.17,0,.06,0,.11,.01,.15s.02,.07,.04,.09c.02,.02,.04,.03,.07,.04,.03,0,.06,.01,.09,.01,.04,0,.07-.01,.1-.03,.02-.02,.04-.05,.05-.08,.01-.03,.02-.07,.02-.12,0-.04,0-.09,0-.14s0-.09,0-.14c0-.05,0-.09,0-.14,0,0,.02,0,.03,0s.02,0,.03,0c0,0,.02,0,.03,0s.02,0,.03,0c0,.01,0,.03,0,.06,0,.02,0,.05,0,.09,0,.03,0,.07,0,.11s0,.08,0,.12c0,.12-.03,.2-.08,.25s-.13,.08-.23,.08c-.04,0-.09,0-.12-.01Z"/>
            </g>
            <path class="cls-6" d="M25.46,6.44c0,.08-.01,.15-.02,.23,0,0-.02,0-.03,0h-.05s-.02,0-.02,0c.02-.12,.04-.23,.06-.35s.03-.23,.05-.35c0,0,.01,0,.02,0,0,0,.01,0,.02,0,0,0,.01,0,.02,0s.01,0,.02,0c.02,.04,.04,.08,.06,.12,.02,.04,.04,.08,.06,.12s.04,.08,.06,.12c.02,.04,.04,.08,.06,.11,.04-.08,.08-.15,.12-.24,.04-.08,.08-.16,.12-.25,.02,0,.03,0,.04,0,.01,0,.03,0,.04,0,0,.06,.01,.12,.02,.19,0,.07,.02,.13,.02,.2,0,.06,.02,.12,.02,.18,0,.06,.01,.1,.02,.13-.01,0-.03,0-.04,0h-.09s-.03,0-.04,0c0-.07,0-.14-.02-.23,0-.08-.02-.16-.02-.24h0c-.04,.08-.08,.16-.12,.23-.04,.08-.08,.15-.11,.23,0,0,0,0,0,0,0,0,0,0,0,0s0,0,0,0c0,0,0,0,0,0-.04-.08-.08-.15-.11-.23-.04-.08-.08-.15-.12-.23h0c-.01,.08-.02,.15-.03,.23Z"/>
          </g>
          <g>
            <path class="cls-5" d="M23.94,7.15s-.09,.04-.15,.06c-.06,.02-.13,.03-.2,.05-.07,.01-.15,.02-.23,.02-.17,0-.33-.03-.48-.08-.15-.05-.27-.14-.38-.25-.11-.11-.19-.25-.25-.41-.06-.16-.09-.35-.09-.55s.03-.39,.09-.55c.06-.16,.14-.3,.25-.41,.11-.11,.24-.2,.39-.25,.15-.06,.32-.09,.5-.09,.14,0,.28,.02,.4,.05,.12,.03,.22,.07,.32,.12-.02,.03-.03,.08-.04,.14-.01,.06-.02,.11-.03,.15h-.02s-.05-.05-.09-.09c-.04-.04-.09-.07-.14-.11-.05-.03-.11-.06-.18-.09-.07-.02-.14-.03-.22-.03-.13,0-.25,.02-.36,.07-.11,.05-.21,.12-.29,.21-.08,.1-.15,.22-.19,.36-.05,.15-.07,.32-.07,.52s.02,.38,.07,.52c.05,.15,.11,.27,.19,.36,.08,.1,.18,.17,.29,.21,.11,.05,.23,.07,.36,.07,.08,0,.15-.01,.22-.03,.07-.02,.13-.05,.18-.08,.06-.03,.11-.06,.15-.1,.04-.04,.08-.07,.11-.09h.01s-.03,.23-.03,.23c-.02,.02-.05,.04-.09,.06Z"/>
            <path class="cls-5" d="M24.47,5.44c.06-.16,.14-.3,.25-.41,.11-.11,.24-.2,.39-.25,.15-.06,.32-.09,.5-.09s.35,.03,.5,.09c.15,.06,.28,.14,.39,.25,.11,.11,.19,.25,.25,.41,.06,.16,.09,.35,.09,.55s-.03,.39-.09,.55c-.06,.16-.14,.3-.25,.41-.11,.11-.24,.19-.39,.25-.15,.05-.32,.08-.5,.08s-.34-.03-.5-.08c-.15-.05-.28-.14-.39-.25-.11-.11-.19-.25-.25-.41-.06-.16-.09-.35-.09-.55s.03-.39,.09-.55Zm1.98,.03c-.05-.15-.11-.27-.19-.36-.08-.1-.18-.17-.29-.21-.11-.05-.23-.07-.36-.07s-.25,.02-.36,.07c-.11,.05-.21,.12-.29,.21-.08,.1-.15,.22-.19,.36-.05,.15-.07,.32-.07,.52s.02,.38,.07,.52c.05,.15,.11,.27,.19,.36,.08,.1,.18,.17,.29,.21,.11,.05,.23,.07,.36,.07s.25-.02,.36-.07c.11-.05,.21-.12,.29-.21,.08-.1,.15-.22,.19-.36,.05-.15,.07-.32,.07-.52s-.02-.38-.07-.52Z"/>
            <path class="cls-5" d="M27.77,6.72c-.08-.2-.17-.41-.27-.64-.09-.22-.19-.45-.29-.68-.1-.23-.2-.45-.29-.66,.04,0,.07,0,.1,.01,.03,0,.06,0,.09,0s.06,0,.09,0c.03,0,.07,0,.1-.01,.06,.16,.12,.33,.18,.5,.07,.18,.14,.35,.21,.54,.07,.18,.15,.37,.23,.55,.08,.19,.16,.37,.24,.56,.05-.1,.09-.21,.15-.33,.05-.12,.11-.25,.16-.38,.05-.13,.11-.27,.16-.4,.05-.14,.1-.27,.15-.4,.05-.13,.09-.24,.13-.35,.04-.11,.07-.2,.1-.28,.06,.01,.1,.02,.14,.02s.08,0,.14-.02c-.2,.42-.39,.84-.57,1.26-.18,.42-.36,.83-.52,1.25-.04,0-.08,0-.13,0-.05,0-.09,0-.13,0-.06-.14-.13-.32-.21-.52Z"/>
            <path class="cls-5" d="M29.97,5.2c0-.16-.02-.31-.03-.47,.15,0,.29,0,.43,.01,.14,0,.29,0,.43,0s.29,0,.43,0c.14,0,.29,0,.43-.01,0,.04-.01,.07-.01,.11s0,.07,.01,.11c-.1,0-.2,0-.28-.01-.09,0-.18,0-.27-.01-.1,0-.2,0-.31-.01-.11,0-.25,0-.41,0,0,.08,0,.15-.01,.22,0,.07,0,.15,0,.24,0,.09,0,.19,0,.28,0,.09,0,.16,0,.2,.14,0,.27,0,.38,0,.11,0,.22,0,.31,0s.18,0,.26-.01c.08,0,.15,0,.22-.01,0,.04-.01,.07-.01,.11,0,.04,0,.07,.01,.11-.08,0-.18-.01-.29-.02-.11,0-.22,0-.33,0-.11,0-.22,0-.31,0-.1,0-.18,0-.23,0,0,.02,0,.05,0,.07,0,.03,0,.06,0,.1v.36c0,.14,0,.25,0,.34,0,.09,0,.16,0,.2h.34c.12,0,.24,0,.36,0,.12,0,.23,0,.33-.01,.1,0,.2-.02,.27-.03,0,.02-.01,.04-.01,.06,0,.02,0,.04,0,.06,0,.04,0,.07,.01,.09-.15,0-.29,0-.43,0h-.88c-.15,0-.29,0-.44,0,0-.16,.02-.31,.03-.46,0-.15,.01-.31,.01-.47v-.63c0-.16,0-.32-.01-.47Z"/>
            <path class="cls-5" d="M32.18,5.21c0-.15-.02-.31-.02-.47,.08,0,.17,0,.25,.01,.08,0,.16,0,.25,0s.17,0,.25,0c.08,0,.16,0,.25,0,.12,0,.24,0,.34,.03,.11,.02,.2,.05,.29,.1,.08,.04,.15,.1,.19,.18,.05,.07,.07,.16,.07,.27,0,.12-.03,.22-.09,.3s-.14,.15-.23,.21c-.09,.05-.18,.1-.29,.13-.1,.03-.19,.05-.28,.06,.03,.04,.08,.09,.14,.15,.06,.07,.13,.14,.2,.22,.07,.08,.15,.16,.23,.25,.08,.09,.16,.17,.23,.25,.07,.08,.15,.15,.21,.22s.12,.12,.16,.15c-.04,0-.09,0-.13,0h-.25s-.08,0-.12,0c-.04-.05-.11-.13-.2-.23-.09-.1-.18-.21-.29-.33s-.21-.23-.33-.35c-.11-.12-.21-.21-.3-.29h-.16v.27c0,.16,0,.32,.01,.47,0,.16,.02,.31,.02,.46-.07,0-.14,0-.21,0s-.15,0-.21,0c0-.15,.02-.3,.02-.46,0-.16,.01-.31,.01-.47v-.63c0-.16,0-.32-.01-.47Zm.5,.69s.1,0,.16,0c.09,0,.18,0,.28-.03,.1-.02,.18-.05,.27-.09,.08-.04,.15-.1,.2-.17,.05-.07,.08-.16,.08-.27,0-.09-.02-.17-.06-.23s-.1-.11-.16-.15c-.07-.04-.14-.06-.22-.07-.08-.01-.15-.02-.23-.02-.1,0-.18,0-.25,0-.07,0-.12,0-.17,.01,0,.13-.01,.27-.02,.4,0,.13,0,.26,0,.39v.21s.08,.01,.13,.01Z"/>
          </g>
          <g class="cls-2">
            <path class="cls-6" d="M30.83,6.4v.04c0,.06,0,.11,0,.15,0,.04,0,.09,0,.13-.01,0-.02,0-.04,0h-.09s-.03,0-.04,0c0-.04,0-.08,0-.13,0-.04,0-.09,0-.15v-.14c0-.06,0-.11,0-.15,0-.04,0-.09,0-.13,.01,0,.02,0,.04,0,.01,0,.03,0,.05,0,.02,0,.04,0,.06,0,.02,0,.05,0,.09,0,.03,0,.05,0,.07,0,.02,0,.03,0,.05,0,.01,0,.03,0,.04,.01s.02,0,.03,.02c.02,.01,.04,.03,.05,.06,.01,.02,.02,.05,.02,.08,0,.05-.01,.09-.04,.12-.03,.03-.07,.05-.12,.07,.03,.06,.07,.11,.11,.17s.08,.11,.11,.17c-.02,0-.03,0-.05,0h-.09s-.03,0-.05,0l-.19-.32h0Zm.16-.26s-.02-.03-.03-.04c-.01,0-.03-.01-.05-.02-.02,0-.05,0-.07,0,0,.09,0,.18,0,.28,0,0,0,0,.01,0,0,0,0,0,.01,0,.05,0,.08-.01,.11-.04,.02-.02,.04-.06,.04-.11,0-.03,0-.05,0-.07Z"/>
            <path class="cls-6" d="M34.05,6.16s0-.09,0-.13c.01,0,.02,0,.04,0,.01,0,.03,0,.05,0s.03,0,.05,0,.03,0,.04,0c0,.04,0,.09,0,.13,0,.04,0,.09,0,.15v.14c0,.06,0,.11,0,.15,0,.04,0,.09,0,.13-.01,0-.02,0-.04,0h-.09s-.03,0-.04,0c0-.04,0-.08,0-.13,0-.04,0-.09,0-.15v-.14c0-.06,0-.11,0-.15Z"/>
            <path class="cls-6" d="M37.45,6.27c.03-.09,.06-.17,.09-.25,.02,0,.03,0,.05,0s.03,0,.05,0c-.02,.04-.04,.09-.06,.14s-.05,.12-.08,.18-.05,.13-.08,.19c-.03,.06-.05,.13-.07,.18-.01,0-.03,0-.05,0s-.03,0-.05,0c-.01-.03-.02-.06-.04-.1-.01-.04-.03-.08-.05-.12-.02-.04-.03-.09-.05-.13-.02-.05-.04-.09-.05-.13s-.03-.08-.05-.12c-.02-.04-.03-.07-.04-.09,.02,0,.03,0,.05,0s.03,0,.05,0,.03,0,.05,0,.03,0,.05,0c.01,.04,.03,.08,.04,.12,.01,.04,.03,.08,.05,.13,.02,.04,.03,.09,.05,.13,.02,.04,.03,.09,.05,.13,.04-.09,.07-.17,.11-.26Z"/>
            <path class="cls-6" d="M40.29,6.16s0-.09,0-.13c.03,0,.06,0,.09,0,.03,0,.06,0,.09,0,.05,0,.1,0,.14,0s.07,0,.08,0c0,.01,0,.02,0,.04,0,.01,0,.02,0,.03,0,0,0,.01,0,.02-.02,0-.04,0-.07,0-.02,0-.05,0-.07,0-.02,0-.04,0-.06,0-.02,0-.03,0-.04,0,0,.04,0,.07,0,.11s0,.07,0,.11c.05,0,.09,0,.12,0,.04,0,.07,0,.11,0,0,.01,0,.02,0,.03,0,0,0,.01,0,.02,0,0,0,.01,0,.02,0,0,0,.01,0,.02-.08,0-.16,0-.24,0,0,.02,0,.04,0,.06s0,.04,0,.06c0,.04,0,.09,0,.13,.04,0,.08,0,.12,0s.08,0,.12-.01c0,0,0,.01,0,.02,0,0,0,.01,0,.03s0,.02,0,.03c0,0,0,.01,0,.02-.02,0-.04,0-.07,0-.03,0-.07,0-.11,0h-.17s-.03,0-.04,0c0,0-.01,0-.02,0,0-.04,0-.08,0-.13s0-.09,0-.15v-.14c0-.06,0-.11,0-.15Z"/>
            <path class="cls-6" d="M43.56,6.4v.04c0,.06,0,.11,0,.15,0,.04,0,.09,0,.13-.01,0-.02,0-.04,0h-.09s-.03,0-.04,0c0-.04,0-.08,0-.13,0-.04,0-.09,0-.15v-.14c0-.06,0-.11,0-.15,0-.04,0-.09,0-.13,.01,0,.02,0,.04,0,.01,0,.03,0,.05,0,.02,0,.04,0,.06,0,.02,0,.05,0,.09,0,.03,0,.05,0,.07,0,.02,0,.03,0,.05,0,.01,0,.03,0,.04,.01s.02,0,.03,.02c.02,.01,.04,.03,.05,.06,.01,.02,.02,.05,.02,.08,0,.05-.01,.09-.04,.12-.03,.03-.07,.05-.12,.07,.03,.06,.07,.11,.11,.17s.08,.11,.11,.17c-.02,0-.03,0-.05,0h-.09s-.03,0-.05,0l-.19-.32h0Zm.16-.26s-.02-.03-.03-.04c-.01,0-.03-.01-.05-.02-.02,0-.05,0-.07,0,0,.09,0,.18,0,.28,0,0,0,0,.01,0,0,0,0,0,.01,0,.05,0,.08-.01,.11-.04,.02-.02,.04-.06,.04-.11,0-.03,0-.05,0-.07Z"/>
            <path class="cls-6" d="M46.6,6.16s0-.09,0-.13c.01,0,.02,0,.04,0,.01,0,.03,0,.05,0,.03,0,.06,0,.09,0,.03,0,.06,0,.09,0s.06,0,.09,0,.05,.02,.07,.03c.02,.01,.03,.03,.04,.05,.01,.02,.02,.04,.02,.07s0,.05-.02,.07-.03,.04-.04,.05c-.02,.01-.04,.02-.06,.03-.02,0-.04,.01-.05,.02h0s.03,0,.06,.01c.02,0,.04,.02,.06,.03,.02,.01,.04,.03,.05,.05,.01,.02,.02,.05,.02,.08,0,.04,0,.07-.02,.09-.01,.03-.03,.05-.05,.06-.02,.02-.05,.03-.08,.03s-.06,0-.09,0c-.03,0-.05,0-.08,0-.02,0-.05,0-.08,0h-.06s-.04,0-.05,0c0-.04,0-.08,0-.13,0-.04,0-.09,0-.15v-.14c0-.06,0-.11,0-.15Zm.32,0s-.01-.03-.02-.04c0-.01-.02-.02-.03-.03s-.03,0-.05,0c-.02,0-.03,0-.03,0,0,0-.01,0-.02,0,0,.02,0,.05,0,.08,0,.03,0,.05,0,.06s0,.04,0,.05c0,.02,0,.03,0,.05h.05s.03,0,.04,0,.03-.01,.04-.02c.01-.01,.02-.02,.03-.04s.01-.04,.01-.06c0-.02,0-.03,0-.05Zm-.02,.27s-.05-.03-.1-.03c0,0-.02,0-.03,0,0,0-.01,0-.02,0,0,.01,0,.03,0,.04,0,.02,0,.03,0,.05,0,.02,0,.03,0,.05,0,.02,0,.03,0,.05s0,.03,0,.04c0,.01,0,.02,0,.03,0,0,.02,0,.03,0,0,0,.02,0,.03,0,.02,0,.03,0,.04,0,.01,0,.03-.01,.04-.03,.01-.01,.02-.03,.03-.04s0-.04,0-.06c0-.05-.01-.08-.03-.11Z"/>
            <path class="cls-6" d="M50.36,6.72s-.03,0-.05,0h-.09s-.03,0-.04,0c-.01-.03-.02-.07-.03-.1s-.02-.07-.04-.1c-.02,0-.04,0-.07,0-.02,0-.04,0-.07,0-.02,0-.04,0-.05,0-.02,0-.04,0-.05,0-.01,.03-.03,.07-.04,.1-.01,.03-.02,.07-.03,.1,0,0-.02,0-.02,0h-.05s-.02,0-.03,0c0-.02,.02-.04,.03-.07,.01-.03,.03-.07,.05-.11,.02-.04,.03-.08,.05-.13,.02-.04,.04-.09,.06-.14,.02-.05,.04-.09,.06-.14,.02-.04,.04-.09,.05-.12,0,0,.01,0,.02,0s.01,0,.02,0,.01,0,.02,0c0,0,.01,0,.02,0,.02,.06,.05,.12,.07,.18,.03,.07,.05,.13,.08,.19,.03,.06,.05,.12,.08,.18s.05,.1,.07,.14Zm-.37-.5s-.04,.08-.05,.12-.03,.08-.05,.12h.19s-.03-.08-.05-.12c-.01-.04-.03-.08-.05-.12Z"/>
            <path class="cls-6" d="M52.9,6.11s0-.06,0-.08c.02,0,.04,0,.05,0s.03,0,.05,0c.08,.08,.15,.16,.22,.24,.07,.08,.15,.16,.23,.24v-.19s0-.07,0-.1c0-.03,0-.06,0-.09,0-.03,0-.05,0-.07s0-.03,0-.04c.02,0,.04,0,.05,0s.03,0,.05,0c0,.06,0,.12,0,.17s0,.1,0,.14c0,.04,0,.09,0,.13,0,.04,0,.09,0,.14v.12s-.03,0-.04,0-.03,0-.04,0c-.14-.16-.3-.32-.46-.49,0,.02,0,.04,0,.06,0,.02,0,.04,0,.06v.12s0,.07,0,.1c0,.03,0,.05,0,.07,0,.02,0,.04,0,.05,0,.01,0,.02,0,.03,0,0-.02,0-.03,0h-.02s-.03,0-.05,0c0,0,0-.02,0-.06s0-.07,0-.12c0-.05,0-.1,0-.15,0-.06,0-.11,0-.16,0-.05,0-.09,0-.12Z"/>
            <path class="cls-6" d="M56.27,6.59c0,.05,0,.09,0,.13-.01,0-.02,0-.04,0h-.09s-.03,0-.04,0c0-.04,0-.08,0-.13,0-.04,0-.09,0-.15v-.14c0-.06,0-.11,0-.15,0-.04,0-.09,0-.13,.01,0,.02,0,.04,0s.03,0,.05,0,.03,0,.05,0,.03,0,.04,0c0,.02,0,.05,0,.09s0,.09,0,.13v.1s.05-.06,.08-.09c.03-.03,.05-.06,.08-.09,.03-.03,.05-.06,.07-.08,.02-.03,.03-.04,.04-.06,0,0,.02,0,.03,0,0,0,.02,0,.03,0s.02,0,.03,0,.02,0,.03,0c-.01,.01-.03,.03-.05,.06-.02,.03-.05,.05-.08,.08s-.05,.06-.08,.09c-.03,.03-.04,.05-.06,.07,.02,.03,.05,.07,.07,.11,.03,.04,.05,.08,.08,.12,.03,.04,.05,.07,.07,.11,.02,.03,.04,.06,.06,.07-.02,0-.04,0-.05,0h-.09s-.03,0-.05,0c-.04-.05-.07-.1-.1-.16-.03-.05-.07-.11-.1-.16h0c0,.07,0,.14,0,.19Z"/>
          </g>
        </g>
        <rect class="cls-3" x="8.8" y="16.22" width="41.15" height=".1"/>
        <g>
          <path class="cls-1" d="M11.24,12.83c0,.17-.09,.26-.28,.26h-1.51c-.11,0-.18-.03-.23-.08-.03-.04-.05-.1-.05-.18v-1.57c0-.17,.09-.26,.28-.26h1.51c.11,0,.18,.03,.23,.08,.03,.04,.05,.1,.05,.18v1.57Zm-.25-1.59c0-.09-.04-.13-.13-.13h-1.31c-.08,0-.13,.04-.13,.13v1.61c0,.08,.04,.13,.13,.13h1.31c.08,0,.13-.04,.13-.13v-1.61Zm-.83,1.13s.05,.02,.05,.05c0,.02,0,.03-.02,.04h-.03s-.1,.04-.18,.06c-.06,.01-.12,.03-.2,.05-.06,.01-.11,.02-.16,.03h-.07c-.06,.01-.09-.02-.09-.08,0-.04,.01-.06,.04-.08,0,0,.02,0,.03-.01h.03c.08,0,.17-.01,.27-.02l.14-.02,.16-.02h.02Zm-.59-.79s-.01,0-.02,0c0,0-.02,0-.02,0-.02,0-.03-.02-.03-.05s0-.04,.03-.05c0,0,.01,0,.02,0,0,0,.01,0,.02,0h.68s0-.06,0-.11v-.06s0-.03,0-.04c.01-.05,.05-.08,.11-.08,.08,0,.12,.04,.12,.12v.16h.37s.01,0,.02,0c0,0,.02,0,.02,0,.02,0,.03,.02,.03,.05,0,.02,0,.04-.03,.05,0,0-.01,0-.02,0,0,0-.01,0-.02,0h-.37v.05s0,.04,0,.06c0,.05,0,.09,.01,.14,0,.06,.01,.11,.02,.17,.01,.06,.02,.13,.04,.19,.04-.08,.08-.18,.12-.31,0-.03,.02-.05,.03-.06,.02-.02,.05-.03,.08-.03,.09,0,.13,.04,.13,.11,0,.11-.1,.29-.3,.53v.02s.02,.02,.02,.03c0,.02,.02,.04,.03,.06,.02,.04,.05,.07,.06,.07,.03,0,.05-.03,.06-.1,0-.05,.04-.07,.08-.07,.06,0,.1,.03,.1,.08,0,0,0,.02-.01,.06-.01,.04-.03,.08-.05,.11-.02,.05-.05,.08-.08,.11-.04,.03-.07,.05-.12,.05-.09,0-.18-.08-.26-.24-.08,.07-.17,.14-.27,.2-.09,.06-.14,.09-.17,.09-.04,0-.06-.02-.06-.06,0-.02,.01-.04,.03-.05,.15-.09,.28-.21,.39-.35-.03-.08-.05-.17-.07-.26-.02-.08-.03-.16-.04-.24,0-.07-.02-.14-.02-.21v-.16h-.7Zm.61,.54c0,.09-.06,.14-.17,.14h-.26c-.11,0-.17-.05-.17-.14v-.23c0-.09,.06-.14,.17-.14h.26c.11,0,.17,.05,.17,.14v.23Zm-.18-.18c0-.05-.03-.08-.08-.08h-.07c-.05,0-.08,.03-.08,.08v.14c0,.05,.03,.08,.08,.08h.07c.05,0,.08-.03,.08-.08v-.14Zm.67-.57s0-.01-.02-.02l-.07-.09s0-.01,0-.03c0-.04,.02-.06,.06-.06,0,0,.02,0,.03,0l.05,.02,.08,.05c.06,.04,.08,.07,.08,.11,0,.07-.03,.1-.1,.1-.03,0-.07-.03-.11-.09Z"/>
          <path class="cls-1" d="M14.71,13.02s0,.02,0,.02c0,.02,0,.04-.01,.05-.02,.04-.05,.06-.1,.06s-.09-.02-.11-.06c0-.01-.01-.03-.01-.05,0,0,0-.01,0-.02v-1.82c0-.13,.07-.19,.22-.19h.36c.1,0,.15,.04,.15,.13,0,0,0,.02,0,.03,0,.01,0,.02,0,.03l-.26,.57s0,.02,0,.02c0,0,0,0,0,0,0,0,0,.01,.01,.02,.03,.04,.06,.08,.09,.12,.03,.05,.06,.1,.08,.15,.03,.06,.05,.12,.06,.17,.02,.07,.02,.13,.02,.2,0,.07-.01,.13-.03,.17-.02,.04-.04,.07-.08,.09-.03,.02-.06,.03-.09,.03h-.04s-.16,0-.16,0c0,0-.01,0-.02,0,0,0-.02,0-.02,0-.02,0-.03-.02-.03-.04,0-.02,0-.04,.03-.05,0,0,.01,0,.02,0,0,0,.01,0,.02,0h.06c.07,0,.11-.07,.11-.21,0-.13-.02-.24-.07-.35-.02-.04-.04-.08-.07-.13l-.07-.1s-.03-.05-.03-.07c0,0,0-.02,0-.04l.19-.59s-.02-.04-.05-.04h-.09c-.07,0-.1,.03-.1,.1v1.8Zm.36,0s.01-.04,.04-.06c.07-.06,.14-.13,.19-.22,.02-.03,.04-.06,.06-.1l.04-.07s.06-.07,.11-.07c.09,0,.14,.04,.14,.12,0,.03-.02,.07-.07,.12-.04,.05-.09,.1-.16,.15-.06,.05-.12,.09-.17,.13-.06,.04-.09,.06-.11,.06-.04,0-.06-.02-.06-.06Zm.75-1.9s.05,0,.07,.02c0-.03-.01-.06-.01-.07,0-.08,.04-.11,.13-.11,.07,0,.11,.03,.12,.09,0,0,0,.01,0,.02v.09s.04-.03,.07-.03h.27c.09,0,.14,.03,.14,.1,0,.03-.04,.1-.12,.19-.03,.04-.07,.07-.1,.12l-.09,.1c.05,.09,.11,.16,.17,.22,.02,.02,.05,.05,.08,.07l.09,.08s0,.02,0,.03c0,.04-.02,.05-.06,.05,0,0-.02,0-.04-.01-.02,0-.04-.02-.07-.04-.05-.03-.1-.07-.15-.11-.06-.06-.12-.12-.18-.18-.04-.06-.08-.12-.12-.18-.03-.05-.05-.11-.08-.16,0-.02-.02-.05-.03-.07l-.02-.06c-.04,.11-.1,.23-.18,.34-.07,.09-.15,.18-.24,.26-.17,.16-.28,.23-.33,.23-.04,0-.05-.02-.05-.06,0-.02,.01-.04,.04-.06,.05-.03,.09-.07,.13-.11l.07-.07s0,0,0,0h0s-.05-.04-.08-.1l-.04-.06s-.02-.03-.02-.04c0-.01,0-.02,0-.03-.04,.04-.07,.06-.08,.06-.04,0-.06-.02-.06-.06,0,0,0-.02,.01-.03,0-.01,.02-.03,.03-.04l.05-.07c.04-.07,.08-.14,.1-.2,.02-.04,.04-.11,.06-.2v-.03s.02-.02,.03-.03c.02-.02,.05-.03,.09-.03,.09,0,.14,.04,.14,.11,0,.01,0,.03-.02,.06h.25Zm.23,1.83c0,.07-.01,.11-.04,.14-.03,.04-.09,.06-.17,.06h-.28s-.02,0-.02,0-.01,0-.02-.02c0,0,0-.02,0-.03s0-.02,0-.03c0,0,.01-.01,.02-.02,0,0,.01,0,.02,0h.14c.07,0,.1-.03,.1-.1v-.56h-.48s-.01,0-.02,0c0,0-.02,0-.02,0-.02,0-.03-.02-.03-.04,0-.02,0-.04,.03-.05,0,0,.01,0,.02,0,0,0,.01,0,.02,0h1.25s.01,0,.02,0c0,0,.02,0,.02,0,.02,0,.03,.02,.03,.05,0,.02,0,.04-.03,.04,0,0-.01,0-.02,0,0,0-.01,0-.02,0h-.51v.57Zm-.55-1.33s.03-.04,.04-.07c0,0-.02,0-.04-.01,0,0,0,0-.01-.01l-.08-.11s-.02-.02-.02-.03c-.03,.04-.07,.09-.13,.14,.02,0,.06,.02,.11,.06,.05,.03,.08,.06,.1,.08l.03-.04Zm0-.4s-.03,.05-.07,.1c0,0,.02,0,.03,0,.01,0,.03,.01,.05,.02,.04,.02,.07,.04,.09,.06,.02-.04,.03-.08,.04-.11,0-.03,.01-.04,.01-.05,0,0,0-.01,0-.02,0,0-.02-.01-.03-.01h-.12Zm.04,.79s-.01,0-.02,0c0,0-.02,0-.02,0-.02,0-.02-.02-.02-.04,0-.02,0-.04,.03-.05,0,0,.01,0,.02,0,0,0,.01,0,.02,0h.72s.01,0,.02,0c0,0,.02,0,.02,0,.02,0,.03,.02,.03,.05,0,.02,0,.04-.03,.05,0,0-.01,0-.02,0,0,0-.01,0-.02,0h-.72Zm.67-.79s-.03,0-.03,0c0,0-.01,0-.02,0,.02,.09,.04,.18,.08,.27,.04-.06,.07-.11,.09-.16,.02-.03,.03-.05,.03-.06,0-.02-.01-.03-.04-.03h-.11Zm.28,1.82c-.05,0-.09-.03-.12-.1-.03-.06-.05-.12-.08-.18l-.1-.16s-.01-.03-.01-.04c0-.04,.02-.06,.06-.06,0,0,.02,0,.03,0,.01,0,.02,.02,.04,.03l.07,.06,.09,.08s.06,.06,.08,.08c.06,.06,.09,.11,.09,.15,0,.09-.05,.14-.14,.14Z"/>
          <path class="cls-1" d="M19.96,11.58s-.02,0-.02,0c0,0-.02,0-.02,0-.02,0-.02-.02-.02-.04,0-.02,0-.04,.03-.05,0,0,.01,0,.02,0,0,0,.01,0,.02,0h.65c.07,0,.12,.02,.15,.05,.02,.03,.04,.06,.04,.09,0,.03,0,.07-.02,.12-.01,.07-.03,.14-.06,.21-.03,.09-.07,.18-.11,.26-.05,.1-.11,.19-.17,.27-.05,.07-.11,.13-.17,.19-.05,.05-.1,.1-.15,.14-.1,.08-.16,.12-.18,.12-.04,0-.06-.02-.06-.06,0-.02,.01-.04,.03-.06,.12-.09,.22-.21,.31-.34,.07-.11,.13-.23,.19-.36,.02-.05,.04-.11,.06-.16,.01-.05,.02-.1,.03-.14,0-.04,.01-.07,.02-.11,0-.03,0-.05,0-.06,0-.03-.02-.05-.06-.05h-.5Zm1.17,1.34c0,.08-.02,.14-.07,.18-.04,.03-.1,.04-.18,.04h-.33s-.02,0-.02,0c0,0-.02,0-.02-.01,0,0,0-.02,0-.03s0-.02,0-.03c0,0,.01-.01,.02-.02,0,0,.01,0,.02,0h.2c.08,0,.12-.04,.12-.13v-1.83s0-.02,0-.02c0-.02,0-.04,.01-.06,.02-.04,.06-.07,.11-.07s.09,.02,.11,.07c0,.02,.01,.03,.01,.06,0,0,0,.02,0,.02v.24c.03,.11,.05,.2,.07,.28,0,.03,.02,.06,.04,.1l.03,.07s0,.02,0,.02c.07-.05,.15-.11,.22-.18,.08-.08,.15-.15,.21-.23,.05-.06,.09-.1,.14-.1,.04,0,.07,.02,.11,.05,.03,.03,.05,.07,.05,.11,0,.03-.01,.05-.03,.08-.03,.03-.09,.08-.19,.14-.08,.05-.16,.1-.22,.14l-.22,.12c.19,.38,.44,.68,.77,.91,.02,.01,.04,.03,.04,.05,0,.04-.02,.06-.05,.06,0,0-.03-.01-.07-.03-.04-.02-.08-.05-.14-.08-.06-.04-.11-.08-.17-.12-.06-.05-.12-.1-.17-.14-.05-.05-.1-.1-.15-.16-.04-.05-.08-.1-.12-.15-.03-.04-.06-.08-.08-.13l-.03-.05s-.02-.03-.02-.04v.91Z"/>
          <path class="cls-1" d="M25.57,11.94c0-.09,.02-.15,.07-.18,.04-.03,.1-.04,.19-.04h1.72s.02,0,.02,0c0,0,.02,0,.02,0,.02,0,.02,.02,.02,.05,0,.02,0,.04-.03,.05,0,0-.01,0-.02,0,0,0-.01,0-.02,0h-1.6c-.08,0-.11,.04-.11,.11v.22c0,.18-.02,.32-.05,.45-.03,.11-.08,.22-.15,.32-.03,.04-.07,.09-.11,.13-.05,.05-.08,.08-.1,.08-.04,0-.06-.02-.06-.06,0,0,0-.01,0-.03l.07-.09c.05-.09,.09-.21,.11-.35,0-.06,.01-.12,.02-.19,0-.05,0-.11,0-.18v-.31Zm.82-.87s0-.02,0-.02c0-.02,0-.04,.01-.06,.02-.05,.06-.07,.11-.07s.09,.02,.12,.07c0,.02,.01,.03,.01,.06,0,0,0,.01,0,.02v.37h.41c.07,0,.1-.04,.1-.11v-.18s0-.08,.02-.11c.02-.03,.06-.05,.11-.05s.09,.02,.11,.05c.02,.03,.03,.06,.03,.11v.18c0,.14-.08,.21-.24,.21h-1.33c-.16,0-.24-.07-.24-.21v-.2s0-.02,0-.02c0-.02,0-.04,.01-.06,.02-.04,.06-.06,.11-.06s.09,.02,.12,.06c0,.01,.01,.03,.01,.05,0,0,0,.02,0,.02v.2c0,.07,.03,.11,.1,.11h.41v-.37Zm.42,1.44h.73s.02,0,.02,0c0,0,.02,0,.02,0,.02,0,.02,.02,.02,.05s0,.04-.03,.05c0,0-.01,0-.02,0,0,0-.01,0-.02,0h-.73v.39s0,.02,0,.03c0,.02,0,.04-.01,.06-.02,.05-.06,.07-.11,.07s-.09-.02-.11-.07c0-.02-.01-.04-.01-.06,0,0,0-.02,0-.03v-.39h-.61s-.02,0-.02,0c0,0-.02,0-.02,0-.02,0-.02-.02-.02-.05,0-.02,0-.04,.03-.05,0,0,.01,0,.02,0,0,0,.01,0,.02,0h.61v-.38h-.48s-.01,0-.02,0c0,0-.02,0-.02,0-.02,0-.03-.02-.03-.05s0-.04,.03-.05c0,0,.01,0,.02,0,0,0,.01,0,.02,0h1.24s.02,0,.02,0c0,0,.02,0,.02,0,.02,0,.02,.02,.02,.05,0,.02,0,.04-.03,.05,0,0-.01,0-.02,0,0,0-.01,0-.02,0h-.5v.38Z"/>
          <path class="cls-1" d="M32.3,11.49h-.15l-.04,.04s-.03,.03-.05,.04c-.02,.01-.03,.03-.05,.03-.02,0-.03,.01-.04,.01-.04,0-.06-.02-.06-.06,0,0,0-.02,.01-.03l.06-.1s.04-.07,.05-.11c.01-.03,.02-.06,.03-.07,.02-.02,.05-.04,.08-.04,.03,0,.06,0,.09,.03,.03,.02,.05,.05,.05,.07,0,.01,0,.03-.01,.04l-.02,.03h.5s0-.09,0-.09c0-.06-.03-.09-.09-.09h-1.46c-.06,0-.09,.03-.09,.09v.05h.65s.01,0,.02,0c0,0,.02,0,.02,0,.02,0,.02,.02,.02,.05,0,.02,0,.03-.02,.04,0,0-.01,0-.02,0,0,0-.01,0-.02,0h-.23v.15h.17s.01,0,.02,0c0,0,.02,0,.02,0,.02,0,.02,.02,.02,.04s0,.03-.02,.04c0,0-.01,0-.02,0,0,0-.01,0-.02,0h-.17v.16l.19-.02h.05s.06,.02,.06,.05c0,.02,0,.03-.02,.04h-.02s-.02,.01-.02,.01c-.36,.09-.62,.13-.77,.13-.04,0-.07-.01-.08-.04,0,0,0-.02-.01-.03,0,0,0-.02,0-.03,0-.04,.02-.06,.05-.08,0,0,.02,0,.05,0,.03,0,.06,0,.11,0,.03,0,.07,0,.12,0,0,0,.01,0,.02,0h.05v-.18h-.19s-.01,0-.02,0c0,0-.02,0-.02,0-.02,0-.02-.02-.02-.04s0-.03,.02-.04c0,0,.01,0,.02,0,0,0,.01,0,.02,0h.19v-.15h-.21s-.03,.05-.07,.06c0,0-.02,0-.03,0h-.03s0,0-.01,0c-.02,0-.03,0-.04-.01-.04-.02-.06-.06-.06-.12v-.17s.02-.04,.03-.06c.03-.04,.09-.06,.17-.06h.74v-.04s.02-.08,.05-.1c.02-.02,.05-.03,.09-.03s.06,0,.09,.03c.03,.02,.04,.05,.04,.1v.04h.74c.06,0,.1,0,.13,.03,.05,.03,.07,.08,.07,.16v.11c0,.05-.02,.09-.05,.11-.02,.01-.05,.02-.08,.02h-.04s-.02-.01-.03-.02c0,0-.02-.01-.03-.02,0,0,0,0,0,0,0,0-.01,0-.02,0h-.21v.14h.36s.01,0,.02,0c0,0,.02,0,.02,0,.02,0,.02,.02,.02,.04s0,.03-.02,.04c0,0-.01,0-.02,0,0,0-.01,0-.02,0h-.36v.22h.11s.06-.02,.06-.06v-.04s0-.02,0-.03c0-.01,0-.02,.01-.03,.02-.02,.04-.04,.07-.04,.06,0,.09,.03,.09,.1v.07c0,.09-.05,.14-.16,.14h-.61c-.1,0-.16-.05-.16-.14v-.07c0-.06,.03-.09,.09-.09s.09,.03,.09,.09v.04s.02,.06,.06,.06h.11v-.22h-.4s-.02,0-.02,0c-.02,0-.02-.02-.02-.04s0-.04,.02-.04c0,0,.01,0,.02,0h.4v-.14Zm-.6,1.4s.01,.02,.02,.02c0,.01,0,.03,0,.04,0,.03-.02,.06-.06,.08-.04,.02-.12,.04-.24,.07-.09,.02-.19,.03-.28,.05s-.16,.02-.19,.02c-.04,0-.06-.02-.06-.06,0-.03,.04-.05,.12-.07,.1-.03,.19-.05,.25-.07,.05-.02,.1-.04,.18-.08h-.08c-.15,0-.22-.06-.22-.19v-.39c0-.13,.07-.19,.22-.19h1.15c.08,0,.14,.02,.18,.05,.03,.03,.04,.07,.04,.14v.39c0,.13-.07,.19-.22,.19h-.07c.15,.07,.31,.13,.47,.17,.04,0,.06,.03,.06,.05,0,.04-.02,.06-.06,.06-.02,0-.05,0-.1,0-.04,0-.09-.01-.14-.02l-.14-.02s-.06-.01-.07-.01c-.11-.02-.19-.05-.23-.07-.03-.02-.05-.04-.05-.07,0,0,0-.02,0-.03,0-.01,.01-.03,.02-.04h-.5Zm.77-.55s0-.08-.01-.09c0-.02-.04-.02-.08-.02h-.9s-.07,0-.08,.02c0,.01-.01,.04-.01,.09h1.08Zm-1.08,.1v.12h1.08v-.12h-1.08Zm0,.22c0,.05,0,.09,.01,.1,0,.02,.04,.02,.08,.02h.9s.07,0,.08-.02c0-.01,.01-.05,.01-.1h-1.08Z"/>
          <path class="cls-1" d="M36.97,11.72c-.07,0-.1,.03-.1,.1v.26c0,.07,0,.14,0,.2,0,.08-.02,.15-.03,.21-.03,.16-.09,.29-.16,.41-.04,.07-.09,.13-.15,.18-.05,.05-.09,.07-.11,.07-.04,0-.06-.02-.06-.06,0-.01,0-.03,.03-.05,.03-.04,.06-.08,.08-.12,.03-.05,.05-.09,.07-.15,.05-.12,.08-.27,.09-.44h-.1s0,.08-.01,.12c0,.05-.02,.09-.03,.13-.03,.1-.08,.18-.15,.24,0,0-.01,0-.02,.01,0,0-.02,0-.03,0-.04,0-.05-.02-.05-.06,0,0,0-.01,0-.02l.02-.03c.06-.09,.09-.23,.09-.4h-.04s-.02,0-.02,0c0,0-.02,0-.02,0-.02,0-.02-.02-.02-.05s0-.04,.02-.05c0,0,.01,0,.02,0,0,0,.01,0,.02,0h.33v-.21h-.15c-.12,0-.18-.05-.18-.16v-.24s0-.01,0-.02c0-.02,0-.03,0-.04,.02-.03,.05-.05,.09-.05,.07,0,.1,.04,.1,.12v.19c0,.06,.03,.08,.08,.08h.05v-.11c0-.13,.07-.19,.22-.19h.85v-.15c-.11,.02-.16-.03-.16-.14v-.06h-.45v.07c0,.1-.04,.14-.13,.14s-.13-.05-.13-.14v-.07h-.54s-.02,0-.02,0c0,0-.02,0-.02,0-.02,0-.02-.02-.02-.05,0-.02,0-.04,.03-.05,0,0,.01,0,.02,0,0,0,.01,0,.02,0h.54v-.07c0-.1,.04-.15,.13-.15s.13,.05,.13,.15v.07h.45v-.07c0-.1,.04-.15,.13-.15s.13,.05,.13,.15v.07h.59s.01,0,.02,0c0,0,.02,0,.02,0,.02,0,.02,.02,.03,.05,0,.02,0,.04-.03,.05,0,0-.01,0-.02,0,0,0-.01,0-.02,0h-.59v.06s0,.02,0,.03v.03c.05,0,.09,0,.11,.04,0,.01,.01,.03,.02,.05,0,0,0,.01,0,.02v.13h.24s-.06-.05-.1-.11c-.01-.02-.02-.04-.04-.06l-.03-.04s-.01-.01-.01-.01c-.01-.01-.02-.03-.02-.04,0-.04,.02-.06,.06-.06,0,0,.02,0,.03,0,.01,0,.02,.01,.04,.02l.08,.04c.1,.06,.15,.12,.15,.16,0,.05-.03,.08-.08,.1h.1s.02,0,.02,0c0,0,.02,0,.02,0,.02,0,.02,.02,.02,.05,0,.02,0,.04-.03,.05,0,0-.01,0-.02,0,0,0-.01,0-.02,0h-.41c0,.22,.02,.43,.05,.62,.04-.1,.08-.23,.12-.38,.02-.07,.06-.1,.13-.1,.09,0,.14,.04,.14,.12,0,.04-.02,.11-.07,.21-.03,.06-.06,.12-.1,.19-.04,.08-.09,.15-.15,.23,.06,.2,.12,.29,.17,.29,.02,0,.05-.05,.06-.14,0-.05,.04-.08,.09-.08,.07,0,.1,.03,.1,.09,0,.02,0,.05-.02,.09-.01,.05-.03,.09-.05,.13-.02,.05-.05,.09-.08,.12-.04,.03-.08,.05-.12,.05-.07,0-.14-.05-.21-.14-.02-.03-.05-.07-.07-.12,0-.02-.02-.04-.03-.05l-.02-.05c-.05,.05-.11,.11-.16,.15-.05,.04-.1,.08-.14,.11-.04,.03-.08,.05-.11,.07-.03,.01-.05,.02-.06,.02-.04,0-.06-.02-.06-.05,0-.02,.01-.04,.04-.05,.05-.03,.1-.07,.15-.11,.04-.04,.08-.07,.12-.12,.03-.03,.06-.07,.09-.11,.02-.03,.04-.06,.07-.09-.05-.16-.08-.3-.09-.44,0-.07-.01-.14-.02-.22,0-.07,0-.15,0-.25h-.73Zm.68,.71c0,.05-.02,.09-.06,.11-.01,0-.03,.01-.06,.01-.01,0-.04,0-.07,0v.19h.14s.02,0,.02,0c.02,0,.03,.02,.03,.05s0,.04-.03,.05c0,0-.01,0-.02,0,0,0-.01,0-.02,0h-.44c-.13,0-.2-.06-.2-.17v-.63c0-.11,.07-.17,.2-.17h.44s.01,0,.02,0c0,0,.02,0,.02,0,.02,0,.02,.02,.02,.05s0,.04-.02,.04c0,0-.01,0-.02,0,0,0-.01,0-.02,0h-.12v.18s.06,0,.07,0c.02,0,.04,0,.06,.01,.04,.02,.06,.05,.06,.11v.14Zm-.37-.26v-.18h-.05c-.06,0-.09,.03-.09,.09v.09h.14Zm-.14,.11v.17h.27s.04-.01,.04-.04v-.08s-.01-.04-.04-.04h-.27Zm0,.28v.1c0,.06,.03,.09,.09,.09h.05v-.19h-.14Z"/>
          <path class="cls-1" d="M43.13,11.9h.77s.01,0,.02,0c0,0,.02,0,.02,0,.02,0,.03,.02,.03,.05s0,.04-.03,.05c0,0-.01,0-.02,0,0,0-.01,0-.02,0h-.77v.33h.35c.09,0,.15,.01,.19,.04,.05,.04,.07,.1,.07,.18v.31c0,.15-.09,.23-.26,.23h-.96c-.09,0-.15-.02-.19-.05-.05-.04-.07-.1-.07-.18v-.31c0-.15,.08-.23,.25-.23h.34v-.33h-.72c0,.13-.01,.26-.03,.38-.02,.13-.06,.25-.1,.36-.03,.08-.08,.16-.13,.24-.06,.09-.1,.13-.13,.13-.04,0-.06-.02-.06-.05,0,0,0-.02,0-.03l.06-.13s0-.01,0-.02c0-.02,.01-.03,.02-.05,.02-.05,.03-.1,.04-.16,.02-.08,.03-.16,.04-.25,.01-.11,.02-.23,.02-.35v-.84c0-.15,.09-.23,.26-.23h1.46c.15,0,.22,.06,.22,.19v.19c0,.13-.07,.19-.22,.19h-.48v.32Zm-.98-.43h1.31c.07,0,.1-.03,.1-.1v-.15c0-.07-.03-.1-.1-.1h-1.2c-.07,0-.11,.04-.11,.11v.24Zm.71,.11h-.71v.32h.71v-.32Zm.61,.98c0-.08-.04-.11-.11-.11h-.73c-.07,0-.11,.04-.11,.11v.32c0,.08,.04,.11,.11,.11h.73c.08,0,.11-.04,.11-.11v-.32Z"/>
          <path class="cls-1" d="M47.35,11.72c0-.14,.08-.21,.25-.21h.36c.09,0,.16,.02,.19,.05,.03,.03,.05,.08,.05,.15v.44c0,.07-.02,.12-.07,.15-.04,.03-.09,.04-.15,.04h-.38c-.02,.25-.1,.47-.23,.66l-.03,.04s-.02,.03-.03,.04c-.02,.03-.05,.04-.06,.04-.04,0-.05-.02-.05-.06,0,0,0-.01,0-.03l.05-.1c.04-.09,.07-.19,.08-.31,.01-.09,.02-.2,.02-.33v-.58Zm.83-.68s.02,0,.02,0c0,0,.02,0,.02,0,.02,0,.02,.02,.02,.05,0,.02,0,.04-.03,.05,0,0-.01,0-.02,0,0,0-.01,0-.02,0h-.86s-.02,0-.02,0c0,0-.02,0-.02,0-.02,0-.02-.02-.02-.04,0-.02,0-.04,.03-.05,0,0,.01,0,.02,0,0,0,.01,0,.02,0h.86Zm-.58,1.2h.25c.07,0,.11-.04,.11-.11v-.4c0-.07-.04-.11-.11-.11h-.14c-.07,0-.11,.04-.11,.11v.51Zm1.34-.37h-.3v.07c0,.06,0,.12,0,.18,0,.08-.02,.16-.03,.23-.02,.09-.04,.18-.07,.27-.04,.09-.08,.18-.14,.26-.04,.06-.09,.13-.15,.18-.06,.06-.1,.08-.12,.08-.04,0-.06-.02-.06-.06,0,0,0-.01,.01-.03,0-.01,.02-.03,.03-.04l.06-.07c.08-.12,.14-.26,.18-.42,.03-.14,.05-.32,.05-.53v-.69c0-.07,.02-.12,.06-.15,.03-.02,.07-.04,.13-.04,.11-.01,.19-.02,.25-.03,.07-.01,.14-.03,.19-.05h.02s0-.01,.01-.01l.08-.03c.06-.02,.11-.04,.12-.04,.08,0,.12,.04,.12,.12,0,.05-.04,.09-.11,.1-.04,0-.11,.02-.21,.03-.08,0-.15,.02-.21,.02-.1,0-.16,.01-.18,.02-.03,.01-.04,.04-.04,.08v.42h.73s.01,0,.02,0c0,0,.02,0,.02,0,.02,0,.03,.02,.03,.05s0,.04-.02,.05c0,0-.01,0-.02,0,0,0-.01,0-.02,0h-.17v1.16s0,.02,0,.03c0,.02,0,.04-.01,.05-.02,.04-.06,.06-.11,.06s-.09-.02-.11-.06c0-.01-.01-.03-.01-.05,0,0,0-.02,0-.03v-1.16Z"/>
        </g>
        <g>
          <g>
            <g>
              <path class="cls-1" d="M18.82,20.13c.02-.27,.11-.48,.26-.63,.15-.15,.34-.23,.58-.23s.43,.08,.58,.23c.14,.15,.22,.36,.22,.62,0,.29-.09,.5-.26,.63,.24,.11,.35,.35,.35,.73,0,.29-.09,.52-.26,.69-.17,.17-.39,.26-.66,.26-.25,0-.46-.09-.64-.27-.18-.18-.27-.4-.27-.67h.47c0,.14,.04,.27,.13,.36,.09,.1,.2,.15,.33,.15s.24-.05,.32-.16c.08-.11,.12-.24,.12-.39,0-.13-.04-.25-.13-.36-.09-.11-.18-.17-.29-.17-.01,0-.02,0-.04,0h-.1s0-.33,0-.33h.06c.11,0,.21-.04,.3-.13,.08-.09,.12-.19,.12-.32,0-.31-.13-.46-.38-.46s-.38,.15-.38,.46h-.44Z"/>
              <path class="cls-1" d="M21.24,19.78v-.43h.86v2.99h-.47v-2.56h-.39Z"/>
              <path class="cls-1" d="M23.75,20.84v.45h-.89v-.45h.89Z"/>
              <path class="cls-1" d="M26.15,21.38v.39h-.33v.57h-.43v-.57h-1.25v-.22l1.23-2.26h.45v2.09h.33Zm-.76-1.38l-.71,1.38h.71v-1.38Z"/>
              <path class="cls-1" d="M27.18,19.78l-.11,.54h.21c.26,0,.48,.09,.64,.29,.16,.2,.25,.45,.25,.74,0,.32-.09,.58-.28,.78-.18,.2-.43,.3-.72,.3-.33,0-.6-.13-.81-.39l.14-.43c.17,.27,.39,.4,.64,.4,.16,0,.29-.06,.4-.18,.11-.12,.17-.28,.17-.49s-.06-.37-.17-.48c-.11-.11-.26-.17-.43-.17s-.32,.07-.43,.2h-.09l.29-1.52h1.19v.43h-.88Z"/>
            </g>
            <path class="cls-1" d="M28.94,20.84h-.21v-.14h.21v-.49h.12v.49h.21v.14h-.21v.91c.06-.05,.12-.09,.17-.13l.07,.1c-.12,.11-.29,.23-.52,.36l-.07-.11c.09-.05,.17-.1,.23-.14v-1Zm.35,.8v-.14h.59v-1.09h-.54v-.14h1.17v.14h-.5v1.09h.57v.14h-.57v.66h-.12v-.66h-.59Zm.19-1.02c.07,.17,.14,.38,.2,.63l-.12,.05c-.06-.27-.13-.48-.19-.62l.11-.05Zm1.02,.04c-.04,.19-.11,.41-.21,.66l-.11-.05c.11-.27,.18-.49,.21-.66l.11,.05Z"/>
          </g>
          <g>
            <path class="cls-1" d="M33.63,20.66h.04s.03,0,.04,0c.03,0,.06,.01,.08,.02,.05,.02,.08,.08,.08,.16v1.23c0,.12-.07,.18-.21,.18h-.46c-.14,0-.21-.06-.21-.18v-1.23c0-.08,.03-.13,.08-.16,.02,0,.05-.02,.08-.02,.02,0,.05,0,.09,0v-.32h-.25s-.01,0-.02,0-.01,0-.02,0c-.02,0-.02-.02-.02-.04,0-.02,0-.04,.03-.04,0,0,.01,0,.02,0,0,0,.01,0,.02,0h.91s.01,0,.02,0c0,0,.01,0,.02,0,.02,0,.03,.02,.03,.04,0,.02,0,.03-.02,.04,0,0-.01,0-.02,0,0,0-.01,0-.02,0h-.26v.32Zm.01,.79c-.07,0-.11-.01-.14-.04-.02-.02-.03-.06-.03-.12v-.53h-.09v.24c0,.13-.02,.25-.06,.36-.04,.1-.07,.14-.1,.14,0,0-.02,0-.03,0,0,0-.01,0-.02-.01v.23h.5v-.27h-.04Zm-.38-.69c-.05,0-.08,.04-.08,.1v.56c.03-.05,.05-.12,.06-.21,0-.03,.01-.06,.01-.1,0-.03,0-.06,0-.08v-.27Zm-.08,1.06v.23c0,.07,.03,.1,.1,.1h.3c.07,0,.1-.03,.1-.1v-.23h-.5Zm.29-1.49h-.09v.32h.09v-.32Zm.13,.93s.03,.07,.08,.07v-.48c0-.06-.03-.1-.08-.1v.5Zm.78,.43v-.03s0-.02,0-.03c0-.02,0-.04,.01-.06,.02-.04,.05-.06,.11-.06,0,0,.02,0,.02,0h.02s.06-.07,.06-.07c.02-.02,.03-.04,.03-.05,0,0,0-.02-.01-.02,0,0,0,0-.01,0h-.55s-.01,0-.02,0c0,0-.01,0-.02,0-.02,0-.02-.02-.02-.04,0-.02,0-.04,.02-.04,0,0,.01,0,.02,0,0,0,.01,0,.02,0h.82c.08,0,.12,.03,.12,.08,0,.02,0,.03-.01,.04l-.03,.03s-.07,.05-.13,.09c-.07,.04-.13,.08-.19,.11,0,.01,0,.04,0,.07h.39s.01,0,.02,0c0,0,.01,0,.02,0,.02,0,.02,.02,.02,.04s0,.04-.02,.04c0,0-.01,0-.02,0,0,0-.01,0-.02,0h-.39v.29c0,.06-.01,.11-.04,.13-.03,.03-.09,.05-.17,.05h-.29s-.01,0-.02,0c0,0-.01,0-.02,0-.02,0-.03-.02-.03-.04,0-.02,0-.04,.02-.04,.01,0,.02,0,.04,0h.16c.07,0,.1-.03,.1-.1v-.27h-.4s-.01,0-.02,0c0,0-.01,0-.02,0-.02,0-.03-.02-.03-.04,0-.02,0-.04,.02-.04,0,0,.01,0,.02,0,0,0,.01,0,.02,0h.4Zm.01-1.29v-.13c0-.05,.02-.09,.05-.11,.01,0,.02-.01,.04-.02,0,0,.02,0,.03,0,.03,0,.05,0,.07,.02,.03,.02,.04,.05,.04,.1v.14h.38s.01,0,.02,0c0,0,.01,0,.02,0,.02,0,.02,.02,.02,.04s0,.04-.02,.04c0,0-.01,0-.02,0,0,0-.01,0-.02,0h-1.02s-.01,0-.02,0c0,0-.01,0-.02,0-.02,0-.03-.02-.03-.04,0-.02,0-.04,.02-.04,0,0,.01,0,.02,0,0,0,.01,0,.02,0h.41Zm.57,.58c0,.06-.02,.11-.06,.14-.03,.02-.08,.03-.14,.03h-.51c-.13,0-.2-.06-.2-.17v-.16c0-.11,.07-.17,.2-.17h.51c.13,0,.2,.06,.2,.17v.16Zm-.23-.13c0-.06-.03-.09-.09-.09h-.28c-.06,0-.09,.03-.09,.09v.1c0,.06,.03,.09,.09,.09h.28c.06,0,.09-.03,.09-.09v-.1Z"/>
            <path class="cls-1" d="M37.8,21.89c0,.17-.09,.25-.27,.25h-1.47c-.1,0-.18-.02-.22-.07-.03-.04-.05-.09-.05-.17v-1.32c0-.17,.09-.25,.27-.25h1.47c.1,0,.18,.02,.22,.07,.03,.04,.05,.1,.05,.17v1.32Zm-1.4-1.46h-.24c-.08,0-.12,.04-.12,.12v1.36c0,.08,.04,.12,.12,.12h1.26c.08,0,.12-.04,.12-.12v-1.36c0-.08-.04-.12-.12-.12h-.31v1.05c0,.05,.02,.08,.07,.08,.03,0,.06,0,.07-.02,.02-.02,.04-.08,.05-.17,.01-.1,.05-.15,.11-.15,.08,0,.12,.03,.12,.1,0,.06-.02,.15-.07,.25-.02,.04-.05,.07-.08,.08-.02,0-.07,.01-.12,.01h-.18c-.14,0-.21-.06-.21-.18v-1.05h-.22v.43c0,.09,0,.18-.03,.26-.02,.07-.04,.13-.07,.19-.02,.05-.05,.09-.09,.13l-.07,.07s-.01,.01-.02,.02c-.04,.04-.08,.07-.12,.1-.05,.03-.08,.05-.09,.05-.04,0-.05-.02-.05-.05,0-.01,.01-.03,.03-.05,.06-.05,.11-.11,.15-.18,.03-.06,.06-.12,.08-.19,.01-.05,.02-.11,.03-.17v-.07s0-.54,0-.54Z"/>
            <path class="cls-1" d="M38.83,20.29s0-.07,.02-.09c.02-.03,.05-.05,.1-.05,.08,0,.12,.05,.12,.14v.43h.17s.01,0,.02,0c0,0,.01,0,.02,0,.02,0,.02,.02,.02,.04,0,.02,0,.04-.03,.04,0,0-.01,0-.02,0,0,0-.01,0-.02,0h-.17v.45c.06-.03,.12-.06,.15-.08,.03-.01,.04-.02,.05-.02,.04,0,.05,.02,.05,.05,0,.01,0,.02,0,.03,0,0,0,0,0,0h0s-.06,.05-.11,.09l-.1,.07s-.02,.01-.03,.02v.67c0,.06-.01,.11-.04,.14-.03,.04-.09,.05-.17,.05h-.26s-.02,0-.02,0c0,0-.02,0-.02-.02,0,0,0-.02,0-.03s0-.02,0-.03c0,0,.01-.01,.02-.02,0,0,.01,0,.02,0h.14c.06,0,.1-.03,.1-.1v-.51h-.02s-.02,.03-.03,.03l-.07,.04s-.05,.02-.06,.03c-.02,0-.03,.01-.04,.01-.06,0-.1-.04-.1-.11,0-.03,0-.05,.02-.06,0,0,.01-.01,.02-.02l.28-.12v-.56h-.23s-.01,0-.02,0c0,0-.01,0-.02,0-.02,0-.03-.02-.03-.04s0-.04,.03-.04c0,0,.01,0,.02,0,0,0,.01,0,.02,0h.23v-.43Zm1.56,.99h.23s.01,0,.02,0c0,0,.01,0,.02,0,.02,0,.03,.02,.03,.04,0,.02,0,.04-.03,.04,0,0-.01,0-.02,0,0,0-.01,0-.02,0h-.23v.78c0,.09-.04,.14-.12,.14s-.12-.05-.12-.14v-.78h-.32c0,.15-.04,.3-.1,.42-.05,.1-.11,.2-.19,.28-.03,.03-.06,.06-.1,.09-.03,.02-.06,.04-.09,.06-.01,0-.02,.01-.04,.02,0,0-.02,.01-.03,.01-.02,0-.02,.01-.03,.01-.04,0-.05-.02-.05-.05,0-.01,0-.02,0-.03,0,0,0-.01,.02-.02,.12-.11,.21-.23,.26-.36,.05-.11,.07-.26,.08-.43h-.24s-.01,0-.02,0c0,0-.01,0-.02,0-.02,0-.02-.02-.02-.04,0-.02,0-.04,.02-.04,0,0,.01,0,.02,0,0,0,.01,0,.02,0h.24v-.5h-.18s-.01,0-.02,0c0,0-.01,0-.02,0-.02,0-.02-.02-.02-.04,0-.02,0-.04,.03-.04,0,0,.01,0,.02,0,0,0,.01,0,.02,0h1.18s.01,0,.02,0c0,0,.01,0,.02,0,.02,0,.03,.02,.03,.04s0,.04-.03,.04c0,0-.01,0-.02,0,0,0-.01,0-.02,0h-.19v.5Zm-.76-.69s-.04-.06-.07-.13c0,0-.01-.02-.02-.04l-.07-.13s-.02-.03-.02-.04c0,0,0-.02,0-.03,0-.04,.02-.05,.05-.05,0,0,.02,0,.04,.01,.02,0,.03,.02,.05,.04,.02,.01,.04,.03,.05,.04l.04,.03c.07,.05,.11,.09,.13,.12,.02,.02,.03,.05,.03,.08,0,.09-.04,.13-.13,.13-.03,0-.06,0-.07-.03Zm.52,.18h-.32v.5h.32v-.5Zm.01-.24l.05-.11s.01-.03,.02-.04c0,0,0-.02,.01-.04l.03-.08s0-.02,0-.03c0-.02,.01-.03,.02-.04,.01-.02,.03-.04,.05-.04,0,0,.02,0,.03,0,0,0,.02,0,.02,0,.09,0,.14,.04,.14,.11,0,.02-.01,.06-.04,.1-.03,.04-.06,.07-.1,.11-.04,.04-.08,.07-.11,.09-.04,.03-.06,.04-.07,.04-.02,0-.03,0-.04-.02,0,0,0-.02,0-.03,0,0,0-.01,0-.03Z"/>
          </g>
          <rect class="cls-1" x="30.71" y="21.17" width="2.11" height=".09" transform="translate(-1.78 39.48) rotate(-62.31)"/>
        </g>
      </g>
    </g>
  </g>
</svg>