<?xml version="1.0" encoding="UTF-8"?>
<svg xmlns="http://www.w3.org/2000/svg" viewBox="0 0 535.99 403.21">
  <defs>
    <style>
      .cls-1 {
        fill: #fff;
      }

      .cls-2 {
        mix-blend-mode: lighten;
        opacity: .4;
      }

      .cls-3 {
        fill: #b2b2b2;
      }

      .cls-4 {
        isolation: isolate;
      }

      .cls-5 {
        fill: #192d78;
      }

      .cls-6 {
        fill: #339ace;
      }
    </style>
  </defs>
  <g class="cls-4">
    <g id="_圖層_2" data-name="圖層 2">
      <g id="context">
        <g>
          <path class="cls-1" d="M135.89,13.43h-2.87c-.51,0-.93-.37-.93-.83V1.52c0-.46-.42-.83-.93-.83h-1.67c-.51,0-.93,.37-.93,.83V12.59c0,.46-.42,.83-.93,.83h-5.34c-.51,0-.93,.37-.93,.83s.43,.85,.96,.83l4.01-.1h.14c-.42,5.93-1.05,9.51-2.04,13.5-.88,3.54-1.41,6.07-2.79,8.81,2.18-2.79,4.64-6.48,5.82-11.1l1.09-4.26V59.12s.23,.01,.23,.01c.31-.46,1.29-2.19,2.38-7.29,.5-2.35,.75-6.61,1.01-11.52,0-4.55-.04-15.16-.05-20.82v-3.64s1.08,3.41,1.08,3.41c1.07,3.32,1.89,7.13,2.38,9.4,.1,.46,.18,.84,.25,1.12h.26c-.17-6.37-.6-11.41-1.08-13.89l-.09-.79h.96c.52,.01,.94-.36,.94-.82v-.03c0-.46-.42-.83-.93-.83Z"/>
          <path class="cls-1" d="M139.64,8.46h5.01c.61,0,1.1,.44,1.1,.99v3.52c0,.54,.49,.99,1.1,.99h1.55c.61,0,1.1-.44,1.1-.99v-3.52c0-.54,.49-.99,1.1-.99h9.56c.61,0,1.1,.44,1.1,.99v3.42c0,.54,.49,.99,1.1,.99h1.55c.61,0,1.1-.44,1.1-.99v-3.42c0-.54,.49-.99,1.1-.99h5.34c.61,0,1.1-.44,1.1-.99s-.49-.99-1.1-.99h-5.34c-.61,0-1.1-.44-1.1-.99V1.84c0-.54-.49-.99-1.1-.99h-1.55c-.61,0-1.1,.44-1.1,.99v3.67c0,.54-.49,.99-1.1,.99h-9.56c-.61,0-1.1-.44-1.1-.99V1.94c0-.54-.49-.99-1.1-.99h-1.55c-.61,0-1.1,.44-1.1,.99v3.56c0,.54-.49,.99-1.1,.99h-5.01c-.61,0-1.1,.44-1.1,.99s.49,.99,1.1,.99Z"/>
          <path class="cls-1" d="M172.46,48.37h-14.33c-.53,0-.96-.39-.96-.86v-6.5c0-.48,.43-.86,.96-.86h12.37c.53,0,.96-.39,.96-.86v-.05c0-.48-.43-.86-.96-.86h-1.89c-.53,0-.96-.39-.96-.86v-7.12c0-.48,.43-.86,.96-.86h3.62c.53,0,.96-.39,.96-.86v-.36c0-.48-.43-.86-.96-.86h-3.62c-.53,0-.96-.39-.96-.86v-7.55c0-.48,.43-.86,.96-.86h1.89c.53,0,.96-.39,.96-.86h0c0-.48-.43-.86-.96-.86h-29.47c-.53,0-.96,.39-.96,.86v.05c0,.48,.43,.86,.96,.86h1.23c.53,0,.96,.39,.96,.86v7.49c0,.48-.43,.86-.96,.86h-2.76c-.53,0-.96,.39-.96,.86v.25c0,.48,.43,.86,.96,.86h2.76c.53,0,.96,.39,.96,.86v7.28c0,.48-.43,.86-.96,.86h-1.67c-.53,0-.96,.39-.96,.86s.43,.86,.96,.86h11.86c.53,0,.96,.39,.96,.86v6.44c0,.48-.43,.86-.96,.86h-14.04c-.53,0-.96,.39-.96,.86v.11c0,.48,.43,.86,.96,.86h14.04c.53,0,.96,.39,.96,.86v7.11c0,.48,.43,.86,.96,.86h1.83c.53,0,.96-.39,.96-.86v-7.11c0-.48,.43-.86,.96-.86h14.33c.53,0,.96-.39,.96-.86v-.05c0-.48-.43-.86-.96-.86Zm-15.3-29.32c0-.48,.43-.86,.96-.86h4.7c.53,0,.96,.39,.96,.86v7.55c0,.48-.43,.86-.96,.86h-4.7c-.53,0-.96-.39-.96-.86v-7.55Zm0,11.24c0-.48,.43-.86,.96-.86h4.7c.53,0,.96,.39,.96,.86v7.28c0,.48-.43,.86-.96,.86h-4.7c-.53,0-.96-.39-.96-.86v-7.28Zm-3.75,7.28c0,.48-.43,.86-.96,.86h-4.52c-.53,0-.96-.39-.96-.86v-7.23c0-.48,.43-.86,.96-.86h4.52c.53,0,.96,.39,.96,.86v7.23Zm0-10.97c0,.48-.43,.86-.96,.86h-4.52c-.53,0-.96-.39-.96-.86v-7.55c0-.48,.43-.86,.96-.86h4.52c.53,0,.96,.39,.96,.86v7.55Z"/>
        </g>
        <path class="cls-1" d="M252.44,49.46h-11.13c-.54,0-.97-.4-.97-.9v-3.88c0-.5,.43-.9,.97-.9l9.27-.03c.54,0,.97-.41,.97-.9V21.89c0-.5-.44-.9-.97-.9h-9.26c-.54,0-.97-.4-.97-.9v-3.22c0-.5,.44-.9,.97-.9h6.55c.54,0,.97-.4,.97-.9v-.12c0-.5-.44-.9-.97-.9h-6.55c-.54,0-.97-.4-.97-.9v-3.55c0-.5-.44-.9-.97-.9h-1.73c-.54,0-.97,.4-.97,.9v3.55c0,.5-.44,.9-.97,.9h-7.91c-.54,0-.97,.4-.97,.9h0c0,.51,.44,.92,.97,.92h7.91c.54,0,.97,.4,.97,.9v3.25c0,.5-.44,.9-.97,.9l-9.26,.02c-.54,0-.97,.41-.97,.91l.1,20.97c0,.5,.44,.9,.97,.9h9.15c.54,0,.97,.4,.97,.9v3.95c0,.5-.44,.9-.97,.9h-11.31c-.54,0-.97,.4-.97,.9s.44,.9,.97,.9h11.31c.54,0,.97,.4,.97,.9v6.55c0,.5,.44,.9,.97,.9h1.73c.54,0,.97-.4,.97-.9v-6.55c0-.5,.44-.9,.97-.9h11.13c.54,0,.97-.4,.97-.9s-.44-.9-.97-.9Zm-12.11-25.37c0-.5,.44-.9,.97-.9h5.58c.54,0,.97,.4,.97,.9v6.11c0,.5-.44,.9-.97,.9h-5.58c-.54,0-.97-.4-.97-.9v-6.11Zm0,9.84c0-.5,.44-.9,.97-.9h5.58c.54,0,.97,.4,.97,.9v7.14c0,.5-.44,.9-.97,.9h-5.58c-.54,0-.97-.4-.97-.9v-7.14Zm-3.68,6.93c0,.5-.44,.9-.97,.9h-5.58c-.54,0-.97-.4-.97-.9v-6.82c0-.5,.44-.9,.97-.9h5.58c.54,0,.97,.4,.97,.9v6.82Zm0-10.66c0,.5-.44,.9-.97,.9h-5.58c-.54,0-.97-.4-.97-.9v-6.11c0-.5,.44-.9,.97-.9h5.58c.54,0,.97,.4,.97,.9v6.11Z"/>
        <path class="cls-1" d="M217.84,21.22h1.51c.53,0,.97-.4,.97-.89l.19-16.03h-.31c-.24,.15-1.16,.89-2.21,3.31-.44,1.03-.84,2.97-1.09,5.35,0,.03,0,.05,0,.08-.07,3.46-.06,5.88-.04,7.31,0,.49,.44,.88,.98,.88Z"/>
        <path class="cls-1" d="M205.16,21.64h1.43c.53,0,.97-.39,.98-.88,.02-1.42,.03-3.86-.04-7.3,0-.03,0-.05,0-.08-.25-2.31-.64-4.26-1.09-5.28-1.04-2.4-1.95-3.14-2.21-3.32h-.21s.19,15.97,.19,15.97c0,.49,.44,.89,.97,.89Z"/>
        <path class="cls-1" d="M226.01,14.5c.44-1.03,.84-2.97,1.09-5.35,0-.03,0-.05,0-.08,.02-.96,.03-1.89,.04-2.72v-.63h21.76c.54,0,.98,.41,.97,.91l-.14,10.96h.3c.24-.15,1.16-.89,2.21-3.31,.44-1.03,.84-2.97,1.09-5.35,0-.03,0-.05,0-.08,.05-2.54,.06-4.56,.05-5.88,0-.5-.44-.9-.98-.9h-1.53c-.53,0-.97,.4-.97,.89v.37c-.01,.49-.45,.89-.98,.89h-21.79v-.64c0-.57,0-1.03-.02-1.38h-2.49c-.53,0-.97,.4-.97,.9l-.18,14.69h.3c.24-.15,1.16-.89,2.21-3.31Z"/>
        <path class="cls-1" d="M217.99,44.49l-.02-1.64c-.07-6.52-.07-14.76-.07-15.68v-.63l2.17-.03c.53,0,.96-.41,.96-.9v-.34c0-.5-.44-.9-.98-.9h-5.33c-.54,0-.97-.4-.97-.9V2.63c0-.5-.44-.9-.97-.9h-1.5c-.54,0-.97,.4-.97,.9V23.67c0,.5-.44,.9-.97,.9h-5.74c-.54,0-.97,.4-.97,.9v.14c0,.5,.44,.9,.97,.9h2.51c.54,0,.97,.4,.97,.9v.06s.03,0,.04,0c.02,.14,.03,.27,.03,.36-.03,3.18-.29,11.25-1.13,17.29-.7,5.04-3.77,10.85-5.12,13.26l.16,.09c.73-.64,2.72-2.86,4.71-5.59,2.97-4.09,3.86-9.75,4.13-25.27,0,0,.02,0,.03,0,0-.28,0-.45,0-.46v-.65s3.93,0,3.93,0c.54,0,.97,.4,.97,.9v21.37c0,.22-.09,.44-.25,.61l-.54,.55c-.33,.34-.52,.78-.52,1.25v3.11c0,.87,1.19,1.23,1.76,.54,.86-1.06,3.26-5.09,3.26-5.09,1.12-2.01,1.6-3.37,2.05-4.41,1.46-3.37,1.59-5.81,1.54-6.35l-4.14,5.53Z"/>
        <path class="cls-1" d="M328.45,26.01l-.09-9.49c0-.63,.54-1.15,1.21-1.15h2.12c.67,0,1.21-.51,1.21-1.14s-.54-1.14-1.21-1.14h-13.59c-.67,0-1.21-.51-1.21-1.14V1.14c0-.63-.54-1.14-1.21-1.14h-1.68c-.67,0-1.21,.51-1.21,1.14V12.17c0,.63-.54,1.14-1.21,1.14h-12.38c-.67,0-1.21,.51-1.21,1.14h0c0,.63,.54,1.14,1.21,1.14h1.28c.66,0,1.21,.5,1.21,1.13l.08,8.36c-.13,21.13-4.68,31-5.53,33.54l.22,.22c1.19-1.76,5.66-9.54,7.27-14.45,1.81-5.54,2.13-22.95,2.18-28.16v-.64h5.68c.67,0,1.21,.51,1.21,1.14V58.53c0,.63,.54,1.14,1.21,1.14h1.68c.67,0,1.21-.51,1.21-1.14V16.51c0-.63,.54-1.14,1.21-1.14h6.05v.64c.06,5.37,.39,23.32,2.18,28.8,1.61,4.91,6.07,12.68,7.26,14.45l.22-.22c-.84-2.54-5.41-11.71-5.36-33.04Z"/>
        <path class="cls-1" d="M292.09,27.4l-1.58-.02c-.67,0-1.22,.49-1.23,1.12-.03,3.22-.27,10.93-1.1,17.05-.7,5.11-3.6,11.41-4.24,13.8l.16,.09c.73-.65,2.97-2.76,4.71-5.67,2.68-4.49,3.75-8.9,4.48-25.18,.03-.64-.51-1.18-1.19-1.19Z"/>
        <path class="cls-1" d="M288.6,9.46s.08,.05,.12,.08c1.12,.68,2.2,1.33,3.35,2.03,.81,.49,1.87-.05,1.87-.95v-2.3c0-.39-.21-.75-.56-.96l-10.28-6.21-.23,.5c.02,.25,.17,1.64,1.8,4.06,.66,.98,2.09,2.34,3.93,3.75Z"/>
        <path class="cls-1" d="M293.69,18.48l-10.95-6.52-.23,.61c.02,.25,.17,1.64,1.8,4.06,.66,.98,2.09,2.35,3.93,3.75,.04,.03,.08,.06,.12,.08,1.42,.87,2.78,1.68,4.05,2.41,.81,.46,1.84-.09,1.84-.98v-2.45c0-.39-.21-.75-.56-.96Z"/>
        <path class="cls-1" d="M385.17,4.13l-19.97,.03c-.84,0-1.52,.64-1.52,1.43V55.46c0,.79,.68,1.43,1.52,1.43l17.13,.02h2.84c.84,0,1.52-.64,1.52-1.43V5.56c0-.79-.68-1.43-1.53-1.43Zm-8.02,4.09c0-.79,.68-1.43,1.52-1.43h2.44c.84,0,1.52,.64,1.52,1.43V28.7c0,.79-.68,1.43-1.52,1.43h-2.44c-.84,0-1.52-.64-1.52-1.43V8.22Zm-3.88,44.61c0,.79-.68,1.43-1.52,1.43h-2.8c-.84,0-1.52-.64-1.52-1.43v-18.99c0-.79,.68-1.43,1.52-1.43h2.8c.84,0,1.52,.64,1.52,1.43v18.99Zm0-24.15c0,.79-.68,1.43-1.52,1.43h-2.8c-.84,0-1.52-.64-1.52-1.43V8.34c0-.79,.68-1.43,1.52-1.43h2.8c.84,0,1.52,.64,1.52,1.43V28.69Zm9.41,24.04c0,.79-.68,1.43-1.52,1.43h-2.58c-.84,0-1.52-.64-1.52-1.43v-19c0-.79,.68-1.43,1.52-1.43h2.58c.84,0,1.52,.64,1.52,1.43v19Z"/>
        <path class="cls-1" d="M407.09,40.41c.24-.26,.38-.6,.38-.95v-1.68c0-1.3-1.69-1.93-2.64-.98-.93,.95-2.09,2.09-3.51,3.45-3.35,3.2-10.36,8.1-12.16,9.34l.04,.13c1.01-.07,3.79-.34,9.32-2.98,3.97-1.89,5.72-3.29,8.56-6.33Z"/>
        <path class="cls-1" d="M394.88,29.15c1,2.01,2.01,3.62,2.76,4.35,1.82,1.78,2.92,1.98,3.16,2l.35-.23-4.91-13.65c-.22-.6-.83-1-1.51-.97l-.82,.03c-.99,.04-1.67,.94-1.4,1.83,.58,1.89,1.31,3.95,2.31,6.51,.02,.04,.04,.09,.06,.13Z"/>
        <path class="cls-1" d="M413.12,8.45l-18.31-.06,.13-.77c.38-2.32,.62-4.19,.78-5.53,.09-.82-.57-1.55-1.45-1.58l-1.34-.05c-.85-.03-1.56,.59-1.58,1.39-.05,2-.14,5.11-.36,7.71-.29,3.46-2.02,9.88-2.51,12.35l.47-.12c.61-.78,3.62-4.85,5.26-10.53l.13-.43h15.03c.84,0,1.52,.64,1.52,1.43V46.23s0,.09,0,.13c-.5,6.3-2.8,9.91-6.79,9.91l-7.47-.06c-.84,0-1.53,.63-1.54,1.42,0,.79,.67,1.43,1.51,1.44l7.47,.06c2.86,0,5.5-1.33,7.49-3.74,2-2.43,3.11-5.66,3.11-9.1V9.88c0-.79-.68-1.43-1.52-1.43Z"/>
        <g class="cls-2">
          <g>
            <path class="cls-6" d="M1.54,138.87c-.02-.57-.05-1.15-.08-1.72,.16,.02,.32,.03,.51,.05s.39,.02,.62,.02c.32,0,.65-.01,1-.03,.34-.02,.68-.03,1.01-.03,.65,0,1.16,.05,1.52,.14,.37,.09,.65,.23,.87,.41,.29,.23,.51,.49,.65,.77s.21,.63,.21,1.02c0,.51-.09,.94-.26,1.3-.17,.36-.42,.66-.73,.88-.32,.23-.69,.39-1.12,.5s-.9,.16-1.41,.16h-.7c0,.67,0,1.33,.02,1.99,.01,.66,.04,1.32,.09,1.96-.16-.02-.32-.03-.51-.03H1.96c-.18,0-.35,0-.51,.03,.04-.55,.06-1.11,.08-1.68,.02-.57,.03-1.23,.03-1.96v-1.81c0-.74,0-1.39-.03-1.96Zm4-.02c-.08-.23-.18-.41-.32-.55-.13-.14-.29-.24-.47-.3-.18-.06-.36-.09-.56-.09h-.45s-.09,0-.12,.01c0,.64-.02,1.27-.02,1.88,0,.62,0,1.23,0,1.86,.23,0,.46-.02,.71-.07,.24-.04,.46-.14,.67-.27s.37-.33,.49-.59c.13-.26,.19-.6,.19-1.02,0-.34-.04-.62-.12-.85Z"/>
            <path class="cls-6" d="M32.26,138.87c-.02-.57-.05-1.15-.08-1.72,.16,.02,.32,.03,.51,.05,.18,.01,.39,.02,.62,.02s.43,0,.62-.02,.35-.03,.51-.05c-.04,.58-.06,1.15-.08,1.72-.02,.57-.03,1.23-.03,1.96v1.81c0,.51,0,.99,0,1.46,0,.47,.01,.88,.02,1.22,.52,0,1.04-.01,1.57-.04,.52-.03,1.05-.07,1.58-.13-.02,.1-.03,.19-.04,.27,0,.08-.01,.19-.01,.33s0,.25,.01,.33c0,.08,.02,.15,.04,.2-.25,0-.55-.02-.91-.02-.36,0-.86,0-1.49,0h-2.18c-.21,0-.36,0-.47,0-.11,0-.19,.01-.27,.02,.04-.55,.06-1.11,.08-1.68,.02-.57,.03-1.23,.03-1.96v-1.81c0-.74,0-1.39-.03-1.96Z"/>
            <path class="cls-6" d="M70.61,146.32c-.22-.02-.43-.03-.63-.03h-1.17c-.2,0-.39,0-.58,.03-.15-.43-.3-.88-.45-1.33s-.32-.9-.49-1.36c-.29,0-.59-.02-.88-.02-.29,0-.59,0-.88,0-.24,0-.48,0-.71,0-.24,0-.48,.01-.71,.02-.18,.45-.35,.9-.51,1.36-.16,.45-.3,.9-.43,1.33-.11-.02-.22-.03-.32-.03h-.65c-.11,0-.23,0-.36,.03,.11-.23,.26-.55,.44-.96,.18-.41,.38-.87,.6-1.38,.22-.51,.46-1.07,.71-1.66,.25-.59,.5-1.19,.76-1.79,.25-.6,.5-1.2,.74-1.78,.24-.59,.46-1.13,.67-1.64,.09,.02,.18,.03,.26,.05s.17,.02,.26,.02,.18,0,.26-.02c.08-.01,.17-.03,.26-.05,.29,.75,.61,1.56,.94,2.42,.33,.86,.67,1.7,1.01,2.53,.34,.83,.67,1.62,.99,2.36,.32,.74,.61,1.37,.88,1.89Zm-4.86-6.64c-.24,.53-.46,1.06-.67,1.58s-.42,1.05-.62,1.59h2.51c-.2-.54-.4-1.07-.6-1.59-.2-.52-.41-1.04-.63-1.58Z"/>
            <path class="cls-6" d="M97.5,138.61c0-.21-.02-.37-.03-.47-.14,0-.31,0-.51,.01-.2,0-.42,.02-.65,.03-.23,.01-.46,.03-.7,.05-.24,.02-.46,.05-.66,.07,.02-.1,.03-.19,.05-.29,.01-.1,.02-.19,.02-.29s0-.19-.02-.29c-.01-.1-.03-.19-.05-.29,.31,0,.59,.02,.84,.03,.25,0,.51,.02,.77,.02,.26,0,.55,0,.85,.01,.31,0,.68,0,1.11,0s.8,0,1.11,0c.31,0,.59,0,.84-.01,.26,0,.51-.01,.75-.02,.24,0,.51-.02,.79-.03-.02,.1-.03,.2-.05,.29-.01,.1-.02,.2-.02,.29s0,.19,.02,.29c.01,.1,.03,.2,.05,.29-.18-.03-.39-.05-.62-.07-.23-.02-.46-.04-.68-.05-.22-.01-.44-.02-.64-.03-.2,0-.37-.01-.51-.01,0,.04-.02,.11-.02,.19,0,.08,0,.17,0,.28v4.03c0,.74,0,1.39,.03,1.96,.02,.57,.05,1.13,.08,1.68-.16-.02-.33-.03-.51-.03h-1.24c-.18,0-.35,0-.51,.03,.04-.55,.06-1.11,.08-1.68,.02-.57,.03-1.23,.03-1.96v-3.33c0-.26,0-.49,0-.7Z"/>
            <path class="cls-6" d="M126.44,138.87c-.02-.57-.05-1.15-.08-1.72,.16,.02,.32,.03,.51,.05,.18,.01,.39,.02,.62,.02s.43,0,.62-.02,.35-.03,.51-.05c-.04,.58-.06,1.15-.08,1.72-.02,.57-.03,1.23-.03,1.96v1.81c0,.74,0,1.39,.03,1.96,.02,.57,.05,1.13,.08,1.68-.16-.02-.32-.03-.51-.03h-1.24c-.18,0-.35,0-.51,.03,.04-.55,.06-1.11,.08-1.68,.02-.57,.03-1.23,.03-1.96v-1.81c0-.74,0-1.39-.03-1.96Z"/>
            <path class="cls-6" d="M153.21,138.25c-.02-.42-.03-.78-.04-1.1,.26,.04,.46,.07,.62,.07s.36-.02,.62-.07c1,1.07,1.98,2.13,2.96,3.17,.97,1.04,1.98,2.09,3,3.17v-2.45c0-.43,0-.86,0-1.28,0-.42,0-.81-.01-1.16,0-.35-.01-.66-.03-.92s-.03-.43-.05-.52c.26,.04,.46,.07,.62,.07s.36-.02,.62-.07c-.05,.81-.08,1.54-.11,2.19-.03,.65-.05,1.27-.07,1.84-.02,.58-.03,1.15-.03,1.71,0,.56,0,1.16,0,1.8v1.6c-.18-.02-.37-.03-.56-.03s-.38,0-.54,.03c-1.89-2.13-3.89-4.27-6-6.42,0,.26-.02,.51-.02,.77,0,.26,0,.52,0,.78v1.54c0,.53,0,.98,0,1.36,0,.37,.01,.69,.02,.94,0,.26,.02,.47,.03,.63,0,.16,.02,.29,.03,.39-.11-.02-.22-.03-.33-.03h-.32c-.21,0-.42,0-.63,.03,.02-.07,.04-.32,.07-.76s.06-.96,.09-1.59c.03-.63,.06-1.3,.08-2.04,.02-.73,.03-1.43,.03-2.11,0-.61,0-1.13-.03-1.54Z"/>
            <path class="cls-6" d="M188.41,146.19c-.51-.12-.95-.32-1.33-.6-.38-.28-.67-.64-.89-1.08-.22-.44-.32-.97-.32-1.6,0-.35,0-.67,0-.95,0-.28,0-.54,0-.78s0-.47,0-.69c0-.22,0-.45,0-.69,0-.72,0-1.3-.01-1.74,0-.44-.02-.78-.04-1,.18,.02,.37,.03,.56,.05,.19,.01,.38,.02,.56,.02s.37,0,.56-.02c.19-.01,.38-.03,.56-.05-.09,.86-.15,1.66-.16,2.4-.02,.74-.03,1.49-.03,2.25,0,.81,.06,1.46,.18,1.96s.3,.88,.53,1.15c.23,.27,.52,.45,.86,.54,.34,.09,.73,.13,1.18,.13,.55,0,.98-.13,1.29-.4,.31-.27,.55-.62,.71-1.06,.16-.44,.26-.95,.3-1.52,.04-.57,.05-1.17,.05-1.79s0-1.22-.03-1.83c-.02-.61-.05-1.22-.08-1.83,.13,.02,.25,.03,.37,.05s.23,.02,.33,.02c.12,0,.23,0,.34-.02s.22-.03,.34-.05c-.02,.2-.04,.46-.05,.78-.02,.33-.04,.71-.06,1.14-.02,.43-.03,.9-.05,1.42s-.02,1.07-.02,1.64c0,1.54-.34,2.65-1.03,3.32-.69,.67-1.69,1-3.02,1-.59,0-1.13-.06-1.64-.18Z"/>
            <path class="cls-6" d="M220.14,143.31c-.07,.99-.15,1.99-.22,2.98-.11-.02-.22-.03-.33-.03h-.64c-.11,0-.21,0-.32,.03,.29-1.52,.55-3.04,.78-4.55,.23-1.51,.44-3.04,.63-4.59,.1,.02,.19,.03,.28,.05,.09,.01,.18,.02,.28,.02,.08,0,.17,0,.26-.02s.19-.03,.29-.05c.25,.53,.51,1.07,.78,1.62,.27,.55,.54,1.1,.81,1.64s.54,1.08,.81,1.6c.27,.52,.53,1.02,.78,1.49,.55-.99,1.1-2.03,1.64-3.12,.55-1.09,1.06-2.17,1.56-3.24,.23,.04,.43,.07,.59,.07,.16,0,.35-.02,.58-.07,.09,.76,.19,1.58,.3,2.46,.1,.88,.21,1.74,.31,2.57,.1,.84,.2,1.62,.3,2.35,.1,.73,.19,1.31,.27,1.76-.18-.02-.37-.03-.56-.03h-1.12c-.19,0-.38,0-.58,.03-.05-.91-.12-1.9-.23-2.97-.11-1.06-.21-2.12-.32-3.17h-.03c-.52,1.05-1.04,2.07-1.54,3.09-.5,1.01-1,2.03-1.5,3.05-.05,0-.09-.02-.13-.02-.04,0-.08,0-.13,0s-.09,0-.13,0c-.04,0-.09,.01-.13,.02-.49-.99-.99-1.99-1.48-2.98-.49-.99-1-2-1.52-3.02h-.03c-.15,1.02-.26,2.03-.33,3.02Z"/>
          </g>
          <g>
            <path class="cls-6" d="M273.14,142.1v.55c0,.74,0,1.39,.03,1.96,.02,.57,.05,1.13,.08,1.68-.16-.02-.32-.03-.51-.03h-1.24c-.18,0-.35,0-.51,.03,.04-.55,.06-1.11,.08-1.68,.02-.57,.03-1.23,.03-1.96v-1.81c0-.74,0-1.39-.03-1.96-.02-.57-.05-1.15-.08-1.72,.16,.02,.32,.03,.51,.05,.18,.01,.39,.02,.62,.02,.25,0,.53-.01,.84-.03,.32-.02,.71-.03,1.17-.03,.35,0,.65,0,.89,.03,.25,.02,.46,.04,.64,.08,.18,.04,.33,.08,.47,.14s.26,.13,.38,.21c.27,.19,.49,.44,.65,.72,.16,.29,.24,.63,.24,1.03,0,.65-.18,1.18-.55,1.58-.37,.41-.89,.7-1.58,.86,.44,.75,.91,1.51,1.41,2.25,.5,.75,1.01,1.49,1.51,2.23-.21-.02-.42-.03-.62-.03h-1.24c-.21,0-.41,0-.62,.03l-2.46-4.19h-.12Zm2.05-3.38c-.08-.23-.21-.41-.38-.53-.17-.12-.39-.2-.66-.23-.27-.04-.59-.05-.97-.05-.03,1.21-.04,2.41-.04,3.62,.05,0,.11,.02,.16,.02,.05,0,.1,0,.14,0,.6,0,1.07-.16,1.39-.47,.32-.31,.48-.79,.48-1.43,0-.39-.04-.7-.12-.93Z"/>
            <path class="cls-6" d="M303.48,138.87c-.02-.57-.05-1.15-.08-1.72,.16,.02,.32,.03,.51,.05,.18,.01,.39,.02,.62,.02s.43,0,.62-.02,.35-.03,.51-.05c-.04,.58-.06,1.15-.08,1.72-.02,.57-.03,1.23-.03,1.96v1.81c0,.74,0,1.39,.03,1.96,.02,.57,.05,1.13,.08,1.68-.16-.02-.32-.03-.51-.03h-1.24c-.18,0-.35,0-.51,.03,.04-.55,.06-1.11,.08-1.68,.02-.57,.03-1.23,.03-1.96v-1.81c0-.74,0-1.39-.03-1.96Z"/>
            <path class="cls-6" d="M337.11,140.43c.45-1.14,.85-2.23,1.21-3.28,.23,.04,.43,.07,.6,.07s.38-.02,.6-.07c-.23,.52-.5,1.15-.82,1.89s-.65,1.52-1,2.34c-.35,.82-.69,1.66-1.03,2.51-.34,.85-.64,1.65-.91,2.39-.18-.02-.38-.03-.6-.03s-.42,0-.6,.03c-.14-.35-.3-.78-.5-1.29-.2-.51-.41-1.04-.63-1.61-.22-.57-.46-1.15-.71-1.74-.25-.59-.49-1.17-.71-1.72s-.44-1.07-.65-1.55c-.2-.48-.38-.89-.52-1.22,.21,.02,.42,.03,.63,.05s.41,.02,.61,.02,.4,0,.6-.02,.4-.03,.6-.05c.16,.5,.33,1.02,.53,1.57,.2,.55,.4,1.11,.61,1.68,.21,.57,.43,1.15,.65,1.72,.22,.58,.44,1.14,.65,1.7,.48-1.13,.94-2.26,1.39-3.4Z"/>
            <path class="cls-6" d="M364.79,138.87c-.02-.57-.04-1.15-.07-1.72,.41,0,.82,.02,1.22,.04,.4,.02,.81,.03,1.22,.03,.68,0,1.28,0,1.81-.02,.53-.01,.88-.03,1.06-.05-.04,.14-.05,.33-.05,.56,0,.14,0,.25,.01,.33,0,.08,.02,.17,.04,.27-.27-.02-.56-.04-.87-.05-.32-.02-.62-.04-.92-.05-.3-.02-.57-.03-.8-.04-.24,0-.41-.01-.51-.01-.04,.49-.06,.97-.06,1.45s0,.96,0,1.45c.6,0,1.13-.02,1.61-.04,.48-.02,.98-.04,1.5-.07-.03,.15-.05,.27-.06,.35,0,.08-.01,.16-.01,.25,0,.07,0,.14,.02,.22,.01,.08,.03,.18,.05,.33-1.04-.08-2.08-.12-3.12-.12,0,.28,0,.57,0,.85,0,.28,0,.57,0,.85,0,.58,.01,1.13,.04,1.66,.52,0,1.04-.01,1.57-.04s1.05-.07,1.58-.13c-.02,.1-.03,.19-.04,.27,0,.08-.01,.19-.01,.33s0,.25,.01,.33c0,.08,.02,.15,.04,.2-.25,0-.55-.02-.91-.02-.36,0-.86,0-1.49,0h-2.18c-.21,0-.36,0-.47,0-.11,0-.19,.01-.27,.02,.03-.55,.06-1.11,.07-1.68,.02-.57,.02-1.23,.02-1.96v-1.81c0-.74,0-1.39-.02-1.96Z"/>
            <path class="cls-6" d="M397.36,142.1v.55c0,.74,0,1.39,.03,1.96,.02,.57,.05,1.13,.08,1.68-.16-.02-.32-.03-.51-.03h-1.24c-.18,0-.35,0-.51,.03,.04-.55,.06-1.11,.08-1.68,.02-.57,.03-1.23,.03-1.96v-1.81c0-.74,0-1.39-.03-1.96-.02-.57-.05-1.15-.08-1.72,.16,.02,.32,.03,.51,.05,.18,.01,.39,.02,.62,.02,.25,0,.53-.01,.84-.03,.32-.02,.71-.03,1.17-.03,.35,0,.65,0,.89,.03,.25,.02,.46,.04,.64,.08,.18,.04,.33,.08,.47,.14s.26,.13,.38,.21c.27,.19,.49,.44,.65,.72,.16,.29,.24,.63,.24,1.03,0,.65-.18,1.18-.55,1.58-.37,.41-.89,.7-1.58,.86,.44,.75,.91,1.51,1.41,2.25,.5,.75,1.01,1.49,1.51,2.23-.21-.02-.42-.03-.62-.03h-1.24c-.21,0-.41,0-.62,.03l-2.46-4.19h-.12Zm2.05-3.38c-.08-.23-.21-.41-.38-.53-.17-.12-.39-.2-.66-.23-.27-.04-.59-.05-.97-.05-.03,1.21-.04,2.41-.04,3.62,.05,0,.11,.02,.16,.02,.05,0,.1,0,.14,0,.6,0,1.07-.16,1.39-.47,.32-.31,.48-.79,.48-1.43,0-.39-.04-.7-.12-.93Z"/>
            <path class="cls-6" d="M427.71,138.87c-.02-.57-.05-1.15-.09-1.72,.16,.02,.32,.03,.51,.05,.18,.01,.39,.02,.62,.02,.39,0,.81-.01,1.24-.03,.43-.02,.84-.03,1.24-.03s.79,.04,1.13,.12,.63,.2,.88,.37c.25,.16,.44,.38,.57,.64,.13,.26,.2,.57,.2,.94s-.08,.68-.23,.94-.35,.48-.57,.65c-.23,.17-.47,.31-.73,.41-.26,.1-.5,.16-.71,.2v.03c.21,0,.46,.06,.74,.14,.28,.08,.55,.22,.81,.39,.26,.18,.47,.41,.65,.69,.18,.28,.27,.62,.27,1.02,0,.48-.09,.89-.27,1.22-.18,.34-.42,.61-.71,.82-.3,.21-.64,.36-1.02,.45s-.78,.13-1.19,.13c-.37,0-.71,0-1.02-.01-.32,0-.65-.01-.99-.01h-.76c-.26,0-.47,0-.62,.03,.04-.55,.07-1.11,.09-1.68,.02-.57,.03-1.23,.03-1.96v-1.81c0-.74-.01-1.39-.03-1.96Zm4.17-.01c-.05-.19-.14-.35-.25-.49-.12-.14-.27-.25-.45-.33s-.41-.13-.69-.13c-.2,0-.34,0-.42,0-.08,0-.16,.02-.25,.03-.02,.33-.03,.66-.04,1,0,.34-.01,.62-.01,.85s0,.47,0,.68c0,.22,0,.44,0,.67h.62c.19,0,.38-.04,.57-.11s.35-.18,.5-.31c.15-.14,.27-.31,.36-.53s.14-.46,.14-.74c0-.21-.03-.41-.08-.61Zm-.26,3.51c-.29-.31-.71-.46-1.26-.46-.13,0-.24,0-.33,0-.09,0-.18,0-.26,0,0,.19,0,.38,0,.58,0,.2,0,.44,0,.71,0,.21,0,.43,0,.65,0,.22,0,.44,0,.65s0,.41,0,.59c0,.18,0,.32,0,.44,.13,0,.25,.02,.36,.02,.11,0,.24,0,.4,0,.2,0,.39-.04,.58-.12,.18-.08,.34-.2,.48-.35,.14-.15,.25-.34,.33-.56s.12-.48,.12-.77c0-.62-.14-1.08-.43-1.39Z"/>
            <path class="cls-6" d="M468.18,146.32c-.22-.02-.43-.03-.63-.03h-1.17c-.2,0-.39,0-.58,.03-.15-.43-.3-.88-.45-1.33s-.32-.9-.49-1.36c-.29,0-.59-.02-.88-.02-.29,0-.59,0-.88,0-.24,0-.48,0-.71,0-.24,0-.48,.01-.71,.02-.18,.45-.35,.9-.51,1.36-.16,.45-.3,.9-.43,1.33-.11-.02-.22-.03-.32-.03h-.65c-.11,0-.23,0-.36,.03,.11-.23,.26-.55,.44-.96,.18-.41,.38-.87,.6-1.38,.22-.51,.46-1.07,.71-1.66,.25-.59,.5-1.19,.76-1.79,.25-.6,.5-1.2,.74-1.78,.24-.59,.46-1.13,.67-1.64,.09,.02,.18,.03,.26,.05s.17,.02,.26,.02,.18,0,.26-.02c.08-.01,.17-.03,.26-.05,.29,.75,.61,1.56,.94,2.42,.33,.86,.67,1.7,1.01,2.53,.34,.83,.67,1.62,.99,2.36s.61,1.37,.88,1.89Zm-4.86-6.64c-.24,.53-.46,1.06-.67,1.58s-.42,1.05-.62,1.59h2.51c-.2-.54-.4-1.07-.6-1.59-.2-.52-.41-1.04-.63-1.58Z"/>
            <path class="cls-6" d="M493.61,138.25c-.02-.42-.03-.78-.04-1.1,.26,.04,.46,.07,.62,.07s.36-.02,.62-.07c1,1.07,1.98,2.13,2.96,3.17,.97,1.04,1.98,2.09,3,3.17v-2.45c0-.43,0-.86,0-1.28,0-.42,0-.81-.01-1.16,0-.35-.01-.66-.03-.92s-.03-.43-.05-.52c.26,.04,.46,.07,.62,.07s.36-.02,.62-.07c-.05,.81-.08,1.54-.11,2.19-.03,.65-.05,1.27-.07,1.84-.02,.58-.03,1.15-.03,1.71,0,.56,0,1.16,0,1.8v1.6c-.18-.02-.37-.03-.56-.03s-.38,0-.54,.03c-1.89-2.13-3.89-4.27-6-6.42,0,.26-.02,.51-.02,.77,0,.26,0,.52,0,.78v1.54c0,.53,0,.98,0,1.36,0,.37,.01,.69,.02,.94,0,.26,.02,.47,.03,.63,0,.16,.02,.29,.03,.39-.11-.02-.22-.03-.33-.03h-.32c-.21,0-.42,0-.63,.03,.02-.07,.04-.32,.07-.76s.06-.96,.09-1.59c.03-.63,.06-1.3,.08-2.04,.02-.73,.03-1.43,.03-2.11,0-.61,0-1.13-.03-1.54Z"/>
            <path class="cls-6" d="M529.25,144.64c0,.69,.04,1.24,.1,1.65-.16-.02-.32-.03-.51-.03h-1.24c-.18,0-.35,0-.51,.03,.04-.55,.06-1.11,.08-1.68,.02-.57,.03-1.23,.03-1.96v-1.81c0-.74,0-1.39-.03-1.96-.02-.57-.05-1.15-.08-1.72,.16,.02,.32,.03,.51,.05s.39,.02,.62,.02,.43,0,.62-.02,.35-.03,.51-.05c-.05,.27-.08,.67-.09,1.2s-.02,1.12-.02,1.77v1.28c.31-.35,.65-.74,1-1.16,.36-.42,.7-.83,1.03-1.23,.33-.4,.63-.77,.89-1.1,.27-.33,.46-.58,.58-.75,.13,.02,.26,.03,.38,.05,.13,.01,.26,.02,.38,.02s.26,0,.39-.02,.28-.03,.43-.05c-.16,.15-.39,.39-.71,.73-.32,.34-.66,.7-1.02,1.09s-.71,.77-1.04,1.14c-.33,.37-.59,.66-.77,.87,.29,.43,.62,.91,.98,1.44,.36,.52,.71,1.04,1.06,1.54,.35,.5,.68,.96,.98,1.38,.3,.42,.54,.74,.73,.95-.27-.02-.5-.03-.71-.03h-1.22c-.2,0-.4,0-.6,.03-.47-.67-.92-1.36-1.37-2.05-.45-.7-.91-1.39-1.37-2.08h-.03c0,.97,0,1.8,.01,2.49Z"/>
          </g>
        </g>
        <g>
          <path class="cls-5" d="M191.64,160.08c-.76,.41-1.67,.78-2.74,1.1-1.07,.32-2.26,.61-3.58,.87-1.32,.26-2.7,.39-4.13,.39-3.07,0-5.9-.48-8.5-1.45-2.6-.97-4.84-2.44-6.72-4.43-1.88-1.98-3.36-4.4-4.42-7.27-1.07-2.86-1.6-6.13-1.6-9.79s.53-6.92,1.6-9.79c1.07-2.86,2.56-5.29,4.48-7.27,1.92-1.98,4.22-3.49,6.9-4.52,2.68-1.03,5.63-1.55,8.85-1.55,2.56,0,4.9,.29,7.02,.87,2.12,.58,3.99,1.28,5.62,2.1-.31,.6-.56,1.42-.76,2.46-.2,1.03-.35,1.9-.47,2.58l-.35,.13c-.39-.52-.93-1.1-1.63-1.74-.7-.65-1.51-1.27-2.45-1.87-.93-.6-1.98-1.11-3.14-1.52-1.16-.41-2.45-.61-3.84-.61-2.29,0-4.42,.41-6.38,1.23-1.96,.82-3.67,2.08-5.12,3.78-1.46,1.7-2.59,3.86-3.41,6.46-.82,2.61-1.22,5.7-1.22,9.27s.41,6.67,1.22,9.27c.82,2.61,1.95,4.76,3.41,6.46,1.46,1.7,3.16,2.96,5.12,3.78,1.96,.82,4.08,1.23,6.38,1.23,1.4,0,2.69-.19,3.87-.58,1.18-.39,2.27-.85,3.26-1.39,.99-.54,1.88-1.12,2.68-1.74,.79-.62,1.46-1.17,2.01-1.65l.23,.26-.52,3.81c-.35,.35-.9,.72-1.66,1.13Z"/>
          <path class="cls-5" d="M201.02,129.72c1.07-2.86,2.56-5.29,4.48-7.27,1.92-1.98,4.22-3.49,6.9-4.52,2.68-1.03,5.61-1.55,8.79-1.55s6.17,.52,8.85,1.55c2.68,1.03,4.98,2.54,6.9,4.52,1.92,1.98,3.42,4.4,4.48,7.27,1.07,2.86,1.6,6.13,1.6,9.79s-.53,6.92-1.6,9.79c-1.07,2.86-2.56,5.29-4.48,7.27-1.92,1.98-4.22,3.46-6.9,4.43-2.68,.97-5.63,1.45-8.85,1.45s-6.11-.48-8.79-1.45c-2.68-.97-4.98-2.44-6.9-4.43-1.92-1.98-3.42-4.4-4.48-7.27-1.07-2.86-1.6-6.13-1.6-9.79s.53-6.92,1.6-9.79Zm35.08,.52c-.82-2.61-1.95-4.76-3.41-6.46-1.46-1.7-3.16-2.96-5.12-3.78-1.96-.82-4.09-1.23-6.38-1.23s-4.36,.41-6.32,1.23c-1.96,.82-3.67,2.08-5.12,3.78-1.46,1.7-2.59,3.86-3.41,6.46-.82,2.61-1.22,5.7-1.22,9.27s.41,6.67,1.22,9.27c.82,2.61,1.95,4.76,3.41,6.46,1.46,1.7,3.16,2.96,5.12,3.78,1.96,.82,4.07,1.23,6.32,1.23s4.41-.41,6.38-1.23c1.96-.82,3.67-2.08,5.12-3.78,1.46-1.7,2.59-3.85,3.41-6.46,.82-2.61,1.22-5.7,1.22-9.27s-.41-6.66-1.22-9.27Z"/>
          <path class="cls-5" d="M259.57,152.42c-1.48-3.57-3.06-7.34-4.74-11.31-1.68-3.96-3.41-8.01-5.18-12.15-1.77-4.13-3.46-8.05-5.08-11.76,.63,.09,1.23,.16,1.82,.23,.58,.06,1.14,.1,1.68,.1s1.1-.03,1.68-.1c.58-.06,1.19-.14,1.82-.23,.99,2.84,2.07,5.83,3.26,8.95,1.19,3.12,2.44,6.3,3.77,9.53,1.32,3.23,2.68,6.5,4.07,9.82,1.39,3.32,2.8,6.61,4.24,9.88,.81-1.77,1.68-3.74,2.62-5.91,.94-2.17,1.89-4.44,2.86-6.78,.96-2.35,1.92-4.74,2.86-7.17,.94-2.43,1.85-4.77,2.72-7.01,.87-2.24,1.67-4.33,2.39-6.27,.72-1.94,1.32-3.62,1.82-5.04,.99,.22,1.82,.32,2.49,.32s1.5-.11,2.49-.32c-3.5,7.49-6.86,14.92-10.09,22.29-3.23,7.37-6.32,14.73-9.28,22.1-.72-.09-1.46-.13-2.22-.13-.9,0-1.64,.04-2.22,.13-1.03-2.54-2.29-5.6-3.77-9.17Z"/>
          <path class="cls-5" d="M298.6,125.48c-.14-2.76-.3-5.51-.47-8.27,2.57,.09,5.13,.16,7.68,.23,2.54,.06,5.1,.1,7.68,.1s5.12-.03,7.64-.1c2.52-.06,5.06-.14,7.63-.23-.17,.65-.26,1.29-.26,1.94s.09,1.29,.26,1.94c-1.83-.09-3.5-.17-5.02-.26-1.52-.09-3.12-.17-4.8-.26-1.69-.09-3.53-.16-5.53-.23-2-.06-4.4-.1-7.21-.1-.06,1.38-.13,2.69-.21,3.94-.09,1.25-.13,2.67-.13,4.26,0,1.68,.01,3.32,.04,4.91,.03,1.59,.04,2.8,.04,3.62,2.52,0,4.77-.02,6.78-.06,2-.04,3.83-.1,5.49-.16,1.66-.06,3.19-.13,4.59-.19,1.4-.06,2.73-.14,3.99-.23-.17,.65-.26,1.31-.26,2,0,.65,.08,1.29,.26,1.94-1.49-.13-3.22-.24-5.19-.32-1.97-.09-3.95-.14-5.92-.16-1.97-.02-3.83-.04-5.58-.06-1.75-.02-3.13-.03-4.16-.03,0,.39-.01,.81-.04,1.26-.03,.45-.04,1.02-.04,1.71v6.4c0,2.46,.01,4.48,.04,6.07,.03,1.59,.07,2.8,.13,3.62h6c2.17,0,4.3-.03,6.39-.1,2.09-.06,4.06-.15,5.92-.26,1.86-.11,3.47-.27,4.85-.48-.12,.3-.19,.64-.21,1-.03,.37-.04,.7-.04,1,0,.69,.09,1.25,.26,1.68-2.57-.09-5.13-.13-7.68-.13h-15.57c-2.57,0-5.18,.04-7.81,.13,.17-2.76,.33-5.5,.47-8.24,.14-2.73,.21-5.52,.21-8.37v-11.11c0-2.84-.07-5.64-.21-8.4Z"/>
          <path class="cls-5" d="M337.86,125.59c-.13-2.73-.27-5.52-.42-8.37,1.48,.09,2.93,.16,4.36,.23,1.43,.06,2.88,.1,4.36,.1s2.93-.05,4.36-.16c1.43-.11,2.88-.16,4.36-.16,2.14,0,4.18,.17,6.12,.52,1.94,.35,3.63,.92,5.09,1.71,1.45,.8,2.6,1.84,3.44,3.13,.84,1.29,1.26,2.91,1.26,4.85,0,2.07-.55,3.84-1.64,5.33-1.1,1.49-2.43,2.71-4.01,3.68-1.58,.97-3.28,1.72-5.09,2.26-1.81,.54-3.45,.89-4.93,1.07,.61,.65,1.45,1.55,2.52,2.71,1.07,1.16,2.27,2.44,3.59,3.84,1.32,1.4,2.7,2.86,4.13,4.39,1.43,1.53,2.8,2.99,4.13,4.39,1.33,1.4,2.57,2.68,3.75,3.84,1.17,1.16,2.12,2.05,2.83,2.65-.77-.09-1.53-.13-2.29-.13h-4.51c-.77,0-1.5,.04-2.22,.13-.77-.9-1.92-2.26-3.48-4.07-1.56-1.81-3.28-3.75-5.16-5.81-1.89-2.07-3.81-4.12-5.77-6.17-1.96-2.04-3.76-3.78-5.39-5.2h-2.91v4.72c0,2.84,.06,5.64,.19,8.4,.13,2.76,.27,5.47,.42,8.14-1.17-.09-2.42-.13-3.75-.13s-2.57,.04-3.75,.13c.15-2.67,.29-5.38,.42-8.14,.13-2.76,.19-5.56,.19-8.4v-11.11c0-2.84-.06-5.63-.19-8.37Zm8.79,12.31c.84,.04,1.77,.06,2.79,.06,1.58,0,3.22-.15,4.93-.45,1.71-.3,3.27-.83,4.7-1.58,1.43-.75,2.61-1.77,3.55-3.04,.94-1.27,1.42-2.88,1.42-4.81,0-1.68-.37-3.07-1.11-4.17-.74-1.1-1.7-1.97-2.87-2.62-1.17-.65-2.45-1.09-3.82-1.32-1.38-.24-2.73-.36-4.05-.36-1.78,0-3.26,.03-4.43,.1-1.17,.06-2.17,.14-2.98,.23-.1,2.37-.2,4.72-.31,7.04-.1,2.33-.15,4.65-.15,6.98v3.68c.71,.13,1.49,.22,2.33,.26Z"/>
        </g>
        <g>
          <rect class="cls-3" x=".73" y="293.16" width="534.54" height="1.82"/>
          <rect class="cls-3" x=".73" y="401.39" width="534.54" height="1.82"/>
          <g>
            <path class="cls-1" d="M27.16,250.37c0,2.33-1.21,3.5-3.63,3.5H3.63c-1.42,0-2.42-.36-2.99-1.09-.42-.55-.64-1.35-.64-2.41v-21.44c0-2.33,1.21-3.5,3.63-3.5H23.54c1.42,0,2.42,.36,2.99,1.09,.42,.55,.64,1.35,.64,2.41v21.44Zm-3.31-21.71c0-1.17-.55-1.75-1.65-1.75H4.96c-1.1,0-1.65,.58-1.65,1.75v21.97c0,1.15,.55,1.72,1.65,1.72H22.2c1.1,0,1.65-.57,1.65-1.72v-21.97Zm-10.91,15.53c.47,0,.7,.24,.7,.73,0,.26-.08,.46-.25,.6l-.41,.2c-.59,.18-1.37,.39-2.32,.63-.76,.2-1.62,.41-2.58,.63-.76,.18-1.48,.33-2.16,.46l-.92,.2c-.78,0-1.18-.44-1.18-1.32,0-.51,.17-.86,.51-1.06,.13-.07,.28-.12,.45-.16l.38-.03c1.06-.04,2.25-.14,3.56-.3l1.88-.23,2.13-.33h.22Zm-7.82-10.87c-.09,0-.17,0-.25-.03-.11-.02-.2-.06-.29-.1-.23-.13-.35-.34-.35-.63s.12-.5,.35-.63c.08-.04,.18-.08,.29-.1,.08-.02,.17-.03,.25-.03H14.12c-.02-.33-.03-.83-.03-1.49v-.83c0-.26,.01-.43,.03-.5,.17-.73,.67-1.09,1.49-1.09,1.04,0,1.56,.56,1.56,1.68v2.21h4.93c.08,0,.17,.01,.25,.03,.11,.02,.2,.06,.29,.1,.23,.13,.35,.34,.35,.63,0,.31-.12,.52-.35,.63-.08,.04-.18,.08-.29,.1-.09,.02-.17,.03-.25,.03h-4.9l.03,.73c0,.29,.01,.56,.03,.83,.04,.64,.1,1.27,.16,1.88,.08,.77,.18,1.54,.29,2.31,.15,.86,.32,1.74,.51,2.64,.51-1.08,1.05-2.49,1.62-4.23,.13-.37,.26-.64,.41-.79,.23-.24,.59-.36,1.08-.36,1.15,0,1.72,.51,1.72,1.52,0,1.52-1.3,3.93-3.91,7.24l.13,.33c.04,.13,.1,.25,.16,.36,.11,.31,.22,.57,.35,.79,.32,.59,.59,.89,.83,.89,.36,0,.63-.45,.8-1.35,.13-.62,.47-.93,1.02-.93,.85,0,1.27,.38,1.27,1.12,0,.09-.06,.34-.19,.76-.17,.55-.37,1.06-.6,1.52-.32,.64-.68,1.15-1.08,1.52-.47,.44-.98,.66-1.53,.66-1.21,0-2.33-1.1-3.37-3.3-1.1,1.01-2.28,1.94-3.53,2.77-1.14,.79-1.88,1.19-2.19,1.19-.49,0-.73-.25-.73-.76,0-.26,.15-.5,.45-.69,1.99-1.3,3.72-2.9,5.18-4.79-.34-1.12-.65-2.31-.92-3.57-.21-1.06-.39-2.16-.54-3.3-.13-.93-.23-1.87-.32-2.84l-.13-2.15H5.12Zm8.05,7.33c0,1.28-.73,1.92-2.19,1.92h-3.4c-1.48,0-2.23-.64-2.23-1.92v-3.11c0-1.28,.74-1.92,2.23-1.92h3.4c1.46,0,2.19,.64,2.19,1.92v3.11Zm-2.42-2.48c0-.7-.34-1.06-1.02-1.06h-.92c-.68,0-1.02,.35-1.02,1.06v1.85c0,.7,.34,1.06,1.02,1.06h.92c.68,0,1.02-.35,1.02-1.06v-1.85Zm8.87-7.76c-.04-.09-.12-.2-.22-.33l-.89-1.25c-.06-.07-.1-.2-.1-.4,0-.51,.24-.76,.73-.76,.11,0,.25,.04,.45,.13l.6,.33,1.08,.73c.74,.51,1.11,.99,1.11,1.45,0,.93-.46,1.39-1.37,1.39-.42,0-.89-.43-1.4-1.29Z"/>
            <path class="cls-1" d="M73.64,252.94c0,.11-.01,.22-.03,.33-.02,.26-.07,.5-.16,.69-.23,.57-.69,.86-1.37,.86s-1.14-.28-1.4-.83c-.08-.2-.14-.44-.16-.73-.02-.09-.03-.2-.03-.33v-24.94c0-1.74,.96-2.61,2.89-2.61h4.77c1.29,0,1.94,.57,1.94,1.72,0,.11-.02,.25-.06,.43-.02,.16-.05,.28-.1,.36l-3.37,7.83c-.06,.15-.1,.26-.1,.33,0,.04,.01,.09,.03,.13,.02,.07,.08,.17,.19,.3,.42,.59,.81,1.15,1.14,1.65,.42,.7,.78,1.4,1.08,2.08,.36,.79,.64,1.59,.83,2.38,.21,.93,.32,1.84,.32,2.74,0,.95-.14,1.73-.41,2.35-.23,.53-.57,.94-1.02,1.22-.34,.22-.73,.36-1.18,.43l-.54,.07h-2.1c-.09,0-.17-.01-.25-.03-.11,0-.2-.03-.29-.1-.23-.11-.35-.31-.35-.6,0-.31,.12-.52,.35-.63,.08-.04,.18-.08,.29-.1,.08-.02,.17-.03,.25-.03h.79c.95,0,1.43-.97,1.43-2.91,0-1.72-.29-3.31-.86-4.79-.23-.57-.52-1.16-.86-1.75l-.86-1.42c-.23-.38-.35-.69-.35-.96,0-.07,.04-.26,.13-.59l2.45-8.06c0-.35-.2-.53-.6-.53h-1.15c-.87,0-1.3,.46-1.3,1.39v24.65Zm4.8-.1c0-.24,.16-.5,.48-.76,.93-.84,1.78-1.84,2.54-3.01,.25-.42,.51-.87,.76-1.35l.51-1.02c.32-.64,.78-.96,1.4-.96,1.23,0,1.84,.53,1.84,1.59,0,.4-.31,.96-.92,1.68-.53,.64-1.24,1.33-2.13,2.08-.78,.68-1.55,1.27-2.29,1.75-.74,.51-1.23,.76-1.46,.76-.49,0-.73-.25-.73-.76Zm9.83-26.07c.36,0,.69,.1,.99,.3-.11-.46-.16-.8-.16-1.02,0-1.03,.57-1.55,1.72-1.55,.89,0,1.43,.41,1.62,1.22,.02,.04,.04,.14,.06,.3l.13,1.19c.15-.29,.41-.43,.8-.43h3.56c1.23,0,1.84,.44,1.84,1.32,0,.46-.52,1.34-1.56,2.64-.4,.48-.86,1.01-1.37,1.59l-1.24,1.32c.68,1.21,1.41,2.24,2.19,3.07,.3,.33,.64,.66,1.02,.99l1.24,1.09c.08,.13,.13,.28,.13,.43,0,.48-.25,.73-.76,.73-.11,0-.28-.07-.51-.2-.23-.13-.52-.31-.86-.53-.68-.44-1.33-.94-1.94-1.49-.85-.77-1.62-1.61-2.32-2.51-.57-.79-1.09-1.63-1.56-2.51-.38-.7-.72-1.45-1.02-2.25-.13-.31-.24-.63-.35-.96l-.25-.79c-.51,1.54-1.29,3.08-2.35,4.62-.89,1.26-1.93,2.46-3.12,3.6-2.21,2.14-3.66,3.21-4.36,3.21-.47,0-.7-.25-.7-.76,0-.26,.16-.52,.48-.76,.61-.46,1.19-.96,1.72-1.49l.95-.99s.03-.01,.03-.03l.06-.07c-.3-.09-.66-.52-1.08-1.29l-.54-.83c-.13-.2-.22-.36-.29-.5-.09-.18-.13-.3-.13-.36-.53,.53-.9,.79-1.11,.79-.49,0-.73-.25-.73-.76,0-.07,.05-.21,.16-.43,.08-.15,.21-.35,.38-.59l.7-1.02c.57-.99,1.02-1.88,1.34-2.68,.23-.59,.51-1.49,.83-2.67l.13-.43c.08-.18,.17-.32,.25-.43,.25-.31,.65-.46,1.18-.46,1.19,0,1.78,.51,1.78,1.52,0,.18-.08,.46-.25,.86h3.28Zm3.05,25.11c0,.9-.18,1.55-.54,1.95-.42,.51-1.19,.76-2.29,.76h-3.69c-.11-.02-.21-.06-.32-.1s-.19-.12-.25-.23c-.09-.11-.13-.25-.13-.43s.04-.32,.13-.43c.06-.11,.15-.19,.25-.23,.08-.04,.19-.08,.32-.1h1.78c.87,0,1.3-.46,1.3-1.39v-7.67h-6.3c-.08,0-.17,0-.25-.03-.11,0-.2-.03-.29-.1-.23-.11-.35-.31-.35-.59,0-.31,.12-.52,.35-.63,.08-.04,.18-.08,.29-.1,.08-.02,.17-.03,.25-.03h16.51c.08,0,.17,.01,.25,.03,.11,.02,.2,.06,.29,.1,.23,.11,.35,.32,.35,.63,0,.29-.12,.48-.35,.59-.08,.07-.18,.1-.29,.1-.08,.02-.17,.03-.25,.03h-6.77v7.86Zm-7.22-18.17c.17-.26,.35-.58,.54-.96-.13,0-.29-.06-.48-.16-.04-.02-.11-.09-.19-.2l-1.08-1.52c-.13-.18-.2-.31-.22-.4-.4,.55-.95,1.2-1.65,1.95,.25,0,.73,.25,1.43,.76,.68,.46,1.1,.83,1.27,1.09l.38-.56Zm.03-5.42c-.11,.22-.4,.69-.89,1.42,.11-.02,.25,.01,.45,.1,.19,.07,.41,.16,.67,.26,.51,.26,.9,.52,1.18,.76,.21-.55,.38-1.06,.51-1.52,.11-.35,.16-.56,.16-.63,0-.09-.03-.16-.1-.23-.08-.11-.21-.16-.38-.16h-1.59Zm.51,10.87c-.09,0-.18-.01-.29-.03-.11-.02-.2-.05-.29-.1-.21-.11-.32-.31-.32-.6,0-.31,.12-.53,.35-.66,.08-.04,.18-.08,.29-.1,.08-.02,.17-.03,.25-.03h9.48c.08,0,.17,.01,.25,.03,.11,.02,.2,.06,.29,.1,.23,.13,.35,.34,.35,.63,0,.31-.12,.52-.35,.63-.08,.04-.18,.08-.29,.1-.08,.02-.17,.03-.25,.03h-9.48Zm8.78-10.87c-.21,0-.36-.02-.45-.07-.08-.02-.16-.07-.22-.13,.23,1.21,.58,2.43,1.05,3.67,.51-.81,.92-1.54,1.24-2.18,.23-.46,.35-.74,.35-.83,0-.31-.19-.46-.57-.46h-1.4Zm3.75,24.84c-.68,0-1.2-.47-1.56-1.42-.34-.88-.7-1.7-1.08-2.44l-1.3-2.21c-.13-.18-.19-.35-.19-.53,0-.51,.24-.76,.73-.76,.08,0,.2,.05,.35,.13,.15,.09,.32,.21,.51,.36l.95,.79,1.14,1.06c.45,.42,.82,.8,1.11,1.16,.78,.86,1.18,1.53,1.18,2.02,0,1.23-.62,1.85-1.84,1.85Z"/>
            <path class="cls-1" d="M143.69,233.19c-.11,0-.2-.01-.29-.03-.11,0-.2-.03-.29-.1-.21-.11-.32-.31-.32-.6,0-.31,.12-.52,.35-.63,.08-.04,.18-.08,.29-.1,.08-.02,.17-.03,.25-.03h8.59c.89,0,1.56,.23,2,.69,.32,.35,.48,.78,.48,1.29,0,.37-.09,.94-.25,1.68-.19,.93-.46,1.88-.8,2.87-.4,1.23-.89,2.41-1.46,3.53-.68,1.34-1.43,2.57-2.26,3.67-.7,.9-1.44,1.77-2.23,2.61-.68,.68-1.36,1.31-2.04,1.88-1.27,1.06-2.08,1.59-2.42,1.59-.49,0-.73-.25-.73-.76,0-.24,.15-.5,.45-.76,1.55-1.28,2.92-2.84,4.1-4.69,.95-1.5,1.77-3.16,2.45-4.99,.28-.75,.52-1.5,.73-2.25,.17-.66,.32-1.31,.45-1.95,.11-.51,.19-.99,.25-1.45,.04-.35,.06-.63,.06-.83,0-.44-.25-.66-.76-.66h-6.62Zm15.43,18.4c0,1.15-.32,1.95-.95,2.41-.53,.4-1.34,.59-2.42,.59h-4.33c-.13-.02-.23-.06-.32-.1-.13-.04-.22-.11-.29-.2-.08-.11-.13-.25-.13-.43s.04-.32,.13-.43c.06-.11,.16-.19,.29-.23,.08-.04,.19-.08,.32-.1h2.64c1.08,0,1.62-.57,1.62-1.72v-25.11c0-.11,.01-.22,.03-.33,.02-.29,.08-.54,.19-.76,.25-.59,.75-.89,1.49-.89s1.24,.3,1.49,.89c.11,.22,.17,.47,.19,.76,.02,.11,.03,.22,.03,.33v3.3c.34,1.52,.67,2.79,.99,3.8,.13,.4,.29,.84,.48,1.32l.35,.96c.06,.13,.11,.24,.13,.33,.95-.68,1.93-1.52,2.93-2.51,1.06-1.04,1.97-2.07,2.74-3.11,.64-.88,1.24-1.32,1.81-1.32,.51,0,.97,.22,1.4,.66,.42,.44,.64,.92,.64,1.45,0,.4-.14,.75-.41,1.06-.38,.42-1.21,1.06-2.48,1.92-1.06,.7-2.05,1.32-2.96,1.85l-2.96,1.59c2.44,5.2,5.81,9.35,10.11,12.45,.32,.2,.48,.44,.48,.73,0,.53-.23,.79-.7,.79-.13,0-.43-.14-.92-.43-.51-.29-1.1-.66-1.78-1.12-.74-.51-1.47-1.05-2.19-1.62-.85-.66-1.6-1.31-2.26-1.95-.7-.68-1.37-1.4-2-2.15-.55-.64-1.06-1.31-1.53-2.02-.38-.55-.75-1.13-1.11-1.75l-.41-.73c-.11-.18-.21-.37-.32-.59v12.39Z"/>
            <path class="cls-1" d="M218.41,238.18c0-1.19,.3-2.03,.89-2.51,.51-.4,1.34-.59,2.48-.59h22.68c.11,0,.2,.01,.29,.03,.11,0,.2,.02,.29,.07,.21,.13,.32,.34,.32,.63,0,.31-.12,.52-.35,.63-.09,.05-.18,.08-.29,.1-.09,.02-.17,.03-.25,.03h-21.09c-1,0-1.49,.52-1.49,1.55v3.04c0,2.4-.22,4.44-.67,6.11-.4,1.52-1.07,2.99-2,4.43-.4,.59-.87,1.19-1.4,1.78-.66,.73-1.11,1.09-1.37,1.09-.51,0-.76-.25-.76-.76,0-.07,.04-.19,.13-.36l.86-1.29c.72-1.23,1.22-2.81,1.49-4.72,.11-.77,.18-1.62,.22-2.54,.02-.68,.03-1.5,.03-2.44v-4.26Zm10.75-11.89c0-.11,.01-.22,.03-.33,.02-.29,.08-.54,.19-.76,.25-.62,.75-.93,1.49-.93s1.25,.31,1.53,.93c.11,.22,.17,.47,.19,.76,.02,.09,.03,.19,.03,.3v5.12h5.41c.91,0,1.37-.48,1.37-1.45v-2.48c0-.62,.11-1.1,.32-1.45,.3-.46,.76-.69,1.4-.69s1.12,.22,1.4,.66c.23,.38,.35,.87,.35,1.49v2.48c0,1.96-1.05,2.94-3.15,2.94h-17.56c-2.1,0-3.15-.98-3.15-2.94v-2.68c0-.13,.01-.24,.03-.33,.02-.29,.08-.54,.19-.76,.25-.57,.74-.86,1.46-.86s1.25,.29,1.53,.86c.08,.2,.15,.44,.19,.73,.02,.11,.03,.22,.03,.33v2.71c0,.97,.46,1.45,1.37,1.45h5.34v-5.09Zm5.47,19.72h9.57c.11,0,.2,.01,.29,.03,.11,.02,.2,.06,.29,.1,.21,.13,.32,.34,.32,.63s-.12,.5-.35,.63c-.08,.04-.18,.08-.29,.1-.08,.02-.17,.03-.25,.03h-9.57v5.29c0,.13-.01,.25-.03,.36-.02,.29-.09,.54-.19,.76-.25,.62-.75,.93-1.49,.93s-1.24-.3-1.49-.89c-.11-.22-.17-.48-.19-.79-.02-.11-.03-.23-.03-.36v-5.29h-8.05c-.11,0-.2-.01-.29-.03-.11-.02-.2-.06-.29-.1-.21-.13-.32-.34-.32-.63,0-.31,.12-.52,.35-.63,.08-.04,.18-.08,.29-.1,.08-.02,.17-.03,.25-.03h8.05v-5.22h-6.33c-.09,0-.17-.01-.25-.03-.11-.02-.2-.05-.29-.1-.23-.11-.35-.32-.35-.63s.12-.52,.35-.63c.08-.04,.18-.08,.29-.1,.08-.02,.17-.03,.25-.03h16.35c.11,0,.2,.01,.29,.03,.11,.02,.2,.05,.29,.1,.21,.13,.32,.34,.32,.63,0,.31-.12,.52-.35,.63-.08,.05-.18,.08-.29,.1-.09,.02-.17,.03-.25,.03h-6.58v5.22Z"/>
            <path class="cls-1" d="M307.79,231.9h-2.04l-.51,.5c-.23,.22-.46,.41-.67,.56-.23,.2-.45,.35-.64,.46-.21,.13-.37,.2-.48,.2-.49,0-.73-.25-.73-.76,0-.13,.05-.27,.16-.43l.76-1.35c.25-.51,.47-1.02,.64-1.55,.15-.44,.3-.76,.45-.96,.25-.33,.6-.5,1.05-.5,.38,0,.76,.13,1.14,.4,.42,.29,.64,.63,.64,1.02,0,.2-.05,.4-.16,.59l-.32,.43h6.49l.06,.03v-1.29c0-.81-.4-1.22-1.21-1.22h-19.21c-.81,0-1.21,.41-1.21,1.22v.69h8.59c.08,0,.16,.01,.22,.03,.11,0,.2,.02,.29,.07,.21,.13,.32,.34,.32,.63,0,.26-.11,.45-.32,.56-.06,.04-.15,.08-.25,.1-.09,.02-.17,.03-.25,.03h-3.02v2.11h2.23c.08,0,.16,.01,.22,.03,.11,0,.2,.02,.29,.07,.21,.13,.32,.33,.32,.6s-.11,.46-.32,.59c-.06,.04-.15,.07-.25,.07-.08,.02-.17,.03-.25,.03h-2.23v2.25l2.48-.33,.64-.03c.49,0,.73,.25,.73,.76,0,.26-.1,.46-.29,.59l-.22,.13-.22,.07c-4.79,1.19-8.15,1.78-10.08,1.78-.53,0-.9-.18-1.11-.53-.06-.13-.12-.29-.16-.46-.02-.11-.03-.23-.03-.36,0-.53,.23-.88,.7-1.06,.04-.02,.28-.04,.7-.07,.36-.04,.84-.08,1.43-.1,.42-.04,.93-.08,1.53-.1,.08-.02,.18-.03,.29-.03l.6-.03v-2.48h-2.48c-.09,0-.16,0-.22-.03-.11,0-.2-.02-.29-.07-.21-.13-.32-.33-.32-.59s.11-.46,.32-.6c.06-.04,.15-.07,.25-.07,.08-.02,.17-.03,.25-.03h2.48v-2.11h-2.7c-.17,.4-.46,.66-.86,.79-.13,.07-.27,.11-.41,.13h-.41c-.06,0-.13-.01-.19-.03-.21-.04-.4-.11-.57-.2-.49-.31-.73-.84-.73-1.59v-1.88l.06-.4c.06-.33,.17-.61,.32-.83,.4-.57,1.17-.86,2.29-.86h9.76v-.59c0-.6,.2-1.05,.6-1.35,.32-.24,.7-.36,1.14-.36s.81,.13,1.14,.4c.38,.31,.57,.75,.57,1.32v.59h9.8c.78,0,1.37,.12,1.75,.36,.61,.38,.92,1.09,.92,2.15v1.52c0,.73-.22,1.23-.67,1.52-.28,.2-.63,.3-1.05,.3l-.51-.07c-.15-.04-.29-.1-.41-.16-.13-.07-.25-.17-.38-.3-.04,.02-.08,.03-.13,.03-.08,.02-.19,.03-.32,.03h-2.8v1.95h4.77c.08,0,.16,.01,.22,.03,.11,0,.2,.02,.29,.07,.21,.13,.32,.33,.32,.59s-.11,.45-.32,.56c-.06,.04-.15,.08-.25,.1-.08,.02-.17,.03-.25,.03h-4.77v2.97h1.4c.53,0,.8-.27,.8-.83v-.53c0-.13,.01-.26,.03-.4,.04-.15,.11-.3,.19-.43,.21-.33,.53-.5,.95-.5,.78,0,1.18,.44,1.18,1.32v.89c0,1.23-.69,1.85-2.07,1.85h-7.98c-1.38,0-2.07-.62-2.07-1.85v-.93c0-.86,.39-1.29,1.18-1.29s1.18,.43,1.18,1.29v.56c0,.55,.26,.83,.8,.83h1.43v-2.97h-5.28c-.11-.02-.2-.06-.29-.1-.21-.11-.32-.31-.32-.59s.11-.48,.32-.59c.08-.04,.18-.08,.29-.1h5.28v-1.95Zm-7.92,19.16c.08,.11,.16,.22,.22,.33,.06,.18,.1,.35,.1,.53,0,.46-.25,.83-.76,1.09-.53,.26-1.6,.56-3.21,.89-1.19,.24-2.44,.47-3.75,.69-1.31,.22-2.14,.33-2.48,.33-.55,0-.83-.26-.83-.79,0-.35,.54-.68,1.62-.99,1.38-.4,2.46-.74,3.24-1.02,.59-.22,1.38-.57,2.35-1.06h-1.05c-1.93,0-2.89-.87-2.89-2.61v-5.29c0-1.74,.96-2.61,2.89-2.61h15.14c1.1,0,1.88,.24,2.32,.73,.38,.4,.57,1.02,.57,1.88v5.29c0,1.74-.96,2.61-2.89,2.61h-.92c2.04,.99,4.08,1.76,6.14,2.31,.51,.13,.76,.38,.76,.73,0,.53-.25,.79-.76,.79-.23,0-.66-.05-1.27-.13-.53-.07-1.17-.16-1.91-.3l-1.81-.33c-.49-.09-.82-.15-.99-.2-1.48-.31-2.49-.62-3.02-.93-.45-.24-.67-.57-.67-.99,0-.13,.03-.27,.1-.43,.06-.18,.17-.35,.32-.53h-6.55Zm10.18-7.5c0-.66-.05-1.07-.16-1.22-.13-.22-.48-.33-1.05-.33h-11.86c-.57,0-.92,.11-1.05,.33-.11,.15-.16,.56-.16,1.22h14.28Zm-14.28,1.39v1.59h14.28v-1.59h-14.28Zm0,2.97c0,.75,.05,1.21,.16,1.39,.13,.22,.48,.33,1.05,.33h11.86c.57,0,.92-.11,1.05-.33,.11-.18,.16-.64,.16-1.39h-14.28Z"/>
            <path class="cls-1" d="M370.17,235.1c-.89,0-1.34,.46-1.34,1.39v3.5c0,.99-.03,1.92-.1,2.78-.09,1.04-.21,2-.38,2.91-.42,2.16-1.13,4.02-2.13,5.58-.57,.9-1.24,1.73-2,2.48-.72,.68-1.21,1.02-1.46,1.02-.49,0-.73-.25-.73-.76,0-.16,.12-.4,.35-.73,.42-.55,.78-1.09,1.08-1.62,.36-.62,.68-1.29,.95-2.02,.61-1.65,1-3.64,1.14-5.98h-1.3c-.02,.57-.07,1.11-.16,1.62-.09,.62-.22,1.19-.41,1.72-.42,1.34-1.09,2.43-2,3.27-.06,.07-.15,.12-.25,.17-.13,.07-.24,.1-.35,.1-.47,0-.7-.25-.7-.76,0-.09,.01-.17,.03-.23l.22-.43c.74-1.3,1.16-3.12,1.24-5.45h-.57c-.11,0-.2-.01-.29-.03-.11-.02-.2-.05-.29-.1-.21-.13-.32-.34-.32-.63s.11-.49,.32-.63c.08-.04,.18-.07,.29-.07,.08-.02,.18-.03,.29-.03h4.33v-2.94h-2c-1.59,0-2.39-.72-2.39-2.15v-3.27c0-.09,.01-.16,.03-.23,.02-.22,.06-.41,.13-.56,.21-.46,.59-.69,1.14-.69,.87,0,1.3,.56,1.3,1.68v2.54c0,.77,.36,1.16,1.08,1.16h.7v-1.52c0-1.74,.96-2.61,2.89-2.61h11.23v-2.11c-1.4,.29-2.1-.36-2.1-1.95v-.79h-5.88v.93c0,1.32-.56,1.98-1.69,1.98s-1.72-.66-1.72-1.98v-.93h-7.06c-.11,0-.2-.01-.29-.03-.11-.02-.2-.05-.29-.1-.21-.13-.32-.34-.32-.63,0-.31,.12-.52,.35-.63,.08-.04,.18-.08,.29-.1,.08-.02,.17-.03,.25-.03h7.06v-.96c0-1.34,.56-2.02,1.69-2.02s1.72,.67,1.72,2.02v.96h5.88v-.96c0-1.34,.56-2.02,1.69-2.02s1.72,.67,1.72,2.02v.96h7.76c.08,0,.17,.01,.25,.03,.11,.02,.2,.06,.29,.1,.21,.11,.33,.32,.35,.63,0,.29-.12,.5-.35,.63-.08,.04-.18,.08-.29,.1-.08,.02-.17,.03-.25,.03h-7.76v.79c0,.13-.01,.28-.03,.43l-.06,.36c.74-.13,1.26,.04,1.56,.53,.11,.2,.19,.43,.25,.69,0,.09,.01,.19,.03,.3v1.75h3.21c-.36-.11-.78-.62-1.27-1.52-.15-.26-.33-.55-.54-.86l-.44-.56c-.09-.09-.14-.15-.16-.2-.15-.18-.22-.35-.22-.53,0-.51,.24-.76,.73-.76,.11,0,.25,.03,.45,.1,.15,.07,.32,.15,.51,.26l1.02,.6c1.34,.86,2,1.57,2,2.15,0,.66-.37,1.1-1.11,1.32h1.27c.11,0,.2,.01,.29,.03,.11,.02,.2,.06,.29,.1,.21,.13,.32,.34,.32,.63,0,.31-.12,.52-.35,.63-.09,.04-.18,.08-.29,.1-.08,.02-.17,.03-.25,.03h-5.44c0,3.02,.21,5.83,.64,8.43,.57-1.37,1.11-3.08,1.62-5.15,.25-.93,.81-1.39,1.65-1.39,1.19,0,1.78,.53,1.78,1.59,0,.53-.3,1.49-.89,2.87-.36,.81-.8,1.67-1.3,2.58-.57,1.04-1.23,2.1-1.97,3.21,.85,2.69,1.6,4.03,2.26,4.03,.32,0,.59-.63,.83-1.88,.13-.73,.52-1.09,1.18-1.09,.87,0,1.3,.4,1.3,1.19,0,.29-.07,.7-.22,1.25-.15,.64-.36,1.23-.64,1.78-.32,.68-.68,1.22-1.08,1.62-.49,.46-1.01,.69-1.56,.69-.95,0-1.87-.63-2.74-1.88-.32-.44-.61-.97-.89-1.59-.13-.24-.24-.48-.35-.73l-.25-.63c-.68,.75-1.39,1.44-2.13,2.08-.64,.55-1.27,1.05-1.91,1.49-.53,.38-1.02,.67-1.46,.89-.36,.2-.6,.3-.73,.3-.49,0-.73-.24-.73-.73,0-.29,.16-.53,.48-.73,.68-.44,1.34-.95,1.97-1.52,.55-.48,1.08-1.01,1.59-1.58,.42-.46,.83-.96,1.21-1.49,.3-.37,.58-.77,.86-1.19-.59-2.14-1-4.15-1.21-6.05-.11-.9-.18-1.89-.22-2.97-.04-.93-.07-2.06-.1-3.4h-9.61Zm9,9.68c0,.75-.24,1.24-.73,1.49-.19,.09-.45,.14-.76,.17-.19,.02-.51,.03-.95,.03v2.54h1.78c.11,.02,.2,.06,.29,.1,.23,.11,.35,.32,.35,.63s-.12,.53-.35,.66c-.09,.04-.18,.07-.29,.07-.06,.02-.14,.03-.22,.03h-5.85c-1.72,0-2.58-.78-2.58-2.35v-8.59c0-1.56,.86-2.35,2.58-2.35h5.85c.08,0,.17,.01,.25,.03,.11,.02,.2,.06,.29,.1,.21,.13,.32,.34,.32,.63s-.11,.48-.32,.6c-.09,.07-.18,.1-.29,.1-.08,.02-.17,.03-.25,.03h-1.56v2.51c.45,0,.76,.01,.95,.03,.32,.02,.57,.08,.76,.16,.49,.24,.73,.75,.73,1.52v1.85Zm-4.87-3.57v-2.51h-.7c-.78,0-1.18,.41-1.18,1.22v1.29h1.88Zm-1.88,1.49v2.31h3.56c.38,0,.57-.2,.57-.59v-1.12c0-.4-.19-.6-.57-.6h-3.56Zm0,3.77v1.32c0,.82,.39,1.22,1.18,1.22h.7v-2.54h-1.88Z"/>
            <path class="cls-1" d="M452.05,237.61h10.15c.08,0,.17,.01,.25,.03,.11,.02,.2,.06,.29,.1,.23,.11,.35,.32,.35,.63s-.12,.52-.35,.63c-.08,.04-.18,.08-.29,.1-.09,.02-.17,.03-.25,.03h-10.15v4.46h4.68c1.12,0,1.94,.2,2.45,.6,.61,.48,.92,1.32,.92,2.51v4.3c0,2.09-1.12,3.14-3.37,3.14h-12.66c-1.12,0-1.94-.21-2.45-.63-.59-.48-.89-1.32-.89-2.51v-4.3c0-2.07,1.11-3.11,3.34-3.11h4.52v-4.46h-9.45c0,1.83-.14,3.55-.41,5.15-.3,1.76-.75,3.4-1.37,4.92-.45,1.15-1.02,2.26-1.72,3.34-.74,1.19-1.3,1.78-1.69,1.78-.49,0-.73-.24-.73-.73,0-.07,.04-.21,.13-.43l.8-1.78c.04-.09,.07-.18,.1-.26,.08-.22,.16-.45,.22-.69,.21-.66,.39-1.4,.54-2.21,.21-1.04,.37-2.17,.48-3.4,.15-1.5,.22-3.08,.22-4.76v-11.53c0-2.09,1.12-3.14,3.37-3.14h19.24c1.93,0,2.89,.87,2.89,2.61v2.58c0,1.76-.97,2.64-2.89,2.64h-6.27v4.39Zm-12.88-5.91h17.3c.89,0,1.34-.46,1.34-1.39v-2.02c0-.93-.45-1.39-1.34-1.39h-15.84c-.98,0-1.46,.51-1.46,1.52v3.27Zm9.41,1.52h-9.41v4.39h9.41v-4.39Zm8.05,13.41c0-1.04-.5-1.55-1.49-1.55h-9.57c-.98,0-1.46,.52-1.46,1.55v4.43c0,1.03,.49,1.55,1.46,1.55h9.57c1,0,1.49-.52,1.49-1.55v-4.43Z"/>
            <path class="cls-1" d="M508.48,235.07c0-1.96,1.09-2.94,3.28-2.94h4.77c1.21,0,2.05,.24,2.51,.73,.4,.44,.6,1.15,.6,2.11v6.08c0,.97-.29,1.66-.86,2.08-.47,.35-1.15,.53-2.04,.53h-4.96c-.25,3.48-1.27,6.49-3.05,9.02l-.38,.53c-.15,.2-.29,.36-.41,.5-.32,.35-.59,.53-.83,.53-.47,0-.7-.25-.7-.76,0-.07,.03-.19,.1-.36l.64-1.39c.51-1.21,.87-2.63,1.08-4.26,.17-1.3,.25-2.79,.25-4.46v-7.93Zm10.97-9.28c.11,0,.2,.01,.29,.03,.11,0,.2,.02,.29,.07,.21,.13,.32,.34,.32,.63,0,.31-.12,.52-.35,.63-.08,.04-.18,.08-.29,.1-.08,.02-.17,.03-.25,.03h-11.32c-.11,0-.2-.01-.29-.03-.11,0-.2-.03-.29-.1-.21-.11-.32-.31-.32-.59,0-.31,.12-.52,.35-.63,.08-.04,.18-.08,.29-.1,.08-.02,.17-.03,.25-.03h11.32Zm-7.63,16.39h3.31c.95,0,1.43-.51,1.43-1.52v-5.52c0-.99-.48-1.49-1.43-1.49h-1.88c-.95,0-1.43,.5-1.43,1.49v7.04Zm17.65-5.12h-3.94v.89c0,.88-.02,1.71-.06,2.48-.08,1.1-.22,2.17-.41,3.2-.23,1.28-.56,2.49-.99,3.63-.47,1.3-1.06,2.5-1.78,3.6-.55,.88-1.23,1.72-2.04,2.51-.78,.77-1.33,1.16-1.62,1.16-.49,0-.73-.25-.73-.76,0-.07,.06-.2,.19-.4,.08-.18,.21-.37,.38-.59l.76-.99c1.08-1.61,1.85-3.52,2.32-5.75,.4-1.96,.6-4.37,.6-7.23v-9.38c0-.93,.27-1.6,.8-2.02,.4-.31,.99-.51,1.75-.59,1.46-.18,2.57-.32,3.31-.43,.95-.18,1.79-.39,2.51-.63l.25-.1s.07-.04,.16-.07l1.11-.43c.85-.33,1.39-.5,1.62-.5,1.08,0,1.62,.53,1.62,1.59,0,.7-.49,1.17-1.46,1.39-.55,.13-1.45,.28-2.7,.43-1.1,.13-2,.22-2.7,.26-1.27,.07-2.06,.16-2.35,.3-.36,.16-.54,.54-.54,1.16v5.75h9.57c.08,0,.17,.01,.25,.03,.11,.02,.2,.06,.29,.1,.23,.13,.35,.34,.35,.63s-.11,.5-.32,.63c-.08,.04-.18,.08-.29,.1-.09,.02-.18,.03-.29,.03h-2.26v15.89c0,.13-.01,.25-.03,.36-.04,.29-.11,.53-.19,.73-.25,.51-.74,.76-1.46,.76s-1.23-.26-1.46-.79c-.11-.18-.17-.41-.19-.69-.02-.11-.03-.23-.03-.36v-15.89Z"/>
          </g>
          <g>
            <g>
              <g>
                <path class="cls-1" d="M82.57,336.05c.41-4.53,1.88-8.12,4.39-10.75,2.52-2.63,5.82-3.95,9.91-3.95s7.36,1.29,9.83,3.86c2.47,2.57,3.7,6.07,3.7,10.5,0,4.93-1.49,8.48-4.47,10.66,4.01,1.9,6.01,6.05,6.01,12.43,0,4.93-1.45,8.86-4.36,11.8-2.9,2.94-6.64,4.41-11.22,4.41-4.27,0-7.92-1.54-10.95-4.62-3.03-3.08-4.55-6.89-4.55-11.42h7.94c0,2.46,.74,4.53,2.24,6.21,1.49,1.68,3.38,2.52,5.67,2.52s4.11-.92,5.47-2.77c1.36-1.85,2.04-4.09,2.04-6.72,0-2.18-.73-4.21-2.2-6.09-1.47-1.88-3.12-2.81-4.97-2.81-.21,0-.41,.03-.62,.08l-1.7,.17v-5.79h1c1.95,0,3.64-.74,5.05-2.23,1.41-1.48,2.12-3.32,2.12-5.5,0-5.21-2.15-7.81-6.44-7.81s-6.44,2.6-6.44,7.81h-7.48Z"/>
                <path class="cls-1" d="M123.82,330v-7.3h14.65v50.97h-7.94v-43.66h-6.71Z"/>
                <path class="cls-1" d="M166.53,348.14v7.73h-15.11v-7.73h15.11Z"/>
                <path class="cls-1" d="M207.39,357.38v6.63h-5.55v9.66h-7.32v-9.66h-21.28v-3.78l20.89-38.45h7.71v35.6h5.55Zm-12.88-23.51l-12.03,23.51h12.03v-23.51Z"/>
                <path class="cls-1" d="M224.96,330l-1.85,9.15,3.62-.17c4.47,0,8.11,1.72,10.91,5.16,2.8,3.44,4.2,7.63,4.2,12.55,0,5.49-1.57,9.91-4.7,13.27-3.14,3.36-7.25,5.04-12.34,5.04-5.65,0-10.28-2.24-13.88-6.72l2.31-7.39c2.98,4.53,6.63,6.8,10.95,6.8,2.67,0,4.95-1.02,6.82-3.06,1.88-2.04,2.81-4.81,2.81-8.31s-.98-6.23-2.93-8.19c-1.95-1.96-4.42-2.94-7.4-2.94s-5.42,1.12-7.32,3.36h-1.47l4.86-25.86h20.35v7.3h-14.96Z"/>
              </g>
              <path class="cls-1" d="M254.93,348.1h-3.55v-2.31h3.55v-8.33h2.05v8.33h3.55v2.31h-3.55v15.58c1.09-.82,2.05-1.54,2.87-2.16l1.23,1.7c-2,1.85-4.96,3.91-8.88,6.17l-1.23-1.85c1.55-.93,2.87-1.75,3.96-2.47v-16.96Zm6.01,13.57v-2.31h10.11v-18.51h-9.29v-2.31h19.94v2.31h-8.6v18.51h9.7v2.31h-9.7v11.26h-2.05v-11.26h-10.11Zm3.28-17.43c1.18,2.88,2.32,6.48,3.41,10.79l-2.05,.77c-1.09-4.63-2.18-8.17-3.28-10.64l1.91-.93Zm17.34,.62c-.64,3.19-1.82,6.94-3.55,11.26l-1.91-.77c1.82-4.63,3-8.38,3.55-11.26l1.91,.77Z"/>
            </g>
            <g>
              <path class="cls-1" d="M334.87,345.12h.76c.29,0,.54,.01,.76,.04,.56,.05,1.01,.17,1.35,.36,.9,.42,1.35,1.34,1.35,2.75v20.94c0,2.1-1.21,3.15-3.62,3.15h-7.92c-2.42,0-3.62-1.03-3.62-3.11v-20.98c0-1.38,.45-2.3,1.35-2.75,.34-.16,.78-.28,1.31-.36,.34-.03,.84-.04,1.47-.04v-5.45h-4.18c-.11,0-.23-.01-.36-.04s-.25-.07-.36-.12c-.27-.13-.4-.37-.4-.72,0-.37,.15-.62,.44-.76,.11-.05,.23-.09,.36-.12,.11-.03,.21-.04,.32-.04h15.49c.11,0,.21,.01,.32,.04,.13,.03,.25,.07,.36,.12,.29,.13,.44,.38,.44,.76,0,.35-.13,.58-.4,.72-.11,.08-.23,.12-.36,.12-.11,.03-.23,.04-.36,.04h-4.5v5.45Zm.24,13.54c-1.17,0-1.95-.21-2.35-.64-.35-.37-.52-1.08-.52-2.11v-8.96h-1.47v4.1c0,2.26-.33,4.29-.99,6.09-.61,1.62-1.19,2.43-1.75,2.43-.16,0-.31-.04-.44-.12-.08-.05-.17-.13-.28-.24v3.98h8.52v-4.54h-.72Zm-6.49-11.71c-.88,.05-1.31,.61-1.31,1.67v9.6c.5-.93,.86-2.1,1.08-3.5,.11-.53,.17-1.09,.2-1.67,.03-.48,.04-.96,.04-1.43v-4.66Zm-1.31,18.04v3.9c0,1.12,.56,1.67,1.67,1.67h5.18c1.12,0,1.67-.56,1.67-1.67v-3.9h-8.52Zm4.94-25.32h-1.47v5.45h1.47v-5.45Zm2.19,15.89c0,.85,.46,1.28,1.39,1.28v-8.2c0-1.09-.46-1.65-1.39-1.67v8.6Zm13.3,7.33v-.48c0-.19,.01-.35,.04-.48,.03-.37,.11-.69,.24-.96,.29-.64,.89-.95,1.79-.95,.13,0,.26,.01,.4,.04l.32,.08,1.04-1.23c.32-.42,.48-.7,.48-.84,0-.16-.07-.28-.2-.36-.05-.03-.12-.04-.2-.04h-9.44c-.13,0-.25-.01-.36-.04-.13-.03-.25-.07-.36-.12-.27-.13-.4-.38-.4-.76,0-.34,.13-.6,.4-.76,.11-.05,.22-.09,.36-.12,.11-.03,.23-.04,.36-.04h13.9c1.33,0,1.99,.45,1.99,1.35,0,.27-.08,.51-.24,.72l-.56,.52c-.48,.35-1.23,.84-2.27,1.47-1.17,.72-2.24,1.33-3.23,1.83,.03,.24,.04,.62,.04,1.16h6.57c.13,0,.25,.01,.36,.04,.13,0,.25,.03,.36,.08,.27,.16,.4,.41,.4,.76s-.13,.6-.4,.76c-.11,.05-.23,.09-.36,.12-.11,.03-.23,.04-.36,.04h-6.57v4.94c0,1.03-.24,1.79-.72,2.27-.56,.58-1.53,.87-2.91,.87h-4.9c-.11,0-.21-.01-.32-.04-.13-.03-.25-.07-.36-.12-.29-.13-.44-.39-.44-.76,0-.35,.13-.6,.4-.76,.19-.11,.42-.16,.72-.16h2.75c1.12,0,1.67-.54,1.67-1.63v-4.62h-6.77c-.11,0-.21-.01-.32-.04-.13-.03-.25-.07-.36-.12-.29-.13-.44-.38-.44-.76,0-.35,.13-.6,.4-.76,.11-.05,.23-.08,.36-.08,.11-.03,.23-.04,.36-.04h6.77Zm.24-22.06v-2.27c0-.88,.28-1.5,.84-1.87,.19-.11,.41-.2,.68-.28,.16-.03,.33-.04,.52-.04,.48,0,.89,.13,1.23,.4,.48,.37,.72,.92,.72,1.63v2.43h6.45c.13,0,.25,.01,.36,.04,.13,.03,.25,.07,.36,.12,.27,.16,.4,.41,.4,.76s-.13,.6-.4,.76c-.11,.05-.23,.09-.36,.12-.11,.03-.23,.04-.36,.04h-17.4c-.11,0-.21-.01-.32-.04-.13-.03-.25-.07-.36-.12-.29-.13-.44-.38-.44-.76,0-.35,.13-.6,.4-.76,.11-.05,.22-.09,.36-.12,.11-.03,.23-.04,.36-.04h6.97Zm9.72,9.87c0,1.09-.32,1.86-.96,2.31-.53,.37-1.34,.56-2.43,.56h-8.76c-2.28,0-3.42-.96-3.42-2.87v-2.71c0-1.91,1.14-2.87,3.42-2.87h8.76c2.26,0,3.38,.96,3.38,2.87v2.71Zm-3.86-2.23c0-1.01-.5-1.51-1.51-1.51h-4.78c-1.01,0-1.51,.51-1.51,1.51v1.75c0,1.01,.5,1.51,1.51,1.51h4.78c1.01,0,1.51-.5,1.51-1.51v-1.75Z"/>
              <path class="cls-1" d="M406.03,366.02c0,2.81-1.53,4.22-4.58,4.22h-25c-1.78,0-3.03-.42-3.74-1.28-.56-.64-.84-1.6-.84-2.91v-22.54c0-2.81,1.53-4.22,4.58-4.22h25c1.75,0,3,.42,3.74,1.27,.56,.66,.84,1.65,.84,2.95v22.5Zm-23.85-24.88h-4.02c-1.38,0-2.07,.69-2.07,2.07v23.13c0,1.41,.69,2.11,2.07,2.11h21.54c1.38,0,2.07-.7,2.07-2.11v-23.13c0-1.38-.69-2.07-2.07-2.07h-5.26v17.88c0,.9,.42,1.35,1.27,1.35,.56,0,.94-.13,1.15-.4,.32-.42,.6-1.37,.84-2.83,.24-1.75,.89-2.63,1.95-2.63,1.33,0,1.99,.57,1.99,1.71,0,1.03-.42,2.48-1.27,4.34-.32,.69-.78,1.14-1.39,1.35-.42,.16-1.13,.24-2.11,.24h-3.03c-2.39,0-3.58-1.05-3.58-3.15v-17.88h-3.82v7.41c0,1.59-.16,3.07-.48,4.42-.27,1.17-.66,2.26-1.19,3.27-.4,.8-.89,1.55-1.47,2.27l-1.12,1.24c-.08,.11-.19,.21-.32,.32-.69,.66-1.39,1.25-2.11,1.75-.77,.56-1.3,.84-1.59,.84-.61,0-.92-.31-.92-.92,0-.24,.17-.53,.52-.87,1.04-.9,1.88-1.95,2.55-3.15,.56-1.01,1-2.11,1.31-3.3,.24-.93,.4-1.91,.48-2.95l.08-1.2v-9.12Z"/>
              <path class="cls-1" d="M423.54,338.74c0-.64,.13-1.16,.4-1.55,.34-.53,.89-.8,1.63-.8,1.35,0,2.03,.78,2.03,2.35v7.25h2.95c.13,0,.25,.01,.36,.04,.13,.03,.25,.07,.36,.12,.26,.16,.4,.41,.4,.76,0,.37-.15,.62-.44,.76-.11,.05-.23,.09-.36,.12-.11,.03-.21,.04-.32,.04h-2.95v7.61c1.09-.56,1.96-1.03,2.63-1.43,.45-.24,.76-.36,.92-.36,.61,0,.92,.31,.92,.91,0,.19-.05,.36-.16,.52-.03,.05-.07,.11-.12,.16l-.12,.12c-.4,.35-1.01,.8-1.83,1.35l-1.67,1.12c-.24,.13-.42,.25-.56,.36v11.35c0,1.09-.23,1.87-.68,2.35-.53,.61-1.49,.91-2.87,.91h-4.46c-.16-.03-.29-.07-.4-.12-.16-.05-.28-.15-.36-.28-.11-.13-.16-.31-.16-.52s.05-.39,.16-.52c.08-.13,.2-.23,.36-.28,.11-.05,.24-.09,.4-.12h2.31c1.09,0,1.63-.54,1.63-1.63v-8.68l-.4,.24c-.16,.11-.32,.2-.48,.28l-1.16,.64c-.42,.24-.78,.41-1.08,.52-.34,.16-.58,.24-.72,.24-1.09,0-1.63-.61-1.63-1.83,0-.45,.12-.81,.36-1.08,.11-.11,.24-.2,.4-.28l4.7-1.99v-9.56h-3.98c-.11,0-.21-.01-.32-.04-.13-.03-.25-.07-.36-.12-.29-.13-.44-.39-.44-.76s.15-.62,.44-.76c.11-.05,.23-.09,.36-.12,.11-.03,.21-.04,.32-.04h3.98v-7.25Zm26.52,16.92h3.94c.11,0,.21,.01,.32,.04,.13,.03,.25,.07,.36,.12,.29,.16,.44,.41,.44,.76,0,.37-.15,.62-.44,.76-.11,.05-.23,.09-.36,.12-.11,.03-.21,.04-.32,.04h-3.94v13.22c0,1.59-.68,2.39-2.03,2.39s-2.07-.8-2.07-2.39v-13.22h-5.53c-.11,2.63-.65,5.03-1.63,7.21-.8,1.75-1.86,3.33-3.19,4.74-.53,.53-1.09,1.03-1.67,1.51-.5,.4-1,.74-1.47,1.03-.21,.13-.42,.25-.64,.36-.16,.11-.32,.19-.48,.24-.27,.13-.42,.2-.48,.2-.61,0-.92-.31-.92-.91,0-.19,.05-.36,.16-.52,.05-.11,.16-.23,.32-.36,2.04-1.86,3.52-3.91,4.42-6.17,.77-1.91,1.23-4.35,1.39-7.33h-4.02c-.13,0-.25-.01-.36-.04-.13-.03-.25-.07-.36-.12-.27-.16-.4-.41-.4-.76,0-.37,.13-.62,.4-.76,.11-.05,.23-.09,.36-.12,.11-.03,.23-.04,.36-.04h4.06v-8.6h-3.07c-.13,0-.25-.01-.36-.04-.13-.03-.25-.07-.36-.12-.27-.16-.4-.41-.4-.76,0-.37,.15-.62,.44-.76,.11-.05,.23-.09,.36-.12,.11-.03,.21-.04,.32-.04h20.07c.11,0,.21,.01,.32,.04,.13,.03,.25,.07,.36,.12,.29,.13,.44,.39,.44,.76s-.15,.62-.44,.76c-.11,.05-.23,.09-.36,.12-.11,.03-.21,.04-.32,.04h-3.23v8.6Zm-12.98-11.75c-.24-.24-.62-.96-1.15-2.15-.05-.13-.19-.39-.4-.76l-1.19-2.23c-.21-.35-.35-.58-.4-.72-.11-.16-.16-.33-.16-.52,0-.61,.3-.91,.92-.91,.13,0,.33,.08,.6,.24,.26,.16,.57,.36,.92,.6,.29,.21,.6,.45,.92,.72l.72,.56c1.11,.88,1.86,1.55,2.23,2.03,.32,.43,.48,.88,.48,1.35,0,1.49-.74,2.23-2.23,2.23-.58,0-.99-.15-1.23-.44Zm8.88,3.15h-5.49v8.6h5.49v-8.6Zm.24-4.1l.88-1.83c.16-.32,.25-.53,.28-.64,.05-.11,.13-.32,.24-.64l.52-1.43c.08-.16,.13-.3,.16-.44,.13-.32,.23-.52,.28-.6,.21-.34,.5-.6,.88-.76,.16-.05,.32-.08,.48-.08,.13-.03,.26-.04,.4-.04,1.54,0,2.31,.64,2.31,1.91,0,.43-.25,.99-.76,1.71-.45,.61-1.03,1.26-1.75,1.95-.66,.64-1.3,1.17-1.91,1.59-.61,.45-1.04,.68-1.27,.68-.32,0-.56-.11-.72-.32-.11-.16-.16-.34-.16-.56,0-.05,.05-.23,.16-.52Z"/>
            </g>
            <rect class="cls-1" x="285.12" y="353.7" width="35.91" height="1.52" transform="translate(-151.63 458.1) rotate(-62.31)"/>
          </g>
        </g>
      </g>
    </g>
  </g>
</svg>