<?xml version="1.0" encoding="UTF-8"?>
<svg id="_圖層_2" data-name="圖層 2" xmlns="http://www.w3.org/2000/svg" viewBox="0 0 16.41 3.34">
  <defs>
    <style>
      .cls-1 {
        fill: #fff;
      }
    </style>
  </defs>
  <g id="_圖層_1-2" data-name="圖層 1">
    <g>
      <path class="cls-1" d="M.81,.75h-.16s-.05-.02-.05-.05V.09s-.02-.05-.05-.05h-.09s-.05,.02-.05,.05V.7s-.02,.05-.05,.05H.05s-.05,.02-.05,.05,.02,.05,.05,.05h.22s0,0,0,0c-.02,.33-.06,.53-.11,.76-.05,.2-.08,.34-.16,.49,.12-.16,.26-.36,.33-.62l.06-.24V3.31s.01,0,.01,0c.02-.03,.07-.12,.13-.41,.03-.13,.04-.37,.06-.64,0-.25,0-.85,0-1.17v-.2s.06,.19,.06,.19c.06,.19,.11,.4,.13,.53,0,.03,.01,.05,.01,.06h.01c0-.36-.03-.64-.06-.78v-.04s.05,0,.05,0c.03,0,.05-.02,.05-.05H.87s-.02-.05-.05-.05Z"/>
      <path class="cls-1" d="M1.02,.47h.28s.06,.02,.06,.06v.2s.03,.06,.06,.06h.09s.06-.02,.06-.06v-.2s.03-.06,.06-.06h.53s.06,.02,.06,.06v.19s.03,.06,.06,.06h.09s.06-.02,.06-.06v-.19s.03-.06,.06-.06h.3s.06-.02,.06-.06-.03-.06-.06-.06h-.3s-.06-.02-.06-.06V.1s-.03-.06-.06-.06h-.09s-.06,.02-.06,.06v.21s-.03,.06-.06,.06h-.53s-.06-.02-.06-.06V.11s-.03-.06-.06-.06h-.09s-.06,.02-.06,.06v.2s-.03,.06-.06,.06h-.28s-.06,.02-.06,.06,.03,.06,.06,.06Z"/>
      <path class="cls-1" d="M2.86,2.71h-.8s-.05-.02-.05-.05v-.36s.02-.05,.05-.05h.69s.05-.02,.05-.05h0s-.02-.05-.05-.05h-.11s-.05-.02-.05-.05v-.4s.02-.05,.05-.05h.2s.05-.02,.05-.05v-.02s-.02-.05-.05-.05h-.2s-.05-.02-.05-.05v-.42s.02-.05,.05-.05h.11s.05-.02,.05-.05h0s-.02-.05-.05-.05H1.1s-.05,.02-.05,.05h0s.02,.05,.05,.05h.07s.05,.02,.05,.05v.42s-.02,.05-.05,.05h-.15s-.05,.02-.05,.05H.96s.02,.06,.05,.06h.15s.05,.02,.05,.05v.41s-.02,.05-.05,.05h-.09s-.05,.02-.05,.05,.02,.05,.05,.05h.66s.05,.02,.05,.05v.36s-.02,.05-.05,.05H.95s-.05,.02-.05,.05H.9s.02,.05,.05,.05h.79s.05,.02,.05,.05v.4s.02,.05,.05,.05h.1s.05-.02,.05-.05v-.4s.02-.05,.05-.05h.8s.05-.02,.05-.05h0s-.02-.05-.05-.05Zm-.86-1.64s.02-.05,.05-.05h.26s.05,.02,.05,.05v.42s-.02,.05-.05,.05h-.26s-.05-.02-.05-.05v-.42Zm0,.63s.02-.05,.05-.05h.26s.05,.02,.05,.05v.41s-.02,.05-.05,.05h-.26s-.05-.02-.05-.05v-.41Zm-.21,.41s-.02,.05-.05,.05h-.25s-.05-.02-.05-.05v-.4s.02-.05,.05-.05h.25s.05,.02,.05,.05v.4Zm0-.61s-.02,.05-.05,.05h-.25s-.05-.02-.05-.05v-.42s.02-.05,.05-.05h.25s.05,.02,.05,.05v.42Z"/>
    </g>
    <path class="cls-1" d="M7.34,2.77h-.62s-.05-.02-.05-.05v-.22s.02-.05,.05-.05h.52s.05-.02,.05-.05V1.22s-.02-.05-.05-.05h-.52s-.05-.02-.05-.05v-.18s.02-.05,.05-.05h.37s.05-.02,.05-.05h0s-.02-.06-.05-.06h-.37s-.05-.02-.05-.05v-.2s-.02-.05-.05-.05h-.1s-.05,.02-.05,.05v.2s-.02,.05-.05,.05h-.44s-.05,.02-.05,.05h0s.02,.05,.05,.05h.44s.05,.02,.05,.05v.18s-.02,.05-.05,.05h-.52s-.05,.02-.05,.05v1.17s.03,.05,.06,.05h.51s.05,.02,.05,.05v.22s-.02,.05-.05,.05h-.63s-.05,.02-.05,.05,.02,.05,.05,.05h.63s.05,.02,.05,.05v.37s.02,.05,.05,.05h.1s.05-.02,.05-.05v-.37s.02-.05,.05-.05h.62s.05-.02,.05-.05-.02-.05-.05-.05Zm-.68-1.42s.02-.05,.05-.05h.31s.05,.02,.05,.05v.34s-.02,.05-.05,.05h-.31s-.05-.02-.05-.05v-.34Zm0,.55s.02-.05,.05-.05h.31s.05,.02,.05,.05v.4s-.02,.05-.05,.05h-.31s-.05-.02-.05-.05v-.4Zm-.21,.39s-.02,.05-.05,.05h-.31s-.05-.02-.05-.05v-.38s.02-.05,.05-.05h.31s.05,.02,.05,.05v.38Zm0-.6s-.02,.05-.05,.05h-.31s-.05-.02-.05-.05v-.34s.02-.05,.05-.05h.31s.05,.02,.05,.05v.34Z"/>
    <path class="cls-1" d="M5.4,1.19h.08s.05-.02,.05-.05V.24s0,0,0,0c-.01,0-.06,.05-.12,.19-.02,.06-.05,.17-.06,.3,0,0,0,0,0,0,0,.19,0,.33,0,.41,0,.03,.02,.05,.05,.05Z"/>
    <path class="cls-1" d="M4.69,1.21h.08s.05-.02,.05-.05c0-.08,0-.22,0-.41,0,0,0,0,0,0-.01-.13-.04-.24-.06-.3-.06-.13-.11-.18-.12-.19h-.01s.01,.89,.01,.89c0,.03,.02,.05,.05,.05Z"/>
    <path class="cls-1" d="M5.86,.81c.02-.06,.05-.17,.06-.3,0,0,0,0,0,0,0-.05,0-.11,0-.15v-.04h1.22s.05,.02,.05,.05V.98s0,0,0,0c.01,0,.06-.05,.12-.19,.02-.06,.05-.17,.06-.3,0,0,0,0,0,0,0-.14,0-.26,0-.33,0-.03-.02-.05-.05-.05h-.09s-.05,.02-.05,.05v.02s-.02,.05-.05,.05h-1.22v-.04s0-.06,0-.08h-.14s-.05,.02-.05,.05V1s0,0,0,0c.01,0,.06-.05,.12-.19Z"/>
    <path class="cls-1" d="M5.41,2.49v-.09c0-.37,0-.83,0-.88v-.04h.12s.05-.02,.05-.05v-.02s-.02-.05-.05-.05h-.3s-.05-.02-.05-.05V.15s-.02-.05-.05-.05h-.08s-.05,.02-.05,.05V1.32s-.02,.05-.05,.05h-.32s-.05,.02-.05,.05h0s.02,.06,.05,.06h.14s.05,.02,.05,.05h0s0,0,0,0c0,0,0,.01,0,.02,0,.18-.02,.63-.06,.97-.04,.28-.21,.61-.29,.74h0s.15-.16,.26-.31c.17-.23,.22-.55,.23-1.41,0,0,0,0,0,0,0-.02,0-.03,0-.03v-.04s.22,0,.22,0c.03,0,.05,.02,.05,.05v1.2s0,.02-.01,.03l-.03,.03s-.03,.04-.03,.07v.17s.07,.07,.1,.03c.05-.06,.18-.29,.18-.29,.06-.11,.09-.19,.11-.25,.08-.19,.09-.33,.09-.36l-.23,.31Z"/>
    <path class="cls-1" d="M11.59,1.46V.92s.03-.06,.06-.06h.12s.07-.03,.07-.06-.03-.06-.07-.06h-.76s-.07-.03-.07-.06V.06s-.03-.06-.07-.06h-.09s-.07,.03-.07,.06V.68s-.03,.06-.07,.06h-.69s-.07,.03-.07,.06h0s.03,.06,.07,.06h.07s.07,.03,.07,.06v.47c0,1.18-.26,1.74-.3,1.88h.01c.07-.09,.32-.52,.41-.8,.1-.31,.12-1.28,.12-1.58v-.04h.32s.07,.03,.07,.06V3.28s.03,.06,.07,.06h.09s.07-.03,.07-.06V.92s.03-.06,.07-.06h.34v.04c0,.3,.02,1.31,.12,1.61,.09,.27,.34,.71,.41,.81h.01c-.05-.15-.3-.67-.3-1.86Z"/>
    <path class="cls-1" d="M9.56,1.53h-.09s-.07,.03-.07,.06c0,.18-.01,.61-.06,.95-.04,.29-.2,.64-.24,.77h0s.17-.15,.26-.31c.15-.25,.21-.5,.25-1.41,0-.04-.03-.07-.07-.07Z"/>
    <path class="cls-1" d="M9.36,.53s0,0,0,0c.06,.04,.12,.07,.19,.11,.05,.03,.1,0,.1-.05v-.13s-.01-.04-.03-.05l-.58-.35v.03s0,.09,.09,.23c.04,.05,.12,.13,.22,.21Z"/>
    <path class="cls-1" d="M9.65,1.03l-.61-.37v.03s0,.09,.09,.23c.04,.05,.12,.13,.22,.21,0,0,0,0,0,0,.08,.05,.16,.09,.23,.13,.05,.03,.1,0,.1-.05v-.14s-.01-.04-.03-.05Z"/>
    <path class="cls-1" d="M14.77,.23h-1.12s-.09,.04-.09,.08V3.1s.04,.08,.09,.08h.96s.16,0,.16,0c.05,0,.09-.04,.09-.08V.31s-.04-.08-.09-.08Zm-.45,.23s.04-.08,.09-.08h.14s.09,.04,.09,.08V1.61s-.04,.08-.09,.08h-.14s-.09-.04-.09-.08V.46Zm-.22,2.5s-.04,.08-.09,.08h-.16s-.09-.04-.09-.08V1.89s.04-.08,.09-.08h.16s.09,.04,.09,.08v1.06Zm0-1.35s-.04,.08-.09,.08h-.16s-.09-.04-.09-.08V.47s.04-.08,.09-.08h.16s.09,.04,.09,.08V1.61Zm.53,1.35s-.04,.08-.09,.08h-.14s-.09-.04-.09-.08V1.89s.04-.08,.09-.08h.14s.09,.04,.09,.08v1.06Z"/>
    <path class="cls-1" d="M15.99,2.26s.02-.03,.02-.05v-.09c0-.07-.09-.11-.15-.05-.05,.05-.12,.12-.2,.19-.19,.18-.58,.45-.68,.52h0c.06,0,.21-.01,.52-.16,.22-.11,.32-.18,.48-.35Z"/>
    <path class="cls-1" d="M15.31,1.63c.06,.11,.11,.2,.15,.24,.1,.1,.16,.11,.18,.11h.02s-.27-.78-.27-.78c-.01-.03-.05-.06-.08-.05h-.05c-.06,0-.09,.05-.08,.1,.03,.11,.07,.22,.13,.36,0,0,0,0,0,0Z"/>
    <path class="cls-1" d="M16.33,.47h-1.02s0-.05,0-.05c.02-.13,.03-.23,.04-.31,0-.05-.03-.09-.08-.09h-.08s-.09,.03-.09,.07c0,.11,0,.29-.02,.43-.02,.19-.11,.55-.14,.69h.03c.03-.05,.2-.28,.29-.6v-.02h.85s.09,.04,.09,.08v1.9s0,0,0,0c-.03,.35-.16,.55-.38,.55h-.42s-.09,.03-.09,.08c0,.04,.04,.08,.08,.08h.42c.16,0,.31-.07,.42-.21,.11-.14,.17-.32,.17-.51V.55s-.04-.08-.08-.08Z"/>
  </g>
</svg>