<?xml version="1.0" encoding="UTF-8"?>
<svg xmlns="http://www.w3.org/2000/svg" viewBox="0 0 56.67 2.6">
  <defs>
    <style>
      .cls-1 {
        mix-blend-mode: lighten;
        opacity: .4;
      }

      .cls-2 {
        isolation: isolate;
      }

      .cls-3 {
        fill: #192d78;
      }

      .cls-4 {
        fill: #339ace;
      }
    </style>
  </defs>
  <g class="cls-2">
    <g id="_圖層_2" data-name="圖層 2">
      <g id="_圖層_1-2" data-name="圖層 1">
        <g>
          <g class="cls-1">
            <g>
              <path class="cls-4" d="M0,1.42s0-.09,0-.13c.01,0,.02,0,.04,0s.03,0,.05,0c.02,0,.05,0,.08,0,.03,0,.05,0,.08,0,.05,0,.09,0,.12,.01,.03,0,.05,.02,.07,.03,.02,.02,.04,.04,.05,.06s.02,.05,.02,.08c0,.04,0,.07-.02,.1-.01,.03-.03,.05-.06,.07-.02,.02-.05,.03-.09,.04s-.07,.01-.11,.01h-.05c0,.05,0,.1,0,.15,0,.05,0,.1,0,.15-.01,0-.02,0-.04,0H.04s-.03,0-.04,0c0-.04,0-.08,0-.13,0-.04,0-.09,0-.15v-.14c0-.06,0-.11,0-.15Zm.3,0s-.01-.03-.02-.04c-.01-.01-.02-.02-.04-.02-.01,0-.03,0-.04,0h-.03s0,0,0,0c0,.05,0,.1,0,.14,0,.05,0,.09,0,.14,.02,0,.04,0,.05,0,.02,0,.04-.01,.05-.02s.03-.03,.04-.05c0-.02,.01-.05,.01-.08,0-.03,0-.05,0-.06Z"/>
              <path class="cls-4" d="M3.69,1.42s0-.09,0-.13c.01,0,.02,0,.04,0,.01,0,.03,0,.05,0s.03,0,.05,0,.03,0,.04,0c0,.04,0,.09,0,.13,0,.04,0,.09,0,.15v.14s0,.08,0,.11c0,.04,0,.07,0,.09,.04,0,.08,0,.12,0,.04,0,.08,0,.12-.01,0,0,0,.01,0,.02,0,0,0,.01,0,.03s0,.02,0,.03c0,0,0,.01,0,.02-.02,0-.04,0-.07,0-.03,0-.07,0-.11,0h-.17s-.03,0-.04,0c0,0-.01,0-.02,0,0-.04,0-.08,0-.13,0-.04,0-.09,0-.15v-.14c0-.06,0-.11,0-.15Z"/>
              <path class="cls-4" d="M7.87,1.98s-.03,0-.05,0h-.09s-.03,0-.04,0c-.01-.03-.02-.07-.03-.1s-.02-.07-.04-.1c-.02,0-.04,0-.07,0-.02,0-.04,0-.07,0-.02,0-.04,0-.05,0-.02,0-.04,0-.05,0-.01,.03-.03,.07-.04,.1-.01,.03-.02,.07-.03,.1,0,0-.02,0-.02,0h-.05s-.02,0-.03,0c0-.02,.02-.04,.03-.07,.01-.03,.03-.07,.05-.11,.02-.04,.03-.08,.05-.13,.02-.04,.04-.09,.06-.14,.02-.05,.04-.09,.06-.14,.02-.04,.04-.09,.05-.12,0,0,.01,0,.02,0s.01,0,.02,0,.01,0,.02,0c0,0,.01,0,.02,0,.02,.06,.05,.12,.07,.18,.03,.07,.05,.13,.08,.19,.03,.06,.05,.12,.08,.18s.05,.1,.07,.14Zm-.37-.5s-.04,.08-.05,.12-.03,.08-.05,.12h.19s-.03-.08-.05-.12c-.01-.04-.03-.08-.05-.12Z"/>
              <path class="cls-4" d="M11.11,1.4s0-.03,0-.04c-.01,0-.02,0-.04,0-.02,0-.03,0-.05,0-.02,0-.04,0-.05,0-.02,0-.03,0-.05,0,0,0,0-.01,0-.02,0,0,0-.01,0-.02s0-.01,0-.02c0,0,0-.01,0-.02,.02,0,.05,0,.06,0,.02,0,.04,0,.06,0,.02,0,.04,0,.06,0,.02,0,.05,0,.08,0s.06,0,.08,0c.02,0,.04,0,.06,0,.02,0,.04,0,.06,0,.02,0,.04,0,.06,0,0,0,0,.01,0,.02,0,0,0,.01,0,.02s0,.01,0,.02c0,0,0,.01,0,.02-.01,0-.03,0-.05,0-.02,0-.03,0-.05,0-.02,0-.03,0-.05,0-.02,0-.03,0-.04,0,0,0,0,0,0,.01,0,0,0,.01,0,.02v.31c0,.06,0,.11,0,.15,0,.04,0,.09,0,.13-.01,0-.02,0-.04,0h-.09s-.03,0-.04,0c0-.04,0-.08,0-.13s0-.09,0-.15v-.25s0-.04,0-.05Z"/>
              <path class="cls-4" d="M14.75,1.42s0-.09,0-.13c.01,0,.02,0,.04,0,.01,0,.03,0,.05,0s.03,0,.05,0,.03,0,.04,0c0,.04,0,.09,0,.13,0,.04,0,.09,0,.15v.14c0,.06,0,.11,0,.15,0,.04,0,.09,0,.13-.01,0-.02,0-.04,0h-.09s-.03,0-.04,0c0-.04,0-.08,0-.13,0-.04,0-.09,0-.15v-.14c0-.06,0-.11,0-.15Z"/>
              <path class="cls-4" d="M18.17,1.37s0-.06,0-.08c.02,0,.04,0,.05,0s.03,0,.05,0c.08,.08,.15,.16,.22,.24,.07,.08,.15,.16,.23,.24v-.19s0-.07,0-.1c0-.03,0-.06,0-.09,0-.03,0-.05,0-.07s0-.03,0-.04c.02,0,.04,0,.05,0s.03,0,.05,0c0,.06,0,.12,0,.17s0,.1,0,.14c0,.04,0,.09,0,.13,0,.04,0,.09,0,.14v.12s-.03,0-.04,0-.03,0-.04,0c-.14-.16-.3-.32-.46-.49,0,.02,0,.04,0,.06,0,.02,0,.04,0,.06v.12s0,.07,0,.1c0,.03,0,.05,0,.07,0,.02,0,.04,0,.05,0,.01,0,.02,0,.03,0,0-.02,0-.03,0h-.02s-.03,0-.05,0c0,0,0-.02,0-.06s0-.07,0-.12c0-.05,0-.1,0-.15,0-.06,0-.11,0-.16,0-.05,0-.09,0-.12Z"/>
              <path class="cls-4" d="M22,1.97s-.07-.02-.1-.05c-.03-.02-.05-.05-.07-.08s-.02-.07-.02-.12c0-.03,0-.05,0-.07,0-.02,0-.04,0-.06s0-.04,0-.05c0-.02,0-.03,0-.05,0-.05,0-.1,0-.13,0-.03,0-.06,0-.08,.01,0,.03,0,.04,0,.01,0,.03,0,.04,0s.03,0,.04,0c.01,0,.03,0,.04,0,0,.07-.01,.13-.01,.18,0,.06,0,.11,0,.17,0,.06,0,.11,.01,.15s.02,.07,.04,.09c.02,.02,.04,.03,.07,.04,.03,0,.06,.01,.09,.01,.04,0,.07-.01,.1-.03,.02-.02,.04-.05,.05-.08,.01-.03,.02-.07,.02-.12,0-.04,0-.09,0-.14s0-.09,0-.14c0-.05,0-.09,0-.14,0,0,.02,0,.03,0s.02,0,.03,0c0,0,.02,0,.03,0s.02,0,.03,0c0,.01,0,.03,0,.06,0,.02,0,.05,0,.09,0,.03,0,.07,0,.11s0,.08,0,.12c0,.12-.03,.2-.08,.25s-.13,.08-.23,.08c-.04,0-.09,0-.12-.01Z"/>
            </g>
            <path class="cls-4" d="M25.46,1.76c0,.08-.01,.15-.02,.23,0,0-.02,0-.03,0h-.05s-.02,0-.02,0c.02-.12,.04-.23,.06-.35s.03-.23,.05-.35c0,0,.01,0,.02,0,0,0,.01,0,.02,0,0,0,.01,0,.02,0s.01,0,.02,0c.02,.04,.04,.08,.06,.12,.02,.04,.04,.08,.06,.12s.04,.08,.06,.12c.02,.04,.04,.08,.06,.11,.04-.08,.08-.15,.12-.24,.04-.08,.08-.16,.12-.25,.02,0,.03,0,.04,0,.01,0,.03,0,.04,0,0,.06,.01,.12,.02,.19,0,.07,.02,.13,.02,.2,0,.06,.02,.12,.02,.18,0,.06,.01,.1,.02,.13-.01,0-.03,0-.04,0h-.09s-.03,0-.04,0c0-.07,0-.14-.02-.23,0-.08-.02-.16-.02-.24h0c-.04,.08-.08,.16-.12,.23-.04,.08-.08,.15-.11,.23,0,0,0,0,0,0,0,0,0,0,0,0s0,0,0,0c0,0,0,0,0,0-.04-.08-.08-.15-.11-.23-.04-.08-.08-.15-.12-.23h0c-.01,.08-.02,.15-.03,.23Z"/>
          </g>
          <g>
            <path class="cls-3" d="M23.94,2.46s-.09,.04-.15,.06c-.06,.02-.13,.03-.2,.05-.07,.01-.15,.02-.23,.02-.17,0-.33-.03-.48-.08-.15-.05-.27-.14-.38-.25-.11-.11-.19-.25-.25-.41-.06-.16-.09-.35-.09-.55s.03-.39,.09-.55c.06-.16,.14-.3,.25-.41,.11-.11,.24-.2,.39-.25,.15-.06,.32-.09,.5-.09,.14,0,.28,.02,.4,.05,.12,.03,.22,.07,.32,.12-.02,.03-.03,.08-.04,.14-.01,.06-.02,.11-.03,.15h-.02s-.05-.05-.09-.09c-.04-.04-.09-.07-.14-.11-.05-.03-.11-.06-.18-.09-.07-.02-.14-.03-.22-.03-.13,0-.25,.02-.36,.07-.11,.05-.21,.12-.29,.21-.08,.1-.15,.22-.19,.36-.05,.15-.07,.32-.07,.52s.02,.38,.07,.52c.05,.15,.11,.27,.19,.36,.08,.1,.18,.17,.29,.21,.11,.05,.23,.07,.36,.07,.08,0,.15-.01,.22-.03,.07-.02,.13-.05,.18-.08,.06-.03,.11-.06,.15-.1,.04-.04,.08-.07,.11-.09h.01s-.03,.23-.03,.23c-.02,.02-.05,.04-.09,.06Z"/>
            <path class="cls-3" d="M24.47,.75c.06-.16,.14-.3,.25-.41,.11-.11,.24-.2,.39-.25,.15-.06,.32-.09,.5-.09s.35,.03,.5,.09c.15,.06,.28,.14,.39,.25,.11,.11,.19,.25,.25,.41,.06,.16,.09,.35,.09,.55s-.03,.39-.09,.55c-.06,.16-.14,.3-.25,.41-.11,.11-.24,.19-.39,.25-.15,.05-.32,.08-.5,.08s-.34-.03-.5-.08c-.15-.05-.28-.14-.39-.25-.11-.11-.19-.25-.25-.41-.06-.16-.09-.35-.09-.55s.03-.39,.09-.55Zm1.98,.03c-.05-.15-.11-.27-.19-.36-.08-.1-.18-.17-.29-.21-.11-.05-.23-.07-.36-.07s-.25,.02-.36,.07c-.11,.05-.21,.12-.29,.21-.08,.1-.15,.22-.19,.36-.05,.15-.07,.32-.07,.52s.02,.38,.07,.52c.05,.15,.11,.27,.19,.36,.08,.1,.18,.17,.29,.21,.11,.05,.23,.07,.36,.07s.25-.02,.36-.07c.11-.05,.21-.12,.29-.21,.08-.1,.15-.22,.19-.36,.05-.15,.07-.32,.07-.52s-.02-.38-.07-.52Z"/>
            <path class="cls-3" d="M27.77,2.03c-.08-.2-.17-.41-.27-.64-.09-.22-.19-.45-.29-.68-.1-.23-.2-.45-.29-.66,.04,0,.07,0,.1,.01,.03,0,.06,0,.09,0s.06,0,.09,0c.03,0,.07,0,.1-.01,.06,.16,.12,.33,.18,.5,.07,.18,.14,.35,.21,.54,.07,.18,.15,.37,.23,.55,.08,.19,.16,.37,.24,.56,.05-.1,.09-.21,.15-.33,.05-.12,.11-.25,.16-.38,.05-.13,.11-.27,.16-.4,.05-.14,.1-.27,.15-.4,.05-.13,.09-.24,.13-.35,.04-.11,.07-.2,.1-.28,.06,.01,.1,.02,.14,.02s.08,0,.14-.02c-.2,.42-.39,.84-.57,1.26-.18,.42-.36,.83-.52,1.25-.04,0-.08,0-.13,0-.05,0-.09,0-.13,0-.06-.14-.13-.32-.21-.52Z"/>
            <path class="cls-3" d="M29.97,.51c0-.16-.02-.31-.03-.47,.15,0,.29,0,.43,.01,.14,0,.29,0,.43,0s.29,0,.43,0c.14,0,.29,0,.43-.01,0,.04-.01,.07-.01,.11s0,.07,.01,.11c-.1,0-.2,0-.28-.01-.09,0-.18,0-.27-.01-.1,0-.2,0-.31-.01-.11,0-.25,0-.41,0,0,.08,0,.15-.01,.22,0,.07,0,.15,0,.24,0,.09,0,.19,0,.28,0,.09,0,.16,0,.2,.14,0,.27,0,.38,0,.11,0,.22,0,.31,0s.18,0,.26-.01c.08,0,.15,0,.22-.01,0,.04-.01,.07-.01,.11,0,.04,0,.07,.01,.11-.08,0-.18-.01-.29-.02-.11,0-.22,0-.33,0-.11,0-.22,0-.31,0-.1,0-.18,0-.23,0,0,.02,0,.05,0,.07,0,.03,0,.06,0,.1v.36c0,.14,0,.25,0,.34,0,.09,0,.16,0,.2h.34c.12,0,.24,0,.36,0,.12,0,.23,0,.33-.01,.1,0,.2-.02,.27-.03,0,.02-.01,.04-.01,.06,0,.02,0,.04,0,.06,0,.04,0,.07,.01,.09-.15,0-.29,0-.43,0h-.88c-.15,0-.29,0-.44,0,0-.16,.02-.31,.03-.46,0-.15,.01-.31,.01-.47V.99c0-.16,0-.32-.01-.47Z"/>
            <path class="cls-3" d="M32.18,.52c0-.15-.02-.31-.02-.47,.08,0,.17,0,.25,.01,.08,0,.16,0,.25,0s.17,0,.25,0c.08,0,.16,0,.25,0,.12,0,.24,0,.34,.03,.11,.02,.2,.05,.29,.1,.08,.04,.15,.1,.19,.18,.05,.07,.07,.16,.07,.27,0,.12-.03,.22-.09,.3s-.14,.15-.23,.21c-.09,.05-.18,.1-.29,.13-.1,.03-.19,.05-.28,.06,.03,.04,.08,.09,.14,.15,.06,.07,.13,.14,.2,.22,.07,.08,.15,.16,.23,.25,.08,.09,.16,.17,.23,.25,.07,.08,.15,.15,.21,.22s.12,.12,.16,.15c-.04,0-.09,0-.13,0h-.25s-.08,0-.12,0c-.04-.05-.11-.13-.2-.23-.09-.1-.18-.21-.29-.33s-.21-.23-.33-.35c-.11-.12-.21-.21-.3-.29h-.16v.27c0,.16,0,.32,.01,.47,0,.16,.02,.31,.02,.46-.07,0-.14,0-.21,0s-.15,0-.21,0c0-.15,.02-.3,.02-.46,0-.16,.01-.31,.01-.47V.99c0-.16,0-.32-.01-.47Zm.5,.69s.1,0,.16,0c.09,0,.18,0,.28-.03,.1-.02,.18-.05,.27-.09,.08-.04,.15-.1,.2-.17,.05-.07,.08-.16,.08-.27,0-.09-.02-.17-.06-.23s-.1-.11-.16-.15c-.07-.04-.14-.06-.22-.07-.08-.01-.15-.02-.23-.02-.1,0-.18,0-.25,0-.07,0-.12,0-.17,.01,0,.13-.01,.27-.02,.4,0,.13,0,.26,0,.39v.21s.08,.01,.13,.01Z"/>
          </g>
          <g class="cls-1">
            <path class="cls-4" d="M30.83,1.72v.04c0,.06,0,.11,0,.15,0,.04,0,.09,0,.13-.01,0-.02,0-.04,0h-.09s-.03,0-.04,0c0-.04,0-.08,0-.13,0-.04,0-.09,0-.15v-.14c0-.06,0-.11,0-.15,0-.04,0-.09,0-.13,.01,0,.02,0,.04,0,.01,0,.03,0,.05,0,.02,0,.04,0,.06,0,.02,0,.05,0,.09,0,.03,0,.05,0,.07,0,.02,0,.03,0,.05,0,.01,0,.03,0,.04,.01s.02,0,.03,.02c.02,.01,.04,.03,.05,.06,.01,.02,.02,.05,.02,.08,0,.05-.01,.09-.04,.12-.03,.03-.07,.05-.12,.07,.03,.06,.07,.11,.11,.17s.08,.11,.11,.17c-.02,0-.03,0-.05,0h-.09s-.03,0-.05,0l-.19-.32h0Zm.16-.26s-.02-.03-.03-.04c-.01,0-.03-.01-.05-.02-.02,0-.05,0-.07,0,0,.09,0,.18,0,.28,0,0,0,0,.01,0,0,0,0,0,.01,0,.05,0,.08-.01,.11-.04,.02-.02,.04-.06,.04-.11,0-.03,0-.05,0-.07Z"/>
            <path class="cls-4" d="M34.05,1.47s0-.09,0-.13c.01,0,.02,0,.04,0,.01,0,.03,0,.05,0s.03,0,.05,0,.03,0,.04,0c0,.04,0,.09,0,.13,0,.04,0,.09,0,.15v.14c0,.06,0,.11,0,.15,0,.04,0,.09,0,.13-.01,0-.02,0-.04,0h-.09s-.03,0-.04,0c0-.04,0-.08,0-.13,0-.04,0-.09,0-.15v-.14c0-.06,0-.11,0-.15Z"/>
            <path class="cls-4" d="M37.45,1.59c.03-.09,.06-.17,.09-.25,.02,0,.03,0,.05,0s.03,0,.05,0c-.02,.04-.04,.09-.06,.14s-.05,.12-.08,.18-.05,.13-.08,.19c-.03,.06-.05,.13-.07,.18-.01,0-.03,0-.05,0s-.03,0-.05,0c-.01-.03-.02-.06-.04-.1-.01-.04-.03-.08-.05-.12-.02-.04-.03-.09-.05-.13-.02-.05-.04-.09-.05-.13s-.03-.08-.05-.12c-.02-.04-.03-.07-.04-.09,.02,0,.03,0,.05,0s.03,0,.05,0,.03,0,.05,0,.03,0,.05,0c.01,.04,.03,.08,.04,.12,.01,.04,.03,.08,.05,.13,.02,.04,.03,.09,.05,.13,.02,.04,.03,.09,.05,.13,.04-.09,.07-.17,.11-.26Z"/>
            <path class="cls-4" d="M40.29,1.47s0-.09,0-.13c.03,0,.06,0,.09,0,.03,0,.06,0,.09,0,.05,0,.1,0,.14,0s.07,0,.08,0c0,.01,0,.02,0,.04,0,.01,0,.02,0,.03,0,0,0,.01,0,.02-.02,0-.04,0-.07,0-.02,0-.05,0-.07,0-.02,0-.04,0-.06,0-.02,0-.03,0-.04,0,0,.04,0,.07,0,.11s0,.07,0,.11c.05,0,.09,0,.12,0,.04,0,.07,0,.11,0,0,.01,0,.02,0,.03,0,0,0,.01,0,.02,0,0,0,.01,0,.02,0,0,0,.01,0,.02-.08,0-.16,0-.24,0,0,.02,0,.04,0,.06s0,.04,0,.06c0,.04,0,.09,0,.13,.04,0,.08,0,.12,0s.08,0,.12-.01c0,0,0,.01,0,.02,0,0,0,.01,0,.03s0,.02,0,.03c0,0,0,.01,0,.02-.02,0-.04,0-.07,0-.03,0-.07,0-.11,0h-.17s-.03,0-.04,0c0,0-.01,0-.02,0,0-.04,0-.08,0-.13s0-.09,0-.15v-.14c0-.06,0-.11,0-.15Z"/>
            <path class="cls-4" d="M43.56,1.72v.04c0,.06,0,.11,0,.15,0,.04,0,.09,0,.13-.01,0-.02,0-.04,0h-.09s-.03,0-.04,0c0-.04,0-.08,0-.13,0-.04,0-.09,0-.15v-.14c0-.06,0-.11,0-.15,0-.04,0-.09,0-.13,.01,0,.02,0,.04,0,.01,0,.03,0,.05,0,.02,0,.04,0,.06,0,.02,0,.05,0,.09,0,.03,0,.05,0,.07,0,.02,0,.03,0,.05,0,.01,0,.03,0,.04,.01s.02,0,.03,.02c.02,.01,.04,.03,.05,.06,.01,.02,.02,.05,.02,.08,0,.05-.01,.09-.04,.12-.03,.03-.07,.05-.12,.07,.03,.06,.07,.11,.11,.17s.08,.11,.11,.17c-.02,0-.03,0-.05,0h-.09s-.03,0-.05,0l-.19-.32h0Zm.16-.26s-.02-.03-.03-.04c-.01,0-.03-.01-.05-.02-.02,0-.05,0-.07,0,0,.09,0,.18,0,.28,0,0,0,0,.01,0,0,0,0,0,.01,0,.05,0,.08-.01,.11-.04,.02-.02,.04-.06,.04-.11,0-.03,0-.05,0-.07Z"/>
            <path class="cls-4" d="M46.6,1.47s0-.09,0-.13c.01,0,.02,0,.04,0,.01,0,.03,0,.05,0,.03,0,.06,0,.09,0,.03,0,.06,0,.09,0s.06,0,.09,0,.05,.02,.07,.03c.02,.01,.03,.03,.04,.05,.01,.02,.02,.04,.02,.07s0,.05-.02,.07-.03,.04-.04,.05c-.02,.01-.04,.02-.06,.03-.02,0-.04,.01-.05,.02h0s.03,0,.06,.01c.02,0,.04,.02,.06,.03,.02,.01,.04,.03,.05,.05,.01,.02,.02,.05,.02,.08,0,.04,0,.07-.02,.09-.01,.03-.03,.05-.05,.06-.02,.02-.05,.03-.08,.03s-.06,0-.09,0c-.03,0-.05,0-.08,0-.02,0-.05,0-.08,0h-.06s-.04,0-.05,0c0-.04,0-.08,0-.13,0-.04,0-.09,0-.15v-.14c0-.06,0-.11,0-.15Zm.32,0s-.01-.03-.02-.04c0-.01-.02-.02-.03-.03s-.03,0-.05,0c-.02,0-.03,0-.03,0,0,0-.01,0-.02,0,0,.02,0,.05,0,.08,0,.03,0,.05,0,.06s0,.04,0,.05c0,.02,0,.03,0,.05h.05s.03,0,.04,0,.03-.01,.04-.02c.01-.01,.02-.02,.03-.04s.01-.04,.01-.06c0-.02,0-.03,0-.05Zm-.02,.27s-.05-.03-.1-.03c0,0-.02,0-.03,0,0,0-.01,0-.02,0,0,.01,0,.03,0,.04,0,.02,0,.03,0,.05,0,.02,0,.03,0,.05,0,.02,0,.03,0,.05s0,.03,0,.04c0,.01,0,.02,0,.03,0,0,.02,0,.03,0,0,0,.02,0,.03,0,.02,0,.03,0,.04,0,.01,0,.03-.01,.04-.03,.01-.01,.02-.03,.03-.04s0-.04,0-.06c0-.05-.01-.08-.03-.11Z"/>
            <path class="cls-4" d="M50.36,2.03s-.03,0-.05,0h-.09s-.03,0-.04,0c-.01-.03-.02-.07-.03-.1s-.02-.07-.04-.1c-.02,0-.04,0-.07,0-.02,0-.04,0-.07,0-.02,0-.04,0-.05,0-.02,0-.04,0-.05,0-.01,.03-.03,.07-.04,.1-.01,.03-.02,.07-.03,.1,0,0-.02,0-.02,0h-.05s-.02,0-.03,0c0-.02,.02-.04,.03-.07,.01-.03,.03-.07,.05-.11,.02-.04,.03-.08,.05-.13,.02-.04,.04-.09,.06-.14,.02-.05,.04-.09,.06-.14,.02-.04,.04-.09,.05-.12,0,0,.01,0,.02,0s.01,0,.02,0,.01,0,.02,0c0,0,.01,0,.02,0,.02,.06,.05,.12,.07,.18,.03,.07,.05,.13,.08,.19,.03,.06,.05,.12,.08,.18s.05,.1,.07,.14Zm-.37-.5s-.04,.08-.05,.12-.03,.08-.05,.12h.19s-.03-.08-.05-.12c-.01-.04-.03-.08-.05-.12Z"/>
            <path class="cls-4" d="M52.9,1.42s0-.06,0-.08c.02,0,.04,0,.05,0s.03,0,.05,0c.08,.08,.15,.16,.22,.24,.07,.08,.15,.16,.23,.24v-.19s0-.07,0-.1c0-.03,0-.06,0-.09,0-.03,0-.05,0-.07s0-.03,0-.04c.02,0,.04,0,.05,0s.03,0,.05,0c0,.06,0,.12,0,.17s0,.1,0,.14c0,.04,0,.09,0,.13,0,.04,0,.09,0,.14v.12s-.03,0-.04,0-.03,0-.04,0c-.14-.16-.3-.32-.46-.49,0,.02,0,.04,0,.06,0,.02,0,.04,0,.06v.12s0,.07,0,.1c0,.03,0,.05,0,.07,0,.02,0,.04,0,.05,0,.01,0,.02,0,.03,0,0-.02,0-.03,0h-.02s-.03,0-.05,0c0,0,0-.02,0-.06s0-.07,0-.12c0-.05,0-.1,0-.15,0-.06,0-.11,0-.16,0-.05,0-.09,0-.12Z"/>
            <path class="cls-4" d="M56.27,1.91c0,.05,0,.09,0,.13-.01,0-.02,0-.04,0h-.09s-.03,0-.04,0c0-.04,0-.08,0-.13,0-.04,0-.09,0-.15v-.14c0-.06,0-.11,0-.15,0-.04,0-.09,0-.13,.01,0,.02,0,.04,0s.03,0,.05,0,.03,0,.05,0,.03,0,.04,0c0,.02,0,.05,0,.09s0,.09,0,.13v.1s.05-.06,.08-.09c.03-.03,.05-.06,.08-.09,.03-.03,.05-.06,.07-.08,.02-.03,.03-.04,.04-.06,0,0,.02,0,.03,0,0,0,.02,0,.03,0s.02,0,.03,0,.02,0,.03,0c-.01,.01-.03,.03-.05,.06-.02,.03-.05,.05-.08,.08s-.05,.06-.08,.09c-.03,.03-.04,.05-.06,.07,.02,.03,.05,.07,.07,.11,.03,.04,.05,.08,.08,.12,.03,.04,.05,.07,.07,.11,.02,.03,.04,.06,.06,.07-.02,0-.04,0-.05,0h-.09s-.03,0-.05,0c-.04-.05-.07-.1-.1-.16-.03-.05-.07-.11-.1-.16h0c0,.07,0,.14,0,.19Z"/>
          </g>
        </g>
      </g>
    </g>
  </g>
</svg>