<?xml version="1.0" encoding="UTF-8"?>
<svg id="_圖層_2" data-name="圖層 2" xmlns="http://www.w3.org/2000/svg" viewBox="0 0 40.26 2.24">
  <defs>
    <style>
      .cls-1 {
        fill: #fff;
      }
    </style>
  </defs>
  <g id="_圖層_1-2" data-name="圖層 1">
    <g>
      <path class="cls-1" d="M2.06,1.91c0,.17-.09,.26-.28,.26H.28c-.11,0-.18-.03-.23-.08-.03-.04-.05-.1-.05-.18V.35C0,.17,.09,.09,.28,.09H1.79c.11,0,.18,.03,.23,.08,.03,.04,.05,.1,.05,.18V1.91ZM1.81,.33c0-.09-.04-.13-.13-.13H.38c-.08,0-.13,.04-.13,.13V1.93c0,.08,.04,.13,.13,.13H1.68c.08,0,.13-.04,.13-.13V.33ZM.98,1.46s.05,.02,.05,.05c0,.02,0,.03-.02,.04h-.03s-.1,.04-.18,.06c-.06,.01-.12,.03-.2,.05-.06,.01-.11,.02-.16,.03h-.07c-.06,.01-.09-.02-.09-.08,0-.04,.01-.06,.04-.08,0,0,.02,0,.03-.01h.03c.08,0,.17-.01,.27-.02l.14-.02,.16-.02h.02ZM.39,.67s-.01,0-.02,0c0,0-.02,0-.02,0-.02,0-.03-.02-.03-.05s0-.04,.03-.05c0,0,.01,0,.02,0,0,0,.01,0,.02,0h.68s0-.06,0-.11v-.06s0-.03,0-.04c.01-.05,.05-.08,.11-.08,.08,0,.12,.04,.12,.12v.16h.37s.01,0,.02,0c0,0,.02,0,.02,0,.02,0,.03,.02,.03,.05,0,.02,0,.04-.03,.05,0,0-.01,0-.02,0,0,0-.01,0-.02,0h-.37v.05s0,.04,0,.06c0,.05,0,.09,.01,.14,0,.06,.01,.11,.02,.17,.01,.06,.02,.13,.04,.19,.04-.08,.08-.18,.12-.31,0-.03,.02-.05,.03-.06,.02-.02,.05-.03,.08-.03,.09,0,.13,.04,.13,.11,0,.11-.1,.29-.3,.53v.02s.02,.02,.02,.03c0,.02,.02,.04,.03,.06,.02,.04,.05,.07,.06,.07,.03,0,.05-.03,.06-.1,0-.05,.04-.07,.08-.07,.06,0,.1,.03,.1,.08,0,0,0,.02-.01,.06-.01,.04-.03,.08-.05,.11-.02,.05-.05,.08-.08,.11-.04,.03-.07,.05-.12,.05-.09,0-.18-.08-.26-.24-.08,.07-.17,.14-.27,.2-.09,.06-.14,.09-.17,.09-.04,0-.06-.02-.06-.06,0-.02,.01-.04,.03-.05,.15-.09,.28-.21,.39-.35-.03-.08-.05-.17-.07-.26-.02-.08-.03-.16-.04-.24,0-.07-.02-.14-.02-.21v-.16H.39Zm.61,.54c0,.09-.06,.14-.17,.14h-.26c-.11,0-.17-.05-.17-.14v-.23c0-.09,.06-.14,.17-.14h.26c.11,0,.17,.05,.17,.14v.23Zm-.18-.18c0-.05-.03-.08-.08-.08h-.07c-.05,0-.08,.03-.08,.08v.14c0,.05,.03,.08,.08,.08h.07c.05,0,.08-.03,.08-.08v-.14ZM1.49,.45s0-.01-.02-.02l-.07-.09s0-.01,0-.03c0-.04,.02-.06,.06-.06,0,0,.02,0,.03,0l.05,.02,.08,.05c.06,.04,.08,.07,.08,.11,0,.07-.03,.1-.1,.1-.03,0-.07-.03-.11-.09Z"/>
      <path class="cls-1" d="M5.53,2.1s0,.02,0,.02c0,.02,0,.04-.01,.05-.02,.04-.05,.06-.1,.06s-.09-.02-.11-.06c0-.01-.01-.03-.01-.05,0,0,0-.01,0-.02V.28c0-.13,.07-.19,.22-.19h.36c.1,0,.15,.04,.15,.13,0,0,0,.02,0,.03,0,.01,0,.02,0,.03l-.26,.57s0,.02,0,.02c0,0,0,0,0,0,0,0,0,.01,.01,.02,.03,.04,.06,.08,.09,.12,.03,.05,.06,.1,.08,.15,.03,.06,.05,.12,.06,.17,.02,.07,.02,.13,.02,.2,0,.07-.01,.13-.03,.17-.02,.04-.04,.07-.08,.09-.03,.02-.06,.03-.09,.03h-.04s-.16,0-.16,0c0,0-.01,0-.02,0,0,0-.02,0-.02,0-.02,0-.03-.02-.03-.04,0-.02,0-.04,.03-.05,0,0,.01,0,.02,0,0,0,.01,0,.02,0h.06c.07,0,.11-.07,.11-.21,0-.13-.02-.24-.07-.35-.02-.04-.04-.08-.07-.13l-.07-.1s-.03-.05-.03-.07c0,0,0-.02,0-.04l.19-.59s-.02-.04-.05-.04h-.09c-.07,0-.1,.03-.1,.1v1.8Zm.36,0s.01-.04,.04-.06c.07-.06,.14-.13,.19-.22,.02-.03,.04-.06,.06-.1l.04-.07s.06-.07,.11-.07c.09,0,.14,.04,.14,.12,0,.03-.02,.07-.07,.12-.04,.05-.09,.1-.16,.15-.06,.05-.12,.09-.17,.13-.06,.04-.09,.06-.11,.06-.04,0-.06-.02-.06-.06ZM6.64,.19s.05,0,.07,.02c0-.03-.01-.06-.01-.07,0-.08,.04-.11,.13-.11,.07,0,.11,.03,.12,.09,0,0,0,.01,0,.02v.09s.04-.03,.07-.03h.27c.09,0,.14,.03,.14,.1,0,.03-.04,.1-.12,.19-.03,.04-.07,.07-.1,.12l-.09,.1c.05,.09,.11,.16,.17,.22,.02,.02,.05,.05,.08,.07l.09,.08s0,.02,0,.03c0,.04-.02,.05-.06,.05,0,0-.02,0-.04-.01-.02,0-.04-.02-.07-.04-.05-.03-.1-.07-.15-.11-.06-.06-.12-.12-.18-.18-.04-.06-.08-.12-.12-.18-.03-.05-.05-.11-.08-.16,0-.02-.02-.05-.03-.07l-.02-.06c-.04,.11-.1,.23-.18,.34-.07,.09-.15,.18-.24,.26-.17,.16-.28,.23-.33,.23-.04,0-.05-.02-.05-.06,0-.02,.01-.04,.04-.06,.05-.03,.09-.07,.13-.11l.07-.07s0,0,0,0h0s-.05-.04-.08-.1l-.04-.06s-.02-.03-.02-.04c0-.01,0-.02,0-.03-.04,.04-.07,.06-.08,.06-.04,0-.06-.02-.06-.06,0,0,0-.02,.01-.03,0-.01,.02-.03,.03-.04l.05-.07c.04-.07,.08-.14,.1-.2,.02-.04,.04-.11,.06-.2v-.03s.02-.02,.03-.03c.02-.02,.05-.03,.09-.03,.09,0,.14,.04,.14,.11,0,.01,0,.03-.02,.06h.25Zm.23,1.83c0,.07-.01,.11-.04,.14-.03,.04-.09,.06-.17,.06h-.28s-.02,0-.02,0-.01,0-.02-.02c0,0,0-.02,0-.03s0-.02,0-.03c0,0,.01-.01,.02-.02,0,0,.01,0,.02,0h.14c.07,0,.1-.03,.1-.1v-.56h-.48s-.01,0-.02,0c0,0-.02,0-.02,0-.02,0-.03-.02-.03-.04,0-.02,0-.04,.03-.05,0,0,.01,0,.02,0,0,0,.01,0,.02,0h1.25s.01,0,.02,0c0,0,.02,0,.02,0,.02,0,.03,.02,.03,.05,0,.02,0,.04-.03,.04,0,0-.01,0-.02,0,0,0-.01,0-.02,0h-.51v.57Zm-.55-1.33s.03-.04,.04-.07c0,0-.02,0-.04-.01,0,0,0,0-.01-.01l-.08-.11s-.02-.02-.02-.03c-.03,.04-.07,.09-.13,.14,.02,0,.06,.02,.11,.06,.05,.03,.08,.06,.1,.08l.03-.04Zm0-.4s-.03,.05-.07,.1c0,0,.02,0,.03,0,.01,0,.03,.01,.05,.02,.04,.02,.07,.04,.09,.06,.02-.04,.03-.08,.04-.11,0-.03,.01-.04,.01-.05,0,0,0-.01,0-.02,0,0-.02-.01-.03-.01h-.12Zm.04,.79s-.01,0-.02,0c0,0-.02,0-.02,0-.02,0-.02-.02-.02-.04,0-.02,0-.04,.03-.05,0,0,.01,0,.02,0,0,0,.01,0,.02,0h.72s.01,0,.02,0c0,0,.02,0,.02,0,.02,0,.03,.02,.03,.05,0,.02,0,.04-.03,.05,0,0-.01,0-.02,0,0,0-.01,0-.02,0h-.72Zm.67-.79s-.03,0-.03,0c0,0-.01,0-.02,0,.02,.09,.04,.18,.08,.27,.04-.06,.07-.11,.09-.16,.02-.03,.03-.05,.03-.06,0-.02-.01-.03-.04-.03h-.11Zm.28,1.82c-.05,0-.09-.03-.12-.1-.03-.06-.05-.12-.08-.18l-.1-.16s-.01-.03-.01-.04c0-.04,.02-.06,.06-.06,0,0,.02,0,.03,0,.01,0,.02,.02,.04,.03l.07,.06,.09,.08s.06,.06,.08,.08c.06,.06,.09,.11,.09,.15,0,.09-.05,.14-.14,.14Z"/>
      <path class="cls-1" d="M10.78,.66s-.02,0-.02,0c0,0-.02,0-.02,0-.02,0-.02-.02-.02-.04,0-.02,0-.04,.03-.05,0,0,.01,0,.02,0,0,0,.01,0,.02,0h.65c.07,0,.12,.02,.15,.05,.02,.03,.04,.06,.04,.09,0,.03,0,.07-.02,.12-.01,.07-.03,.14-.06,.21-.03,.09-.07,.18-.11,.26-.05,.1-.11,.19-.17,.27-.05,.07-.11,.13-.17,.19-.05,.05-.1,.1-.15,.14-.1,.08-.16,.12-.18,.12-.04,0-.06-.02-.06-.06,0-.02,.01-.04,.03-.06,.12-.09,.22-.21,.31-.34,.07-.11,.13-.23,.19-.36,.02-.05,.04-.11,.06-.16,.01-.05,.02-.1,.03-.14,0-.04,.01-.07,.02-.11,0-.03,0-.05,0-.06,0-.03-.02-.05-.06-.05h-.5Zm1.17,1.34c0,.08-.02,.14-.07,.18-.04,.03-.1,.04-.18,.04h-.33s-.02,0-.02,0c0,0-.02,0-.02-.01,0,0,0-.02,0-.03s0-.02,0-.03c0,0,.01-.01,.02-.02,0,0,.01,0,.02,0h.2c.08,0,.12-.04,.12-.13V.15s0-.02,0-.02c0-.02,0-.04,.01-.06,.02-.04,.06-.07,.11-.07s.09,.02,.11,.07c0,.02,.01,.03,.01,.06,0,0,0,.02,0,.02v.24c.03,.11,.05,.2,.07,.28,0,.03,.02,.06,.04,.1l.03,.07s0,.02,0,.02c.07-.05,.15-.11,.22-.18,.08-.08,.15-.15,.21-.23,.05-.06,.09-.1,.14-.1,.04,0,.07,.02,.11,.05,.03,.03,.05,.07,.05,.11,0,.03-.01,.05-.03,.08-.03,.03-.09,.08-.19,.14-.08,.05-.16,.1-.22,.14l-.22,.12c.19,.38,.44,.68,.77,.91,.02,.01,.04,.03,.04,.05,0,.04-.02,.06-.05,.06,0,0-.03-.01-.07-.03-.04-.02-.08-.05-.14-.08-.06-.04-.11-.08-.17-.12-.06-.05-.12-.1-.17-.14-.05-.05-.1-.1-.15-.16-.04-.05-.08-.1-.12-.15-.03-.04-.06-.08-.08-.13l-.03-.05s-.02-.03-.02-.04v.91Z"/>
      <path class="cls-1" d="M16.39,1.02c0-.09,.02-.15,.07-.18,.04-.03,.1-.04,.19-.04h1.72s.02,0,.02,0c0,0,.02,0,.02,0,.02,0,.02,.02,.02,.05,0,.02,0,.04-.03,.05,0,0-.01,0-.02,0,0,0-.01,0-.02,0h-1.6c-.08,0-.11,.04-.11,.11v.22c0,.18-.02,.32-.05,.45-.03,.11-.08,.22-.15,.32-.03,.04-.07,.09-.11,.13-.05,.05-.08,.08-.1,.08-.04,0-.06-.02-.06-.06,0,0,0-.01,0-.03l.07-.09c.05-.09,.09-.21,.11-.35,0-.06,.01-.12,.02-.19,0-.05,0-.11,0-.18v-.31Zm.82-.87s0-.02,0-.02c0-.02,0-.04,.01-.06,.02-.05,.06-.07,.11-.07s.09,.02,.12,.07c0,.02,.01,.03,.01,.06,0,0,0,.01,0,.02v.37h.41c.07,0,.1-.04,.1-.11V.24s0-.08,.02-.11c.02-.03,.06-.05,.11-.05s.09,.02,.11,.05c.02,.03,.03,.06,.03,.11v.18c0,.14-.08,.21-.24,.21h-1.33c-.16,0-.24-.07-.24-.21V.22s0-.02,0-.02c0-.02,0-.04,.01-.06,.02-.04,.06-.06,.11-.06s.09,.02,.12,.06c0,.01,.01,.03,.01,.05,0,0,0,.02,0,.02v.2c0,.07,.03,.11,.1,.11h.41V.15Zm.42,1.44h.73s.02,0,.02,0c0,0,.02,0,.02,0,.02,0,.02,.02,.02,.05s0,.04-.03,.05c0,0-.01,0-.02,0,0,0-.01,0-.02,0h-.73v.39s0,.02,0,.03c0,.02,0,.04-.01,.06-.02,.05-.06,.07-.11,.07s-.09-.02-.11-.07c0-.02-.01-.04-.01-.06,0,0,0-.02,0-.03v-.39h-.61s-.02,0-.02,0c0,0-.02,0-.02,0-.02,0-.02-.02-.02-.05,0-.02,0-.04,.03-.05,0,0,.01,0,.02,0,0,0,.01,0,.02,0h.61v-.38h-.48s-.01,0-.02,0c0,0-.02,0-.02,0-.02,0-.03-.02-.03-.05s0-.04,.03-.05c0,0,.01,0,.02,0,0,0,.01,0,.02,0h1.24s.02,0,.02,0c0,0,.02,0,.02,0,.02,0,.02,.02,.02,.05,0,.02,0,.04-.03,.05,0,0-.01,0-.02,0,0,0-.01,0-.02,0h-.5v.38Z"/>
      <path class="cls-1" d="M23.12,.56h-.15l-.04,.04s-.03,.03-.05,.04c-.02,.01-.03,.03-.05,.03-.02,0-.03,.01-.04,.01-.04,0-.06-.02-.06-.06,0,0,0-.02,.01-.03l.06-.1s.04-.07,.05-.11c.01-.03,.02-.06,.03-.07,.02-.02,.05-.04,.08-.04,.03,0,.06,0,.09,.03,.03,.02,.05,.05,.05,.07,0,.01,0,.03-.01,.04l-.02,.03h.5s0-.09,0-.09c0-.06-.03-.09-.09-.09h-1.46c-.06,0-.09,.03-.09,.09v.05h.65s.01,0,.02,0c0,0,.02,0,.02,0,.02,0,.02,.02,.02,.05,0,.02,0,.03-.02,.04,0,0-.01,0-.02,0,0,0-.01,0-.02,0h-.23v.15h.17s.01,0,.02,0c0,0,.02,0,.02,0,.02,0,.02,.02,.02,.04s0,.03-.02,.04c0,0-.01,0-.02,0,0,0-.01,0-.02,0h-.17v.16l.19-.02h.05s.06,.02,.06,.05c0,.02,0,.03-.02,.04h-.02s-.02,.01-.02,.01c-.36,.09-.62,.13-.77,.13-.04,0-.07-.01-.08-.04,0,0,0-.02-.01-.03,0,0,0-.02,0-.03,0-.04,.02-.06,.05-.08,0,0,.02,0,.05,0,.03,0,.06,0,.11,0,.03,0,.07,0,.12,0,0,0,.01,0,.02,0h.05v-.18h-.19s-.01,0-.02,0c0,0-.02,0-.02,0-.02,0-.02-.02-.02-.04s0-.03,.02-.04c0,0,.01,0,.02,0,0,0,.01,0,.02,0h.19v-.15h-.21s-.03,.05-.07,.06c0,0-.02,0-.03,0h-.03s0,0-.01,0c-.02,0-.03,0-.04-.01-.04-.02-.06-.06-.06-.12v-.17s.02-.04,.03-.06c.03-.04,.09-.06,.17-.06h.74v-.04s.02-.08,.05-.1c.02-.02,.05-.03,.09-.03s.06,0,.09,.03c.03,.02,.04,.05,.04,.1v.04h.74c.06,0,.1,0,.13,.03,.05,.03,.07,.08,.07,.16v.11c0,.05-.02,.09-.05,.11-.02,.01-.05,.02-.08,.02h-.04s-.02-.01-.03-.02c0,0-.02-.01-.03-.02,0,0,0,0,0,0,0,0-.01,0-.02,0h-.21v.14h.36s.01,0,.02,0c0,0,.02,0,.02,0,.02,0,.02,.02,.02,.04s0,.03-.02,.04c0,0-.01,0-.02,0,0,0-.01,0-.02,0h-.36v.22h.11s.06-.02,.06-.06v-.04s0-.02,0-.03c0-.01,0-.02,.01-.03,.02-.02,.04-.04,.07-.04,.06,0,.09,.03,.09,.1v.07c0,.09-.05,.14-.16,.14h-.61c-.1,0-.16-.05-.16-.14v-.07c0-.06,.03-.09,.09-.09s.09,.03,.09,.09v.04s.02,.06,.06,.06h.11v-.22h-.4s-.02,0-.02,0c-.02,0-.02-.02-.02-.04s0-.04,.02-.04c0,0,.01,0,.02,0h.4v-.14Zm-.6,1.4s.01,.02,.02,.02c0,.01,0,.03,0,.04,0,.03-.02,.06-.06,.08-.04,.02-.12,.04-.24,.07-.09,.02-.19,.03-.28,.05s-.16,.02-.19,.02c-.04,0-.06-.02-.06-.06,0-.03,.04-.05,.12-.07,.1-.03,.19-.05,.25-.07,.05-.02,.1-.04,.18-.08h-.08c-.15,0-.22-.06-.22-.19v-.39c0-.13,.07-.19,.22-.19h1.15c.08,0,.14,.02,.18,.05,.03,.03,.04,.07,.04,.14v.39c0,.13-.07,.19-.22,.19h-.07c.15,.07,.31,.13,.47,.17,.04,0,.06,.03,.06,.05,0,.04-.02,.06-.06,.06-.02,0-.05,0-.1,0-.04,0-.09-.01-.14-.02l-.14-.02s-.06-.01-.07-.01c-.11-.02-.19-.05-.23-.07-.03-.02-.05-.04-.05-.07,0,0,0-.02,0-.03,0-.01,.01-.03,.02-.04h-.5Zm.77-.55s0-.08-.01-.09c0-.02-.04-.02-.08-.02h-.9s-.07,0-.08,.02c0,.01-.01,.04-.01,.09h1.08Zm-1.08,.1v.12h1.08v-.12h-1.08Zm0,.22c0,.05,0,.09,.01,.1,0,.02,.04,.02,.08,.02h.9s.07,0,.08-.02c0-.01,.01-.05,.01-.1h-1.08Z"/>
      <path class="cls-1" d="M27.79,.8c-.07,0-.1,.03-.1,.1v.26c0,.07,0,.14,0,.2,0,.08-.02,.15-.03,.21-.03,.16-.09,.29-.16,.41-.04,.07-.09,.13-.15,.18-.05,.05-.09,.07-.11,.07-.04,0-.06-.02-.06-.06,0-.01,0-.03,.03-.05,.03-.04,.06-.08,.08-.12,.03-.05,.05-.09,.07-.15,.05-.12,.08-.27,.09-.44h-.1s0,.08-.01,.12c0,.05-.02,.09-.03,.13-.03,.1-.08,.18-.15,.24,0,0-.01,0-.02,.01,0,0-.02,0-.03,0-.04,0-.05-.02-.05-.06,0,0,0-.01,0-.02l.02-.03c.06-.09,.09-.23,.09-.4h-.04s-.02,0-.02,0c0,0-.02,0-.02,0-.02,0-.02-.02-.02-.05s0-.04,.02-.05c0,0,.01,0,.02,0,0,0,.01,0,.02,0h.33v-.21h-.15c-.12,0-.18-.05-.18-.16v-.24s0-.01,0-.02c0-.02,0-.03,0-.04,.02-.03,.05-.05,.09-.05,.07,0,.1,.04,.1,.12v.19c0,.06,.03,.08,.08,.08h.05v-.11c0-.13,.07-.19,.22-.19h.85v-.15c-.11,.02-.16-.03-.16-.14v-.06h-.45v.07c0,.1-.04,.14-.13,.14s-.13-.05-.13-.14v-.07h-.54s-.02,0-.02,0c0,0-.02,0-.02,0-.02,0-.02-.02-.02-.05,0-.02,0-.04,.03-.05,0,0,.01,0,.02,0,0,0,.01,0,.02,0h.54v-.07c0-.1,.04-.15,.13-.15s.13,.05,.13,.15v.07h.45v-.07c0-.1,.04-.15,.13-.15s.13,.05,.13,.15v.07h.59s.01,0,.02,0c0,0,.02,0,.02,0,.02,0,.02,.02,.03,.05,0,.02,0,.04-.03,.05,0,0-.01,0-.02,0,0,0-.01,0-.02,0h-.59v.06s0,.02,0,.03v.03c.05,0,.09,0,.11,.04,0,.01,.01,.03,.02,.05,0,0,0,.01,0,.02v.13h.24s-.06-.05-.1-.11c-.01-.02-.02-.04-.04-.06l-.03-.04s-.01-.01-.01-.01c-.01-.01-.02-.03-.02-.04,0-.04,.02-.06,.06-.06,0,0,.02,0,.03,0,.01,0,.02,.01,.04,.02l.08,.04c.1,.06,.15,.12,.15,.16,0,.05-.03,.08-.08,.1h.1s.02,0,.02,0c0,0,.02,0,.02,0,.02,0,.02,.02,.02,.05,0,.02,0,.04-.03,.05,0,0-.01,0-.02,0,0,0-.01,0-.02,0h-.41c0,.22,.02,.43,.05,.62,.04-.1,.08-.23,.12-.38,.02-.07,.06-.1,.13-.1,.09,0,.14,.04,.14,.12,0,.04-.02,.11-.07,.21-.03,.06-.06,.12-.1,.19-.04,.08-.09,.15-.15,.23,.06,.2,.12,.29,.17,.29,.02,0,.05-.05,.06-.14,0-.05,.04-.08,.09-.08,.07,0,.1,.03,.1,.09,0,.02,0,.05-.02,.09-.01,.05-.03,.09-.05,.13-.02,.05-.05,.09-.08,.12-.04,.03-.08,.05-.12,.05-.07,0-.14-.05-.21-.14-.02-.03-.05-.07-.07-.12,0-.02-.02-.04-.03-.05l-.02-.05c-.05,.05-.11,.11-.16,.15-.05,.04-.1,.08-.14,.11-.04,.03-.08,.05-.11,.07-.03,.01-.05,.02-.06,.02-.04,0-.06-.02-.06-.05,0-.02,.01-.04,.04-.05,.05-.03,.1-.07,.15-.11,.04-.04,.08-.07,.12-.12,.03-.03,.06-.07,.09-.11,.02-.03,.04-.06,.07-.09-.05-.16-.08-.3-.09-.44,0-.07-.01-.14-.02-.22,0-.07,0-.15,0-.25h-.73Zm.68,.71c0,.05-.02,.09-.06,.11-.01,0-.03,.01-.06,.01-.01,0-.04,0-.07,0v.19h.14s.02,0,.02,0c.02,0,.03,.02,.03,.05s0,.04-.03,.05c0,0-.01,0-.02,0,0,0-.01,0-.02,0h-.44c-.13,0-.2-.06-.2-.17v-.63c0-.11,.07-.17,.2-.17h.44s.01,0,.02,0c0,0,.02,0,.02,0,.02,0,.02,.02,.02,.05s0,.04-.02,.04c0,0-.01,0-.02,0,0,0-.01,0-.02,0h-.12v.18s.06,0,.07,0c.02,0,.04,0,.06,.01,.04,.02,.06,.05,.06,.11v.14Zm-.37-.26v-.18h-.05c-.06,0-.09,.03-.09,.09v.09h.14Zm-.14,.11v.17h.27s.04-.01,.04-.04v-.08s-.01-.04-.04-.04h-.27Zm0,.28v.1c0,.06,.03,.09,.09,.09h.05v-.19h-.14Z"/>
      <path class="cls-1" d="M33.95,.98h.77s.01,0,.02,0c0,0,.02,0,.02,0,.02,0,.03,.02,.03,.05s0,.04-.03,.05c0,0-.01,0-.02,0,0,0-.01,0-.02,0h-.77v.33h.35c.09,0,.15,.01,.19,.04,.05,.04,.07,.1,.07,.18v.31c0,.15-.09,.23-.26,.23h-.96c-.09,0-.15-.02-.19-.05-.05-.04-.07-.1-.07-.18v-.31c0-.15,.08-.23,.25-.23h.34v-.33h-.72c0,.13-.01,.26-.03,.38-.02,.13-.06,.25-.1,.36-.03,.08-.08,.16-.13,.24-.06,.09-.1,.13-.13,.13-.04,0-.06-.02-.06-.05,0,0,0-.02,0-.03l.06-.13s0-.01,0-.02c0-.02,.01-.03,.02-.05,.02-.05,.03-.1,.04-.16,.02-.08,.03-.16,.04-.25,.01-.11,.02-.23,.02-.35V.32c0-.15,.09-.23,.26-.23h1.46c.15,0,.22,.06,.22,.19v.19c0,.13-.07,.19-.22,.19h-.48v.32Zm-.98-.43h1.31c.07,0,.1-.03,.1-.1v-.15c0-.07-.03-.1-.1-.1h-1.2c-.07,0-.11,.04-.11,.11v.24Zm.71,.11h-.71v.32h.71v-.32Zm.61,.98c0-.08-.04-.11-.11-.11h-.73c-.07,0-.11,.04-.11,.11v.32c0,.08,.04,.11,.11,.11h.73c.08,0,.11-.04,.11-.11v-.32Z"/>
      <path class="cls-1" d="M38.17,.79c0-.14,.08-.21,.25-.21h.36c.09,0,.16,.02,.19,.05,.03,.03,.05,.08,.05,.15v.44c0,.07-.02,.12-.07,.15-.04,.03-.09,.04-.15,.04h-.38c-.02,.25-.1,.47-.23,.66l-.03,.04s-.02,.03-.03,.04c-.02,.03-.05,.04-.06,.04-.04,0-.05-.02-.05-.06,0,0,0-.01,0-.03l.05-.1c.04-.09,.07-.19,.08-.31,.01-.09,.02-.2,.02-.33V.79Zm.83-.68s.02,0,.02,0c0,0,.02,0,.02,0,.02,0,.02,.02,.02,.05,0,.02,0,.04-.03,.05,0,0-.01,0-.02,0,0,0-.01,0-.02,0h-.86s-.02,0-.02,0c0,0-.02,0-.02,0-.02,0-.02-.02-.02-.04,0-.02,0-.04,.03-.05,0,0,.01,0,.02,0,0,0,.01,0,.02,0h.86Zm-.58,1.2h.25c.07,0,.11-.04,.11-.11v-.4c0-.07-.04-.11-.11-.11h-.14c-.07,0-.11,.04-.11,.11v.51Zm1.34-.37h-.3v.07c0,.06,0,.12,0,.18,0,.08-.02,.16-.03,.23-.02,.09-.04,.18-.07,.27-.04,.09-.08,.18-.14,.26-.04,.06-.09,.13-.15,.18-.06,.06-.1,.08-.12,.08-.04,0-.06-.02-.06-.06,0,0,0-.01,.01-.03,0-.01,.02-.03,.03-.04l.06-.07c.08-.12,.14-.26,.18-.42,.03-.14,.05-.32,.05-.53V.38c0-.07,.02-.12,.06-.15,.03-.02,.07-.04,.13-.04,.11-.01,.19-.02,.25-.03,.07-.01,.14-.03,.19-.05h.02s0-.01,.01-.01l.08-.03c.06-.02,.11-.04,.12-.04,.08,0,.12,.04,.12,.12,0,.05-.04,.09-.11,.1-.04,0-.11,.02-.21,.03-.08,0-.15,.02-.21,.02-.1,0-.16,.01-.18,.02-.03,.01-.04,.04-.04,.08v.42h.73s.01,0,.02,0c0,0,.02,0,.02,0,.02,0,.03,.02,.03,.05s0,.04-.02,.05c0,0-.01,0-.02,0,0,0-.01,0-.02,0h-.17v1.16s0,.02,0,.03c0,.02,0,.04-.01,.05-.02,.04-.06,.06-.11,.06s-.09-.02-.11-.06c0-.01-.01-.03-.01-.05,0,0,0-.02,0-.03V.94Z"/>
    </g>
  </g>
</svg>