<?xml version="1.0" encoding="UTF-8"?>
<svg id="_圖層_2" data-name="圖層 2" xmlns="http://www.w3.org/2000/svg" viewBox="0 0 26.84 2.63">
  <defs>
    <style>
      .cls-1 {
        fill: #231815;
      }

      .cls-2 {
        fill: #727171;
      }
    </style>
  </defs>
  <g id="_圖層_1-2" data-name="圖層 1">
    <g>
      <g>
        <path class="cls-2" d="M4.48,0c.64,0,.88,.65,.88,1.25,0,.57-.24,1.26-.88,1.26s-.89-.64-.89-1.25c0-.57,.24-1.26,.89-1.26Zm0,.14c-.4,0-.5,.57-.5,1.11s.12,1.13,.5,1.13,.49-.58,.49-1.12-.11-1.12-.49-1.12Z"/>
        <path class="cls-2" d="M7.44,1.95c-.06,.17-.13,.37-.17,.52h-1.61v-.09c.24-.21,.49-.44,.7-.66,.27-.29,.53-.6,.53-.94s-.19-.51-.5-.51c-.29,0-.48,.21-.59,.36l-.1-.08,.24-.31c.13-.14,.34-.23,.59-.23,.41,0,.73,.25,.73,.67,0,.33-.13,.56-.54,.94-.18,.17-.45,.41-.64,.57h.82c.23,0,.3-.02,.44-.26l.11,.03Z"/>
        <path class="cls-2" d="M8.78,1.7h-.98l.03-.24h.98l-.03,.24Z"/>
        <path class="cls-1" d="M10.09,0c.41,0,.7,.26,.7,.57,0,.12-.04,.23-.12,.31-.04,.04-.17,.12-.35,.25,.3,.15,.59,.33,.59,.67,0,.45-.45,.7-.86,.7-.47,0-.83-.25-.83-.64,0-.2,.09-.31,.2-.38,.07-.05,.24-.16,.38-.24-.28-.15-.47-.33-.47-.61,0-.34,.3-.64,.77-.64Zm0,2.38c.29,0,.46-.17,.46-.45,0-.31-.29-.46-.63-.61-.23,.12-.36,.3-.36,.53,0,.36,.25,.54,.53,.54Zm-.06-2.25c-.26,0-.39,.18-.39,.4,0,.28,.21,.39,.54,.55,.17-.12,.28-.25,.28-.48,0-.33-.21-.47-.44-.47Z"/>
        <path class="cls-1" d="M13.01,1.95c-.06,.17-.13,.37-.17,.52h-1.61v-.09c.24-.21,.49-.44,.7-.66,.27-.29,.53-.6,.53-.94s-.19-.51-.5-.51c-.29,0-.48,.21-.59,.36l-.1-.08,.24-.31c.13-.14,.34-.23,.59-.23,.41,0,.73,.25,.73,.67,0,.33-.13,.56-.54,.94-.18,.17-.45,.41-.64,.57h.82c.23,0,.3-.02,.44-.26l.11,.03Z"/>
        <path class="cls-1" d="M14.21,0c.64,0,.88,.65,.88,1.25,0,.57-.24,1.26-.88,1.26s-.89-.64-.89-1.25c0-.57,.24-1.26,.89-1.26Zm0,.14c-.4,0-.5,.57-.5,1.11s.12,1.13,.5,1.13,.49-.58,.49-1.12-.11-1.12-.49-1.12Z"/>
        <path class="cls-1" d="M16.72,1.34l-.29,.13c-.09,.04-.18,.06-.26,.06-.46,0-.77-.32-.77-.73,0-.38,.32-.8,.88-.8s.86,.44,.86,.97c0,.71-.5,1.25-1.08,1.45-.18,.06-.4,.09-.51,.1l-.03-.11c.61-.1,1.06-.47,1.2-1.07Zm-.49-1.2c-.33,0-.45,.29-.45,.56,0,.34,.21,.62,.57,.62,.15,0,.3-.05,.38-.11,.01-.09,.02-.18,.02-.25,0-.35-.11-.82-.52-.82Z"/>
        <path class="cls-2" d="M18.5,1.7h-.98l.03-.24h.98l-.03,.24Z"/>
        <path class="cls-1" d="M19.82,0c.41,0,.7,.26,.7,.57,0,.12-.04,.23-.12,.31-.04,.04-.17,.12-.35,.25,.3,.15,.59,.33,.59,.67,0,.45-.45,.7-.86,.7-.47,0-.83-.25-.83-.64,0-.2,.09-.31,.2-.38,.07-.05,.24-.16,.38-.24-.28-.15-.47-.33-.47-.61,0-.34,.3-.64,.77-.64Zm0,2.38c.29,0,.46-.17,.46-.45,0-.31-.29-.46-.63-.61-.23,.12-.36,.3-.36,.53,0,.36,.25,.54,.53,.54Zm-.06-2.25c-.26,0-.39,.18-.39,.4,0,.28,.21,.39,.54,.55,.17-.12,.28-.25,.28-.48,0-.33-.21-.47-.44-.47Z"/>
        <path class="cls-1" d="M21.89,0c.41,0,.7,.26,.7,.57,0,.12-.04,.23-.12,.31-.04,.04-.17,.12-.35,.25,.29,.15,.59,.33,.59,.67,0,.45-.45,.7-.86,.7-.47,0-.83-.25-.83-.64,0-.2,.09-.31,.2-.38,.07-.05,.24-.16,.38-.24-.28-.15-.47-.33-.47-.61,0-.34,.3-.64,.77-.64Zm0,2.38c.29,0,.46-.17,.46-.45,0-.31-.29-.46-.63-.61-.23,.12-.36,.3-.36,.53,0,.36,.25,.54,.53,.54Zm-.06-2.25c-.26,0-.39,.18-.39,.4,0,.28,.21,.39,.54,.55,.17-.12,.28-.25,.28-.48,0-.33-.21-.47-.44-.47Z"/>
        <path class="cls-1" d="M23.96,0c.41,0,.7,.26,.7,.57,0,.12-.04,.23-.12,.31-.04,.04-.17,.12-.35,.25,.3,.15,.59,.33,.59,.67,0,.45-.45,.7-.86,.7-.47,0-.83-.25-.83-.64,0-.2,.09-.31,.2-.38,.07-.05,.24-.16,.38-.24-.28-.15-.47-.33-.47-.61,0-.34,.3-.64,.77-.64Zm0,2.38c.29,0,.46-.17,.46-.45,0-.31-.29-.46-.63-.61-.23,.12-.36,.3-.36,.53,0,.36,.25,.54,.53,.54Zm-.06-2.25c-.26,0-.39,.18-.39,.4,0,.28,.21,.39,.54,.55,.17-.12,.28-.25,.28-.48,0-.33-.21-.47-.44-.47Z"/>
        <path class="cls-1" d="M26.04,0c.41,0,.7,.26,.7,.57,0,.12-.04,.23-.12,.31-.04,.04-.17,.12-.35,.25,.3,.15,.59,.33,.59,.67,0,.45-.45,.7-.86,.7-.47,0-.83-.25-.83-.64,0-.2,.09-.31,.2-.38,.07-.05,.24-.16,.38-.24-.28-.15-.47-.33-.47-.61,0-.34,.3-.64,.77-.64Zm0,2.38c.29,0,.46-.17,.46-.45,0-.31-.29-.46-.63-.61-.23,.12-.36,.3-.36,.53,0,.36,.25,.54,.53,.54Zm-.06-2.25c-.26,0-.39,.18-.39,.4,0,.28,.21,.39,.54,.55,.17-.12,.28-.25,.28-.48,0-.33-.21-.47-.44-.47Z"/>
      </g>
      <g>
        <path class="cls-1" d="M.33,.6s-.03-.01-.05-.03c-.02-.02-.04-.04-.06-.06-.03-.03-.07-.05-.1-.08l-.04-.03s0,0,0-.01c0-.02,.01-.02,.03-.02,0,0,.01,0,.03,0,.01,0,.03,0,.04,.02,.03,.01,.06,.02,.09,.04,.04-.03,.06-.06,.08-.08,.02-.02,.03-.03,.03-.04H.38s0,0,0,0c0,0,0,0-.02,0H.07s0,0-.01,0c0,0,0,0-.01,0-.01,0-.02-.01-.02-.02s0-.02,.01-.02c0,0,0,0,.01,0,0,0,0,0,.01,0H.49s.05,0,.06,.02c0,0,0,0,0,.01,0,0,0,0,0,.01,0,.01,0,.03-.02,.04-.02,.01-.04,.03-.08,.06-.03,.02-.07,.05-.11,.07,.06,.03,.08,.05,.08,.07,0,0,0,0,0,.01,0,0,0,.01,0,.02-.01,.01-.03,.02-.05,.03h.16c.05,0,.08,.02,.08,.05,0,.01-.01,.03-.04,.06l-.04,.04-.04,.03s-.03,.03-.04,.03c0,0-.01,0-.02,0-.02,0-.03,0-.03-.02,0,0,0-.01,0-.02l.02-.03s0,0,0,0c0-.02,.02-.03,.02-.04,0-.01,0-.02,0-.03,0,0,0,0,0-.01h0s-.09,0-.09,0v.45s0,.05-.02,.06c-.02,.02-.05,.03-.1,.03H.07s-.01,0-.01,0c0,0,0,0-.01,0,0,0,0,0,0-.01s0-.01,0-.01c0,0,0,0,.01,0,0,0,0,0,.01,0h.07s.06-.01,.06-.04v-.45H.04s0,0-.01,0c0,0,0,0-.01,0-.01,0-.02-.01-.02-.02,0,0,0-.02,.01-.02,0,0,0,0,.01,0,0,0,0,0,.01,0H.33Zm.51,.42s.02,.02,.02,.04c0,.02-.02,.03-.05,.05-.03,.01-.06,.03-.11,.04-.09,.03-.15,.04-.17,.04-.02,0-.03,0-.03-.02,0,0,0-.02,.03-.03,.04-.02,.08-.04,.11-.06,.01,0,.02-.02,.04-.03l.04-.03s.04-.03,.06-.03c.02,0,.04,0,.06,.02Zm.28-.6c.05,0,.09,0,.11,.03,.01,.01,.02,.03,.02,.06v.39s0,.05-.02,.06c-.02,.02-.06,.03-.11,.03h-.35c-.05,0-.09,0-.11-.03-.01-.01-.02-.03-.02-.06v-.39s.02-.06,.05-.08c.02,0,.05-.01,.1-.01,.02-.04,.04-.07,.05-.11h-.2s0,0-.01,0c0,0,0,0-.01,0,0,0-.01-.01-.01-.02,0,0,0-.02,.02-.02,0,0,0,0,.01,0,0,0,0,0,.01,0h.61s0,0,.01,0c0,0,0,0,.01,0,.01,0,.02,.01,.02,.02,0,0,0,.02-.02,.02,0,0,0,0-.01,0,0,0,0,0-.01,0h-.25s-.03,.04-.06,.07l-.04,.04h.21Zm-.02,.17v-.08s-.02-.05-.06-.05h-.19s-.06,.02-.06,.05v.08h.31Zm-.31,.05v.12h.31v-.12h-.31Zm0,.17v.08s.02,.05,.06,.05h.18s.06-.02,.06-.05v-.08h-.31Zm.29,.31c-.06-.03-.08-.05-.08-.07,0-.04,.03-.05,.07-.05,.02,0,.03,0,.04,.01,.01,0,.03,.03,.06,.06,.02,.02,.03,.03,.05,.04l.04,.03s0,0,0,0h.02s0,.02,0,.02,0,0,0,.01c0,.02-.01,.02-.03,.02-.03,0-.09-.02-.19-.07Z"/>
        <path class="cls-1" d="M1.65,.76s0,0-.02,0l-.15,.02h-.02s-.05-.01-.05-.05c0-.02,0-.03,.03-.04,0,0,.02,0,.04,0,0,0,.02,0,.03,0h.03s.09-.08,.13-.11c-.02,0-.03,0-.04-.02-.03-.03-.05-.05-.07-.08-.03-.03-.05-.05-.08-.07-.03-.02-.04-.03-.04-.04,0-.02,.01-.03,.03-.03,0,0,.01,0,.02,0h.03s.06,.04,.06,.04c.03-.03,.06-.07,.08-.12,.02-.04,.05-.06,.08-.06,.02,0,.04,0,.05,.01,.02,0,.03,.02,.03,.04,0,.01-.02,.04-.06,.07-.02,.02-.05,.04-.07,.06l-.05,.04s.06,.04,.07,.04c.01,0,.02,.02,.02,.02,.03-.04,.06-.07,.09-.1,.02-.02,.04-.03,.07-.03,.06,0,.09,.02,.09,.06,0,0,0,.02-.02,.03-.02,.02-.05,.04-.09,.08-.07,.06-.14,.11-.21,.16,.05,0,.09,0,.12,0h.09s0,0,.01,0l-.02-.03s0-.01-.01-.02c0,0,0-.01,0-.01,0-.02,.01-.02,.03-.02,0,0,.01,0,.02,0,0,0,.01,0,.02,.01l.04,.03,.06,.05s.03,.04,.03,.05c0,.04-.03,.05-.08,.05-.03,0-.05,0-.06-.03l-.02-.05-.11,.02v.4s0,0,0,0c0,0,0,.02,0,.02-.01,.02-.03,.03-.06,.03s-.05,0-.06-.03c0,0,0-.01,0-.02,0,0,0,0,0-.01v-.38Zm-.24,.36s0,0,0-.01l.02-.06c.02-.06,.03-.12,.03-.17,0-.04,.02-.06,.07-.06,.02,0,.03,0,.05,.01,.02,0,.03,.02,.03,.03,0,.03-.02,.09-.06,.16-.02,.03-.04,.06-.06,.08-.02,.02-.04,.04-.05,.04-.02,0-.03,0-.03-.02Zm.45-.26s0,0,0,0c0,0,0-.02,0-.02,0-.02,.01-.02,.03-.02,0,0,0,0,0,0,0,0,0,0,.01,0,0,0,.02,.02,.04,.05,.02,.03,.04,.05,.06,.08,.01,.02,.02,.03,.03,.04,0,.01,.01,.03,.01,.03,0,.02,0,.03-.03,.04-.02,0-.03,.01-.06,.01-.04,0-.06-.03-.07-.08,0-.02,0-.05-.01-.07,0-.02-.01-.04-.02-.06h0Zm.71-.44s.02,0,.02,0c.02,0,.03,0,.05,.01,.04,.01,.06,.04,.06,.09,0,.09,0,.19-.01,.29,0,.06,0,.11-.01,.15,0,.05-.01,.08-.02,.1-.02,.05-.05,.08-.1,.1-.02,0-.04,0-.06,.01h-.03s-.21,0-.21,0c0,0,0,0-.01,0,0,0,0,0-.01,0-.01,0-.02,0-.02-.02,0,0,0-.01,0-.01,0,0,0,0,.01,0,0,0,0,0,.01,0h.11s.03,0,.04,0c.02,0,.03,0,.04,0,.03,0,.05-.03,.06-.06,.01-.02,.02-.06,.03-.1,0-.04,.01-.08,.01-.13,0-.04,0-.09,0-.13,0-.02,0-.04,0-.06v-.05c0-.05,0-.09,0-.1,0-.01-.02-.02-.05-.02h-.27s-.06,.06-.1,.09c-.02,.02-.04,.03-.05,.04-.02,.01-.03,.02-.04,.02-.02,0-.03,0-.03-.02,0,0,0-.01,.02-.02,.04-.05,.08-.1,.12-.16,.03-.05,.05-.09,.06-.13,.02-.04,.04-.06,.08-.06,.02,0,.04,0,.06,.01,.02,.01,.03,.02,.03,.04,0,.01-.01,.04-.04,.07,0,.01-.02,.03-.03,.04l-.03,.04h.31Zm-.32,.47s-.02-.03-.03-.06c-.02-.05-.04-.1-.07-.15h0s0-.02,0-.02c0-.02,.01-.02,.03-.02,0,0,.03,0,.05,.03,.02,.02,.05,.04,.07,.06,.03,.03,.05,.05,.07,.07,.02,.02,.03,.04,.03,.05,0,.02,0,.03-.03,.04-.02,.01-.04,.02-.06,.02-.03,0-.05,0-.06-.02Z"/>
        <path class="cls-1" d="M.57,2.16H.31c-.09,0-.14-.03-.14-.09v-.13c0-.06,.05-.09,.14-.09h.26v-.06H.04s0,0-.01,0c0,0,0,0-.01,0-.01,0-.02-.01-.02-.02,0,0,0-.02,.02-.02,0,0,0,0,.01,0,0,0,0,0,.01,0H.57v-.02s.02-.06,.07-.06,.08,.02,.08,.06v.02h.54s0,0,.01,0c0,0,0,0,.01,0,0,0,.01,.01,.01,.02,0,0,0,.02-.02,.02,0,0,0,0-.01,0,0,0,0,0-.01,0H.73v.06h.25c.09,0,.14,.03,.14,.09v.13s0,.04-.01,.05c-.01,.02-.04,.03-.08,.04,.09,.03,.14,.06,.17,.08,.02,.01,.03,.03,.03,.04,0,.04-.03,.06-.08,.06,0,0-.02,0-.02,0,0,0-.01,0-.02,0,0,0,0,0-.01,0,0,0,0,0,0,0,0,0,0-.01-.02-.02h-.01s0-.02,0-.02c-.05,0-.13,0-.24,.01l-.74,.03s-.06-.01-.06-.04H0s0,0,0,0c0,0,0,0,0-.01,0-.01,.03-.02,.05-.02H.57v-.07Zm.27,.18s.02-.06,.07-.06,.07,.02,.07,.06v.03h.27s0,0,.01,0c0,0,0,0,.01,0,0,0,.01,.01,.01,.02s0,.02-.01,.02c0,0,0,0-.01,0,0,0,0,0-.01,0h-.27v.11c0,.06-.05,.09-.14,.09h-.2s0,0-.01,0c0,0,0,0-.01,0,0,0-.01-.01-.01-.02s0-.02,.02-.02c0,0,0,0,.01,0,0,0,0,0,.01,0h.13s.06-.02,.06-.05v-.11H.04s0,0-.01,0c0,0,0,0-.01,0,0,0-.01,0-.01-.02,0,0,0-.02,.02-.02,0,0,0,0,.01,0,0,0,0,0,.01,0H.84v-.03Zm-.46,.25s-.03-.02-.06-.05l-.03-.03s-.03-.03-.06-.05c0,0,0,0,0,0,0,0,0,0,0,0,0-.02,.01-.02,.03-.02,0,0,0,0,0,0h.02s.05,.02,.09,.04c.08,.03,.13,.06,.13,.09,0,.02,0,.03-.03,.04-.02,0-.03,.01-.05,.01-.02,0-.04,0-.05-.01Zm.19-.7h-.19s-.06,.02-.06,.05v.04h.25v-.08Zm0,.13h-.25v.05s.02,.05,.06,.05h.19v-.09Zm.15-.05h.24v-.04s-.02-.05-.06-.05h-.18v.08Zm0,.14h.18s.06-.02,.06-.05v-.05h-.24v.09Zm0,.11s.04,0,.07,0c.02,0,.05,0,.07,0h.13s-.04-.03-.04-.03h0s0-.02,0-.02h0s-.23,0-.23,0v.06Z"/>
        <path class="cls-1" d="M1.63,2.19s0,0-.01,0l-.13,.02s-.03,0-.03,0c-.04,0-.05-.02-.05-.05,0-.02,0-.03,.03-.04,0,0,.02,0,.04,0h.06s.04-.04,.07-.06l.04-.04s-.03-.01-.04-.03v-.02s-.03-.02-.04-.03c-.03-.03-.06-.06-.09-.09-.03-.02-.04-.04-.04-.04,0-.02,.01-.02,.03-.02,0,0,.01,0,.02,0,0,0,.02,0,.03,.01l.03,.02s0,0,.01,0h0s.03-.03,.04-.05c.01-.02,.03-.05,.04-.08,0-.02,.02-.03,.02-.03,.01,0,.03-.01,.05-.01s.04,0,.05,.01c.02,.01,.03,.02,.03,.04,0,0,0,.02-.02,.03-.01,.01-.02,.03-.04,.05-.02,.01-.03,.03-.06,.05-.02,.01-.03,.03-.05,.04l.04,.03s.04,.03,.04,.04l.05-.06s.02-.03,.04-.05c.02-.02,.03-.03,.06-.03,.05,0,.08,.02,.08,.05,0,0,0,.02-.01,.03-.01,.02-.04,.04-.08,.08l-.08,.07s-.08,.06-.11,.08c.05,0,.09,0,.12,0,.02,0,.04,0,.08,0,0-.02-.02-.04-.03-.06h0s0-.02,0-.02c0-.02,.01-.02,.03-.02,0,0,.02,0,.04,.02,.02,.01,.03,.03,.05,.05,.04,.05,.07,.08,.07,.09,0,.03-.02,.05-.07,.05-.03,0-.05-.02-.06-.06l-.09,.02v.4s0,0,0,0c0,0,0,.02,0,.02-.01,.02-.03,.03-.06,.03s-.05,0-.06-.03c0,0,0-.01,0-.02,0,0,0,0,0,0v-.38Zm-.22,.36s0,0,0-.02l.03-.08v-.06s.02-.05,.02-.1c0,0,0,0,0,0,0,0,0,0,0,0,0,0,0-.01,0-.02,.01-.01,.03-.02,.05-.02,0,0,.01,0,.02,0,0,0,.02,0,.02,0,.02,0,.03,.02,.03,.04,0,.04-.03,.1-.08,.19-.01,.02-.03,.04-.04,.06-.02,.02-.03,.03-.05,.03-.02,0-.03,0-.03-.02Zm.44-.1s0-.03-.01-.06c0-.01,0-.03,0-.05,0-.02-.01-.04-.02-.05,0-.01,0-.02,0-.02,0-.01,.01-.02,.03-.02,0,0,.02,0,.03,.02,.01,.01,.03,.03,.04,.05,.03,.05,.05,.08,.05,.1,0,.03-.02,.05-.07,.05-.02,0-.04,0-.04-.02Zm.13-.16s0,0-.01,0c0,0,0,0-.01,0,0,0-.01-.01-.01-.02,0,0,0-.02,.01-.02,0,0,0,0,.01,0,0,0,0,0,.01,0h.17c.05,0,.08,.02,.08,.05,0,.02-.01,.05-.03,.09-.01,.02-.03,.05-.05,.07-.02,.03-.05,.05-.07,.07-.03,.02-.06,.05-.09,.07-.03,.02-.06,.03-.07,.03-.02,0-.03,0-.03-.02,0,0,0-.02,.02-.03,.04-.03,.07-.06,.09-.09,.02-.03,.04-.05,.05-.08,.01-.02,.02-.04,.02-.06v-.03s0,0,0-.01h0s-.09,0-.09,0Zm.42-.13s.03,.07,.04,.1c0,0,0,.01,0,.02l.02,.03s0,0,0,0l.04-.02s0,0,.01,0c.02-.02,.04-.03,.06-.05l.02-.02s.02,0,.04,0c.05,0,.07,.02,.07,.05,0,0,0,.02,0,.02h0s0,.01,0,.01c-.02,.01-.05,.03-.09,.04-.01,0-.03,.01-.05,.02h-.03c.06,.08,.12,.14,.2,.2,.01,0,.02,.02,.02,.02,0,.02-.01,.02-.03,.02-.02,0-.06-.02-.12-.07-.03-.02-.06-.05-.09-.07-.03-.03-.06-.06-.09-.09v.17s0,.05-.02,.06c-.02,.02-.05,.03-.1,.03h-.15s-.01,0-.01,0c0,0,0,0-.01,0,0,0,0,0,0-.01,0,0,0,0,0-.01,0,0,0,0,.01,0,0,0,0,0,.01,0,0,0,0,0,.01,0h.05s.06-.01,.06-.04v-.39h-.12c-.09,0-.13-.03-.13-.08v-.22c0-.06,.04-.08,.13-.08h.07l.05-.08s0,0,.01-.01c.01,0,.03-.01,.05-.01,.02,0,.04,0,.06,.01,.02,0,.03,.02,.03,.03,0,.01-.02,.03-.06,.06h.19c.09,0,.13,.03,.13,.08v.22c0,.06-.04,.08-.13,.08h-.13v.02Zm-.24-.24h.35v-.07s-.02-.04-.06-.04h-.23s-.06,.01-.06,.04v.07Zm.35,.05h-.35v.08s.02,.04,.06,.04h.23s.06-.01,.06-.04v-.08Z"/>
      </g>
    </g>
  </g>
</svg>