<?xml version="1.0" encoding="UTF-8"?>
<svg id="_圖層_2" data-name="圖層 2" xmlns="http://www.w3.org/2000/svg" viewBox="0 0 561.23 40.47">
  <defs>
    <style>
      .cls-1 {
        fill: #fff;
      }
    </style>
  </defs>
  <g id="context">
    <g>
      <path class="cls-1" d="M11.96,12.94H1.5c-.11,0-.22-.01-.32-.04-.17-.03-.3-.08-.41-.13-.3-.15-.44-.43-.44-.83,0-.38,.14-.66,.44-.83,.1-.06,.23-.1,.36-.13,.11-.03,.24-.04,.37-.04H11.96V2.54c0-.17,0-.34,.04-.48,.03-.38,.1-.7,.25-.96,.32-.7,.95-1.05,1.9-1.05s1.58,.35,1.91,1.05c.13,.26,.22,.58,.24,.96,.03,.15,.05,.32,.05,.52V37.85c0,.17-.02,.34-.05,.48-.02,.38-.1,.7-.24,.96-.33,.7-.96,1.05-1.91,1.05s-1.58-.35-1.9-1.05c-.14-.26-.22-.58-.25-.96-.03-.15-.04-.31-.04-.48v-9.09l-2.31,1.27c-1.13,.64-2.19,1.21-3.16,1.7-1.18,.61-2.18,1.1-2.99,1.45-.94,.41-1.57,.61-1.86,.61-.54,0-.96-.26-1.26-.78-.25-.41-.37-.86-.37-1.36,0-.67,.22-1.17,.65-1.49,.19-.12,.42-.22,.69-.31,.1-.06,.24-.1,.41-.13l3.84-1.14c.97-.29,1.92-.6,2.83-.92,.76-.26,1.47-.53,2.15-.79l1.38-.57V12.94Zm13.53,22.51c0,1.37,.62,2.05,1.86,2.05h3.29c.83,0,1.47-.47,1.9-1.4,.17-.35,.31-.79,.45-1.31l.48-2.62c.11-.41,.23-.73,.37-.96,.32-.55,.88-.83,1.66-.83,1.56,0,2.34,.7,2.34,2.1l-.04,.74c-.06,.41-.13,.85-.25,1.31-.29,1.28-.71,2.36-1.26,3.23-.38,.59-.79,1.01-1.26,1.27-.64,.32-1.55,.48-2.71,.48h-6.69c-2.99,0-4.5-1.45-4.5-4.33V2.58c0-.17,.02-.33,.04-.48,.03-.38,.11-.7,.25-.96,.3-.67,.92-1.01,1.87-1.01s1.58,.34,1.9,1.01c.13,.26,.22,.59,.25,.96,.03,.15,.04,.3,.04,.48v13.68c.11-.06,.19-.11,.25-.17l.94-.7c.59-.44,1.15-.89,1.7-1.36,.7-.58,1.38-1.19,2.02-1.84,.78-.73,1.54-1.5,2.27-2.31,1-1.17,1.81-1.75,2.44-1.75,1.57,0,2.34,.86,2.34,2.58,0,.87-.89,1.89-2.67,3.06-.86,.55-1.77,1.09-2.71,1.62-.81,.47-1.66,.94-2.55,1.4l-4.01,1.97v16.69Z"/>
      <path class="cls-1" d="M103.74,2.67c0-.17,.02-.32,.05-.44,.03-.38,.1-.71,.24-1,.33-.79,.96-1.18,1.91-1.18s1.6,.39,1.95,1.18c.13,.26,.22,.58,.25,.96,.03,.15,.04,.29,.04,.44V15.56h15.31c.11,0,.22,.01,.33,.04,.13,.03,.26,.08,.36,.13,.3,.17,.44,.45,.44,.83,0,.41-.14,.68-.44,.83-.1,.06-.23,.1-.36,.13-.11,.03-.22,.04-.33,.04h-15.31v19.18h12.72c.1,0,.22,.02,.32,.05,.13,.03,.26,.07,.37,.13,.29,.17,.44,.45,.44,.83,0,.41-.15,.68-.44,.83-.11,.06-.24,.1-.37,.13-.1,.03-.22,.04-.32,.04h-29.94c-.1,0-.22-.01-.32-.04-.14-.03-.26-.08-.37-.13-.29-.17-.44-.45-.44-.83,0-.41,.15-.68,.44-.83,.11-.06,.23-.1,.37-.13,.1-.03,.22-.05,.32-.05h12.8V17.57h-15.27c-.13,0-.26-.01-.36-.04-.14-.03-.26-.08-.37-.13-.26-.17-.41-.45-.41-.83s.15-.66,.45-.83c.1-.06,.23-.1,.36-.13,.1-.03,.22-.04,.32-.04h15.27V2.67Z"/>
      <path class="cls-1" d="M185.82,37.85c0,.17-.02,.32-.05,.43-.02,.38-.09,.72-.2,1.01-.32,.76-.94,1.14-1.86,1.14s-1.53-.38-1.82-1.14c-.14-.26-.22-.58-.25-.96-.03-.15-.04-.29-.04-.44v-14.73c-.62,1.17-1.31,2.29-2.07,3.37-.65,.93-1.29,1.79-1.95,2.58-1.29,1.52-2.13,2.27-2.51,2.27-.64,0-.97-.34-.97-1.01,0-.23,.15-.54,.44-.92,1.51-1.98,2.84-4.21,3.98-6.69,1.32-2.97,2.27-6.09,2.83-9.35h-5.47c-.13,0-.26-.01-.37-.05-.13-.03-.26-.07-.36-.13-.27-.17-.41-.45-.41-.83s.15-.66,.44-.83c.1-.06,.23-.1,.37-.13,.1-.03,.21-.04,.32-.04h5.71V4.77c-.94,.09-2.09,.16-3.41,.22-1.16,.06-1.92,.09-2.27,.09-.73,0-1.1-.34-1.1-1.01,0-.38,.15-.66,.45-.83l.4-.17c.11-.03,.25-.04,.41-.04,.11,0,.24-.01,.37-.04l2.35-.31c.97-.12,1.82-.25,2.55-.39,1.76-.32,3.39-.76,4.9-1.31l1.26-.48,.73-.22c.25-.09,.41-.13,.49-.13,1.29,0,1.94,.7,1.94,2.1,0,.67-.3,1.14-.93,1.4-.6,.26-1.91,.51-3.93,.74v7.04h4.21c.13,0,.26,.01,.36,.04,.14,.03,.26,.08,.37,.13,.27,.17,.41,.45,.41,.83,0,.41-.15,.68-.44,.83-.11,.06-.24,.1-.37,.13-.1,.03-.22,.05-.32,.05h-4.21v.35c.13,.52,.29,1.09,.48,1.7,.27,.87,.59,1.75,.94,2.62,.45,1.11,.97,2.17,1.54,3.19,.65,1.19,1.36,2.32,2.14,3.37,.11,.12,.19,.23,.25,.35,.09,.15,.12,.29,.12,.44,0,.67-.31,1-.94,1-.25,0-.6-.22-1.05-.65-.38-.38-.83-.91-1.34-1.58-.41-.52-.84-1.11-1.29-1.75l-.85-1.27v16.65Zm21.31,.04c0,.15-.02,.29-.04,.44-.03,.35-.09,.67-.21,.96-.32,.76-.94,1.14-1.86,1.14s-1.53-.38-1.82-1.14c-.13-.26-.22-.58-.25-.96-.03-.12-.04-.26-.04-.44v-11.36l-10.81,3.54c-.22,.06-.43,.09-.61,.09-.57,0-.85-.34-.85-1.01,0-.55,.3-.92,.9-1.09l11.38-3.67V2.54c0-.15,0-.29,.04-.43,.03-.35,.09-.66,.21-.92,.32-.76,.93-1.13,1.82-1.13s1.54,.36,1.86,1.09c.13,.26,.22,.59,.25,.96,.02,.11,.04,.26,.04,.43V23.04l3.77-1.23,.28-.04c.1-.03,.2-.04,.28-.04,.54,0,.81,.32,.81,.96,0,.52-.28,.87-.85,1.05l-4.3,1.4v12.76Zm-13.01-24.82c.3,.14,.66,.36,1.1,.65,.32,.21,.69,.45,1.1,.75l1.86,1.4c.46,.38,.84,.73,1.13,1.05,.87,.85,1.29,1.59,1.29,2.23,0,1.69-.77,2.54-2.3,2.54-.84,0-1.47-.52-1.91-1.57-.73-1.72-1.93-3.57-3.6-5.55-.11-.15-.18-.26-.21-.35-.08-.15-.12-.29-.12-.43,0-.67,.31-1.01,.94-1.01,.13,0,.38,.1,.73,.31Zm.77-10.14l.97,.57,.96,.66c.3,.17,.56,.35,.77,.52,1.41,.99,2.33,1.78,2.8,2.36,.35,.44,.53,.89,.53,1.36,0,1.61-.72,2.4-2.15,2.4-.43,0-.77-.13-1.01-.39s-.75-1.01-1.5-2.23c-.38-.61-.8-1.27-1.29-1.96l-1.62-2.1c-.06-.14-.09-.27-.09-.39,0-.67,.31-1.01,.94-1.01,.13,0,.36,.08,.69,.22Z"/>
      <path class="cls-1" d="M293.18,15.52h4.82c.1,0,.22,.01,.32,.04,.14,.03,.26,.08,.37,.13,.29,.17,.44,.45,.44,.83,0,.23-.04,.42-.12,.57-.08,.12-.19,.22-.32,.31-.11,.06-.25,.09-.41,.09-.09,.03-.18,.05-.28,.05h-4.82v8.96h3.08c.13,0,.26,.01,.36,.04,.13,.03,.26,.07,.37,.13,.26,.17,.41,.45,.41,.83s-.15,.65-.44,.83c-.11,.06-.24,.1-.37,.13-.11,.03-.22,.04-.32,.04h-31.8c-.14,0-.26-.01-.37-.04-.13-.03-.26-.07-.37-.13-.26-.17-.41-.45-.41-.83s.15-.66,.45-.83c.1-.06,.23-.1,.36-.13,.11-.03,.22-.04,.33-.04h3.12v-8.96h-4.66c-.11,0-.22-.02-.33-.05-.13-.03-.26-.07-.36-.13-.3-.14-.45-.42-.45-.83,0-.38,.14-.66,.41-.83,.11-.06,.24-.1,.37-.13,.1-.03,.23-.04,.37-.04h4.66v-5.77l-.97,.87c-.49,.44-.94,.82-1.34,1.14-.51,.43-.94,.76-1.29,.96-.43,.29-.75,.43-.94,.43-.61,0-.93-.34-.93-1.01,0-.26,.16-.57,.48-.92l.9-1.05c.48-.64,.95-1.3,1.42-1.97,.61-.9,1.17-1.82,1.66-2.75,.61-1.13,1.15-2.29,1.62-3.45l.28-.66c.13-.26,.28-.48,.44-.65,.38-.47,.9-.7,1.54-.7,.68,0,1.3,.21,1.87,.61,.6,.44,.89,.98,.89,1.62,0,.59-.38,1.39-1.13,2.4h23.54c.1,0,.22,.02,.32,.05,.14,.03,.26,.07,.37,.13,.26,.17,.41,.45,.41,.83,0,.41-.14,.68-.41,.83-.11,.06-.23,.1-.37,.13-.1,.03-.22,.04-.32,.04h-2.43V15.52Zm-30.15,24.21c-.51-.47-.77-1.05-.77-1.75,0-.44,.12-.82,.37-1.14,.24-.32,.89-.99,1.94-2.01l1.06-1.18c.7-.84,1.42-1.82,2.14-2.93,.3-.41,.57-.61,.81-.61,.62,0,.94,.32,.94,.96,0,.09-.03,.26-.09,.52l-.32,1.18c-.16,.59-.37,1.21-.61,1.88-.29,.82-.64,1.66-1.05,2.54-.94,2.1-1.92,3.15-2.92,3.15-.54,0-1.04-.2-1.5-.61Zm11.8-33.09h-3.36V15.52h3.36V6.64Zm0,10.89h-3.36v8.96h3.36v-8.96Zm1.9,22.55c-.78,0-1.32-.29-1.62-.87-.14-.26-.26-.64-.37-1.14l-.28-1.7c-.1-.73-.26-1.45-.44-2.19-.06-.29-.14-.6-.25-.92l-.37-1.31c-.02-.14-.04-.27-.04-.39,0-.64,.3-.96,.9-.96,.24,0,.64,.3,1.21,.92,.49,.55,1.01,1.25,1.58,2.1,1.35,2.04,2.03,3.45,2.03,4.24,0,1.49-.78,2.23-2.35,2.23Zm5.31-33.44h-3.4V15.52h3.4V6.64Zm0,10.89h-3.4v8.96h3.4v-8.96Zm5.87,21.76c-.46,.38-.97,.57-1.54,.57-.97,0-1.72-1.01-2.23-3.02-.43-1.69-1.01-3.21-1.74-4.54l-.16-.4c-.06-.15-.09-.27-.09-.39,0-.67,.31-1.01,.94-1.01,.21,0,.63,.28,1.26,.83,.59,.55,1.21,1.22,1.86,2.01,.73,.85,1.31,1.63,1.74,2.36,.52,.82,.77,1.43,.77,1.84,0,.7-.27,1.28-.81,1.75Zm1.34-32.65h-3.36V15.52h3.36V6.64Zm0,10.89h-3.36v8.96h3.36v-8.96Zm2.96,12.89c.24,0,.71,.29,1.42,.87,.64,.55,1.35,1.22,2.11,2.01,.78,.87,1.42,1.68,1.9,2.4,.57,.82,.86,1.45,.86,1.88,0,1.66-.83,2.49-2.47,2.49-.97,0-1.72-.86-2.23-2.58-.65-2.13-1.38-3.88-2.19-5.25-.19-.35-.28-.62-.28-.83,0-.67,.3-1,.9-1Z"/>
      <path class="cls-1" d="M353.81,2.54c0-.17,.02-.34,.04-.48,.06-.38,.14-.7,.25-.96,.32-.7,.94-1.05,1.82-1.05,.94,0,1.58,.39,1.91,1.18,.13,.26,.22,.58,.24,.96,.03,.12,.05,.25,.05,.39V11.84h3.24c.1,0,.22,.02,.32,.05,.13,.03,.26,.07,.37,.13,.29,.17,.44,.45,.44,.83s-.15,.66-.44,.83c-.11,.06-.24,.1-.37,.13-.1,.03-.22,.04-.32,.04h-3.24v15.04s.19-.1,.48-.22c.11-.03,.26-.09,.44-.17l.85-.35c.06,0,.09-.01,.12-.04l1.1-.43c.16-.09,.31-.13,.44-.13,.62,0,.94,.34,.94,1.01,0,.41-.26,.77-.77,1.09-.52,.32-1.28,.76-2.31,1.31l-3.52,1.96c-1.41,.76-2.57,1.34-3.49,1.75-.51,.26-.94,.45-1.26,.57-.38,.15-.63,.22-.77,.22-1.16,0-1.75-.7-1.75-2.1,0-.85,.34-1.42,1.01-1.7,.27-.12,.97-.35,2.11-.7l2.07-.61V13.86h-3.81c-.13,0-.26-.01-.37-.04-.13-.03-.26-.07-.36-.13-.27-.17-.41-.45-.41-.83,0-.41,.15-.68,.44-.83,.1-.06,.23-.1,.37-.13,.1-.03,.21-.05,.32-.05h3.81V2.54Zm31.56,34.97c.11,0,.22,.01,.33,.04,.13,.03,.26,.07,.36,.13,.3,.15,.45,.42,.45,.83,0,.38-.15,.65-.45,.83-.1,.06-.23,.1-.36,.13-.11,.03-.22,.05-.33,.05h-8.14c-3.24,0-5.73-.47-7.49-1.4-1.54-.81-2.82-2.2-3.85-4.15-.64,.99-1.47,1.92-2.47,2.8-.84,.73-1.76,1.4-2.76,2.01-.81,.47-1.6,.86-2.35,1.18-.64,.26-1.05,.39-1.21,.39-.6,0-.9-.34-.9-1,0-.41,.28-.77,.85-1.1,2.81-1.6,4.71-3.54,5.71-5.81,.41-.96,.7-2.07,.89-3.32,.09-.5,.15-1.06,.21-1.7l.12-1.84c.1-1.57,.82-2.36,2.14-2.36,1.48,0,2.23,.78,2.23,2.36,0,1.19-.18,2.47-.53,3.8,.81,3.21,2.13,5.41,3.93,6.6v-14.9h-9.08c-.1,0-.21-.01-.32-.04-.13,0-.26-.04-.36-.13-.3-.15-.45-.41-.45-.78,0-.41,.15-.68,.45-.83,.1-.06,.23-.1,.36-.13,.11-.03,.22-.04,.32-.04h22.33c.13,0,.26,.01,.36,.04,.14,0,.26,.03,.37,.09,.27,.17,.41,.45,.41,.83,0,.41-.15,.68-.44,.83-.11,.06-.24,.1-.37,.13-.1,.03-.22,.04-.32,.04h-8.88v5.72h6.93c.13,0,.26,.02,.37,.05,.13,0,.26,.03,.36,.09,.27,.17,.41,.45,.41,.83,0,.41-.15,.68-.44,.83-.11,.06-.23,.1-.37,.13-.1,.03-.22,.04-.32,.04h-6.93v8.57c.41,.06,.91,.1,1.5,.13,.22,.03,.44,.04,.69,.04h7.05Zm-1.7-24.74c0,2.3-1.23,3.45-3.68,3.45h-12.16c-2.46,0-3.68-1.15-3.68-3.45V4.81c0-2.3,1.23-3.45,3.68-3.45h12.16c2.46,0,3.68,1.15,3.68,3.45v7.96Zm-4.34-5.03v-2.71c0-1.11-.51-1.66-1.54-1.66h-7.74c-1.05,0-1.58,.55-1.58,1.66v2.71h10.85Zm-10.85,1.97v2.84c0,1.11,.53,1.66,1.58,1.66h7.74c1.03,0,1.54-.55,1.54-1.66v-2.84h-10.85Z"/>
      <path class="cls-1" d="M437.43,11.8c-.13,0-.26-.01-.37-.04-.13,0-.26-.04-.36-.13-.27-.15-.41-.41-.41-.78,0-.41,.15-.68,.44-.83,.1-.06,.23-.1,.37-.13,.1-.03,.21-.04,.32-.04h10.94c1.13,0,1.98,.3,2.55,.92,.41,.47,.61,1.03,.61,1.7,0,.5-.11,1.24-.33,2.23-.24,1.22-.58,2.49-1.01,3.8-.51,1.63-1.13,3.19-1.86,4.68-.87,1.78-1.82,3.4-2.88,4.85-.89,1.19-1.83,2.34-2.83,3.45-.87,.9-1.73,1.73-2.6,2.49-1.62,1.4-2.64,2.1-3.08,2.1-.61,0-.93-.33-.93-1,0-.32,.19-.66,.57-1.01,1.97-1.69,3.71-3.76,5.22-6.21,1.22-1.98,2.26-4.18,3.12-6.6,.36-.99,.66-1.98,.94-2.97,.22-.87,.41-1.73,.57-2.58,.13-.67,.25-1.31,.32-1.92,.06-.47,.09-.83,.09-1.1,0-.58-.32-.87-.97-.87h-8.43Zm19.65,24.35c0,1.52-.41,2.58-1.21,3.19-.68,.52-1.71,.78-3.08,.78h-5.52c-.16-.03-.29-.07-.41-.13-.16-.06-.28-.15-.36-.26-.11-.15-.16-.34-.16-.57s.05-.42,.16-.57c.08-.15,.2-.25,.36-.31,.11-.06,.25-.1,.41-.13h3.36c1.38,0,2.07-.76,2.07-2.28V2.67c0-.15,0-.29,.04-.44,.03-.38,.11-.71,.25-1,.32-.79,.95-1.18,1.91-1.18s1.58,.39,1.9,1.18c.13,.29,.22,.62,.25,1,.03,.15,.04,.29,.04,.44V7.04c.43,2.01,.85,3.69,1.26,5.03,.16,.52,.37,1.11,.61,1.75l.44,1.27c.08,.17,.13,.32,.16,.44,1.22-.9,2.46-2.01,3.72-3.32,1.35-1.36,2.51-2.73,3.49-4.1,.81-1.17,1.59-1.75,2.31-1.75,.64,0,1.24,.29,1.79,.87,.54,.59,.8,1.23,.8,1.93,0,.52-.17,.99-.52,1.4-.49,.55-1.54,1.4-3.16,2.54-1.35,.93-2.61,1.75-3.77,2.45l-3.77,2.1c3.11,6.88,7.41,12.37,12.88,16.48,.41,.26,.61,.58,.61,.96,0,.7-.3,1.05-.9,1.05-.16,0-.55-.19-1.17-.57-.65-.38-1.41-.87-2.27-1.48-.95-.67-1.88-1.38-2.8-2.14-1.09-.87-2.04-1.73-2.88-2.58-.89-.9-1.74-1.85-2.55-2.84-.71-.85-1.35-1.73-1.95-2.67-.48-.73-.96-1.5-1.42-2.31l-.53-.96c-.13-.23-.27-.5-.41-.79v16.39Z"/>
      <path class="cls-1" d="M526.92,18.4c0-1.58,.38-2.68,1.13-3.32,.65-.52,1.7-.78,3.16-.78h28.88c.13,0,.26,.01,.36,.04,.14,0,.26,.03,.37,.09,.27,.17,.41,.45,.41,.83,0,.41-.15,.68-.44,.83-.11,.06-.24,.1-.37,.13-.1,.03-.22,.04-.32,.04h-26.86c-1.27,0-1.9,.68-1.9,2.05v4.02c0,3.18-.29,5.87-.86,8.09-.51,2.01-1.36,3.96-2.55,5.86-.51,.78-1.11,1.57-1.79,2.36-.83,.96-1.42,1.45-1.74,1.45-.65,0-.97-.34-.97-1.01,0-.09,.06-.25,.16-.48l1.1-1.7c.92-1.63,1.55-3.71,1.91-6.25,.13-1.02,.23-2.14,.28-3.37,.03-.9,.04-1.98,.04-3.23v-5.63Zm13.7-15.74c0-.15,0-.29,.04-.44,.03-.38,.1-.71,.25-1,.32-.82,.95-1.23,1.9-1.23s1.6,.41,1.95,1.23c.14,.29,.22,.62,.25,1,.03,.12,.04,.25,.04,.4v6.77h6.89c1.16,0,1.75-.64,1.75-1.92v-3.28c0-.82,.13-1.46,.41-1.92,.38-.61,.97-.92,1.79-.92s1.43,.29,1.78,.87c.3,.5,.44,1.15,.44,1.97v3.28c0,2.59-1.33,3.89-4,3.89h-22.37c-2.67,0-4.01-1.3-4.01-3.89V3.93c0-.17,.02-.32,.05-.43,.03-.38,.1-.71,.25-1.01,.32-.76,.94-1.14,1.86-1.14s1.6,.38,1.95,1.14c.1,.26,.19,.58,.24,.96,.03,.14,.05,.29,.05,.43v3.58c0,1.28,.58,1.92,1.74,1.92h6.81V2.67Zm6.97,26.09h12.19c.13,0,.26,.01,.36,.04,.13,.03,.26,.08,.37,.13,.26,.17,.41,.45,.41,.83s-.15,.66-.45,.83c-.1,.06-.23,.1-.36,.13-.11,.03-.22,.05-.32,.05h-12.19v6.99c0,.17-.02,.34-.05,.48-.03,.38-.1,.71-.25,1.01-.32,.82-.95,1.22-1.9,1.22s-1.58-.39-1.91-1.18c-.13-.29-.22-.64-.24-1.05-.03-.15-.05-.31-.05-.48v-6.99h-10.25c-.13,0-.26-.01-.37-.05-.13-.03-.26-.07-.36-.13-.27-.17-.41-.45-.41-.83,0-.41,.15-.68,.44-.83,.11-.06,.23-.1,.37-.13,.1-.03,.22-.04,.32-.04h10.25v-6.9h-8.06c-.11,0-.22-.01-.33-.05-.13-.03-.26-.07-.36-.13-.3-.15-.44-.43-.44-.83s.14-.68,.44-.83c.1-.06,.23-.1,.36-.13,.11-.03,.22-.04,.33-.04h20.82c.14,0,.26,.01,.37,.04,.13,.03,.26,.08,.37,.13,.26,.17,.4,.45,.4,.83,0,.41-.14,.68-.44,.83-.1,.06-.23,.1-.36,.13-.11,.03-.22,.05-.33,.05h-8.38v6.9Z"/>
    </g>
  </g>
</svg>