<?xml version="1.0" encoding="UTF-8"?>
<svg id="_圖層_2" data-name="圖層 2" xmlns="http://www.w3.org/2000/svg" viewBox="0 0 568.83 57.85">
  <defs>
    <style>
      .cls-1 {
        fill: #fff;
      }

      .cls-2 {
        fill: #62eeee;
      }

      .cls-3 {
        fill: #6cb3f7;
      }
    </style>
  </defs>
  <g id="context">
    <g>
      <g>
        <path class="cls-3" d="M16.37,26.42h7.77v3.14H4.83c-.7,0-1.05-.45-1.05-1.35V10.07c-.56,.6-1.12,1.2-1.68,1.79L0,9.4C2.24,7.31,4.21,4.48,5.89,.89l2.73,1.57c-.43,.75-.84,1.57-1.28,2.47h6.09c.97-1.79,1.75-3.21,2.31-4.26l2.72,1.57c-.41,.9-.83,1.79-1.25,2.69h6.92v3.13h-7.77v4.03h7.34v3.14h-7.34v3.81h7.34v3.14h-7.34v4.25Zm10.49,21.5c-2.95,1.35-6.08,2.54-9.45,3.58-3.63,1.04-8.47,1.57-14.47,1.57l-.62-3.36c6.43,0,11.53-.67,15.31-2.01,1.82-.45,3.56-1.12,5.24-2.01-3.07-1.79-6.5-4.03-10.28-6.72l1.89-2.68c4.62,3.44,8.59,6.12,11.96,8.06,.28-.15,.48-.3,.64-.45,4.46-2.09,8.39-4.78,11.74-8.06H10.07v-3.35h31.7l2.3,2.24c-3.49,4.48-8.03,8.28-13.64,11.42,5.05,1.79,11.2,2.98,18.48,3.58l-1.06,3.36c-6.71-.6-13.71-2.32-20.97-5.15ZM13.24,12.09v-4.03H7.34c-.28-.15-.41,0-.41,.45v3.58h6.3Zm0,6.94v-3.81H6.94v3.81h6.3Zm-6.3,3.14v3.81c.13,.3,.28,.45,.41,.45h5.89v-4.25H6.94Zm33.56,4.25h7.78v3.14H28.75c-.7,0-1.05-.45-1.05-1.35V9.63c-.56,1.05-1.12,1.87-1.68,2.46l-2.31-2.24c2.09-2.38,3.65-5.37,4.62-8.96l2.93,1.35c-.28,1.05-.62,2.01-1.05,2.91h7.14c.69-1.79,1.25-3.21,1.68-4.26l2.93,1.12c-.28,1.05-.71,2.09-1.26,3.14h7.56v3.13h-7.78v3.81h7.14v3.14h-7.14v4.03h7.34v3.14h-7.34v4.03Zm-3.14-14.33v-3.81h-6.09c-.28-.15-.41,0-.41,.45v3.35h6.5Zm0,7.17v-4.03h-6.5v4.03h6.5Zm-6.5,3.14v3.58c.13,.3,.28,.45,.41,.45h6.09v-4.03h-6.5Z"/>
        <path class="cls-3" d="M63.79,31.79c-1.12,8.36-3.35,15-6.72,19.93l-2.93-1.12c3.63-6.12,5.88-12.53,6.71-19.25l2.95,.45Zm-7.56-15.45c2.38,1.49,4.9,3.58,7.56,6.27l-1.89,2.47c-3.07-2.69-5.52-4.7-7.34-6.05l1.67-2.68Zm.84-14.33c2.24,1.49,4.69,3.66,7.34,6.5l-1.89,2.46c-3.07-2.84-5.52-4.93-7.34-6.27l1.89-2.68Zm17.01,3.81c-1.84,3.58-4.28,7.61-7.34,12.09l-2.52-1.79c3.35-4.78,5.74-8.81,7.14-12.09l2.73,1.79Zm9.64,36.05c-2.51,4.48-8.59,8.06-18.26,10.75l-1.05-3.36c3.09-.75,5.66-1.42,7.77-2.01,5.32-1.94,8.4-4.55,9.24-7.84h-16.17v-3.36h16.37v-4.92l-14.69,1.12-.42-3.13,11.74-1.12c.43-.45,.92-.75,1.48-.89-3.93-2.98-7.62-5.15-11.12-6.5l1.05-3.14c.41,.15,1.68,.75,3.77,1.79,.14,.15,.42,.31,.84,.45,1.53-1.94,3.01-4.04,4.41-6.27l2.3,2.01c-.97,1.64-2.37,3.58-4.19,5.82,1.68,1.05,3.43,2.32,5.24,3.81,.71-.75,1.34-1.42,1.89-2.02,2.81-2.53,4.9-5.14,6.3-7.84l2.52,1.79c-1.82,3.44-4.9,7.02-9.23,10.75l13.64-1.12c-1.12-1.94-2.1-3.43-2.95-4.48l2.51-1.79c2.24,2.84,4.49,6.57,6.72,11.2l-2.73,1.57c-.56-1.19-1.12-2.24-1.67-3.14l-14.28,1.12v4.92h16.79v3.36h-15.73c3.21,5.07,9.01,8.51,17.4,10.3l-1.05,3.14-.41-.22c-8.68-1.64-14.69-5.23-18.05-10.75ZM95.48,4.25c-1.54,.3-3.99,.68-7.34,1.12-4.49,.45-8.19,.67-11.12,.67l-.42-3.36c8.11-.15,14.27-.75,18.46-1.79l.42,3.36Zm-11.76,2.47c1.12,3.73,1.76,6.94,1.89,9.63l-2.93,.22c-.42-2.38-1.12-5.45-2.09-9.18l3.14-.67Zm12.16-1.12c3.65,6.27,5.53,9.63,5.67,10.07l-2.73,1.35c-1.67-3.73-3.56-7.01-5.66-9.85l2.72-1.57Z"/>
        <path class="cls-3" d="M117.08,47.69c-.56,1.19-1.67,2.24-3.34,3.14-1.84,.89-3.44,1.34-4.83,1.34-.14-.89-.42-2.01-.84-3.36,2.38-.3,4.05-.89,5.04-1.79,1.25-.89,1.96-2.09,2.09-3.58v-13.66c.15-.3,0-.45-.41-.45h-5.66v-3.36h8.39c.55,.15,.84,.45,.84,.89v16.8c.27,.89,.83,1.64,1.67,2.24,.55,.75,1.47,1.19,2.73,1.35,3.63,1.04,14.75,1.26,33.37,.67l-.64,3.58c-8.54,.15-16.58,.3-24.12,.45-7.42-.15-12.18-1.57-14.28-4.25Zm-6.29-34.71c2.38,1.05,5.04,2.68,7.97,4.93l-1.68,2.68c-3.07-2.09-5.66-3.65-7.75-4.7l1.47-2.91Zm1.47-11.64c2.24,1.05,4.69,2.68,7.34,4.92l-1.68,2.69c-3.07-2.24-5.52-3.81-7.34-4.7l1.68-2.91Zm16.58,22.39c-.28,3.28-.92,6.49-1.89,9.63-.98,4.03-1.96,6.8-2.93,8.29l-2.95-.68c3.51-7.76,5.24-16.57,5.24-26.42v-5.15h-4.62v-3.36h6.94V0h3.14V6.04h6.72v3.36h-9.01v6.27h7.13c.55,.15,.84,.45,.84,.9-.56,14.48-1.54,23.14-2.95,25.97-.41,.9-.84,1.42-1.25,1.57-1.4,.3-3.65-.08-6.72-1.12,.28-.75,.5-1.86,.62-3.36,2.52,.9,3.99,1.28,4.41,1.12,1.26-.89,2.17-8.13,2.73-21.72,.13,0,0,0-.42,0h-4.62c-.14,1.64-.28,3.21-.42,4.7Zm10.91-8.96l-2.52-2.01c2.81-3.28,4.49-7.39,5.04-12.32l2.95,.22c-.28,1.64-.5,3.14-.64,4.48h13.01v3.36h-14.05c-1.12,2.38-2.37,4.48-3.77,6.27Zm12.37,16.35c.71,5.07,.36,8.59-1.05,10.53-.97,1.34-1.89,2.09-2.73,2.24-2.09,.75-4.62,.22-7.55-1.57l.84-3.58c1.12,1.2,2.31,1.79,3.57,1.79,1.25,.15,2.3-.3,3.14-1.35,1.12-1.19,1.2-4.03,.22-8.5h-9.45v-3.36h8.39c-.56-1.19-1.12-2.31-1.67-3.36-.28-.45-.42-.75-.42-.9-.14-.45,0-.74,.42-.89l5.24-6.04h-9.23v-3.36h12.38l1.9,2.46h-.22l-6.08,6.94c-.71,1.05-.78,1.87-.22,2.46,.56,.9,1.06,1.79,1.47,2.69h6.5v3.36h-5.66c0,.15,.08,.3,.2,.45Z"/>
        <path class="cls-3" d="M166.6,29.56v4.7c-.14,6.12-.64,11.86-1.47,17.24l-3.35-.45c1.11-6.72,1.67-12.84,1.67-18.36v-2.69l-1.67,.22-.64-3.13,2.31-.45V5.82c.14-.75,.5-1.12,1.06-1.12h4.18c.71-1.49,1.12-2.76,1.28-3.81l2.93,1.12c-.15,.89-.43,1.79-.84,2.68h5.87c.71,.15,1.06,.53,1.06,1.12V24.4l1.67-.45,.64,3.36-2.31,.45v21.04c-.14,1.49-.5,2.54-1.06,3.14-1.12,1.05-3.63,1.12-7.55,.22v-3.81c2.81,1.05,4.48,1.35,5.04,.9,.28-.15,.42-.68,.42-1.57V28.21l-3.15,.45v16.57h-3.15V29.11l-2.93,.45Zm9.23-4.7V8.51c.14-.3,0-.45-.42-.45h-8.39c-.28,.15-.42,.3-.42,.45V26.2l9.23-1.35Zm-2.09-2.91l-2.95,.45-1.26-10.75,2.93-.67,1.28,10.97Zm13.41,22.84c-1.39,2.84-2.93,5.6-4.62,8.29l-2.73-2.47c1.96-3.28,3.57-6.34,4.83-9.18-1.54-2.24-2.79-6.27-3.77-12.09l2.95-1.35c.69,3.58,1.53,6.72,2.51,9.4,1.54-4.48,2.31-9.4,2.31-14.78h-5.66l-1.06-1.79,5.88-14.55h-7.34V2.91h10.07l1.25,2.02-5.87,14.33h5.04c.7-.15,1.05,.22,1.05,1.12-.14,7.91-1.34,14.85-3.56,20.82,1.39,1.79,2.93,3.14,4.62,4.03,3.34,1.64,9.3,2.39,17.83,2.24l-.64,3.58c-6.01,.15-10.48-.08-13.41-.68-4.21-.89-7.42-2.76-9.66-5.6Zm16.17-24.63h6.91v3.36h-6.91v15.22h6.08v3.36h-15.11v-3.36h5.88v-15.22h-6.72v-3.36h6.72V7.61c-1.82,.15-3.63,.22-5.46,.22l-.62-3.36c6.85-.15,11.74-.67,14.69-1.57l.84,3.14c-1.84,.6-3.65,.98-5.46,1.12h-.84v12.99Z"/>
        <path class="cls-3" d="M222.41,51.5h-3.15V25.75c-.7,1.64-1.33,3.14-1.89,4.48l-2.31-2.46c3.07-6.41,4.9-13.73,5.46-21.94h-4.83V2.46h16.17v3.36h-8.19c-.42,4.93-1.05,9.03-1.89,12.32h7.75c.71,.15,1.06,.52,1.06,1.12v25.53c-.14,.75-.5,1.12-1.06,1.12h-7.13v5.6Zm4.4-8.96c.43,0,.64-.22,.64-.67V21.94c.14-.3,0-.45-.42-.45h-3.99c-.41,0-.62,.22-.62,.67v20.38h4.4Zm10.91-7.17c-.41,4.63-1.33,10.08-2.73,16.35l-3.14-.67c1.67-6.72,2.58-12.16,2.73-16.35l3.14,.67Zm-2.73-14.78V3.58c0-.59,.28-.9,.84-.9h28.12v3.36h-12.79v4.7h11.74v3.36h-11.74v4.7h11.96v3.36h-11.96v5.15h12.37c.42,0,.64,.3,.64,.89,.56,8.21,.62,13.89,.2,17.02-.14,2.69-.92,4.78-2.31,6.27-1.39,1.49-5.04,1.71-10.9,.67l-.22-3.36c3.49,.6,5.67,.9,6.5,.9s1.47-.22,1.89-.67c1.12-1.2,1.75-2.54,1.9-4.04,.27-2.08,.2-6.79-.22-14.1,.14-.15,0-.22-.42-.22h-24.97c-.42,0-.64-.23-.64-.68v-9.4Zm13.01-14.55h-9.44c-.28,.15-.42,.3-.42,.45v4.26h9.86V6.04Zm0,8.06h-9.86v4.7h9.86v-4.7Zm0,13.21v-5.15h-9.86v5.15h9.86Zm-4.82,7.84c.84,5.37,1.26,9.93,1.26,13.66h-3.15c-.14-4.92-.48-9.4-1.05-13.43l2.93-.22Zm5.66-.89c1.68,4.92,2.81,8.8,3.37,11.64l-2.93,.67c-.84-3.58-1.96-7.39-3.37-11.42l2.93-.89Zm7.34-1.57c1.26,3.28,2.32,6.34,3.15,9.18l-2.93,.89c-.84-3.28-1.9-6.27-3.15-8.96l2.93-1.12Z"/>
        <path class="cls-3" d="M290.82,2.68v3.36h-21.63V2.68h21.63Zm-5.67,31.12l2.95,.9c-.56,2.84-1.48,6.12-2.73,9.85,2.23-.89,4.05-1.64,5.46-2.24l1.25,2.91c-5.58,2.54-12.8,4.7-21.61,6.5l-1.26-3.14c5.18-1.05,9.31-2.01,12.39-2.91,1.81-4.78,3-8.73,3.56-11.87Zm-13.43-4.92c-.28-.15-.42-.3-.42-.45V11.2c.14-.3,.28-.45,.42-.45h17c.27,.15,.42,.3,.42,.45V28.43c-.15,.31-.28,.45-.42,.45h-17Zm3.15,4.7c1.11,2.39,2.1,5.6,2.93,9.63l-3.15,.9c-.84-4.03-1.75-7.17-2.73-9.4l2.95-1.12Zm-.22-19.48c-.13,0-.2,.08-.2,.22v11.2h11.32c.15,0,.22-.08,.22-.22V14.33c0-.15-.06-.22-.22-.22h-11.12Zm26.24,35.15c-3.51,2.54-6.94,4.03-10.29,4.48l-.22-3.36c2.81-.45,5.74-1.79,8.82-4.03l1.68,2.91Zm-5.89-4.93c-.28-.15-.41-.3-.41-.45V11.86c.13-.29,.28-.45,.41-.45h6.3c.7-1.79,1.33-3.58,1.89-5.37h-10.07V2.68h25.18v3.36h-11.74c-.43,1.35-1.05,3.14-1.89,5.37h11.12c.28,.15,.41,.3,.41,.45V43.89c-.13,.3-.28,.45-.41,.45h-20.78Zm18.05-22.84v-6.5c0-.15-.08-.22-.22-.22h-14.89c-.14,0-.22,.08-.22,.22v6.5h15.33Zm0,9.63v-6.27h-15.33v6.27h15.33Zm-15.33,3.36v6.49h15.11c.14,0,.22-.07,.22-.22v-6.27h-15.33Zm12.39,11.86c2.37,1.05,5.1,2.54,8.17,4.48l-1.47,2.91c-3.21-1.94-5.94-3.36-8.19-4.25l1.48-3.14Z"/>
      </g>
      <g>
        <g>
          <path class="cls-1" d="M360.77,18.35c.4-4.07,1.81-7.27,4.25-9.63s5.62-3.53,9.58-3.53,7.11,1.15,9.5,3.46,3.58,5.43,3.58,9.4c0,4.41-1.44,7.6-4.32,9.55,3.88,1.71,5.8,5.42,5.8,11.13,0,4.41-1.4,7.93-4.21,10.56-2.81,2.64-6.41,3.95-10.84,3.95-4.12,0-7.65-1.38-10.58-4.13-2.93-2.75-4.4-6.17-4.4-10.23h7.68c0,2.21,.73,4.05,2.17,5.56,1.44,1.5,3.26,2.26,5.47,2.26s3.98-.83,5.29-2.49c1.31-1.64,1.98-3.66,1.98-6.01,0-1.96-.7-3.77-2.12-5.46-1.43-1.68-3.02-2.52-4.81-2.52-.2,0-.41,.03-.6,.08l-1.64,.15v-5.19h.97c1.89,0,3.52-.66,4.88-1.99,1.36-1.33,2.05-2.97,2.05-4.92,0-4.67-2.08-7-6.22-7s-6.22,2.33-6.22,7h-7.23Z"/>
          <path class="cls-1" d="M400.63,12.93V6.39h14.17V52.04h-7.68V12.93h-6.49Z"/>
          <path class="cls-2" d="M441.91,29.17v6.91h-14.6v-6.91h14.6Z"/>
          <path class="cls-1" d="M481.4,37.45v5.94h-5.36v8.64h-7.09v-8.64h-20.57v-3.39l20.2-34.44h7.46v31.89h5.36Zm-12.44-21.06l-11.62,21.06h11.62V16.38Z"/>
          <path class="cls-1" d="M498.4,12.93l-1.79,8.2,3.49-.15c4.32,0,7.84,1.54,10.54,4.63,2.7,3.09,4.07,6.82,4.07,11.23,0,4.92-1.52,8.87-4.55,11.88-3.03,3.01-7,4.51-11.92,4.51-5.47,0-9.93-2-13.41-6.02l2.24-6.62c2.87,4.07,6.4,6.09,10.57,6.09,2.59,0,4.78-.92,6.6-2.74,1.81-1.84,2.72-4.31,2.72-7.45s-.94-5.57-2.83-7.33-4.27-2.64-7.15-2.64-5.24,1.01-7.08,3.01h-1.42l4.69-23.16h19.67v6.54h-14.46Z"/>
        </g>
        <path class="cls-1" d="M526.39,22.79h-5.41v-3.26h5.41V7.77h3.12v11.76h5.41v3.26h-5.41v21.99c1.66-1.16,3.12-2.18,4.36-3.05l1.87,2.4c-3.05,2.61-7.56,5.52-13.52,8.71l-1.87-2.61c2.36-1.31,4.36-2.47,6.03-3.48V22.79Zm9.15,19.16v-3.26h15.4V12.56h-14.15v-3.28h30.38v3.28h-13.11v26.13h14.77v3.26h-14.77v15.9h-3.12v-15.9h-15.4Zm5-24.61c1.8,4.07,3.53,9.15,5.2,15.25l-3.12,1.08c-1.67-6.53-3.33-11.54-5-15.02l2.92-1.31Zm26.42,.88c-.97,4.5-2.77,9.79-5.41,15.89l-2.91-1.08c2.77-6.53,4.58-11.83,5.41-15.9l2.91,1.1Z"/>
      </g>
    </g>
  </g>
</svg>