<?xml version="1.0" encoding="UTF-8"?>
<svg id="_圖層_2" data-name="圖層 2" xmlns="http://www.w3.org/2000/svg" viewBox="0 0 18.74 6.74">
  <defs>
    <style>
      .cls-1 {
        fill: #fff;
      }
    </style>
  </defs>
  <g id="_圖層_1-2" data-name="圖層 1">
    <g>
      <path class="cls-1" d="M.2,5.58l-.2-.09c.24-.33,.4-.68,.46-1.04l.21,.04c-.05,.23-.11,.43-.17,.58v1.67h-.21v-1.27s-.05,.08-.08,.11Zm.52-.46l-.12-.2c.44-.14,.73-.3,.86-.47l.21,.05s-.02,.02-.03,.04c.22,.16,.49,.29,.8,.39l-.12,.2c-.13-.05-.24-.1-.33-.15v.2h-.95v-.2c-.1,.05-.2,.1-.33,.15Zm.67,1.02v.57h-.22v-.57h-.26v.57h-.22v-1.32s.02-.05,.05-.05h1.57s.06,.02,.06,.05v1.11c0,.09-.04,.15-.11,.19-.06,.04-.17,.05-.34,.02v-.24c.08,.04,.14,.06,.16,.04,.04-.02,.06-.05,.06-.1v-.28h-.26v.57h-.22v-.57h-.25Zm-.22-.58h-.25s-.01,0-.01,0v.36h.26v-.37Zm.79-.59c-.14-.07-.29-.17-.46-.29-.1,.09-.25,.19-.44,.29h.9Zm-.32,.59h-.25v.37h.25v-.37Zm.22,.37h.26v-.36s-.01,0-.02,0h-.24v.37Z"/>
      <path class="cls-1" d="M3.81,4.44h.22v.18h.54v.19h-1.28v-.19h.52v-.18Zm.31,2.14c-.03,.06-.08,.1-.14,.13-.13,.04-.3,.03-.5-.04v-.22c.19,.09,.32,.12,.38,.1,.03-.02,.06-.04,.08-.07,.02-.05,.02-.12,0-.21l-.57,.09-.05-.2,.55-.08c-.03-.05-.06-.1-.1-.15h.1l.18-.18s.01-.02,.01-.03c0-.01-.01-.02-.02-.02h-.66v-.18h.95l.14,.13-.42,.38s.01,.02,.02,.03l.47-.07,.03,.2-.43,.06c.05,.17,.04,.28-.02,.35Zm.3-1.16h-1.01s-.02,0-.02-.03v-.45s.01-.03,.02-.03h1.01s.03,0,.03,.03v.45s-.01,.03-.03,.03Zm-.83-.35s0,0,0,0v.16h0s.64,0,.64,0c0,0,.01,0,.01,0v-.16s0,0-.01,0h-.64Zm1.06,.49l-.2-.06c.19-.34,.29-.68,.29-1.04h.21c0,.1-.01,.18-.02,.24h.76v.2h-.18v.09c0,.37-.1,.74-.31,1.09,.12,.16,.29,.34,.51,.54l-.19,.11c-.18-.18-.33-.34-.43-.48-.14,.19-.34,.35-.58,.48l-.15-.15c.25-.13,.46-.3,.62-.51-.12-.23-.19-.48-.21-.74-.03,.08-.07,.16-.11,.22Zm.33-.06c.03,.14,.07,.26,.12,.39,.13-.26,.2-.55,.2-.89v-.09h-.37c-.01,.22,0,.42,.04,.59Z"/>
      <path class="cls-1" d="M8.16,5.56h-.83s-.02,.03-.03,.04c-.05,.06-.11,.11-.15,.15,.13,.13,.21,.22,.25,.26l-.16,.12c-.05-.05-.13-.14-.25-.25-.1,.09-.2,.16-.29,.2l-.16-.15c.22-.14,.4-.26,.52-.38h-.49v-.2h.68c.05-.06,.09-.13,.13-.18h-.63v-.2h.73c.03-.08,.05-.14,.06-.18h-.89v-.2h.92c.01-.05,.02-.1,.03-.15l.21,.02s-.01,.09-.02,.13h1.05v.2h-1.1c-.01,.08-.03,.14-.05,.18h1.05v.2h-.61c.04,.08,.08,.14,.12,.18h.67v.2h-.5c.14,.12,.32,.24,.54,.36l-.17,.16c-.12-.08-.24-.16-.35-.24-.09,.08-.2,.17-.33,.25l-.13-.15c.12-.09,.22-.17,.31-.23-.05-.04-.1-.09-.14-.15Zm-.63,.76c-.2,.14-.46,.27-.78,.4l-.09-.19c.33-.13,.58-.25,.76-.37l.11,.16Zm.35-.61v.78c0,.1-.04,.17-.12,.21-.08,.04-.23,.04-.44,0v-.21c.17,.04,.27,.04,.32,.02,.01-.02,.02-.04,.02-.07v-.73h.22Zm.02-.54h-.28c-.04,.06-.08,.13-.12,.18h.51c-.03-.06-.07-.12-.11-.18Zm.22,1.02c.35,.17,.58,.29,.71,.38l-.12,.17c-.2-.12-.43-.25-.7-.37l.11-.18Z"/>
      <path class="cls-1" d="M10.08,6.62h-.21v-1.97s.03-.07,.07-.07h.53s.07,.03,.07,.07v1.76s-.02,.07-.07,.07h-.39v.15Zm.04-1.84s-.04,.01-.04,.04v.61h.25v-.61s-.01-.04-.03-.04h-.17Zm.2,.85h-.25v.64h.2s.04-.01,.04-.04v-.6Zm.68-.51h-.3v-.19h.34l.05-.2h-.46v-.19h1.51v.19h-.83l-.05,.2h.67s.05,0,.05,.05v.46h.23v.19h-1.62v-.19h.33l.07-.32Zm-.09,1.56h-.21v-.85s.01-.03,.04-.03h1.33s.04,.01,.04,.04v.84h-.21v-.08h-.98v.08Zm.98-.27v-.4s0-.02-.03-.02h-.92s-.03,0-.03,.03v.39h.98Zm-.11-.97v-.3s-.01-.02-.02-.02h-.54l-.07,.32h.63Z"/>
      <path class="cls-1" d="M14.17,5.2h-1.06v-.22h1.06v-.51h.24v.51h1.05v.22h-1.05v1.22h.94v.22h-2.13v-.22h.95v-1.22Z"/>
      <path class="cls-1" d="M16.46,5.08c.14,.07,.29,.17,.45,.29l-.13,.17c-.17-.13-.32-.22-.44-.28l.12-.18Zm.51,.73c-.09,.37-.23,.67-.42,.88l-.21-.1c.22-.26,.36-.53,.42-.82l.21,.04Zm-.49-1.33c.14,.07,.31,.17,.49,.29l-.13,.18c-.18-.14-.34-.23-.47-.29l.11-.18Zm.53,.26v-.21h1.73v.21h-.19v1.74c0,.1-.04,.17-.12,.21-.12,.08-.35,.07-.68,0v-.21c.13,.03,.22,.05,.27,.06,.07,0,.12,0,.17,0,.04,0,.08,0,.12-.05,.01-.02,.02-.04,.02-.07v-1.68h-1.31Zm1.04,1.48h-.83s-.06-.02-.06-.06v-1.14s.02-.06,.06-.06h.83s.06,.02,.06,.06v1.14s-.02,.06-.06,.06Zm-.66-1.04s0,0,0,0v.81s0,0,0,0h.5v-.82h0s-.49,0-.49,0Z"/>
    </g>
    <g>
      <path class="cls-1" d="M5.44,2.17l-.22,.17s-.12-.12-.28-.29-.4-.43-.74-.79v-.02s.11-.04,.18-.07c.08-.04,.14-.08,.19-.12,.04-.04,.08-.09,.12-.14,.03-.06,.05-.13,.05-.23,0-.09-.02-.16-.07-.22-.05-.06-.11-.11-.2-.14-.07-.02-.14-.04-.22-.04-.08,0-.15,0-.21,0-.04,0-.08,0-.1,0-.02,0-.04,0-.05,0,0,.21,0,.4,0,.57s0,.28,0,.35c0,.15,0,.36,0,.63,0,.27,0,.43,0,.5h-.29c0-.07,0-.2,0-.39,0-.19,0-.44,0-.73v-.31c0-.15,0-.43,0-.83,.01,0,.07,0,.18,0,.11,0,.21,0,.3,0,.1,0,.2,0,.3,.02s.19,.04,.28,.07c.12,.05,.21,.12,.28,.21s.1,.2,.1,.32c0,.16-.05,.29-.16,.4-.1,.11-.2,.19-.29,.24h0c.16,.19,.34,.38,.54,.57s.3,.3,.31,.31Z"/>
      <path class="cls-1" d="M6.57,2.31h-.29c0-.07,0-.19,0-.36,0-.17,0-.42,0-.75,0-.13,0-.3,0-.51,0-.21,0-.43,0-.65h.29c0,.16,0,.35,0,.56,0,.21,0,.39,0,.52,0,.34,0,.61,0,.8,0,.19,0,.32,0,.38Z"/>
      <path class="cls-1" d="M9.74,.12s-.13,.27-.38,.77c-.25,.5-.48,.98-.7,1.45h-.24c-.25-.52-.48-1.01-.71-1.48-.22-.46-.34-.71-.35-.73L7.65,0s.12,.26,.32,.7c.21,.45,.4,.87,.6,1.26h0c.19-.41,.4-.83,.61-1.28,.21-.45,.32-.68,.32-.69l.25,.12Z"/>
      <path class="cls-1" d="M12.07,2.3s-.09,0-.24,0c-.15,0-.33,0-.55,0-.15,0-.29,0-.41,0-.12,0-.23,0-.32,0,0-.07,0-.21,0-.42,0-.22,0-.44,0-.67,0-.13,0-.3,0-.51s0-.43,0-.65c.08,0,.19,0,.32,0,.13,0,.26,0,.39,0,.23,0,.41,0,.55,0,.14,0,.22,0,.23,0v.24s-.09,0-.22,0c-.14,0-.31,0-.51,0-.09,0-.18,0-.26,0-.09,0-.15,0-.2,0,0,.13,0,.25,0,.38,0,.13,0,.25,0,.36,.05,0,.12,0,.19,0s.14,0,.2,0c.21,0,.4,0,.56,0,.17,0,.25,0,.26,0v.23s-.11,0-.29,0c-.19,0-.36,0-.51,0-.06,0-.12,0-.2,0s-.15,0-.2,0c0,.21,0,.38,0,.51,0,.12,0,.23,0,.31,.07,0,.16,0,.25,0s.21,0,.32,0c.18,0,.33,0,.45,0s.19,0,.2,0v.24Z"/>
      <path class="cls-1" d="M14.96,2.17l-.22,.17s-.12-.12-.28-.29-.4-.43-.74-.79v-.02s.11-.04,.18-.07c.08-.04,.14-.08,.19-.12,.04-.04,.08-.09,.12-.14,.03-.06,.05-.13,.05-.23,0-.09-.02-.16-.07-.22s-.11-.11-.2-.14c-.07-.02-.14-.04-.22-.04-.08,0-.15,0-.21,0-.04,0-.08,0-.1,0-.02,0-.04,0-.05,0,0,.21,0,.4,0,.57,0,.16,0,.28,0,.35,0,.15,0,.36,0,.63,0,.27,0,.43,0,.5h-.29c0-.07,0-.2,0-.39,0-.19,0-.44,0-.73v-.31c0-.15,0-.43,0-.83,.01,0,.07,0,.18,0,.11,0,.21,0,.3,0,.1,0,.2,0,.3,.02,.1,.01,.19,.04,.28,.07,.12,.05,.21,.12,.28,.21,.07,.09,.1,.2,.1,.32,0,.16-.05,.29-.16,.4-.1,.11-.2,.19-.29,.24h0c.16,.19,.34,.38,.54,.57s.3,.3,.31,.31Z"/>
    </g>
  </g>
</svg>