<?xml version="1.0" encoding="UTF-8"?>
<svg id="_圖層_2" data-name="圖層 2" xmlns="http://www.w3.org/2000/svg" viewBox="0 0 18.8 7.16">
  <defs>
    <style>
      .cls-1 {
        fill: #231815;
      }
    </style>
  </defs>
  <g id="_圖層_1-2" data-name="圖層 1">
    <g>
      <path class="cls-1" d="M6.15,2.18l-.23,.17s-.12-.12-.29-.29-.42-.44-.77-.8v-.02s.11-.04,.19-.07,.14-.08,.2-.12c.05-.04,.09-.09,.12-.14s.05-.13,.05-.23c0-.09-.02-.16-.07-.23-.05-.06-.12-.11-.21-.14-.07-.03-.15-.04-.23-.05-.08,0-.15,0-.22,0-.04,0-.08,0-.1,0-.02,0-.04,0-.05,0,0,.22,0,.41,0,.57,0,.16,0,.28,0,.35,0,.16,0,.37,0,.63,0,.27,0,.43,0,.5h-.31c0-.07,0-.2,0-.4,0-.2,0-.44,0-.73v-.31c0-.15,0-.43,0-.84,.01,0,.07,0,.19,0,.11,0,.21,0,.31,0,.11,0,.21,0,.31,.02,.1,.01,.2,.04,.3,.07,.12,.05,.22,.12,.29,.21s.11,.2,.11,.33c0,.16-.05,.29-.16,.4-.11,.11-.21,.19-.31,.24h0c.17,.19,.36,.38,.56,.57,.2,.19,.31,.3,.33,.31Z"/>
      <path class="cls-1" d="M7.33,2.32h-.31c0-.07,0-.19,0-.36s0-.42,0-.75c0-.13,0-.3,0-.51,0-.21,0-.43,0-.65h.31c0,.16,0,.35,0,.56s0,.39,0,.53c0,.34,0,.61,0,.8s0,.32,0,.38Z"/>
      <path class="cls-1" d="M10.63,.12s-.14,.27-.39,.77c-.26,.5-.5,.99-.73,1.45h-.25c-.26-.52-.5-1.02-.73-1.48-.23-.47-.36-.71-.37-.73L8.45,0s.12,.26,.33,.71c.21,.45,.42,.87,.62,1.27h0c.2-.41,.41-.83,.63-1.28,.22-.45,.33-.68,.34-.69l.26,.12Z"/>
      <path class="cls-1" d="M13.06,2.31s-.09,0-.25,0c-.15,0-.34,0-.57,0-.16,0-.3,0-.43,0-.13,0-.24,0-.33,0,0-.07,0-.21,0-.43,0-.22,0-.44,0-.68,0-.13,0-.3,0-.51,0-.21,0-.43,0-.65,.09,0,.2,0,.33,0,.13,0,.27,0,.41,0,.24,0,.43,0,.58,0,.15,0,.23,0,.24,0v.24s-.09,0-.23,0c-.14,0-.32,0-.53,0-.09,0-.18,0-.27,0-.09,0-.16,0-.21,0,0,.13,0,.26,0,.38,0,.13,0,.25,0,.36,.06,0,.12,0,.2,0s.14,0,.2,0c.22,0,.41,0,.58,0,.17,0,.26,0,.27,0v.23s-.11,0-.31,0c-.19,0-.37,0-.53,0-.06,0-.13,0-.21,0-.08,0-.15,0-.21,0,0,.21,0,.38,0,.51,0,.13,0,.23,0,.32,.07,0,.16,0,.27,0s.22,0,.34,0c.18,0,.34,0,.46,0,.12,0,.2,0,.21,0v.24Z"/>
      <path class="cls-1" d="M16.07,2.18l-.23,.17s-.12-.12-.29-.29c-.17-.17-.42-.44-.77-.8v-.02s.11-.04,.19-.07,.14-.08,.2-.12c.05-.04,.09-.09,.12-.14s.05-.13,.05-.23c0-.09-.02-.16-.08-.23-.05-.06-.12-.11-.21-.14-.07-.03-.15-.04-.23-.05-.08,0-.15,0-.22,0-.04,0-.08,0-.1,0-.02,0-.04,0-.05,0,0,.22,0,.41,0,.57,0,.16,0,.28,0,.35,0,.16,0,.37,0,.63s0,.43,0,.5h-.31c0-.07,0-.2,0-.4,0-.2,0-.44,0-.73v-.31c0-.15,0-.43,0-.84,.01,0,.07,0,.18,0,.11,0,.21,0,.31,0,.11,0,.21,0,.31,.02,.1,.01,.2,.04,.3,.07,.12,.05,.22,.12,.29,.21s.11,.2,.11,.33c0,.16-.05,.29-.16,.4-.11,.11-.21,.19-.31,.24h0c.17,.19,.36,.38,.56,.57,.2,.19,.31,.3,.33,.31Z"/>
    </g>
    <g>
      <path class="cls-1" d="M.75,5.57H.05v-.22H.75v-.49h.23v2.27h-.23v-.61c-.18,.12-.39,.23-.61,.35l-.13-.18c.27-.13,.51-.27,.75-.43v-.69Zm.78,.06c.29-.19,.52-.36,.67-.5l.15,.17c-.21,.19-.48,.39-.82,.59v.86c0,.05,.01,.09,.02,.11,.02,.03,.06,.04,.12,.04h.33c.08,0,.13-.02,.15-.06,.03-.05,.04-.18,.04-.42l.24,.04c0,.32-.02,.51-.07,.56-.05,.05-.09,.08-.11,.09-.04,0-.1,0-.16,0h-.5c-.07,0-.12-.01-.16-.04-.08-.06-.12-.16-.12-.29v-1.95h.23v.79Z"/>
      <path class="cls-1" d="M4.38,5.62h-1.06v-.22h1.06v-.51h.25v.51h1.05v.22h-1.05v1.22h.94v.22H3.43v-.22h.95v-1.22Z"/>
      <path class="cls-1" d="M7.24,7.16h-.23v-1.03c-.08,.16-.17,.3-.26,.43l-.21-.08c.2-.22,.34-.47,.43-.75h-.39v-.21h.43v-.35c-.12,.01-.25,.02-.38,.03l-.02-.21c.4-.03,.71-.07,.94-.13l.03,.21c-.11,.03-.23,.05-.35,.07v.38h.37v.21h-.37v.03c.14,.16,.29,.33,.43,.51l-.17,.13c-.08-.11-.17-.22-.26-.34v1.1Zm.29-.47l-.05-.2,1.03-.17v-1.47h.23v1.43l.21-.04,.04,.21-.26,.04v.65h-.23v-.61l-.98,.16Zm.31-1.11c.21,.2,.36,.35,.44,.45l-.17,.13c-.12-.14-.26-.28-.43-.44l.16-.14Zm.11-.6c.23,.22,.39,.38,.47,.49l-.17,.13c-.12-.16-.28-.32-.46-.48l.16-.14Z"/>
      <path class="cls-1" d="M10.66,6.21c-.25,.26-.48,.43-.7,.51l-.13-.17c.21-.09,.39-.2,.54-.34h-.52v-.19h.45v-.83h-.39v-.19h.39v-.15h.23v.15h1.04v-.15h.23v.15h.4v.19h-.4v.83h.46v.19h-.58c.14,.13,.34,.25,.6,.35l-.15,.17c-.29-.14-.53-.31-.72-.52h-.75Zm.28,.48h-.55v-.19h.55v-.18h.22v.18h.54v.19h-.54v.22h1.01v.19h-2.24v-.19h1v-.22Zm.63-1.34v-.16h-1.04v.16h1.04Zm0,.34v-.17h-1.04v.17h1.04Zm0,.33v-.16h-1.04v.16h1.04Z"/>
      <path class="cls-1" d="M13.43,7.14h-.21v-2.19s.01-.02,.01-.03h.56l.15,.09-.17,.58s0,.07,0,.09c.09,.14,.14,.27,.16,.39,.03,.19,.01,.34-.07,.44-.05,.05-.1,.07-.16,.08-.07,0-.16,0-.27-.03v.58Zm.02-2.02h-.02v1.22c.08,.04,.14,.05,.18,.05,.03,0,.06,0,.08-.03,.02-.02,.03-.05,.03-.09,.02-.13-.04-.33-.18-.61h0s.14-.5,.14-.5c.01-.04,0-.06-.05-.05h-.18Zm1.21,1.59h-.51v-.18h.51v-.18h-.41c-.08,.12-.14,.21-.2,.27-.05-.06-.1-.11-.14-.13,.14-.14,.23-.3,.28-.5l.2,.07s-.03,.07-.04,.1h.32v-.17h.21v.17h.59v.18h-.59v.18h.55v.18h-.55v.2h.67v.19h-1.59v-.19h.71v-.2Zm-.67-.85l-.08-.18c.27-.06,.49-.13,.66-.19-.08-.07-.16-.14-.25-.2-.08,.08-.18,.15-.29,.21l-.11-.17c.12-.06,.21-.12,.26-.17,.07-.08,.14-.18,.2-.3l.21,.02s-.02,.04-.03,.06h.67l.15,.12c-.12,.17-.27,.32-.45,.45,.16,.08,.37,.15,.62,.19l-.1,.18c-.09-.03-.17-.05-.26-.07v.14h-.92v-.16c-.09,.03-.18,.05-.29,.08Zm1.09-.1c-.1-.05-.2-.09-.29-.14-.01-.01-.03-.02-.05-.03-.1,.05-.24,.1-.41,.17h.75Zm-.34-.38c.13-.08,.24-.17,.33-.26,0,0,0,0,0,0h-.62c.12,.12,.22,.21,.31,.27Z"/>
      <path class="cls-1" d="M16.51,5.49c.14,.07,.29,.17,.45,.29l-.13,.17c-.17-.13-.32-.22-.44-.28l.12-.18Zm.51,.73c-.1,.38-.24,.67-.42,.88l-.21-.1c.22-.26,.36-.53,.42-.83l.21,.04Zm-.49-1.34c.14,.07,.31,.17,.49,.29l-.13,.18c-.18-.14-.34-.23-.47-.29l.11-.18Zm.53,.26v-.21h1.74v.21h-.19v1.75c0,.1-.04,.17-.12,.21-.12,.08-.35,.07-.69,0v-.21c.13,.03,.22,.05,.27,.06,.07,0,.13,0,.17,0,.04,0,.08,0,.12-.05,.01-.02,.02-.04,.02-.07v-1.69h-1.32Zm1.04,1.49h-.84s-.06-.02-.06-.06v-1.15s.02-.06,.06-.06h.84s.06,.02,.06,.06v1.15s-.02,.06-.06,.06Zm-.66-1.05s-.01,0-.01,0v.82s0,0,.01,0h.5v-.83h-.01s-.49,0-.49,0Z"/>
    </g>
  </g>
</svg>