<?xml version="1.0" encoding="UTF-8"?>
<svg xmlns="http://www.w3.org/2000/svg" viewBox="0 0 8.67 29.1">
  <defs>
    <style>
      .cls-1 {
        fill: #fff;
      }

      .cls-2 {
        fill: #7a6a56;
      }

      .cls-3 {
        isolation: isolate;
      }

      .cls-4 {
        mix-blend-mode: overlay;
      }
    </style>
  </defs>
  <g class="cls-3">
    <g id="_圖層_2" data-name="圖層 2">
      <g id="_圖層_1-2" data-name="圖層 1">
        <g>
          <path class="cls-2" d="M.5,7.41s0,0,0,0c0,0,0,0,0,0,0,0,0,0,.01,0s.01,0,.02,0c0,0,0,0,.02,0,0,0,.01,0,.02,0,0,0,.02,0,.02,0,0,0,.02,0,.02,0,0,0,0,.01,0,.02,0,.01,0,.02,0,.02-.02,0-.03,0-.04,.01,0,0,0,.01,0,.02,0,0,0,0,0,.03s0,.05,0,.09c0,.04,0,.09,0,.16,0,.07,0,.15,0,.25,0,.01,0,.02,.01,.03,0,0,.02,.01,.04,.02,0,0,0,0,0,0,0,0,0,0,0,.01s0,0,0,.02c-.02,0-.04,0-.05,0-.02,0-.03,0-.04,0,0,0-.01,0-.02,0,0,0-.02,0-.03,0,0,0-.02,0-.03,0,0,0-.02,0-.02,0,0,0,0-.01,0-.02,0-.01,0-.02,0-.02,.02,0,.04-.01,.04-.02,0,0,.01-.01,.01-.03,0,0,0-.01,0-.04,0-.02,0-.05,0-.08,0-.03,0-.07,0-.11,0-.04,0-.07,0-.11,0-.03,0-.06,0-.09,0-.02,0-.04,0-.04l-.18,.53s0,.01,0,.01c0,0,0,0,0,0,0,0,0,0,0,0l-.2-.57s0,.02,0,.05c0,.03,0,.06,0,.09,0,.04,0,.07,0,.11,0,.04,0,.08,0,.11,0,.03,0,.06,0,.08,0,.02,0,.03,0,.04,0,.02,.02,.04,.05,.04,0,0,0,0,0,.02,0,0,0,0,0,.02-.01,0-.03,0-.04,0-.01,0-.03,0-.04,0,0,0-.02,0-.03,0-.01,0-.03,0-.04,0,0,0,0-.01,0-.02,0,0,0-.01,0-.02,.01,0,.03,0,.04-.01,0,0,.01-.02,.01-.03,0,0,0-.02,0-.05,0-.03,0-.06,0-.1s0-.08,0-.12c0-.04,0-.08,0-.12,0-.04,0-.07,0-.09,0-.02,0-.04,0-.04,0-.01,0-.02-.01-.02,0,0-.02,0-.04-.01,0,0,0,0,0-.02,0,0,0,0,0-.02,0,0,.01,0,.02,0,0,0,.02,0,.03,0,0,0,.02,0,.03,0,0,0,.01,0,.02,0,0,0,.02,0,.02,0s0,0,.01,0c0,0,0,0,0,0,0,0,0,0,0,0l.17,.5,.16-.5Z"/>
          <path class="cls-2" d="M1.67,7.43v.26h.13s.02,0,.02-.02c0-.01,0-.03,.01-.05,0,0,0-.01,.01-.01,0,0,0,0,0,0,0,0,0,0,0,0,0,.01,0,.03,0,.05,0,.02,0,.04,0,.05,0,.01,0,.03,0,.04,0,.02,0,.04,0,.06,0,0,0,0-.01,0,0,0-.01,0-.02-.01,0-.02,0-.03-.01-.05,0-.01-.01-.02-.02-.02h-.13v.24s0,.02,.02,.03c.01,0,.04,0,.07,0h.04s.03,0,.04,0c.01,0,.02-.01,.03-.02,0,0,.02-.02,.02-.03,0-.01,.01-.03,.02-.04,0,0,0,0,.01,0,0,0,0,0,0,0s0,0,0,0c0,.01,0,.03-.01,.05,0,.02,0,.03-.01,.05,0,.02,0,.03-.01,.04,0,.01,0,.02-.01,.02,0,0-.01,0-.02,0,0,0-.02,0-.03,0,0,0-.02,0-.03,0,0,0-.02,0-.02,0h-.18s-.03,0-.05,0c-.02,0-.03,0-.05,0,0,0,0-.01,0-.02,0,0,0-.01,0-.02,.02,0,.04,0,.04-.02,0,0,.01-.01,.01-.03v-.51s0-.02-.01-.03c0,0-.02-.01-.05-.02,0,0,0,0,0-.02,0,0,0,0,0,0,0,0,0,0,0,0,.02,0,.04,0,.06,0,.02,0,.03,0,.04,0h.16s.05,0,.06,0c.02,0,.03,0,.04,0,0,0,.01,0,.01,.02,0,.01,0,.02,0,.04,0,.02,0,.03,0,.05,0,.02,0,.03,.01,.04,0,0,0,0-.01,0,0,0-.01,0-.01,0,0-.02-.01-.03-.02-.04,0-.01-.01-.02-.02-.03,0,0-.02-.01-.03-.02-.01,0-.02,0-.04,0h-.12Z"/>
          <path class="cls-2" d="M3.36,7.75h-.06v.22s0,.02,.02,.03,.03,0,.05,.01c0,0,0,0,0,.02,0,0,0,.01,0,.02-.01,0-.03,0-.05,0-.02,0-.04,0-.06,0-.01,0-.03,0-.05,0-.02,0-.04,0-.05,0,0,0,0-.01,0-.02,0,0,0-.01,0-.02,.02,0,.03,0,.04-.01,0,0,.01-.02,.01-.03v-.51s0-.02-.01-.03c0,0-.02-.01-.05-.01,0,0,0,0,0-.02,0,0,0,0,0-.02,.02,0,.03,0,.05,0s.03,0,.05,0h.11c.06,0,.1,.02,.13,.05,.03,.03,.04,.08,.04,.13,0,.01,0,.03,0,.05s-.01,.03-.02,.05c0,.02-.02,.03-.03,.04-.01,.01-.03,.02-.05,.03l.13,.23s.02,.03,.03,.04c.01,0,.02,.01,.03,.02,0,0,0,0,0,.01,0,0,0,.01,0,.02-.01,0-.03,0-.05,0-.02,0-.03,0-.05,0-.01,0-.02,0-.03-.02-.01-.01-.02-.03-.03-.05l-.13-.23Zm-.02-.04s.07,0,.09-.03c.02-.02,.03-.05,.03-.1,0-.02,0-.04,0-.06,0-.02-.01-.03-.02-.05,0-.01-.02-.02-.04-.03-.02,0-.03-.01-.06-.01h-.04v.28h.04Z"/>
          <path class="cls-2" d="M4.61,7.97s0,.02,.01,.03c0,0,.02,.01,.04,.02,0,0,0,0,0,.02,0,0,0,0,0,.02-.02,0-.03,0-.05,0-.02,0-.03,0-.05,0s-.03,0-.05,0c-.02,0-.03,0-.05,0,0,0,0-.01,0-.02,0,0,0-.01,0-.02,.02,0,.03,0,.04-.02s.01-.01,.01-.03v-.51s0-.02-.01-.03c0,0-.02-.01-.04-.01,0,0,0,0,0,0,0,0,0,0,0-.01s0,0,0-.02c.02,0,.03,0,.05,0,.02,0,.03,0,.05,0s.03,0,.05,0c.02,0,.03,0,.05,0,0,0,0,.01,0,.02,0,.01,0,.02,0,.02-.02,0-.03,0-.04,.01,0,0-.01,.02-.01,.03v.51Z"/>
          <path class="cls-2" d="M5.95,7.47s0-.01,0-.02c0,0,0-.02-.01-.02,0,0-.02,0-.04-.01,0,0,0,0,0-.02,0,0,0,0,0,0,0,0,0,0,0,0,0,0,0,0,.01,0,0,0,.01,0,.02,0,0,0,.02,0,.03,0,0,0,.02,0,.03,0,.02,0,.03,0,.05,0,.01,0,.02,0,.03,0,0,0,0,0,0,0,0,0,0,0,0,0s0,0,0,0c0,.01,0,.02,0,.02-.02,0-.03,0-.04,.01,0,0-.01,.01-.02,.03l-.2,.6s0,0,0,0,0,0,0,0c0,0-.01,0-.01-.02l-.19-.59s0-.02-.02-.02c0,0-.02,0-.04-.01,0,0,0,0,0-.02,0,0,0-.01,0-.02,.02,0,.03,0,.05,0,.02,0,.04,0,.05,0s.03,0,.05,0,.04,0,.05,0c0,0,0,.01,0,.02,0,.01,0,.02,0,.02-.03,0-.05,.01-.05,.03,0,0,0,0,0,.01l.14,.44,.14-.43Z"/>
          <path class="cls-2" d="M7.03,7.43v.26h.13s.02,0,.02-.02c0-.01,0-.03,.01-.05,0,0,0-.01,.01-.01,0,0,0,0,0,0,0,0,0,0,0,0,0,.01,0,.03,0,.05,0,.02,0,.04,0,.05,0,.01,0,.03,0,.04,0,.02,0,.04,0,.06,0,0,0,0-.01,0,0,0-.01,0-.02-.01,0-.02,0-.03-.01-.05,0-.01-.01-.02-.02-.02h-.13v.24s0,.02,.02,.03c.01,0,.04,0,.07,0h.04s.03,0,.04,0c.01,0,.02-.01,.03-.02,0,0,.02-.02,.02-.03,0-.01,.01-.03,.02-.04,0,0,0,0,.01,0,0,0,0,0,0,0s0,0,0,0c0,.01,0,.03-.01,.05,0,.02,0,.03-.01,.05,0,.02,0,.03-.01,.04,0,.01,0,.02-.01,.02,0,0-.01,0-.02,0,0,0-.02,0-.03,0,0,0-.02,0-.03,0,0,0-.02,0-.02,0h-.18s-.03,0-.05,0c-.02,0-.03,0-.05,0,0,0,0-.01,0-.02,0,0,0-.01,0-.02,.02,0,.04,0,.04-.02,0,0,.01-.01,.01-.03v-.51s0-.02-.01-.03c0,0-.02-.01-.05-.02,0,0,0,0,0-.02,0,0,0,0,0,0,0,0,0,0,0,0,.02,0,.04,0,.06,0,.02,0,.03,0,.04,0h.16s.05,0,.06,0c.02,0,.03,0,.04,0,0,0,.01,0,.01,.02,0,.01,0,.02,0,.04,0,.02,0,.03,0,.05,0,.02,0,.03,.01,.04,0,0,0,0-.01,0,0,0-.01,0-.01,0,0-.02-.01-.03-.02-.04,0-.01-.01-.02-.02-.03,0,0-.02-.01-.03-.02-.01,0-.02,0-.04,0h-.12Z"/>
          <path class="cls-2" d="M8.38,7.75h-.06v.22s0,.02,.02,.03,.03,0,.05,.01c0,0,0,0,0,.02,0,0,0,.01,0,.02-.01,0-.03,0-.05,0-.02,0-.04,0-.06,0-.01,0-.03,0-.05,0-.02,0-.04,0-.05,0,0,0,0-.01,0-.02,0,0,0-.01,0-.02,.02,0,.03,0,.04-.01,0,0,.01-.02,.01-.03v-.51s0-.02-.01-.03c0,0-.02-.01-.05-.01,0,0,0,0,0-.02,0,0,0,0,0-.02,.02,0,.03,0,.05,0s.03,0,.05,0h.11c.06,0,.1,.02,.13,.05,.03,.03,.04,.08,.04,.13,0,.01,0,.03,0,.05s-.01,.03-.02,.05c0,.02-.02,.03-.03,.04-.01,.01-.03,.02-.05,.03l.13,.23s.02,.03,.03,.04c.01,0,.02,.01,.03,.02,0,0,0,0,0,.01,0,0,0,.01,0,.02-.01,0-.03,0-.05,0-.02,0-.03,0-.05,0-.01,0-.02,0-.03-.02-.01-.01-.02-.03-.03-.05l-.13-.23Zm-.02-.04s.07,0,.09-.03c.02-.02,.03-.05,.03-.1,0-.02,0-.04,0-.06,0-.02-.01-.03-.02-.05,0-.01-.02-.02-.04-.03-.02,0-.03-.01-.06-.01h-.04v.28h.04Z"/>
        </g>
        <g class="cls-4">
          <path class="cls-2" d="M6.26,6.91h0s.04,0,.04,0c.06-.03,.12-.07,.18-.11h-.03c-.06,.04-.12,.07-.19,.1Z"/>
          <path class="cls-2" d="M2.29,6.79c.05,.04,.11,.07,.17,.1v-.03s-.09-.05-.14-.08h-.02Z"/>
          <path class="cls-2" d="M8.19,3.63c0-.77-.23-1.49-.63-2.08C7.02,.78,6.2,.23,5.22,.07c-1.27-.21-2.63,.06-3.58,.97-.07,.06-.13,.13-.19,.2-.53,.65-.85,1.49-.85,2.4,0,1.32,.67,2.48,1.7,3.16h.02s.1,.05,.15,.08c0,0,0,0,0,0l.05-.37s0-.04,0-.06l.29-3.13,1.49,3.15c.03,.05,.05,.1,.06,.14v.02s.04-.09,.07-.14l1.49-3.15,.29,3.13s0,0,0,0l.06,.45c.06-.03,.12-.07,.19-.1h.03c1.03-.68,1.71-1.85,1.71-3.17Zm-1.52,2.4l-.4-3.68c-.01-.11-.03-.16-.07-.16s-.07,.04-.09,.1l-1.75,3.72h0s-1.75-3.73-1.75-3.73c-.02-.05-.05-.1-.09-.1s-.06,.05-.07,.16l-.4,3.68c0,.06-.02,.13-.03,.21-.11-.11-.21-.23-.31-.36-.85-1.12-.97-2.68-.31-3.92C2.09,.64,3.66-.26,5.14,.15c1.59,.44,2.65,1.89,2.68,3.52-.02,1-.42,1.94-1.11,2.61-.02-.09-.03-.17-.04-.25Z"/>
        </g>
        <rect class="cls-1" x="4.41" y="9.28" width=".1" height="19.83"/>
      </g>
    </g>
  </g>
</svg>