<?xml version="1.0" encoding="UTF-8"?>
<svg id="_圖層_2" data-name="圖層 2" xmlns="http://www.w3.org/2000/svg" viewBox="0 0 18.88 6.59">
  <defs>
    <style>
      .cls-1 {
        fill: #fff;
      }
    </style>
  </defs>
  <g id="_圖層_1-2" data-name="圖層 1">
    <g>
      <path class="cls-1" d="M.07,5.56c-.01-.06-.03-.13-.06-.2l.15-.03c.08-.07,.15-.16,.24-.26-.14-.13-.27-.23-.4-.29,.04-.06,.08-.12,.1-.18,.01,0,.04,.02,.08,.05,.08-.12,.14-.26,.21-.4,.06,.04,.12,.07,.19,.1-.05,.11-.12,.25-.23,.41,.05,.05,.1,.09,.16,.14,.09-.15,.16-.29,.21-.43l.2,.05c-.05,.21-.21,.47-.47,.78l.28-.05c-.03-.07-.04-.12-.05-.15l.2-.05c.09,.23,.14,.4,.16,.51l-.19,.04c-.02-.05-.03-.1-.04-.15l-.17,.02v1.1h-.22v-1.06l-.33,.05Zm.24,.14c-.05,.41-.09,.68-.11,.8l-.2-.04c.06-.27,.1-.54,.1-.79l.21,.03Zm.68,.49l-.2,.03-.07-.51,.2-.04,.07,.52Zm.28-.71h-.22v-.21h.25l.07-.7h-.31v-.21h1.13s.04,0,.06,.02c.03,.03,.04,.05,.03,.07l-.05,.83h.2v.21h-.22l-.05,.82h.28v.21H.9v-.21h.28l.08-.82Zm.67,.82l.05-.82h-.49l-.08,.82h.52Zm.07-1.03l.05-.66s0-.04-.03-.04h-.43l-.07,.7h.48Z"/>
      <path class="cls-1" d="M3.63,5.68c0,.22-.05,.48-.13,.77l-.21-.03c.08-.32,.12-.58,.12-.77l.22,.03Zm-.28-.15c0-.06-.02-.13-.05-.21l.19-.02c.07-.07,.14-.15,.23-.23-.13-.12-.27-.22-.41-.3,.04-.06,.08-.12,.1-.18,.02,0,.06,.03,.12,.07,.08-.12,.15-.26,.22-.4,.06,.04,.12,.07,.19,.1-.05,.11-.14,.25-.25,.43,.04,.03,.09,.07,.15,.12,.11-.16,.19-.32,.24-.46l.21,.07c-.07,.19-.24,.45-.51,.76l.35-.04c-.03-.08-.05-.14-.07-.17l.21-.07c.1,.24,.16,.41,.21,.52l-.21,.06c-.01-.05-.03-.1-.05-.15l-.22,.03v1.12h-.22v-1.1l-.41,.05Zm1.08,.78l-.21,.05-.14-.64,.21-.05,.14,.64Zm-.03-1.28l-.18-.13c.08-.09,.15-.19,.19-.28,.03-.08,.06-.2,.08-.36l.23,.02c-.01,.06-.02,.12-.03,.18h.91s.03,0,.05,0c.02,.01,.03,.05,.03,.11,0,.38,0,.72-.01,1.02-.01,.49-.11,.79-.3,.91-.14,.08-.38,.08-.73,0l-.02-.25c.32,.09,.53,.1,.62,.04,.05-.03,.1-.1,.14-.2,.04-.1,.06-.28,.07-.54,0-.56,0-.85,0-.88-.01,0-.02,0-.03,0h-.8c-.05,.12-.12,.24-.23,.36Zm.42-.05c.14,.34,.24,.64,.3,.88l-.22,.05c-.07-.26-.16-.55-.29-.87l.21-.06Z"/>
      <path class="cls-1" d="M6.88,6.49h-.23v-1.99s.02-.07,.07-.07h.54c.05,0,.08,.02,.08,.07v1.69c0,.05-.03,.08-.08,.08h-.39v.22Zm.03-1.84s-.03,0-.03,.03v1.38h.2s.05-.02,.05-.05v-1.33s-.01-.03-.04-.03h-.17Zm.63,.38l-.16-.19c.21-.08,.36-.17,.46-.24,.11-.08,.23-.19,.36-.33l.17,.1s-.02,.02-.03,.04c.18,.15,.4,.28,.67,.4l-.14,.19c-.25-.12-.47-.27-.66-.45-.2,.19-.42,.35-.67,.48Zm.24,1.49h-.23v-1.04s.01-.03,.03-.03h1.27s.05,.01,.05,.04v1.03h-.23v-.09h-.9v.09Zm1.01-1.49v.21h-1.12v-.21h1.12Zm-.1,1.19v-.53s-.01-.03-.03-.03h-.84s-.04,0-.03,.03v.53h.9Z"/>
      <path class="cls-1" d="M10.48,4.34c-.12,.27-.27,.47-.43,.6l-.19-.14c.19-.15,.32-.33,.41-.55l.21,.08Zm-.43,1.23l-.19-.14c.23-.18,.4-.4,.51-.65l.21,.09c-.08,.15-.16,.27-.23,.37v1.33h-.22v-1.08s-.06,.06-.09,.09Zm.77,.29c-.03,.25-.1,.46-.21,.63-.08-.05-.14-.09-.18-.11,.1-.16,.16-.34,.16-.56l.23,.03Zm1.37-.48h-1.53s-.03,0-.03-.03v-.56s.01-.03,.03-.03h.62v-.15h-.71v-.19h.71v-.16h.22v.16h.77v.19h-.77v.15h.7s.03,0,.03,.03v.56s-.01,.03-.03,.03Zm.09,.13v.19h-1.7v-.19h1.7Zm-1.2-.56h-.25s0,0,0,0v.22h0s.25,0,.25,0v-.24Zm.05,.87v.38c0,.06,.01,.09,.02,.1,.03,.03,.06,.04,.11,.04h.33s.07,0,.09,0c.01,0,.03-.02,.05-.05,0-.02,.01-.08,.01-.18l.23,.03c-.01,.18-.03,.28-.06,.32-.03,.04-.07,.06-.09,.07-.04,.01-.09,.02-.15,.02h-.49c-.07,0-.12-.02-.14-.04-.08-.06-.11-.15-.11-.26v-.42h.22Zm.35-.04s.04,.08,.07,.15c.04,.07,.07,.13,.09,.18l-.19,.07c-.06-.12-.12-.22-.16-.3l.2-.09Zm.05-.83h-.24v.24h.24v-.24Zm.22,.24h.26s.01,0,.01,0v-.22s0,0-.01,0h-.26v.24Zm.33,.58c.1,.16,.18,.35,.25,.59l-.21,.07c-.08-.25-.15-.44-.24-.58l.19-.09Z"/>
      <path class="cls-1" d="M13.5,5.59s-.01-.03-.03-.03h-.25v-.21h.44s.06,.02,.06,.06v.59s.03,.1,.08,.16c.05,.06,.12,.11,.21,.14,.09,.03,.21,.05,.38,.04,.45,0,.85-.01,1.2-.02l-.06,.23c-.45,0-.88,0-1.27,0-.31-.02-.52-.12-.63-.3-.01,.06-.06,.12-.14,.19-.08,.07-.16,.12-.23,.15l-.11-.2c.14-.06,.24-.12,.28-.18,.04-.05,.07-.1,.07-.16v-.45Zm-.2-.81c.12,.07,.26,.17,.4,.28l-.14,.18c-.15-.13-.28-.22-.38-.28l.12-.18Zm.05-.5c.12,.07,.26,.17,.4,.28l-.14,.18c-.15-.13-.28-.22-.38-.28l.12-.18Zm.61,.69s0-.03,0-.05l.23-.34v-.03h-.01s-.37,0-.37,0v-.2h.56l.13,.08-.31,.49s-.02,.04-.02,.05c.04,.06,.08,.13,.1,.19,.08-.04,.15-.07,.2-.1l.1,.19c-.05,.03-.13,.06-.24,.11,.03,.13,.05,.25,.06,.37,0,.1-.02,.19-.07,.27-.03,.06-.07,.11-.11,.14-.05,.03-.11,.04-.17,.04-.05,0-.13-.04-.26-.11l.06-.2c.1,.06,.15,.1,.17,.1,.03,0,.05,0,.08,0,.02-.02,.04-.05,.06-.09,.04-.1,.04-.25-.01-.43-.12,.05-.22,.09-.3,.12l-.09-.19c.1-.03,.21-.07,.33-.12-.03-.08-.08-.18-.14-.27Zm.88,.71c-.1,.24-.18,.4-.23,.49l-.17-.1c.06-.11,.14-.27,.23-.47l.17,.08Zm-.28-.18c-.01-.06-.03-.12-.05-.19l.27-.03s.07-.09,.11-.13c-.14-.12-.27-.22-.4-.28,.03-.06,.06-.12,.09-.17,.01,0,.05,.02,.12,.07,.06-.08,.11-.16,.15-.24-.1,0-.19,.01-.26,.02l-.03-.2c.39-.02,.68-.05,.87-.09l.03,.19c-.08,.02-.19,.04-.34,.06h-.03c-.06,.1-.14,.22-.25,.38,.05,.03,.1,.07,.14,.11,.08-.1,.15-.21,.24-.33l.15,.1c-.08,.14-.2,.3-.35,.5l.3-.03c-.03-.1-.04-.16-.05-.19l.18-.03c.05,.13,.09,.28,.11,.46l-.19,.03s-.01-.07-.02-.1l-.25,.03v.8h-.21v-.78l-.37,.04Zm.87,.11c.05,.11,.1,.26,.16,.46l-.2,.05c-.04-.14-.1-.3-.16-.46l.2-.05Z"/>
      <path class="cls-1" d="M16.58,4.91c.14,.07,.29,.17,.45,.29l-.13,.18c-.17-.13-.32-.22-.44-.28l.12-.19Zm.51,.73c-.1,.38-.24,.67-.42,.89l-.22-.1c.22-.26,.36-.54,.42-.83l.22,.04Zm-.49-1.35c.14,.07,.31,.17,.49,.29l-.13,.19c-.18-.14-.34-.23-.47-.29l.11-.19Zm.53,.26v-.21h1.75v.21h-.2v1.76c0,.1-.04,.17-.12,.21-.12,.08-.35,.07-.69,0v-.21c.13,.03,.22,.05,.27,.06,.07,0,.13,0,.17,0,.04,0,.08,0,.12-.05,.01-.02,.02-.04,.02-.07v-1.7h-1.32Zm1.05,1.49h-.84s-.06-.02-.06-.06v-1.15s.02-.06,.06-.06h.84s.06,.02,.06,.06v1.15s-.02,.06-.06,.06Zm-.67-1.05s-.01,0-.01,0v.82s0,0,.01,0h.5v-.83h0s-.49,0-.49,0Z"/>
    </g>
    <g>
      <path class="cls-1" d="M6.09,2.19l-.22,.18s-.12-.12-.28-.3c-.16-.17-.41-.44-.74-.8v-.02s.11-.04,.18-.07c.08-.04,.14-.08,.19-.12,.04-.04,.08-.09,.12-.14,.03-.06,.05-.13,.05-.23,0-.09-.02-.16-.07-.23-.05-.06-.12-.11-.2-.14-.07-.02-.14-.04-.22-.04-.08,0-.15,0-.21,0-.04,0-.08,0-.1,0-.02,0-.04,0-.05,0,0,.22,0,.41,0,.57,0,.17,0,.28,0,.35,0,.16,0,.37,0,.63,0,.27,0,.44,0,.5h-.3c0-.07,0-.2,0-.4s0-.44,0-.73v-.32c0-.15,0-.43,0-.84,.01,0,.07,0,.18,0s.21,0,.3,0c.1,0,.2,0,.3,.02s.19,.04,.29,.07c.12,.05,.21,.12,.28,.21s.1,.2,.1,.33c0,.16-.05,.3-.16,.4-.1,.11-.2,.19-.3,.24h0c.16,.19,.34,.38,.54,.57s.3,.3,.32,.31Z"/>
      <path class="cls-1" d="M7.24,2.33h-.3c0-.07,0-.19,0-.36,0-.18,0-.43,0-.75,0-.13,0-.3,0-.51,0-.21,0-.43,0-.65h.3c0,.16,0,.35,0,.57s0,.39,0,.53c0,.35,0,.61,0,.8s0,.32,0,.39Z"/>
      <path class="cls-1" d="M10.43,.12s-.13,.27-.38,.78c-.25,.51-.48,.99-.71,1.46h-.24c-.25-.53-.48-1.02-.71-1.49-.23-.47-.34-.71-.36-.74L8.32,0s.12,.26,.32,.71c.21,.45,.41,.88,.6,1.27h0c.2-.41,.4-.84,.61-1.29s.32-.68,.33-.7l.25,.12Z"/>
      <path class="cls-1" d="M12.78,2.32s-.09,0-.24,0c-.15,0-.33,0-.55,0-.15,0-.29,0-.42,0-.13,0-.23,0-.32,0,0-.07,0-.21,0-.43,0-.22,0-.45,0-.68,0-.13,0-.3,0-.51,0-.21,0-.43,0-.66,.08,0,.19,0,.32,0s.26,0,.39,0c.23,0,.42,0,.56,0s.22,0,.23,0v.24s-.09,0-.23,0c-.14,0-.31,0-.52,0-.09,0-.18,0-.26,0-.09,0-.15,0-.2,0,0,.13,0,.26,0,.38s0,.25,0,.36c.05,0,.12,0,.19,0,.07,0,.14,0,.2,0,.21,0,.4,0,.56,0,.17,0,.25,0,.26,0v.24s-.11,0-.3,0c-.19,0-.36,0-.52,0-.06,0-.13,0-.21,0s-.15,0-.2,0c0,.21,0,.39,0,.51,0,.13,0,.23,0,.32,.07,0,.16,0,.26,0s.21,0,.32,0c.18,0,.33,0,.45,0,.12,0,.19,0,.2,0v.24Z"/>
      <path class="cls-1" d="M15.69,2.19l-.22,.18s-.12-.12-.28-.3-.41-.44-.74-.8v-.02s.11-.04,.18-.07c.08-.04,.14-.08,.19-.12,.04-.04,.08-.09,.12-.14,.03-.06,.05-.13,.05-.23,0-.09-.02-.16-.07-.23-.05-.06-.12-.11-.2-.14-.07-.02-.14-.04-.22-.04-.08,0-.15,0-.21,0-.04,0-.08,0-.1,0s-.04,0-.05,0c0,.22,0,.41,0,.57s0,.28,0,.35c0,.16,0,.37,0,.63s0,.44,0,.5h-.3c0-.07,0-.2,0-.4,0-.2,0-.44,0-.73v-.32c0-.15,0-.43,0-.84,.01,0,.07,0,.18,0s.21,0,.3,0c.1,0,.2,0,.3,.02,.1,.01,.19,.04,.29,.07,.12,.05,.21,.12,.28,.21s.1,.2,.1,.33c0,.16-.05,.3-.16,.4-.1,.11-.2,.19-.3,.24h0c.16,.19,.34,.38,.54,.57,.2,.19,.3,.3,.32,.31Z"/>
    </g>
  </g>
</svg>