<?xml version="1.0" encoding="UTF-8"?>
<svg xmlns="http://www.w3.org/2000/svg" xmlns:xlink="http://www.w3.org/1999/xlink" viewBox="0 0 14.51 2.85">
  <defs>
    <style>
      .cls-1 {
        fill: url(#_新增漸層色票_5);
      }

      .cls-2 {
        isolation: isolate;
      }

      .cls-3 {
        fill: url(#_未命名漸層_5);
      }

      .cls-4 {
        mix-blend-mode: multiply;
        opacity: .5;
      }

      .cls-5 {
        fill: url(#_未命名漸層_7);
      }

      .cls-6 {
        fill: url(#_新增漸層色票_5-2);
      }

      .cls-7 {
        fill: url(#_新增漸層色票_6);
      }

      .cls-8 {
        fill: #231815;
      }

      .cls-9 {
        fill: url(#_新增漸層色票_5-3);
      }

      .cls-10 {
        fill: url(#_新增漸層色票_5-4);
      }

      .cls-11 {
        fill: url(#_未命名漸層_6);
      }

      .cls-12 {
        fill: #727171;
      }
    </style>
    <linearGradient id="_新增漸層色票_5" data-name="新增漸層色票 5" x1="-.64" y1="2.45" x2="3.16" y2="-1.18" gradientTransform="translate(.75 -.89) rotate(.06)" gradientUnits="userSpaceOnUse">
      <stop offset="0" stop-color="#fff"/>
      <stop offset=".1" stop-color="#e3dbd5"/>
      <stop offset=".21" stop-color="#c7b8ad"/>
      <stop offset=".31" stop-color="#b49f90"/>
      <stop offset=".4" stop-color="#a8907e"/>
      <stop offset=".47" stop-color="#a48b78"/>
      <stop offset=".52" stop-color="#ac9381"/>
      <stop offset=".66" stop-color="#bca292"/>
      <stop offset=".81" stop-color="#c5ac9c"/>
      <stop offset=".99" stop-color="#c9afa0"/>
    </linearGradient>
    <linearGradient id="_新增漸層色票_6" data-name="新增漸層色票 6" x1="-1.15" y1="1.88" x2="1.12" y2="3.69" gradientTransform="translate(.75 -.89) rotate(.06)" gradientUnits="userSpaceOnUse">
      <stop offset="0" stop-color="#fff"/>
      <stop offset=".05" stop-color="#d8d3d0"/>
      <stop offset=".12" stop-color="#aea39d"/>
      <stop offset=".18" stop-color="#8c7d74"/>
      <stop offset=".23" stop-color="#736257"/>
      <stop offset=".28" stop-color="#655145"/>
      <stop offset=".31" stop-color="#604c3f"/>
      <stop offset=".43" stop-color="#645043"/>
      <stop offset=".57" stop-color="#725d50"/>
      <stop offset=".72" stop-color="#8a7365"/>
      <stop offset=".87" stop-color="#aa9283"/>
      <stop offset=".99" stop-color="#c9afa0"/>
    </linearGradient>
    <linearGradient id="_未命名漸層_7" data-name="未命名漸層 7" x1="4.19" y1="3.41" x2="-1.78" y2="-1.38" gradientTransform="translate(.75 -.89) rotate(.06)" gradientUnits="userSpaceOnUse">
      <stop offset="0" stop-color="#fff"/>
      <stop offset=".02" stop-color="#d8d3d0"/>
      <stop offset=".06" stop-color="#aea39d"/>
      <stop offset=".08" stop-color="#8c7d74"/>
      <stop offset=".11" stop-color="#736257"/>
      <stop offset=".13" stop-color="#655145"/>
      <stop offset=".15" stop-color="#604c3f"/>
      <stop offset=".23" stop-color="#645043"/>
      <stop offset=".32" stop-color="#715c4e"/>
      <stop offset=".41" stop-color="#867062"/>
      <stop offset=".5" stop-color="#a48c7e"/>
      <stop offset=".58" stop-color="#c9afa0"/>
    </linearGradient>
    <linearGradient id="_未命名漸層_6" data-name="未命名漸層 6" x1="-.63" y1=".85" x2="2.49" y2="4.03" gradientTransform="translate(.75 -.89) rotate(.06)" gradientUnits="userSpaceOnUse">
      <stop offset="0" stop-color="#fff"/>
      <stop offset=".05" stop-color="#d8d3d0"/>
      <stop offset=".12" stop-color="#aea39d"/>
      <stop offset=".18" stop-color="#8c7d74"/>
      <stop offset=".23" stop-color="#736257"/>
      <stop offset=".28" stop-color="#655145"/>
      <stop offset=".31" stop-color="#604c3f"/>
      <stop offset=".51" stop-color="#624e41"/>
      <stop offset=".64" stop-color="#6a5649"/>
      <stop offset=".74" stop-color="#796356"/>
      <stop offset=".83" stop-color="#8d7769"/>
      <stop offset=".91" stop-color="#a78f81"/>
      <stop offset=".98" stop-color="#c7ad9e"/>
      <stop offset=".99" stop-color="#c9afa0"/>
    </linearGradient>
    <linearGradient id="_新增漸層色票_5-2" data-name="新增漸層色票 5" x1=".33" y1="3.37" x2="3.89" y2=".03" xlink:href="#_新增漸層色票_5"/>
    <linearGradient id="_新增漸層色票_5-3" data-name="新增漸層色票 5" x1="1.3" y1="3.67" x2="6.26" y2="-1.29" xlink:href="#_新增漸層色票_5"/>
    <linearGradient id="_新增漸層色票_5-4" data-name="新增漸層色票 5" x1=".21" y1="2.78" x2="5.39" y2="-1.76" xlink:href="#_新增漸層色票_5"/>
    <linearGradient id="_未命名漸層_5" data-name="未命名漸層 5" x1=".65" y1="1.61" x2="2.31" y2="2.96" gradientTransform="translate(.75 -.89) rotate(.06)" gradientUnits="userSpaceOnUse">
      <stop offset="0" stop-color="#fff"/>
      <stop offset=".05" stop-color="#d8d3d0"/>
      <stop offset=".12" stop-color="#aea39d"/>
      <stop offset=".18" stop-color="#8c7d74"/>
      <stop offset=".23" stop-color="#736257"/>
      <stop offset=".28" stop-color="#655145"/>
      <stop offset=".31" stop-color="#604c3f"/>
      <stop offset=".47" stop-color="#806a5d"/>
      <stop offset=".7" stop-color="#a78f81"/>
      <stop offset=".88" stop-color="#c0a697"/>
      <stop offset=".99" stop-color="#c9afa0"/>
    </linearGradient>
  </defs>
  <g class="cls-2">
    <g id="_圖層_2" data-name="圖層 2">
      <g id="_圖層_1-2" data-name="圖層 1">
        <g>
          <path class="cls-8" d="M6.11,.72s-.03-.02-.05-.01c-.02,0-.03,0-.04,.02-.01,.02-.02,.04-.03,.07,0,.04-.01,.07-.03,.08-.01,.01-.04,.02-.06,.01h0s-.03-.01-.04,0c0,0-.02,.02-.05,.07-.01,.02-.02,.04-.02,.05,0,.01,0,.03,.01,.04,0,0,.01,.01,.02,.02,0,0,.02,0,.02,0,0,0,.03-.02,.1-.03h0s0,0,0,0c.03,0,.05,.03,.05,.08,0,.04,.02,.06,.03,.07,0,0,.02,0,.03,0,.05,0,.07-.04,.08-.12,0-.01,0-.02,.02-.03,0,0,.03-.01,.05-.01,.04,0,.06,0,.08,0,.02,0,.03,0,.04-.01,0,0,.01-.01,.02-.02,0,0,0-.02,0-.03,0-.02,0-.03-.02-.04,0,0-.03-.02-.11-.02h0s-.05,0-.07-.02c0,0-.02-.03-.04-.1,0-.02-.02-.04-.04-.05Z"/>
          <path class="cls-8" d="M5.51,.92s0,0-.03,0c-.02,0-.04,0-.07,0-.01,0-.02,0-.03,0-.01,0-.02-.02-.02-.04,0-.02,0-.05-.01-.08,0-.02-.01-.04-.03-.04-.01,0-.03-.01-.04-.01-.01,0-.03,0-.04,.02-.01,.01-.02,.03-.03,.06,0,.01,0,.02,0,.03,0,.01,0,.02,0,.04,0,.02,0,.03-.02,.04,0,0-.01,0-.03,0,0,0-.02,0-.03,0,0,0-.02,0-.02,0-.02,0-.03,0-.05,0-.01,0-.03,.02-.05,.05-.01,.02-.02,.02-.03,.02,0,0-.02,0-.03-.02-.01-.02-.03-.05-.06-.08-.03-.03-.07-.09-.13-.16-.02-.03-.02-.05-.01-.06,0-.01,.02-.03,.06-.03,0,0,.02,0,.04,0,.02,0,.03,0,.05,0,.03,0,.04,0,.05,0,.01,0,.02-.02,.02-.04,0-.03,0-.06,0-.07,0,0-.01-.01-.02-.01-.03,0-.05,0-.07,0-.02,0-.04,0-.06-.01,0,0-.02,0-.03-.03,0-.01,0-.03,0-.07,.01-.07,.01-.12,0-.16,0-.04-.02-.07-.04-.1-.01-.02-.03-.03-.04-.04-.02-.01-.03-.02-.05-.02-.05-.01-.06,0-.07,.03-.01,.04-.02,.11-.02,.22,0,.08-.01,.13-.05,.15-.03,.02-.08,.02-.13,0-.02,0-.04,0-.06,0-.02,0-.03,.01-.05,.03-.01,.01-.03,.03-.03,.06,0,.02-.01,.05-.01,.07,0,.04,.01,.07,.03,.08,.01,0,.04,.01,.09,0,.04-.01,.07-.02,.1-.03,.03,0,.05-.01,.07-.02,.02,0,.04,0,.05,.02,0,.01,0,.03,0,.06-.03,.08-.06,.15-.11,.21-.04,.07-.1,.13-.18,.19-.02,.02-.05,.03-.07,.04-.03,.01-.05,.02-.08,.03-.01,0-.02,.01-.03,.02,0,0,0,.01,.01,.04,.05,.1,.09,.12,.11,.13,.03,0,.07,0,.12-.05,.04-.04,.07-.07,.1-.11,.03-.04,.05-.07,.06-.1,0-.01,.02-.03,.03-.03,.02,0,.02,.03,.02,.04v.12s0,.09,0,.14c0,.05,0,.09,0,.14,0,.05,0,.09,0,.12,0,.06,0,.1,0,.14,0,.03,0,.06,0,.08s0,.04,0,.05c0,.01,0,.02,0,.03,.01,.09,.02,.11,.03,.12,.01,.01,.02,.01,.04,0,.04-.02,.07-.03,.08-.05,.02-.02,.03-.05,.03-.09,0-.01,0-.03,0-.06,0-.03,0-.06,0-.11s0-.12,0-.21c0-.09,0-.2,0-.33v-.15s0-.03,.02-.04c.02,0,.03,0,.04,0,.02,.02,.04,.04,.06,.05,.02,.02,.03,.03,.04,.04,.02,.01,.03,.02,.04,.02,0,0,.02,0,.02-.02,0,0,.01-.03,.03-.03,.02,0,.04,0,.06-.01,0,0,.02-.01,.04-.01,.01,0,.04,0,.06-.01,0,0,0,0,.01,0,0,0,.01,.01,.02,.02,0,0,.01,.02,.02,.08,0,.02,.01,.04,.02,.05,.01,0,.03,.01,.04,.01,.02,0,.04-.01,.05-.02,0,0,.02-.03,.02-.07,0-.03,.01-.05,.03-.06,.01,0,.03-.01,.04-.01,.06,0,.07-.01,.07-.01,0,0,0-.02,0-.05,0-.01,0-.02,0-.03,0,0,0,0,0-.01Z"/>
          <path class="cls-8" d="M6.5,1.26c-.06,0-.14,0-.23,0-.05,0-.1,0-.17,0-.06,0-.12,0-.17,0h-.14s-.04,0-.04-.06c0-.05,0-.11,0-.16,0-.05,0-.1,0-.15s0-.08,0-.11c0-.03,0-.06,0-.07,0-.01,0-.02,0-.02,0,0,.02-.01,.03-.01h.06s.06,0,.09,0c.03,0,.06,0,.09,0h.07s.04,0,.06,0c.02,0,.04,0,.06,0,.03,0,.03,0,.03,0,0,0,0-.01,0-.04,0-.03,0-.04-.01-.05,0,0-.02-.01-.03-.01-.01,0-.03,0-.05,0-.02,0-.05,0-.07,0,0,0-.03,0-.03-.01,0-.02,.02-.02,.03-.03,.03-.01,.04-.05,.05-.11,0-.01,0-.02,.02-.03,0,0,.03-.01,.06-.01,.04,0,.07,0,.1,0,.02,0,.04,0,.05-.01,0,0,.02-.01,.02-.02,0,0,0-.02,0-.04,0-.03,0-.04-.01-.05-.01,0-.04-.02-.12-.02h0s-.06,0-.07-.02c-.02-.02-.03-.05-.05-.11,0-.03-.02-.05-.04-.06-.02-.01-.04-.02-.05-.02-.02,0-.03,.01-.05,.03-.02,.02-.02,.04-.03,.08,0,.05-.01,.08-.03,.09-.02,.01-.04,.02-.07,.01h0s-.04,0-.04,0c0,0-.03,.02-.06,.08-.01,.02-.02,.04-.02,.06,0,.02,0,.03,0,.04,0,0,.02,.02,.03,.02,.01,0,.02,0,.03,0,0,0,.02,0,.04-.02,.02,0,.04-.01,.07-.02,.02,0,.03,0,.04,.02,0,.01,.01,.03,.02,.06,0,.02,0,.03,.01,.05,0,.01,0,.02,.02,.03,0,0,.02,.01,.01,.03,0,.01-.02,.01-.03,.01-.08,0-.17,0-.26,0-.09,0-.17,0-.25,0-.02,0-.03-.01-.03-.02,0,0,0-.01,0-.03,0-.01,.01-.04,.02-.07,0-.03,.02-.05,.04-.06,.02,0,.03-.01,.04-.01,.07,0,.09-.01,.1-.02,.01-.01,.02-.03,.02-.06,0-.03,0-.04-.02-.05-.01,0-.04-.01-.13-.02-.02,0-.05,0-.06-.05,0-.02,0-.03,0-.05,0-.01,0-.03,0-.04,0-.02-.02-.04-.04-.05-.02-.01-.03-.02-.05-.01-.02,0-.03,.01-.05,.03-.02,.02-.03,.04-.03,.07,0,.01,0,.02,0,.03,0,.01,0,.03,0,.04,0,.02,0,.03-.02,.04,0,0-.02,0-.03,0-.01,0-.02,0-.03,0h-.03s-.04-.02-.07,0c-.03,0-.05,.03-.08,.07-.01,.02-.02,.04-.02,.06,0,.02,0,.03,.01,.04,0,.01,.02,.02,.04,.02,.02,0,.04,0,.07-.02,0,0,.02,0,.04-.01,.02,0,.04,0,.07-.01,0,0,.02,0,.04,.02,0,0,.01,.03,.02,.09,0,.01,0,.02,.01,.03h0s0,.02,0,.03c0,0-.01,.02-.03,.02-.02,0-.04,0-.06,0-.02,0-.04-.01-.05-.02,0,0,0,0-.02,0-.01,0-.02,.01-.02,.02-.01,.02-.02,.03-.03,.05,0,.02-.01,.04-.02,.06,0,.02,0,.03,.01,.03,0,0,.02,0,.03,0,.02,0,.04-.01,.08-.01,.02,0,.04,0,.07,0,.03,0,.06,0,.09,0,.03,0,.06,0,.09,0,.03,0,.06,0,.08,0,0,0,.03,0,.03,.04v.49s-.02,.05-.04,.05c-.06,0-.11,0-.15,0-.04,0-.09,0-.13,.01-.06,.01-.11,0-.14-.03,0,0-.02,0-.04,0-.02,0-.04,.02-.08,.04-.02,.02-.05,.04-.06,.06-.01,.01-.03,.02-.03,.03,0,0,0,.01,0,.02,0,0,0,.02,0,.03,0,.03,.02,.05,.05,.06,.03,0,.06,0,.1-.02,.03-.01,.05-.02,.08-.03,.02,0,.05-.02,.08-.02,.03,0,.06-.01,.09-.01,.03,0,.07,0,.11-.01,.04,0,.09,0,.13,0h0s.04,.02,.04,.05v.05s0,.04,0,.06c0,.01,0,.02,0,.03,0,0-.02,.01-.03,.01-.02,0-.05,0-.07,0-.03,0-.05,0-.08,0-.03,0-.05,0-.07,0-.02,0-.03,0-.05,0-.01,0-.03,0-.05,0-.01,0-.04,.01-.09,.05-.06,.04-.05,.06-.04,.07,0,.01,.01,.02,.02,.03,0,.01,.02,.02,.03,.02,.01,0,.03,0,.05,.01,.02,0,.04,0,.07-.01,.02,0,.04-.01,.08-.02,.03,0,.07,0,.13-.01,0,0,.01,0,.02,0,.01,0,.03,0,.04,0,.01,0,.03,0,.04,.01,0,0,0,.02,0,.03,0,.01,0,.02,0,.03v.03c0,.12,0,.17,.01,.19,0,0,.02,.04,.09,.02,.02,0,.04-.01,.05-.02,.01,0,.02-.02,.03-.04,0-.02,.01-.04,.01-.07,0-.03,0-.07,0-.13v-.03s.03-.05,.04-.05c.03,0,.07,0,.1,0,.03,0,.05,0,.07,0,.02,0,.04,0,.07,0,.05,0,.11,0,.17,0,.03,0,.05,0,.07,0,.05,0,.06-.01,.07-.02,0,0,.01-.02,.01-.03,0-.02,0-.04-.01-.05,0-.01-.02-.02-.03-.02-.09,0-.17,0-.25,0-.08,0-.16,0-.24,0-.01,0-.04,0-.04-.05v-.1s.01-.04,.04-.04c.05,0,.1,0,.14,0,.04,0,.07,0,.09,.01,.03,0,.07,.02,.12,.03,.05,.01,.11,.03,.17,.04,.03,0,.05,0,.08,0,.02,0,.05,0,.08-.02,.01,0,.03-.01,.04-.02,.02-.01,.03-.02,.04-.04,.01-.01,.03-.03,.04-.05,.01-.02,.02-.03,.02-.04,0,0,0-.01,0-.02,0,0,0,0-.02,0-.03,0-.06,0-.09,0Z"/>
          <path class="cls-8" d="M7.67,.69s.08-.06,.14-.12c.02-.03,.04-.07,.04-.1,0-.03,0-.06-.01-.09,0-.01-.02-.02-.03-.03-.01,0-.03-.02-.06-.03,0,0-.01,0-.02,0,0,0-.02,0-.03,.02-.01,.02-.02,.04-.02,.07,0,.04,0,.08,0,.13,0,.05-.03,.09-.04,.13,0,.02-.01,.03,0,.04,0,0,.03,0,.04,0Z"/>
          <path class="cls-8" d="M7.11,.64s.09,.08,.14,.08c.02,0,.04,0,.05,0,0,0,0-.02,0-.04h0s-.02-.05-.03-.09c-.01-.03-.02-.08-.04-.15,0-.04-.02-.06-.04-.08-.01-.01-.02-.02-.04-.02,0,0-.01,0-.02,0-.02,0-.04,.02-.05,.04-.01,.02-.02,.04-.02,.07,0,.02,0,.05,.01,.09,.01,.04,.03,.07,.05,.09Z"/>
          <path class="cls-8" d="M7.92,1.31s0,0,0,0c0,0,0,0-.01,.01-.03,.04-.06,.08-.08,.11-.03,.03-.06,.05-.09,.08-.02,0-.03,.02-.04,.02-.01,0-.03,0-.03-.02,0-.01,0-.03,0-.06,0-.02,0-.06,0-.11,0-.06,0-.12,0-.18,0-.06,0-.12,.01-.16,0-.05,.04-.06,.05-.06,.03,0,.06,0,.08,0,.02,0,.03,0,.05-.01,0,0,.02,0,.02-.02,0,0,0-.02,.01-.03,0-.02,0-.04,0-.05-.01-.02-.04-.02-.07-.03-.05,0-.11,0-.19,0h0s-.04,0-.04-.02c0-.01,0-.03,0-.06,0-.09,0-.18,0-.25,0-.07,0-.13,.02-.17,0-.03,0-.06,0-.09,0-.03-.03-.06-.07-.09-.03-.03-.06-.04-.08-.05-.02,0-.03,0-.04,0-.02,.01-.03,.04-.03,.06,0,.03,0,.07,0,.13,0,.04,.01,.11,.02,.19,0,.08,0,.17,0,.28,0,.03,0,.05,0,.06,0,.01-.02,.02-.04,.02-.01,0-.03,0-.04,0-.01,0-.02,0-.04,0-.04,0-.08,0-.11-.01-.02-.01-.05-.01-.07,0-.02,0-.05,.04-.07,.08-.02,.04-.03,.07-.04,.1,0,.03,0,.05,.01,.06,0,.01,.02,.02,.05,.01,.02,0,.06-.01,.09-.04,.02-.01,.04-.02,.06-.03,.02,0,.03-.01,.05-.02,0,0,0,0,.01,0,.01,0,.02,0,.03,.01,0,0,.01,.03,.01,.06,0,.07-.02,.14-.04,.22-.02,.07-.05,.14-.09,.21-.04,.06-.08,.12-.13,.17-.05,.05-.11,.09-.18,.11-.04,.01-.04,.02-.04,.03,0,0,0,.02,.02,.06,.02,.04,.05,.07,.08,.09,.03,.02,.07,.02,.11,.01,.04,0,.08-.03,.13-.07,.04-.04,.09-.1,.13-.18,.03-.05,.05-.11,.07-.15,.02-.05,.03-.1,.04-.15s.02-.11,.02-.17c0-.06,0-.13,0-.21,0-.03,.02-.04,.04-.04,.03,0,.05,0,.06,0,.02,0,.03,.02,.03,.03,0,.07,0,.13,0,.18,0,.05,0,.1,0,.14,0,.04,0,.08,0,.11,0,.03,0,.07,0,.1,0,.06,0,.12,0,.16,0,.04,.02,.07,.04,.09,.02,.02,.05,.03,.08,.02,.03,0,.08-.03,.12-.07,.03-.03,.06-.07,.09-.13,.03-.06,.06-.14,.09-.22,.01-.04,.01-.06,0-.07Z"/>
          <path class="cls-8" d="M9.16,1.51h-.56s-.03,0-.03-.01c0,0,0-.01,0-.02,0-.07,0-.09,.01-.1,.01-.02,.04-.02,.07,0,.01,0,.04,.01,.07,.02,.03,0,.07,.01,.11,.01,.04,0,.06-.01,.08-.04,.02-.03,.03-.08,.03-.13,0-.03,0-.06,0-.08,0-.02,0-.04,0-.06,0-.02,0-.04,0-.06v-.07s.01-.06,0-.08c0-.02-.02-.04-.05-.05-.02-.01-.04-.02-.05-.02-.01,0-.04,0-.06,.01-.04,.01-.1,.02-.18,.02-.02,0-.03,0-.04-.01-.01-.01-.02-.03-.01-.06,0-.04,0-.06,.01-.06,0,0,.01-.02,.04-.02,.03,0,.06,0,.09,0,.03,0,.07,0,.11,0,.03,0,.04,0,.05-.01,0,0,.01-.02,.02-.06,0,0,0,0-.01-.02,0,0-.02-.01-.06-.02-.02,0-.04,0-.06,0-.02,0-.06,0-.12,0h0s-.05,0-.06-.01c-.01,0-.02-.02-.02-.05,0-.07,0-.1-.02-.12-.01-.02-.04-.03-.08-.03-.04,0-.06,0-.07,.03,0,.01-.02,.05-.02,.13,0,.02,0,.03,0,.04,0,0-.02,.01-.04,0-.01,0-.02,0-.04,0-.01,0-.02,0-.04-.01-.05-.02-.09-.02-.13,0-.02,.01-.04,.03-.05,.05,0,.02-.01,.04,0,.06,0,.02,.01,.04,.02,.05,.01,0,.03,0,.05,0,.03-.01,.05-.02,.08-.02,.03,0,.06,0,.1,0h0s.04,.01,.04,.02c0,0,0,.02,0,.07,0,.06-.03,.07-.05,.07h-.08s-.03,0-.05,0c-.03,0-.05,0-.07-.02-.01,0-.03-.01-.04-.02-.02,0-.03,0-.05,0-.03,.01-.04,.04-.04,.09,0,.05,.01,.12,.01,.18,0,.06,0,.13,0,.19,0,.05,0,.09,.02,.12,.01,.02,.03,.04,.05,.04,.01,0,.03,0,.04,0,.01,0,.03-.01,.04-.03,.01-.02,.03-.03,.05-.03h.04s.03,0,.05,0c.03,0,.05,0,.06,.01,0,0,.02,.03,.01,.1,0,.05-.03,.05-.04,.05-.02,0-.04,0-.06,0-.02,0-.04,0-.06,0-.04,0-.07,0-.09,0-.02,0-.04-.01-.05-.02-.03-.02-.05-.02-.07-.01-.02,0-.05,.03-.06,.05-.02,.02-.04,.05-.05,.09,0,.02-.02,.04-.02,.06,0,.02,0,.03,0,.04,0,0,.01,.01,.03,.01,.02,0,.03,0,.06-.03,.03-.02,.06-.03,.08-.04,.03,0,.06-.01,.12-.02,.04,0,.07,0,.09,0h.09s.04,.02,.04,.04c0,.06,0,.11,0,.16,0,.05,0,.1,0,.13,0,.06,.01,.08,.02,.09,0,0,.02,.01,.08,0,.04-.01,.07-.03,.08-.05,.01-.02,.02-.06,.01-.11,0-.04,0-.07,0-.1v-.11s.02-.04,.04-.04c.03,0,.06,0,.1,.02,.03,0,.07,.02,.11,.04,.04,.02,.08,.03,.11,.04,.03,0,.05,.01,.07,.02,.02,0,.03,0,.04,0,.01,0,.02-.01,.04-.02,.03-.03,.05-.05,.07-.07,.02-.02,.03-.05,.05-.09,.01-.03,.01-.04,0-.05,0-.01-.03-.01-.04-.01Zm-.79-.25s-.02,0-.05,0c0,0-.02,0-.03,0-.07,0-.09-.01-.1-.02-.02,0-.02-.02-.02-.04,0-.03,0-.05,.03-.06,.02-.01,.05-.02,.1-.01,.04,0,.07,0,.08,.03,.01,.02,.02,.04,.02,.07,0,.02-.01,.04-.02,.04Zm0-.22s-.02,0-.08,.01c-.02,0-.03,0-.04,0-.04,0-.05,0-.06,0-.02,0-.03-.02-.03-.04,0-.03,0-.06,.03-.07,.02-.01,.05-.02,.09-.02,.04,0,.07,0,.08,.01,.02,.01,.02,.04,.02,.07,0,.02,0,.03-.02,.04Zm.2-.12s.03-.02,.06-.02h.07s.03,0,.04,0c.02,0,.04,.01,.04,.02,0,0,.01,.02,.01,.05,0,.03,0,.05-.02,.06-.01,.01-.03,.02-.06,.02h-.1s-.05,0-.05-.01c0,0-.01-.02-.01-.04,0-.06,0-.07,.01-.08Zm-.01,.29s0-.06,0-.07c0-.01,.02-.02,.05-.02h.05s.04,0,.06,0c.02,0,.05,.02,.05,.08,0,.02-.01,.03-.02,.04-.01,0-.03,.01-.06,.01s-.05,0-.07,0c-.02,0-.03,0-.04,0-.01,0-.02,0-.02-.02,0,0,0-.01,0-.02Z"/>
          <path class="cls-8" d="M8.16,.34s.05,0,.09,0c.04,0,.07,0,.12,0,.04,0,.08,0,.12,0,.04,0,.07,0,.1,0,.01,0,.03,0,.04,0,.03,0,.06,0,.1,0,.05,0,.09,.01,.13,.02,.03,0,.06,.03,.08,.06,.02,.03,.03,.07,.03,.12,0,.04,0,.07,0,.09v.09s0,.06,.01,.07c0,0,0,.01,.04,.01,.02,0,.03,0,.03-.01,0,0,.01-.02,.02-.07,0-.06,.01-.13,.02-.21,0-.08,0-.16,0-.24,0-.05-.02-.09-.04-.1-.02-.01-.04-.01-.06,0-.02,.02-.04,.03-.05,.03-.02,0-.03,0-.05,0-.04-.01-.09-.02-.15-.02-.12,0-.26,0-.38,0-.06,0-.12,.01-.17,.02-.02,0-.03,0-.06,0-.02,0-.04-.02-.06-.04-.03-.03-.07-.02-.1,0-.03,.02-.04,.08-.04,.17,0,.05,0,.11,0,.15,0,.05,0,.09,0,.13,0,.07,0,.11,.02,.14,.02,.03,.04,.03,.04,.03,.02,0,.03,0,.04-.02,0-.01,.02-.04,.02-.08,0-.04,0-.08,0-.11,0-.03,0-.06,0-.09,0-.04,.02-.07,.03-.09,.02-.02,.05-.03,.09-.04Z"/>
          <path class="cls-8" d="M11.81,1.66s-.02,0-.05,0c-.02,0-.05,0-.08,0-.03,0-.06,0-.08,0-.03,0-.04,0-.05,0-.06,0-.14-.02-.23-.03-.09-.02-.18-.03-.26-.05-.02,0-.03-.02-.04-.03,0-.01,0-.03,0-.05,0-.01,0-.03,0-.04,0-.02,0-.04,0-.07,0-.06,0-.09,.02-.11,.02-.02,.05-.02,.09-.02,.06,0,.12,0,.18,0,.06,0,.11,0,.15,0,.05,0,.06,0,.07,0,0,0,.01-.01,.02-.04,0-.02,0-.05-.05-.06-.03,0-.05,0-.07-.01-.02,0-.05,0-.08,0-.03,0-.06,0-.09,0-.03,0-.07,0-.12,0-.04,0-.07,0-.09-.01-.02,0-.03-.02-.03-.04,0-.02,0-.03,.01-.04,0-.01,.02-.02,.04-.02,.02,0,.04,0,.08,0,.03,0,.07,0,.13,0,.05,0,.09,0,.12,0,.03,0,.05-.02,.05-.04,0-.02,0-.03,0-.04,0,0-.01,0-.02,0-.02,0-.05,0-.07,0-.03,0-.06,0-.09,0-.03,0-.06,0-.09,0-.03,0-.05,0-.07,0-.03,0-.06,0-.07,0-.01,0-.03-.02-.03-.05,0-.01,0-.02,0-.03,0,0,.02-.01,.04-.02,.02,0,.04,0,.07,0,.04,0,.11,0,.2,0,.03,0,.06,0,.08,.01,.02,0,.03,0,.04-.01,.01-.01,.02-.03,.02-.05,0-.06,0-.09,.02-.11,.01-.02,.04-.03,.07-.03,.03,0,.06,0,.08,0,.02,0,.04,0,.07,0,0,0,.02,0,.02-.05,0,0,0-.03-.05-.04-.02,0-.04,0-.06,0-.02,0-.04,0-.07,0-.03,0-.05-.01-.06-.03-.01-.02-.02-.04-.01-.08,0-.05,0-.08,0-.09,0-.01-.01-.03-.03-.05-.01-.01-.03-.02-.05-.03-.02,0-.03-.01-.05-.01,0,0-.02,0-.03,0,0,0-.02,.01-.04,.03-.01,0-.03,.01-.06,.02-.03,0-.09,0-.17,0h0s-.02,0-.03,0c0,0-.02-.02-.02-.04,0-.07-.02-.09-.02-.1-.01-.01-.03-.02-.06-.03-.06,0-.09,0-.1,0,0,0-.02,.02-.02,.09,0,.03,0,.05-.02,.06-.01,0-.04,.01-.07,.01-.02,0-.04,0-.06,0-.02,0-.05-.01-.07-.02,0,0-.02,0-.04,0-.02,0-.03,0-.04,.01-.02,.01-.03,.03-.04,.06,0,.02-.01,.05,0,.07,0,0,.01,.01,.02,.02,.02,0,.04,0,.07,0,0,0,.02,0,.04,0,.02,0,.03,0,.05,0h.06s.03,0,.05,0c.06,0,.08,.04,.08,.07,0,.03,0,.05-.02,.06-.01,0-.04,.01-.08,.02-.05,0-.09,0-.12,0h-.07s-.03,0-.04,0c0,0-.02,0-.03,0-.01,0-.02,0-.04,0-.02,0-.03,0-.03,0-.03,.02-.06,.04-.07,.05-.01,.01-.02,.03-.03,.06,0,.02,0,.03,.01,.04,.02,.01,.03,.01,.05,0,.01,0,.03-.01,.04-.02,.01,0,.03,0,.04-.01,.02,0,.03,0,.06-.01,.02,0,.05,0,.08-.01,.01,0,.03,0,.06,0,.02,0,.05,0,.09,0,.04,0,.06,0,.07,0,.02,0,.03,.03,.03,.05,0,.03-.01,.05-.02,.05-.01,0-.04,0-.07,0-.06,0-.1,0-.13-.01,0,0-.02,0-.04,0-.02,0-.04,0-.06,.02-.02,0-.04,.02-.05,.05-.02,.02-.02,.04-.02,.06,0,.03,.01,.03,.02,.03,.01,0,.02,0,.04,0,.02-.02,.06-.03,.11-.04,.05-.01,.09-.01,.13,0,.06,0,.08,.01,.09,.02,.01,0,.02,.03,.03,.05,0,.03-.02,.04-.03,.05,0,0-.03,0-.1,.01-.04,0-.07,0-.1,0-.03,0-.06,0-.09,0-.04,0-.07,.02-.09,.06-.02,.03-.02,.05-.02,.07,0,0,.01,.02,.04,0,.03-.01,.06-.02,.1-.03,.04,0,.07,0,.11,0,.04,0,.07,0,.09,0,.02,0,.04,0,.05,0,.01,0,.02,.01,.03,.02,0,0,0,.02,0,.04,0,.01,0,.02,0,.03,0,0-.01,.02-.03,.02-.01,0-.03,0-.06,.01-.02,0-.05,0-.09,0h-.11s-.03,0-.04,0c-.01,0-.02,0-.03,0-.02,0-.04,0-.05,.01-.02,0-.03,.03-.05,.06-.02,.03-.02,.06,0,.08,0,0,.02,.02,.06,0,0,0,.02,0,.04-.01,.02,0,.04,0,.06,0,.05,0,.1,0,.16,0,.07,0,.11,.02,.13,.04,.02,.02,.03,.07,.02,.14,0,.03-.01,.05-.03,.06-.02,.01-.04,.01-.06,0-.04-.02-.08-.03-.12-.04-.04-.01-.07-.03-.11-.04-.04-.02-.08-.03-.12-.05-.04-.02-.09-.04-.14-.07-.02,0-.03-.02-.04-.03,0-.01-.01-.03-.01-.06,0-.02,0-.06,0-.1,0-.04,.02-.1,.03-.17,0-.05,0-.09-.02-.13-.02-.03-.05-.05-.09-.05-.01,0-.05,0-.06-.02,0-.02,.01-.04,.03-.06,.02-.02,.04-.04,.08-.08,.03-.03,.06-.06,.08-.09,.06-.07,.07-.13,.04-.17-.02-.03-.05-.05-.08-.06-.03,0-.05,0-.07,0-.02,.01-.04,.02-.06,.03-.02,0-.05,0-.08,0-.03,0-.06,0-.08,0-.02,0-.04-.01-.07-.03-.03-.01-.05-.02-.07-.01-.02,0-.06,.02-.1,.06-.04,.03-.07,.07-.07,.11,0,.04,0,.06,.03,.08,.02,0,.03,.01,.04,.01,.02,0,.04-.01,.07-.03,.02-.01,.07-.02,.14-.04,.07-.01,.1,.02,.11,.04,.02,.04,0,.07-.02,.11-.03,.03-.06,.07-.1,.09-.04,.03-.08,.05-.11,.06-.03,0-.06,.03-.07,.05-.02,.02-.02,.05-.01,.07,0,.03,.03,.05,.05,.05,.03,0,.06,0,.09-.03,.07-.04,.12-.06,.15-.05,.03,0,.06,.03,.06,.08,0,.09,0,.14-.02,.17-.02,.03-.05,.04-.1,.04-.01,0-.03,0-.05,0-.02,0-.03,0-.05,0-.07,0-.11,0-.13,.03-.02,.02-.04,.05-.05,.09,0,.03,0,.04,0,.05,.01,.01,.03,.01,.06,0,.02,0,.04,0,.05,0,.01,0,.03,0,.05,0,.07,0,.1,.03,.11,.07,0,.03-.01,.08-.06,.14-.03,.03-.06,.07-.1,.1-.04,.03-.08,.06-.12,.08-.04,.02-.09,.05-.14,.06-.05,.02-.09,.03-.14,.03-.03,0-.05,.01-.05,.02,0,0,0,.03,.04,.07,.02,.02,.05,.04,.07,.05,.02,0,.06,0,.11,0,.05,0,.11-.03,.16-.05,.05-.03,.1-.06,.15-.1,.05-.04,.09-.08,.13-.13,.04-.05,.07-.09,.09-.14,.02-.04,.04-.06,.06-.06,0,0,.01,0,.02,0,.02,0,.04,0,.07,.02,.04,.02,.08,.04,.13,.06,.04,.02,.09,.05,.15,.08,.06,.03,.13,.07,.21,.13,.08,.05,.19,.11,.31,.19,.02,.01,.04,.02,.06,.04l.08,.05s.05,.03,.07,.04c.03,.02,.03,.02,.04,.02,.06,.03,.11,.05,.17,.06,.06,0,.11,0,.15-.04,.03-.02,.06-.05,.09-.07,.02-.02,.05-.04,.07-.06,.02-.02,.04-.05,.05-.07,.02-.03,.03-.06,.05-.1h0s.01-.06,.01-.06c0,0-.01-.01-.06-.01Zm-.76-1.35s.09-.01,.18,0c.02,0,.04,0,.05,.01,.01,0,.02,.03,.02,.06h0s0,.03,0,.04c0,.01-.01,.02-.03,.03-.01,0-.03,0-.06,.01-.02,0-.05,0-.09,0-.03,0-.06,0-.07-.01-.01,0-.03-.02-.03-.05,0-.03,.01-.06,.04-.07Zm0,.23s.05-.01,.1,0c.07,0,.1,.01,.12,.02,.02,0,.03,.03,.02,.07h0s-.02,.04-.03,.04c0,0-.02,0-.03,0,0,0-.01,0-.02,0-.04,0-.08,0-.1-.01-.03,0-.05,0-.06-.01-.02,0-.03-.01-.03-.02,0,0,0-.02,0-.03,0-.02,0-.04,.04-.05Z"/>
          <path class="cls-8" d="M14.47,1.68c-.09-.01-.19-.04-.3-.08-.11-.04-.23-.1-.35-.16-.03-.01-.01-.06,0-.08,.01-.03,.03-.07,.04-.11,.01-.04,.03-.08,.04-.13,0-.03,.01-.06,0-.09,0-.03-.02-.05-.03-.07-.02-.02-.04-.04-.06-.05-.02,0-.04-.01-.07-.01-.02,0-.04,0-.06,0-.02,0-.05,0-.09-.02-.04,0-.07-.01-.11,0-.04,0-.07,.01-.11,.03-.03,.01-.06,.03-.09,.05-.03,.02-.04,.04-.05,.06-.03,.07-.02,.09-.02,.1,0,.01,.04,0,.09-.01,.06-.03,.12-.05,.17-.06,.05-.01,.1-.01,.14,0,.03,0,.06,.02,.07,.03,.01,.02,.02,.04,.02,.06,0,.02,0,.04,0,.06,0,.02-.01,.04-.03,.07-.01,.02-.02,.03-.04,.04-.01,0-.03,0-.04,0-.03-.02-.06-.04-.08-.06-.02-.02-.04-.03-.06-.05-.03-.03-.05-.04-.08-.04-.03,0-.06,0-.09,.03-.02,0-.03,.02-.04,.04,0,.01,0,.03,0,.04s.01,.03,.03,.04c.02,.01,.04,.02,.07,.03,.04,0,.09,.03,.15,.08,.02,.01,.03,.03,.03,.05,0,.02,0,.03-.02,.05-.04,.04-.07,.08-.1,.11-.03,.03-.06,.06-.09,.08-.03,.02-.07,.04-.1,.06-.04,.02-.08,.03-.13,.04-.02,0-.03,0-.04,0,0,0,0-.02,0-.05,0-.05,0-.09,0-.14,0-.04,0-.08,0-.1,0-.05,.01-.08,0-.11,0-.03-.01-.05-.03-.08,0-.01-.02-.02-.03-.02-.01,0-.02,0-.03,0-.01,.01-.04,.02-.08,.02-.04,0-.08,0-.11-.01-.04-.01-.09-.02-.15-.02-.06,0-.11,.01-.16,.03-.01,0-.03,0-.05-.02-.01-.02-.02-.02-.04-.02-.02,0-.03,0-.05,.02-.02,.01-.03,.03-.04,.06,0,.03-.01,.06,0,.11,0,.02,0,.05,0,.08,0,.03,0,.07,0,.1,0,.04,0,.07,0,.11,0,.03,0,.06,0,.09,0,.03,0,.06,0,.08,.01,.02,.02,.03,.04,.04,.01,0,.03,0,.04,0,.01,0,.02,0,.03-.02h0s.02-.02,.04-.02c.11-.01,.21-.02,.27-.01,.07,0,.11,.02,.13,.03,.01,.01,.03,.02,.05,.03,.02,0,.03,0,.04,0,.02,0,.04,0,.05,0,.04,.02,.09,.03,.14,.03,.06,0,.14-.04,.23-.11,.02-.01,.03-.03,.06-.05,.02-.02,.05-.04,.07-.06,.03-.02,.05-.05,.07-.07,.02-.02,.04-.04,.06-.06,.01-.02,.03-.02,.04-.02,0,0,0,0,0,0,.02,0,.03,0,.05,.02,.04,.04,.09,.08,.14,.13,.05,.05,.09,.09,.13,.13,.04,.04,.08,.08,.11,.1,.03,.02,.06,.04,.09,.04,.03,0,.05,0,.08,0,.02,0,.05-.02,.07-.04,.04-.03,.07-.07,.1-.1,.03-.03,.05-.07,.06-.1,.02-.05,.01-.07,.01-.07,0-.01-.02-.02-.04-.02Zm-1.63-.17c0,.1-.02,.16-.03,.18-.01,.03-.03,.04-.05,.04,0,0,0,0-.01,0-.03,0-.06,0-.1,0-.04,0-.08,0-.12,0h0s-.04-.02-.04-.04v-.13s0-.09,0-.12c0-.04,.02-.04,.03-.04,.03,0,.08,0,.13,0,.05,0,.09,0,.12,.01,.03,0,.05,.02,.06,.03,0,.02,.01,.04,0,.08Z"/>
          <path class="cls-8" d="M12.43,.61s.08,0,.13-.01c.03,0,.06,0,.1,0,.08,0,.17,0,.23,0,.03,0,.06,0,.08,0,.05,0,.06,0,.07,0,.01,0,.02-.02,.02-.04,0-.03,0-.05-.01-.07-.01-.02-.04-.03-.07-.03-.05,0-.1,0-.17,0s-.14,0-.21,0c-.06,0-.12,0-.16,0-.05,0-.08-.02-.09-.03,0,0-.02,0-.03,0-.01,0-.03,0-.04,0-.03,.01-.06,.04-.09,.08-.02,.03-.03,.06-.04,.09,0,.02,0,.04,0,.06,0,.01,.01,.02,.02,.02,.01,0,.03,0,.05,0,.01,0,.03,0,.04-.01,.01,0,.03,0,.06-.01,.02,0,.05,0,.09,0Z"/>
          <path class="cls-8" d="M12.34,1.14s.02,0,.04,0c.03-.01,.06-.02,.08-.02,.03,0,.05,0,.07,0,.03,0,.07,0,.11,0,.04,0,.08,0,.12,0,.04,0,.08,0,.11,0,.03,0,.06,0,.08-.02,.03,0,.04-.02,.04-.02,0,0,0-.01,0-.04,0,0,0-.01,0-.01,0,0-.02,0-.05-.01-.03,0-.06,0-.09,0-.04,0-.07,0-.11,0-.04,0-.08,0-.11,0-.03,0-.06,0-.08,0-.04,0-.07,.01-.09,.01-.02,0-.03,0-.05,0,0,0-.01,0-.02,0-.01,0-.03,0-.03,.02-.03,.04-.04,.07-.03,.09,0,0,0,.01,.01,.02Z"/>
          <path class="cls-8" d="M13.84,.87s.07,.04,.11,.05c.11,.03,.2,.03,.26,0,.06-.03,.1-.09,.13-.18,.02-.07,.02-.1,0-.12,0-.01-.02-.02-.04,0-.06,.03-.11,.05-.15,.06-.04,.01-.08,.02-.11,.02-.03,0-.06-.01-.08-.03-.02-.02-.03-.04-.05-.06-.02-.04-.03-.09-.03-.14,0-.05,0-.1,.03-.15,.01-.03,.02-.06,.01-.09,0-.02-.02-.05-.04-.07-.02-.02-.04-.03-.07-.03s-.06,.01-.1,.04c0,0-.01,0-.02,.01,0,0-.02,0-.04,0-.02,0-.04,0-.08,0h-.13s-.06-.01-.09-.04c-.02-.02-.04-.03-.06-.03-.02,0-.04,0-.05,.02-.02,.01-.03,.03-.04,.06,0,.02,0,.05,0,.09,.03,.14,.03,.26,0,.33-.03,.08-.1,.13-.21,.17-.01,0-.03,0-.05-.02,0,0-.02-.01-.07-.02-.04,0-.08-.01-.12-.01-.05,0-.09,0-.13,0-.04,0-.08,0-.1,.01-.04,0-.07,.01-.09,.02-.02,0-.04,0-.06,0-.02,0-.04,0-.06,.02-.03,.04-.04,.07-.04,.1,0,.01,0,.02,.01,.02,0,0,.02,0,.03,0,.03-.01,.07-.02,.11-.03,.05,0,.1,0,.15,0,.08,0,.14,0,.18,0s.08,0,.12-.01c0,0,0,0,.01,0,0,0,.02,0,.03,.03,.03,.05,.08,.08,.14,.08s.13-.05,.21-.14c.03-.03,.05-.08,.07-.15,.02-.07,.03-.15,.03-.24,0-.04,.02-.06,.04-.06,.03,0,.06-.01,.1-.01,.04,0,.07,0,.09,0,.1,0,.12,.07,.12,.11,0,.08,0,.14,0,.2,0,.05,.02,.1,.03,.13,.02,.03,.04,.06,.07,.08Z"/>
          <path class="cls-8" d="M12.51,.31s.04,.02,.07,.02c.03,0,.06,.01,.09,.01,.03,0,.06,0,.1,0,.03,0,.06-.01,.09-.02,.01,0,.03-.01,.03-.02,0,0,0-.01-.04-.03-.03-.02-.06-.04-.1-.06-.03-.03-.07-.07-.12-.12-.03-.04-.06-.06-.09-.06,0,0,0,0,0,0-.03,0-.06,.03-.08,.07-.02,.05-.03,.09-.02,.12,0,.03,.03,.06,.07,.08Z"/>
        </g>
        <g>
          <polygon class="cls-1" points="0 1.41 .61 1.41 1.23 .77 1.23 .15 0 1.41"/>
          <polygon class="cls-7" points="0 1.41 .61 1.41 1.23 2.06 1.23 2.68 0 1.41"/>
          <polygon class="cls-5" points="3.7 1.41 3.09 1.41 2.47 .76 2.47 .15 3.7 1.41"/>
          <polygon class="cls-11" points="1.24 1.41 1.85 1.41 2.47 2.06 2.47 2.67 1.24 1.41"/>
          <polygon class="cls-6" points="1.22 2.66 1.22 2.05 1.86 1.42 2.47 1.42 1.22 2.66"/>
          <polygon class="cls-9" points="3.7 1.41 3.09 1.41 2.47 2.06 2.47 2.68 3.7 1.41"/>
          <polygon class="cls-10" points="1.24 1.41 1.86 1.41 1.86 .78 1.24 1.41"/>
          <polygon class="cls-3" points="1.87 .78 1.87 1.41 2.48 1.42 1.87 .78"/>
        </g>
        <g class="cls-4">
          <path class="cls-12" d="M4.29,2.47h.07s0,.12,0,.12h.14s0-.12,0-.12h.07s0,.31,0,.31h-.07s0-.13,0-.13h-.14s0,.13,0,.13h-.07s0-.31,0-.31Z"/>
          <path class="cls-12" d="M4.79,2.47v.19s0,0,0,0h0s0,0,0,0h0s0,0,0,0,0,0,0,0c0,0,0,.01,0,.02,0,0,.01,.01,.02,.02,0,0,.02,0,.03,0h0s0,0,.01,0c0,0,0,0,.01,0,0,0,.01,0,.02-.02,0,0,0-.01,0-.02v-.02s0,0,0,0v-.19s.07,0,.07,0v.19s0,.03,0,.04c0,.01-.01,.03-.02,.04-.01,.01-.03,.02-.05,.03-.02,0-.04,.01-.06,.01h0s0,0,0,0c-.02,0-.03,0-.05-.01-.02,0-.03-.02-.04-.02-.01-.01-.02-.03-.03-.04,0,0,0-.01,0-.02,0,0,0-.02,0-.02v-.19s.07,0,.07,0Z"/>
          <path class="cls-12" d="M5.22,2.47h.06s.16,.31,.16,.31h-.08s-.04-.08-.04-.08h-.14s-.04,.08-.04,.08h-.08s.16-.31,.16-.31Zm.07,.17l-.04-.09-.04,.09h.08Z"/>
          <path class="cls-12" d="M5.8,2.47h.07s0,.12,0,.12h.14s0-.12,0-.12h.07s0,.31,0,.31h-.07s0-.13,0-.13h-.14s0,.13,0,.13h-.07s0-.31,0-.31Z"/>
          <path class="cls-12" d="M6.29,2.47v.19s0,0,0,0h0s0,0,0,0h0s0,0,0,0,0,0,0,0c0,0,0,.01,0,.02,0,0,.01,.01,.02,.02,0,0,.02,0,.03,0h0s0,0,.01,0c0,0,0,0,.01,0,0,0,.01,0,.02-.02,0,0,0-.01,0-.02v-.02s0,0,0,0v-.19s.07,0,.07,0v.19s0,.03,0,.04c0,.01-.01,.03-.02,.04-.01,.01-.03,.02-.05,.03-.02,0-.04,.01-.06,.01h0s0,0,0,0c-.02,0-.03,0-.05-.01-.02,0-.03-.02-.04-.02-.01-.01-.02-.03-.03-.04,0,0,0-.01,0-.02,0,0,0-.02,0-.02v-.19s.07,0,.07,0Z"/>
          <path class="cls-12" d="M6.63,2.47h.07s0,.31,0,.31h-.07s0-.31,0-.31Z"/>
          <path class="cls-12" d="M7.41,2.7s-.04,.05-.07,.07c-.03,.02-.07,.02-.1,.02h0c-.06,0-.1-.02-.14-.05-.04-.03-.06-.07-.06-.11s.02-.08,.06-.11c.04-.03,.09-.05,.14-.05,.04,0,.08,0,.11,.03,.03,.02,.06,.04,.07,.07h-.08s-.03-.02-.05-.03c-.02,0-.04-.01-.06-.01-.03,0-.06,.01-.09,.03-.02,.02-.04,.05-.04,.08,0,.03,.01,.05,.04,.07,.03,.02,.06,.03,.09,.03,.02,0,.04,0,.05,0,.02,0,.03-.02,.04-.03h.08Z"/>
          <path class="cls-12" d="M7.85,2.52s.06,.07,.06,.12-.02,.08-.06,.11c-.04,.03-.09,.05-.14,.05s-.1-.02-.14-.05c-.04-.03-.06-.07-.06-.11s.02-.08,.06-.12c.04-.03,.09-.05,.14-.05s.1,.02,.14,.05Zm-.23,.04s-.04,.04-.04,.07,.01,.05,.04,.07c.03,.02,.06,.03,.09,.03s.07-.01,.09-.03c.03-.02,.04-.05,.04-.08s-.01-.05-.04-.07c-.03-.02-.06-.03-.09-.03-.04,0-.07,0-.09,.03Z"/>
          <path class="cls-12" d="M8.05,2.48h.08s.16,.23,.16,.23v-.23s.07,0,.07,0v.31s-.08,0-.08,0l-.16-.23v.23s-.07,0-.07,0v-.31Z"/>
          <path class="cls-12" d="M8.52,2.7s0,.02,.02,.03c.01,0,.02,.01,.04,.01,0,0,.01,0,.02,0,0,0,.01,0,.02,0,.01,0,.02-.02,.02-.03,0-.02,0-.03-.02-.03-.01,0-.03-.01-.04-.02h0s0,0,0,0c0,0,0,0,0,0h0s-.02,0-.03-.01c-.01,0-.02,0-.03-.02,0,0-.01-.01-.02-.02,0,0,0-.02,0-.03h0s0,0,0,0c0-.03,.01-.05,.03-.06,.02-.02,.05-.02,.08-.02s.06,0,.08,.03c.02,.02,.03,.04,.03,.06h-.07s0-.02-.01-.02c0,0-.02,0-.03,0s-.02,0-.03,0c0,0-.01,.01-.01,.02h0s0,0,0,0c0,0,0,.02,.01,.02,0,0,.02,0,.03,.01h0s0,0,0,0h0s0,0,0,0c.01,0,.02,0,.03,.01,.01,0,.02,0,.03,.02,.01,0,.02,.02,.03,.03,0,.01,.01,.03,.01,.04,0,.03-.01,.05-.04,.07-.02,.02-.05,.03-.09,.03s-.06,0-.09-.03-.04-.04-.04-.07h.07Z"/>
          <path class="cls-12" d="M8.85,2.53h-.07s0-.06,0-.06h.21s0,.06,0,.06h-.07s0,.25,0,.25h-.07s0-.25,0-.25Z"/>
          <path class="cls-12" d="M9.13,2.48h.11s.03,0,.05,0c.02,0,.03,0,.05,.02,.01,0,.03,.02,.03,.03,0,.01,.01,.03,.01,.04,0,0,0,0,0,.01h0s0,.03-.01,.04c0,0-.01,.01-.02,.02,0,0-.02,.01-.03,.02-.01,0-.02,0-.04,.01l.1,.11h-.09s-.1-.12-.1-.12v.12s-.07,0-.07,0v-.31Zm.11,.15h0s0,0,.01,0h.02s.01,0,.02-.01c0,0,0,0,.01-.01,0,0,0-.01,0-.02,0,0,0-.01,0-.02,0,0,0-.01-.02-.02,0,0-.02,0-.03,0h-.03s-.04,0-.04,0v.09s.04,0,.04,0Z"/>
          <path class="cls-12" d="M9.58,2.48v.19s0,0,0,0h0s0,0,0,0h0s0,0,0,0,0,0,0,0c0,0,0,.01,0,.02,0,0,.01,.01,.02,.02,0,0,.02,0,.03,0h0s0,0,.01,0c0,0,0,0,.01,0,0,0,.01,0,.02-.02,0,0,0-.01,0-.02v-.02s0,0,0,0v-.19s.07,0,.07,0v.19s0,.03,0,.04c0,.01-.01,.03-.02,.04-.01,.01-.03,.02-.05,.03-.02,0-.04,.01-.06,.01h0s0,0,0,0c-.02,0-.03,0-.05-.01-.02,0-.03-.02-.04-.02-.01-.01-.02-.03-.03-.04,0,0,0-.01,0-.02,0,0,0-.02,0-.02v-.19s.07,0,.07,0Z"/>
          <path class="cls-12" d="M10.25,2.7s-.04,.05-.07,.07c-.03,.02-.07,.02-.1,.02h0c-.06,0-.1-.02-.14-.05-.04-.03-.06-.07-.06-.11s.02-.08,.06-.11c.04-.03,.09-.05,.14-.05,.04,0,.08,0,.11,.03,.03,.02,.06,.04,.07,.07h-.08s-.03-.02-.05-.03c-.02,0-.04-.01-.06-.01-.03,0-.06,.01-.09,.03-.02,.02-.04,.05-.04,.08,0,.03,.01,.05,.04,.07,.03,.02,.06,.03,.09,.03,.02,0,.04,0,.05,0,.02,0,.03-.02,.04-.03h.08Z"/>
          <path class="cls-12" d="M10.39,2.53h-.07s0-.06,0-.06h.21s0,.06,0,.06h-.07s0,.25,0,.25h-.07s0-.25,0-.25Z"/>
          <path class="cls-12" d="M10.67,2.48h.07s0,.31,0,.31h-.07s0-.31,0-.31Z"/>
          <path class="cls-12" d="M11.19,2.52s.06,.07,.06,.12-.02,.08-.06,.11c-.04,.03-.09,.05-.14,.05s-.1-.02-.14-.05c-.04-.03-.06-.07-.06-.11s.02-.08,.06-.12c.04-.03,.09-.05,.14-.05s.1,.02,.14,.05Zm-.23,.04s-.04,.04-.04,.07,.01,.05,.04,.07c.03,.02,.06,.03,.09,.03s.07-.01,.09-.03c.03-.02,.04-.05,.04-.08s-.01-.05-.04-.07c-.03-.02-.06-.03-.09-.03-.04,0-.07,0-.09,.03Z"/>
          <path class="cls-12" d="M11.4,2.48h.08s.16,.23,.16,.23v-.23s.07,0,.07,0v.31s-.08,0-.08,0l-.16-.23v.23s-.07,0-.07,0v-.31Z"/>
          <path class="cls-12" d="M12.42,2.71s-.04,.05-.07,.07c-.03,.02-.07,.02-.1,.02h0c-.06,0-.1-.02-.14-.05-.04-.03-.06-.07-.06-.11s.02-.08,.06-.11c.04-.03,.09-.05,.14-.05,.04,0,.08,0,.11,.03,.03,.02,.06,.04,.07,.07h-.08s-.03-.02-.05-.03c-.02,0-.04-.01-.06-.01-.03,0-.06,.01-.09,.03-.02,.02-.04,.05-.04,.08,0,.03,.01,.05,.04,.07,.03,.02,.06,.03,.09,.03,.02,0,.04,0,.05,0,.02,0,.03-.02,.04-.03h.08Z"/>
          <path class="cls-12" d="M12.86,2.52s.06,.07,.06,.12-.02,.08-.06,.11c-.04,.03-.09,.05-.14,.05s-.1-.02-.14-.05c-.04-.03-.06-.07-.06-.11s.02-.08,.06-.12c.04-.03,.09-.05,.14-.05s.1,.02,.14,.05Zm-.23,.04s-.04,.04-.04,.07,.01,.05,.04,.07c.03,.02,.06,.03,.09,.03s.07-.01,.09-.03c.03-.02,.04-.05,.04-.08s-.01-.05-.04-.07c-.03-.02-.06-.03-.09-.03-.04,0-.07,0-.09,.03Z"/>
          <path class="cls-12" d="M13.06,2.74h.07s0,.06,0,.06h-.07s0-.06,0-.06Z"/>
          <path class="cls-12" d="M13.17,2.74h.07s0,.05,0,.05c0,0,0,.02,0,.02,0,0,0,.01-.01,.02h0s0,0,0,0c0,0-.01,0-.02,.01,0,0-.01,0-.02,0h0s0,0,0,0h0s0-.03,0-.03c0,0,.02,0,.02,0,0,0,0,0,0-.02h0s-.03,0-.03,0v-.06Z"/>
          <path class="cls-12" d="M13.38,2.48h.07s0,.25,0,.25h.12s0,.06,0,.06h-.19s0-.31,0-.31Z"/>
          <path class="cls-12" d="M13.69,2.54h-.07s0-.06,0-.06h.21s0,.06,0,.06h-.07s0,.25,0,.25h-.07s0-.25,0-.25Z"/>
          <path class="cls-12" d="M13.97,2.48h.08s0,0,0,0h0s.02,0,.04,0c.01,0,.03,0,.04,0,.02,0,.05,.01,.07,.03,.02,.01,.03,.03,.04,.04,0,0,.01,.02,.01,.03,0,0,0,.02,0,.03h0s0,.02,0,.02h0s0,.02,0,.02c0,.01,0,.02,0,.03,0,0,0,.02-.01,.03-.01,.02-.03,.03-.04,.04-.02,.02-.05,.03-.08,.03-.01,0-.02,0-.04,0-.02,0-.03,0-.04,0h-.08s0-.31,0-.31Zm.08,.25s.04,0,.06,0c.02,0,.04,0,.05-.02,.02,0,.03-.02,.04-.03,0-.01,.01-.03,.01-.04,0-.02,0-.03-.01-.05,0-.01-.02-.03-.04-.04-.01,0-.03-.01-.04-.01,0,0-.01,0-.02,0s-.02,0-.02,0h-.01s-.01,0-.01,0h0s0,.2,0,.2h0Z"/>
        </g>
      </g>
    </g>
  </g>
</svg>